<?xml version="1.0" encoding="UTF-8" standalone="no"?>
<!-- Created with Inkscape (http://www.inkscape.org/) -->

<svg
   id="svg28496"
   version="1.1"
   inkscape:version="1.2.1 (9c6d41e, 2022-07-14)"
   width="317.52875"
   height="295.64787"
   xml:space="preserve"
   sodipodi:docname="Alves2007_fig2_withcartoon.svg"
   xmlns:inkscape="http://www.inkscape.org/namespaces/inkscape"
   xmlns:sodipodi="http://sodipodi.sourceforge.net/DTD/sodipodi-0.dtd"
   xmlns:xlink="http://www.w3.org/1999/xlink"
   xmlns="http://www.w3.org/2000/svg"
   xmlns:svg="http://www.w3.org/2000/svg"
   xmlns:rdf="http://www.w3.org/1999/02/22-rdf-syntax-ns#"
   xmlns:cc="http://creativecommons.org/ns#"
   xmlns:dc="http://purl.org/dc/elements/1.1/"><metadata
     id="metadata28502"><rdf:RDF><cc:Work
         rdf:about=""><dc:format>image/svg+xml</dc:format><dc:type
           rdf:resource="http://purl.org/dc/dcmitype/StillImage" /></cc:Work></rdf:RDF></metadata><defs
     id="defs28500"><marker
       style="overflow:visible"
       id="TriangleStart"
       refX="0"
       refY="0"
       orient="auto-start-reverse"
       inkscape:stockid="TriangleStart"
       markerWidth="5.3244081"
       markerHeight="6.155385"
       viewBox="0 0 5.3244081 6.1553851"
       inkscape:isstock="true"
       inkscape:collect="always"
       preserveAspectRatio="xMidYMid"><path
         transform="scale(0.5)"
         style="fill:context-stroke;fill-rule:evenodd;stroke:context-stroke;stroke-width:1pt"
         d="M 5.77,0 -2.88,5 V -5 Z"
         id="path135" /></marker><clipPath
       clipPathUnits="userSpaceOnUse"
       id="clipPath28512"><path
         d="M 0,0 595,0 595,842 0,842 0,0 z"
         id="path28514" /></clipPath><clipPath
       clipPathUnits="userSpaceOnUse"
       id="clipPath29168"><path
         d="m 305.16,765.268 231.39,0 0,-230.788 -231.39,0 0,230.788 z"
         id="path29170" /></clipPath><clipPath
       clipPathUnits="userSpaceOnUse"
       id="clipPath29174"><path
         d="M 0,0 595,0 595,842 0,842 0,0 z"
         id="path29176" /></clipPath><clipPath
       clipPathUnits="userSpaceOnUse"
       id="clipPath29184"><path
         d="M 0,0 595,0 595,842 0,842 0,0 z"
         id="path29186" /></clipPath><radialGradient
       inkscape:collect="always"
       xlink:href="#linearGradient2868"
       id="radialGradient1479"
       gradientUnits="userSpaceOnUse"
       gradientTransform="matrix(1,0,0,0.9971755,0,1.8099589)"
       cx="367.14639"
       cy="640.81793"
       fx="367.14639"
       fy="640.81793"
       r="121.6254" /><linearGradient
       id="linearGradient2868"><stop
         style="stop-color:#f2ff16;stop-opacity:1.0000000;"
         offset="0.0000000"
         id="stop2870" /><stop
         id="stop2876"
         offset="0.59096313"
         style="stop-color:#e7ff19;stop-opacity:0.57731956;" /><stop
         style="stop-color:#fffd16;stop-opacity:0.44329897;"
         offset="1.0000000"
         id="stop2872" /></linearGradient><radialGradient
       inkscape:collect="always"
       xlink:href="#linearGradient5994"
       id="radialGradient5160"
       gradientUnits="userSpaceOnUse"
       gradientTransform="matrix(0.3829788,0.2121923,-0.2005585,0.3619795,273.03883,97.63172)"
       cx="356.42371"
       cy="379.23129"
       fx="356.42371"
       fy="379.23129"
       r="153.84431" /><linearGradient
       id="linearGradient5994"><stop
         id="stop5996"
         offset="0"
         style="stop-color:#000000;stop-opacity:0.73469388;" /><stop
         style="stop-color:#000000;stop-opacity:0.59793812;"
         offset="0.38793105"
         id="stop5998" /><stop
         id="stop6000"
         offset="0.57788348"
         style="stop-color:#000000;stop-opacity:0.30927834;" /><stop
         id="stop6002"
         offset="1"
         style="stop-color:#000000;stop-opacity:0;" /></linearGradient><filter
       inkscape:collect="always"
       style="color-interpolation-filters:sRGB"
       id="filter1361"
       x="-0.024015309"
       width="1.0480306"
       y="-0.024015309"
       height="1.0480306"><feGaussianBlur
         inkscape:collect="always"
         stdDeviation="0.88056109"
         id="feGaussianBlur1363" /></filter><filter
       inkscape:collect="always"
       style="color-interpolation-filters:sRGB"
       id="filter1365"
       x="-0.032284401"
       width="1.0645688"
       y="-0.032284401"
       height="1.0645688"><feGaussianBlur
         inkscape:collect="always"
         stdDeviation="1.1837613"
         id="feGaussianBlur1367" /></filter><filter
       inkscape:collect="always"
       style="color-interpolation-filters:sRGB"
       id="filter1369"
       x="-0.048878786"
       width="1.0977576"
       y="-0.048878786"
       height="1.0977576"><feGaussianBlur
         inkscape:collect="always"
         stdDeviation="1.7922222"
         id="feGaussianBlur1371" /></filter><filter
       inkscape:collect="always"
       style="color-interpolation-filters:sRGB"
       id="filter1373"
       x="-0.18623562"
       width="1.3724712"
       y="-0.12415708"
       height="1.2483142"><feGaussianBlur
         inkscape:collect="always"
         stdDeviation="0.66106142"
         id="feGaussianBlur1375" /></filter><linearGradient
       inkscape:collect="always"
       xlink:href="#linearGradient4934"
       id="linearGradient5028"
       x1="109.34322"
       y1="311.23138"
       x2="115.70717"
       y2="345.79123"
       gradientUnits="userSpaceOnUse" /><linearGradient
       id="linearGradient4934"><stop
         style="stop-color:#3e2323;stop-opacity:1"
         offset="0"
         id="stop4928" /><stop
         id="stop4930"
         offset="0.39839268"
         style="stop-color:#000000;stop-opacity:0.23711340;" /><stop
         id="stop4932"
         offset="1"
         style="stop-color:#000000;stop-opacity:0;" /></linearGradient><filter
       inkscape:collect="always"
       style="color-interpolation-filters:sRGB"
       id="filter1341"
       x="-0.13787743"
       width="1.2757549"
       y="-0.030469917"
       height="1.0609398"><feGaussianBlur
         inkscape:collect="always"
         stdDeviation="0.43876473"
         id="feGaussianBlur1343" /></filter><linearGradient
       inkscape:collect="always"
       xlink:href="#linearGradient4934"
       id="linearGradient5046"
       x1="95.7314"
       y1="280.91418"
       x2="101.09403"
       y2="251.32162"
       gradientUnits="userSpaceOnUse"
       gradientTransform="translate(8.8388346,29.521707)" /><filter
       inkscape:collect="always"
       style="color-interpolation-filters:sRGB"
       id="filter1337"
       x="-0.11568376"
       width="1.2313675"
       y="-0.041629941"
       height="1.0832599"><feGaussianBlur
         inkscape:collect="always"
         stdDeviation="0.50273345"
         id="feGaussianBlur1339" /></filter><linearGradient
       inkscape:collect="always"
       xlink:href="#linearGradient5094"
       id="linearGradient5098"
       gradientUnits="userSpaceOnUse"
       gradientTransform="translate(8.8388346,29.521707)"
       x1="95.7314"
       y1="280.91418"
       x2="101.09403"
       y2="251.32162" /><linearGradient
       id="linearGradient5094"><stop
         id="stop5088"
         offset="0"
         style="stop-color:#3e2323;stop-opacity:1" /><stop
         style="stop-color:#000000;stop-opacity:0.23711340;"
         offset="0.50011814"
         id="stop5090" /><stop
         style="stop-color:#000000;stop-opacity:0;"
         offset="1"
         id="stop5092" /></linearGradient><filter
       inkscape:collect="always"
       style="color-interpolation-filters:sRGB"
       id="filter1333"
       x="-0.18385296"
       width="1.3677059"
       y="-0.054892899"
       height="1.1097858"><feGaussianBlur
         inkscape:collect="always"
         stdDeviation="0.70455731"
         id="feGaussianBlur1335" /></filter></defs><sodipodi:namedview
     pagecolor="#ffffff"
     bordercolor="#666666"
     borderopacity="1"
     objecttolerance="10"
     gridtolerance="10"
     guidetolerance="10"
     inkscape:pageopacity="0"
     inkscape:pageshadow="2"
     inkscape:window-width="1728"
     inkscape:window-height="1051"
     id="namedview28498"
     showgrid="false"
     inkscape:zoom="3.1018043"
     inkscape:cx="152.0083"
     inkscape:cy="145.88283"
     inkscape:window-x="0"
     inkscape:window-y="38"
     inkscape:window-maximized="0"
     inkscape:current-layer="g28504"
     inkscape:showpageshadow="0"
     inkscape:pagecheckerboard="0"
     inkscape:deskcolor="#d1d1d1" /><g
     id="g28504"
     inkscape:groupmode="layer"
     inkscape:label="Alves2007_fig2"
     transform="matrix(1.25,0,0,-1.25,-372.51762,961.08412)"><g
   id="g28506" /><g
   id="g29164"><g
     id="g29166"
     clip-path="url(#clipPath29168)"><g
       id="g29172"
       clip-path="url(#clipPath29174)"><path
         d="m 536.17,758.7 -2.014,0 m 2.014,-5.149 -2.014,0 m 2.014,-5.84 -2.014,0 m 2.014,-6.732 -2.014,0 m 2.014,-7.997 -2.014,0 m 2.014,-9.752 -2.014,0 m 2.014,-12.571 -2.014,0 m 2.014,-17.721 -2.014,0 m 2.014,-34.924 -2.014,0 m 2.014,-5.149 -2.014,0 m 2.014,-5.839 -2.014,0 m 2.014,-6.732 -2.014,0 m 2.014,-7.997 -2.014,0 m 2.014,-9.753 -2.014,0 m 2.014,-12.571 -2.014,0 m 2.014,-17.721 -2.014,0 m 2.014,171.051 -4.028,0 m 4.028,-100.685 -4.028,0 m 4.028,-100.686 -4.028,0 m 4.028,0 0,201.371 m -201.373,-4.603 2.014,0 m -2.014,-5.149 2.014,0 m -2.014,-5.84 2.014,0 m -2.014,-6.732 2.014,0 m -2.014,-7.997 2.014,0 m -2.014,-9.752 2.014,0 m -2.014,-12.571 2.014,0 m -2.014,-17.721 2.014,0 m -2.014,-34.924 2.014,0 m -2.014,-5.149 2.014,0 m -2.014,-5.839 2.014,0 m -2.014,-6.732 2.014,0 m -2.014,-7.997 2.014,0 m -2.014,-9.753 2.014,0 m -2.014,-12.571 2.014,0 m -2.014,-17.721 2.014,0 m -2.014,171.051 4.028,0 m -4.028,-100.685 4.028,0 m -4.028,-100.686 4.028,0 m -4.028,0 0,201.371 m 201.373,0 0,-2.014 m -6.501,2.014 0,-2.014 m -8.401,2.014 0,-2.014 m -11.823,2.014 0,-2.014 m -23.275,2.014 0,-2.014 m -3.423,2.014 0,-2.014 m -3.883,2.014 0,-2.014 m -4.517,2.014 0,-2.014 m -5.292,2.014 0,-2.014 m -6.501,2.014 0,-2.014 m -8.401,2.014 0,-2.014 m -11.823,2.014 0,-2.014 m -23.273,2.014 0,-2.014 m -3.424,2.014 0,-2.014 m -3.911,2.014 0,-2.014 m -4.488,2.014 0,-2.014 m -5.322,2.014 0,-2.014 m -6.501,2.014 0,-2.014 m -8.372,2.014 0,-2.014 m -11.823,2.014 0,-2.014 m -23.273,2.014 0,-2.014 m -3.452,2.014 0,-2.014 m -3.884,2.014 0,-2.014 m -4.488,2.014 0,-2.014 m -5.322,2.014 0,-2.014 m 154.452,2.014 0,-4.028 m -67.114,4.028 0,-4.028 m -67.143,4.028 0,-4.028 m -20.195,4.028 201.373,0 m 0,-201.371 0,2.013 m -6.501,-2.013 0,2.013 m -8.401,-2.013 0,2.013 m -11.823,-2.013 0,2.013 m -23.275,-2.013 0,2.013 m -3.423,-2.013 0,2.013 m -3.883,-2.013 0,2.013 m -4.517,-2.013 0,2.013 m -5.292,-2.013 0,2.013 m -6.501,-2.013 0,2.013 m -8.401,-2.013 0,2.013 m -11.823,-2.013 0,2.013 m -23.273,-2.013 0,2.013 m -3.424,-2.013 0,2.013 m -3.911,-2.013 0,2.013 m -4.488,-2.013 0,2.013 m -5.322,-2.013 0,2.013 m -6.501,-2.013 0,2.013 m -8.372,-2.013 0,2.013 m -11.823,-2.013 0,2.013 m -23.273,-2.013 0,2.013 m -3.452,-2.013 0,2.013 m -3.884,-2.013 0,2.013 m -4.488,-2.013 0,2.013 m -5.322,-2.013 0,2.013 m 154.452,-2.013 0,4.026 m -67.114,-4.026 0,4.026 m -67.143,-4.026 0,4.026 m -20.195,-4.026 201.373,0"
         style="fill:none;stroke:#231f20;stroke-opacity:1;stroke-width:0.761;stroke-linecap:butt;stroke-linejoin:miter;stroke-miterlimit:2.5;stroke-dasharray:none"
         id="path29178" /></g></g></g><path
   d="m 423.162,724.323 -0.02,0.282 -0.061,0.282 -0.08,0.282 -0.141,0.262 -0.161,0.241 -0.181,0.222 -0.221,0.201 -0.242,0.161 -0.262,0.121 -0.282,0.101 -0.282,0.06 -0.302,0.02 -0.281,-0.02 -0.304,-0.06 -0.262,-0.101 -0.261,-0.121 -0.242,-0.161 -0.221,-0.201 -0.201,-0.222 -0.161,-0.241 -0.12,-0.262 -0.102,-0.282 -0.06,-0.282 -0.021,-0.282 0.021,-0.302 0.06,-0.282 0.102,-0.281 0.12,-0.263 0.161,-0.241 0.201,-0.222 0.221,-0.181 0.242,-0.161 0.261,-0.141 0.262,-0.08 0.304,-0.061 0.281,-0.02 0.302,0.02 0.282,0.061 0.282,0.08 0.262,0.141 0.242,0.161 0.221,0.181 0.181,0.222 0.161,0.241 0.141,0.263 0.08,0.281 0.061,0.282 0.02,0.302"
   style="fill:#231f20;fill-opacity:1;fill-rule:nonzero;stroke:none"
   id="path29188"
   inkscape:connector-curvature="0" /><path
   d="m 441.976,719.836 -0.021,0.282 -0.06,0.281 -0.1,0.282 -0.121,0.262 -0.161,0.241 -0.202,0.222 -0.222,0.202 -0.241,0.161 -0.263,0.12 -0.281,0.101 -0.281,0.061 -0.282,0.019 -0.303,-0.019 -0.282,-0.061 -0.281,-0.101 -0.262,-0.12 -0.241,-0.161 -0.222,-0.202 -0.201,-0.222 -0.162,-0.241 -0.12,-0.262 -0.102,-0.282 -0.06,-0.281 0,-0.585 0.06,-0.282 0.102,-0.282 0.12,-0.261 0.162,-0.242 0.201,-0.221 0.222,-0.182 0.241,-0.16 0.262,-0.142 0.281,-0.1 0.282,-0.041 0.303,-0.02 0.282,0.02 0.281,0.041 0.281,0.1 0.263,0.142 0.241,0.16 0.222,0.182 0.202,0.221 0.161,0.242 0.121,0.261 0.1,0.282 0.06,0.282 0.021,0.303"
   style="fill:#231f20;fill-opacity:1;fill-rule:nonzero;stroke:none"
   id="path29190"
   inkscape:connector-curvature="0" /><path
   d="m 460.761,710.659 -0.019,0.282 -0.062,0.302 -0.1,0.262 -0.122,0.261 -0.16,0.242 -0.201,0.222 -0.223,0.201 -0.24,0.161 -0.262,0.121 -0.262,0.101 -0.303,0.061 -0.281,0.019 -0.303,-0.019 -0.282,-0.061 -0.281,-0.101 -0.262,-0.121 -0.242,-0.161 -0.222,-0.201 -0.18,-0.222 -0.161,-0.242 -0.142,-0.261 -0.08,-0.262 -0.06,-0.302 -0.021,-0.282 0.021,-0.302 0.06,-0.282 0.08,-0.282 0.142,-0.261 0.161,-0.242 0.18,-0.222 0.222,-0.181 0.242,-0.161 0.262,-0.141 0.281,-0.081 0.282,-0.06 0.303,-0.02 0.281,0.02 0.303,0.06 0.262,0.081 0.262,0.141 0.24,0.161 0.223,0.181 0.201,0.222 0.16,0.242 0.122,0.261 0.1,0.282 0.062,0.282 0.019,0.302"
   style="fill:#231f20;fill-opacity:1;fill-rule:nonzero;stroke:none"
   id="path29192"
   inkscape:connector-curvature="0" /><path
   d="m 479.546,670.586 -0.02,0.302 -0.061,0.282 -0.08,0.282 -0.14,0.262 -0.163,0.241 -0.18,0.221 -0.222,0.182 -0.242,0.161 -0.262,0.141 -0.281,0.08 -0.282,0.061 -0.302,0.02 -0.283,-0.02 -0.302,-0.061 -0.26,-0.08 -0.264,-0.141 -0.24,-0.161 -0.222,-0.182 -0.201,-0.221 -0.161,-0.241 -0.121,-0.262 -0.101,-0.282 -0.06,-0.282 -0.021,-0.302 0.021,-0.282 0.06,-0.302 0.101,-0.262 0.121,-0.262 0.161,-0.242 0.201,-0.221 0.222,-0.201 0.24,-0.161 0.264,-0.121 0.26,-0.101 0.302,-0.06 0.283,-0.021 0.302,0.021 0.282,0.06 0.281,0.101 0.262,0.121 0.242,0.161 0.222,0.201 0.18,0.221 0.163,0.242 0.14,0.262 0.08,0.262 0.061,0.302 0.02,0.282"
   style="fill:#231f20;fill-opacity:1;fill-rule:nonzero;stroke:none"
   id="path29194"
   inkscape:connector-curvature="0" /><path
   d="m 498.361,632.297 -0.021,0.301 -0.061,0.283 -0.101,0.281 -0.121,0.262 -0.16,0.241 -0.201,0.222 -0.222,0.181 -0.241,0.182 -0.262,0.121 -0.283,0.101 -0.282,0.039 -0.281,0.021 -0.303,-0.021 -0.281,-0.039 -0.283,-0.101 -0.261,-0.121 -0.242,-0.182 -0.22,-0.181 -0.202,-0.222 -0.162,-0.241 -0.121,-0.262 -0.1,-0.281 -0.06,-0.283 0,-0.584 0.06,-0.281 0.1,-0.281 0.121,-0.263 0.162,-0.241 0.202,-0.222 0.22,-0.202 0.242,-0.161 0.261,-0.121 0.283,-0.101 0.281,-0.059 0.303,-0.021 0.281,0.021 0.282,0.059 0.283,0.101 0.262,0.121 0.241,0.161 0.222,0.202 0.201,0.222 0.16,0.241 0.121,0.263 0.101,0.281 0.061,0.281 0.021,0.283"
   style="fill:#231f20;fill-opacity:1;fill-rule:nonzero;stroke:none"
   id="path29196"
   inkscape:connector-curvature="0" /><path
   d="m 517.164,562.049 -0.02,0.283 -0.062,0.302 -0.098,0.262 -0.122,0.281 -0.162,0.242 -0.201,0.201 -0.221,0.202 -0.242,0.162 -0.262,0.141 -0.262,0.079 -0.302,0.061 -0.282,0.02 -0.302,-0.02 -0.283,-0.061 -0.281,-0.079 -0.261,-0.141 -0.242,-0.162 -0.22,-0.202 -0.183,-0.201 -0.16,-0.242 -0.142,-0.281 -0.081,-0.262 -0.058,-0.302 -0.023,-0.283 4.472,0"
   style="fill:#231f20;fill-opacity:1;fill-rule:nonzero;stroke:none"
   id="path29198"
   inkscape:connector-curvature="0" /><path
   d="m 514.91,562.03 c 0,1.865 0,29.525 0,30.209 m -18.785,14.139 0,42.086 m -18.814,7.221 c 0,0 0,24.928 0,25.971 m -18.785,20.171 c 0,0 0,15.23 0,16.126 m -18.785,-5.971 c 0,0 0,13.581 0,14.455 m -18.814,-9.536 c 0,0 0,13.041 0,13.723 m -18.785,-24.165 c 0,0 0,14.45 0,15.347"
   style="fill:none;stroke:#231f20;stroke-width:0.76099998;stroke-linecap:round;stroke-linejoin:miter;stroke-miterlimit:2.5;stroke-opacity:1;stroke-dasharray:none"
   id="path29200"
   inkscape:connector-curvature="0" /><path
   d="m 402.142,722.367 18.785,2.503 18.814,-4.229 18.785,-12.082 18.785,-38.059 18.814,-38.06 18.785,-38.06"
   style="fill:none;stroke:#bdbcbc;stroke-width:0.76099998;stroke-linecap:butt;stroke-linejoin:miter;stroke-miterlimit:2.5;stroke-opacity:1;stroke-dasharray:2.0297, 2.0297;stroke-dashoffset:0"
   id="path29202"
   inkscape:connector-curvature="0" /><path
   d="m 404.377,714.83 -0.02,0.282 -0.061,0.302 -0.1,0.262 -0.121,0.261 -0.161,0.242 -0.202,0.222 -0.221,0.201 -0.242,0.161 -0.262,0.121 -0.261,0.101 -0.302,0.06 -0.282,0.02 -0.302,-0.02 -0.282,-0.06 -0.282,-0.101 -0.262,-0.121 -0.242,-0.161 -0.221,-0.201 -0.182,-0.222 -0.16,-0.242 -0.141,-0.261 -0.081,-0.262 -0.06,-0.302 -0.02,-0.282 0.02,-0.302 0.06,-0.282 0.081,-0.282 0.141,-0.261 0.16,-0.242 0.182,-0.222 0.221,-0.181 0.242,-0.161 0.262,-0.141 0.282,-0.08 0.282,-0.061 0.302,-0.02 0.282,0.02 0.302,0.061 0.261,0.08 0.262,0.141 0.242,0.161 0.221,0.181 0.202,0.222 0.161,0.242 0.121,0.261 0.1,0.282 0.061,0.282 0.02,0.302"
   style="fill:#ffffff;fill-opacity:1;fill-rule:nonzero;stroke:none"
   id="path29204"
   inkscape:connector-curvature="0" /><path
   d="m 404.377,714.83 -0.02,0.282 -0.061,0.302 -0.1,0.262 -0.121,0.261 -0.161,0.242 -0.202,0.222 -0.221,0.201 -0.242,0.161 -0.262,0.121 -0.261,0.101 -0.302,0.06 -0.282,0.02 -0.302,-0.02 -0.282,-0.06 -0.282,-0.101 -0.262,-0.121 -0.242,-0.161 -0.221,-0.201 -0.182,-0.222 -0.16,-0.242 -0.141,-0.261 -0.081,-0.262 -0.06,-0.302 -0.02,-0.282 0.02,-0.302 0.06,-0.282 0.081,-0.282 0.141,-0.261 0.16,-0.242 0.182,-0.222 0.221,-0.181 0.242,-0.161 0.262,-0.141 0.282,-0.08 0.282,-0.061 0.302,-0.02 0.282,0.02 0.302,0.061 0.261,0.08 0.262,0.141 0.242,0.161 0.221,0.181 0.202,0.222 0.161,0.242 0.121,0.261 0.1,0.282 0.061,0.282 0.02,0.302 z"
   style="fill:none;stroke:#231f20;stroke-width:0.50700003;stroke-linecap:butt;stroke-linejoin:miter;stroke-miterlimit:4;stroke-opacity:1;stroke-dasharray:none"
   id="path29206"
   inkscape:connector-curvature="0" /><path
   d="m 407.341,717.026 c 13.202,-26.731 57.993,-117.419 76.015,-153.908 M 360.471,727.693 c 18.62,-4.188 38.88,-8.744 46.821,-10.53 m -71.474,-16.496 c 5.832,6.393 16.526,18.115 24.722,27.099"
   style="fill:none;stroke:#bdbcbc;stroke-width:2.02999997;stroke-linecap:round;stroke-linejoin:miter;stroke-miterlimit:2.5;stroke-opacity:1;stroke-dasharray:none"
   id="path29208"
   inkscape:connector-curvature="0" /><text
   transform="scale(1,-1)"
   id="text29210"
   x="406.9989"
   y="-538.0766"
   style="line-height:0%"><tspan
     style="font-variant:normal;font-weight:normal;font-size:10.1485px;line-height:1.25;font-family:Myriad;-inkscape-font-specification:Myriad-Roman;writing-mode:lr-tb;fill:#231f20;fill-opacity:1;fill-rule:nonzero;stroke:none"
     x="406.9989 415.21716 420.10873 424.12753 428.14633 430.29782 433.17999 441.33939 454.24829"
     y="-538.0766"
     sodipodi:role="line"
     id="tspan29212">Mass (M )</tspan></text>
<text
   transform="scale(1,-1)"
   id="text29214"
   x="441.319"
   y="-536.50958"
   style="line-height:0%"><tspan
     style="font-variant:normal;font-weight:normal;font-size:8.1188px;line-height:1.25;font-family:Myriad;-inkscape-font-specification:Myriad-Roman;writing-mode:lr-tb;fill:#231f20;fill-opacity:1;fill-rule:nonzero;stroke:none"
     x="441.319 444.53406 449.00751"
     y="-536.50958"
     sodipodi:role="line"
     id="tspan29216">sun</tspan></text>
<text
   transform="scale(1,-1)"
   id="text29218"
   x="347.68549"
   y="-551.59741"
   style="line-height:0%"><tspan
     style="font-variant:normal;font-weight:normal;font-size:10.1485px;line-height:1.25;font-family:Myriad;-inkscape-font-specification:Myriad-Roman;writing-mode:lr-tb;fill:#231f20;fill-opacity:1;fill-rule:nonzero;stroke:none"
     x="347.68549 352.89169 354.99243"
     y="-551.59741"
     sodipodi:role="line"
     id="tspan29220">0.1</tspan></text>
<text
   transform="scale(1,-1)"
   id="text29222"
   x="414.97919"
   y="-551.22803"
   style="line-height:0%"><tspan
     style="font-variant:normal;font-weight:normal;font-size:10.1485px;line-height:1.25;font-family:Myriad;-inkscape-font-specification:Myriad-Roman;writing-mode:lr-tb;fill:#231f20;fill-opacity:1;fill-rule:nonzero;stroke:none"
     x="414.97919 420.18539 422.28613"
     y="-551.22803"
     sodipodi:role="line"
     id="tspan29224">1.0</tspan></text>
<text
   transform="scale(1,-1)"
   id="text29226"
   x="478.3403"
   y="-551.0271"
   style="line-height:0%"><tspan
     style="font-variant:normal;font-weight:normal;font-size:10.1485px;line-height:1.25;font-family:Myriad;-inkscape-font-specification:Myriad-Roman;writing-mode:lr-tb;fill:#231f20;fill-opacity:1;fill-rule:nonzero;stroke:none"
     x="478.3403 483.54648 488.75266 490.85339"
     y="-551.0271"
     sodipodi:role="line"
     id="tspan29228">10.0</tspan></text>
<text
   transform="matrix(0,1,1,0,0,0)"
   id="text29230"
   x="625.37482"
   y="313.65439"
   style="line-height:0%"><tspan
     style="font-style:italic;font-variant:normal;font-size:10.1485px;font-family:Myriad;-inkscape-font-specification:Myriad-Italic;writing-mode:lr-tb;fill:#231f20;fill-opacity:1;fill-rule:nonzero;stroke:none"
     x="625.37482"
     y="313.65439"
     id="tspan29232">d</tspan></text>
<text
   transform="matrix(0,1,1,0,0,0)"
   id="text29234"
   x="630.70282"
   y="313.65439"
   style="line-height:0%"><tspan
     style="font-variant:normal;font-weight:normal;font-size:10.1485px;line-height:1.25;font-family:Myriad;-inkscape-font-specification:Myriad-Roman;writing-mode:lr-tb;fill:#231f20;fill-opacity:1;fill-rule:nonzero;stroke:none"
     x="630.70282 637.38049 639.53198 643.01294"
     y="313.65439"
     sodipodi:role="line"
     id="tspan29236">N / </tspan></text>
<text
   transform="matrix(0,1,1,0,0,0)"
   id="text29238"
   x="645.16443"
   y="313.65439"
   style="line-height:0%"><tspan
     style="font-style:italic;font-variant:normal;font-size:10.1485px;line-height:1.25;font-family:Myriad;-inkscape-font-specification:Myriad-Italic;writing-mode:lr-tb;fill:#231f20;fill-opacity:1;fill-rule:nonzero;stroke:none"
     x="645.16443 650.49847 652.82855 658.13214"
     y="313.65439"
     sodipodi:role="line"
     id="tspan29240">dlog</tspan></text>
<text
   transform="matrix(0,1,1,0,0,0)"
   id="text29242"
   x="665.60248"
   y="313.65439"
   style="line-height:0%"><tspan
     style="font-variant:normal;font-weight:normal;font-size:10.1485px;line-height:1.25;font-family:Myriad;-inkscape-font-specification:Myriad-Roman;writing-mode:lr-tb;fill:#231f20;fill-opacity:1;fill-rule:nonzero;stroke:none"
     x="665.60248 673.82074 678.71234 682.73114"
     y="313.65439"
     sodipodi:role="line"
     id="tspan29244">Mass</tspan></text>
<text
   transform="scale(1,-1)"
   id="text29246"
   x="327.46631"
   y="-561.64142"
   style="line-height:0%"><tspan
     style="font-variant:normal;font-weight:normal;font-size:10.1485px;font-family:Myriad;-inkscape-font-specification:Myriad-Roman;writing-mode:lr-tb;fill:#231f20;fill-opacity:1;fill-rule:nonzero;stroke:none"
     x="327.46631"
     y="-561.64142"
     id="tspan29248">1</tspan></text>
<text
   transform="scale(1,-1)"
   id="text29250"
   x="321.39139"
   y="-659.30249"
   style="line-height:0%"><tspan
     style="font-variant:normal;font-weight:normal;font-size:10.1485px;line-height:1.25;font-family:Myriad;-inkscape-font-specification:Myriad-Roman;writing-mode:lr-tb;fill:#231f20;fill-opacity:1;fill-rule:nonzero;stroke:none"
     x="321.39139 326.5976"
     y="-659.30249"
     sodipodi:role="line"
     id="tspan29252">10</tspan></text>
<text
   transform="scale(1,-1)"
   id="text29254"
   x="316.24609"
   y="-756.77472"
   style="line-height:0%"><tspan
     style="font-variant:normal;font-weight:normal;font-size:10.1485px;line-height:1.25;font-family:Myriad;-inkscape-font-specification:Myriad-Roman;writing-mode:lr-tb;fill:#231f20;fill-opacity:1;fill-rule:nonzero;stroke:none"
     x="316.24609 321.45227 326.65845"
     y="-756.77472"
     sodipodi:role="line"
     id="tspan29256">100</tspan></text>
<text
   transform="scale(1,-1)"
   id="text29258"
   x="404.96841"
   y="-666.7981"
   style="line-height:0%"><tspan
     style="font-variant:normal;font-weight:normal;font-size:10.1485px;line-height:1.25;font-family:Myriad;-inkscape-font-specification:Myriad-Roman;writing-mode:lr-tb;fill:#acaaab;fill-opacity:1;fill-rule:nonzero;stroke:none"
     x="404.96841 407.39389 415.55328"
     y="-666.7981"
     sodipodi:role="line"
     id="tspan29260">IMF</tspan></text>
<text
   transform="scale(1,-1)"
   id="text29262"
   x="446.65131"
   y="-666.7981"
   style="line-height:0%"><tspan
     style="font-variant:normal;font-weight:normal;font-size:10.1485px;line-height:1.25;font-family:Myriad;-inkscape-font-specification:Myriad-Roman;writing-mode:lr-tb;fill:#231f20;fill-opacity:1;fill-rule:nonzero;stroke:none"
     x="446.65131 453.41019 459.29633 467.45572"
     y="-666.7981"
     sodipodi:role="line"
     id="tspan29264">DCMF</tspan></text>
<path
   sodipodi:type="star"
   style="display:inline;fill:url(#radialGradient1479);fill-opacity:1;stroke:#000000;stroke-width:9.65211;stroke-linecap:butt;stroke-linejoin:miter;stroke-miterlimit:4;stroke-dasharray:none;stroke-dashoffset:0;stroke-opacity:1"
   id="use5773"
   sodipodi:sides="11"
   sodipodi:cx="368"
   sodipodi:cy="642.36218"
   sodipodi:r1="118.15244"
   sodipodi:r2="77.980614"
   sodipodi:arg1="-1.5199926"
   sodipodi:arg2="-1.2343933"
   inkscape:flatsided="false"
   inkscape:rounded="0.02"
   inkscape:randomized="0"
   d="m 374,524.36218 c 0.97039,0.0494 18.82375,44.06962 19.74092,44.39035 0.91718,0.32073 42.31256,-22.98056 43.10222,-22.41442 0.78966,0.56614 -7.99029,47.25061 -7.39211,48.01629 0.59817,0.76568 48.01981,3.54341 48.37804,4.44661 0.35823,0.90319 -32.26747,35.42985 -32.17821,36.39739 0.0893,0.96753 38.48112,28.94238 38.29418,29.89586 -0.18694,0.95349 -46.29995,12.36039 -46.74794,13.22259 -0.448,0.86219 16.72494,45.15234 16.05218,45.8534 -0.67275,0.70105 -45.63252,-14.63343 -46.47554,-14.1503 -0.84301,0.48312 -10.34128,47.02675 -11.28626,47.2528 -0.94498,0.22604 -30.47709,-36.98122 -31.44748,-37.03057 -0.97038,-0.0493 -34.12422,33.97051 -35.0414,33.64978 -0.91718,-0.32074 -5.64541,-47.58775 -6.43507,-48.15389 -0.78966,-0.56614 -47.07297,10.12886 -47.67115,9.36318 -0.59817,-0.76568 20.97867,-43.0855 20.62044,-43.98869 -0.35823,-0.90319 -45.07638,-16.92863 -45.16564,-17.89616 -0.0893,-0.96753 40.94215,-24.9039 41.12909,-25.85739 0.18694,-0.95349 -28.76835,-38.6114 -28.32035,-39.47359 0.44799,-0.8622 47.90679,1.1845 48.57955,0.48344 0.67276,-0.70106 -3.32658,-48.03532 -2.48356,-48.51844 0.84301,-0.48312 39.66137,26.89683 40.60635,26.67079 0.94498,-0.22605 23.17136,-42.20837 24.14174,-42.15903 z"
   transform="matrix(0.05208698,-7.5778086e-4,-7.5713781e-4,-0.05213215,346.44636,774.45456)"
   inkscape:export-filename="/Users/crp/Desktop/sequence_zoom.png"
   inkscape:export-xdpi="300.00000"
   inkscape:export-ydpi="300.00000" /><g
   id="g2094"
   style="display:inline"
   transform="matrix(0.16476051,0,0,-0.16476051,383.31745,790.91943)"><path
     inkscape:connector-curvature="0"
     inkscape:export-ydpi="300.00000"
     inkscape:export-xdpi="300.00000"
     inkscape:export-filename="/Users/crp/Desktop/sequence_zoom.png"
     style="fill:url(#radialGradient5160);fill-opacity:1;fill-rule:evenodd;stroke:none"
     d="m 356.84687,241.86534 c 20.35114,7.01159 13.3761,-1.61831 25.514,15.00654 12.55646,17.19818 14.02326,21.98115 17.01148,31.98377 3.38029,11.31432 -2.96889,0.76425 -0.59085,22.31621 2.44384,22.06118 10.81984,43.06976 -9.34495,60.5557 -18.66672,16.18693 -38.10673,5.74941 -59.52269,2.41639 -26.15236,-4.07016 -41.28477,-6.46233 -57.1628,-19.17515 -15.34874,-12.28901 -8.34712,-54.68447 -2.06525,-72.13935 5.90679,-16.41274 8.04799,-22.80009 26.39878,-30.55448 18.137,-7.66404 10.27579,-3.19187 33.12184,-7.44685 23.63391,-4.40168 18.97796,-4.35781 26.64044,-2.96278 z"
     id="path5112"
     sodipodi:nodetypes="csssssssssc" /><circle
     style="fill:#b6b3b3;fill-opacity:0.988166;stroke:#7e6b6b;stroke-width:0;stroke-linecap:butt;stroke-linejoin:miter;stroke-miterlimit:4;stroke-dasharray:none;stroke-dashoffset:0;stroke-opacity:1;filter:url(#filter1361)"
     id="path5114"
     transform="matrix(1.0257804,0,0,0.955078,-109.18054,101.78205)"
     inkscape:export-filename="/Users/crp/Desktop/sequence_zoom.png"
     inkscape:export-xdpi="300.00000"
     inkscape:export-ydpi="300.00000"
     cx="432"
     cy="216.59448"
     r="44" /><circle
     transform="matrix(0.7934435,0,0,0.6832316,-8.81029,160.66248)"
     id="path5116"
     style="fill:#9c9393;fill-opacity:0.988166;stroke:none;filter:url(#filter1365)"
     inkscape:export-filename="/Users/crp/Desktop/sequence_zoom.png"
     inkscape:export-xdpi="300.00000"
     inkscape:export-ydpi="300.00000"
     cx="432"
     cy="216.59448"
     r="44" /><circle
     style="fill:#665f5f;fill-opacity:0.988166;stroke:none;filter:url(#filter1369)"
     id="path5118"
     transform="matrix(0.528218,0,0,0.4477291,105.76693,211.67111)"
     inkscape:export-filename="/Users/crp/Desktop/sequence_zoom.png"
     inkscape:export-xdpi="300.00000"
     inkscape:export-ydpi="300.00000"
     cx="432"
     cy="216.59448"
     r="44" /><ellipse
     transform="matrix(0.05219205,-1.3542565,1.2816903,0.04939555,-320.47793,419.78661)"
     id="path5120"
     style="fill:#000000;fill-opacity:1;stroke:#000000;stroke-width:1.29656;stroke-linecap:butt;stroke-linejoin:miter;stroke-miterlimit:4;stroke-dasharray:none;stroke-dashoffset:0;stroke-opacity:1;filter:url(#filter1373)"
     inkscape:export-filename="/Users/crp/Desktop/sequence_zoom.png"
     inkscape:export-xdpi="300.00000"
     inkscape:export-ydpi="300.00000"
     cx="100"
     cy="506.36218"
     rx="6"
     ry="9" /><g
     id="g5122"
     transform="matrix(0.8847042,0,0,0.8847042,-49.11932,117.02459)"
     inkscape:export-filename="/Users/crp/Desktop/sequence_zoom.png"
     inkscape:export-xdpi="300.00000"
     inkscape:export-ydpi="300.00000"><path
       inkscape:connector-curvature="0"
       inkscape:export-ydpi="300.00000"
       inkscape:export-xdpi="300.00000"
       inkscape:export-filename="/Users/crp/Desktop/sequence_zoom.png"
       style="fill:#ffffff;fill-opacity:0.988166;fill-rule:evenodd;stroke:#ffffff;stroke-width:2.99902;stroke-linecap:butt;stroke-linejoin:miter;stroke-miterlimit:4;stroke-dasharray:none;stroke-opacity:1"
       d="m 461.21677,178.67315 c -15.06408,19.62739 -15.06408,19.62739 -15.06408,19.62739"
       id="path5124" /><path
       inkscape:connector-curvature="0"
       inkscape:export-ydpi="300.00000"
       inkscape:export-xdpi="300.00000"
       inkscape:export-filename="/Users/crp/Desktop/sequence_zoom.png"
       style="fill:#ffffff;fill-opacity:0.988166;stroke:none"
       d="m 441.30691,204.97775 c -0.32819,-0.25188 4.87502,-16.41428 5.24293,-16.5539 0.3679,-0.13959 9.08083,6.54757 9.0411,6.93908 -0.0397,0.39151 -13.95581,9.86673 -14.28403,9.61482 z"
       id="path5126"
       sodipodi:nodetypes="cssc" /></g><path
     inkscape:connector-curvature="0"
     style="fill:#ffffff;fill-opacity:0.988166;fill-rule:evenodd;stroke:#ffffff;stroke-width:2.65324;stroke-linecap:butt;stroke-linejoin:miter;stroke-miterlimit:4;stroke-dasharray:none;stroke-opacity:1"
     d="M 360.97686,341.70234 C 346.504,325.28053 346.504,325.28053 346.504,325.28053"
     id="path5128"
     inkscape:export-filename="/Users/crp/Desktop/sequence_zoom.png"
     inkscape:export-xdpi="300.00000"
     inkscape:export-ydpi="300.00000" /><path
     inkscape:connector-curvature="0"
     style="fill:#ffffff;fill-opacity:0.988166;stroke:none"
     d="m 341.53282,319.93604 c 0.27459,-0.24201 13.41939,7.02883 13.47792,7.37201 0.0585,0.34319 -7.2314,6.7679 -7.56453,6.66673 -0.3331,-0.10117 -6.18798,-13.79671 -5.91339,-14.03874 z"
     id="path5130"
     sodipodi:nodetypes="cssc"
     inkscape:export-filename="/Users/crp/Desktop/sequence_zoom.png"
     inkscape:export-xdpi="300.00000"
     inkscape:export-ydpi="300.00000" /><path
     inkscape:connector-curvature="0"
     style="fill:#ffffff;fill-opacity:0.988166;fill-rule:evenodd;stroke:#ffffff;stroke-width:2.65324;stroke-linecap:butt;stroke-linejoin:miter;stroke-miterlimit:4;stroke-dasharray:none;stroke-opacity:1"
     d="m 306.77634,276.32762 c 14.41235,16.47496 14.41235,16.47496 14.41235,16.47496"
     id="path5132"
     inkscape:export-filename="/Users/crp/Desktop/sequence_zoom.png"
     inkscape:export-xdpi="300.00000"
     inkscape:export-ydpi="300.00000" /><path
     inkscape:connector-curvature="0"
     style="fill:#ffffff;fill-opacity:0.988166;stroke:none"
     d="m 326.14016,298.1653 c -0.27548,0.241 -13.39342,-7.07814 -13.45069,-7.42153 -0.0572,-0.34341 7.25627,-6.74126 7.58901,-6.63886 0.33271,0.10241 6.13717,13.81942 5.86168,14.06039 z"
     id="path5134"
     sodipodi:nodetypes="cssc"
     inkscape:export-filename="/Users/crp/Desktop/sequence_zoom.png"
     inkscape:export-xdpi="300.00000"
     inkscape:export-ydpi="300.00000" /><path
     inkscape:connector-curvature="0"
     id="path5136"
     d="m 305.73699,341.06833 c 14.51748,-16.3824 14.51748,-16.3824 14.51748,-16.3824"
     style="fill:#ffffff;fill-opacity:0.988166;fill-rule:evenodd;stroke:#ffffff;stroke-width:2.65324;stroke-linecap:butt;stroke-linejoin:miter;stroke-miterlimit:4;stroke-dasharray:none;stroke-opacity:1"
     inkscape:export-filename="/Users/crp/Desktop/sequence_zoom.png"
     inkscape:export-xdpi="300.00000"
     inkscape:export-ydpi="300.00000" /><path
     inkscape:connector-curvature="0"
     sodipodi:nodetypes="cssc"
     id="path5138"
     d="m 324.94708,319.09527 c 0.27391,0.24276 -5.32531,14.18188 -5.65869,14.28215 -0.3334,0.10028 -7.60579,-6.34424 -7.54634,-6.68727 0.0594,-0.34304 12.93107,-7.83762 13.20503,-7.59488 z"
     style="fill:#ffffff;fill-opacity:0.988166;stroke:none"
     inkscape:export-filename="/Users/crp/Desktop/sequence_zoom.png"
     inkscape:export-xdpi="300.00000"
     inkscape:export-ydpi="300.00000" /><ellipse
     style="fill:#ffffff;fill-opacity:0.988166;stroke:#000000;stroke-width:1;stroke-linecap:butt;stroke-linejoin:miter;stroke-miterlimit:4;stroke-dasharray:none;stroke-dashoffset:0;stroke-opacity:1"
     id="path5146"
     transform="matrix(0.02526145,-0.6792338,0.6554704,0.02617727,181.11064,597.59656)"
     inkscape:export-filename="/Users/crp/Desktop/sequence_zoom.png"
     inkscape:export-xdpi="300.00000"
     inkscape:export-ydpi="300.00000"
     cx="433"
     cy="216.09448"
     rx="5"
     ry="10" /><g
     id="g5148"
     transform="matrix(0.5268909,0.7106951,-0.7106951,0.5268909,260.09169,-113.0359)"
     inkscape:export-filename="/Users/crp/Desktop/sequence_zoom.png"
     inkscape:export-xdpi="300.00000"
     inkscape:export-ydpi="300.00000"><path
       inkscape:connector-curvature="0"
       id="path5150"
       d="m 461.21677,178.67315 c -15.06408,19.62739 -15.06408,19.62739 -15.06408,19.62739"
       style="fill:#ffffff;fill-opacity:0.988166;fill-rule:evenodd;stroke:#ffffff;stroke-width:2.99902;stroke-linecap:butt;stroke-linejoin:miter;stroke-miterlimit:4;stroke-dasharray:none;stroke-opacity:1"
       inkscape:export-filename="/Users/crp/Desktop/sequence_zoom.png"
       inkscape:export-xdpi="300.00000"
       inkscape:export-ydpi="300.00000" /><path
       inkscape:connector-curvature="0"
       sodipodi:nodetypes="cssc"
       id="path5152"
       d="m 441.30691,204.97775 c -0.32819,-0.25188 4.87502,-16.41428 5.24293,-16.5539 0.3679,-0.13959 9.08083,6.54757 9.0411,6.93908 -0.0397,0.39151 -13.95581,9.86673 -14.28403,9.61482 z"
       style="fill:#ffffff;fill-opacity:0.988166;stroke:none"
       inkscape:export-filename="/Users/crp/Desktop/sequence_zoom.png"
       inkscape:export-xdpi="300.00000"
       inkscape:export-ydpi="300.00000" /></g><g
     transform="matrix(-0.5053658,-0.7261591,0.7261591,-0.5053658,393.22313,733.20372)"
     id="g5154"
     inkscape:export-filename="/Users/crp/Desktop/sequence_zoom.png"
     inkscape:export-xdpi="300.00000"
     inkscape:export-ydpi="300.00000"><path
       inkscape:connector-curvature="0"
       inkscape:export-ydpi="300.00000"
       inkscape:export-xdpi="300.00000"
       inkscape:export-filename="/Users/crp/Desktop/sequence_zoom.png"
       style="fill:#ffffff;fill-opacity:0.988166;fill-rule:evenodd;stroke:#ffffff;stroke-width:2.99902;stroke-linecap:butt;stroke-linejoin:miter;stroke-miterlimit:4;stroke-dasharray:none;stroke-opacity:1"
       d="m 461.21677,178.67315 c -15.06408,19.62739 -15.06408,19.62739 -15.06408,19.62739"
       id="path5156" /><path
       inkscape:connector-curvature="0"
       inkscape:export-ydpi="300.00000"
       inkscape:export-xdpi="300.00000"
       inkscape:export-filename="/Users/crp/Desktop/sequence_zoom.png"
       style="fill:#ffffff;fill-opacity:0.988166;stroke:none"
       d="m 441.30691,204.97775 c -0.32819,-0.25188 4.87502,-16.41428 5.24293,-16.5539 0.3679,-0.13959 9.08083,6.54757 9.0411,6.93908 -0.0397,0.39151 -13.95581,9.86673 -14.28403,9.61482 z"
       id="path5158"
       sodipodi:nodetypes="cssc" /></g><path
     style="display:inline;opacity:0.934;fill:url(#linearGradient5028);fill-opacity:1;stroke:#000000;stroke-width:0;stroke-linecap:butt;stroke-linejoin:miter;stroke-miterlimit:4;stroke-dasharray:none;stroke-opacity:1;filter:url(#filter1341)"
     d="m 108.45932,317.68373 c 0.84244,6.11178 1.21713,6.8813 1.21713,6.8813 l 2.58357,7.70277 c 0,0 1.76777,6.36396 1.76777,7.77818 0,1.41421 1.67938,5.74524 1.67938,5.74524 0,0 0.53033,-3.97747 0.35355,-4.77297 -0.17678,-0.7955 -0.0884,-1.76777 -0.53033,-3.35876 -0.44194,-1.59099 -2.47487,-5.12652 -2.56326,-5.65685 -0.0884,-0.53033 -0.7955,-2.65165 -0.7955,-3.35876 0,-0.70711 -0.75247,-2.74503 -0.57569,-4.15924 0.17677,-1.41422 0.69732,1.98165 0.25384,-2.38149 -0.64262,-6.32232 -0.38524,-4.15426 -0.56202,-4.50781 -0.17677,-0.35356 -1.94454,-6.36396 -1.94454,-6.36396 l -0.48645,3.14741"
     id="path4916"
     inkscape:connector-curvature="0"
     sodipodi:nodetypes="cccscsccsssccc"
     transform="matrix(6.8938535,0,0,1.5361273,-409.16196,-169.54406)" /><path
     style="display:inline;opacity:0.934;fill:url(#linearGradient5046);fill-opacity:1;stroke:#000000;stroke-width:0;stroke-linecap:butt;stroke-linejoin:miter;stroke-miterlimit:4;stroke-dasharray:none;stroke-opacity:1;filter:url(#filter1337)"
     d="m 105.45412,291.87434 c -1.45234,0.41058 -3.20204,0.55352 -2.38649,3.0052 1.68085,0.48153 1.57992,2.07668 1.41422,3.71231 -3.01183,2.65496 -1.17851,3.41768 -2.2981,5.12652 l -0.0884,4.86136 c 0.27034,1.06242 1.02685,1.73589 2.47487,1.85616 0.84838,-1.75593 -0.15828,-2.89352 -1.32582,-3.97748 -0.14851,-1.74001 0.31756,-2.93324 1.94454,-3.09359 2.06999,-2.60116 1.10396,-3.3048 1.5026,-4.86136 l -1.23743,-4.24264 c 0.85134,-3.12166 2.21034,-2.11979 3.35875,-2.82843 1.74788,-2.53711 3.35694,-5.09736 3.71231,-7.86656 -0.12818,-3.24013 -3.23589,-2.01099 -6.09879,-1.14904 -0.74823,2.08363 -1.05666,4.25522 0.53033,6.8059 z"
     id="path5038"
     inkscape:connector-curvature="0"
     sodipodi:nodetypes="cccccccccccccccc"
     transform="matrix(1.9123832,-1.5096823,1.4019454,2.0593463,-297.9385,-177.7774)" /><path
     style="display:inline;opacity:0.934;fill:url(#linearGradient5098);fill-opacity:1;stroke:#000000;stroke-width:0;stroke-linecap:butt;stroke-linejoin:miter;stroke-miterlimit:4;stroke-dasharray:none;stroke-opacity:1;filter:url(#filter1333)"
     d="m 107.23322,293.5579 c -1.45234,0.41058 5.92704,11.52233 3.47812,5.81486 1.68085,0.48153 -2.10085,1.4021 -2.26655,3.03773 -3.01183,2.65496 -1.81825,2.84601 -2.93784,4.55485 l -0.93673,3.47055 c 0.27034,1.06242 -1.44802,-0.12027 0,0 0.84838,-1.75593 -0.15828,-2.89352 -1.32582,-3.97748 -0.14851,-1.74001 -0.77835,-5.63012 0.84863,-5.79047 2.06999,-2.60116 2.19987,-0.60792 2.59851,-2.16448 l 4.0198,0.8693 c 0.85134,-3.12166 -0.6317,-6.7961 0.51671,-7.50474 1.74788,-2.53711 0.52506,-3.43798 0.88043,-6.20718 -0.12818,-3.24013 -5.59312,-6.29704 -8.45602,-5.43509 -0.74823,2.08363 1.71726,6.44626 3.30425,8.99694 z"
     id="path5096"
     inkscape:connector-curvature="0"
     sodipodi:nodetypes="ccccccccccccccc"
     transform="matrix(-1.6679915,-0.9788008,1.6348874,-0.88880993,-4.7931606,689.10537)" /></g><path
   style="fill:#656f73;fill-opacity:0.994083;stroke:#000000;stroke-width:0.665197;marker-end:url(#TriangleStart)"
   d="m 423.61841,739.72297 -44.61919,0.51583"
   id="path2468" /></g></svg>
