<?xml version="1.0" encoding="UTF-8" standalone="no"?>
<!-- Created with Inkscape (http://www.inkscape.org/) -->

<svg
   xmlns:dc="http://purl.org/dc/elements/1.1/"
   xmlns:cc="http://creativecommons.org/ns#"
   xmlns:rdf="http://www.w3.org/1999/02/22-rdf-syntax-ns#"
   xmlns:svg="http://www.w3.org/2000/svg"
   xmlns="http://www.w3.org/2000/svg"
   xmlns:sodipodi="http://sodipodi.sourceforge.net/DTD/sodipodi-0.dtd"
   xmlns:inkscape="http://www.inkscape.org/namespaces/inkscape"
   id="svg28496"
   version="1.1"
   inkscape:version="0.48.5 r10040"
   width="317.52875"
   height="295.64787"
   xml:space="preserve"
   sodipodi:docname="Alves2007_fig2.pdf"><metadata
     id="metadata28502"><rdf:RDF><cc:Work
         rdf:about=""><dc:format>image/svg+xml</dc:format><dc:type
           rdf:resource="http://purl.org/dc/dcmitype/StillImage" /><dc:title></dc:title></cc:Work></rdf:RDF></metadata><defs
     id="defs28500"><clipPath
       clipPathUnits="userSpaceOnUse"
       id="clipPath28512"><path
         d="M 0,0 595,0 595,842 0,842 0,0 z"
         id="path28514" /></clipPath><clipPath
       clipPathUnits="userSpaceOnUse"
       id="clipPath29168"><path
         d="m 305.16,765.268 231.39,0 0,-230.788 -231.39,0 0,230.788 z"
         id="path29170" /></clipPath><clipPath
       clipPathUnits="userSpaceOnUse"
       id="clipPath29174"><path
         d="M 0,0 595,0 595,842 0,842 0,0 z"
         id="path29176" /></clipPath><clipPath
       clipPathUnits="userSpaceOnUse"
       id="clipPath29184"><path
         d="M 0,0 595,0 595,842 0,842 0,0 z"
         id="path29186" /></clipPath></defs><sodipodi:namedview
     pagecolor="#ffffff"
     bordercolor="#666666"
     borderopacity="1"
     objecttolerance="10"
     gridtolerance="10"
     guidetolerance="10"
     inkscape:pageopacity="0"
     inkscape:pageshadow="2"
     inkscape:window-width="1917"
     inkscape:window-height="1159"
     id="namedview28498"
     showgrid="false"
     inkscape:zoom="3.1929878"
     inkscape:cx="160.20656"
     inkscape:cy="145.85207"
     inkscape:window-x="0"
     inkscape:window-y="22"
     inkscape:window-maximized="0"
     inkscape:current-layer="g28504" /><g
     id="g28504"
     inkscape:groupmode="layer"
     inkscape:label="Alves2007_fig2"
     transform="matrix(1.25,0,0,-1.25,-372.51762,961.08412)"><g
       id="g28506" /><g
       id="g29164"><g
         id="g29166"
         clip-path="url(#clipPath29168)"><g
           id="g29172"
           clip-path="url(#clipPath29174)"><path
             d="m 536.17,758.7 -2.014,0 m 2.014,-5.149 -2.014,0 m 2.014,-5.84 -2.014,0 m 2.014,-6.732 -2.014,0 m 2.014,-7.997 -2.014,0 m 2.014,-9.752 -2.014,0 m 2.014,-12.571 -2.014,0 m 2.014,-17.721 -2.014,0 m 2.014,-34.924 -2.014,0 m 2.014,-5.149 -2.014,0 m 2.014,-5.839 -2.014,0 m 2.014,-6.732 -2.014,0 m 2.014,-7.997 -2.014,0 m 2.014,-9.753 -2.014,0 m 2.014,-12.571 -2.014,0 m 2.014,-17.721 -2.014,0 m 2.014,171.051 -4.028,0 m 4.028,-100.685 -4.028,0 m 4.028,-100.686 -4.028,0 m 4.028,0 0,201.371 m -201.373,-4.603 2.014,0 m -2.014,-5.149 2.014,0 m -2.014,-5.84 2.014,0 m -2.014,-6.732 2.014,0 m -2.014,-7.997 2.014,0 m -2.014,-9.752 2.014,0 m -2.014,-12.571 2.014,0 m -2.014,-17.721 2.014,0 m -2.014,-34.924 2.014,0 m -2.014,-5.149 2.014,0 m -2.014,-5.839 2.014,0 m -2.014,-6.732 2.014,0 m -2.014,-7.997 2.014,0 m -2.014,-9.753 2.014,0 m -2.014,-12.571 2.014,0 m -2.014,-17.721 2.014,0 m -2.014,171.051 4.028,0 m -4.028,-100.685 4.028,0 m -4.028,-100.686 4.028,0 m -4.028,0 0,201.371 m 201.373,0 0,-2.014 m -6.501,2.014 0,-2.014 m -8.401,2.014 0,-2.014 m -11.823,2.014 0,-2.014 m -23.275,2.014 0,-2.014 m -3.423,2.014 0,-2.014 m -3.883,2.014 0,-2.014 m -4.517,2.014 0,-2.014 m -5.292,2.014 0,-2.014 m -6.501,2.014 0,-2.014 m -8.401,2.014 0,-2.014 m -11.823,2.014 0,-2.014 m -23.273,2.014 0,-2.014 m -3.424,2.014 0,-2.014 m -3.911,2.014 0,-2.014 m -4.488,2.014 0,-2.014 m -5.322,2.014 0,-2.014 m -6.501,2.014 0,-2.014 m -8.372,2.014 0,-2.014 m -11.823,2.014 0,-2.014 m -23.273,2.014 0,-2.014 m -3.452,2.014 0,-2.014 m -3.884,2.014 0,-2.014 m -4.488,2.014 0,-2.014 m -5.322,2.014 0,-2.014 m 154.452,2.014 0,-4.028 m -67.114,4.028 0,-4.028 m -67.143,4.028 0,-4.028 m -20.195,4.028 201.373,0 m 0,-201.371 0,2.013 m -6.501,-2.013 0,2.013 m -8.401,-2.013 0,2.013 m -11.823,-2.013 0,2.013 m -23.275,-2.013 0,2.013 m -3.423,-2.013 0,2.013 m -3.883,-2.013 0,2.013 m -4.517,-2.013 0,2.013 m -5.292,-2.013 0,2.013 m -6.501,-2.013 0,2.013 m -8.401,-2.013 0,2.013 m -11.823,-2.013 0,2.013 m -23.273,-2.013 0,2.013 m -3.424,-2.013 0,2.013 m -3.911,-2.013 0,2.013 m -4.488,-2.013 0,2.013 m -5.322,-2.013 0,2.013 m -6.501,-2.013 0,2.013 m -8.372,-2.013 0,2.013 m -11.823,-2.013 0,2.013 m -23.273,-2.013 0,2.013 m -3.452,-2.013 0,2.013 m -3.884,-2.013 0,2.013 m -4.488,-2.013 0,2.013 m -5.322,-2.013 0,2.013 m 154.452,-2.013 0,4.026 m -67.114,-4.026 0,4.026 m -67.143,-4.026 0,4.026 m -20.195,-4.026 201.373,0"
             style="fill:none;stroke:#231f20;stroke-opacity:1;stroke-width:0.761;stroke-linecap:butt;stroke-linejoin:miter;stroke-miterlimit:2.5;stroke-dasharray:none"
             id="path29178" /></g></g></g><path
       d="m 423.162,724.323 -0.02,0.282 -0.061,0.282 -0.08,0.282 -0.141,0.262 -0.161,0.241 -0.181,0.222 -0.221,0.201 -0.242,0.161 -0.262,0.121 -0.282,0.101 -0.282,0.06 -0.302,0.02 -0.281,-0.02 -0.304,-0.06 -0.262,-0.101 -0.261,-0.121 -0.242,-0.161 -0.221,-0.201 -0.201,-0.222 -0.161,-0.241 -0.12,-0.262 -0.102,-0.282 -0.06,-0.282 -0.021,-0.282 0.021,-0.302 0.06,-0.282 0.102,-0.281 0.12,-0.263 0.161,-0.241 0.201,-0.222 0.221,-0.181 0.242,-0.161 0.261,-0.141 0.262,-0.08 0.304,-0.061 0.281,-0.02 0.302,0.02 0.282,0.061 0.282,0.08 0.262,0.141 0.242,0.161 0.221,0.181 0.181,0.222 0.161,0.241 0.141,0.263 0.08,0.281 0.061,0.282 0.02,0.302"
       style="fill:#231f20;fill-opacity:1;fill-rule:nonzero;stroke:none"
       id="path29188"
       inkscape:connector-curvature="0" /><path
       d="m 441.976,719.836 -0.021,0.282 -0.06,0.281 -0.1,0.282 -0.121,0.262 -0.161,0.241 -0.202,0.222 -0.222,0.202 -0.241,0.161 -0.263,0.12 -0.281,0.101 -0.281,0.061 -0.282,0.019 -0.303,-0.019 -0.282,-0.061 -0.281,-0.101 -0.262,-0.12 -0.241,-0.161 -0.222,-0.202 -0.201,-0.222 -0.162,-0.241 -0.12,-0.262 -0.102,-0.282 -0.06,-0.281 0,-0.585 0.06,-0.282 0.102,-0.282 0.12,-0.261 0.162,-0.242 0.201,-0.221 0.222,-0.182 0.241,-0.16 0.262,-0.142 0.281,-0.1 0.282,-0.041 0.303,-0.02 0.282,0.02 0.281,0.041 0.281,0.1 0.263,0.142 0.241,0.16 0.222,0.182 0.202,0.221 0.161,0.242 0.121,0.261 0.1,0.282 0.06,0.282 0.021,0.303"
       style="fill:#231f20;fill-opacity:1;fill-rule:nonzero;stroke:none"
       id="path29190"
       inkscape:connector-curvature="0" /><path
       d="m 460.761,710.659 -0.019,0.282 -0.062,0.302 -0.1,0.262 -0.122,0.261 -0.16,0.242 -0.201,0.222 -0.223,0.201 -0.24,0.161 -0.262,0.121 -0.262,0.101 -0.303,0.061 -0.281,0.019 -0.303,-0.019 -0.282,-0.061 -0.281,-0.101 -0.262,-0.121 -0.242,-0.161 -0.222,-0.201 -0.18,-0.222 -0.161,-0.242 -0.142,-0.261 -0.08,-0.262 -0.06,-0.302 -0.021,-0.282 0.021,-0.302 0.06,-0.282 0.08,-0.282 0.142,-0.261 0.161,-0.242 0.18,-0.222 0.222,-0.181 0.242,-0.161 0.262,-0.141 0.281,-0.081 0.282,-0.06 0.303,-0.02 0.281,0.02 0.303,0.06 0.262,0.081 0.262,0.141 0.24,0.161 0.223,0.181 0.201,0.222 0.16,0.242 0.122,0.261 0.1,0.282 0.062,0.282 0.019,0.302"
       style="fill:#231f20;fill-opacity:1;fill-rule:nonzero;stroke:none"
       id="path29192"
       inkscape:connector-curvature="0" /><path
       d="m 479.546,670.586 -0.02,0.302 -0.061,0.282 -0.08,0.282 -0.14,0.262 -0.163,0.241 -0.18,0.221 -0.222,0.182 -0.242,0.161 -0.262,0.141 -0.281,0.08 -0.282,0.061 -0.302,0.02 -0.283,-0.02 -0.302,-0.061 -0.26,-0.08 -0.264,-0.141 -0.24,-0.161 -0.222,-0.182 -0.201,-0.221 -0.161,-0.241 -0.121,-0.262 -0.101,-0.282 -0.06,-0.282 -0.021,-0.302 0.021,-0.282 0.06,-0.302 0.101,-0.262 0.121,-0.262 0.161,-0.242 0.201,-0.221 0.222,-0.201 0.24,-0.161 0.264,-0.121 0.26,-0.101 0.302,-0.06 0.283,-0.021 0.302,0.021 0.282,0.06 0.281,0.101 0.262,0.121 0.242,0.161 0.222,0.201 0.18,0.221 0.163,0.242 0.14,0.262 0.08,0.262 0.061,0.302 0.02,0.282"
       style="fill:#231f20;fill-opacity:1;fill-rule:nonzero;stroke:none"
       id="path29194"
       inkscape:connector-curvature="0" /><path
       d="m 498.361,632.297 -0.021,0.301 -0.061,0.283 -0.101,0.281 -0.121,0.262 -0.16,0.241 -0.201,0.222 -0.222,0.181 -0.241,0.182 -0.262,0.121 -0.283,0.101 -0.282,0.039 -0.281,0.021 -0.303,-0.021 -0.281,-0.039 -0.283,-0.101 -0.261,-0.121 -0.242,-0.182 -0.22,-0.181 -0.202,-0.222 -0.162,-0.241 -0.121,-0.262 -0.1,-0.281 -0.06,-0.283 0,-0.584 0.06,-0.281 0.1,-0.281 0.121,-0.263 0.162,-0.241 0.202,-0.222 0.22,-0.202 0.242,-0.161 0.261,-0.121 0.283,-0.101 0.281,-0.059 0.303,-0.021 0.281,0.021 0.282,0.059 0.283,0.101 0.262,0.121 0.241,0.161 0.222,0.202 0.201,0.222 0.16,0.241 0.121,0.263 0.101,0.281 0.061,0.281 0.021,0.283"
       style="fill:#231f20;fill-opacity:1;fill-rule:nonzero;stroke:none"
       id="path29196"
       inkscape:connector-curvature="0" /><path
       d="m 517.164,562.049 -0.02,0.283 -0.062,0.302 -0.098,0.262 -0.122,0.281 -0.162,0.242 -0.201,0.201 -0.221,0.202 -0.242,0.162 -0.262,0.141 -0.262,0.079 -0.302,0.061 -0.282,0.02 -0.302,-0.02 -0.283,-0.061 -0.281,-0.079 -0.261,-0.141 -0.242,-0.162 -0.22,-0.202 -0.183,-0.201 -0.16,-0.242 -0.142,-0.281 -0.081,-0.262 -0.058,-0.302 -0.023,-0.283 4.472,0"
       style="fill:#231f20;fill-opacity:1;fill-rule:nonzero;stroke:none"
       id="path29198"
       inkscape:connector-curvature="0" /><path
       d="m 514.91,562.03 c 0,1.865 0,29.525 0,30.209 m -18.785,14.139 0,42.086 m -18.814,7.221 c 0,0 0,24.928 0,25.971 m -18.785,20.171 c 0,0 0,15.23 0,16.126 m -18.785,-5.971 c 0,0 0,13.581 0,14.455 m -18.814,-9.536 c 0,0 0,13.041 0,13.723 m -18.785,-24.165 c 0,0 0,14.45 0,15.347"
       style="fill:none;stroke:#231f20;stroke-width:0.76099998;stroke-linecap:round;stroke-linejoin:miter;stroke-miterlimit:2.5;stroke-opacity:1;stroke-dasharray:none"
       id="path29200"
       inkscape:connector-curvature="0" /><path
       d="m 402.142,722.367 18.785,2.503 18.814,-4.229 18.785,-12.082 18.785,-38.059 18.814,-38.06 18.785,-38.06"
       style="fill:none;stroke:#bdbcbc;stroke-width:0.76099998;stroke-linecap:butt;stroke-linejoin:miter;stroke-miterlimit:2.5;stroke-opacity:1;stroke-dasharray:2.0297, 2.0297;stroke-dashoffset:0"
       id="path29202"
       inkscape:connector-curvature="0" /><path
       d="m 404.377,714.83 -0.02,0.282 -0.061,0.302 -0.1,0.262 -0.121,0.261 -0.161,0.242 -0.202,0.222 -0.221,0.201 -0.242,0.161 -0.262,0.121 -0.261,0.101 -0.302,0.06 -0.282,0.02 -0.302,-0.02 -0.282,-0.06 -0.282,-0.101 -0.262,-0.121 -0.242,-0.161 -0.221,-0.201 -0.182,-0.222 -0.16,-0.242 -0.141,-0.261 -0.081,-0.262 -0.06,-0.302 -0.02,-0.282 0.02,-0.302 0.06,-0.282 0.081,-0.282 0.141,-0.261 0.16,-0.242 0.182,-0.222 0.221,-0.181 0.242,-0.161 0.262,-0.141 0.282,-0.08 0.282,-0.061 0.302,-0.02 0.282,0.02 0.302,0.061 0.261,0.08 0.262,0.141 0.242,0.161 0.221,0.181 0.202,0.222 0.161,0.242 0.121,0.261 0.1,0.282 0.061,0.282 0.02,0.302"
       style="fill:#ffffff;fill-opacity:1;fill-rule:nonzero;stroke:none"
       id="path29204"
       inkscape:connector-curvature="0" /><path
       d="m 404.377,714.83 -0.02,0.282 -0.061,0.302 -0.1,0.262 -0.121,0.261 -0.161,0.242 -0.202,0.222 -0.221,0.201 -0.242,0.161 -0.262,0.121 -0.261,0.101 -0.302,0.06 -0.282,0.02 -0.302,-0.02 -0.282,-0.06 -0.282,-0.101 -0.262,-0.121 -0.242,-0.161 -0.221,-0.201 -0.182,-0.222 -0.16,-0.242 -0.141,-0.261 -0.081,-0.262 -0.06,-0.302 -0.02,-0.282 0.02,-0.302 0.06,-0.282 0.081,-0.282 0.141,-0.261 0.16,-0.242 0.182,-0.222 0.221,-0.181 0.242,-0.161 0.262,-0.141 0.282,-0.08 0.282,-0.061 0.302,-0.02 0.282,0.02 0.302,0.061 0.261,0.08 0.262,0.141 0.242,0.161 0.221,0.181 0.202,0.222 0.161,0.242 0.121,0.261 0.1,0.282 0.061,0.282 0.02,0.302 z"
       style="fill:none;stroke:#231f20;stroke-width:0.50700003;stroke-linecap:butt;stroke-linejoin:miter;stroke-miterlimit:4;stroke-opacity:1;stroke-dasharray:none"
       id="path29206"
       inkscape:connector-curvature="0" /><path
       d="m 407.341,717.026 c 13.202,-26.731 57.993,-117.419 76.015,-153.908 M 360.471,727.693 c 18.62,-4.188 38.88,-8.744 46.821,-10.53 m -71.474,-16.496 c 5.832,6.393 16.526,18.115 24.722,27.099"
       style="fill:none;stroke:#bdbcbc;stroke-width:2.02999997;stroke-linecap:round;stroke-linejoin:miter;stroke-miterlimit:2.5;stroke-opacity:1;stroke-dasharray:none"
       id="path29208"
       inkscape:connector-curvature="0" /><text
       transform="scale(1,-1)"
       id="text29210"
       x="406.9989"
       y="-538.0766"><tspan
         style="font-size:10.14850044px;font-variant:normal;font-weight:normal;writing-mode:lr-tb;fill:#231f20;fill-opacity:1;fill-rule:nonzero;stroke:none;font-family:Myriad;-inkscape-font-specification:Myriad-Roman"
         x="406.9989 415.21716 420.10873 424.12753 428.14633 430.29782 433.17999 441.33939 454.24829"
         y="-538.0766"
         sodipodi:role="line"
         id="tspan29212">Mass (M )</tspan></text>
<text
       transform="scale(1,-1)"
       id="text29214"
       x="441.319"
       y="-536.50958"><tspan
         style="font-size:8.11880016px;font-variant:normal;font-weight:normal;writing-mode:lr-tb;fill:#231f20;fill-opacity:1;fill-rule:nonzero;stroke:none;font-family:Myriad;-inkscape-font-specification:Myriad-Roman"
         x="441.319 444.53406 449.00751"
         y="-536.50958"
         sodipodi:role="line"
         id="tspan29216">sun</tspan></text>
<text
       transform="scale(1,-1)"
       id="text29218"
       x="347.68549"
       y="-551.59741"><tspan
         style="font-size:10.14850044px;font-variant:normal;font-weight:normal;writing-mode:lr-tb;fill:#231f20;fill-opacity:1;fill-rule:nonzero;stroke:none;font-family:Myriad;-inkscape-font-specification:Myriad-Roman"
         x="347.68549 352.89169 354.99243"
         y="-551.59741"
         sodipodi:role="line"
         id="tspan29220">0.1</tspan></text>
<text
       transform="scale(1,-1)"
       id="text29222"
       x="414.97919"
       y="-551.22803"><tspan
         style="font-size:10.14850044px;font-variant:normal;font-weight:normal;writing-mode:lr-tb;fill:#231f20;fill-opacity:1;fill-rule:nonzero;stroke:none;font-family:Myriad;-inkscape-font-specification:Myriad-Roman"
         x="414.97919 420.18539 422.28613"
         y="-551.22803"
         sodipodi:role="line"
         id="tspan29224">1.0</tspan></text>
<text
       transform="scale(1,-1)"
       id="text29226"
       x="478.3403"
       y="-551.0271"><tspan
         style="font-size:10.14850044px;font-variant:normal;font-weight:normal;writing-mode:lr-tb;fill:#231f20;fill-opacity:1;fill-rule:nonzero;stroke:none;font-family:Myriad;-inkscape-font-specification:Myriad-Roman"
         x="478.3403 483.54648 488.75266 490.85339"
         y="-551.0271"
         sodipodi:role="line"
         id="tspan29228">10.0</tspan></text>
<text
       transform="matrix(0,1,1,0,0,0)"
       id="text29230"
       x="625.37482"
       y="313.65439"><tspan
         style="font-size:10.14850044px;font-style:italic;font-variant:normal;writing-mode:lr-tb;fill:#231f20;fill-opacity:1;fill-rule:nonzero;stroke:none;font-family:Myriad;-inkscape-font-specification:Myriad-Italic"
         x="625.37482"
         y="313.65439"
         id="tspan29232">d</tspan></text>
<text
       transform="matrix(0,1,1,0,0,0)"
       id="text29234"
       x="630.70282"
       y="313.65439"><tspan
         style="font-size:10.14850044px;font-variant:normal;font-weight:normal;writing-mode:lr-tb;fill:#231f20;fill-opacity:1;fill-rule:nonzero;stroke:none;font-family:Myriad;-inkscape-font-specification:Myriad-Roman"
         x="630.70282 637.38049 639.53198 643.01294"
         y="313.65439"
         sodipodi:role="line"
         id="tspan29236">N / </tspan></text>
<text
       transform="matrix(0,1,1,0,0,0)"
       id="text29238"
       x="645.16443"
       y="313.65439"><tspan
         style="font-size:10.14850044px;font-style:italic;font-variant:normal;writing-mode:lr-tb;fill:#231f20;fill-opacity:1;fill-rule:nonzero;stroke:none;font-family:Myriad;-inkscape-font-specification:Myriad-Italic"
         x="645.16443 650.49847 652.82855 658.13214"
         y="313.65439"
         sodipodi:role="line"
         id="tspan29240">dlog</tspan></text>
<text
       transform="matrix(0,1,1,0,0,0)"
       id="text29242"
       x="665.60248"
       y="313.65439"><tspan
         style="font-size:10.14850044px;font-variant:normal;font-weight:normal;writing-mode:lr-tb;fill:#231f20;fill-opacity:1;fill-rule:nonzero;stroke:none;font-family:Myriad;-inkscape-font-specification:Myriad-Roman"
         x="665.60248 673.82074 678.71234 682.73114"
         y="313.65439"
         sodipodi:role="line"
         id="tspan29244">Mass</tspan></text>
<text
       transform="scale(1,-1)"
       id="text29246"
       x="327.46631"
       y="-561.64142"><tspan
         style="font-size:10.14850044px;font-variant:normal;font-weight:normal;writing-mode:lr-tb;fill:#231f20;fill-opacity:1;fill-rule:nonzero;stroke:none;font-family:Myriad;-inkscape-font-specification:Myriad-Roman"
         x="327.46631"
         y="-561.64142"
         id="tspan29248">1</tspan></text>
<text
       transform="scale(1,-1)"
       id="text29250"
       x="321.39139"
       y="-659.30249"><tspan
         style="font-size:10.14850044px;font-variant:normal;font-weight:normal;writing-mode:lr-tb;fill:#231f20;fill-opacity:1;fill-rule:nonzero;stroke:none;font-family:Myriad;-inkscape-font-specification:Myriad-Roman"
         x="321.39139 326.5976"
         y="-659.30249"
         sodipodi:role="line"
         id="tspan29252">10</tspan></text>
<text
       transform="scale(1,-1)"
       id="text29254"
       x="316.24609"
       y="-756.77472"><tspan
         style="font-size:10.14850044px;font-variant:normal;font-weight:normal;writing-mode:lr-tb;fill:#231f20;fill-opacity:1;fill-rule:nonzero;stroke:none;font-family:Myriad;-inkscape-font-specification:Myriad-Roman"
         x="316.24609 321.45227 326.65845"
         y="-756.77472"
         sodipodi:role="line"
         id="tspan29256">100</tspan></text>
<text
       transform="scale(1,-1)"
       id="text29258"
       x="404.96841"
       y="-666.7981"><tspan
         style="font-size:10.14850044px;font-variant:normal;font-weight:normal;writing-mode:lr-tb;fill:#acaaab;fill-opacity:1;fill-rule:nonzero;stroke:none;font-family:Myriad;-inkscape-font-specification:Myriad-Roman"
         x="404.96841 407.39389 415.55328"
         y="-666.7981"
         sodipodi:role="line"
         id="tspan29260">IMF</tspan></text>
<text
       transform="scale(1,-1)"
       id="text29262"
       x="446.65131"
       y="-666.7981"><tspan
         style="font-size:10.14850044px;font-variant:normal;font-weight:normal;writing-mode:lr-tb;fill:#231f20;fill-opacity:1;fill-rule:nonzero;stroke:none;font-family:Myriad;-inkscape-font-specification:Myriad-Roman"
         x="446.65131 453.41019 459.29633 467.45572"
         y="-666.7981"
         sodipodi:role="line"
         id="tspan29264">DCMF</tspan></text>
</g></svg>