<?xml version="1.0" encoding="UTF-8" standalone="no"?>
<!-- Created with Inkscape (http://www.inkscape.org/) -->

<svg
   xmlns:dc="http://purl.org/dc/elements/1.1/"
   xmlns:cc="http://creativecommons.org/ns#"
   xmlns:rdf="http://www.w3.org/1999/02/22-rdf-syntax-ns#"
   xmlns:svg="http://www.w3.org/2000/svg"
   xmlns="http://www.w3.org/2000/svg"
   xmlns:sodipodi="http://sodipodi.sourceforge.net/DTD/sodipodi-0.dtd"
   xmlns:inkscape="http://www.inkscape.org/namespaces/inkscape"
   id="svg9882"
   version="1.1"
   inkscape:version="0.48.5 r10040"
   width="385.85813"
   height="196.52137"
   xml:space="preserve"
   sodipodi:docname="Conroy2013_fig4_bc.pdf"><metadata
     id="metadata9888"><rdf:RDF><cc:Work
         rdf:about=""><dc:format>image/svg+xml</dc:format><dc:type
           rdf:resource="http://purl.org/dc/dcmitype/StillImage" /><dc:title></dc:title></cc:Work></rdf:RDF></metadata><defs
     id="defs9886"><clipPath
       clipPathUnits="userSpaceOnUse"
       id="clipPath9898"><path
         d="M 0,0 612,0 612,792 0,792 0,0 z"
         id="path9900" /></clipPath><clipPath
       clipPathUnits="userSpaceOnUse"
       id="clipPath10416"><path
         d="m 40.32,65.95 531,0 0,657 -531,0 0,-657 z"
         id="path10418" /></clipPath><clipPath
       clipPathUnits="userSpaceOnUse"
       id="clipPath10430"><path
         d="m 40.32,65.95 531,0 0,657 -531,0 0,-657 z"
         id="path10432" /></clipPath></defs><sodipodi:namedview
     pagecolor="#ffffff"
     bordercolor="#666666"
     borderopacity="1"
     objecttolerance="10"
     gridtolerance="10"
     guidetolerance="10"
     inkscape:pageopacity="0"
     inkscape:pageshadow="2"
     inkscape:window-width="1637"
     inkscape:window-height="944"
     id="namedview9884"
     showgrid="false"
     inkscape:zoom="2.1665995"
     inkscape:cx="179.85728"
     inkscape:cy="139.81675"
     inkscape:window-x="0"
     inkscape:window-y="22"
     inkscape:window-maximized="0"
     inkscape:current-layer="g9890" /><g
     id="g9890"
     inkscape:groupmode="layer"
     inkscape:label="Conroy2013_fig4_bc"
     transform="matrix(1.25,0,0,-1.25,-279.0565,864.90662)"><g
       id="g9892" /><text
       transform="scale(1,-1)"
       id="text9948"
       x="251.149"
       y="-558.85712"><tspan
         style="font-size:7px;font-variant:normal;font-weight:normal;writing-mode:lr-tb;fill:#231f20;fill-opacity:1;fill-rule:nonzero;stroke:none;font-family:MyriadPro;-inkscape-font-specification:MyriadPro-Regular"
         x="251.149 254.74001 256.189"
         y="-558.85712"
         sodipodi:role="line"
         id="tspan9950">0.0</tspan></text>
<text
       transform="scale(1,-1)"
       id="text9964"
       x="272.84601"
       y="-558.85712"><tspan
         style="font-size:7px;font-variant:normal;font-weight:normal;writing-mode:lr-tb;fill:#231f20;fill-opacity:1;fill-rule:nonzero;stroke:none;font-family:MyriadPro;-inkscape-font-specification:MyriadPro-Regular"
         x="272.84601 276.43701 277.88599 294.54321 298.13419 299.58319 316.24039 319.83139 321.2804 337.93759 341.52859 342.9776 359.6348 363.2258 364.6748"
         y="-558.85712"
         sodipodi:role="line"
         id="tspan9966">0.20.40.60.81.0</tspan></text>
<text
       transform="scale(1,-1)"
       id="text9968"
       x="244.18871"
       y="-564.21838"><tspan
         style="font-size:7px;font-variant:normal;font-weight:normal;writing-mode:lr-tb;fill:#231f20;fill-opacity:1;fill-rule:nonzero;stroke:none;font-family:MyriadPro;-inkscape-font-specification:MyriadPro-Regular"
         x="244.18871 247.77969 249.2287"
         y="-564.21838"
         sodipodi:role="line"
         id="tspan9970">0.0</tspan></text>
<text
       transform="scale(1,-1)"
       id="text9972"
       x="244.18871"
       y="-584.6626"><tspan
         style="font-size:7px;font-variant:normal;font-weight:normal;writing-mode:lr-tb;fill:#231f20;fill-opacity:1;fill-rule:nonzero;stroke:none;font-family:MyriadPro;-inkscape-font-specification:MyriadPro-Regular"
         x="244.18871 247.77969 249.2287"
         y="-584.6626"
         sodipodi:role="line"
         id="tspan9974">0.2</tspan></text>
<text
       transform="scale(1,-1)"
       id="text9976"
       x="244.18871"
       y="-605.10889"><tspan
         style="font-size:7px;font-variant:normal;font-weight:normal;writing-mode:lr-tb;fill:#231f20;fill-opacity:1;fill-rule:nonzero;stroke:none;font-family:MyriadPro;-inkscape-font-specification:MyriadPro-Regular"
         x="244.18871 247.77969 249.2287"
         y="-605.10889"
         sodipodi:role="line"
         id="tspan9978">0.4</tspan></text>
<text
       transform="scale(1,-1)"
       id="text9980"
       x="244.18871"
       y="-625.5531"><tspan
         style="font-size:7px;font-variant:normal;font-weight:normal;writing-mode:lr-tb;fill:#231f20;fill-opacity:1;fill-rule:nonzero;stroke:none;font-family:MyriadPro;-inkscape-font-specification:MyriadPro-Regular"
         x="244.18871 247.77969 249.2287"
         y="-625.5531"
         sodipodi:role="line"
         id="tspan9982">0.6</tspan></text>
<text
       transform="scale(1,-1)"
       id="text9984"
       x="244.18871"
       y="-645.99799"><tspan
         style="font-size:7px;font-variant:normal;font-weight:normal;writing-mode:lr-tb;fill:#231f20;fill-opacity:1;fill-rule:nonzero;stroke:none;font-family:MyriadPro;-inkscape-font-specification:MyriadPro-Regular"
         x="244.18871 247.77969 249.2287"
         y="-645.99799"
         sodipodi:role="line"
         id="tspan9986">0.8</tspan></text>
<text
       transform="scale(1,-1)"
       id="text9988"
       x="244.18871"
       y="-666.44287"><tspan
         style="font-size:7px;font-variant:normal;font-weight:normal;writing-mode:lr-tb;fill:#231f20;fill-opacity:1;fill-rule:nonzero;stroke:none;font-family:MyriadPro;-inkscape-font-specification:MyriadPro-Regular"
         x="244.18871 247.77969 249.2287"
         y="-666.44287"
         sodipodi:role="line"
         id="tspan9990">1.0</tspan></text>
<path
       d="m 255.332,586.748 3.6,0 m -3.6,20.529 3.6,0 m -3.6,20.546 3.6,0 m -3.6,20.529 3.6,0 m -3.6,15.393 1.814,0 m -1.814,-5.136 1.814,0 m -1.814,-5.12 1.814,0 m -1.814,-10.273 1.814,0 m -1.814,-5.136 1.814,0 m -1.814,-5.137 1.814,0 m -1.814,-10.256 1.814,0 m -1.814,-5.136 1.814,0 m -1.814,-5.137 1.814,0 m -1.814,-10.256 1.814,0 m -1.814,-5.137 1.814,0 m -1.814,-5.136 1.814,0 m -1.814,-10.273 1.814,0 m -1.814,-5.119 1.814,0 m -1.814,-5.137 1.814,0 m 106.436,15.392 -3.6,0 m 3.6,20.529 -3.6,0 m 3.6,20.546 -3.6,0 m 3.6,20.529 -3.6,0 m 1.787,15.393 1.813,0 m -1.813,-5.136 1.813,0 m -1.813,-5.12 1.813,0 m -1.813,-10.273 1.813,0 m -1.813,-5.136 1.813,0 m -1.813,-5.137 1.813,0 m -1.813,-10.256 1.813,0 m -1.813,-5.136 1.813,0 m -1.813,-5.137 1.813,0 m -1.813,-10.256 1.813,0 m -1.813,-5.137 1.813,0 m -1.813,-5.136 1.813,0 m -1.813,-10.273 1.813,0 m -1.813,-5.119 1.813,0 m -1.813,-5.137 1.813,0"
       style="fill:none;stroke:#231f20;stroke-width:0.5;stroke-linecap:butt;stroke-linejoin:miter;stroke-miterlimit:2.5;stroke-opacity:1;stroke-dasharray:none"
       id="path9992"
       inkscape:connector-curvature="0" /><text
       transform="matrix(0,1,1,0,0,0)"
       id="text9994"
       x="571.85999"
       y="238.55701"><tspan
         style="font-size:8px;font-variant:normal;font-weight:bold;writing-mode:lr-tb;fill:#231f20;fill-opacity:1;fill-rule:nonzero;stroke:none;font-family:MyriadPro;-inkscape-font-specification:MyriadPro-Bold"
         x="571.85999 576.62 581.284 588.164 592.828 595.02802 599.25201 602.18799 604.38 608.62 612.84399 614.46002 621.34003 625.56403 629.03601 632.508 634.12402 636.85199 639.89197 644.11597 647.724 650.65997 652.85199 657.46802"
         y="238.55701"
         sodipodi:role="line"
         id="tspan9996">Cumulative mass fraction</tspan></text>
<path
       d="m 330.608,660.394 c 5.285,1.896 10.649,3.599 16.049,5.085 2.854,0.816 5.725,1.546 8.607,2.274 0.849,0.194 1.708,0.435 2.559,0.606 0.094,0.049 0.258,0.064 0.37,0.101 l 0.068,0 0.051,0.017 0.067,0.017 0.051,0.016 0.05,0.018 0.067,0 c 0.088,0.033 0.178,0.056 0.269,0.066 l 0.017,0.018 0.067,0 0.035,0.016 0.049,0 0.035,0.017 0.017,0 0.033,0.017 0.051,0 0.017,0.017 0.051,0 0.016,0.017 0.068,0 0.016,0.017 0.051,0 0.017,0.017 0.067,0 0.016,0.016 0.051,0 0.017,0.017 0.034,0 0.033,0.017 0.051,0 0.017,0.017 0.067,0 0.018,0.017 0.049,0 0.017,0.016 0.067,0 0,0.017 0.068,0 0,0.017 0.051,0 m -96.65,-102.308 c 6.69,50.386 20.385,76.842 67.279,93.836"
       style="fill:none;stroke:#231f20;stroke-width:1;stroke-linecap:butt;stroke-linejoin:miter;stroke-miterlimit:2.5;stroke-opacity:1;stroke-dasharray:none"
       id="path9998"
       inkscape:connector-curvature="0" /><path
       d="m 330.608,649.834 c 4.947,3.733 10.031,7.265 15.242,10.593 1.247,0.812 2.507,1.59 3.772,2.374 0.626,0.374 1.25,0.786 1.886,1.145 0.31,0.203 0.656,0.398 0.976,0.59 0.378,0.218 0.714,0.459 1.095,0.657 1.554,0.932 3.142,1.868 4.733,2.728 0.273,0.173 0.549,0.287 0.808,0.454 l 0.017,0 0.033,0.017 0.018,0.017 0.016,0.017 0.033,0 0.018,0.017 0.017,0.017 0.016,0 0.034,0.016 0.017,0.017 0.017,0 0.016,0.017 0.017,0 0.017,0.017 0.017,0 0.016,0.017 0.017,0.016 0.018,0 0.016,0.017 0.017,0.017 0.034,0 0,0.017 0.033,0.017 0.017,0 0.016,0.017 0.018,0 0.017,0.016 0.016,0 0,0.017 0.034,0 0,0.017 0.035,0 0,0.017 0.033,0 0,0.017 0.016,0 0.017,0.017 0.018,0.016 0.033,0 0.016,0.018 0.018,0.016 0.017,0 0.016,0.017 0.017,0 0,0.017 0.017,0 0.017,0.017 0.017,0 0.016,0.016 0.034,0 m -96.7,-102.56 c 9.581,18.672 19.936,35.998 33.631,51.955 10.016,11.731 21.347,22.298 33.648,31.576"
       style="fill:none;stroke:#ed1f24;stroke-width:1;stroke-linecap:butt;stroke-linejoin:miter;stroke-miterlimit:2.5;stroke-opacity:1;stroke-dasharray:none"
       id="path10000"
       inkscape:connector-curvature="0" /><path
       d="m 330.608,665.648 c 5.224,0.792 10.45,1.435 15.696,1.987 2.751,0.284 5.498,0.555 8.252,0.791 1.407,0.128 2.826,0.249 4.227,0.354 0.136,-0.008 0.071,0.022 0.152,0.017 l 0.134,0 0.017,0.017 c 0.039,0 0.079,0 0.118,0 l 0.068,0 0.016,0.017 0.051,0 c 0.028,0 0.056,0 0.084,0 l 0.067,0 0.017,0.016 0.016,0 c 0.068,0 0.136,0 0.204,0 l 0,0.017 c 0.067,0 0.134,0 0.201,0 M 263.329,566.859 c 1.477,18.719 3.042,38.748 8.337,56.872 1.993,6.49 4.541,12.72 8.437,18.306 4.441,6.328 10.007,10.817 16.857,14.281 10.383,5.126 22.257,7.534 33.648,9.329"
       style="fill:none;stroke:#127bca;stroke-width:1;stroke-linecap:butt;stroke-linejoin:miter;stroke-miterlimit:2.5;stroke-opacity:1;stroke-dasharray:none"
       id="path10002"
       inkscape:connector-curvature="0" /><path
       d="m 330.608,626.931 c 5.416,7.262 10.705,14.622 15.865,22.061 2.816,4.025 5.577,8.082 8.319,12.142 1.332,2.001 2.687,3.986 4.041,5.962 0.192,0.261 0.354,0.528 0.539,0.792 l 0.017,0.017 0.017,0.033 0.017,0.017 0.016,0.017 0,0.016 0.017,0.034 0.018,0.017 0.016,0.017 0.017,0.034 0.016,0.016 0.018,0.017 0,0.034 0.033,0.034 0.017,0.033 0.016,0.017 0.018,0.017 0.017,0.034 0.016,0.017 0.018,0.016 0,0.017 0.016,0.017 0,0.017 0.017,0 0,0.017 0.018,0 0,0.016 0.016,0.017 0,0.017 0.017,0 0,0.034 0.016,0 0,0.017 0.017,0.017 0,0.017 0.018,0.017 0.016,0.016 0.017,0.017 0.016,0.034 0,0.017 0.018,0.016 0.017,0.017 0.016,0.017 0,0.017 0.017,0.017 0,0.017 0.017,0.016 0.017,0.017 0.017,0.017 0,0.034 0.016,0.016 0.017,0 0,0.017 0.017,0 0,0.017 0.017,0 M 263.329,566.218 c 0.684,0.165 1.385,0.27 2.071,0.473 0.695,0.152 1.373,0.38 2.055,0.572 1.452,0.476 2.81,0.988 4.211,1.6 2.946,1.313 5.731,2.881 8.437,4.648 6.091,4.007 11.621,8.807 16.857,13.877 12.336,12.06 23.273,25.768 33.648,39.542"
       style="fill:none;stroke:#60c332;stroke-width:1;stroke-linecap:butt;stroke-linejoin:miter;stroke-miterlimit:2.5;stroke-opacity:1;stroke-dasharray:none"
       id="path10004"
       inkscape:connector-curvature="0" /><text
       transform="matrix(0.62184246,0.78314236,0.78314236,-0.62184246,0,0)"
       id="text10006"
       x="664.22803"
       y="-134.12273"
       style="font-size:12px"><tspan
         style="font-size:7.00000429px;font-variant:normal;font-weight:normal;writing-mode:lr-tb;fill:#60c332;fill-opacity:1;fill-rule:nonzero;stroke:none;font-family:MyriadPro;-inkscape-font-specification:MyriadPro-Regular"
         x="664.22803 668.02203 671.86505 674.18201 676.49902 680.34204 686.18005 688.32904 689.98102 691.61902 695.53204 699.41705"
         y="-134.12273"
         sodipodi:role="line"
         id="tspan10008">Bottom-light</tspan></text>
<text
       transform="matrix(0.70710678,0.70710678,0.70710678,-0.70710678,0,0)"
       id="text10010"
       x="652.99878"
       y="-230.58449"
       style="font-size:12px"><tspan
         style="font-size:7.00007439px;font-variant:normal;font-weight:normal;writing-mode:lr-tb;fill:#ed1f24;fill-opacity:1;fill-rule:nonzero;stroke:none;font-family:MyriadPro;-inkscape-font-specification:MyriadPro-Regular"
         x="652.99878 656.79279 659.08185 662.92487 666.78192 670.76495"
         y="-230.58449"
         sodipodi:role="line"
         id="tspan10012">Kroupa</tspan></text>
<text
       transform="matrix(0.72031678,0.69364526,0.69364526,-0.72031678,0,0)"
       id="text10014"
       x="643.2522"
       y="-259.79178"
       style="font-size:12px"><tspan
         style="font-size:6.99997568px;font-variant:normal;font-weight:normal;writing-mode:lr-tb;fill:#231f20;fill-opacity:1;fill-rule:nonzero;stroke:none;font-family:MyriadPro;-inkscape-font-specification:MyriadPro-Regular"
         x="643.2522 646.70319 650.07715 651.72913 655.71216 659.21912 661.53613 665.04309"
         y="-259.79178"
         sodipodi:role="line"
         id="tspan10016">Salpeter</tspan></text>
<text
       transform="matrix(0.74395653,0.66822802,0.66822802,-0.74395653,0,0)"
       id="text10018"
       x="620.73206"
       y="-294.31821"
       style="font-size:12px"><tspan
         style="font-size:7.00000572px;font-variant:normal;font-weight:normal;writing-mode:lr-tb;fill:#3c4ca8;fill-opacity:1;fill-rule:nonzero;stroke:none;font-family:MyriadPro;-inkscape-font-specification:MyriadPro-Regular"
         x="620.73206 624.52606 628.36908 630.6861 633.00305 636.84607 642.68408 644.83307 648.71808 652.2251 655.59906 658.96606"
         y="-294.31821"
         sodipodi:role="line"
         id="tspan10020">Bottom-heavy</tspan></text>
<text
       transform="scale(1,-1)"
       id="text10022"
       x="408.224"
       y="-558.85712"><tspan
         style="font-size:7px;font-variant:normal;font-weight:normal;writing-mode:lr-tb;fill:#231f20;fill-opacity:1;fill-rule:nonzero;stroke:none;font-family:MyriadPro;-inkscape-font-specification:MyriadPro-Regular"
         x="408.224 411.815 413.26401 429.7168 433.3078 434.75681 451.20959 454.8006 456.2496 472.7038 476.2948 477.7438 494.19589 497.7869 499.2359 515.68872 519.27972 520.7287"
         y="-558.85712"
         sodipodi:role="line"
         id="tspan10024">0.00.20.40.60.81.0</tspan></text>
<path
       d="m 433.746,669.053 0,-3.599 m 21.658,3.599 0,-3.599 m 21.64,3.599 0,-3.599 m 21.642,3.599 0,-3.599 m -81.157,3.599 0,-1.799 m 5.406,1.799 0,-1.799 m 5.406,1.799 0,-1.799 m 10.828,1.799 0,-1.799 m 5.406,1.799 0,-1.799 m 5.406,1.799 0,-1.799 m 10.829,1.799 0,-1.799 m 5.406,1.799 0,-1.799 m 5.423,1.799 0,-1.799 m 10.811,1.799 0,-1.799 m 5.423,1.799 0,-1.799 m 5.406,1.799 0,-1.799 m 10.812,1.799 0,-1.799 m 5.423,1.799 0,-1.799 m 5.406,1.799 0,-1.799"
       style="fill:none;stroke:#231f20;stroke-width:0.5;stroke-linecap:butt;stroke-linejoin:miter;stroke-miterlimit:2.5;stroke-opacity:1;stroke-dasharray:none"
       id="path10026"
       inkscape:connector-curvature="0" /><text
       transform="scale(1,-1)"
       id="text10028"
       x="400.99399"
       y="-563.71802"><tspan
         style="font-size:7px;font-variant:normal;font-weight:normal;writing-mode:lr-tb;fill:#231f20;fill-opacity:1;fill-rule:nonzero;stroke:none;font-family:MyriadPro;-inkscape-font-specification:MyriadPro-Regular"
         x="400.99399 404.58499 406.034"
         y="-563.71802"
         sodipodi:role="line"
         id="tspan10030">0.0</tspan></text>
<text
       transform="scale(1,-1)"
       id="text10032"
       x="400.99399"
       y="-584.31201"><tspan
         style="font-size:7px;font-variant:normal;font-weight:normal;writing-mode:lr-tb;fill:#231f20;fill-opacity:1;fill-rule:nonzero;stroke:none;font-family:MyriadPro;-inkscape-font-specification:MyriadPro-Regular"
         x="400.99399 404.58499 406.034"
         y="-584.31201"
         sodipodi:role="line"
         id="tspan10034">0.2</tspan></text>
<text
       transform="scale(1,-1)"
       id="text10036"
       x="400.99399"
       y="-604.90808"><tspan
         style="font-size:7px;font-variant:normal;font-weight:normal;writing-mode:lr-tb;fill:#231f20;fill-opacity:1;fill-rule:nonzero;stroke:none;font-family:MyriadPro;-inkscape-font-specification:MyriadPro-Regular"
         x="400.99399 404.58499 406.034"
         y="-604.90808"
         sodipodi:role="line"
         id="tspan10038">0.4</tspan></text>
<text
       transform="scale(1,-1)"
       id="text10040"
       x="400.99399"
       y="-625.50281"><tspan
         style="font-size:7px;font-variant:normal;font-weight:normal;writing-mode:lr-tb;fill:#231f20;fill-opacity:1;fill-rule:nonzero;stroke:none;font-family:MyriadPro;-inkscape-font-specification:MyriadPro-Regular"
         x="400.99399 404.58499 406.034"
         y="-625.50281"
         sodipodi:role="line"
         id="tspan10042">0.6</tspan></text>
<text
       transform="scale(1,-1)"
       id="text10044"
       x="400.99399"
       y="-646.09747"><tspan
         style="font-size:7px;font-variant:normal;font-weight:normal;writing-mode:lr-tb;fill:#231f20;fill-opacity:1;fill-rule:nonzero;stroke:none;font-family:MyriadPro;-inkscape-font-specification:MyriadPro-Regular"
         x="400.99399 404.58499 406.034"
         y="-646.09747"
         sodipodi:role="line"
         id="tspan10046">0.8</tspan></text>
<text
       transform="scale(1,-1)"
       id="text10048"
       x="400.99399"
       y="-666.6922"><tspan
         style="font-size:7px;font-variant:normal;font-weight:normal;writing-mode:lr-tb;fill:#231f20;fill-opacity:1;fill-rule:nonzero;stroke:none;font-family:MyriadPro;-inkscape-font-specification:MyriadPro-Regular"
         x="400.99399 404.58499 406.034"
         y="-666.6922"
         sodipodi:role="line"
         id="tspan10050">1.0</tspan></text>
<path
       d="m 412.308,586.748 3.599,0 m -3.599,20.529 3.599,0 m -3.599,20.546 3.599,0 m -3.599,20.529 3.599,0 m -3.599,15.393 1.785,0 m -1.785,-5.136 1.785,0 m -1.785,-5.12 1.785,0 m -1.785,-10.273 1.785,0 m -1.785,-5.136 1.785,0 m -1.785,-5.137 1.785,0 m -1.785,-10.256 1.785,0 m -1.785,-5.136 1.785,0 m -1.785,-5.137 1.785,0 m -1.785,-10.256 1.785,0 m -1.785,-5.137 1.785,0 m -1.785,-5.136 1.785,0 m -1.785,-10.273 1.785,0 m -1.785,-5.119 1.785,0 m -1.785,-5.137 1.785,0"
       style="fill:none;stroke:#231f20;stroke-width:0.5;stroke-linecap:butt;stroke-linejoin:miter;stroke-miterlimit:2.5;stroke-opacity:1;stroke-dasharray:none"
       id="path10052"
       inkscape:connector-curvature="0" /><text
       transform="matrix(0,1,1,0,0,0)"
       id="text10054"
       x="562.54608"
       y="394.13101"><tspan
         style="font-size:8px;font-variant:normal;font-weight:bold;writing-mode:lr-tb;fill:#231f20;fill-opacity:1;fill-rule:nonzero;stroke:none;font-family:MyriadPro;-inkscape-font-specification:MyriadPro-Bold"
         x="562.54608 567.30609 571.97009 578.8501 583.5141 585.71411 589.93811 592.87408 595.0661 599.30609 603.53009 605.14612 607.34607 612.01007 618.89008 621.08209 625.77008 630.38611 633.85809 636.05011 638.98608 643.1701 644.78607 647.5141 650.55408 654.77808 658.38611 661.32208 663.5141 668.13013"
         y="394.13101"
         sodipodi:role="line"
         id="tspan10056">Cumulative luminosity fraction</tspan></text>
<path
       d="m 487.183,579.136 c 7.805,2.961 14.929,7.3 20.529,13.591 2.431,2.732 4.468,5.813 6.163,9.076 2.016,3.338 2.057,7.373 2.224,11.15 l 0.016,0.051 0,0.555 c 0.078,1.431 0.091,2.864 0.118,4.295 0.049,2.898 0.065,5.808 0.068,8.707 0.03,6.04 0.005,12.08 0.033,18.12 0.067,8.087 0.4,16.076 0.287,24.184 M 419.903,566.218 c 5.44,0.441 11.307,2.058 16.775,2.915 5.606,1.026 11.234,1.874 16.858,2.713 11.289,1.709 22.91,3.318 33.648,7.294"
       style="fill:none;stroke:#231f20;stroke-width:1;stroke-linecap:butt;stroke-linejoin:miter;stroke-miterlimit:2.5;stroke-opacity:1;stroke-dasharray:none"
       id="path10058"
       inkscape:connector-curvature="0" /><path
       d="m 487.183,589.039 c 7.592,3.102 14.782,7.375 20.529,13.304 4.874,5.409 8.749,10.219 8.387,17.902 l 0.016,0.051 0,0.488 c 0.079,1.245 0.09,2.492 0.118,3.739 0.049,2.515 0.065,5.044 0.068,7.561 0.03,5.26 0.005,10.52 0.033,15.78 0.067,7.03 0.399,13.947 0.287,21.001 M 419.903,566.218 c 2.459,0.481 5.855,3.373 8.337,4.566 2.768,1.577 5.48,2.921 8.438,4.093 5.488,2.178 11.133,3.698 16.858,5.051 11.323,2.649 22.804,4.762 33.648,9.113"
       style="fill:none;stroke:#3c4ca8;stroke-width:1;stroke-linecap:butt;stroke-linejoin:miter;stroke-miterlimit:2.5;stroke-opacity:1;stroke-dasharray:none"
       id="path10060"
       inkscape:connector-curvature="0" /><path
       d="m 487.183,574.489 c 7.822,2.69 15.111,7.127 20.529,13.455 5.39,6.628 8.732,12.512 8.387,21.321 l 0.016,0.068 0,0.589 c 0.079,1.525 0.09,3.054 0.118,4.581 0.049,3.083 0.065,6.178 0.068,9.262 0.03,6.438 0.005,12.878 0.033,19.316 0.067,8.619 0.4,17.146 0.287,25.784 M 419.903,566.218 c 11.196,0.145 22.503,1.285 33.633,2.259 11.17,1.143 22.969,2.331 33.648,6.014"
       style="fill:none;stroke:#ed1f24;stroke-width:1;stroke-linecap:butt;stroke-linejoin:miter;stroke-miterlimit:2.5;stroke-opacity:1;stroke-dasharray:none"
       id="path10062"
       inkscape:connector-curvature="0" /><path
       d="m 487.183,570.059 c 7.883,1.948 15.092,5.496 20.529,11.688 5.71,6.748 8.739,13.372 8.387,22.365 l 0.016,0.067 0,0.639 c 0.079,1.65 0.09,3.302 0.118,4.952 0.049,3.354 0.065,6.717 0.068,10.071 0.03,6.989 0.005,13.978 0.033,20.967 0.068,9.374 0.399,18.664 0.287,28.057 M 419.903,566.218 c 11.22,0.003 22.448,0.103 33.633,0.473 11.071,0.415 22.854,0.774 33.648,3.37"
       style="fill:none;stroke:#60c332;stroke-width:1;stroke-linecap:butt;stroke-linejoin:miter;stroke-miterlimit:2.5;stroke-opacity:1;stroke-dasharray:none"
       id="path10064"
       inkscape:connector-curvature="0" /><text
       transform="scale(1,-1)"
       id="text10066"
       x="425.85501"
       y="-598.69019"><tspan
         style="font-size:6px;font-variant:normal;font-weight:normal;writing-mode:lr-tb;fill:#231f20;fill-opacity:1;fill-rule:nonzero;stroke:none;font-family:MyriadPro;-inkscape-font-specification:MyriadPro-Regular"
         x="425.85501 428.93301 430.17499 438.07999 441.15799 442.39999 450.32001 453.39801 454.64001 462.55099 465.629 466.871 474.7886 477.86661 479.10861 487.01541 490.09341 491.33539"
         y="-598.69019"
         sodipodi:role="line"
         id="tspan10068">0.00.20.40.60.81.0</tspan></text>
<text
       transform="scale(1,-1)"
       id="text10070"
       x="418.31421"
       y="-602.83081"><tspan
         style="font-size:6px;font-variant:normal;font-weight:normal;writing-mode:lr-tb;fill:#231f20;fill-opacity:1;fill-rule:nonzero;stroke:none;font-family:MyriadPro;-inkscape-font-specification:MyriadPro-Regular"
         x="418.31421 421.39221"
         y="-602.83081"
         sodipodi:role="line"
         id="tspan10072">10</tspan></text>
<text
       transform="scale(1,-1)"
       id="text10074"
       x="424.47"
       y="-604.81128"><tspan
         style="font-size:4.19999981px;font-variant:normal;font-weight:normal;writing-mode:lr-tb;fill:#231f20;fill-opacity:1;fill-rule:nonzero;stroke:none;font-family:MyriadPro;-inkscape-font-specification:MyriadPro-Regular"
         x="424.47 426.56958"
         y="-604.81128"
         sodipodi:role="line"
         id="tspan10076">–3</tspan></text>
<text
       transform="scale(1,-1)"
       id="text10078"
       x="418.314"
       y="-620.97491"><tspan
         style="font-size:6px;font-variant:normal;font-weight:normal;writing-mode:lr-tb;fill:#231f20;fill-opacity:1;fill-rule:nonzero;stroke:none;font-family:MyriadPro;-inkscape-font-specification:MyriadPro-Regular"
         x="418.314 421.392"
         y="-620.97491"
         sodipodi:role="line"
         id="tspan10080">10</tspan></text>
<text
       transform="scale(1,-1)"
       id="text10082"
       x="424.47"
       y="-622.95477"><tspan
         style="font-size:4.19999981px;font-variant:normal;font-weight:normal;writing-mode:lr-tb;fill:#231f20;fill-opacity:1;fill-rule:nonzero;stroke:none;font-family:MyriadPro;-inkscape-font-specification:MyriadPro-Regular"
         x="424.47 426.56958"
         y="-622.95477"
         sodipodi:role="line"
         id="tspan10084">–2</tspan></text>
<text
       transform="scale(1,-1)"
       id="text10086"
       x="418.314"
       y="-639.11877"><tspan
         style="font-size:6px;font-variant:normal;font-weight:normal;writing-mode:lr-tb;fill:#231f20;fill-opacity:1;fill-rule:nonzero;stroke:none;font-family:MyriadPro;-inkscape-font-specification:MyriadPro-Regular"
         x="418.314 421.392"
         y="-639.11877"
         sodipodi:role="line"
         id="tspan10088">10</tspan></text>
<text
       transform="scale(1,-1)"
       id="text10090"
       x="424.47"
       y="-641.09888"><tspan
         style="font-size:4.19999981px;font-variant:normal;font-weight:normal;writing-mode:lr-tb;fill:#231f20;fill-opacity:1;fill-rule:nonzero;stroke:none;font-family:MyriadPro;-inkscape-font-specification:MyriadPro-Regular"
         x="424.47 426.56958"
         y="-641.09888"
         sodipodi:role="line"
         id="tspan10092">–1</tspan></text>
<text
       transform="scale(1,-1)"
       id="text10094"
       x="420.414"
       y="-657.26251"><tspan
         style="font-size:6px;font-variant:normal;font-weight:normal;writing-mode:lr-tb;fill:#231f20;fill-opacity:1;fill-rule:nonzero;stroke:none;font-family:MyriadPro;-inkscape-font-specification:MyriadPro-Regular"
         x="420.414 423.492"
         y="-657.26251"
         sodipodi:role="line"
         id="tspan10096">10</tspan></text>
<text
       transform="scale(1,-1)"
       id="text10098"
       x="426.57001"
       y="-659.24237"><tspan
         style="font-size:4.19999981px;font-variant:normal;font-weight:normal;writing-mode:lr-tb;fill:#231f20;fill-opacity:1;fill-rule:nonzero;stroke:none;font-family:MyriadPro;-inkscape-font-specification:MyriadPro-Regular"
         x="426.57001"
         y="-659.24237"
         id="tspan10100">0</tspan></text>
<path
       d="m 430.058,622.965 1.799,0 m -1.799,18.39 1.799,0 m -1.799,-31.257 0.899,0 m -0.899,3.25 0.899,0 m -0.899,2.291 0.899,0 m -0.899,1.786 0.899,0 m -0.899,1.447 0.899,0 m -0.899,1.246 0.899,0 m -0.899,1.061 0.899,0 m -0.899,0.944 0.899,0 m -0.899,6.382 0.899,0 m -0.899,3.233 0.899,0 m -0.899,2.291 0.899,0 m -0.899,1.785 0.899,0 m -0.899,1.466 0.899,0 m -0.899,1.229 0.899,0 m -0.899,1.061 0.899,0 m -0.899,0.943 0.899,0 m -0.899,6.382 0.899,0 m -0.899,3.234 0.899,0 m -0.899,2.307 0.899,0 m -0.899,1.768 0.899,0 m -0.899,1.466 0.899,0 m -0.899,1.229 0.899,0 m -0.899,1.061 0.899,0 m -0.899,0.943 0.899,0 m 11.203,-54.1 0,1.801 m 12.244,-1.801 0,1.801 m 12.226,-1.801 0,1.801 m 12.244,-1.801 0,1.801 m -36.714,51.321 0,1.8 m 12.244,-1.8 0,1.8 m 12.226,-1.8 0,1.8 m 12.244,-1.8 0,1.8"
       style="fill:none;stroke:#231f20;stroke-width:0.5;stroke-linecap:butt;stroke-linejoin:miter;stroke-miterlimit:2.5;stroke-opacity:1;stroke-dasharray:none"
       id="path10102"
       inkscape:connector-curvature="0" /><path
       d="m 473.165,643.527 c 0.487,0.226 0.994,0.415 1.482,0.64 0.483,0.22 0.993,0.437 1.465,0.674 0.992,0.44 1.975,0.936 2.948,1.415 0.979,0.494 1.976,1.004 2.93,1.548 0.494,0.258 0.98,0.549 1.465,0.826 0.525,0.284 1.018,0.626 1.533,0.909 l 0,0.034 c 1.002,0.634 2.173,1.434 3.065,2.206 0.098,0.092 0.231,0.286 0.303,0.404 0.079,0.11 0.128,0.296 0.185,0.421 l 0.018,0.033 0,0.051 0.016,0.034 0.018,0.034 0,0.05 0.016,0.034 c 0.023,0.095 0.044,0.188 0.051,0.286 l 0.017,0.05 0,0.051 0.016,0.084 0,0.084 0.017,0.034 0,0.068 0.018,0.016 0,0.152 0.016,0.101 c 0.127,1.312 0.063,2.65 0.101,3.974 -0.013,0.191 0.023,0.373 0.051,0.556 0.026,0.079 0.025,0.157 0.049,0.236 0.006,0.096 0.031,0.19 0.036,0.286 0.032,0.286 0.005,0.636 0.015,0.926 m -53.858,-55.187 c 1.502,33.6 14.668,29.134 38.029,38.971"
       style="fill:none;stroke:#231f20;stroke-width:0.75;stroke-linecap:butt;stroke-linejoin:miter;stroke-miterlimit:2.5;stroke-opacity:1;stroke-dasharray:none"
       id="path10104"
       inkscape:connector-curvature="0" /><path
       d="m 472.609,647.805 c 4.143,1.05 8.426,2.347 12.379,4.024 l 0,0.017 c 1.029,0.421 2.032,0.94 2.997,1.482 0.15,0.109 0.207,0.178 0.337,0.304 l 0.018,0.016 0.016,0.034 0.017,0.017 0.017,0.017 0.017,0.017 0.017,0.033 c 0.017,0.02 0.052,0.111 0.084,0.135 l 0,0.034 0.017,0.016 0.016,0.034 0.018,0.034 0,0.016 0.016,0.034 0.018,0.034 0,0.033 0.016,0.034 0.017,0.017 0,0.033 0.017,0.035 c 0.006,0.087 0.039,0.165 0.05,0.252 l 0,0.067 0.017,0.018 0,0.067 0.018,0 c 0.142,1.101 0.079,2.159 0.117,3.267 -0.005,0.184 -0.004,0.368 0.051,0.539 l 0,0.05 0.016,0.034 0,0.034 0.017,0.033 0,0.051 0.017,0.033 0,0.051 0.017,0.033 0,0.084 0.018,0.035 0,0.033 c -0.006,0.109 0.023,0.021 0.016,0.152 0,0.05 0,0.101 0,0.152 0,0.168 0,0.336 0,0.504 m -54.382,-55.187 c 0.752,9.266 -0.175,22.179 4.682,30.752 0.637,1.058 1.508,2.151 2.392,3.014 0.385,0.353 0.756,0.668 1.162,0.994 0.387,0.27 0.798,0.598 1.212,0.825 2.878,1.807 6.262,2.779 9.533,3.587 0.162,0.013 0.394,0.105 0.555,0.118 0.19,0.073 0.435,0.091 0.623,0.151 0.173,0.025 0.38,0.083 0.556,0.118 0.202,0.045 0.405,0.09 0.607,0.135 0.787,0.177 1.588,0.326 2.374,0.505 0.383,0.054 0.795,0.17 1.179,0.219 0.396,0.097 0.814,0.161 1.213,0.253 0.187,0.023 0.368,0.083 0.556,0.101 0.169,0.056 0.436,0.078 0.606,0.135 0.394,0.057 0.82,0.155 1.213,0.235 0.187,0.024 0.368,0.084 0.556,0.101 0.19,0.062 0.411,0.083 0.606,0.135 0.398,0.067 0.836,0.158 1.23,0.252 0.38,0.064 0.78,0.159 1.161,0.236 0.4,0.077 0.817,0.19 1.213,0.253 1.594,0.363 3.18,0.715 4.766,1.128"
       style="fill:none;stroke:#127bca;stroke-width:0.75;stroke-linecap:butt;stroke-linejoin:miter;stroke-miterlimit:2.5;stroke-opacity:1;stroke-dasharray:none"
       id="path10106"
       inkscape:connector-curvature="0" /><path
       d="m 475.001,641.237 c 1.67,1.05 3.331,2.14 4.968,3.25 0.831,0.572 1.658,1.145 2.476,1.734 0.421,0.299 0.853,0.646 1.28,0.927 0.18,0.157 0.428,0.309 0.606,0.471 0.082,0.054 0.232,0.17 0.304,0.236 0.082,0.04 0.279,0.237 0.353,0.253 l 0,0.033 c 1.002,0.798 2.231,1.808 3.099,2.728 0.268,0.378 0.331,0.552 0.472,0.977 -0.003,0.039 0.049,0.264 0.067,0.303 0.008,0.074 0.032,0.254 0.05,0.32 0.004,0.113 0.021,0.226 0.034,0.337 l 0,0.05 0.018,0.017 0,0.169 0.016,0.117 c 0.126,1.468 0.063,2.953 0.101,4.43 -0.019,0.404 0.112,0.782 0.135,1.179 0.013,0.092 0.021,0.078 0.016,0.201 0,0.051 0,0.102 0,0.152 0,0.208 0,0.416 0,0.623 M 436.99,604.557 c 4.52,24.798 20.537,25.142 38.012,36.681"
       style="fill:none;stroke:#ed1f24;stroke-width:0.75;stroke-linecap:butt;stroke-linejoin:miter;stroke-miterlimit:2.5;stroke-opacity:1;stroke-dasharray:none"
       id="path10108"
       inkscape:connector-curvature="0" /><path
       d="m 482.04,642.719 c 0.489,0.488 0.977,0.977 1.466,1.465 0.222,0.245 0.505,0.479 0.724,0.741 0.256,0.242 0.501,0.543 0.757,0.774 l 0,0.034 0.068,0.084 0.084,0.068 0.067,0.084 0.067,0.067 0.068,0.084 c 0.143,0.146 0.281,0.291 0.421,0.438 0.286,0.335 0.59,0.66 0.876,0.994 0.426,0.573 1.034,1.152 1.415,1.734 0.241,0.417 0.389,0.796 0.488,1.264 0.064,0.277 0.096,0.543 0.135,0.825 0.006,0.135 0.015,0.272 0.033,0.404 l 0,0.067 0.017,0.017 0,0.219 c 0.151,1.744 0.076,3.532 0.119,5.288 -0.014,0.237 0.026,0.446 0.05,0.674 l 0.016,0.05 0,0.067 0.018,0.035 0,0.067 0.016,0.05 c 0.008,0.113 0.024,0.225 0.034,0.337 0.036,0.344 0.006,0.746 0.017,1.095 m -44.967,-55.188 0.035,0.034 0.05,0.101 0.051,0.084 0.051,0.102 0.05,0.083 c 0.101,0.182 0.202,0.357 0.302,0.54 0.201,0.375 0.415,0.664 0.623,1.027 0.372,0.611 0.76,1.228 1.163,1.818 0.739,1.102 1.536,2.207 2.375,3.235 1.454,1.834 3.096,3.552 4.766,5.203 1.56,1.484 3.145,2.935 4.766,4.345 1.578,1.38 3.177,2.743 4.766,4.11 6.551,5.585 12.859,11.411 19.016,17.481"
       style="fill:none;stroke:#60c332;stroke-width:0.75;stroke-linecap:butt;stroke-linejoin:miter;stroke-miterlimit:2.5;stroke-opacity:1;stroke-dasharray:none"
       id="path10110"
       inkscape:connector-curvature="0" /><path
       d="m 491.082,604.803 -61.024,0 0,54.922 61.024,0 0,-54.922 z m -372.24,64.25 0,-3.599 m 22.584,3.599 0,-3.599 m 22.6,3.599 0,-3.599 m 22.584,3.599 0,-3.599 m -84.71,3.599 0,-1.799 m 5.659,1.799 0,-1.799 m 5.642,1.799 0,-1.799 m 11.3,1.799 0,-1.799 m 5.642,1.799 0,-1.799 m 5.641,1.799 0,-1.799 m 11.3,1.799 0,-1.799 m 5.642,1.799 0,-1.799 m 5.642,1.799 0,-1.799 m 11.301,1.799 0,-1.799 m 5.641,1.799 0,-1.799 m 5.642,1.799 0,-1.799 m 11.3,1.799 0,-1.799 m 5.642,1.799 0,-1.799 m 5.658,1.799 0,-1.799 m -84.71,-97.351 0,-3.6 m 22.584,3.6 0,-3.6 m 22.6,3.6 0,-3.6 m 22.584,3.6 0,-3.6 m -84.71,1.8 0,-1.8 m 5.659,1.8 0,-1.8 m 5.642,1.8 0,-1.8 m 11.3,1.8 0,-1.8 m 5.642,1.8 0,-1.8 m 5.641,1.8 0,-1.8 m 11.3,1.8 0,-1.8 m 5.642,1.8 0,-1.8 m 5.642,1.8 0,-1.8 m 11.301,1.8 0,-1.8 m 5.641,1.8 0,-1.8 m 5.642,1.8 0,-1.8 m 11.3,1.8 0,-1.8 m 5.642,1.8 0,-1.8 m 5.658,1.8 0,-1.8 m -107.47,20.445 3.6,0 m -3.6,20.529 3.6,0 m -3.6,20.546 3.6,0 m -3.6,20.529 3.6,0 m -3.6,15.393 1.8,0 m -1.8,-5.136 1.8,0 m -1.8,-5.12 1.8,0 m -1.8,-10.273 1.8,0 m -1.8,-5.136 1.8,0 m -1.8,-5.137 1.8,0 m -1.8,-10.256 1.8,0 m -1.8,-5.136 1.8,0 m -1.8,-5.137 1.8,0 m -1.8,-10.256 1.8,0 m -1.8,-5.137 1.8,0 m -1.8,-5.136 1.8,0 m -1.8,-10.273 1.8,0 m -1.8,-5.119 1.8,0 m -1.8,-5.137 1.8,0 m 111.2,15.392 -3.6,0 m 3.6,20.529 -3.6,0 m 3.6,20.546 -3.6,0 m 3.6,20.529 -3.6,0 m 1.8,15.393 1.8,0 m -1.8,-5.136 1.8,0 m -1.8,-5.12 1.8,0 m -1.8,-10.273 1.8,0 m -1.8,-5.136 1.8,0 m -1.8,-5.137 1.8,0 m -1.8,-10.256 1.8,0 m -1.8,-5.136 1.8,0 m -1.8,-5.137 1.8,0 m -1.8,-10.256 1.8,0 m -1.8,-5.137 1.8,0 m -1.8,-5.136 1.8,0 m -1.8,-10.273 1.8,0 m -1.8,-5.119 1.8,0 m -1.8,-5.137 1.8,0 m 0,-5.053 -113,0 0,102.75 113,0 0,-102.75 z m 68.107,102.75 0,-3.599 m 21.641,3.599 0,-3.599 m 21.641,3.599 0,-3.599 m 21.639,3.599 0,-3.599 m -81.155,3.599 0,-1.799 m 5.405,1.799 0,-1.799 m 5.406,1.799 0,-1.799 m 10.829,1.799 0,-1.799 m 5.406,1.799 0,-1.799 m 5.423,1.799 0,-1.799 m 10.811,1.799 0,-1.799 m 5.407,1.799 0,-1.799 m 5.422,1.799 0,-1.799 m 10.812,1.799 0,-1.799 m 5.423,1.799 0,-1.799 m 5.405,1.799 0,-1.799 m 10.829,1.799 0,-1.799 m 5.406,1.799 0,-1.799 m 5.407,1.799 0,-1.799 m -81.157,-97.351 0,-3.6 m 21.641,3.6 0,-3.6 m 21.641,3.6 0,-3.6 m 21.639,3.6 0,-3.6 m -81.155,1.8 0,-1.8 m 5.405,1.8 0,-1.8 m 5.406,1.8 0,-1.8 m 10.829,1.8 0,-1.8 m 5.406,1.8 0,-1.8 m 5.423,1.8 0,-1.8 m 10.811,1.8 0,-1.8 m 5.407,1.8 0,-1.8 m 5.422,1.8 0,-1.8 m 10.812,1.8 0,-1.8 m 5.423,1.8 0,-1.8 m 5.405,1.8 0,-1.8 m 10.829,1.8 0,-1.8 m 5.406,1.8 0,-1.8 m 5.407,1.8 0,-1.8 m 5.236,0 -108.25,0 0,102.75 108.25,0 0,-102.75 z m 70.164,3.6 0,-3.6 m 21.658,3.6 0,-3.6 m 21.64,3.6 0,-3.6 m 21.642,3.6 0,-3.6 m -81.157,1.8 0,-1.8 m 5.406,1.8 0,-1.8 m 5.406,1.8 0,-1.8 m 10.828,1.8 0,-1.8 m 5.406,1.8 0,-1.8 m 5.406,1.8 0,-1.8 m 10.829,1.8 0,-1.8 m 5.406,1.8 0,-1.8 m 5.423,1.8 0,-1.8 m 10.811,1.8 0,-1.8 m 5.423,1.8 0,-1.8 m 5.406,1.8 0,-1.8 m 10.812,1.8 0,-1.8 m 5.423,1.8 0,-1.8 m 5.406,1.8 0,-1.8 m 5.162,20.445 -3.6,0 m 3.6,20.529 -3.6,0 m 3.6,20.546 -3.6,0 m 3.6,20.529 -3.6,0 m 1.815,15.393 1.785,0 m -1.785,-5.136 1.785,0 m -1.785,-5.12 1.785,0 m -1.785,-10.273 1.785,0 m -1.785,-5.136 1.785,0 m -1.785,-5.137 1.785,0 m -1.785,-10.256 1.785,0 m -1.785,-5.136 1.785,0 m -1.785,-5.137 1.785,0 m -1.785,-10.256 1.785,0 m -1.785,-5.137 1.785,0 m -1.785,-5.136 1.785,0 m -1.785,-10.273 1.785,0 m -1.785,-5.119 1.785,0 m -1.785,-5.137 1.785,0 m 0,-5.053 -107.774,0 0,102.75 107.774,0 0,-102.75 z"
       style="fill:none;stroke:#231f20;stroke-width:0.5;stroke-linecap:butt;stroke-linejoin:miter;stroke-miterlimit:2.5;stroke-opacity:1;stroke-dasharray:none"
       id="path10116"
       inkscape:connector-curvature="0" /><text
       transform="scale(1,-1)"
       id="text10126"
       x="297.37381"
       y="-546.87207"><tspan
         style="font-size:8px;font-variant:normal;font-weight:bold;writing-mode:lr-tb;fill:#231f20;fill-opacity:1;fill-rule:nonzero;stroke:none;font-family:MyriadPro;-inkscape-font-specification:MyriadPro-BoldIt"
         x="297.37381"
         y="-546.87207"
         id="tspan10128">M</tspan></text>
<text
       transform="scale(1,-1)"
       id="text10130"
       x="304.90179"
       y="-546.87207"><tspan
         style="font-size:8px;font-variant:normal;font-weight:bold;writing-mode:lr-tb;fill:#231f20;fill-opacity:1;fill-rule:nonzero;stroke:none;font-family:MyriadPro;-inkscape-font-specification:MyriadPro-Bold"
         x="304.90179 307.41379 314.18179 319.02979"
         y="-546.87207"
         sodipodi:role="line"
         id="tspan10132">(M )</tspan></text>
<text
       transform="scale(1,-1)"
       id="text10134"
       x="454.1106"
       y="-546.87207"><tspan
         style="font-size:8px;font-variant:normal;font-weight:bold;writing-mode:lr-tb;fill:#231f20;fill-opacity:1;fill-rule:nonzero;stroke:none;font-family:MyriadPro;-inkscape-font-specification:MyriadPro-BoldIt"
         x="454.1106"
         y="-546.87207"
         id="tspan10136">M</tspan></text>
<text
       transform="scale(1,-1)"
       id="text10138"
       x="461.6394"
       y="-546.87207"><tspan
         style="font-size:8px;font-variant:normal;font-weight:bold;writing-mode:lr-tb;fill:#231f20;fill-opacity:1;fill-rule:nonzero;stroke:none;font-family:MyriadPro;-inkscape-font-specification:MyriadPro-Bold"
         x="461.6394 464.1514 470.9194 475.7674"
         y="-546.87207"
         sodipodi:role="line"
         id="tspan10140">(M )</tspan></text>
<path
       d="m 316.371,547.445 c 0.079,0 0.146,-0.026 0.2,-0.08 0.055,-0.054 0.082,-0.12 0.082,-0.198 0,-0.078 -0.027,-0.146 -0.082,-0.201 -0.054,-0.054 -0.121,-0.082 -0.2,-0.082 -0.078,0 -0.144,0.028 -0.198,0.082 -0.054,0.055 -0.08,0.123 -0.08,0.201 0,0.078 0.026,0.144 0.08,0.198 0.054,0.054 0.12,0.08 0.198,0.08 z m 0,-1.96 c 0.46,0 0.855,0.165 1.186,0.496 0.331,0.331 0.496,0.726 0.496,1.186 0,0.461 -0.165,0.856 -0.493,1.185 -0.329,0.329 -0.725,0.493 -1.189,0.493 -0.459,0 -0.854,-0.165 -1.183,-0.495 -0.331,-0.33 -0.496,-0.724 -0.496,-1.183 0,-0.463 0.164,-0.86 0.495,-1.189 0.328,-0.329 0.723,-0.493 1.184,-0.493 z m 0,3.53 c 0.507,0 0.943,-0.181 1.305,-0.545 0.362,-0.362 0.544,-0.797 0.544,-1.303 0,-0.507 -0.182,-0.942 -0.544,-1.305 -0.362,-0.362 -0.798,-0.544 -1.305,-0.544 -0.507,0 -0.941,0.182 -1.304,0.544 -0.363,0.363 -0.544,0.798 -0.544,1.305 0,0.506 0.181,0.941 0.544,1.303 0.363,0.364 0.797,0.545 1.304,0.545"
       style="fill:#231f20;fill-opacity:1;fill-rule:nonzero;stroke:none"
       id="path10146"
       inkscape:connector-curvature="0" /><path
       d="m 473.081,547.476 c 0.079,0 0.146,-0.026 0.2,-0.08 0.055,-0.054 0.082,-0.12 0.082,-0.198 0,-0.078 -0.027,-0.146 -0.082,-0.2 -0.054,-0.055 -0.121,-0.082 -0.2,-0.082 -0.078,0 -0.144,0.027 -0.198,0.082 -0.054,0.054 -0.08,0.122 -0.08,0.2 0,0.078 0.026,0.144 0.08,0.198 0.054,0.054 0.12,0.08 0.198,0.08 z m 0,-1.96 c 0.46,0 0.855,0.165 1.186,0.496 0.331,0.331 0.496,0.726 0.496,1.186 0,0.461 -0.165,0.856 -0.493,1.185 -0.33,0.33 -0.725,0.494 -1.189,0.494 -0.459,0 -0.854,-0.165 -1.183,-0.495 -0.331,-0.331 -0.496,-0.725 -0.496,-1.184 0,-0.463 0.164,-0.859 0.495,-1.189 0.328,-0.329 0.723,-0.493 1.184,-0.493 z m 0,3.531 c 0.507,0 0.942,-0.182 1.305,-0.545 0.362,-0.363 0.544,-0.797 0.544,-1.304 0,-0.507 -0.182,-0.941 -0.544,-1.305 -0.363,-0.362 -0.798,-0.544 -1.305,-0.544 -0.507,0 -0.941,0.182 -1.304,0.544 -0.363,0.364 -0.545,0.798 -0.545,1.305 0,0.507 0.182,0.941 0.545,1.304 0.363,0.363 0.797,0.545 1.304,0.545"
       style="fill:#231f20;fill-opacity:1;fill-rule:nonzero;stroke:none"
       id="path10148"
       inkscape:connector-curvature="0" /></g></svg>