<?xml version="1.0" encoding="UTF-8" standalone="no"?>
<!-- Created with Inkscape (http://www.inkscape.org/) -->

<svg
   xmlns:dc="http://purl.org/dc/elements/1.1/"
   xmlns:cc="http://creativecommons.org/ns#"
   xmlns:rdf="http://www.w3.org/1999/02/22-rdf-syntax-ns#"
   xmlns:svg="http://www.w3.org/2000/svg"
   xmlns="http://www.w3.org/2000/svg"
   xmlns:xlink="http://www.w3.org/1999/xlink"
   xmlns:sodipodi="http://sodipodi.sourceforge.net/DTD/sodipodi-0.dtd"
   xmlns:inkscape="http://www.inkscape.org/namespaces/inkscape"
   id="svg22804"
   version="1.1"
   inkscape:version="0.48.5 r10040"
   width="1138.6656"
   height="803.08"
   xml:space="preserve"
   sodipodi:docname="core_background_column_cdf_nolabel.svg"><metadata
     id="metadata22810"><rdf:RDF><cc:Work
         rdf:about=""><dc:format>image/svg+xml</dc:format><dc:type
           rdf:resource="http://purl.org/dc/dcmitype/StillImage" /><dc:title></dc:title></cc:Work></rdf:RDF></metadata><defs
     id="defs22808"><pattern
       inkscape:collect="always"
       xlink:href="#pattern5340"
       id="pattern5402"
       patternTransform="translate(542.09988,338.3274)" /><pattern
       inkscape:collect="always"
       xlink:href="#pattern5335"
       id="pattern5400"
       patternTransform="translate(542.09988,344.37159)" /><pattern
       inkscape:collect="always"
       xlink:href="#pattern39836"
       id="pattern5340"
       patternTransform="translate(544.46103,336.20468)" /><pattern
       inkscape:collect="always"
       xlink:href="#pattern39834"
       id="pattern5335"
       patternTransform="translate(543.09988,344.37159)" /><pattern
       inkscape:collect="always"
       xlink:href="#pattern23166"
       id="pattern39836"
       patternTransform="translate(521.32144,315.78739)" /><pattern
       inkscape:collect="always"
       xlink:href="#pattern23176"
       id="pattern39834"
       patternTransform="translate(521.32144,315.78739)" /><clipPath
       clipPathUnits="userSpaceOnUse"
       id="clipPath22822"><path
         d="m 100.1125,65.2 800.12,0 0,517.064 -800.12,0 0,-517.064 z"
         id="path22824" /></clipPath><pattern
       patternTransform="translate(0,642.464)"
       patternUnits="userSpaceOnUse"
       x="0"
       y="0"
       width="72"
       height="72"
       id="pattern22826"><path
         d="m -36,36 72,72 M -30,30 42,102 M -24,24 48,96 M -18,18 54,90 M -12,12 60,84 M -6,6 66,78 M 0,0 72,72 M 6,-6 78,66 M 12,-12 84,60 M 18,-18 90,54 M 24,-24 96,48 m -66,-78 72,72 m -66,-78 72,72"
         style="fill:#000000;fill-opacity:1;fill-rule:nonzero;stroke:#0000ff;stroke-opacity:1;stroke-width:1;stroke-linecap:butt;stroke-linejoin:miter;stroke-miterlimit:10;stroke-dasharray:none"
         id="path22828" /></pattern><clipPath
       clipPathUnits="userSpaceOnUse"
       id="clipPath22836"><path
         d="m 100.1125,65.2 800.12,0 0,517.064 -800.12,0 0,-517.064 z"
         id="path22838" /></clipPath><pattern
       patternTransform="translate(0,642.464)"
       patternUnits="userSpaceOnUse"
       x="0"
       y="0"
       width="72"
       height="72"
       id="pattern22840"><path
         d="M -36,36 36,-36 M -30,42 42,-30 M -24,48 48,-24 M -18,54 54,-18 M -12,60 60,-12 M -6,66 66,-6 M 0,72 72,0 M 6,78 78,6 M 12,84 84,12 M 18,90 90,18 M 24,96 96,24 m -66,78 72,-72 m -66,78 72,-72"
         style="fill:#000000;fill-opacity:1;fill-rule:nonzero;stroke:#ff0000;stroke-opacity:1;stroke-width:1;stroke-linecap:butt;stroke-linejoin:miter;stroke-miterlimit:10;stroke-dasharray:none"
         id="path22842" /></pattern><clipPath
       clipPathUnits="userSpaceOnUse"
       id="clipPath23010"><path
         d="m -1021,-463 2815,0 0,1696 -2815,0 0,-1696 z"
         id="path23012" /></clipPath><clipPath
       clipPathUnits="userSpaceOnUse"
       id="clipPath23070"><path
         d="m 100.1125,65.2 800.12,0 0,517.064 -800.12,0 0,-517.064 z"
         id="path23072" /></clipPath><clipPath
       clipPathUnits="userSpaceOnUse"
       id="clipPath23080"><path
         d="m 100.1125,65.2 800.12,0 0,517.064 -800.12,0 0,-517.064 z"
         id="path23082" /></clipPath><pattern
       patternTransform="translate(0,642.464)"
       patternUnits="userSpaceOnUse"
       x="0"
       y="0"
       width="72"
       height="72"
       id="pattern23166"><path
         d="m -36,36 72,72 M -30,30 42,102 M -24,24 48,96 M -18,18 54,90 M -12,12 60,84 M -6,6 66,78 M 0,0 72,72 M 6,-6 78,66 M 12,-12 84,60 M 18,-18 90,54 M 24,-24 96,48 m -66,-78 72,72 m -66,-78 72,72"
         style="fill:#000000;fill-opacity:1;fill-rule:nonzero;stroke:#0000ff;stroke-opacity:1;stroke-width:1;stroke-linecap:butt;stroke-linejoin:miter;stroke-miterlimit:10;stroke-dasharray:none"
         id="path23168" /></pattern><pattern
       patternTransform="translate(0,642.464)"
       patternUnits="userSpaceOnUse"
       x="0"
       y="0"
       width="72"
       height="72"
       id="pattern23176"><path
         d="M -36,36 36,-36 M -30,42 42,-30 M -24,48 48,-24 M -18,54 54,-18 M -12,60 60,-12 M -6,66 66,-6 M 0,72 72,0 M 6,78 78,6 M 12,84 84,12 M 18,90 90,18 M 24,96 96,24 m -66,78 72,-72 m -66,78 72,-72"
         style="fill:#000000;fill-opacity:1;fill-rule:nonzero;stroke:#ff0000;stroke-opacity:1;stroke-width:1;stroke-linecap:butt;stroke-linejoin:miter;stroke-miterlimit:10;stroke-dasharray:none"
         id="path23178" /></pattern><clipPath
       clipPathUnits="userSpaceOnUse"
       id="clipPath23202"><path
         d="m 100.1125,65.2 800.12,0 0,517.064 -800.12,0 0,-517.064 z"
         id="path23204" /></clipPath><clipPath
       clipPathUnits="userSpaceOnUse"
       id="clipPath23212"><path
         d="m 100.1125,65.2 800.12,0 0,517.064 -800.12,0 0,-517.064 z"
         id="path23214" /></clipPath><clipPath
       clipPathUnits="userSpaceOnUse"
       id="clipPath23222"><path
         d="m 100.1125,65.2 800.12,0 0,517.064 -800.12,0 0,-517.064 z"
         id="path23224" /></clipPath><clipPath
       clipPathUnits="userSpaceOnUse"
       id="clipPath23232"><path
         d="m 100.1125,65.2 800.12,0 0,517.064 -800.12,0 0,-517.064 z"
         id="path23234" /></clipPath><clipPath
       clipPathUnits="userSpaceOnUse"
       id="clipPath23258"><path
         d="m -1021,-463 2815,0 0,1696 -2815,0 0,-1696 z"
         id="path23260" /></clipPath><clipPath
       clipPathUnits="userSpaceOnUse"
       id="clipPath23282"><path
         d="m -1021,-463 2815,0 0,1696 -2815,0 0,-1696 z"
         id="path23284" /></clipPath><clipPath
       clipPathUnits="userSpaceOnUse"
       id="clipPath23406"><path
         d="m -1021,-463 2815,0 0,1696 -2815,0 0,-1696 z"
         id="path23408" /></clipPath></defs><sodipodi:namedview
     pagecolor="#ffffff"
     bordercolor="#666666"
     borderopacity="1"
     objecttolerance="10"
     gridtolerance="10"
     guidetolerance="10"
     inkscape:pageopacity="0"
     inkscape:pageshadow="2"
     inkscape:window-width="1598"
     inkscape:window-height="1158"
     id="namedview22806"
     showgrid="false"
     inkscape:zoom="0.5877372"
     inkscape:cx="477.44785"
     inkscape:cy="391.05516"
     inkscape:window-x="0"
     inkscape:window-y="22"
     inkscape:window-maximized="0"
     inkscape:current-layer="g5412" /><g
     id="g22812"
     inkscape:groupmode="layer"
     inkscape:label="core_background_column_cdf"
     transform="matrix(1.25,0,0,-1.25,0,803.08)"><g
       id="g22818"><g
         id="g22820"
         clip-path="url(#clipPath22822)"><path
           d="m 361.44675,65.2 137.15626,0 40.24911,1.907985 11.36405,1.907985 14.49387,1.907986 5.21199,1.907985 8.51329,1.907985 2.25388,1.907985 1.03356,1.907986 0.2934,1.907985 1.06594,1.907985 0.35549,1.907985 1.18588,1.907986 0.20895,1.907985 2.31652,1.907985 0.0281,1.907985 1.19203,1.907986 8.02196,1.907985 0.46604,1.907985 0.69237,1.907985 0.13681,1.907986 0.002,1.90798 0.15755,1.90799 0,1.90798 0.43048,1.90799 0.36935,1.90799 0.86176,1.90798 1.07191,1.90799 0.93527,1.90798 2.48431,1.90799 0.19609,1.90798 0.82733,1.90799 0.26801,1.90798 0.9097,1.90799 0.23642,1.90798 0.49328,1.90799 1.08191,1.90798 0.34758,1.90799 0.44108,1.90798 0.88116,1.90799 0.41016,1.90798 0.47373,1.90799 0.27735,1.90799 0.17392,1.90798 0.46226,1.90798 4e-4,1.90799 0.55954,1.90799 0.15265,1.90798 0.75385,1.90799 0.0736,1.90798 0.37607,1.90799 0.29157,1.90798 0.73444,1.90799 0.97675,1.90798 0.26712,1.90799 0.46021,1.90798 0.61704,1.90799 0.0583,1.90798 0.40211,1.90799 1.94322,1.90798 0.68434,1.90799 0.0473,1.90798 0.0798,1.90799 0.0452,1.90798 0.0775,1.90799 0.0131,1.90798 0.0205,1.90799 0.0486,1.90799 0.78729,1.90798 0.0342,1.90799 0.10161,1.90798 2.77335,1.90799 1.89538,1.90798 0.2323,1.90799 0.51382,1.90798 0.34959,1.90799 1.21871,1.90798 1.4875,1.90799 0.94047,1.90798 1.31546,1.90799 0.73404,1.90798 0.91891,1.90799 2.0579,1.90798 2.07977,1.90799 0.2278,1.90798 1.80073,1.90799 1.79073,1.90798 0.29956,1.90799 0.75658,1.90799 1.35069,1.90798 6.0639,1.90799 2.94151,1.90798 0.44204,1.90799 0,1.90798 1.97012,1.90799 0.88571,1.90798 0.18198,1.90799 1.42588,1.90798 0.30355,1.90799 0.14552,1.90798 0.24381,1.90799 0.7913,1.90798 0.82415,1.90799 6.52832,1.90798 4.98673,1.90799 1.95195,1.90799 0.69803,1.90798 1.61193,1.90798 2.36116,1.90799 0.31229,1.90799 0.81806,1.90798 0.13559,1.90799 0.32662,1.90798 0.66352,1.90799 3.58835,1.90798 1.65951,1.90799 2.45568,1.90798 1.85147,1.90799 0.27374,1.90798 0.97593,1.90799 0.001,1.90798 1.01806,1.90799 0.37912,1.90798 0.0728,1.90799 0.77436,1.90798 6.39571,1.90799 0.55423,1.90798 0.0103,1.90799 0.0473,1.90798 0.1255,1.90799 3.73212,1.90799 0.97867,1.90798 0.36518,1.90799 0.45932,1.90798 1.40409,1.90799 0.49955,1.90798 1.89082,1.90799 0.33996,1.90798 0.32224,1.90799 0.24042,1.90798 0.92439,1.90799 1.40983,1.90798 0.34408,1.90799 0.17794,1.90798 0.60875,1.90799 0.47453,1.90799 0.008,1.90798 0.46858,1.90799 0.98158,1.90798 0.76132,1.90798 0.45141,1.90799 0.0228,1.90799 0.77045,1.90798 2.69918,1.90799 0.50131,1.90798 0.41829,1.90799 0.16364,1.90798 1.20608,1.90799 1.22601,1.90798 1.80462,1.90799 2.24294,1.90798 2.18451,1.90799 0.75317,1.90798 2.29985,1.90799 0.55795,1.90798 2.19253,1.90799 1.28373,1.90798 0.42472,1.90799 2.11847,1.90798 0.84106,1.90799 1.35369,1.90799 3.4352,1.90798 0.11762,1.90799 2.27895,1.90798 1.92308,1.90799 0.20043,1.90798 1.1866,1.90799 0.41022,1.90798 0.14919,1.90799 3.23664,1.90798 0.15263,1.90799 0.086,1.90798 0.30731,1.90799 3.7225,1.90798 2.26159,1.90799 2.96099,1.90798 0.10201,1.90799 2.27854,1.90798 4.64867,1.90799 1.15112,1.90798 0.73739,1.90799 0.61071,1.90799 3.46244,1.90798 1.54927,1.90799 0.0406,1.90798 0.27989,1.90799 0.25601,1.90798 1.41904,1.90799 2.18433,1.90798 2.62226,1.90799 0.28,1.90798 1.09646,1.90799 0.26708,1.90798 5.38331,1.90799 0.40449,1.90798 0.78803,1.90799 0.20871,1.90798 0.33485,1.90799 0.15032,1.90799 0.14967,1.90798 0.28679,1.90798 7.38168,1.90799 0.24503,1.90799 2.31062,1.90798 0.63074,1.90799 22.15612,1.90798 201.88336,1.90799 0,1.90798 0,1.90799 0,1.90798 0,1.90799 0,1.90798 0,1.90799 0,1.90798 0,1.90799 0,1.90798 0,1.90799 0,1.90798 0,1.90799 0,1.90798 0,1.90799 0,1.90798 0,1.90799 0,1.90799 0,1.90798 0,1.90799 0,1.90798 0,1.90799 0,1.90798 0,1.90799 0,1.90798 0,1.90799 0,1.90798 0,1.90799 0,1.90798 0,1.90799 0,1.90798 0,1.90799 0,1.90798 0,1.90799 0,1.90799 0,1.90798 0,1.90798 0,1.90799 0,1.90799 0,1.90798 0,1.90799 0,1.90798 0,1.90799 0,1.90798 0,1.90799 0,1.90798 0,1.90799 0,1.90798 0,1.90799 0,1.90798 0,1.90799 0,1.90798 0,1.90799 0,1.90798 0,1.90799 0,1.90798 -343.168,0 0,0 -5.64599,-1.90798 -0.48627,-1.90799 -5.13125,-1.90798 0,-1.90799 -1.90668,-1.90798 0,-1.90799 -2.24508,-1.90798 0,-1.90799 -2.72425,-1.90798 -0.37179,-1.90799 -0.5552,-1.90798 -0.85152,-1.90799 -1.96554,-1.90798 -0.70332,-1.90799 -0.73499,-1.90798 -3.59604,-1.90799 -1.8608,-1.90798 -0.71357,-1.90799 -2.75504,-1.90799 -2.83101,-1.90798 -1.31542,-1.90798 -6.74237,-1.90799 -0.22909,-1.90799 -0.90683,-1.90798 -3.17931,-1.90799 -7.89066,-1.90798 -0.51783,-1.90799 -0.37234,-1.90798 -0.28969,-1.90799 -4.22193,-1.90798 -2.95113,-1.90799 -0.0253,-1.90798 -0.91353,-1.90799 -0.0103,-1.90798 -2.5459,-1.90799 -0.46963,-1.90798 -0.46688,-1.90799 -0.46431,-1.90798 -0.13557,-1.90799 -2.58216,-1.90799 -0.062,-1.90798 -1.31492,-1.90799 -0.097,-1.90798 -0.0455,-1.90799 -0.36203,-1.90798 -1.39867,-1.90799 -0.53194,-1.90798 -2.53617,-1.90799 -1.04462,-1.90798 -0.49099,-1.90799 -3.47735,-1.90798 -0.67965,-1.90799 -2.49124,-1.90798 -0.27917,-1.90799 -0.16173,-1.90798 -0.60406,-1.90799 -3.31431,-1.90798 -0.23365,-1.90799 -0.10017,-1.90798 -2.20466,-1.90799 -0.0308,-1.90799 -0.0334,-1.90798 -0.038,-1.90798 -0.10179,-1.90799 -0.0933,-1.90799 -0.14235,-1.90798 -0.17612,-1.90799 -1.56148,-1.90798 -0.35729,-1.90799 -0.36381,-1.90798 -0.0611,-1.90799 -1.1e-4,-1.90798 -0.99244,-1.90799 -0.65839,-1.90798 -0.60237,-1.90799 -0.0555,-1.90798 -0.27186,-1.90799 -0.10507,-1.90798 -0.37669,-1.90799 -1.39896,-1.90798 -0.56526,-1.90799 -0.0526,-1.90799 -0.56519,-1.90798 -2.07578,-1.90799 -0.95345,-1.90798 -0.0293,-1.90799 -1.48928,-1.90798 -1.10886,-1.90799 -1.92138,-1.90798 -0.064,-1.90799 -0.11014,-1.90798 -0.30181,-1.90799 -1.35895,-1.90798 -0.12405,-1.90799 -0.13296,-1.90798 -0.7203,-1.90799 -0.0283,-1.90798 -1.17847,-1.90799 -1.12245,-1.90798 -0.0355,-1.90799 -1.95154,-1.90798 -0.7903,-1.90799 -0.55282,-1.90799 -1.43864,-1.90798 -6e-5,-1.90799 -0.8147,-1.90798 -1.29882,-1.90799 -0.32649,-1.90798 -1.70709,-1.90799 -0.17759,-1.90798 -1.41999,-1.90799 -1.51895,-1.90798 -1.28562,-1.90799 -0.58136,-1.90798 -0.78633,-1.90799 -0.0926,-1.90798 -0.27679,-1.90799 -0.34857,-1.90798 -1.80335,-1.90799 -0.5176,-1.90798 -0.0337,-1.90799 -0.49407,-1.90799 -0.32536,-1.90798 -0.72621,-1.90798 -0.30088,-1.90799 -0.13548,-1.90798 -0.14517,-1.90799 -0.49293,-1.90799 -0.0779,-1.90798 -0.26298,-1.90799 -0.949,-1.90798 -0.63036,-1.90799 -0.36755,-1.90798 -0.0534,-1.90799 -0.25235,-1.90798 -1.37187,-1.90799 -0.34394,-1.90798 -1.02364,-1.90799 -0.29662,-1.90798 -0.2927,-1.90799 -0.7996,-1.90798 -2.58725,-1.90799 -0.0966,-1.90799 -0.0196,-1.90798 -0.0175,-1.90799 -0.41708,-1.90798 -4.77559,-1.90799 -0.54909,-1.90798 -0.0529,-1.90799 -0.33986,-1.90798 -0.71306,-1.90799 -0.004,-1.90798 -0.76297,-1.90799 -0.21805,-1.90798 -1.41778,-1.90799 -1.93128,-1.90798 -1.25501,-1.90799 -2.81418,-1.90798 -0.51777,-1.90799 -0.30827,-1.90798 -0.0768,-1.90799 -0.67206,-1.90798 -0.2067,-1.90799 -1.8853,-1.90799 -1.30945,-1.90798 -0.5485,-1.90798 -1.58906,-1.90799 -4.10103,-1.90799 -5.45014,-1.90798 -0.62639,-1.90799 -0.66317,-1.90798 -0.20309,-1.90799 -0.12638,-1.90798 -0.25387,-1.90799 -1.20902,-1.90798 -0.14422,-1.90799 -0.78679,-1.90798 -1.63389,-1.90799 0,-1.90798 -0.38797,-1.90799 -2.67822,-1.90798 -5.03978,-1.90799 -1.1728,-1.90798 -0.64425,-1.90799 -0.34823,-1.90799 -1.47651,-1.90798 -1.56684,-1.90799 -0.22263,-1.90798 -1.80314,-1.90799 -1.81545,-1.90798 -0.81462,-1.90799 -0.64027,-1.90798 -1.16789,-1.90799 -0.82965,-1.90798 -1.32817,-1.90799 -1.08362,-1.90798 -0.30555,-1.90799 -0.45645,-1.90798 -0.20781,-1.90799 -1.69636,-1.90798 -2.48479,-1.90799 -0.0858,-1.90798 -0.0384,-1.90799 -0.69996,-1.90798 -0.0447,-1.90799 -0.0278,-1.90799 -0.002,-1.90798 -0.0694,-1.90799 -0.0409,-1.90798 -0.0731,-1.90799 -0.0409,-1.90798 -0.62894,-1.90799 -1.7451,-1.90798 -0.35749,-1.90799 -0.071,-1.90798 -0.53945,-1.90799 -0.4158,-1.90798 -0.24306,-1.90799 -0.8859,-1.90798 -0.66772,-1.90799 -0.26048,-1.90798 -0.34247,-1.90799 -0.0658,-1.90798 -0.68521,-1.90799 -0.14196,-1.90798 -0.50355,-1.90799 -5.2e-4,-1.90799 -0.42291,-1.90798 -0.15862,-1.90798 -0.2496,-1.90799 -0.43228,-1.90799 -0.37295,-1.90798 -0.80345,-1.90799 -0.40939,-1.90798 -0.31061,-1.90799 -1.00055,-1.90798 -0.43996,-1.90799 -0.22279,-1.90798 -0.83244,-1.90799 -0.24094,-1.90798 -0.75617,-1.90799 -0.18265,-1.90798 -2.27977,-1.90799 -0.86547,-1.90798 -0.98456,-1.90799 -0.80466,-1.90798 -0.33036,-1.90799 -0.40033,-1.90799 0,-1.90798 -0.1467,-1.90799 -3.4e-4,-1.90798 -0.13082,-1.907986 -0.63199,-1.907985 -0.43506,-1.907985 -7.44238,-1.907985 -1.1112,-1.907986 -0.0263,-1.907985 -2.16509,-1.907985 -0.19328,-1.907985 -1.10961,-1.907986 -0.33571,-1.907985 -0.99701,-1.907985 -0.27436,-1.907985 -0.97272,-1.907986 -2.11906,-1.907985 -8.021,-1.907985 -4.93447,-1.907985 L 411.43448,69.01597 400.51892,67.107985 361.44675,65.2 z"
           style="fill:url(#pattern22826);fill-opacity:1;fill-rule:nonzero;stroke:#0000ff;stroke-opacity:0.5;stroke-width:2;stroke-linecap:butt;stroke-linejoin:round;stroke-miterlimit:10;stroke-dasharray:none"
           id="path22830" /></g></g><g
       id="g22832"><g
         id="g22834"
         clip-path="url(#clipPath22836)"><path
           d="m 373.36971,65.2 115.44762,0 32.50182,1.907985 12.73639,1.907985 7.17771,1.907986 7.87138,1.907985 0.72304,1.907985 0.4613,1.907985 0.4423,1.907986 1.72626,1.907985 1.46037,1.907985 12.37615,1.907985 2.79469,1.907986 0.0609,1.907985 5e-4,1.907985 0.98522,1.907985 0.0835,1.907986 1.67983,1.907985 1.48277,1.907985 0.38602,1.907985 2.64704,1.907986 0.71896,1.90798 2.26571,1.90799 1.6596,1.90798 0.006,1.90799 0.42595,1.90799 1.19281,1.90798 1.4915,1.90799 0.95129,1.90798 0,1.90799 1.82291,1.90798 2.37584,1.90799 1.5513,1.90798 0.31843,1.90799 1.69011,1.90798 0.14345,1.90799 0.47451,1.90798 0.11097,1.90799 0.0177,1.90798 0.18763,1.90799 0.73962,1.90798 0.0811,1.90799 0.60819,1.90799 0.1173,1.90798 0.0131,1.90798 0.46666,1.90799 0.006,1.90799 0.10439,1.90798 0.24584,1.90799 0.72141,1.90798 0.10546,1.90799 0.38059,1.90798 0.81975,1.90799 0.0317,1.90798 0.45549,1.90799 0.43185,1.90798 0.17101,1.90799 0.31664,1.90798 0.0357,1.90799 0.08,1.90798 0.13952,1.90799 0.10018,1.90798 0.23459,1.90799 0.0824,1.90798 1.37555,1.90799 0.69407,1.90798 0.30517,1.90799 0.24287,1.90799 0.40679,1.90798 0.75275,1.90799 0.2381,1.90798 0.28517,1.90799 0.68703,1.90798 0.96648,1.90799 1.48951,1.90798 0.14538,1.90799 0.82022,1.90798 0.10683,1.90799 0.84384,1.90798 1.74949,1.90799 1.32925,1.90798 2.95987,1.90799 0.61143,1.90798 0.60012,1.90799 0.24654,1.90798 0.18983,1.90799 2.71456,1.90798 0.83664,1.90799 0.79087,1.90799 2.74203,1.90798 2.48354,1.90799 4.12884,1.90798 0.19843,1.90799 0.43163,1.90798 1.57998,1.90799 0.72822,1.90798 1.70739,1.90799 0,1.90798 0.85371,1.90799 1.57318,1.90798 3.42864,1.90799 0.11746,1.90798 1.08188,1.90799 1.63344,1.90798 2.65934,1.90799 0.74877,1.90799 1.54036,1.90798 1.92027,1.90798 2.30061,1.90799 2.04017,1.90799 1.35866,1.90798 0.84638,1.90799 1.75448,1.90798 0.21406,1.90799 0.71203,1.90798 0.11786,1.90799 0.63673,1.90798 0.62871,1.90799 0.44832,1.90798 1.45683,1.90799 0.20829,1.90798 0.0709,1.90799 0.81271,1.90798 1.24488,1.90799 0.0576,1.90798 0.22172,1.90799 1.39354,1.90798 0.38659,1.90799 0.97565,1.90798 0.28988,1.90799 0.72341,1.90799 0.79849,1.90798 0.37274,1.90799 1.61371,1.90798 0.70885,1.90799 1.36562,1.90798 4.45558,1.90799 0.0867,1.90798 1.11234,1.90799 1.02688,1.90798 0.6954,1.90799 0.10493,1.90798 0.55208,1.90799 0.0738,1.90798 0.0815,1.90799 0.1565,1.90799 0.36884,1.90798 0.069,1.90799 0.1827,1.90798 0.12173,1.90798 0.21215,1.90799 0.84064,1.90799 0.92814,1.90798 0.0237,1.90799 0.38223,1.90798 0.35024,1.90799 0.0957,1.90798 0.19748,1.90799 2.68891,1.90798 0.34903,1.90799 0.0613,1.90798 1.51402,1.90799 0.11245,1.90798 0.76361,1.90799 0.15552,1.90798 1.55039,1.90799 0.10338,1.90798 1.02112,1.90799 0.29696,1.90798 0.26078,1.90799 0.11127,1.90799 0.0791,1.90798 2.81374,1.90799 0.0308,1.90798 2.48598,1.90799 0.50073,1.90798 0.32633,1.90799 0.85183,1.90798 0.26654,1.90799 1.83475,1.90798 0.40469,1.90799 0.83311,1.90798 1.2656,1.90799 0.22199,1.90798 1.28595,1.90799 3.91556,1.90798 0.99764,1.90799 1.26088,1.90798 0.0874,1.90799 2.11919,1.90798 0.53746,1.90799 0.62396,1.90799 0.44097,1.90798 3.34151,1.90799 0.55134,1.90798 3.92825,1.90799 0.13899,1.90798 0.0579,1.90799 0.34744,1.90798 0.85827,1.90799 1.0004,1.90798 1.19059,1.90799 0.37455,1.90798 0.0135,1.90799 0.004,1.90798 0.72492,1.90799 0.73051,1.90798 4.0071,1.90799 0.33286,1.90799 0.84401,1.90798 1.44546,1.90798 1.9121,1.90799 0.66,1.90799 0.93502,1.90798 1.0781,1.90799 1.23414,1.90798 0.0346,1.90799 0.005,1.90798 0.31543,1.90799 0.52659,1.90798 1.10156,1.90799 1.87152,1.90798 1.08659,1.90799 0.89419,1.90798 1.02442,1.90799 2.49677,1.90798 3.10161,1.90799 0.34976,1.90798 0.65023,1.90799 0.47534,1.90798 0.0976,1.90799 3.84417,1.90798 0.3666,1.90799 0.25757,1.90799 1.2072,1.90798 0.16272,1.90799 1.00925,1.90798 0.24121,1.90799 1.26398,1.90798 1.07258,1.90799 0.42922,1.90798 0.53474,1.90799 0.97451,1.90798 0.74131,1.90799 2.67192,1.90798 3.09483,1.90799 0.50003,1.90798 2.18569,1.90799 0.64584,1.90798 2.68425,1.90799 3.37723,1.90799 0.15723,1.90798 2.95185,1.90798 3.8714,1.90799 0.0518,1.90799 3.30718,1.90798 0,1.90799 1.47141,1.90798 0,1.90799 0.0143,1.90798 1.92774,1.90799 0.3587,1.90798 4.37393,1.90799 1.106,1.90798 0,1.90799 0.43218,1.90798 0.0821,1.90799 6.46729,1.90798 2.50423,1.90799 0.16026,1.90798 1.87598,1.90799 7.06263,1.90798 -164.79206,0 0,0 -3.4344,-1.90798 -0.8868,-1.90799 -0.0203,-1.90798 -1.11308,-1.90799 -2.87369,-1.90798 -0.0435,-1.90799 -0.23074,-1.90798 0,-1.90799 -0.58874,-1.90798 -2.55116,-1.90799 -0.21835,-1.90798 -1.00195,-1.90799 -0.12147,-1.90798 0,-1.90799 -0.84657,-1.90798 0,-1.90799 -2.07699,-1.90798 -0.0669,-1.90799 -2.45052,-1.90799 -1.36918,-1.90798 -0.11672,-1.90798 -2.51575,-1.90799 -1.17698,-1.90799 -0.8517,-1.90798 -0.96543,-1.90799 -0.38485,-1.90798 -2.07388,-1.90799 -1.73555,-1.90798 -0.46114,-1.90799 -0.79468,-1.90798 -0.23554,-1.90799 -0.32749,-1.90798 -0.70721,-1.90799 -0.91813,-1.90798 -0.23198,-1.90799 -0.63485,-1.90798 -0.34499,-1.90799 -0.64223,-1.90798 -0.18739,-1.90799 -0.2313,-1.90799 -2.74181,-1.90798 -0.0835,-1.90799 -0.33155,-1.90798 -0.44521,-1.90799 -0.24097,-1.90798 -2.29049,-1.90799 -1.82313,-1.90798 -0.92677,-1.90799 -0.53228,-1.90798 -0.81882,-1.90799 -1.38695,-1.90798 -0.82966,-1.90799 -0.40102,-1.90798 -0.24597,-1.90799 -0.0251,-1.90798 -0.002,-1.90799 -0.97113,-1.90798 -0.8026,-1.90799 -0.73275,-1.90798 -0.55891,-1.90799 -1.44545,-1.90799 -1.11996,-1.90798 -0.65424,-1.90798 -0.26119,-1.90799 -3.17328,-1.90799 -0.61161,-1.90798 -0.55546,-1.90799 -0.003,-1.90798 -0.001,-1.90799 -0.30608,-1.90798 -0.96503,-1.90799 -0.79297,-1.90798 -0.70322,-1.90799 -0.27998,-1.90798 -0.0639,-1.90799 -0.10714,-1.90798 -3.17848,-1.90799 -0.46796,-1.90798 -2.75587,-1.90799 -0.36535,-1.90798 -0.49995,-1.90799 -0.44551,-1.90799 -1.75765,-1.90798 -0.0842,-1.90799 -1.06949,-1.90798 -0.81567,-1.90799 -3.32036,-1.90798 -1.07823,-1.90799 -0.21161,-1.90798 -1.05182,-1.90799 -0.70471,-1.90798 -0.34513,-1.90799 -1.57,-1.90798 -0.22545,-1.90799 -0.77355,-1.90798 -0.26869,-1.90799 -0.41202,-1.90798 -2.13293,-1.90799 -0.0355,-1.90798 -2.44154,-1.90799 -0.0654,-1.90798 -0.11245,-1.90799 -0.21719,-1.90799 -0.25471,-1.90798 -0.88174,-1.90799 -0.11288,-1.90798 -1.37216,-1.90799 -0.0997,-1.90798 -0.66939,-1.90799 -0.10706,-1.90798 -1.32464,-1.90799 -0.0456,-1.90798 -0.33077,-1.90799 -2.35015,-1.90798 -0.17355,-1.90799 -0.0985,-1.90798 -0.29769,-1.90799 -0.34021,-1.90798 -0.017,-1.90799 -0.85469,-1.90798 -0.71577,-1.90799 -0.1806,-1.90799 -0.12132,-1.90798 -0.15407,-1.90798 -0.0688,-1.90799 -0.316,-1.90798 -0.14141,-1.90799 -0.0683,-1.90799 -0.0657,-1.90798 -0.50657,-1.90799 -0.0783,-1.90798 -0.63947,-1.90799 -0.9042,-1.90798 -0.99238,-1.90799 -0.075,-1.90798 -3.99885,-1.90799 -1.2442,-1.90798 -0.62175,-1.90799 -1.47763,-1.90798 -0.31809,-1.90799 -0.72372,-1.90798 -0.6594,-1.90799 -0.25659,-1.90799 -0.87986,-1.90798 -0.35609,-1.90799 -1.26166,-1.90798 -0.22643,-1.90799 -0.0438,-1.90798 -1.11977,-1.90799 -0.76011,-1.90798 -0.0429,-1.90799 -0.19317,-1.90798 -1.33906,-1.90799 -0.42795,-1.90798 -0.5537,-1.90799 -0.5858,-1.90798 -0.0991,-1.90799 -0.6544,-1.90798 -0.19889,-1.90799 -1.61752,-1.90798 -0.7715,-1.90799 -1.24462,-1.90798 -1.88496,-1.90799 -2.12204,-1.90799 -1.77892,-1.90798 -1.42845,-1.90798 -0.69552,-1.90799 -2.4732,-1.90799 -1.52395,-1.90798 -1.01144,-1.90799 -0.11331,-1.90798 -3.19983,-1.90799 -1.47868,-1.90798 -0.79633,-1.90799 0,-1.90798 -1.60524,-1.90799 -0.68311,-1.90798 -1.49065,-1.90799 -0.41028,-1.90798 -0.1795,-1.90799 -3.89473,-1.90798 -2.34825,-1.90799 -2.59705,-1.90798 -0.75164,-1.90799 -0.79263,-1.90799 -2.57979,-1.90798 -0.18211,-1.90799 -0.23441,-1.90798 -0.56717,-1.90799 -0.58224,-1.90798 -2.82038,-1.90799 -1.26744,-1.90798 -1.6885,-1.90799 -0.78746,-1.90798 -0.11753,-1.90799 -0.77085,-1.90798 -0.13711,-1.90799 -1.42493,-1.90798 -0.92537,-1.90799 -0.65886,-1.90798 -0.27312,-1.90799 -0.22842,-1.90798 -0.72077,-1.90799 -0.39175,-1.90798 -0.2335,-1.90799 -0.29046,-1.90799 -0.668,-1.90798 -1.33086,-1.90799 -0.0664,-1.90798 -0.22549,-1.90799 -0.0974,-1.90798 -0.13354,-1.90799 -0.0761,-1.90798 -0.0383,-1.90799 -0.3004,-1.90798 -0.16416,-1.90799 -0.41536,-1.90798 -0.43704,-1.90799 -0.0306,-1.90798 -0.7891,-1.90799 -0.36503,-1.90798 -0.10203,-1.90799 -0.69774,-1.90798 -0.23361,-1.90799 -0.0997,-1.90798 -0.01,-1.90799 -0.44544,-1.90799 -0.0121,-1.90798 -0.11358,-1.90798 -0.58571,-1.90799 -0.0769,-1.90799 -0.7129,-1.90798 -0.18035,-1.90799 -0.0165,-1.90798 -0.10691,-1.90799 -0.45789,-1.90798 -0.13806,-1.90799 -1.63013,-1.90798 -0.30687,-1.90799 -1.49735,-1.90798 -2.2958,-1.90799 -1.76223,-1.90798 0,-1.90799 -0.91935,-1.90798 -1.44282,-1.90799 -1.15411,-1.90798 -0.41324,-1.90799 -0.006,-1.90799 -1.60688,-1.90798 -2.19712,-1.90799 -0.69938,-1.90798 -2.56883,-1.907986 -0.3749,-1.907985 -1.44184,-1.907985 -1.63279,-1.907985 -0.0807,-1.907986 -0.95899,-1.907985 -2.7e-4,-1.907985 -0.0588,-1.907985 -2.72085,-1.907986 -12.07904,-1.907985 -1.42654,-1.907985 -1.68881,-1.907985 -0.43239,-1.907986 -0.45211,-1.907985 -0.70651,-1.907985 -7.71313,-1.907985 L 418.00246,69.01597 405.47168,67.107985 373.36971,65.2 z"
           style="fill:url(#pattern22840);fill-opacity:1;fill-rule:nonzero;stroke:#ff0000;stroke-opacity:0.5;stroke-width:2;stroke-linecap:butt;stroke-linejoin:round;stroke-miterlimit:10;stroke-dasharray:none"
           id="path22844" /></g></g><g
       id="g22846"><g
         id="g23056"
         transform="matrix(0,1,-1,0,52.315625,188.31546)"><text
           transform="matrix(1,0,0,-1,0,0.765625)"
           id="text23058"><tspan
             style="font-size:24px;font-variant:normal;font-weight:normal;writing-mode:lr-tb;fill:#000000;fill-opacity:1;fill-rule:nonzero;stroke:none;font-family:DejaVuSans;-inkscape-font-specification:DejaVuSans"
             x="0"
             y="0"
             sodipodi:role="line"
             id="tspan23060">of cores at column &lt; N</tspan></text>
</g><path
         d="m 100.1125,65.2 0,-3.5"
         style="fill:#000000;fill-opacity:1;fill-rule:nonzero;stroke:#000000;stroke-opacity:1;stroke-width:0.8;stroke-linecap:butt;stroke-linejoin:round;stroke-miterlimit:10;stroke-dasharray:none"
         id="path22848" /><g
         id="g22850"
         transform="translate(77.6125,42.35625)"><text
           transform="matrix(1,0,0,-1,0,0.953125)"
           id="text22852"><tspan
             style="fill:#000000;fill-opacity:1;fill-rule:nonzero;stroke:none;font-family:DejaVuSans;font-variant:normal;font-weight:normal;font-size:20;writing-mode:lr;-inkscape-font-specification:DejaVuSans"
             x="0 12.72460938"
             y="0"
             sodipodi:role="line"
             id="tspan22854">10</tspan></text>
<text
           transform="matrix(1,0,0,-1,25.640625,8.609375)"
           id="text22856"><tspan
             style="fill:#000000;fill-opacity:1;fill-rule:nonzero;stroke:none;font-family:DejaVuSans;font-variant:normal;font-weight:normal;font-size:14;writing-mode:lr;-inkscape-font-specification:DejaVuSans"
             x="0 8.90722656"
             y="0"
             sodipodi:role="line"
             id="tspan22858">21</tspan></text>
</g><path
         d="m 286.14236,65.2 0,-3.5"
         style="fill:#000000;fill-opacity:1;fill-rule:nonzero;stroke:#000000;stroke-opacity:1;stroke-width:0.8;stroke-linecap:butt;stroke-linejoin:round;stroke-miterlimit:10;stroke-dasharray:none"
         id="path22860" /><g
         id="g22862"
         transform="translate(263.64236,42.35625)"><text
           transform="matrix(1,0,0,-1,0,0.953125)"
           id="text22864"><tspan
             style="fill:#000000;fill-opacity:1;fill-rule:nonzero;stroke:none;font-family:DejaVuSans;font-variant:normal;font-weight:normal;font-size:20;writing-mode:lr;-inkscape-font-specification:DejaVuSans"
             x="0 12.72460938"
             y="0"
             sodipodi:role="line"
             id="tspan22866">10</tspan></text>
<text
           transform="matrix(1,0,0,-1,25.640625,8.609375)"
           id="text22868"><tspan
             style="fill:#000000;fill-opacity:1;fill-rule:nonzero;stroke:none;font-family:DejaVuSans;font-variant:normal;font-weight:normal;font-size:14;writing-mode:lr;-inkscape-font-specification:DejaVuSans"
             x="0 8.90722656"
             y="0"
             sodipodi:role="line"
             id="tspan22870">22</tspan></text>
</g><path
         d="m 472.17222,65.2 0,-3.5"
         style="fill:#000000;fill-opacity:1;fill-rule:nonzero;stroke:#000000;stroke-opacity:1;stroke-width:0.8;stroke-linecap:butt;stroke-linejoin:round;stroke-miterlimit:10;stroke-dasharray:none"
         id="path22872" /><g
         id="g22874"
         transform="translate(449.67222,42.35625)"><text
           transform="matrix(1,0,0,-1,0,0.953125)"
           id="text22876"><tspan
             style="fill:#000000;fill-opacity:1;fill-rule:nonzero;stroke:none;font-family:DejaVuSans;font-variant:normal;font-weight:normal;font-size:20;writing-mode:lr;-inkscape-font-specification:DejaVuSans"
             x="0 12.72460938"
             y="0"
             sodipodi:role="line"
             id="tspan22878">10</tspan></text>
<text
           transform="matrix(1,0,0,-1,25.640625,8.609375)"
           id="text22880"><tspan
             style="fill:#000000;fill-opacity:1;fill-rule:nonzero;stroke:none;font-family:DejaVuSans;font-variant:normal;font-weight:normal;font-size:14;writing-mode:lr;-inkscape-font-specification:DejaVuSans"
             x="0 8.90722656"
             y="0"
             sodipodi:role="line"
             id="tspan22882">23</tspan></text>
</g><path
         d="m 658.20207,65.2 0,-3.5"
         style="fill:#000000;fill-opacity:1;fill-rule:nonzero;stroke:#000000;stroke-opacity:1;stroke-width:0.8;stroke-linecap:butt;stroke-linejoin:round;stroke-miterlimit:10;stroke-dasharray:none"
         id="path22884" /><g
         id="g22886"
         transform="translate(635.70207,42.35625)"><text
           transform="matrix(1,0,0,-1,0,0.953125)"
           id="text22888"><tspan
             style="fill:#000000;fill-opacity:1;fill-rule:nonzero;stroke:none;font-family:DejaVuSans;font-variant:normal;font-weight:normal;font-size:20;writing-mode:lr;-inkscape-font-specification:DejaVuSans"
             x="0 12.72460938"
             y="0"
             sodipodi:role="line"
             id="tspan22890">10</tspan></text>
<text
           transform="matrix(1,0,0,-1,25.640625,8.609375)"
           id="text22892"><tspan
             style="fill:#000000;fill-opacity:1;fill-rule:nonzero;stroke:none;font-family:DejaVuSans;font-variant:normal;font-weight:normal;font-size:14;writing-mode:lr;-inkscape-font-specification:DejaVuSans"
             x="0 8.90722656"
             y="0"
             sodipodi:role="line"
             id="tspan22894">24</tspan></text>
</g><path
         d="m 844.23193,65.2 0,-3.5"
         style="fill:#000000;fill-opacity:1;fill-rule:nonzero;stroke:#000000;stroke-opacity:1;stroke-width:0.8;stroke-linecap:butt;stroke-linejoin:round;stroke-miterlimit:10;stroke-dasharray:none"
         id="path22896" /><g
         id="g22898"
         transform="translate(821.73193,42.35625)"><text
           transform="matrix(1,0,0,-1,0,0.953125)"
           id="text22900"><tspan
             style="fill:#000000;fill-opacity:1;fill-rule:nonzero;stroke:none;font-family:DejaVuSans;font-variant:normal;font-weight:normal;font-size:20;writing-mode:lr;-inkscape-font-specification:DejaVuSans"
             x="0 12.72460938"
             y="0"
             sodipodi:role="line"
             id="tspan22902">10</tspan></text>
<text
           transform="matrix(1,0,0,-1,25.640625,8.609375)"
           id="text22904"><tspan
             style="fill:#000000;fill-opacity:1;fill-rule:nonzero;stroke:none;font-family:DejaVuSans;font-variant:normal;font-weight:normal;font-size:14;writing-mode:lr;-inkscape-font-specification:DejaVuSans"
             x="0 8.90722656"
             y="0"
             sodipodi:role="line"
             id="tspan22906">25</tspan></text>
</g><path
         d="m 156.11307,65.2 0,-2"
         style="fill:#000000;fill-opacity:1;fill-rule:nonzero;stroke:#000000;stroke-opacity:1;stroke-width:0.6;stroke-linecap:butt;stroke-linejoin:round;stroke-miterlimit:10;stroke-dasharray:none"
         id="path22908" /><path
         d="m 188.8713,65.2 0,-2"
         style="fill:#000000;fill-opacity:1;fill-rule:nonzero;stroke:#000000;stroke-opacity:1;stroke-width:0.6;stroke-linecap:butt;stroke-linejoin:round;stroke-miterlimit:10;stroke-dasharray:none"
         id="path22910" /><path
         d="m 212.11363,65.2 0,-2"
         style="fill:#000000;fill-opacity:1;fill-rule:nonzero;stroke:#000000;stroke-opacity:1;stroke-width:0.6;stroke-linecap:butt;stroke-linejoin:round;stroke-miterlimit:10;stroke-dasharray:none"
         id="path22912" /><path
         d="m 230.14179,65.2 0,-2"
         style="fill:#000000;fill-opacity:1;fill-rule:nonzero;stroke:#000000;stroke-opacity:1;stroke-width:0.6;stroke-linecap:butt;stroke-linejoin:round;stroke-miterlimit:10;stroke-dasharray:none"
         id="path22914" /><path
         d="m 244.87187,65.2 0,-2"
         style="fill:#000000;fill-opacity:1;fill-rule:nonzero;stroke:#000000;stroke-opacity:1;stroke-width:0.6;stroke-linecap:butt;stroke-linejoin:round;stroke-miterlimit:10;stroke-dasharray:none"
         id="path22916" /><path
         d="m 257.32597,65.2 0,-2"
         style="fill:#000000;fill-opacity:1;fill-rule:nonzero;stroke:#000000;stroke-opacity:1;stroke-width:0.6;stroke-linecap:butt;stroke-linejoin:round;stroke-miterlimit:10;stroke-dasharray:none"
         id="path22918" /><path
         d="m 268.1142,65.2 0,-2"
         style="fill:#000000;fill-opacity:1;fill-rule:nonzero;stroke:#000000;stroke-opacity:1;stroke-width:0.6;stroke-linecap:butt;stroke-linejoin:round;stroke-miterlimit:10;stroke-dasharray:none"
         id="path22920" /><path
         d="m 277.6301,65.2 0,-2"
         style="fill:#000000;fill-opacity:1;fill-rule:nonzero;stroke:#000000;stroke-opacity:1;stroke-width:0.6;stroke-linecap:butt;stroke-linejoin:round;stroke-miterlimit:10;stroke-dasharray:none"
         id="path22922" /><path
         d="m 342.14293,65.2 0,-2"
         style="fill:#000000;fill-opacity:1;fill-rule:nonzero;stroke:#000000;stroke-opacity:1;stroke-width:0.6;stroke-linecap:butt;stroke-linejoin:round;stroke-miterlimit:10;stroke-dasharray:none"
         id="path22924" /><path
         d="m 374.90116,65.2 0,-2"
         style="fill:#000000;fill-opacity:1;fill-rule:nonzero;stroke:#000000;stroke-opacity:1;stroke-width:0.6;stroke-linecap:butt;stroke-linejoin:round;stroke-miterlimit:10;stroke-dasharray:none"
         id="path22926" /><path
         d="m 398.14349,65.2 0,-2"
         style="fill:#000000;fill-opacity:1;fill-rule:nonzero;stroke:#000000;stroke-opacity:1;stroke-width:0.6;stroke-linecap:butt;stroke-linejoin:round;stroke-miterlimit:10;stroke-dasharray:none"
         id="path22928" /><path
         d="m 416.17165,65.2 0,-2"
         style="fill:#000000;fill-opacity:1;fill-rule:nonzero;stroke:#000000;stroke-opacity:1;stroke-width:0.6;stroke-linecap:butt;stroke-linejoin:round;stroke-miterlimit:10;stroke-dasharray:none"
         id="path22930" /><path
         d="m 430.90172,65.2 0,-2"
         style="fill:#000000;fill-opacity:1;fill-rule:nonzero;stroke:#000000;stroke-opacity:1;stroke-width:0.6;stroke-linecap:butt;stroke-linejoin:round;stroke-miterlimit:10;stroke-dasharray:none"
         id="path22932" /><path
         d="m 443.35583,65.2 0,-2"
         style="fill:#000000;fill-opacity:1;fill-rule:nonzero;stroke:#000000;stroke-opacity:1;stroke-width:0.6;stroke-linecap:butt;stroke-linejoin:round;stroke-miterlimit:10;stroke-dasharray:none"
         id="path22934" /><path
         d="m 454.14406,65.2 0,-2"
         style="fill:#000000;fill-opacity:1;fill-rule:nonzero;stroke:#000000;stroke-opacity:1;stroke-width:0.6;stroke-linecap:butt;stroke-linejoin:round;stroke-miterlimit:10;stroke-dasharray:none"
         id="path22936" /><path
         d="m 463.65996,65.2 0,-2"
         style="fill:#000000;fill-opacity:1;fill-rule:nonzero;stroke:#000000;stroke-opacity:1;stroke-width:0.6;stroke-linecap:butt;stroke-linejoin:round;stroke-miterlimit:10;stroke-dasharray:none"
         id="path22938" /><path
         d="m 528.17278,65.2 0,-2"
         style="fill:#000000;fill-opacity:1;fill-rule:nonzero;stroke:#000000;stroke-opacity:1;stroke-width:0.6;stroke-linecap:butt;stroke-linejoin:round;stroke-miterlimit:10;stroke-dasharray:none"
         id="path22940" /><path
         d="m 560.93102,65.2 0,-2"
         style="fill:#000000;fill-opacity:1;fill-rule:nonzero;stroke:#000000;stroke-opacity:1;stroke-width:0.6;stroke-linecap:butt;stroke-linejoin:round;stroke-miterlimit:10;stroke-dasharray:none"
         id="path22942" /><path
         d="m 584.17335,65.2 0,-2"
         style="fill:#000000;fill-opacity:1;fill-rule:nonzero;stroke:#000000;stroke-opacity:1;stroke-width:0.6;stroke-linecap:butt;stroke-linejoin:round;stroke-miterlimit:10;stroke-dasharray:none"
         id="path22944" /><path
         d="m 602.20151,65.2 0,-2"
         style="fill:#000000;fill-opacity:1;fill-rule:nonzero;stroke:#000000;stroke-opacity:1;stroke-width:0.6;stroke-linecap:butt;stroke-linejoin:round;stroke-miterlimit:10;stroke-dasharray:none"
         id="path22946" /><path
         d="m 616.93158,65.2 0,-2"
         style="fill:#000000;fill-opacity:1;fill-rule:nonzero;stroke:#000000;stroke-opacity:1;stroke-width:0.6;stroke-linecap:butt;stroke-linejoin:round;stroke-miterlimit:10;stroke-dasharray:none"
         id="path22948" /><path
         d="m 629.38568,65.2 0,-2"
         style="fill:#000000;fill-opacity:1;fill-rule:nonzero;stroke:#000000;stroke-opacity:1;stroke-width:0.6;stroke-linecap:butt;stroke-linejoin:round;stroke-miterlimit:10;stroke-dasharray:none"
         id="path22950" /><path
         d="m 640.17392,65.2 0,-2"
         style="fill:#000000;fill-opacity:1;fill-rule:nonzero;stroke:#000000;stroke-opacity:1;stroke-width:0.6;stroke-linecap:butt;stroke-linejoin:round;stroke-miterlimit:10;stroke-dasharray:none"
         id="path22952" /><path
         d="m 649.68982,65.2 0,-2"
         style="fill:#000000;fill-opacity:1;fill-rule:nonzero;stroke:#000000;stroke-opacity:1;stroke-width:0.6;stroke-linecap:butt;stroke-linejoin:round;stroke-miterlimit:10;stroke-dasharray:none"
         id="path22954" /><path
         d="m 714.20264,65.2 0,-2"
         style="fill:#000000;fill-opacity:1;fill-rule:nonzero;stroke:#000000;stroke-opacity:1;stroke-width:0.6;stroke-linecap:butt;stroke-linejoin:round;stroke-miterlimit:10;stroke-dasharray:none"
         id="path22956" /><path
         d="m 746.96087,65.2 0,-2"
         style="fill:#000000;fill-opacity:1;fill-rule:nonzero;stroke:#000000;stroke-opacity:1;stroke-width:0.6;stroke-linecap:butt;stroke-linejoin:round;stroke-miterlimit:10;stroke-dasharray:none"
         id="path22958" /><path
         d="m 770.20321,65.2 0,-2"
         style="fill:#000000;fill-opacity:1;fill-rule:nonzero;stroke:#000000;stroke-opacity:1;stroke-width:0.6;stroke-linecap:butt;stroke-linejoin:round;stroke-miterlimit:10;stroke-dasharray:none"
         id="path22960" /><path
         d="m 788.23136,65.2 0,-2"
         style="fill:#000000;fill-opacity:1;fill-rule:nonzero;stroke:#000000;stroke-opacity:1;stroke-width:0.6;stroke-linecap:butt;stroke-linejoin:round;stroke-miterlimit:10;stroke-dasharray:none"
         id="path22962" /><path
         d="m 802.96144,65.2 0,-2"
         style="fill:#000000;fill-opacity:1;fill-rule:nonzero;stroke:#000000;stroke-opacity:1;stroke-width:0.6;stroke-linecap:butt;stroke-linejoin:round;stroke-miterlimit:10;stroke-dasharray:none"
         id="path22964" /><path
         d="m 815.41554,65.2 0,-2"
         style="fill:#000000;fill-opacity:1;fill-rule:nonzero;stroke:#000000;stroke-opacity:1;stroke-width:0.6;stroke-linecap:butt;stroke-linejoin:round;stroke-miterlimit:10;stroke-dasharray:none"
         id="path22966" /><path
         d="m 826.20378,65.2 0,-2"
         style="fill:#000000;fill-opacity:1;fill-rule:nonzero;stroke:#000000;stroke-opacity:1;stroke-width:0.6;stroke-linecap:butt;stroke-linejoin:round;stroke-miterlimit:10;stroke-dasharray:none"
         id="path22968" /><path
         d="m 835.71967,65.2 0,-2"
         style="fill:#000000;fill-opacity:1;fill-rule:nonzero;stroke:#000000;stroke-opacity:1;stroke-width:0.6;stroke-linecap:butt;stroke-linejoin:round;stroke-miterlimit:10;stroke-dasharray:none"
         id="path22970" /><path
         d="m 900.2325,65.2 0,-2"
         style="fill:#000000;fill-opacity:1;fill-rule:nonzero;stroke:#000000;stroke-opacity:1;stroke-width:0.6;stroke-linecap:butt;stroke-linejoin:round;stroke-miterlimit:10;stroke-dasharray:none"
         id="path22972" /><g
         id="g22974"
         transform="translate(323.1725,12.2)"><text
           transform="scale(1,-1)"
           id="text22976"
           x="6.8057675"
           y="-4.4272075"><tspan
             style="font-size:24px;font-variant:normal;font-weight:normal;writing-mode:lr-tb;fill:#000000;fill-opacity:1;fill-rule:nonzero;stroke:none;font-family:DejaVuSans;-inkscape-font-specification:DejaVuSans"
             x="6.8057675"
             y="-4.4272075"
             sodipodi:role="line"
             id="tspan22978">Column Density [N(H<tspan
   style="font-size:52.00042725%;baseline-shift:sub"
   id="tspan23457">2</tspan>) cm<tspan
   style="font-size:52.00042725%;baseline-shift:super"
   id="tspan23455">-2</tspan>] </tspan></text>
</g><path
         d="m 100.1125,65.2 -3.5,0"
         style="fill:#000000;fill-opacity:1;fill-rule:nonzero;stroke:#000000;stroke-opacity:1;stroke-width:0.8;stroke-linecap:butt;stroke-linejoin:round;stroke-miterlimit:10;stroke-dasharray:none"
         id="path23016" /><text
         transform="matrix(1,0,0,-1,61.315625,57.598438)"
         id="text23018"><tspan
           style="fill:#000000;fill-opacity:1;fill-rule:nonzero;stroke:none;font-family:DejaVuSans;font-variant:normal;font-weight:normal;font-size:20;writing-mode:lr;-inkscape-font-specification:DejaVuSans"
           x="0"
           y="0"
           sodipodi:role="line"
           id="tspan23020">0.0</tspan></text>
<path
         d="m 100.1125,168.6128 -3.5,0"
         style="fill:#000000;fill-opacity:1;fill-rule:nonzero;stroke:#000000;stroke-opacity:1;stroke-width:0.8;stroke-linecap:butt;stroke-linejoin:round;stroke-miterlimit:10;stroke-dasharray:none"
         id="path23022" /><text
         transform="matrix(1,0,0,-1,61.315625,161.01124)"
         id="text23024"><tspan
           style="fill:#000000;fill-opacity:1;fill-rule:nonzero;stroke:none;font-family:DejaVuSans;font-variant:normal;font-weight:normal;font-size:20;writing-mode:lr;-inkscape-font-specification:DejaVuSans"
           x="0"
           y="0"
           sodipodi:role="line"
           id="tspan23026">0.2</tspan></text>
<path
         d="m 100.1125,272.0256 -3.5,0"
         style="fill:#000000;fill-opacity:1;fill-rule:nonzero;stroke:#000000;stroke-opacity:1;stroke-width:0.8;stroke-linecap:butt;stroke-linejoin:round;stroke-miterlimit:10;stroke-dasharray:none"
         id="path23028" /><text
         transform="matrix(1,0,0,-1,61.315625,264.42404)"
         id="text23030"><tspan
           style="fill:#000000;fill-opacity:1;fill-rule:nonzero;stroke:none;font-family:DejaVuSans;font-variant:normal;font-weight:normal;font-size:20;writing-mode:lr;-inkscape-font-specification:DejaVuSans"
           x="0"
           y="0"
           sodipodi:role="line"
           id="tspan23032">0.4</tspan></text>
<path
         d="m 100.1125,375.4384 -3.5,0"
         style="fill:#000000;fill-opacity:1;fill-rule:nonzero;stroke:#000000;stroke-opacity:1;stroke-width:0.8;stroke-linecap:butt;stroke-linejoin:round;stroke-miterlimit:10;stroke-dasharray:none"
         id="path23034" /><text
         transform="matrix(1,0,0,-1,61.315625,367.83684)"
         id="text23036"><tspan
           style="fill:#000000;fill-opacity:1;fill-rule:nonzero;stroke:none;font-family:DejaVuSans;font-variant:normal;font-weight:normal;font-size:20;writing-mode:lr;-inkscape-font-specification:DejaVuSans"
           x="0"
           y="0"
           sodipodi:role="line"
           id="tspan23038">0.6</tspan></text>
<path
         d="m 100.1125,478.8512 -3.5,0"
         style="fill:#000000;fill-opacity:1;fill-rule:nonzero;stroke:#000000;stroke-opacity:1;stroke-width:0.8;stroke-linecap:butt;stroke-linejoin:round;stroke-miterlimit:10;stroke-dasharray:none"
         id="path23040" /><text
         transform="matrix(1,0,0,-1,61.315625,471.24964)"
         id="text23042"><tspan
           style="fill:#000000;fill-opacity:1;fill-rule:nonzero;stroke:none;font-family:DejaVuSans;font-variant:normal;font-weight:normal;font-size:20;writing-mode:lr;-inkscape-font-specification:DejaVuSans"
           x="0"
           y="0"
           sodipodi:role="line"
           id="tspan23044">0.8</tspan></text>
<path
         d="m 100.1125,582.264 -3.5,0"
         style="fill:#000000;fill-opacity:1;fill-rule:nonzero;stroke:#000000;stroke-opacity:1;stroke-width:0.8;stroke-linecap:butt;stroke-linejoin:round;stroke-miterlimit:10;stroke-dasharray:none"
         id="path23046" /><text
         transform="matrix(1,0,0,-1,61.315625,574.66244)"
         id="text23048"><tspan
           style="fill:#000000;fill-opacity:1;fill-rule:nonzero;stroke:none;font-family:DejaVuSans;font-variant:normal;font-weight:normal;font-size:20;writing-mode:lr;-inkscape-font-specification:DejaVuSans"
           x="0"
           y="0"
           sodipodi:role="line"
           id="tspan23050">1.0</tspan></text>
<text
         transform="matrix(0,1,1,0,25.434375,205.31012)"
         id="text23052"><tspan
           style="fill:#000000;fill-opacity:1;fill-rule:nonzero;stroke:none;font-family:DejaVuSans;font-variant:normal;font-weight:normal;font-size:24;writing-mode:lr;-inkscape-font-specification:DejaVuSans"
           x="0"
           y="0"
           sodipodi:role="line"
           id="tspan23054">Cumulative fraction</tspan></text>
</g><g
       id="g23066"><g
         id="g23068"
         clip-path="url(#clipPath23070)"><path
           d="m 230.14179,65.2 0,517.064"
           style="fill:none;stroke:#000000;stroke-opacity:1;stroke-width:1;stroke-linecap:butt;stroke-linejoin:round;stroke-miterlimit:10;stroke-dasharray:3.7,1.6;stroke-dashoffset:0"
           id="path23074" /></g></g><g
       id="g23076"><g
         id="g23078"
         clip-path="url(#clipPath23080)"><path
           d="m 528.17278,65.2 0,517.064"
           style="fill:none;stroke:#000000;stroke-opacity:1;stroke-width:1.5;stroke-linecap:butt;stroke-linejoin:round;stroke-miterlimit:10;stroke-dasharray:1.5,2.475;stroke-dashoffset:0"
           id="path23084" /></g></g><path
       inkscape:connector-curvature="0"
       id="path23088"
       style="fill:none;stroke:#000000;stroke-width:0.80000001;stroke-linecap:square;stroke-linejoin:miter;stroke-miterlimit:10;stroke-opacity:1;stroke-dasharray:none"
       d="m 100.1125,65.2 0,517.064" /><path
       inkscape:connector-curvature="0"
       id="path23090"
       style="fill:none;stroke:#000000;stroke-width:0.80000001;stroke-linecap:square;stroke-linejoin:miter;stroke-miterlimit:10;stroke-opacity:1;stroke-dasharray:none"
       d="m 900.2325,65.2 0,517.064" /><path
       inkscape:connector-curvature="0"
       id="path23092"
       style="fill:none;stroke:#000000;stroke-width:0.80000001;stroke-linecap:square;stroke-linejoin:miter;stroke-miterlimit:10;stroke-opacity:1;stroke-dasharray:none"
       d="m 100.1125,65.2 800.12,0" /><path
       inkscape:connector-curvature="0"
       id="path23094"
       style="fill:none;stroke:#000000;stroke-width:0.80000001;stroke-linecap:square;stroke-linejoin:miter;stroke-miterlimit:10;stroke-opacity:1;stroke-dasharray:none"
       d="m 100.1125,582.264 800.12,0" /><text
       y="220.50888"
       x="304.74915"
       id="text23188"
       transform="matrix(0,1,1,0,0,0)"><tspan
         id="tspan23190"
         sodipodi:role="line"
         y="220.50888"
         x="304.74915"
         style="font-size:20px;font-variant:normal;font-weight:normal;writing-mode:lr-tb;fill:#000000;fill-opacity:1;fill-rule:nonzero;stroke:none;font-family:DejaVuSans;-inkscape-font-specification:DejaVuSans">Lada+ 2010 Threshold</tspan></text>
<text
       y="494.04688"
       x="302.66647"
       id="text23194"
       transform="matrix(0,1,1,0,0,0)"><tspan
         id="tspan23196"
         sodipodi:role="line"
         y="494.04688"
         x="302.66647"
         style="font-size:20px;font-variant:normal;font-weight:normal;writing-mode:lr-tb;fill:#000000;fill-opacity:1;fill-rule:nonzero;stroke:none;font-family:DejaVuSans;-inkscape-font-specification:DejaVuSans">Krumholz+ 2008</tspan><tspan
         id="tspan39838"
         sodipodi:role="line"
         y="519.04688"
         x="302.66647"
         style="font-size:20px;font-variant:normal;font-weight:normal;writing-mode:lr-tb;fill:#000000;fill-opacity:1;fill-rule:nonzero;stroke:none;font-family:DejaVuSans;-inkscape-font-specification:DejaVuSans">High-Mass SF Threshold</tspan></text>
<g
       id="g23198"><g
         id="g23200"
         clip-path="url(#clipPath23202)"><path
           d="m 468.82654,65.2 53.35652,1.907985 14.81605,1.907985 9.15457,1.907986 4.5083,1.907985 0.84545,3.81597 0.89742,1.907986 1.48405,1.907985 0.95577,1.907985 5.69285,1.907985 1.17257,1.907986 1.4636,1.907985 0.26841,1.907985 0.45182,1.907985 0.23545,1.907986 3.34608,1.907985 0.0503,3.81597 1.19641,1.907986 1.40733,1.90798 0.97187,1.90799 0.57701,1.90798 4.33842,1.90799 2.12017,1.90799 1.62706,3.81597 1.94155,1.90798 0.23354,1.90799 0.86192,1.90798 0.29173,1.90799 4.94195,1.90798 0.18797,3.81597 4.54569,1.90799 3.74243,1.90798 0.15893,1.90799 0.4947,1.90798 1.05338,1.90799 0.38565,1.90798 3.15909,3.81598 0.17077,1.90798 1.58858,1.90798 0.73694,1.90799 0.0887,1.90799 0.54836,1.90798 0.0806,1.90799 1.71299,1.90798 0.21718,1.90799 0.90141,1.90798 1.48942,1.90799 0.12381,1.90798 0.82441,1.90799 0.37582,1.90798 0.0535,3.81597 0.96427,1.90799 0.41004,1.90798 0.10815,1.90799 0.27061,1.90798 0.15955,3.81597 0.002,1.90799 0.59241,3.81597 0.50842,3.81597 0.6337,1.90799 0.62651,3.81597 0.46,1.90798 0.0239,1.90799 1.8969,1.90798 0.32717,1.90799 1.11087,1.90798 0.26767,1.90799 0.004,1.90798 1.40409,3.81597 1.17138,1.90799 1.47229,3.81597 0.41118,1.90798 0.0992,1.90799 0.45445,1.90798 1.37922,1.90799 0.83535,1.90799 0.46503,1.90798 0.1053,3.81597 0.72751,1.90799 0.30564,1.90798 0.18272,1.90799 1.18414,1.90798 0.89451,1.90799 2.08488,1.90798 0.44977,1.90799 0.0229,3.81597 2.08625,1.90798 0.0856,1.90799 0.24733,1.90798 1.4739,1.90799 0.70279,1.90799 2.8282,1.90798 0.34567,1.90798 0,1.90799 2.0834,1.90799 0.26847,1.90798 1.57559,1.90799 0.45762,1.90798 1.0402,1.90799 1.96392,1.90798 1.51891,1.90799 0.0944,3.81597 1.66827,1.90798 2.1596,1.90799 0.29607,1.90798 0.0678,1.90799 0.27601,3.81597 0.67011,1.90798 3.02778,1.90799 0.76363,3.81597 1.33328,1.90798 0.36188,1.90799 0.82341,1.90799 0.49577,1.90798 0.8311,1.90799 0.28362,3.81597 1.15573,1.90798 0.18496,1.90799 0.0342,1.90798 0.37212,1.90799 1.02644,1.90798 0.0306,1.90799 0.29632,1.90798 1.25668,1.90799 0.19985,1.90798 0.004,1.90799 0.87316,1.90799 1.13511,1.90798 0.18406,3.81597 0.29542,1.90798 0.0345,1.90799 0.29173,1.90799 0.53706,11.44791 0.23784,1.90798 0.72125,1.90799 0.36754,5.72395 0.32165,3.81597 0.8841,1.90799 0.2471,3.81597 0.53403,1.90798 0.86458,1.90799 0.67569,1.90799 1.11299,1.90798 0.54242,1.90799 0.39615,1.90798 0.65359,1.90799 0.87353,1.90798 0.6795,3.81597 1.41649,3.81597 0.51524,1.90799 0.13866,3.81597 1.03834,1.90798 0.8068,3.81597 3.90894,1.90799 1.26573,1.90798 6.62731,1.90799 2.03595,1.90798 2.22181,1.90799 0.1572,1.90799 1.03275,1.90798 0.17471,1.90799 1.96077,1.90798 0.3211,3.81597 0.63315,1.90799 2.32711,1.90798 0.38369,1.90799 1.10928,1.90798 2.74641,1.90799 0.26825,1.90798 3.22489,1.90799 1.05217,1.90798 0.63714,1.90799 0.39602,1.90798 0.11062,3.81598 0.47746,1.90798 2.37875,1.90798 1.15163,1.90799 1.81464,1.90799 0.0829,1.90798 1.83667,1.90799 0.63689,1.90798 1.8286,7.63194 0.0776,1.90799 0.42299,1.90798 1.09304,1.90799 0.18034,1.90798 0.54864,3.81597 0.11763,1.90799 0.84454,1.90798 1.14746,1.90799 0.95748,1.90798 2.15402,1.90799 0.0403,1.90798 1.30074,1.90799 0.057,1.90799 2.33058,1.90798 0.0335,1.90799 0.32,1.90798 0.20658,1.90799 0.46834,1.90798 0.43924,3.81597 0.0382,1.90799 1.07668,1.90798 0.77519,1.90799 1.08084,1.90798 0.49838,3.81597 0.52482,1.90799 0.42456,7.63194 1.43543,1.90798 0.39812,1.90799 0.70168,1.90799 1.1705,1.90798 0.88564,1.90799 0.65939,1.90798 0.0901,1.90799 1.98717,1.90798 0.0799,1.90799 0.36784,1.90798 0.20484,1.90799 1.26383,1.90798 0.85765,3.81597 3.55814,1.90799 3.99717,3.81597 0.62604,1.90798 3.02979,1.90799 8.29317,1.90798 0,0"
           style="fill:none;stroke:#000000;stroke-opacity:1;stroke-width:4;stroke-linecap:square;stroke-linejoin:round;stroke-miterlimit:10;stroke-dasharray:none"
           id="path23206" /></g></g><g
       id="g23208"><g
         id="g23210"
         clip-path="url(#clipPath23212)"><path
           d="m 456.98588,65.2 53.06687,1.907985 6.45544,1.907985 11.85274,1.907986 10.16566,3.81597 3.31766,1.907985 4.24997,1.907986 5.339,1.907985 0.14371,1.907985 0.42935,1.907985 0.095,3.815971 2.73369,1.907985 0.52554,1.907985 0,1.907986 0.71682,1.907985 0.46919,1.907985 0.7335,1.907985 0.0358,1.907986 1.26197,5.72395 1.44103,1.90799 0.38804,3.81597 0.70937,1.90799 3.94459,1.90798 0.88915,1.90799 1.37727,1.90798 1.24001,1.90799 1.08416,1.90798 0.15371,1.90799 1.69128,1.90798 0.33928,1.90799 1.11142,1.90798 0.40258,1.90799 3.38303,1.90798 0.16062,1.90799 1.46243,1.90798 0.0923,1.90799 0.52448,1.90799 3.22258,1.90798 0.36313,1.90798 1.89095,1.90799 0.12239,1.90799 0.44028,1.90798 1.11882,1.90799 0.75076,1.90798 1.25121,1.90799 0.0831,1.90798 0.59457,1.90799 0.98313,1.90798 0.5496,1.90799 0.61854,5.72395 0.5889,1.90799 0.99692,1.90798 0.56161,3.81597 0.32963,1.90799 0.0336,3.81597 0.19044,1.90798 0.10698,5.72396 0.45895,3.81597 1.37203,1.90799 0.63019,1.90798 0.41045,1.90799 2.04461,1.90798 1.67839,1.90799 0.11541,1.90798 0.33378,1.90799 0.10773,1.90798 1.74706,1.90799 1.28017,1.90798 1.8354,1.90799 0.61567,3.81597 0.0287,1.90798 1.17998,1.90799 0.56419,1.90798 0.10368,1.90799 2.10698,1.90799 0,1.90798 1.59095,3.81597 0.0945,3.81597 1.31662,1.90799 1.82815,1.90798 2.94752,1.90799 0.62492,5.72395 0.91627,1.90799 1.41852,3.81597 0.0217,1.90798 3.80846,1.90799 1.88846,1.90799 4.57971,1.90798 0.25335,1.90798 1.13053,1.90799 0.0389,1.90799 3.01739,1.90798 0.0306,1.90799 0.72873,1.90798 1.02685,1.90799 0.65135,1.90798 1.05332,1.90799 0.1182,1.90798 0.86144,3.81597 0.72813,9.53993 1.39882,1.90798 0.67933,1.90799 0.80838,1.90798 0.11142,1.90799 0.79943,1.90798 0.33976,1.90799 0,1.90799 0.13685,1.90798 0.67614,1.90799 0.3492,1.90798 1.1979,1.90799 1.4613,1.90798 0.007,1.90799 0.20378,1.90798 0.39058,1.90799 0.26848,3.81597 0.3248,1.90798 0.61944,1.90799 0,1.90798 0.51965,1.90799 0.23393,3.81597 0.01,1.90799 0.75898,1.90798 0.32578,1.90798 0.5608,1.90799 0.0699,3.81597 0.46247,3.81597 0.0827,1.90799 0.54876,1.90798 0.30959,1.90799 0.11093,1.90798 0.7289,3.81597 0.0689,1.90799 0.3818,1.90798 1.23869,1.90799 0.57918,1.90798 0.71739,1.90799 0.0674,3.81597 0.7311,1.90798 0.25506,1.90799 0.94381,1.90799 0.23702,3.81597 0.0633,3.81597 0.25145,1.90798 0.077,1.90799 0.76926,3.81597 1.28295,1.90798 2.17231,1.90799 1.96102,1.90798 3.23268,1.90799 0.15029,1.90798 2.17842,1.90799 0.98958,1.90798 0.78995,1.90799 2.75653,1.90798 0.13796,1.90799 1.54527,1.90798 0.78259,1.90799 0.47462,1.90799 0.76787,1.90798 0.22226,1.90799 1.75231,1.90798 0.58241,1.90799 0.36672,3.81597 0.42911,1.90798 0.17026,5.72396 0.43582,1.90798 1.46577,1.90799 0.0263,1.90798 1.36187,3.81597 0.13797,1.90799 2.12254,1.90799 0.11017,3.81596 0.26413,1.90799 1.23145,1.90799 0.0356,1.90798 0.54306,1.90799 0.6772,1.90798 0.20238,3.81597 0.69988,1.90799 0.27524,3.81597 0.339,1.90798 0.70148,1.90799 0.44786,1.90798 0.54075,5.72396 0.83831,1.90798 0.31121,5.72396 0.4578,1.90798 0.0946,3.81598 0.4716,1.90798 0.10294,1.90799 0.96748,1.90798 0.56558,1.90799 0.41054,1.90798 0.12656,1.90799 0.35286,1.90798 0.32712,5.72396 0.8241,1.90798 0.34402,1.90799 0.0535,1.90798 0.58051,1.90799 0.13867,11.44791 0.21206,7.63194 0.32161,1.90799 0.0395,1.90798 0.54828,1.90799 1.1412,1.90798 0.61832,1.90799 1.76696,1.90798 2.52822,1.90799 0.27379,1.90798 0.88248,3.81597 0.33129,1.90799 0.12086,1.90798 4.24124,1.90799 2.59852,1.90798 0,0"
           style="fill:none;stroke:#008000;stroke-opacity:1;stroke-width:4;stroke-linecap:square;stroke-linejoin:round;stroke-miterlimit:10;stroke-dasharray:none"
           id="path23216" /></g></g><g
       id="g23218"><g
         id="g23220"
         clip-path="url(#clipPath23222)"><path
           d="m 475.14696,65.2 51.91784,1.907985 29.90065,1.907985 0.31265,1.907986 0.7624,1.907985 0.99366,1.907985 0.66831,1.907985 1.28251,1.907986 5.30348,1.907985 9.08452,3.81597 1.59205,1.907986 10.21042,1.907985 1.58341,1.907985 4.27516,1.907985 1.89821,1.907986 0.25293,1.907985 0.45683,1.907985 0.11701,3.815971 0.34594,1.90798 0.84996,1.90799 6.11569,3.81597 4.50895,1.90799 0.32165,1.90798 2.27656,1.90799 0.26937,1.90798 0.2151,3.81597 0.32944,1.90799 0.52808,1.90798 0.0814,5.72396 0.11822,1.90798 0.88422,1.90799 0.36899,1.90798 0.6249,1.90799 0.6047,7.63194 1.09724,3.81597 0.87797,1.90799 0.30662,1.90798 0.16632,1.90799 0.61093,1.90798 0.6025,7.63194 0.73186,1.90799 1.97393,1.90798 0.41413,1.90799 0.0123,1.90798 2.2583,1.90799 1.047,1.90798 0.2604,1.90799 0.0517,1.90798 1.05943,1.90799 0.13126,1.90798 0.49167,1.90799 0.70597,3.81597 0.0185,1.90799 0.81258,3.81597 0.104,1.90798 0.5412,1.90799 0.76457,3.81597 0.91922,1.90798 0.44694,1.90799 1.30291,3.81597 0.4545,1.90798 0.0237,1.90799 1.20291,1.90798 0.69892,1.90799 0.5185,1.90798 0.19817,1.90799 0.49806,1.90798 1.92072,1.90799 1.28068,1.90798 3.69008,1.90799 1.53084,1.90799 0.77841,1.90798 5.61469,1.90799 0.84439,1.90798 0.24673,1.90799 0.81089,1.90798 0,1.90799 0.33072,1.90798 0.9808,1.90799 0.71583,1.90798 0.15111,1.90799 0.70043,1.90798 0.32783,1.90799 1.11155,1.90798 0.0117,1.90799 0.7263,1.90798 4.75325,1.90799 0.22437,1.90799 2.74161,1.90798 0.84757,3.81597 0.52805,1.90799 0.29977,1.90798 1.15901,1.90799 1.16835,3.81597 0.26874,1.90798 1.65725,1.90799 0.54815,1.90798 0.0947,3.81597 1.8171,3.81597 0.5901,1.90799 0.0717,1.90798 0.55033,3.81597 2.39795,1.90799 0.098,1.90798 0.92966,1.90799 1.28911,1.90798 0.82616,1.90799 0.54257,1.90799 0.27281,1.90798 0.75179,1.90799 0.12716,1.90798 0.79106,3.81597 0.6289,1.90799 0.24028,3.81597 0.0181,1.90798 0.77072,1.90799 0.0316,1.90798 1.15683,1.90799 0.2822,1.90798 0.86545,1.90799 2.34846,1.90799 0.27819,1.90798 0.0604,1.90799 0.50588,1.90798 0.75697,1.90798 0.12403,1.90799 1.42379,1.90799 0.70468,1.90798 0.84567,1.90799 0.0971,3.81597 0.84922,1.90798 0.62888,3.81597 0.72431,1.90799 0.0185,1.90798 0.82248,3.81597 1.16551,3.81597 0.12763,1.90799 1.72109,1.90798 0.40914,1.90799 2.37674,1.90798 0.81004,1.90799 3.24795,1.90799 0.52391,1.90798 3.86296,1.90799 0.0994,1.90798 2.54472,1.90799 4.2584,3.81597 1.31515,1.90798 1.51159,1.90799 0.58979,1.90798 0.4343,1.90799 2.16096,1.90798 4.26941,1.90799 0.57242,1.90798 0.169,1.90799 2.39259,1.90798 0.008,1.90799 0.15302,1.90798 5.31104,1.90799 2.85425,1.90798 5.40454,1.90799 2.70683,1.90799 2.19457,1.90798 0.89768,1.90799 3.35469,3.81597 0.35013,1.90798 1.29317,1.90799 0.36482,1.90798 0.52633,1.90799 1.25042,1.90798 3.013,1.90799 1.87829,1.90798 0.63392,1.90799 2.41308,1.90798 0.24973,1.90799 2.15331,1.90798 0.34243,1.90799 1.21591,1.90799 0.37192,1.90798 0.84936,1.90798 4.17526,1.90799 5.90484,1.90799 4.48336,1.90798 0.89015,1.90799 0.32468,1.90798 0.0653,1.90799 2.23293,1.90798 1.35624,1.90799 5.90972,1.90798 3.48299,1.90799 1.05434,1.90798 2.06099,1.90799 5.26427,1.90798 16.42079,1.90799 3.53343,1.90798 11.667,1.90799 0,0"
           style="fill:none;stroke:#0000ff;stroke-opacity:1;stroke-width:4;stroke-linecap:square;stroke-linejoin:round;stroke-miterlimit:10;stroke-dasharray:none"
           id="path23226" /></g></g><g
       id="g23228"><g
         id="g23230"
         clip-path="url(#clipPath23232)"><path
           d="m 470.10618,65.2 41.96684,1.907985 20.23924,1.907985 1.36146,3.815971 1.72107,1.907985 1.48793,1.907985 2.42594,1.907986 6.72145,1.907985 0.38849,1.907985 9.6209,1.907985 4.05758,1.907986 1.16108,1.907985 1.44416,1.907985 5.90067,1.907985 0.95804,1.907986 6.49118,1.907985 1.39463,1.907985 0.24567,1.907985 1.00753,1.907986 1.15126,1.90798 0.22155,3.81597 1.3303,1.90799 2.09294,1.90799 0.16834,1.90798 0.0389,1.90799 2.5222,1.90798 0.91973,1.90799 1.51692,1.90798 0.80696,1.90799 0.56824,1.90798 0.39854,1.90799 0.52864,1.90798 0.73584,1.90799 0.40177,1.90798 2.74673,3.81597 3.8e-4,1.90799 0.55539,1.90798 0,1.90799 0.63506,1.90799 1.30781,1.90798 0.14934,1.90798 1.43854,1.90799 0.61682,3.81597 0.66848,1.90799 0.41453,1.90798 0.19898,1.90799 0.051,1.90798 0.35318,3.81597 0.0318,1.90799 0.16152,1.90798 0.32491,1.90799 0.005,1.90798 0.4296,1.90799 0.92911,1.90798 0.38598,1.90799 0.22431,1.90798 0.35536,1.90799 1.10885,1.90798 0.20261,1.90799 1.65696,1.90798 1.01682,1.90799 1.61152,1.90799 0.54119,5.72395 0.49004,1.90799 0.10834,1.90798 0.55286,1.90799 0.76742,1.90798 0.36435,1.90799 0.0425,1.90798 0.35001,1.90799 0.40223,3.81597 0.37543,1.90798 1.60134,1.90799 0.12125,1.90798 1.08215,1.90799 2.25971,1.90798 0.42755,1.90799 2.4197,3.81597 2.21161,1.90799 0.22475,1.90798 3.95022,1.90799 0.14466,1.90798 1.28488,1.90799 1.99699,1.90798 1.60098,1.90799 0.0742,1.90798 0.40747,1.90799 0.12404,1.90798 1.28007,1.90799 0.0522,3.81597 0.57055,1.90798 0.0154,1.90799 2.2007,1.90798 0.56269,1.90799 0.20498,1.90799 0.31872,1.90798 1.61492,1.90798 0.66,1.90799 0.18682,1.90799 0.85578,1.90798 3.56463,1.90799 0.10849,1.90798 2.80685,1.90799 0.91946,1.90798 0.47648,1.90799 1.82667,1.90798 0.1575,1.90799 0.49164,1.90798 1.3421,1.90799 0.53971,1.90798 0.69861,1.90799 0.55184,1.90798 1.03928,1.90799 0.43347,1.90798 0.20339,1.90799 0.65076,3.81597 1.5154,3.81597 1.4224,1.90799 0.17105,3.81597 0.77883,3.81597 0.0169,1.90798 1.15221,7.63194 0.0625,5.72396 0.65673,1.90798 0.47099,1.90799 2.23726,1.90799 0.11849,5.72395 1.5671,1.90798 0.44809,1.90799 0.68246,3.81597 0.0291,1.90799 0.43671,1.90798 0.14446,1.90799 0.7373,1.90798 0.009,1.90799 0.79249,3.81597 1.06631,1.90798 0.3952,1.90799 0.13639,1.90798 0.29583,1.90799 0.54274,1.90798 0.0611,3.81597 1.09344,1.90799 0.57921,1.90798 0.15994,1.90799 0.85695,1.90799 1.03782,1.90798 0.58407,1.90799 2.88236,1.90798 1.75464,1.90799 1.25821,1.90798 2.9569,1.90799 0.46411,1.90798 0.61149,1.90799 1.19531,1.90798 1.65106,1.90799 0.23097,3.81597 1.70822,1.90798 0.42732,1.90799 1.52452,1.90798 0.65102,1.90799 4.13809,1.90798 1.82695,1.90799 1.39716,1.90798 1.96679,3.81598 1.06842,1.90798 0.28572,1.90799 3.34839,1.90798 0.7578,1.90799 0.21394,1.90798 2.49451,1.90799 1.90869,1.90798 0.28253,1.90799 1.94634,1.90798 0.69449,1.90799 2.5031,1.90798 1.92779,1.90799 0.1167,1.90798 0.29067,1.90799 0.65164,1.90798 4.53543,1.90799 0.013,1.90799 2.50466,1.90798 1.00791,1.90798 2.08221,1.90799 0.0386,1.90799 0.57869,1.90798 0.39888,1.90799 1.02856,1.90798 2.41827,5.72396 0.29021,1.90798 0.05,1.90799 0.33091,1.90798 1.75379,1.90799 1.1745,1.90798 1.31048,1.90799 3.63776,1.90798 0.262,5.72396 0.63838,1.90798 4.52898,3.81597 0.62888,1.90799 1.13059,1.90799 0.23166,1.90798 0.83538,1.90799 1.06862,1.90798 0.52555,1.90799 0.29292,1.90798 0.98648,1.90799 0.32702,1.90798 0.20328,1.90799 1.89567,1.90798 0.7152,1.90799 1.98177,1.90798 1.38841,1.90799 0.0469,1.90798 2.93626,1.90799 4.81704,1.90798 0.49068,1.90799 0.15019,1.90799 3.16101,1.90798 5.87032,1.90798 0,1.90799 0.61487,1.90799 0.0844,1.90798 0.48874,1.90799 0,1.90798 1.4957,1.90799 0.20961,1.90798 1.75169,1.90799 0.2358,1.90798 2.18161,1.90799 0.83842,1.90798 0,1.90799 0.20924,1.90798 0.0473,1.90799 5.59413,1.90798 1.38555,1.90799 0.58813,1.90798 1.16744,1.90799 5.68332,1.90798 0,0"
           style="fill:none;stroke:#ff0000;stroke-opacity:1;stroke-width:4;stroke-linecap:square;stroke-linejoin:round;stroke-miterlimit:10;stroke-dasharray:none"
           id="path23236" /></g></g><g
       id="g23238"><path
         d="m 161.98471,582.264 0,3.5"
         style="fill:#000000;fill-opacity:1;fill-rule:nonzero;stroke:#000000;stroke-opacity:1;stroke-width:0.8;stroke-linecap:butt;stroke-linejoin:round;stroke-miterlimit:10;stroke-dasharray:none"
         id="path23240" /><g
         id="g23242"
         transform="translate(138.48471,593.42025)"><text
           transform="matrix(1,0,0,-1,0,0.953125)"
           id="text23244"><tspan
             style="fill:#000000;fill-opacity:1;fill-rule:nonzero;stroke:none;font-family:DejaVuSans;font-variant:normal;font-weight:normal;font-size:20;writing-mode:lr;-inkscape-font-specification:DejaVuSans"
             x="0 12.72460938"
             y="0"
             sodipodi:role="line"
             id="tspan23246">10</tspan></text>
<text
           transform="matrix(1,0,0,-1,37.371094,8.609375)"
           id="text23248"><tspan
             style="fill:#000000;fill-opacity:1;fill-rule:nonzero;stroke:none;font-family:DejaVuSans;font-variant:normal;font-weight:normal;font-size:14;writing-mode:lr;-inkscape-font-specification:DejaVuSans"
             x="0"
             y="0"
             id="tspan23250">2</tspan></text>
<g
           id="g23252"
           transform="matrix(0.014,0,0,0.014,25.640625,8.609375)"><g
             id="g23254"><g
               id="g23256"
               clip-path="url(#clipPath23258)"><path
                 d="m 106,355 626,0 0,-83 -626,0 0,83"
                 style="fill:#000000;fill-opacity:1;fill-rule:nonzero;stroke:none"
                 id="path23262" /></g></g></g></g><path
         d="m 348.01456,582.264 0,3.5"
         style="fill:#000000;fill-opacity:1;fill-rule:nonzero;stroke:#000000;stroke-opacity:1;stroke-width:0.8;stroke-linecap:butt;stroke-linejoin:round;stroke-miterlimit:10;stroke-dasharray:none"
         id="path23264" /><g
         id="g23266"
         transform="translate(324.51456,593.42025)"><text
           transform="matrix(1,0,0,-1,0,0.1390625)"
           id="text23268"><tspan
             style="fill:#000000;fill-opacity:1;fill-rule:nonzero;stroke:none;font-family:DejaVuSans;font-variant:normal;font-weight:normal;font-size:20;writing-mode:lr;-inkscape-font-specification:DejaVuSans"
             x="0 12.72460938"
             y="0"
             sodipodi:role="line"
             id="tspan23270">10</tspan></text>
<text
           transform="matrix(1,0,0,-1,37.371094,7.7953125)"
           id="text23272"><tspan
             style="fill:#000000;fill-opacity:1;fill-rule:nonzero;stroke:none;font-family:DejaVuSans;font-variant:normal;font-weight:normal;font-size:14;writing-mode:lr;-inkscape-font-specification:DejaVuSans"
             x="0"
             y="0"
             id="tspan23274">1</tspan></text>
<g
           id="g23276"
           transform="matrix(0.014,0,0,0.014,25.640625,7.7953125)"><g
             id="g23278"><g
               id="g23280"
               clip-path="url(#clipPath23282)"><path
                 d="m 106,355 626,0 0,-83 -626,0 0,83"
                 style="fill:#000000;fill-opacity:1;fill-rule:nonzero;stroke:none"
                 id="path23286" /></g></g></g></g><path
         d="m 534.04442,582.264 0,3.5"
         style="fill:#000000;fill-opacity:1;fill-rule:nonzero;stroke:#000000;stroke-opacity:1;stroke-width:0.8;stroke-linecap:butt;stroke-linejoin:round;stroke-miterlimit:10;stroke-dasharray:none"
         id="path23288" /><g
         id="g23290"
         transform="translate(516.04442,593.42025)"><text
           transform="matrix(1,0,0,-1,0,0.953125)"
           id="text23292"><tspan
             style="fill:#000000;fill-opacity:1;fill-rule:nonzero;stroke:none;font-family:DejaVuSans;font-variant:normal;font-weight:normal;font-size:20;writing-mode:lr;-inkscape-font-specification:DejaVuSans"
             x="0 12.72460938"
             y="0"
             sodipodi:role="line"
             id="tspan23294">10</tspan></text>
<text
           transform="matrix(1,0,0,-1,25.640625,8.609375)"
           id="text23296"><tspan
             style="fill:#000000;fill-opacity:1;fill-rule:nonzero;stroke:none;font-family:DejaVuSans;font-variant:normal;font-weight:normal;font-size:14;writing-mode:lr;-inkscape-font-specification:DejaVuSans"
             x="0"
             y="0"
             id="tspan23298">0</tspan></text>
</g><path
         d="m 720.07428,582.264 0,3.5"
         style="fill:#000000;fill-opacity:1;fill-rule:nonzero;stroke:#000000;stroke-opacity:1;stroke-width:0.8;stroke-linecap:butt;stroke-linejoin:round;stroke-miterlimit:10;stroke-dasharray:none"
         id="path23300" /><g
         id="g23302"
         transform="translate(702.07428,593.42025)"><text
           transform="matrix(1,0,0,-1,0,0.1390625)"
           id="text23304"><tspan
             style="fill:#000000;fill-opacity:1;fill-rule:nonzero;stroke:none;font-family:DejaVuSans;font-variant:normal;font-weight:normal;font-size:20;writing-mode:lr;-inkscape-font-specification:DejaVuSans"
             x="0 12.72460938"
             y="0"
             sodipodi:role="line"
             id="tspan23306">10</tspan></text>
<text
           transform="matrix(1,0,0,-1,25.640625,7.7953125)"
           id="text23308"><tspan
             style="fill:#000000;fill-opacity:1;fill-rule:nonzero;stroke:none;font-family:DejaVuSans;font-variant:normal;font-weight:normal;font-size:14;writing-mode:lr;-inkscape-font-specification:DejaVuSans"
             x="0"
             y="0"
             id="tspan23310">1</tspan></text>
</g><path
         d="m 105.98414,582.264 0,2"
         style="fill:#000000;fill-opacity:1;fill-rule:nonzero;stroke:#000000;stroke-opacity:1;stroke-width:0.6;stroke-linecap:butt;stroke-linejoin:round;stroke-miterlimit:10;stroke-dasharray:none"
         id="path23312" /><path
         d="m 120.71422,582.264 0,2"
         style="fill:#000000;fill-opacity:1;fill-rule:nonzero;stroke:#000000;stroke-opacity:1;stroke-width:0.6;stroke-linecap:butt;stroke-linejoin:round;stroke-miterlimit:10;stroke-dasharray:none"
         id="path23314" /><path
         d="m 133.16832,582.264 0,2"
         style="fill:#000000;fill-opacity:1;fill-rule:nonzero;stroke:#000000;stroke-opacity:1;stroke-width:0.6;stroke-linecap:butt;stroke-linejoin:round;stroke-miterlimit:10;stroke-dasharray:none"
         id="path23316" /><path
         d="m 143.95655,582.264 0,2"
         style="fill:#000000;fill-opacity:1;fill-rule:nonzero;stroke:#000000;stroke-opacity:1;stroke-width:0.6;stroke-linecap:butt;stroke-linejoin:round;stroke-miterlimit:10;stroke-dasharray:none"
         id="path23318" /><path
         d="m 153.47245,582.264 0,2"
         style="fill:#000000;fill-opacity:1;fill-rule:nonzero;stroke:#000000;stroke-opacity:1;stroke-width:0.6;stroke-linecap:butt;stroke-linejoin:round;stroke-miterlimit:10;stroke-dasharray:none"
         id="path23320" /><path
         d="m 217.98527,582.264 0,2"
         style="fill:#000000;fill-opacity:1;fill-rule:nonzero;stroke:#000000;stroke-opacity:1;stroke-width:0.6;stroke-linecap:butt;stroke-linejoin:round;stroke-miterlimit:10;stroke-dasharray:none"
         id="path23322" /><path
         d="m 250.7435,582.264 0,2"
         style="fill:#000000;fill-opacity:1;fill-rule:nonzero;stroke:#000000;stroke-opacity:1;stroke-width:0.6;stroke-linecap:butt;stroke-linejoin:round;stroke-miterlimit:10;stroke-dasharray:none"
         id="path23324" /><path
         d="m 273.98584,582.264 0,2"
         style="fill:#000000;fill-opacity:1;fill-rule:nonzero;stroke:#000000;stroke-opacity:1;stroke-width:0.6;stroke-linecap:butt;stroke-linejoin:round;stroke-miterlimit:10;stroke-dasharray:none"
         id="path23326" /><path
         d="m 292.014,582.264 0,2"
         style="fill:#000000;fill-opacity:1;fill-rule:nonzero;stroke:#000000;stroke-opacity:1;stroke-width:0.6;stroke-linecap:butt;stroke-linejoin:round;stroke-miterlimit:10;stroke-dasharray:none"
         id="path23328" /><path
         d="m 306.74407,582.264 0,2"
         style="fill:#000000;fill-opacity:1;fill-rule:nonzero;stroke:#000000;stroke-opacity:1;stroke-width:0.6;stroke-linecap:butt;stroke-linejoin:round;stroke-miterlimit:10;stroke-dasharray:none"
         id="path23330" /><path
         d="m 319.19817,582.264 0,2"
         style="fill:#000000;fill-opacity:1;fill-rule:nonzero;stroke:#000000;stroke-opacity:1;stroke-width:0.6;stroke-linecap:butt;stroke-linejoin:round;stroke-miterlimit:10;stroke-dasharray:none"
         id="path23332" /><path
         d="m 329.98641,582.264 0,2"
         style="fill:#000000;fill-opacity:1;fill-rule:nonzero;stroke:#000000;stroke-opacity:1;stroke-width:0.6;stroke-linecap:butt;stroke-linejoin:round;stroke-miterlimit:10;stroke-dasharray:none"
         id="path23334" /><path
         d="m 339.5023,582.264 0,2"
         style="fill:#000000;fill-opacity:1;fill-rule:nonzero;stroke:#000000;stroke-opacity:1;stroke-width:0.6;stroke-linecap:butt;stroke-linejoin:round;stroke-miterlimit:10;stroke-dasharray:none"
         id="path23336" /><path
         d="m 404.01513,582.264 0,2"
         style="fill:#000000;fill-opacity:1;fill-rule:nonzero;stroke:#000000;stroke-opacity:1;stroke-width:0.6;stroke-linecap:butt;stroke-linejoin:round;stroke-miterlimit:10;stroke-dasharray:none"
         id="path23338" /><path
         d="m 436.77336,582.264 0,2"
         style="fill:#000000;fill-opacity:1;fill-rule:nonzero;stroke:#000000;stroke-opacity:1;stroke-width:0.6;stroke-linecap:butt;stroke-linejoin:round;stroke-miterlimit:10;stroke-dasharray:none"
         id="path23340" /><path
         d="m 460.0157,582.264 0,2"
         style="fill:#000000;fill-opacity:1;fill-rule:nonzero;stroke:#000000;stroke-opacity:1;stroke-width:0.6;stroke-linecap:butt;stroke-linejoin:round;stroke-miterlimit:10;stroke-dasharray:none"
         id="path23342" /><path
         d="m 478.04385,582.264 0,2"
         style="fill:#000000;fill-opacity:1;fill-rule:nonzero;stroke:#000000;stroke-opacity:1;stroke-width:0.6;stroke-linecap:butt;stroke-linejoin:round;stroke-miterlimit:10;stroke-dasharray:none"
         id="path23344" /><path
         d="m 492.77393,582.264 0,2"
         style="fill:#000000;fill-opacity:1;fill-rule:nonzero;stroke:#000000;stroke-opacity:1;stroke-width:0.6;stroke-linecap:butt;stroke-linejoin:round;stroke-miterlimit:10;stroke-dasharray:none"
         id="path23346" /><path
         d="m 505.22803,582.264 0,2"
         style="fill:#000000;fill-opacity:1;fill-rule:nonzero;stroke:#000000;stroke-opacity:1;stroke-width:0.6;stroke-linecap:butt;stroke-linejoin:round;stroke-miterlimit:10;stroke-dasharray:none"
         id="path23348" /><path
         d="m 516.01627,582.264 0,2"
         style="fill:#000000;fill-opacity:1;fill-rule:nonzero;stroke:#000000;stroke-opacity:1;stroke-width:0.6;stroke-linecap:butt;stroke-linejoin:round;stroke-miterlimit:10;stroke-dasharray:none"
         id="path23350" /><path
         d="m 525.53216,582.264 0,2"
         style="fill:#000000;fill-opacity:1;fill-rule:nonzero;stroke:#000000;stroke-opacity:1;stroke-width:0.6;stroke-linecap:butt;stroke-linejoin:round;stroke-miterlimit:10;stroke-dasharray:none"
         id="path23352" /><path
         d="m 590.04499,582.264 0,2"
         style="fill:#000000;fill-opacity:1;fill-rule:nonzero;stroke:#000000;stroke-opacity:1;stroke-width:0.6;stroke-linecap:butt;stroke-linejoin:round;stroke-miterlimit:10;stroke-dasharray:none"
         id="path23354" /><path
         d="m 622.80322,582.264 0,2"
         style="fill:#000000;fill-opacity:1;fill-rule:nonzero;stroke:#000000;stroke-opacity:1;stroke-width:0.6;stroke-linecap:butt;stroke-linejoin:round;stroke-miterlimit:10;stroke-dasharray:none"
         id="path23356" /><path
         d="m 646.04556,582.264 0,2"
         style="fill:#000000;fill-opacity:1;fill-rule:nonzero;stroke:#000000;stroke-opacity:1;stroke-width:0.6;stroke-linecap:butt;stroke-linejoin:round;stroke-miterlimit:10;stroke-dasharray:none"
         id="path23358" /><path
         d="m 664.07371,582.264 0,2"
         style="fill:#000000;fill-opacity:1;fill-rule:nonzero;stroke:#000000;stroke-opacity:1;stroke-width:0.6;stroke-linecap:butt;stroke-linejoin:round;stroke-miterlimit:10;stroke-dasharray:none"
         id="path23360" /><path
         d="m 678.80379,582.264 0,2"
         style="fill:#000000;fill-opacity:1;fill-rule:nonzero;stroke:#000000;stroke-opacity:1;stroke-width:0.6;stroke-linecap:butt;stroke-linejoin:round;stroke-miterlimit:10;stroke-dasharray:none"
         id="path23362" /><path
         d="m 691.25789,582.264 0,2"
         style="fill:#000000;fill-opacity:1;fill-rule:nonzero;stroke:#000000;stroke-opacity:1;stroke-width:0.6;stroke-linecap:butt;stroke-linejoin:round;stroke-miterlimit:10;stroke-dasharray:none"
         id="path23364" /><path
         d="m 702.04612,582.264 0,2"
         style="fill:#000000;fill-opacity:1;fill-rule:nonzero;stroke:#000000;stroke-opacity:1;stroke-width:0.6;stroke-linecap:butt;stroke-linejoin:round;stroke-miterlimit:10;stroke-dasharray:none"
         id="path23366" /><path
         d="m 711.56202,582.264 0,2"
         style="fill:#000000;fill-opacity:1;fill-rule:nonzero;stroke:#000000;stroke-opacity:1;stroke-width:0.6;stroke-linecap:butt;stroke-linejoin:round;stroke-miterlimit:10;stroke-dasharray:none"
         id="path23368" /><path
         d="m 776.07485,582.264 0,2"
         style="fill:#000000;fill-opacity:1;fill-rule:nonzero;stroke:#000000;stroke-opacity:1;stroke-width:0.6;stroke-linecap:butt;stroke-linejoin:round;stroke-miterlimit:10;stroke-dasharray:none"
         id="path23370" /><path
         d="m 808.83308,582.264 0,2"
         style="fill:#000000;fill-opacity:1;fill-rule:nonzero;stroke:#000000;stroke-opacity:1;stroke-width:0.6;stroke-linecap:butt;stroke-linejoin:round;stroke-miterlimit:10;stroke-dasharray:none"
         id="path23372" /><path
         d="m 832.07542,582.264 0,2"
         style="fill:#000000;fill-opacity:1;fill-rule:nonzero;stroke:#000000;stroke-opacity:1;stroke-width:0.6;stroke-linecap:butt;stroke-linejoin:round;stroke-miterlimit:10;stroke-dasharray:none"
         id="path23374" /><path
         d="m 850.10357,582.264 0,2"
         style="fill:#000000;fill-opacity:1;fill-rule:nonzero;stroke:#000000;stroke-opacity:1;stroke-width:0.6;stroke-linecap:butt;stroke-linejoin:round;stroke-miterlimit:10;stroke-dasharray:none"
         id="path23376" /><path
         d="m 864.83365,582.264 0,2"
         style="fill:#000000;fill-opacity:1;fill-rule:nonzero;stroke:#000000;stroke-opacity:1;stroke-width:0.6;stroke-linecap:butt;stroke-linejoin:round;stroke-miterlimit:10;stroke-dasharray:none"
         id="path23378" /><path
         d="m 877.28775,582.264 0,2"
         style="fill:#000000;fill-opacity:1;fill-rule:nonzero;stroke:#000000;stroke-opacity:1;stroke-width:0.6;stroke-linecap:butt;stroke-linejoin:round;stroke-miterlimit:10;stroke-dasharray:none"
         id="path23380" /><path
         d="m 888.07598,582.264 0,2"
         style="fill:#000000;fill-opacity:1;fill-rule:nonzero;stroke:#000000;stroke-opacity:1;stroke-width:0.6;stroke-linecap:butt;stroke-linejoin:round;stroke-miterlimit:10;stroke-dasharray:none"
         id="path23382" /><path
         d="m 897.59188,582.264 0,2"
         style="fill:#000000;fill-opacity:1;fill-rule:nonzero;stroke:#000000;stroke-opacity:1;stroke-width:0.6;stroke-linecap:butt;stroke-linejoin:round;stroke-miterlimit:10;stroke-dasharray:none"
         id="path23384" /><g
         id="g23386"
         transform="translate(352.75596,745.2958)"><text
           transform="scale(1,-1)"
           id="text23388"
           x="4.0834575"
           y="124.88229"><tspan
             style="font-size:24px;font-variant:normal;font-weight:normal;writing-mode:lr-tb;fill:#000000;fill-opacity:1;fill-rule:nonzero;stroke:none;font-family:DejaVuSans;-inkscape-font-specification:DejaVuSans"
             x="4.0834575"
             y="124.88229"
             sodipodi:role="line"
             id="tspan23390">Column Density [g cm<tspan
   style="font-size:52.00042725%;baseline-shift:super"
   id="tspan23453">-2</tspan>]</tspan></text>
</g><path
         d="m 100.1125,65.2 0,517.064"
         style="fill:none;stroke:#000000;stroke-opacity:1;stroke-width:0.8;stroke-linecap:square;stroke-linejoin:miter;stroke-miterlimit:10;stroke-dasharray:none"
         id="path23412" /><path
         d="m 900.2325,65.2 0,517.064"
         style="fill:none;stroke:#000000;stroke-opacity:1;stroke-width:0.8;stroke-linecap:square;stroke-linejoin:miter;stroke-miterlimit:10;stroke-dasharray:none"
         id="path23414" /><path
         d="m 100.1125,65.2 800.12,0"
         style="fill:none;stroke:#000000;stroke-opacity:1;stroke-width:0.8;stroke-linecap:square;stroke-linejoin:miter;stroke-miterlimit:10;stroke-dasharray:none"
         id="path23416" /><path
         d="m 100.1125,582.264 800.12,0"
         style="fill:none;stroke:#000000;stroke-opacity:1;stroke-width:0.8;stroke-linecap:square;stroke-linejoin:miter;stroke-miterlimit:10;stroke-dasharray:none"
         id="path23418" /></g><g
       id="g5388"><g
         id="g5412"><g
           id="g5404"><path
             d="m 661.21238,184.46621 40,0"
             style="fill:none;stroke:#000000;stroke-width:4;stroke-linecap:square;stroke-linejoin:round;stroke-miterlimit:10;stroke-opacity:1;stroke-dasharray:none"
             id="path23098"
             inkscape:connector-curvature="0" /><path
             d="m 661.21238,173.15104 40,0"
             style="fill:none;stroke:#008000;stroke-width:4;stroke-linecap:square;stroke-linejoin:round;stroke-miterlimit:10;stroke-opacity:1;stroke-dasharray:none"
             id="path23104"
             inkscape:connector-curvature="0" /><path
             d="m 661.21238,161.83586 40,0"
             style="fill:none;stroke:#0000ff;stroke-width:4;stroke-linecap:square;stroke-linejoin:round;stroke-miterlimit:10;stroke-opacity:1;stroke-dasharray:none"
             id="path23110"
             inkscape:connector-curvature="0" /><path
             d="m 661.21238,150.52069 40,0"
             style="fill:none;stroke:#ff0000;stroke-width:4;stroke-linecap:square;stroke-linejoin:round;stroke-miterlimit:10;stroke-opacity:1;stroke-dasharray:none"
             id="path23138"
             inkscape:connector-curvature="0" /><path
             d="m 660.21238,126.20552 40,0 0,14 -40,0 0,-14 z"
             style="fill:url(#pattern5402);fill-opacity:0.5;fill-rule:nonzero;stroke:#0000ff;stroke-width:2;stroke-linecap:butt;stroke-linejoin:miter;stroke-miterlimit:10;stroke-opacity:0.5;stroke-dasharray:none"
             id="path23170"
             inkscape:connector-curvature="0" /><path
             d="m 660.21238,102.89034 40,0 0,14 -40,0 0,-14 z"
             style="fill:url(#pattern5400);fill-opacity:0.5;fill-rule:nonzero;stroke:#ff0000;stroke-width:2;stroke-linecap:butt;stroke-linejoin:miter;stroke-miterlimit:10;stroke-opacity:0.5;stroke-dasharray:none"
             id="path23180"
             inkscape:connector-curvature="0" /></g><text
           xml:space="preserve"
           style="font-size:16px;font-style:normal;font-weight:normal;line-height:125%;letter-spacing:0px;word-spacing:0px;fill:#000000;fill-opacity:1;stroke:none;font-family:Bitstream Vera Sans"
           x="708.28345"
           y="-167.77109"
           id="text5463"
           sodipodi:linespacing="125%"
           transform="scale(1,-1)"><tspan
             sodipodi:role="line"
             x="708.28345"
             y="-167.77109"
             id="tspan5465"><tspan
               x="708.28345"
               y="-167.77109"
               style="font-size:25.60000038px"
               id="tspan5467">Different </tspan></tspan><tspan
             sodipodi:role="line"
             x="708.28345"
             y="-135.77109"
             id="tspan5469"><tspan
               x="708.28345"
               y="-135.77109"
               style="font-size:25.60000038px"
               id="tspan5471">measurement </tspan></tspan><tspan
             sodipodi:role="line"
             x="708.28345"
             y="-103.77108"
             id="tspan5473"><tspan
               x="708.28345"
               y="-103.77108"
               style="font-size:25.60000038px"
               id="tspan5475">techniques</tspan></tspan></text>
</g></g></g></svg>