<?xml version="1.0" encoding="utf-8" standalone="no"?>
<!DOCTYPE svg PUBLIC "-//W3C//DTD SVG 1.1//EN"
  "http://www.w3.org/Graphics/SVG/1.1/DTD/svg11.dtd">
<!-- Created with matplotlib (http://matplotlib.org/) -->
<svg height="576pt" version="1.1" viewBox="0 0 576 576" width="576pt" xmlns="http://www.w3.org/2000/svg" xmlns:xlink="http://www.w3.org/1999/xlink">
 <defs>
  <style type="text/css">
*{stroke-linecap:butt;stroke-linejoin:round;}
  </style>
 </defs>
 <g id="figure_1">
  <g id="patch_1">
   <path d="M 0 576 
L 576 576 
L 576 0 
L 0 0 
z
" style="fill:#ffffff;"/>
  </g>
  <g id="axes_1">
   <g id="patch_2">
    <path d="M 90.065619 511 
L 554.04 511 
L 554.04 21.96 
L 90.065619 21.96 
z
" style="fill:#ffffff;"/>
   </g>
   <g id="PathCollection_1">
    <path clip-path="url(#p1aed9ebabc)" d="M 144.464211 323.79119 
C 144.729414 323.79119 144.983791 323.685824 145.171318 323.498297 
C 145.358845 323.31077 145.464211 323.056393 145.464211 322.79119 
C 145.464211 322.525987 145.358845 322.27161 145.171318 322.084083 
C 144.983791 321.896556 144.729414 321.79119 144.464211 321.79119 
C 144.199008 321.79119 143.944631 321.896556 143.757104 322.084083 
C 143.569577 322.27161 143.464211 322.525987 143.464211 322.79119 
C 143.464211 323.056393 143.569577 323.31077 143.757104 323.498297 
C 143.944631 323.685824 144.199008 323.79119 144.464211 323.79119 
z
" style="fill:#ffe4c5;stroke:#ffe4c5;"/>
    <path clip-path="url(#p1aed9ebabc)" d="M 145.923697 320.085816 
C 146.194964 320.085816 146.455157 319.97804 146.646971 319.786226 
C 146.838785 319.594412 146.946561 319.334219 146.946561 319.062952 
C 146.946561 318.791686 146.838785 318.531493 146.646971 318.339678 
C 146.455157 318.147864 146.194964 318.040089 145.923697 318.040089 
C 145.652431 318.040089 145.392238 318.147864 145.200423 318.339678 
C 145.008609 318.531493 144.900834 318.791686 144.900834 319.062952 
C 144.900834 319.334219 145.008609 319.594412 145.200423 319.786226 
C 145.392238 319.97804 145.652431 320.085816 145.923697 320.085816 
z
" style="fill:#ffe9ce;stroke:#ffe9ce;"/>
    <path clip-path="url(#p1aed9ebabc)" d="M 147.431027 316.623086 
C 147.708225 316.623086 147.974106 316.512954 148.170115 316.316946 
C 148.366123 316.120938 148.476255 315.855056 148.476255 315.577859 
C 148.476255 315.300661 148.366123 315.03478 148.170115 314.838771 
C 147.974106 314.642763 147.708225 314.532631 147.431027 314.532631 
C 147.15383 314.532631 146.887948 314.642763 146.69194 314.838771 
C 146.495932 315.03478 146.3858 315.300661 146.3858 315.577859 
C 146.3858 315.855056 146.495932 316.120938 146.69194 316.316946 
C 146.887948 316.512954 147.15383 316.623086 147.431027 316.623086 
z
" style="fill:#ffeed8;stroke:#ffeed8;"/>
    <path clip-path="url(#p1aed9ebabc)" d="M 148.762232 313.119952 
C 149.045392 313.119952 149.316992 313.007451 149.517216 312.807227 
C 149.717439 312.607003 149.82994 312.335403 149.82994 312.052244 
C 149.82994 311.769084 149.717439 311.497484 149.517216 311.29726 
C 149.316992 311.097036 149.045392 310.984536 148.762232 310.984536 
C 148.479073 310.984536 148.207473 311.097036 148.007249 311.29726 
C 147.807025 311.497484 147.694524 311.769084 147.694524 312.052244 
C 147.694524 312.335403 147.807025 312.607003 148.007249 312.807227 
C 148.207473 313.007451 148.479073 313.119952 148.762232 313.119952 
z
" style="fill:#fff2e1;stroke:#fff2e1;"/>
    <path clip-path="url(#p1aed9ebabc)" d="M 150.13076 309.858925 
C 150.419606 309.858925 150.696661 309.744165 150.900906 309.53992 
C 151.105151 309.335675 151.219911 309.058621 151.219911 308.769774 
C 151.219911 308.480928 151.105151 308.203873 150.900906 307.999628 
C 150.696661 307.795383 150.419606 307.680623 150.13076 307.680623 
C 149.841914 307.680623 149.564859 307.795383 149.360614 307.999628 
C 149.156369 308.203873 149.041609 308.480928 149.041609 308.769774 
C 149.041609 309.058621 149.156369 309.335675 149.360614 309.53992 
C 149.564859 309.744165 149.841914 309.858925 150.13076 309.858925 
z
" style="fill:#fff4e8;stroke:#fff4e8;"/>
    <path clip-path="url(#p1aed9ebabc)" d="M 152.497357 303.619322 
C 152.797253 303.619322 153.084907 303.500172 153.296966 303.288113 
C 153.509025 303.076054 153.628175 302.7884 153.628175 302.488504 
C 153.628175 302.188607 153.509025 301.900953 153.296966 301.688894 
C 153.084907 301.476836 152.797253 301.357685 152.497357 301.357685 
C 152.19746 301.357685 151.909806 301.476836 151.697748 301.688894 
C 151.485689 301.900953 151.366539 302.188607 151.366539 302.488504 
C 151.366539 302.7884 151.485689 303.076054 151.697748 303.288113 
C 151.909806 303.500172 152.19746 303.619322 152.497357 303.619322 
z
" style="fill:#fff5ed;stroke:#fff5ed;"/>
    <path clip-path="url(#p1aed9ebabc)" d="M 154.722524 297.702967 
C 155.033219 297.702967 155.331231 297.579526 155.550926 297.359831 
C 155.770621 297.140136 155.894061 296.842124 155.894061 296.531429 
C 155.894061 296.220734 155.770621 295.922722 155.550926 295.703027 
C 155.331231 295.483332 155.033219 295.359891 154.722524 295.359891 
C 154.411828 295.359891 154.113816 295.483332 153.894122 295.703027 
C 153.674427 295.922722 153.550986 296.220734 153.550986 296.531429 
C 153.550986 296.842124 153.674427 297.140136 153.894122 297.359831 
C 154.113816 297.579526 154.411828 297.702967 154.722524 297.702967 
z
" style="fill:#fff7f2;stroke:#fff7f2;"/>
    <path clip-path="url(#p1aed9ebabc)" d="M 157.836539 288.739494 
C 158.166714 288.739494 158.483411 288.608314 158.71688 288.374845 
C 158.950349 288.141376 159.081529 287.824679 159.081529 287.494504 
C 159.081529 287.164329 158.950349 286.847633 158.71688 286.614163 
C 158.483411 286.380694 158.166714 286.249514 157.836539 286.249514 
C 157.506364 286.249514 157.189667 286.380694 156.956198 286.614163 
C 156.722729 286.847633 156.591549 287.164329 156.591549 287.494504 
C 156.591549 287.824679 156.722729 288.141376 156.956198 288.374845 
C 157.189667 288.608314 157.506364 288.739494 157.836539 288.739494 
z
" style="fill:#fdf9fb;stroke:#fdf9fb;"/>
    <path clip-path="url(#p1aed9ebabc)" d="M 160.287616 282.225713 
C 160.631358 282.225713 160.961068 282.089142 161.204131 281.84608 
C 161.447193 281.603017 161.583764 281.273307 161.583764 280.929565 
C 161.583764 280.585822 161.447193 280.256112 161.204131 280.01305 
C 160.961068 279.769987 160.631358 279.633417 160.287616 279.633417 
C 159.943873 279.633417 159.614163 279.769987 159.371101 280.01305 
C 159.128038 280.256112 158.991468 280.585822 158.991468 280.929565 
C 158.991468 281.273307 159.128038 281.603017 159.371101 281.84608 
C 159.614163 282.089142 159.943873 282.225713 160.287616 282.225713 
z
" style="fill:#f8f6ff;stroke:#f8f6ff;"/>
    <path clip-path="url(#p1aed9ebabc)" d="M 163.278641 275.47379 
C 163.637279 275.47379 163.981276 275.331302 164.234871 275.077707 
C 164.488466 274.824112 164.630954 274.480115 164.630954 274.121477 
C 164.630954 273.76284 164.488466 273.418843 164.234871 273.165248 
C 163.981276 272.911652 163.637279 272.769164 163.278641 272.769164 
C 162.920004 272.769164 162.576007 272.911652 162.322412 273.165248 
C 162.068817 273.418843 161.926329 273.76284 161.926329 274.121477 
C 161.926329 274.480115 162.068817 274.824112 162.322412 275.077707 
C 162.576007 275.331302 162.920004 275.47379 163.278641 275.47379 
z
" style="fill:#f0f0ff;stroke:#f0f0ff;"/>
    <path clip-path="url(#p1aed9ebabc)" d="M 167.966865 268.604706 
C 168.341567 268.604706 168.700972 268.455835 168.965927 268.190881 
C 169.230881 267.925926 169.379752 267.566521 169.379752 267.191818 
C 169.379752 266.817116 169.230881 266.457711 168.965927 266.192756 
C 168.700972 265.927802 168.341567 265.778931 167.966865 265.778931 
C 167.592163 265.778931 167.232757 265.927802 166.967803 266.192756 
C 166.702848 266.457711 166.553978 266.817116 166.553978 267.191818 
C 166.553978 267.566521 166.702848 267.925926 166.967803 268.190881 
C 167.232757 268.455835 167.592163 268.604706 167.966865 268.604706 
z
" style="fill:#e4e8ff;stroke:#e4e8ff;"/>
    <path clip-path="url(#p1aed9ebabc)" d="M 173.848294 261.780014 
C 174.240086 261.780014 174.615884 261.624354 174.892923 261.347315 
C 175.169962 261.070276 175.325623 260.694478 175.325623 260.302686 
C 175.325623 259.910894 175.169962 259.535096 174.892923 259.258057 
C 174.615884 258.981018 174.240086 258.825357 173.848294 258.825357 
C 173.456502 258.825357 173.080704 258.981018 172.803665 259.258057 
C 172.526626 259.535096 172.370965 259.910894 172.370965 260.302686 
C 172.370965 260.694478 172.526626 261.070276 172.803665 261.347315 
C 173.080704 261.624354 173.456502 261.780014 173.848294 261.780014 
z
" style="fill:#d5dfff;stroke:#d5dfff;"/>
    <path clip-path="url(#p1aed9ebabc)" d="M 179.318559 255.803634 
C 179.726727 255.803634 180.118231 255.641467 180.406849 255.35285 
C 180.695467 255.064232 180.857634 254.672727 180.857634 254.26456 
C 180.857634 253.856392 180.695467 253.464888 180.406849 253.17627 
C 180.118231 252.887652 179.726727 252.725485 179.318559 252.725485 
C 178.910392 252.725485 178.518887 252.887652 178.230269 253.17627 
C 177.941651 253.464888 177.779485 253.856392 177.779485 254.26456 
C 177.779485 254.672727 177.941651 255.064232 178.230269 255.35285 
C 178.518887 255.641467 178.910392 255.803634 179.318559 255.803634 
z
" style="fill:#c8d6ff;stroke:#c8d6ff;"/>
    <path clip-path="url(#p1aed9ebabc)" d="M 185.193608 249.830728 
C 185.619071 249.830728 186.027165 249.66169 186.328013 249.360842 
C 186.628861 249.059994 186.797899 248.6519 186.797899 248.226437 
C 186.797899 247.800974 186.628861 247.39288 186.328013 247.092032 
C 186.027165 246.791184 185.619071 246.622146 185.193608 246.622146 
C 184.768145 246.622146 184.360051 246.791184 184.059203 247.092032 
C 183.758355 247.39288 183.589317 247.800974 183.589317 248.226437 
C 183.589317 248.6519 183.758355 249.059994 184.059203 249.360842 
C 184.360051 249.66169 184.768145 249.830728 185.193608 249.830728 
z
" style="fill:#bed0ff;stroke:#bed0ff;"/>
    <path clip-path="url(#p1aed9ebabc)" d="M 197.827981 237.81771 
C 198.291707 237.81771 198.736503 237.63347 199.064407 237.305566 
C 199.392311 236.977661 199.576552 236.532866 199.576552 236.069139 
C 199.576552 235.605413 199.392311 235.160617 199.064407 234.832713 
C 198.736503 234.504809 198.291707 234.320568 197.827981 234.320568 
C 197.364255 234.320568 196.919459 234.504809 196.591555 234.832713 
C 196.263651 235.160617 196.07941 235.605413 196.07941 236.069139 
C 196.07941 236.532866 196.263651 236.977661 196.591555 237.305566 
C 196.919459 237.63347 197.364255 237.81771 197.827981 237.81771 
z
" style="fill:#b9cbff;stroke:#b9cbff;"/>
    <path clip-path="url(#p1aed9ebabc)" d="M 220.097166 218.318426 
C 220.634243 218.318426 221.149395 218.105043 221.529166 217.725272 
C 221.908937 217.345501 222.12232 216.830349 222.12232 216.293272 
C 222.12232 215.756195 221.908937 215.241043 221.529166 214.861272 
C 221.149395 214.481501 220.634243 214.268118 220.097166 214.268118 
C 219.560088 214.268118 219.044936 214.481501 218.665165 214.861272 
C 218.285394 215.241043 218.072011 215.756195 218.072011 216.293272 
C 218.072011 216.830349 218.285394 217.345501 218.665165 217.725272 
C 219.044936 218.105043 219.560088 218.318426 220.097166 218.318426 
z
" style="fill:#b7c9ff;stroke:#b7c9ff;"/>
    <path clip-path="url(#p1aed9ebabc)" d="M 246.07888 198.598311 
C 246.705975 198.598311 247.30747 198.349163 247.750892 197.905741 
C 248.194315 197.462318 248.443463 196.860823 248.443463 196.233728 
C 248.443463 195.606634 248.194315 195.005139 247.750892 194.561716 
C 247.30747 194.118293 246.705975 193.869146 246.07888 193.869146 
C 245.451786 193.869146 244.850291 194.118293 244.406868 194.561716 
C 243.963445 195.005139 243.714298 195.606634 243.714298 196.233728 
C 243.714298 196.860823 243.963445 197.462318 244.406868 197.905741 
C 244.850291 198.349163 245.451786 198.598311 246.07888 198.598311 
z
" style="fill:#b3c7ff;stroke:#b3c7ff;"/>
    <path clip-path="url(#p1aed9ebabc)" d="M 268.120406 184.184464 
C 268.826128 184.184464 269.50304 183.904078 270.002061 183.405057 
C 270.501081 182.906037 270.781468 182.229124 270.781468 181.523403 
C 270.781468 180.817681 270.501081 180.140768 270.002061 179.641748 
C 269.50304 179.142727 268.826128 178.862341 268.120406 178.862341 
C 267.414684 178.862341 266.737772 179.142727 266.238751 179.641748 
C 265.73973 180.140768 265.459344 180.817681 265.459344 181.523403 
C 265.459344 182.229124 265.73973 182.906037 266.238751 183.405057 
C 266.737772 183.904078 267.414684 184.184464 268.120406 184.184464 
z
" style="fill:#b0c4ff;stroke:#b0c4ff;"/>
    <path clip-path="url(#p1aed9ebabc)" d="M 287.345322 172.577447 
C 288.121749 172.577447 288.86648 172.268969 289.415497 171.719952 
C 289.964514 171.170935 290.272992 170.426204 290.272992 169.649777 
C 290.272992 168.87335 289.964514 168.128619 289.415497 167.579602 
C 288.86648 167.030585 288.121749 166.722107 287.345322 166.722107 
C 286.568895 166.722107 285.824164 167.030585 285.275147 167.579602 
C 284.72613 168.128619 284.417652 168.87335 284.417652 169.649777 
C 284.417652 170.426204 284.72613 171.170935 285.275147 171.719952 
C 285.824164 172.268969 286.568895 172.577447 287.345322 172.577447 
z
" style="fill:#adc1ff;stroke:#adc1ff;"/>
    <path clip-path="url(#p1aed9ebabc)" d="M 304.013608 163.176929 
C 304.854819 163.176929 305.661688 162.842713 306.256514 162.247887 
C 306.851339 161.653062 307.185556 160.846192 307.185556 160.004982 
C 307.185556 159.163772 306.851339 158.356902 306.256514 157.762077 
C 305.661688 157.167251 304.854819 156.833035 304.013608 156.833035 
C 303.172398 156.833035 302.365528 157.167251 301.770703 157.762077 
C 301.175878 158.356902 300.841661 159.163772 300.841661 160.004982 
C 300.841661 160.846192 301.175878 161.653062 301.770703 162.247887 
C 302.365528 162.842713 303.172398 163.176929 304.013608 163.176929 
z
" style="fill:#aabfff;stroke:#aabfff;"/>
    <path clip-path="url(#p1aed9ebabc)" d="M 319.114821 155.177081 
C 320.016122 155.177081 320.880629 154.818991 321.517944 154.181675 
C 322.15526 153.54436 322.513351 152.679853 322.513351 151.778552 
C 322.513351 150.877252 322.15526 150.012745 321.517944 149.375429 
C 320.880629 148.738114 320.016122 148.380023 319.114821 148.380023 
C 318.213521 148.380023 317.349014 148.738114 316.711699 149.375429 
C 316.074383 150.012745 315.716292 150.877252 315.716292 151.778552 
C 315.716292 152.679853 316.074383 153.54436 316.711699 154.181675 
C 317.349014 154.818991 318.213521 155.177081 319.114821 155.177081 
z
" style="fill:#a8bdff;stroke:#a8bdff;"/>
    <path clip-path="url(#p1aed9ebabc)" d="M 332.638485 148.338239 
C 333.596112 148.338239 334.514647 147.957769 335.191791 147.280624 
C 335.868936 146.60348 336.249406 145.684945 336.249406 144.727318 
C 336.249406 143.76969 335.868936 142.851156 335.191791 142.174011 
C 334.514647 141.496866 333.596112 141.116397 332.638485 141.116397 
C 331.680857 141.116397 330.762323 141.496866 330.085178 142.174011 
C 329.408033 142.851156 329.027564 143.76969 329.027564 144.727318 
C 329.027564 145.684945 329.408033 146.60348 330.085178 147.280624 
C 330.762323 147.957769 331.680857 148.338239 332.638485 148.338239 
z
" style="fill:#a7bcff;stroke:#a7bcff;"/>
    <path clip-path="url(#p1aed9ebabc)" d="M 345.295452 142.135643 
C 346.306186 142.135643 347.275658 141.734074 347.990355 141.019378 
C 348.705051 140.304681 349.10662 139.335209 349.10662 138.324475 
C 349.10662 137.313742 348.705051 136.344269 347.990355 135.629573 
C 347.275658 134.914876 346.306186 134.513308 345.295452 134.513308 
C 344.284719 134.513308 343.315246 134.914876 342.60055 135.629573 
C 341.885853 136.344269 341.484284 137.313742 341.484284 138.324475 
C 341.484284 139.335209 341.885853 140.304681 342.60055 141.019378 
C 343.315246 141.734074 344.284719 142.135643 345.295452 142.135643 
z
" style="fill:#a6bcff;stroke:#a6bcff;"/>
    <path clip-path="url(#p1aed9ebabc)" d="M 356.859867 136.773578 
C 357.920929 136.773578 358.938674 136.352014 359.688958 135.60173 
C 360.439241 134.851447 360.860805 133.833701 360.860805 132.77264 
C 360.860805 131.711579 360.439241 130.693834 359.688958 129.94355 
C 358.938674 129.193267 357.920929 128.771703 356.859867 128.771703 
C 355.798806 128.771703 354.781061 129.193267 354.030777 129.94355 
C 353.280494 130.693834 352.85893 131.711579 352.85893 132.77264 
C 352.85893 133.833701 353.280494 134.851447 354.030777 135.60173 
C 354.781061 136.352014 355.798806 136.773578 356.859867 136.773578 
z
" style="fill:#a6bbff;stroke:#a6bbff;"/>
    <path clip-path="url(#p1aed9ebabc)" d="M 367.117279 131.929129 
C 368.226227 131.929129 369.289906 131.488539 370.074051 130.704393 
C 370.858196 129.920248 371.298786 128.85657 371.298786 127.747621 
C 371.298786 126.638673 370.858196 125.574995 370.074051 124.790849 
C 369.289906 124.006704 368.226227 123.566114 367.117279 123.566114 
C 366.00833 123.566114 364.944652 124.006704 364.160507 124.790849 
C 363.376362 125.574995 362.935772 126.638673 362.935772 127.747621 
C 362.935772 128.85657 363.376362 129.920248 364.160507 130.704393 
C 364.944652 131.488539 366.00833 131.929129 367.117279 131.929129 
z
" style="fill:#a5bbff;stroke:#a5bbff;"/>
    <path clip-path="url(#p1aed9ebabc)" d="M 376.507262 127.482163 
C 377.662038 127.482163 378.769673 127.023366 379.586223 126.206816 
C 380.402773 125.390266 380.861571 124.282631 380.861571 123.127855 
C 380.861571 121.973079 380.402773 120.865444 379.586223 120.048894 
C 378.769673 119.232344 377.662038 118.773547 376.507262 118.773547 
C 375.352486 118.773547 374.244852 119.232344 373.428302 120.048894 
C 372.611752 120.865444 372.152954 121.973079 372.152954 123.127855 
C 372.152954 124.282631 372.611752 125.390266 373.428302 126.206816 
C 374.244852 127.023366 375.352486 127.482163 376.507262 127.482163 
z
" style="fill:#a4baff;stroke:#a4baff;"/>
    <path clip-path="url(#p1aed9ebabc)" d="M 384.911831 123.636595 
C 386.11072 123.636595 387.260668 123.160271 388.108411 122.312528 
C 388.956154 121.464785 389.432478 120.314837 389.432478 119.115948 
C 389.432478 117.917058 388.956154 116.76711 388.108411 115.919367 
C 387.260668 115.071625 386.11072 114.595301 384.911831 114.595301 
C 383.712941 114.595301 382.562994 115.071625 381.715251 115.919367 
C 380.867508 116.76711 380.391184 117.917058 380.391184 119.115948 
C 380.391184 120.314837 380.867508 121.464785 381.715251 122.312528 
C 382.562994 123.160271 383.712941 123.636595 384.911831 123.636595 
z
" style="fill:#a4baff;stroke:#a4baff;"/>
    <path clip-path="url(#p1aed9ebabc)" d="M 392.896454 120.028 
C 394.13782 120.028 395.32851 119.5348 396.206288 118.657022 
C 397.084066 117.779243 397.577266 116.588554 397.577266 115.347188 
C 397.577266 114.105822 397.084066 112.915132 396.206288 112.037354 
C 395.32851 111.159576 394.13782 110.666376 392.896454 110.666376 
C 391.655089 110.666376 390.464399 111.159576 389.586621 112.037354 
C 388.708842 112.915132 388.215643 114.105822 388.215643 115.347188 
C 388.215643 116.588554 388.708842 117.779243 389.586621 118.657022 
C 390.464399 119.5348 391.655089 120.028 392.896454 120.028 
z
" style="fill:#a3baff;stroke:#a3baff;"/>
    <path clip-path="url(#p1aed9ebabc)" d="M 400.412107 116.616324 
C 401.69444 116.616324 402.924425 116.106847 403.831172 115.200101 
C 404.737918 114.293354 405.247394 113.06337 405.247394 111.781037 
C 405.247394 110.498703 404.737918 109.268719 403.831172 108.361972 
C 402.924425 107.455226 401.69444 106.94575 400.412107 106.94575 
C 399.129774 106.94575 397.899789 107.455226 396.993043 108.361972 
C 396.086297 109.268719 395.57682 110.498703 395.57682 111.781037 
C 395.57682 113.06337 396.086297 114.293354 396.993043 115.200101 
C 397.899789 116.106847 399.129774 116.616324 400.412107 116.616324 
z
" style="fill:#a3b9ff;stroke:#a3b9ff;"/>
    <path clip-path="url(#p1aed9ebabc)" d="M 407.411387 113.402255 
C 408.733352 113.402255 410.00135 112.877033 410.936121 111.942263 
C 411.870891 111.007492 412.396113 109.739494 412.396113 108.417529 
C 412.396113 107.095564 411.870891 105.827565 410.936121 104.892795 
C 410.00135 103.958025 408.733352 103.432802 407.411387 103.432802 
C 406.089422 103.432802 404.821423 103.958025 403.886653 104.892795 
C 402.951883 105.827565 402.426661 107.095564 402.426661 108.417529 
C 402.426661 109.739494 402.951883 111.007492 403.886653 111.942263 
C 404.821423 112.877033 406.089422 113.402255 407.411387 113.402255 
z
" style="fill:#a2b9ff;stroke:#a2b9ff;"/>
    <path clip-path="url(#p1aed9ebabc)" d="M 413.128095 110.586511 
C 414.487859 110.586511 415.792114 110.046271 416.753612 109.084773 
C 417.715111 108.123274 418.255351 106.81902 418.255351 105.459256 
C 418.255351 104.099492 417.715111 102.795237 416.753612 101.833739 
C 415.792114 100.87224 414.487859 100.332 413.128095 100.332 
C 411.768331 100.332 410.464077 100.87224 409.502578 101.833739 
C 408.54108 102.795237 408.00084 104.099492 408.00084 105.459256 
C 408.00084 106.81902 408.54108 108.123274 409.502578 109.084773 
C 410.464077 110.046271 411.768331 110.586511 413.128095 110.586511 
z
" style="fill:#a2b9ff;stroke:#a2b9ff;"/>
    <path clip-path="url(#p1aed9ebabc)" d="M 418.217403 107.968567 
C 419.613692 107.968567 420.95298 107.413815 421.940306 106.42649 
C 422.927631 105.439165 423.482382 104.099877 423.482382 102.703588 
C 423.482382 101.307299 422.927631 99.968011 421.940306 98.980686 
C 420.95298 97.99336 419.613692 97.438609 418.217403 97.438609 
C 416.821115 97.438609 415.481826 97.99336 414.494501 98.980686 
C 413.507176 99.968011 412.952424 101.307299 412.952424 102.703588 
C 412.952424 104.099877 413.507176 105.439165 414.494501 106.42649 
C 415.481826 107.413815 416.821115 107.968567 418.217403 107.968567 
z
" style="fill:#a2b9ff;stroke:#a2b9ff;"/>
    <path clip-path="url(#p1aed9ebabc)" d="M 423.389344 105.427364 
C 424.821011 105.427364 426.194233 104.858557 427.206574 103.846215 
C 428.218916 102.833874 428.787723 101.460652 428.787723 100.028985 
C 428.787723 98.597318 428.218916 97.224095 427.206574 96.211754 
C 426.194233 95.199413 424.821011 94.630605 423.389344 94.630605 
C 421.957677 94.630605 420.584455 95.199413 419.572113 96.211754 
C 418.559772 97.224095 417.990964 98.597318 417.990964 100.028985 
C 417.990964 101.460652 418.559772 102.833874 419.572113 103.846215 
C 420.584455 104.858557 421.957677 105.427364 423.389344 105.427364 
z
" style="fill:#a1b8ff;stroke:#a1b8ff;"/>
    <path clip-path="url(#p1aed9ebabc)" d="M 427.889373 103.003621 
C 429.355325 103.003621 430.761433 102.421192 431.798017 101.384608 
C 432.834602 100.348023 433.417031 98.941915 433.417031 97.475963 
C 433.417031 96.010011 432.834602 94.603903 431.798017 93.567319 
C 430.761433 92.530734 429.355325 91.948305 427.889373 91.948305 
C 426.423421 91.948305 425.017313 92.530734 423.980728 93.567319 
C 422.944144 94.603903 422.361715 96.010011 422.361715 97.475963 
C 422.361715 98.941915 422.944144 100.348023 423.980728 101.384608 
C 425.017313 102.421192 426.423421 103.003621 427.889373 103.003621 
z
" style="fill:#a1b8ff;stroke:#a1b8ff;"/>
   </g>
   <g id="PathCollection_2">
    <path clip-path="url(#p1aed9ebabc)" d="M 111.333148 488.981913 
C 111.426912 488.981913 111.516847 488.94466 111.583148 488.878359 
C 111.649449 488.812058 111.686702 488.722123 111.686702 488.628359 
C 111.686702 488.534596 111.649449 488.44466 111.583148 488.378359 
C 111.516847 488.312058 111.426912 488.274806 111.333148 488.274806 
C 111.239385 488.274806 111.149449 488.312058 111.083148 488.378359 
C 111.016847 488.44466 110.979595 488.534596 110.979595 488.628359 
C 110.979595 488.722123 111.016847 488.812058 111.083148 488.878359 
C 111.149449 488.94466 111.239385 488.981913 111.333148 488.981913 
z
" style="fill:#9b3921;stroke:#9b3921;"/>
    <path clip-path="url(#p1aed9ebabc)" d="M 111.654396 485.597794 
C 111.75017 485.597794 111.842034 485.559742 111.909757 485.49202 
C 111.97748 485.424297 112.015531 485.332433 112.015531 485.236658 
C 112.015531 485.140884 111.97748 485.04902 111.909757 484.981297 
C 111.842034 484.913574 111.75017 484.875523 111.654396 484.875523 
C 111.558621 484.875523 111.466757 484.913574 111.399034 484.981297 
C 111.331312 485.04902 111.29326 485.140884 111.29326 485.236658 
C 111.29326 485.332433 111.331312 485.424297 111.399034 485.49202 
C 111.466757 485.559742 111.558621 485.597794 111.654396 485.597794 
z
" style="fill:#9f3b22;stroke:#9f3b22;"/>
    <path clip-path="url(#p1aed9ebabc)" d="M 111.984681 482.213838 
C 112.082509 482.213838 112.176344 482.17497 112.245519 482.105795 
C 112.314694 482.03662 112.353561 481.942786 112.353561 481.844957 
C 112.353561 481.747129 112.314694 481.653295 112.245519 481.58412 
C 112.176344 481.514945 112.082509 481.476077 111.984681 481.476077 
C 111.886853 481.476077 111.793018 481.514945 111.723843 481.58412 
C 111.654668 481.653295 111.615801 481.747129 111.615801 481.844957 
C 111.615801 481.942786 111.654668 482.03662 111.723843 482.105795 
C 111.793018 482.17497 111.886853 482.213838 111.984681 482.213838 
z
" style="fill:#a43d24;stroke:#a43d24;"/>
    <path clip-path="url(#p1aed9ebabc)" d="M 112.324259 478.830048 
C 112.424185 478.830048 112.520032 478.790347 112.590691 478.719688 
C 112.661349 478.64903 112.70105 478.553183 112.70105 478.453257 
C 112.70105 478.35333 112.661349 478.257484 112.590691 478.186825 
C 112.520032 478.116167 112.424185 478.076466 112.324259 478.076466 
C 112.224333 478.076466 112.128486 478.116167 112.057828 478.186825 
C 111.987169 478.257484 111.947468 478.35333 111.947468 478.453257 
C 111.947468 478.553183 111.987169 478.64903 112.057828 478.719688 
C 112.128486 478.790347 112.224333 478.830048 112.324259 478.830048 
z
" style="fill:#a94025;stroke:#a94025;"/>
    <path clip-path="url(#p1aed9ebabc)" d="M 112.673391 475.446427 
C 112.775461 475.446427 112.873363 475.405875 112.945537 475.333701 
C 113.017711 475.261527 113.058263 475.163625 113.058263 475.061556 
C 113.058263 474.959487 113.017711 474.861584 112.945537 474.78941 
C 112.873363 474.717237 112.775461 474.676684 112.673391 474.676684 
C 112.571322 474.676684 112.47342 474.717237 112.401246 474.78941 
C 112.329072 474.861584 112.28852 474.959487 112.28852 475.061556 
C 112.28852 475.163625 112.329072 475.261527 112.401246 475.333701 
C 112.47342 475.405875 112.571322 475.446427 112.673391 475.446427 
z
" style="fill:#ae4227;stroke:#ae4227;"/>
    <path clip-path="url(#p1aed9ebabc)" d="M 113.032346 472.06298 
C 113.136604 472.06298 113.236606 472.021558 113.310328 471.947837 
C 113.384049 471.874115 113.425472 471.774113 113.425472 471.669855 
C 113.425472 471.565597 113.384049 471.465595 113.310328 471.391873 
C 113.236606 471.318152 113.136604 471.27673 113.032346 471.27673 
C 112.928088 471.27673 112.828086 471.318152 112.754365 471.391873 
C 112.680643 471.465595 112.639221 471.565597 112.639221 471.669855 
C 112.639221 471.774113 112.680643 471.874115 112.754365 471.947837 
C 112.828086 472.021558 112.928088 472.06298 113.032346 472.06298 
z
" style="fill:#b34528;stroke:#b34528;"/>
    <path clip-path="url(#p1aed9ebabc)" d="M 113.4014 468.67971 
C 113.507894 468.67971 113.610041 468.6374 113.685343 468.562097 
C 113.760646 468.486795 113.802956 468.384648 113.802956 468.278154 
C 113.802956 468.17166 113.760646 468.069514 113.685343 467.994211 
C 113.610041 467.918908 113.507894 467.876598 113.4014 467.876598 
C 113.294906 467.876598 113.19276 467.918908 113.117457 467.994211 
C 113.042155 468.069514 112.999844 468.17166 112.999844 468.278154 
C 112.999844 468.384648 113.042155 468.486795 113.117457 468.562097 
C 113.19276 468.6374 113.294906 468.67971 113.4014 468.67971 
z
" style="fill:#b8472a;stroke:#b8472a;"/>
    <path clip-path="url(#p1aed9ebabc)" d="M 113.780838 465.296621 
C 113.889615 465.296621 113.993952 465.253403 114.07087 465.176486 
C 114.147787 465.099568 114.191005 464.995231 114.191005 464.886453 
C 114.191005 464.777676 114.147787 464.673338 114.07087 464.596421 
C 113.993952 464.519503 113.889615 464.476286 113.780838 464.476286 
C 113.67206 464.476286 113.567723 464.519503 113.490805 464.596421 
C 113.413888 464.673338 113.37067 464.777676 113.37067 464.886453 
C 113.37067 464.995231 113.413888 465.099568 113.490805 465.176486 
C 113.567723 465.253403 113.67206 465.296621 113.780838 465.296621 
z
" style="fill:#be4a2b;stroke:#be4a2b;"/>
    <path clip-path="url(#p1aed9ebabc)" d="M 114.17095 461.913716 
C 114.282061 461.913716 114.388635 461.869572 114.467202 461.791005 
C 114.54577 461.712438 114.589914 461.605863 114.589914 461.494752 
C 114.589914 461.383642 114.54577 461.277067 114.467202 461.1985 
C 114.388635 461.119933 114.282061 461.075788 114.17095 461.075788 
C 114.05984 461.075788 113.953265 461.119933 113.874698 461.1985 
C 113.796131 461.277067 113.751986 461.383642 113.751986 461.494752 
C 113.751986 461.605863 113.796131 461.712438 113.874698 461.791005 
C 113.953265 461.869572 114.05984 461.913716 114.17095 461.913716 
z
" style="fill:#c34d2d;stroke:#c34d2d;"/>
    <path clip-path="url(#p1aed9ebabc)" d="M 114.572039 458.531 
C 114.685532 458.531 114.794392 458.485909 114.874644 458.405657 
C 114.954896 458.325405 114.999987 458.216545 114.999987 458.103052 
C 114.999987 457.989558 114.954896 457.880698 114.874644 457.800446 
C 114.794392 457.720194 114.685532 457.675103 114.572039 457.675103 
C 114.458545 457.675103 114.349685 457.720194 114.269433 457.800446 
C 114.189181 457.880698 114.14409 457.989558 114.14409 458.103052 
C 114.14409 458.216545 114.189181 458.325405 114.269433 458.405657 
C 114.349685 458.485909 114.458545 458.531 114.572039 458.531 
z
" style="fill:#ca502f;stroke:#ca502f;"/>
    <path clip-path="url(#p1aed9ebabc)" d="M 114.984412 455.148477 
C 115.100339 455.148477 115.211534 455.102419 115.293507 455.020446 
C 115.37548 454.938473 115.421538 454.827278 115.421538 454.711351 
C 115.421538 454.595423 115.37548 454.484229 115.293507 454.402256 
C 115.211534 454.320283 115.100339 454.274224 114.984412 454.274224 
C 114.868484 454.274224 114.75729 454.320283 114.675317 454.402256 
C 114.593344 454.484229 114.547285 454.595423 114.547285 454.711351 
C 114.547285 454.827278 114.593344 454.938473 114.675317 455.020446 
C 114.75729 455.102419 114.868484 455.148477 114.984412 455.148477 
z
" style="fill:#d05331;stroke:#d05331;"/>
    <path clip-path="url(#p1aed9ebabc)" d="M 115.408387 451.766151 
C 115.5268 451.766151 115.640379 451.719105 115.72411 451.635374 
C 115.807841 451.551643 115.854887 451.438063 115.854887 451.31965 
C 115.854887 451.201236 115.807841 451.087657 115.72411 451.003926 
C 115.640379 450.920195 115.5268 450.873149 115.408387 450.873149 
C 115.289973 450.873149 115.176394 450.920195 115.092663 451.003926 
C 115.008932 451.087657 114.961886 451.201236 114.961886 451.31965 
C 114.961886 451.438063 115.008932 451.551643 115.092663 451.635374 
C 115.176394 451.719105 115.289973 451.766151 115.408387 451.766151 
z
" style="fill:#d65733;stroke:#d65733;"/>
    <path clip-path="url(#p1aed9ebabc)" d="M 115.84429 448.384025 
C 115.965243 448.384025 116.081258 448.33597 116.166785 448.250444 
C 116.252311 448.164917 116.300366 448.048902 116.300366 447.927949 
C 116.300366 447.806996 116.252311 447.690981 116.166785 447.605454 
C 116.081258 447.519928 115.965243 447.471873 115.84429 447.471873 
C 115.723337 447.471873 115.607322 447.519928 115.521795 447.605454 
C 115.436269 447.690981 115.388214 447.806996 115.388214 447.927949 
C 115.388214 448.048902 115.436269 448.164917 115.521795 448.250444 
C 115.607322 448.33597 115.723337 448.384025 115.84429 448.384025 
z
" style="fill:#dd5a35;stroke:#dd5a35;"/>
    <path clip-path="url(#p1aed9ebabc)" d="M 116.292457 445.002105 
C 116.416004 445.002105 116.534507 444.95302 116.621868 444.865659 
C 116.709229 444.778298 116.758314 444.659795 116.758314 444.536248 
C 116.758314 444.412701 116.709229 444.294198 116.621868 444.206838 
C 116.534507 444.119477 116.416004 444.070391 116.292457 444.070391 
C 116.168911 444.070391 116.050408 444.119477 115.963047 444.206838 
C 115.875686 444.294198 115.8266 444.412701 115.8266 444.536248 
C 115.8266 444.659795 115.875686 444.778298 115.963047 444.865659 
C 116.050408 444.95302 116.168911 445.002105 116.292457 445.002105 
z
" style="fill:#e55e37;stroke:#e55e37;"/>
    <path clip-path="url(#p1aed9ebabc)" d="M 116.753234 441.620395 
C 116.87943 441.620395 117.000475 441.570257 117.089709 441.481022 
C 117.178943 441.391788 117.229082 441.270744 117.229082 441.144547 
C 117.229082 441.018351 117.178943 440.897307 117.089709 440.808072 
C 117.000475 440.718838 116.87943 440.6687 116.753234 440.6687 
C 116.627038 440.6687 116.505993 440.718838 116.416759 440.808072 
C 116.327525 440.897307 116.277386 441.018351 116.277386 441.144547 
C 116.277386 441.270744 116.327525 441.391788 116.416759 441.481022 
C 116.505993 441.570257 116.627038 441.620395 116.753234 441.620395 
z
" style="fill:#ec6239;stroke:#ec6239;"/>
    <path clip-path="url(#p1aed9ebabc)" d="M 117.226974 438.238899 
C 117.355877 438.238899 117.479517 438.187685 117.570665 438.096537 
C 117.661813 438.00539 117.713027 437.881749 117.713027 437.752847 
C 117.713027 437.623944 117.661813 437.500304 117.570665 437.409156 
C 117.479517 437.318008 117.355877 437.266794 117.226974 437.266794 
C 117.098072 437.266794 116.974431 437.318008 116.883284 437.409156 
C 116.792136 437.500304 116.740922 437.623944 116.740922 437.752847 
C 116.740922 437.881749 116.792136 438.00539 116.883284 438.096537 
C 116.974431 438.187685 117.098072 438.238899 117.226974 438.238899 
z
" style="fill:#f4653c;stroke:#f4653c;"/>
    <path clip-path="url(#p1aed9ebabc)" d="M 117.714043 434.857622 
C 117.84571 434.857622 117.972002 434.80531 118.065105 434.712207 
C 118.158208 434.619105 118.210519 434.492813 118.210519 434.361146 
C 118.210519 434.229479 118.158208 434.103187 118.065105 434.010084 
C 117.972002 433.916982 117.84571 433.86467 117.714043 433.86467 
C 117.582376 433.86467 117.456085 433.916982 117.362982 434.010084 
C 117.269879 434.103187 117.217567 434.229479 117.217567 434.361146 
C 117.217567 434.492813 117.269879 434.619105 117.362982 434.712207 
C 117.456085 434.80531 117.582376 434.857622 117.714043 434.857622 
z
" style="fill:#fc6a3e;stroke:#fc6a3e;"/>
    <path clip-path="url(#p1aed9ebabc)" d="M 118.214816 431.476568 
C 118.349307 431.476568 118.478307 431.423134 118.573406 431.328035 
C 118.668506 431.232936 118.721939 431.103935 118.721939 430.969445 
C 118.721939 430.834954 118.668506 430.705954 118.573406 430.610855 
C 118.478307 430.515755 118.349307 430.462322 118.214816 430.462322 
C 118.080325 430.462322 117.951325 430.515755 117.856226 430.610855 
C 117.761127 430.705954 117.707693 430.834954 117.707693 430.969445 
C 117.707693 431.103935 117.761127 431.232936 117.856226 431.328035 
C 117.951325 431.423134 118.080325 431.476568 118.214816 431.476568 
z
" style="fill:#ff6f42;stroke:#ff6f42;"/>
    <path clip-path="url(#p1aed9ebabc)" d="M 118.729678 428.095743 
C 118.867053 428.095743 118.998819 428.041163 119.095958 427.944024 
C 119.193097 427.846886 119.247677 427.715119 119.247677 427.577744 
C 119.247677 427.440369 119.193097 427.308602 119.095958 427.211464 
C 118.998819 427.114325 118.867053 427.059745 118.729678 427.059745 
C 118.592303 427.059745 118.460536 427.114325 118.363397 427.211464 
C 118.266259 427.308602 118.211679 427.440369 118.211679 427.577744 
C 118.211679 427.715119 118.266259 427.846886 118.363397 427.944024 
C 118.460536 428.041163 118.592303 428.095743 118.729678 428.095743 
z
" style="fill:#ff7546;stroke:#ff7546;"/>
    <path clip-path="url(#p1aed9ebabc)" d="M 119.259025 424.715151 
C 119.399346 424.715151 119.533939 424.659401 119.633161 424.560179 
C 119.732382 424.460957 119.788133 424.326364 119.788133 424.186043 
C 119.788133 424.045722 119.732382 423.91113 119.633161 423.811908 
C 119.533939 423.712686 119.399346 423.656936 119.259025 423.656936 
C 119.118704 423.656936 118.984111 423.712686 118.88489 423.811908 
C 118.785668 423.91113 118.729918 424.045722 118.729918 424.186043 
C 118.729918 424.326364 118.785668 424.460957 118.88489 424.560179 
C 118.984111 424.659401 119.118704 424.715151 119.259025 424.715151 
z
" style="fill:#ff7c4b;stroke:#ff7c4b;"/>
    <path clip-path="url(#p1aed9ebabc)" d="M 119.803265 421.334797 
C 119.946596 421.334797 120.084075 421.277851 120.185424 421.176501 
C 120.286774 421.075152 120.34372 420.937673 120.34372 420.794342 
C 120.34372 420.651012 120.286774 420.513533 120.185424 420.412183 
C 120.084075 420.310834 119.946596 420.253888 119.803265 420.253888 
C 119.659935 420.253888 119.522456 420.310834 119.421106 420.412183 
C 119.319757 420.513533 119.262811 420.651012 119.262811 420.794342 
C 119.262811 420.937673 119.319757 421.075152 119.421106 421.176501 
C 119.522456 421.277851 119.659935 421.334797 119.803265 421.334797 
z
" style="fill:#ff8350;stroke:#ff8350;"/>
    <path clip-path="url(#p1aed9ebabc)" d="M 120.362818 417.954686 
C 120.509222 417.954686 120.649649 417.896519 120.753172 417.792996 
C 120.856696 417.689473 120.914863 417.549045 120.914863 417.402641 
C 120.914863 417.256238 120.856696 417.11581 120.753172 417.012287 
C 120.649649 416.908764 120.509222 416.850597 120.362818 416.850597 
C 120.216414 416.850597 120.075987 416.908764 119.972463 417.012287 
C 119.86894 417.11581 119.810773 417.256238 119.810773 417.402641 
C 119.810773 417.549045 119.86894 417.689473 119.972463 417.792996 
C 120.075987 417.896519 120.216414 417.954686 120.362818 417.954686 
z
" style="fill:#ff8a55;stroke:#ff8a55;"/>
    <path clip-path="url(#p1aed9ebabc)" d="M 120.938113 414.574824 
C 121.087657 414.574824 121.231096 414.51541 121.336839 414.409667 
C 121.442582 414.303923 121.501997 414.160484 121.501997 414.010941 
C 121.501997 413.861397 121.442582 413.717958 121.336839 413.612215 
C 121.231096 413.506471 121.087657 413.447057 120.938113 413.447057 
C 120.788569 413.447057 120.645131 413.506471 120.539387 413.612215 
C 120.433644 413.717958 120.37423 413.861397 120.37423 414.010941 
C 120.37423 414.160484 120.433644 414.303923 120.539387 414.409667 
C 120.645131 414.51541 120.788569 414.574824 120.938113 414.574824 
z
" style="fill:#ff915a;stroke:#ff915a;"/>
    <path clip-path="url(#p1aed9ebabc)" d="M 121.529594 411.195216 
C 121.682345 411.195216 121.82886 411.134528 121.936871 411.026517 
C 122.044882 410.918506 122.105571 410.771991 122.105571 410.61924 
C 122.105571 410.466489 122.044882 410.319974 121.936871 410.211963 
C 121.82886 410.103952 121.682345 410.043263 121.529594 410.043263 
C 121.376844 410.043263 121.230329 410.103952 121.122318 410.211963 
C 121.014306 410.319974 120.953618 410.466489 120.953618 410.61924 
C 120.953618 410.771991 121.014306 410.918506 121.122318 411.026517 
C 121.230329 411.134528 121.376844 411.195216 121.529594 411.195216 
z
" style="fill:#ff9960;stroke:#ff9960;"/>
    <path clip-path="url(#p1aed9ebabc)" d="M 122.137717 407.815867 
C 122.293743 407.815867 122.4434 407.753877 122.553728 407.64355 
C 122.664055 407.533223 122.726045 407.383566 122.726045 407.227539 
C 122.726045 407.071512 122.664055 406.921855 122.553728 406.811528 
C 122.4434 406.7012 122.293743 406.63921 122.137717 406.63921 
C 121.98169 406.63921 121.832033 406.7012 121.721706 406.811528 
C 121.611378 406.921855 121.549388 407.071512 121.549388 407.227539 
C 121.549388 407.383566 121.611378 407.533223 121.721706 407.64355 
C 121.832033 407.753877 121.98169 407.815867 122.137717 407.815867 
z
" style="fill:#ffa165;stroke:#ffa165;"/>
    <path clip-path="url(#p1aed9ebabc)" d="M 122.762948 404.436784 
C 122.922321 404.436784 123.075188 404.373464 123.187881 404.260771 
C 123.300575 404.148077 123.363894 403.995211 123.363894 403.835838 
C 123.363894 403.676466 123.300575 403.523599 123.187881 403.410905 
C 123.075188 403.298212 122.922321 403.234893 122.762948 403.234893 
C 122.603576 403.234893 122.450709 403.298212 122.338016 403.410905 
C 122.225322 403.523599 122.162003 403.676466 122.162003 403.835838 
C 122.162003 403.995211 122.225322 404.148077 122.338016 404.260771 
C 122.450709 404.373464 122.603576 404.436784 122.762948 404.436784 
z
" style="fill:#ffa96b;stroke:#ffa96b;"/>
    <path clip-path="url(#p1aed9ebabc)" d="M 123.405771 401.05797 
C 123.568561 401.05797 123.724706 400.993293 123.839817 400.878183 
C 123.954927 400.763073 124.019604 400.606928 124.019604 400.444137 
C 124.019604 400.281347 123.954927 400.125202 123.839817 400.010092 
C 123.724706 399.894982 123.568561 399.830304 123.405771 399.830304 
C 123.242981 399.830304 123.086836 399.894982 122.971725 400.010092 
C 122.856615 400.125202 122.791938 400.281347 122.791938 400.444137 
C 122.791938 400.606928 122.856615 400.763073 122.971725 400.878183 
C 123.086836 400.993293 123.242981 401.05797 123.405771 401.05797 
z
" style="fill:#ffb171;stroke:#ffb171;"/>
    <path clip-path="url(#p1aed9ebabc)" d="M 124.066679 397.679434 
C 124.232961 397.679434 124.392454 397.613369 124.510033 397.49579 
C 124.627612 397.378211 124.693676 397.218718 124.693676 397.052436 
C 124.693676 396.886155 124.627612 396.726661 124.510033 396.609083 
C 124.392454 396.491504 124.232961 396.425439 124.066679 396.425439 
C 123.900398 396.425439 123.740904 396.491504 123.623325 396.609083 
C 123.505746 396.726661 123.439682 396.886155 123.439682 397.052436 
C 123.439682 397.218718 123.505746 397.378211 123.623325 397.49579 
C 123.740904 397.613369 123.900398 397.679434 124.066679 397.679434 
z
" style="fill:#ffb474;stroke:#ffb474;"/>
    <path clip-path="url(#p1aed9ebabc)" d="M 124.746182 394.301179 
C 124.916029 394.301179 125.078943 394.233698 125.199044 394.113597 
C 125.319144 393.993497 125.386625 393.830583 125.386625 393.660736 
C 125.386625 393.490888 125.319144 393.327974 125.199044 393.207874 
C 125.078943 393.087773 124.916029 393.020292 124.746182 393.020292 
C 124.576334 393.020292 124.41342 393.087773 124.29332 393.207874 
C 124.17322 393.327974 124.105739 393.490888 124.105739 393.660736 
C 124.105739 393.830583 124.17322 393.993497 124.29332 394.113597 
C 124.41342 394.233698 124.576334 394.301179 124.746182 394.301179 
z
" style="fill:#ffb777;stroke:#ffb777;"/>
    <path clip-path="url(#p1aed9ebabc)" d="M 125.444802 390.923213 
C 125.618292 390.923213 125.7847 390.854284 125.907376 390.731608 
C 126.030052 390.608932 126.09898 390.442525 126.09898 390.269035 
C 126.09898 390.095545 126.030052 389.929137 125.907376 389.806461 
C 125.7847 389.683785 125.618292 389.614857 125.444802 389.614857 
C 125.271312 389.614857 125.104905 389.683785 124.982229 389.806461 
C 124.859553 389.929137 124.790624 390.095545 124.790624 390.269035 
C 124.790624 390.442525 124.859553 390.608932 124.982229 390.731608 
C 125.104905 390.854284 125.271312 390.923213 125.444802 390.923213 
z
" style="fill:#ffb979;stroke:#ffb979;"/>
    <path clip-path="url(#p1aed9ebabc)" d="M 126.163078 387.545541 
C 126.340289 387.545541 126.510265 387.475135 126.635572 387.349828 
C 126.760879 387.224521 126.831285 387.054545 126.831285 386.877334 
C 126.831285 386.700123 126.760879 386.530147 126.635572 386.40484 
C 126.510265 386.279533 126.340289 386.209127 126.163078 386.209127 
C 125.985868 386.209127 125.815891 386.279533 125.690584 386.40484 
C 125.565278 386.530147 125.494871 386.700123 125.494871 386.877334 
C 125.494871 387.054545 125.565278 387.224521 125.690584 387.349828 
C 125.815891 387.475135 125.985868 387.545541 126.163078 387.545541 
z
" style="fill:#ffbb7b;stroke:#ffbb7b;"/>
    <path clip-path="url(#p1aed9ebabc)" d="M 126.901563 384.16817 
C 127.082574 384.16817 127.256195 384.096254 127.384189 383.96826 
C 127.512183 383.840266 127.5841 383.666644 127.5841 383.485633 
C 127.5841 383.304622 127.512183 383.131 127.384189 383.003006 
C 127.256195 382.875012 127.082574 382.803096 126.901563 382.803096 
C 126.720552 382.803096 126.54693 382.875012 126.418936 383.003006 
C 126.290942 383.131 126.219025 383.304622 126.219025 383.485633 
C 126.219025 383.666644 126.290942 383.840266 126.418936 383.96826 
C 126.54693 384.096254 126.720552 384.16817 126.901563 384.16817 
z
" style="fill:#ffbb7b;stroke:#ffbb7b;"/>
    <path clip-path="url(#p1aed9ebabc)" d="M 127.660824 380.791107 
C 127.845717 380.791107 128.023062 380.717648 128.153801 380.586909 
C 128.28454 380.45617 128.357999 380.278825 128.357999 380.093932 
C 128.357999 379.909039 128.28454 379.731694 128.153801 379.600955 
C 128.023062 379.470216 127.845717 379.396758 127.660824 379.396758 
C 127.475931 379.396758 127.298586 379.470216 127.167847 379.600955 
C 127.037108 379.731694 126.96365 379.909039 126.96365 380.093932 
C 126.96365 380.278825 127.037108 380.45617 127.167847 380.586909 
C 127.298586 380.717648 127.475931 380.791107 127.660824 380.791107 
z
" style="fill:#ffbb7b;stroke:#ffbb7b;"/>
    <path clip-path="url(#p1aed9ebabc)" d="M 128.441448 377.414357 
C 128.630306 377.414357 128.811454 377.339323 128.944997 377.20578 
C 129.078539 377.072238 129.153573 376.891089 129.153573 376.702231 
C 129.153573 376.513373 129.078539 376.332225 128.944997 376.198682 
C 128.811454 376.06514 128.630306 375.990106 128.441448 375.990106 
C 128.25259 375.990106 128.071441 376.06514 127.937899 376.198682 
C 127.804356 376.332225 127.729322 376.513373 127.729322 376.702231 
C 127.729322 376.891089 127.804356 377.072238 127.937899 377.20578 
C 128.071441 377.339323 128.25259 377.414357 128.441448 377.414357 
z
" style="fill:#ffbb7b;stroke:#ffbb7b;"/>
    <path clip-path="url(#p1aed9ebabc)" d="M 129.244034 374.037928 
C 129.436942 374.037928 129.621975 373.961285 129.758381 373.824878 
C 129.894788 373.688472 129.971431 373.503439 129.971431 373.310531 
C 129.971431 373.117622 129.894788 372.932589 129.758381 372.796183 
C 129.621975 372.659776 129.436942 372.583133 129.244034 372.583133 
C 129.051125 372.583133 128.866092 372.659776 128.729686 372.796183 
C 128.593279 372.932589 128.516636 373.117622 128.516636 373.310531 
C 128.516636 373.503439 128.593279 373.688472 128.729686 373.824878 
C 128.866092 373.961285 129.051125 374.037928 129.244034 374.037928 
z
" style="fill:#ffbc7c;stroke:#ffbc7c;"/>
    <path clip-path="url(#p1aed9ebabc)" d="M 130.0692 370.661827 
C 130.266245 370.661827 130.455246 370.58354 130.594578 370.444208 
C 130.73391 370.304876 130.812197 370.115875 130.812197 369.91883 
C 130.812197 369.721785 130.73391 369.532783 130.594578 369.393451 
C 130.455246 369.254119 130.266245 369.175833 130.0692 369.175833 
C 129.872155 369.175833 129.683154 369.254119 129.543822 369.393451 
C 129.40449 369.532783 129.326203 369.721785 129.326203 369.91883 
C 129.326203 370.115875 129.40449 370.304876 129.543822 370.444208 
C 129.683154 370.58354 129.872155 370.661827 130.0692 370.661827 
z
" style="fill:#ffbc7d;stroke:#ffbc7d;"/>
    <path clip-path="url(#p1aed9ebabc)" d="M 130.917582 367.28606 
C 131.118853 367.28606 131.311908 367.206094 131.454228 367.063774 
C 131.596548 366.921454 131.676514 366.7284 131.676514 366.527129 
C 131.676514 366.325858 131.596548 366.132804 131.454228 365.990484 
C 131.311908 365.848164 131.118853 365.768198 130.917582 365.768198 
C 130.716312 365.768198 130.523257 365.848164 130.380937 365.990484 
C 130.238617 366.132804 130.158651 366.325858 130.158651 366.527129 
C 130.158651 366.7284 130.238617 366.921454 130.380937 367.063774 
C 130.523257 367.206094 130.716312 367.28606 130.917582 367.28606 
z
" style="fill:#ffbd7d;stroke:#ffbd7d;"/>
    <path clip-path="url(#p1aed9ebabc)" d="M 131.789834 363.910635 
C 131.995421 363.910635 132.192616 363.828954 132.337988 363.683582 
C 132.48336 363.53821 132.565041 363.341015 132.565041 363.135428 
C 132.565041 362.929841 132.48336 362.732646 132.337988 362.587274 
C 132.192616 362.441902 131.995421 362.360221 131.789834 362.360221 
C 131.584247 362.360221 131.387052 362.441902 131.24168 362.587274 
C 131.096308 362.732646 131.014627 362.929841 131.014627 363.135428 
C 131.014627 363.341015 131.096308 363.53821 131.24168 363.683582 
C 131.387052 363.828954 131.584247 363.910635 131.789834 363.910635 
z
" style="fill:#ffbd7e;stroke:#ffbd7e;"/>
    <path clip-path="url(#p1aed9ebabc)" d="M 132.686626 360.535559 
C 132.896622 360.535559 133.098046 360.452126 133.246535 360.303637 
C 133.395025 360.155147 133.478458 359.953723 133.478458 359.743727 
C 133.478458 359.533731 133.395025 359.332307 133.246535 359.183818 
C 133.098046 359.035328 132.896622 358.951896 132.686626 358.951896 
C 132.47663 358.951896 132.275206 359.035328 132.126717 359.183818 
C 131.978227 359.332307 131.894795 359.533731 131.894795 359.743727 
C 131.894795 359.953723 131.978227 360.155147 132.126717 360.303637 
C 132.275206 360.452126 132.47663 360.535559 132.686626 360.535559 
z
" style="fill:#ffbe7f;stroke:#ffbe7f;"/>
    <path clip-path="url(#p1aed9ebabc)" d="M 133.608649 357.160839 
C 133.823149 357.160839 134.028892 357.075617 134.180566 356.923943 
C 134.33224 356.772269 134.417462 356.566526 134.417462 356.352026 
C 134.417462 356.137527 134.33224 355.931784 134.180566 355.780109 
C 134.028892 355.628435 133.823149 355.543214 133.608649 355.543214 
C 133.39415 355.543214 133.188406 355.628435 133.036732 355.780109 
C 132.885058 355.931784 132.799837 356.137527 132.799837 356.352026 
C 132.799837 356.566526 132.885058 356.772269 133.036732 356.923943 
C 133.188406 357.075617 133.39415 357.160839 133.608649 357.160839 
z
" style="fill:#ffc083;stroke:#ffc083;"/>
    <path clip-path="url(#p1aed9ebabc)" d="M 134.556613 353.786484 
C 134.775713 353.786484 134.985868 353.699434 135.140795 353.544508 
C 135.295722 353.389581 135.382771 353.179425 135.382771 352.960326 
C 135.382771 352.741226 135.295722 352.53107 135.140795 352.376144 
C 134.985868 352.221217 134.775713 352.134167 134.556613 352.134167 
C 134.337514 352.134167 134.127358 352.221217 133.972431 352.376144 
C 133.817504 352.53107 133.730455 352.741226 133.730455 352.960326 
C 133.730455 353.179425 133.817504 353.389581 133.972431 353.544508 
C 134.127358 353.699434 134.337514 353.786484 134.556613 353.786484 
z
" style="fill:#ffc287;stroke:#ffc287;"/>
    <path clip-path="url(#p1aed9ebabc)" d="M 135.531248 350.4125 
C 135.755047 350.4125 135.969709 350.323584 136.127958 350.165335 
C 136.286208 350.007085 136.375124 349.792423 136.375124 349.568625 
C 136.375124 349.344826 136.286208 349.130164 136.127958 348.971915 
C 135.969709 348.813665 135.755047 348.724749 135.531248 348.724749 
C 135.30745 348.724749 135.092788 348.813665 134.934538 348.971915 
C 134.776289 349.130164 134.687373 349.344826 134.687373 349.568625 
C 134.687373 349.792423 134.776289 350.007085 134.934538 350.165335 
C 135.092788 350.323584 135.30745 350.4125 135.531248 350.4125 
z
" style="fill:#ffc48b;stroke:#ffc48b;"/>
    <path clip-path="url(#p1aed9ebabc)" d="M 136.533304 347.038897 
C 136.761902 347.038897 136.981168 346.948074 137.142811 346.786431 
C 137.304454 346.624788 137.395277 346.405522 137.395277 346.176924 
C 137.395277 345.948326 137.304454 345.72906 137.142811 345.567417 
C 136.981168 345.405774 136.761902 345.314951 136.533304 345.314951 
C 136.304706 345.314951 136.085441 345.405774 135.923797 345.567417 
C 135.762154 345.72906 135.671331 345.948326 135.671331 346.176924 
C 135.671331 346.405522 135.762154 346.624788 135.923797 346.786431 
C 136.085441 346.948074 136.304706 347.038897 136.533304 347.038897 
z
" style="fill:#ffc68f;stroke:#ffc68f;"/>
    <path clip-path="url(#p1aed9ebabc)" d="M 137.563553 343.665681 
C 137.797053 343.665681 138.021021 343.572911 138.186131 343.407801 
C 138.351241 343.242691 138.444011 343.018723 138.444011 342.785223 
C 138.444011 342.551723 138.351241 342.327755 138.186131 342.162645 
C 138.021021 341.997535 137.797053 341.904765 137.563553 341.904765 
C 137.330053 341.904765 137.106085 341.997535 136.940975 342.162645 
C 136.775865 342.327755 136.683095 342.551723 136.683095 342.785223 
C 136.683095 343.018723 136.775865 343.242691 136.940975 343.407801 
C 137.106085 343.572911 137.330053 343.665681 137.563553 343.665681 
z
" style="fill:#ffc996;stroke:#ffc996;"/>
    <path clip-path="url(#p1aed9ebabc)" d="M 138.622788 340.292862 
C 138.861295 340.292862 139.090067 340.198102 139.258717 340.029452 
C 139.427368 339.860801 139.522128 339.63203 139.522128 339.393522 
C 139.522128 339.155014 139.427368 338.926243 139.258717 338.757593 
C 139.090067 338.588942 138.861295 338.494182 138.622788 338.494182 
C 138.38428 338.494182 138.155508 338.588942 137.986858 338.757593 
C 137.818208 338.926243 137.723447 339.155014 137.723447 339.393522 
C 137.723447 339.63203 137.818208 339.860801 137.986858 340.029452 
C 138.155508 340.198102 138.38428 340.292862 138.622788 340.292862 
z
" style="fill:#ffce9e;stroke:#ffce9e;"/>
    <path clip-path="url(#p1aed9ebabc)" d="M 139.711823 336.920448 
C 139.955446 336.920448 140.189123 336.823656 140.361391 336.651389 
C 140.533658 336.479121 140.63045 336.245444 140.63045 336.001821 
C 140.63045 335.758199 140.533658 335.524521 140.361391 335.352254 
C 140.189123 335.179987 139.955446 335.083194 139.711823 335.083194 
C 139.468201 335.083194 139.234523 335.179987 139.062256 335.352254 
C 138.889989 335.524521 138.793196 335.758199 138.793196 336.001821 
C 138.793196 336.245444 138.889989 336.479121 139.062256 336.651389 
C 139.234523 336.823656 139.468201 336.920448 139.711823 336.920448 
z
" style="fill:#ffd3a7;stroke:#ffd3a7;"/>
    <path clip-path="url(#p1aed9ebabc)" d="M 140.831499 333.548448 
C 141.080346 333.548448 141.319035 333.44958 141.494997 333.273618 
C 141.670958 333.097656 141.769826 332.858968 141.769826 332.61012 
C 141.769826 332.361273 141.670958 332.122584 141.494997 331.946623 
C 141.319035 331.770661 141.080346 331.671793 140.831499 331.671793 
C 140.582652 331.671793 140.343963 331.770661 140.168001 331.946623 
C 139.99204 332.122584 139.893172 332.361273 139.893172 332.61012 
C 139.893172 332.858968 139.99204 333.097656 140.168001 333.273618 
C 140.343963 333.44958 140.582652 333.548448 140.831499 333.548448 
z
" style="fill:#ffd8af;stroke:#ffd8af;"/>
    <path clip-path="url(#p1aed9ebabc)" d="M 141.982677 330.17687 
C 142.236861 330.17687 142.480668 330.075882 142.660403 329.896146 
C 142.840139 329.716411 142.941127 329.472604 142.941127 329.21842 
C 142.941127 328.964236 142.840139 328.720428 142.660403 328.540693 
C 142.480668 328.360958 142.236861 328.259969 141.982677 328.259969 
C 141.728493 328.259969 141.484685 328.360958 141.30495 328.540693 
C 141.125215 328.720428 141.024226 328.964236 141.024226 329.21842 
C 141.024226 329.472604 141.125215 329.716411 141.30495 329.896146 
C 141.484685 330.075882 141.728493 330.17687 141.982677 330.17687 
z
" style="fill:#ffdcb6;stroke:#ffdcb6;"/>
    <path clip-path="url(#p1aed9ebabc)" d="M 143.166242 326.805724 
C 143.425877 326.805724 143.674913 326.702569 143.858503 326.51898 
C 144.042093 326.33539 144.145247 326.086354 144.145247 325.826719 
C 144.145247 325.567084 144.042093 325.318048 143.858503 325.134458 
C 143.674913 324.950868 143.425877 324.847714 143.166242 324.847714 
C 142.906607 324.847714 142.657571 324.950868 142.473981 325.134458 
C 142.290392 325.318048 142.187238 325.567084 142.187238 325.826719 
C 142.187238 326.086354 142.290392 326.33539 142.473981 326.51898 
C 142.657571 326.702569 142.906607 326.805724 143.166242 326.805724 
z
" style="fill:#ffe0be;stroke:#ffe0be;"/>
    <path clip-path="url(#p1aed9ebabc)" d="M 144.383107 323.435018 
C 144.64831 323.435018 144.902687 323.329652 145.090214 323.142125 
C 145.277741 322.954598 145.383107 322.700221 145.383107 322.435018 
C 145.383107 322.169815 145.277741 321.915438 145.090214 321.727911 
C 144.902687 321.540384 144.64831 321.435018 144.383107 321.435018 
C 144.117904 321.435018 143.863527 321.540384 143.676001 321.727911 
C 143.488474 321.915438 143.383107 322.169815 143.383107 322.435018 
C 143.383107 322.700221 143.488474 322.954598 143.676001 323.142125 
C 143.863527 323.329652 144.117904 323.435018 144.383107 323.435018 
z
" style="fill:#ffe4c5;stroke:#ffe4c5;"/>
   </g>
   <g id="PathCollection_3">
    <path clip-path="url(#p1aed9ebabc)" d="M 431.068343 101.796204 
C 432.550873 101.796204 433.972883 101.207188 435.02119 100.158881 
C 436.069497 99.110574 436.658513 97.688564 436.658513 96.206034 
C 436.658513 94.723503 436.069497 93.301494 435.02119 92.253187 
C 433.972883 91.204879 432.550873 90.615864 431.068343 90.615864 
C 429.585812 90.615864 428.163803 91.204879 427.115496 92.253187 
C 426.067188 93.301494 425.478173 94.723503 425.478173 96.206034 
C 425.478173 97.688564 426.067188 99.110574 427.115496 100.158881 
C 428.163803 101.207188 429.585812 101.796204 431.068343 101.796204 
z
" style="fill:#a1b8ff;stroke:#a1b8ff;"/>
    <path clip-path="url(#p1aed9ebabc)" d="M 453.037648 90.952814 
C 454.691628 90.952814 456.278087 90.295681 457.447626 89.126141 
C 458.617166 87.956601 459.274299 86.370142 459.274299 84.716163 
C 459.274299 83.062184 458.617166 81.475725 457.447626 80.306185 
C 456.278087 79.136645 454.691628 78.479513 453.037648 78.479513 
C 451.383669 78.479513 449.79721 79.136645 448.627671 80.306185 
C 447.458131 81.475725 446.800998 83.062184 446.800998 84.716163 
C 446.800998 86.370142 447.458131 87.956601 448.627671 89.126141 
C 449.79721 90.295681 451.383669 90.952814 453.037648 90.952814 
z
" style="fill:#a0b7ff;stroke:#a0b7ff;"/>
    <path clip-path="url(#p1aed9ebabc)" d="M 476.464437 80.184187 
C 478.309692 80.184187 480.079619 79.451059 481.384411 78.146267 
C 482.689204 76.841474 483.422331 75.071548 483.422331 73.226293 
C 483.422331 71.381037 482.689204 69.611111 481.384411 68.306318 
C 480.079619 67.001526 478.309692 66.268398 476.464437 66.268398 
C 474.619182 66.268398 472.849255 67.001526 471.544463 68.306318 
C 470.239671 69.611111 469.506543 71.381037 469.506543 73.226293 
C 469.506543 75.071548 470.239671 76.841474 471.544463 78.146267 
C 472.849255 79.451059 474.619182 80.184187 476.464437 80.184187 
z
" style="fill:#9fb6ff;stroke:#9fb6ff;"/>
    <path clip-path="url(#p1aed9ebabc)" d="M 501.445401 69.498969 
C 503.504052 69.498969 505.478664 68.681058 506.93435 67.225371 
C 508.390037 65.769685 509.207948 63.795073 509.207948 61.736422 
C 509.207948 59.67777 508.390037 57.703159 506.93435 56.247472 
C 505.478664 54.791786 503.504052 53.973875 501.445401 53.973875 
C 499.38675 53.973875 497.412138 54.791786 495.956452 56.247472 
C 494.500765 57.703159 493.682854 59.67777 493.682854 61.736422 
C 493.682854 63.795073 494.500765 65.769685 495.956452 67.225371 
C 497.412138 68.681058 499.38675 69.498969 501.445401 69.498969 
z
" style="fill:#9db4ff;stroke:#9db4ff;"/>
    <path clip-path="url(#p1aed9ebabc)" d="M 528.083647 58.906805 
C 530.380373 58.906805 532.58334 57.994306 534.207371 56.370276 
C 535.831402 54.746245 536.743901 52.543277 536.743901 50.246551 
C 536.743901 47.949825 535.831402 45.746858 534.207371 44.122827 
C 532.58334 42.498796 530.380373 41.586297 528.083647 41.586297 
C 525.78692 41.586297 523.583953 42.498796 521.959922 44.122827 
C 520.335892 45.746858 519.423393 47.949825 519.423393 50.246551 
C 519.423393 52.543277 520.335892 54.746245 521.959922 56.370276 
C 523.583953 57.994306 525.78692 58.906805 528.083647 58.906805 
z
" style="fill:#9cb3ff;stroke:#9cb3ff;"/>
   </g>
   <g id="matplotlib.axis_1">
    <g id="xtick_1">
     <g id="line2d_1">
      <defs>
       <path d="M 0 0 
L 0 3.5 
" id="mda4693015e" style="stroke:#000000;stroke-width:0.8;"/>
      </defs>
      <g>
       <use style="stroke:#000000;stroke-width:0.8;" x="99.914995" xlink:href="#mda4693015e" y="511"/>
      </g>
     </g>
     <g id="text_1">
      <!-- 0 -->
      <defs>
       <path d="M 31.78125 66.40625 
Q 24.171875 66.40625 20.328125 58.90625 
Q 16.5 51.421875 16.5 36.375 
Q 16.5 21.390625 20.328125 13.890625 
Q 24.171875 6.390625 31.78125 6.390625 
Q 39.453125 6.390625 43.28125 13.890625 
Q 47.125 21.390625 47.125 36.375 
Q 47.125 51.421875 43.28125 58.90625 
Q 39.453125 66.40625 31.78125 66.40625 
z
M 31.78125 74.21875 
Q 44.046875 74.21875 50.515625 64.515625 
Q 56.984375 54.828125 56.984375 36.375 
Q 56.984375 17.96875 50.515625 8.265625 
Q 44.046875 -1.421875 31.78125 -1.421875 
Q 19.53125 -1.421875 13.0625 8.265625 
Q 6.59375 17.96875 6.59375 36.375 
Q 6.59375 54.828125 13.0625 64.515625 
Q 19.53125 74.21875 31.78125 74.21875 
z
" id="DejaVuSans-30"/>
      </defs>
      <g transform="translate(94.188745 531.677187)scale(0.18 -0.18)">
       <use xlink:href="#DejaVuSans-30"/>
      </g>
     </g>
    </g>
    <g id="xtick_2">
     <g id="line2d_2">
      <g>
       <use style="stroke:#000000;stroke-width:0.8;" x="191.292666" xlink:href="#mda4693015e" y="511"/>
      </g>
     </g>
     <g id="text_2">
      <!-- 10000 -->
      <defs>
       <path d="M 12.40625 8.296875 
L 28.515625 8.296875 
L 28.515625 63.921875 
L 10.984375 60.40625 
L 10.984375 69.390625 
L 28.421875 72.90625 
L 38.28125 72.90625 
L 38.28125 8.296875 
L 54.390625 8.296875 
L 54.390625 0 
L 12.40625 0 
z
" id="DejaVuSans-31"/>
      </defs>
      <g transform="translate(162.661416 531.677187)scale(0.18 -0.18)">
       <use xlink:href="#DejaVuSans-31"/>
       <use x="63.623047" xlink:href="#DejaVuSans-30"/>
       <use x="127.246094" xlink:href="#DejaVuSans-30"/>
       <use x="190.869141" xlink:href="#DejaVuSans-30"/>
       <use x="254.492188" xlink:href="#DejaVuSans-30"/>
      </g>
     </g>
    </g>
    <g id="xtick_3">
     <g id="line2d_3">
      <g>
       <use style="stroke:#000000;stroke-width:0.8;" x="282.670337" xlink:href="#mda4693015e" y="511"/>
      </g>
     </g>
     <g id="text_3">
      <!-- 20000 -->
      <defs>
       <path d="M 19.1875 8.296875 
L 53.609375 8.296875 
L 53.609375 0 
L 7.328125 0 
L 7.328125 8.296875 
Q 12.9375 14.109375 22.625 23.890625 
Q 32.328125 33.6875 34.8125 36.53125 
Q 39.546875 41.84375 41.421875 45.53125 
Q 43.3125 49.21875 43.3125 52.78125 
Q 43.3125 58.59375 39.234375 62.25 
Q 35.15625 65.921875 28.609375 65.921875 
Q 23.96875 65.921875 18.8125 64.3125 
Q 13.671875 62.703125 7.8125 59.421875 
L 7.8125 69.390625 
Q 13.765625 71.78125 18.9375 73 
Q 24.125 74.21875 28.421875 74.21875 
Q 39.75 74.21875 46.484375 68.546875 
Q 53.21875 62.890625 53.21875 53.421875 
Q 53.21875 48.921875 51.53125 44.890625 
Q 49.859375 40.875 45.40625 35.40625 
Q 44.1875 33.984375 37.640625 27.21875 
Q 31.109375 20.453125 19.1875 8.296875 
z
" id="DejaVuSans-32"/>
      </defs>
      <g transform="translate(254.039087 531.677187)scale(0.18 -0.18)">
       <use xlink:href="#DejaVuSans-32"/>
       <use x="63.623047" xlink:href="#DejaVuSans-30"/>
       <use x="127.246094" xlink:href="#DejaVuSans-30"/>
       <use x="190.869141" xlink:href="#DejaVuSans-30"/>
       <use x="254.492188" xlink:href="#DejaVuSans-30"/>
      </g>
     </g>
    </g>
    <g id="xtick_4">
     <g id="line2d_4">
      <g>
       <use style="stroke:#000000;stroke-width:0.8;" x="374.048007" xlink:href="#mda4693015e" y="511"/>
      </g>
     </g>
     <g id="text_4">
      <!-- 30000 -->
      <defs>
       <path d="M 40.578125 39.3125 
Q 47.65625 37.796875 51.625 33 
Q 55.609375 28.21875 55.609375 21.1875 
Q 55.609375 10.40625 48.1875 4.484375 
Q 40.765625 -1.421875 27.09375 -1.421875 
Q 22.515625 -1.421875 17.65625 -0.515625 
Q 12.796875 0.390625 7.625 2.203125 
L 7.625 11.71875 
Q 11.71875 9.328125 16.59375 8.109375 
Q 21.484375 6.890625 26.8125 6.890625 
Q 36.078125 6.890625 40.9375 10.546875 
Q 45.796875 14.203125 45.796875 21.1875 
Q 45.796875 27.640625 41.28125 31.265625 
Q 36.765625 34.90625 28.71875 34.90625 
L 20.21875 34.90625 
L 20.21875 43.015625 
L 29.109375 43.015625 
Q 36.375 43.015625 40.234375 45.921875 
Q 44.09375 48.828125 44.09375 54.296875 
Q 44.09375 59.90625 40.109375 62.90625 
Q 36.140625 65.921875 28.71875 65.921875 
Q 24.65625 65.921875 20.015625 65.03125 
Q 15.375 64.15625 9.8125 62.3125 
L 9.8125 71.09375 
Q 15.4375 72.65625 20.34375 73.4375 
Q 25.25 74.21875 29.59375 74.21875 
Q 40.828125 74.21875 47.359375 69.109375 
Q 53.90625 64.015625 53.90625 55.328125 
Q 53.90625 49.265625 50.4375 45.09375 
Q 46.96875 40.921875 40.578125 39.3125 
z
" id="DejaVuSans-33"/>
      </defs>
      <g transform="translate(345.416757 531.677187)scale(0.18 -0.18)">
       <use xlink:href="#DejaVuSans-33"/>
       <use x="63.623047" xlink:href="#DejaVuSans-30"/>
       <use x="127.246094" xlink:href="#DejaVuSans-30"/>
       <use x="190.869141" xlink:href="#DejaVuSans-30"/>
       <use x="254.492188" xlink:href="#DejaVuSans-30"/>
      </g>
     </g>
    </g>
    <g id="xtick_5">
     <g id="line2d_5">
      <g>
       <use style="stroke:#000000;stroke-width:0.8;" x="465.425678" xlink:href="#mda4693015e" y="511"/>
      </g>
     </g>
     <g id="text_5">
      <!-- 40000 -->
      <defs>
       <path d="M 37.796875 64.3125 
L 12.890625 25.390625 
L 37.796875 25.390625 
z
M 35.203125 72.90625 
L 47.609375 72.90625 
L 47.609375 25.390625 
L 58.015625 25.390625 
L 58.015625 17.1875 
L 47.609375 17.1875 
L 47.609375 0 
L 37.796875 0 
L 37.796875 17.1875 
L 4.890625 17.1875 
L 4.890625 26.703125 
z
" id="DejaVuSans-34"/>
      </defs>
      <g transform="translate(436.794428 531.677187)scale(0.18 -0.18)">
       <use xlink:href="#DejaVuSans-34"/>
       <use x="63.623047" xlink:href="#DejaVuSans-30"/>
       <use x="127.246094" xlink:href="#DejaVuSans-30"/>
       <use x="190.869141" xlink:href="#DejaVuSans-30"/>
       <use x="254.492188" xlink:href="#DejaVuSans-30"/>
      </g>
     </g>
    </g>
    <g id="text_6">
     <!-- Temperature -->
     <defs>
      <path d="M -0.296875 72.90625 
L 61.375 72.90625 
L 61.375 64.59375 
L 35.5 64.59375 
L 35.5 0 
L 25.59375 0 
L 25.59375 64.59375 
L -0.296875 64.59375 
z
" id="DejaVuSans-54"/>
      <path d="M 56.203125 29.59375 
L 56.203125 25.203125 
L 14.890625 25.203125 
Q 15.484375 15.921875 20.484375 11.0625 
Q 25.484375 6.203125 34.421875 6.203125 
Q 39.59375 6.203125 44.453125 7.46875 
Q 49.3125 8.734375 54.109375 11.28125 
L 54.109375 2.78125 
Q 49.265625 0.734375 44.1875 -0.34375 
Q 39.109375 -1.421875 33.890625 -1.421875 
Q 20.796875 -1.421875 13.15625 6.1875 
Q 5.515625 13.8125 5.515625 26.8125 
Q 5.515625 40.234375 12.765625 48.109375 
Q 20.015625 56 32.328125 56 
Q 43.359375 56 49.78125 48.890625 
Q 56.203125 41.796875 56.203125 29.59375 
z
M 47.21875 32.234375 
Q 47.125 39.59375 43.09375 43.984375 
Q 39.0625 48.390625 32.421875 48.390625 
Q 24.90625 48.390625 20.390625 44.140625 
Q 15.875 39.890625 15.1875 32.171875 
z
" id="DejaVuSans-65"/>
      <path d="M 52 44.1875 
Q 55.375 50.25 60.0625 53.125 
Q 64.75 56 71.09375 56 
Q 79.640625 56 84.28125 50.015625 
Q 88.921875 44.046875 88.921875 33.015625 
L 88.921875 0 
L 79.890625 0 
L 79.890625 32.71875 
Q 79.890625 40.578125 77.09375 44.375 
Q 74.3125 48.1875 68.609375 48.1875 
Q 61.625 48.1875 57.5625 43.546875 
Q 53.515625 38.921875 53.515625 30.90625 
L 53.515625 0 
L 44.484375 0 
L 44.484375 32.71875 
Q 44.484375 40.625 41.703125 44.40625 
Q 38.921875 48.1875 33.109375 48.1875 
Q 26.21875 48.1875 22.15625 43.53125 
Q 18.109375 38.875 18.109375 30.90625 
L 18.109375 0 
L 9.078125 0 
L 9.078125 54.6875 
L 18.109375 54.6875 
L 18.109375 46.1875 
Q 21.1875 51.21875 25.484375 53.609375 
Q 29.78125 56 35.6875 56 
Q 41.65625 56 45.828125 52.96875 
Q 50 49.953125 52 44.1875 
z
" id="DejaVuSans-6d"/>
      <path d="M 18.109375 8.203125 
L 18.109375 -20.796875 
L 9.078125 -20.796875 
L 9.078125 54.6875 
L 18.109375 54.6875 
L 18.109375 46.390625 
Q 20.953125 51.265625 25.265625 53.625 
Q 29.59375 56 35.59375 56 
Q 45.5625 56 51.78125 48.09375 
Q 58.015625 40.1875 58.015625 27.296875 
Q 58.015625 14.40625 51.78125 6.484375 
Q 45.5625 -1.421875 35.59375 -1.421875 
Q 29.59375 -1.421875 25.265625 0.953125 
Q 20.953125 3.328125 18.109375 8.203125 
z
M 48.6875 27.296875 
Q 48.6875 37.203125 44.609375 42.84375 
Q 40.53125 48.484375 33.40625 48.484375 
Q 26.265625 48.484375 22.1875 42.84375 
Q 18.109375 37.203125 18.109375 27.296875 
Q 18.109375 17.390625 22.1875 11.75 
Q 26.265625 6.109375 33.40625 6.109375 
Q 40.53125 6.109375 44.609375 11.75 
Q 48.6875 17.390625 48.6875 27.296875 
z
" id="DejaVuSans-70"/>
      <path d="M 41.109375 46.296875 
Q 39.59375 47.171875 37.8125 47.578125 
Q 36.03125 48 33.890625 48 
Q 26.265625 48 22.1875 43.046875 
Q 18.109375 38.09375 18.109375 28.8125 
L 18.109375 0 
L 9.078125 0 
L 9.078125 54.6875 
L 18.109375 54.6875 
L 18.109375 46.1875 
Q 20.953125 51.171875 25.484375 53.578125 
Q 30.03125 56 36.53125 56 
Q 37.453125 56 38.578125 55.875 
Q 39.703125 55.765625 41.0625 55.515625 
z
" id="DejaVuSans-72"/>
      <path d="M 34.28125 27.484375 
Q 23.390625 27.484375 19.1875 25 
Q 14.984375 22.515625 14.984375 16.5 
Q 14.984375 11.71875 18.140625 8.90625 
Q 21.296875 6.109375 26.703125 6.109375 
Q 34.1875 6.109375 38.703125 11.40625 
Q 43.21875 16.703125 43.21875 25.484375 
L 43.21875 27.484375 
z
M 52.203125 31.203125 
L 52.203125 0 
L 43.21875 0 
L 43.21875 8.296875 
Q 40.140625 3.328125 35.546875 0.953125 
Q 30.953125 -1.421875 24.3125 -1.421875 
Q 15.921875 -1.421875 10.953125 3.296875 
Q 6 8.015625 6 15.921875 
Q 6 25.140625 12.171875 29.828125 
Q 18.359375 34.515625 30.609375 34.515625 
L 43.21875 34.515625 
L 43.21875 35.40625 
Q 43.21875 41.609375 39.140625 45 
Q 35.0625 48.390625 27.6875 48.390625 
Q 23 48.390625 18.546875 47.265625 
Q 14.109375 46.140625 10.015625 43.890625 
L 10.015625 52.203125 
Q 14.9375 54.109375 19.578125 55.046875 
Q 24.21875 56 28.609375 56 
Q 40.484375 56 46.34375 49.84375 
Q 52.203125 43.703125 52.203125 31.203125 
z
" id="DejaVuSans-61"/>
      <path d="M 18.3125 70.21875 
L 18.3125 54.6875 
L 36.8125 54.6875 
L 36.8125 47.703125 
L 18.3125 47.703125 
L 18.3125 18.015625 
Q 18.3125 11.328125 20.140625 9.421875 
Q 21.96875 7.515625 27.59375 7.515625 
L 36.8125 7.515625 
L 36.8125 0 
L 27.59375 0 
Q 17.1875 0 13.234375 3.875 
Q 9.28125 7.765625 9.28125 18.015625 
L 9.28125 47.703125 
L 2.6875 47.703125 
L 2.6875 54.6875 
L 9.28125 54.6875 
L 9.28125 70.21875 
z
" id="DejaVuSans-74"/>
      <path d="M 8.5 21.578125 
L 8.5 54.6875 
L 17.484375 54.6875 
L 17.484375 21.921875 
Q 17.484375 14.15625 20.5 10.265625 
Q 23.53125 6.390625 29.59375 6.390625 
Q 36.859375 6.390625 41.078125 11.03125 
Q 45.3125 15.671875 45.3125 23.6875 
L 45.3125 54.6875 
L 54.296875 54.6875 
L 54.296875 0 
L 45.3125 0 
L 45.3125 8.40625 
Q 42.046875 3.421875 37.71875 1 
Q 33.40625 -1.421875 27.6875 -1.421875 
Q 18.265625 -1.421875 13.375 4.4375 
Q 8.5 10.296875 8.5 21.578125 
z
M 31.109375 56 
z
" id="DejaVuSans-75"/>
     </defs>
     <g transform="translate(263.341872 553.097813)scale(0.18 -0.18)">
      <use xlink:href="#DejaVuSans-54"/>
      <use x="60.818359" xlink:href="#DejaVuSans-65"/>
      <use x="122.341797" xlink:href="#DejaVuSans-6d"/>
      <use x="219.753906" xlink:href="#DejaVuSans-70"/>
      <use x="283.230469" xlink:href="#DejaVuSans-65"/>
      <use x="344.753906" xlink:href="#DejaVuSans-72"/>
      <use x="385.867188" xlink:href="#DejaVuSans-61"/>
      <use x="447.146484" xlink:href="#DejaVuSans-74"/>
      <use x="486.355469" xlink:href="#DejaVuSans-75"/>
      <use x="549.734375" xlink:href="#DejaVuSans-72"/>
      <use x="590.816406" xlink:href="#DejaVuSans-65"/>
     </g>
    </g>
   </g>
   <g id="matplotlib.axis_2">
    <g id="ytick_1">
     <g id="line2d_6">
      <defs>
       <path d="M 0 0 
L -3.5 0 
" id="m449b9faa29" style="stroke:#000000;stroke-width:0.8;"/>
      </defs>
      <g>
       <use style="stroke:#000000;stroke-width:0.8;" x="90.065619" xlink:href="#m449b9faa29" y="460.938603"/>
      </g>
     </g>
     <g id="text_7">
      <!-- $\mathdefault{10^{-4}}$ -->
      <defs>
       <path d="M 10.59375 35.5 
L 73.1875 35.5 
L 73.1875 27.203125 
L 10.59375 27.203125 
z
" id="DejaVuSans-2212"/>
      </defs>
      <g transform="translate(40.765619 467.777197)scale(0.18 -0.18)">
       <use transform="translate(0 0.684375)" xlink:href="#DejaVuSans-31"/>
       <use transform="translate(63.623047 0.684375)" xlink:href="#DejaVuSans-30"/>
       <use transform="translate(128.203125 38.965625)scale(0.7)" xlink:href="#DejaVuSans-2212"/>
       <use transform="translate(186.855469 38.965625)scale(0.7)" xlink:href="#DejaVuSans-34"/>
      </g>
     </g>
    </g>
    <g id="ytick_2">
     <g id="line2d_7">
      <g>
       <use style="stroke:#000000;stroke-width:0.8;" x="90.065619" xlink:href="#m449b9faa29" y="379.889959"/>
      </g>
     </g>
     <g id="text_8">
      <!-- $\mathdefault{10^{-2}}$ -->
      <g transform="translate(40.765619 386.728553)scale(0.18 -0.18)">
       <use transform="translate(0 0.765625)" xlink:href="#DejaVuSans-31"/>
       <use transform="translate(63.623047 0.765625)" xlink:href="#DejaVuSans-30"/>
       <use transform="translate(128.203125 39.046875)scale(0.7)" xlink:href="#DejaVuSans-2212"/>
       <use transform="translate(186.855469 39.046875)scale(0.7)" xlink:href="#DejaVuSans-32"/>
      </g>
     </g>
    </g>
    <g id="ytick_3">
     <g id="line2d_8">
      <g>
       <use style="stroke:#000000;stroke-width:0.8;" x="90.065619" xlink:href="#m449b9faa29" y="298.841314"/>
      </g>
     </g>
     <g id="text_9">
      <!-- $\mathdefault{10^{0}}$ -->
      <g transform="translate(51.385619 305.679908)scale(0.18 -0.18)">
       <use transform="translate(0 0.765625)" xlink:href="#DejaVuSans-31"/>
       <use transform="translate(63.623047 0.765625)" xlink:href="#DejaVuSans-30"/>
       <use transform="translate(128.203125 39.046875)scale(0.7)" xlink:href="#DejaVuSans-30"/>
      </g>
     </g>
    </g>
    <g id="ytick_4">
     <g id="line2d_9">
      <g>
       <use style="stroke:#000000;stroke-width:0.8;" x="90.065619" xlink:href="#m449b9faa29" y="217.79267"/>
      </g>
     </g>
     <g id="text_10">
      <!-- $\mathdefault{10^{2}}$ -->
      <g transform="translate(51.385619 224.631264)scale(0.18 -0.18)">
       <use transform="translate(0 0.765625)" xlink:href="#DejaVuSans-31"/>
       <use transform="translate(63.623047 0.765625)" xlink:href="#DejaVuSans-30"/>
       <use transform="translate(128.203125 39.046875)scale(0.7)" xlink:href="#DejaVuSans-32"/>
      </g>
     </g>
    </g>
    <g id="ytick_5">
     <g id="line2d_10">
      <g>
       <use style="stroke:#000000;stroke-width:0.8;" x="90.065619" xlink:href="#m449b9faa29" y="136.744026"/>
      </g>
     </g>
     <g id="text_11">
      <!-- $\mathdefault{10^{4}}$ -->
      <g transform="translate(51.385619 143.582619)scale(0.18 -0.18)">
       <use transform="translate(0 0.684375)" xlink:href="#DejaVuSans-31"/>
       <use transform="translate(63.623047 0.684375)" xlink:href="#DejaVuSans-30"/>
       <use transform="translate(128.203125 38.965625)scale(0.7)" xlink:href="#DejaVuSans-34"/>
      </g>
     </g>
    </g>
    <g id="ytick_6">
     <g id="line2d_11">
      <g>
       <use style="stroke:#000000;stroke-width:0.8;" x="90.065619" xlink:href="#m449b9faa29" y="55.695381"/>
      </g>
     </g>
     <g id="text_12">
      <!-- $\mathdefault{10^{6}}$ -->
      <defs>
       <path d="M 33.015625 40.375 
Q 26.375 40.375 22.484375 35.828125 
Q 18.609375 31.296875 18.609375 23.390625 
Q 18.609375 15.53125 22.484375 10.953125 
Q 26.375 6.390625 33.015625 6.390625 
Q 39.65625 6.390625 43.53125 10.953125 
Q 47.40625 15.53125 47.40625 23.390625 
Q 47.40625 31.296875 43.53125 35.828125 
Q 39.65625 40.375 33.015625 40.375 
z
M 52.59375 71.296875 
L 52.59375 62.3125 
Q 48.875 64.0625 45.09375 64.984375 
Q 41.3125 65.921875 37.59375 65.921875 
Q 27.828125 65.921875 22.671875 59.328125 
Q 17.53125 52.734375 16.796875 39.40625 
Q 19.671875 43.65625 24.015625 45.921875 
Q 28.375 48.1875 33.59375 48.1875 
Q 44.578125 48.1875 50.953125 41.515625 
Q 57.328125 34.859375 57.328125 23.390625 
Q 57.328125 12.15625 50.6875 5.359375 
Q 44.046875 -1.421875 33.015625 -1.421875 
Q 20.359375 -1.421875 13.671875 8.265625 
Q 6.984375 17.96875 6.984375 36.375 
Q 6.984375 53.65625 15.1875 63.9375 
Q 23.390625 74.21875 37.203125 74.21875 
Q 40.921875 74.21875 44.703125 73.484375 
Q 48.484375 72.75 52.59375 71.296875 
z
" id="DejaVuSans-36"/>
      </defs>
      <g transform="translate(51.385619 62.533975)scale(0.18 -0.18)">
       <use transform="translate(0 0.765625)" xlink:href="#DejaVuSans-31"/>
       <use transform="translate(63.623047 0.765625)" xlink:href="#DejaVuSans-30"/>
       <use transform="translate(128.203125 39.046875)scale(0.7)" xlink:href="#DejaVuSans-36"/>
      </g>
     </g>
    </g>
    <g id="text_13">
     <!-- Luminosity -->
     <defs>
      <path d="M 9.8125 72.90625 
L 19.671875 72.90625 
L 19.671875 8.296875 
L 55.171875 8.296875 
L 55.171875 0 
L 9.8125 0 
z
" id="DejaVuSans-4c"/>
      <path d="M 9.421875 54.6875 
L 18.40625 54.6875 
L 18.40625 0 
L 9.421875 0 
z
M 9.421875 75.984375 
L 18.40625 75.984375 
L 18.40625 64.59375 
L 9.421875 64.59375 
z
" id="DejaVuSans-69"/>
      <path d="M 54.890625 33.015625 
L 54.890625 0 
L 45.90625 0 
L 45.90625 32.71875 
Q 45.90625 40.484375 42.875 44.328125 
Q 39.84375 48.1875 33.796875 48.1875 
Q 26.515625 48.1875 22.3125 43.546875 
Q 18.109375 38.921875 18.109375 30.90625 
L 18.109375 0 
L 9.078125 0 
L 9.078125 54.6875 
L 18.109375 54.6875 
L 18.109375 46.1875 
Q 21.34375 51.125 25.703125 53.5625 
Q 30.078125 56 35.796875 56 
Q 45.21875 56 50.046875 50.171875 
Q 54.890625 44.34375 54.890625 33.015625 
z
" id="DejaVuSans-6e"/>
      <path d="M 30.609375 48.390625 
Q 23.390625 48.390625 19.1875 42.75 
Q 14.984375 37.109375 14.984375 27.296875 
Q 14.984375 17.484375 19.15625 11.84375 
Q 23.34375 6.203125 30.609375 6.203125 
Q 37.796875 6.203125 41.984375 11.859375 
Q 46.1875 17.53125 46.1875 27.296875 
Q 46.1875 37.015625 41.984375 42.703125 
Q 37.796875 48.390625 30.609375 48.390625 
z
M 30.609375 56 
Q 42.328125 56 49.015625 48.375 
Q 55.71875 40.765625 55.71875 27.296875 
Q 55.71875 13.875 49.015625 6.21875 
Q 42.328125 -1.421875 30.609375 -1.421875 
Q 18.84375 -1.421875 12.171875 6.21875 
Q 5.515625 13.875 5.515625 27.296875 
Q 5.515625 40.765625 12.171875 48.375 
Q 18.84375 56 30.609375 56 
z
" id="DejaVuSans-6f"/>
      <path d="M 44.28125 53.078125 
L 44.28125 44.578125 
Q 40.484375 46.53125 36.375 47.5 
Q 32.28125 48.484375 27.875 48.484375 
Q 21.1875 48.484375 17.84375 46.4375 
Q 14.5 44.390625 14.5 40.28125 
Q 14.5 37.15625 16.890625 35.375 
Q 19.28125 33.59375 26.515625 31.984375 
L 29.59375 31.296875 
Q 39.15625 29.25 43.1875 25.515625 
Q 47.21875 21.78125 47.21875 15.09375 
Q 47.21875 7.46875 41.1875 3.015625 
Q 35.15625 -1.421875 24.609375 -1.421875 
Q 20.21875 -1.421875 15.453125 -0.5625 
Q 10.6875 0.296875 5.421875 2 
L 5.421875 11.28125 
Q 10.40625 8.6875 15.234375 7.390625 
Q 20.0625 6.109375 24.8125 6.109375 
Q 31.15625 6.109375 34.5625 8.28125 
Q 37.984375 10.453125 37.984375 14.40625 
Q 37.984375 18.0625 35.515625 20.015625 
Q 33.0625 21.96875 24.703125 23.78125 
L 21.578125 24.515625 
Q 13.234375 26.265625 9.515625 29.90625 
Q 5.8125 33.546875 5.8125 39.890625 
Q 5.8125 47.609375 11.28125 51.796875 
Q 16.75 56 26.8125 56 
Q 31.78125 56 36.171875 55.265625 
Q 40.578125 54.546875 44.28125 53.078125 
z
" id="DejaVuSans-73"/>
      <path d="M 32.171875 -5.078125 
Q 28.375 -14.84375 24.75 -17.8125 
Q 21.140625 -20.796875 15.09375 -20.796875 
L 7.90625 -20.796875 
L 7.90625 -13.28125 
L 13.1875 -13.28125 
Q 16.890625 -13.28125 18.9375 -11.515625 
Q 21 -9.765625 23.484375 -3.21875 
L 25.09375 0.875 
L 2.984375 54.6875 
L 12.5 54.6875 
L 29.59375 11.921875 
L 46.6875 54.6875 
L 56.203125 54.6875 
z
" id="DejaVuSans-79"/>
     </defs>
     <g transform="translate(33.022181 315.718437)rotate(-90)scale(0.18 -0.18)">
      <use xlink:href="#DejaVuSans-4c"/>
      <use x="55.697266" xlink:href="#DejaVuSans-75"/>
      <use x="119.076172" xlink:href="#DejaVuSans-6d"/>
      <use x="216.488281" xlink:href="#DejaVuSans-69"/>
      <use x="244.271484" xlink:href="#DejaVuSans-6e"/>
      <use x="307.650391" xlink:href="#DejaVuSans-6f"/>
      <use x="368.832031" xlink:href="#DejaVuSans-73"/>
      <use x="420.931641" xlink:href="#DejaVuSans-69"/>
      <use x="448.714844" xlink:href="#DejaVuSans-74"/>
      <use x="487.923828" xlink:href="#DejaVuSans-79"/>
     </g>
    </g>
   </g>
   <g id="patch_3">
    <path d="M 90.065619 511 
L 90.065619 21.96 
" style="fill:none;stroke:#000000;stroke-linecap:square;stroke-linejoin:miter;stroke-width:0.8;"/>
   </g>
   <g id="patch_4">
    <path d="M 554.04 511 
L 554.04 21.96 
" style="fill:none;stroke:#000000;stroke-linecap:square;stroke-linejoin:miter;stroke-width:0.8;"/>
   </g>
   <g id="patch_5">
    <path d="M 90.065619 511 
L 554.04 511 
" style="fill:none;stroke:#000000;stroke-linecap:square;stroke-linejoin:miter;stroke-width:0.8;"/>
   </g>
   <g id="patch_6">
    <path d="M 90.065619 21.96 
L 554.04 21.96 
" style="fill:none;stroke:#000000;stroke-linecap:square;stroke-linejoin:miter;stroke-width:0.8;"/>
   </g>
  </g>
 </g>
 <defs>
  <clipPath id="p1aed9ebabc">
   <rect height="489.04" width="463.974381" x="90.065619" y="21.96"/>
  </clipPath>
 </defs>
</svg>
