<?xml version="1.0" encoding="utf-8" standalone="no"?>
<!DOCTYPE svg PUBLIC "-//W3C//DTD SVG 1.1//EN"
  "http://www.w3.org/Graphics/SVG/1.1/DTD/svg11.dtd">
<!-- Created with matplotlib (http://matplotlib.org/) -->
<svg height="576pt" version="1.1" viewBox="0 0 576 576" width="576pt" xmlns="http://www.w3.org/2000/svg" xmlns:xlink="http://www.w3.org/1999/xlink">
 <defs>
  <style type="text/css">
*{stroke-linecap:butt;stroke-linejoin:round;}
  </style>
 </defs>
 <g id="figure_1">
  <g id="patch_1">
   <path d="M 0 576 
L 576 576 
L 576 0 
L 0 0 
z
" style="fill:#ffffff;"/>
  </g>
  <g id="axes_1">
   <g id="patch_2">
    <path d="M 99.7257 503.08 
L 551.88 503.08 
L 551.88 24.12 
L 99.7257 24.12 
z
" style="fill:#ffffff;"/>
   </g>
   <g id="PathCollection_1">
    <path clip-path="url(#p3649760de3)" d="M 152.738449 319.750514 
C 153.003652 319.750514 153.258029 319.645148 153.445556 319.457621 
C 153.633083 319.270094 153.738449 319.015717 153.738449 318.750514 
C 153.738449 318.485311 153.633083 318.230934 153.445556 318.043408 
C 153.258029 317.855881 153.003652 317.750514 152.738449 317.750514 
C 152.473246 317.750514 152.218869 317.855881 152.031342 318.043408 
C 151.843815 318.230934 151.738449 318.485311 151.738449 318.750514 
C 151.738449 319.015717 151.843815 319.270094 152.031342 319.457621 
C 152.218869 319.645148 152.473246 319.750514 152.738449 319.750514 
z
" style="fill:#ffe4c5;stroke:#ffe4c5;"/>
    <path clip-path="url(#p3649760de3)" d="M 154.160754 316.121986 
C 154.43202 316.121986 154.692213 316.014211 154.884028 315.822396 
C 155.075842 315.630582 155.183617 315.370389 155.183617 315.099122 
C 155.183617 314.827856 155.075842 314.567663 154.884028 314.375849 
C 154.692213 314.184034 154.43202 314.076259 154.160754 314.076259 
C 153.889487 314.076259 153.629294 314.184034 153.43748 314.375849 
C 153.245665 314.567663 153.13789 314.827856 153.13789 315.099122 
C 153.13789 315.370389 153.245665 315.630582 153.43748 315.822396 
C 153.629294 316.014211 153.889487 316.121986 154.160754 316.121986 
z
" style="fill:#ffe9ce;stroke:#ffe9ce;"/>
    <path clip-path="url(#p3649760de3)" d="M 155.629683 312.73109 
C 155.906881 312.73109 156.172762 312.620959 156.368771 312.42495 
C 156.564779 312.228942 156.674911 311.963061 156.674911 311.685863 
C 156.674911 311.408665 156.564779 311.142784 156.368771 310.946776 
C 156.172762 310.750767 155.906881 310.640636 155.629683 310.640636 
C 155.352486 310.640636 155.086604 310.750767 154.890596 310.946776 
C 154.694588 311.142784 154.584456 311.408665 154.584456 311.685863 
C 154.584456 311.963061 154.694588 312.228942 154.890596 312.42495 
C 155.086604 312.620959 155.352486 312.73109 155.629683 312.73109 
z
" style="fill:#ffeed8;stroke:#ffeed8;"/>
    <path clip-path="url(#p3649760de3)" d="M 156.926975 309.300625 
C 157.210134 309.300625 157.481734 309.188125 157.681958 308.987901 
C 157.882182 308.787677 157.994683 308.516077 157.994683 308.232917 
C 157.994683 307.949758 157.882182 307.678158 157.681958 307.477934 
C 157.481734 307.27771 157.210134 307.165209 156.926975 307.165209 
C 156.643815 307.165209 156.372215 307.27771 156.171991 307.477934 
C 155.971768 307.678158 155.859267 307.949758 155.859267 308.232917 
C 155.859267 308.516077 155.971768 308.787677 156.171991 308.987901 
C 156.372215 309.188125 156.643815 309.300625 156.926975 309.300625 
z
" style="fill:#fff2e1;stroke:#fff2e1;"/>
    <path clip-path="url(#p3649760de3)" d="M 158.260639 306.107256 
C 158.549485 306.107256 158.826539 305.992497 159.030785 305.788252 
C 159.23503 305.584006 159.34979 305.306952 159.34979 305.018105 
C 159.34979 304.729259 159.23503 304.452205 159.030785 304.247959 
C 158.826539 304.043714 158.549485 303.928954 158.260639 303.928954 
C 157.971792 303.928954 157.694738 304.043714 157.490492 304.247959 
C 157.286247 304.452205 157.171487 304.729259 157.171487 305.018105 
C 157.171487 305.306952 157.286247 305.584006 157.490492 305.788252 
C 157.694738 305.992497 157.971792 306.107256 158.260639 306.107256 
z
" style="fill:#fff4e8;stroke:#fff4e8;"/>
    <path clip-path="url(#p3649760de3)" d="M 160.566945 299.997121 
C 160.866841 299.997121 161.154495 299.877971 161.366554 299.665912 
C 161.578613 299.453854 161.697763 299.1662 161.697763 298.866303 
C 161.697763 298.566407 161.578613 298.278753 161.366554 298.066694 
C 161.154495 297.854635 160.866841 297.735485 160.566945 297.735485 
C 160.267048 297.735485 159.979394 297.854635 159.767335 298.066694 
C 159.555277 298.278753 159.436126 298.566407 159.436126 298.866303 
C 159.436126 299.1662 159.555277 299.453854 159.767335 299.665912 
C 159.979394 299.877971 160.267048 299.997121 160.566945 299.997121 
z
" style="fill:#fff5ed;stroke:#fff5ed;"/>
    <path clip-path="url(#p3649760de3)" d="M 162.735424 294.203552 
C 163.046119 294.203552 163.344131 294.080112 163.563826 293.860417 
C 163.783521 293.640722 163.906961 293.34271 163.906961 293.032015 
C 163.906961 292.721319 163.783521 292.423307 163.563826 292.203612 
C 163.344131 291.983918 163.046119 291.860477 162.735424 291.860477 
C 162.424728 291.860477 162.126716 291.983918 161.907022 292.203612 
C 161.687327 292.423307 161.563886 292.721319 161.563886 293.032015 
C 161.563886 293.34271 161.687327 293.640722 161.907022 293.860417 
C 162.126716 294.080112 162.424728 294.203552 162.735424 294.203552 
z
" style="fill:#fff7f2;stroke:#fff7f2;"/>
    <path clip-path="url(#p3649760de3)" d="M 165.770107 285.426347 
C 166.100282 285.426347 166.416979 285.295167 166.650448 285.061698 
C 166.883917 284.828229 167.015097 284.511532 167.015097 284.181357 
C 167.015097 283.851182 166.883917 283.534486 166.650448 283.301016 
C 166.416979 283.067547 166.100282 282.936367 165.770107 282.936367 
C 165.439932 282.936367 165.123236 283.067547 164.889766 283.301016 
C 164.656297 283.534486 164.525117 283.851182 164.525117 284.181357 
C 164.525117 284.511532 164.656297 284.828229 164.889766 285.061698 
C 165.123236 285.295167 165.439932 285.426347 165.770107 285.426347 
z
" style="fill:#fdf9fb;stroke:#fdf9fb;"/>
    <path clip-path="url(#p3649760de3)" d="M 168.158741 279.047881 
C 168.502483 279.047881 168.832193 278.911311 169.075256 278.668248 
C 169.318319 278.425185 169.454889 278.095475 169.454889 277.751733 
C 169.454889 277.40799 169.318319 277.078281 169.075256 276.835218 
C 168.832193 276.592155 168.502483 276.455585 168.158741 276.455585 
C 167.814998 276.455585 167.485289 276.592155 167.242226 276.835218 
C 166.999163 277.078281 166.862593 277.40799 166.862593 277.751733 
C 166.862593 278.095475 166.999163 278.425185 167.242226 278.668248 
C 167.485289 278.911311 167.814998 279.047881 168.158741 279.047881 
z
" style="fill:#f8f6ff;stroke:#f8f6ff;"/>
    <path clip-path="url(#p3649760de3)" d="M 171.073568 272.436285 
C 171.432206 272.436285 171.776203 272.293797 172.029798 272.040202 
C 172.283393 271.786607 172.425881 271.44261 172.425881 271.083972 
C 172.425881 270.725335 172.283393 270.381338 172.029798 270.127743 
C 171.776203 269.874148 171.432206 269.73166 171.073568 269.73166 
C 170.714931 269.73166 170.370934 269.874148 170.117339 270.127743 
C 169.863744 270.381338 169.721255 270.725335 169.721255 271.083972 
C 169.721255 271.44261 169.863744 271.786607 170.117339 272.040202 
C 170.370934 272.293797 170.714931 272.436285 171.073568 272.436285 
z
" style="fill:#f0f0ff;stroke:#f0f0ff;"/>
    <path clip-path="url(#p3649760de3)" d="M 175.642356 265.710034 
C 176.017058 265.710034 176.376463 265.561163 176.641418 265.296209 
C 176.906372 265.031254 177.055243 264.671849 177.055243 264.297147 
C 177.055243 263.922445 176.906372 263.563039 176.641418 263.298085 
C 176.376463 263.03313 176.017058 262.88426 175.642356 262.88426 
C 175.267654 262.88426 174.908248 263.03313 174.643294 263.298085 
C 174.378339 263.563039 174.229469 263.922445 174.229469 264.297147 
C 174.229469 264.671849 174.378339 265.031254 174.643294 265.296209 
C 174.908248 265.561163 175.267654 265.710034 175.642356 265.710034 
z
" style="fill:#e4e8ff;stroke:#e4e8ff;"/>
    <path clip-path="url(#p3649760de3)" d="M 181.373951 259.02734 
C 181.765743 259.02734 182.141541 258.871679 182.41858 258.59464 
C 182.695619 258.317602 182.85128 257.941804 182.85128 257.550011 
C 182.85128 257.158219 182.695619 256.782421 182.41858 256.505382 
C 182.141541 256.228343 181.765743 256.072683 181.373951 256.072683 
C 180.982159 256.072683 180.606361 256.228343 180.329322 256.505382 
C 180.052283 256.782421 179.896623 257.158219 179.896623 257.550011 
C 179.896623 257.941804 180.052283 258.317602 180.329322 258.59464 
C 180.606361 258.871679 180.982159 259.02734 181.373951 259.02734 
z
" style="fill:#d5dfff;stroke:#d5dfff;"/>
    <path clip-path="url(#p3649760de3)" d="M 186.704858 253.175416 
C 187.113025 253.175416 187.50453 253.01325 187.793148 252.724632 
C 188.081765 252.436014 188.243932 252.044509 188.243932 251.636342 
C 188.243932 251.228175 188.081765 250.83667 187.793148 250.548052 
C 187.50453 250.259434 187.113025 250.097268 186.704858 250.097268 
C 186.29669 250.097268 185.905186 250.259434 185.616568 250.548052 
C 185.32795 250.83667 185.165783 251.228175 185.165783 251.636342 
C 185.165783 252.044509 185.32795 252.436014 185.616568 252.724632 
C 185.905186 253.01325 186.29669 253.175416 186.704858 253.175416 
z
" style="fill:#c8d6ff;stroke:#c8d6ff;"/>
    <path clip-path="url(#p3649760de3)" d="M 192.430235 247.326967 
C 192.855698 247.326967 193.263793 247.157929 193.56464 246.857081 
C 193.865488 246.556233 194.034526 246.148139 194.034526 245.722676 
C 194.034526 245.297213 193.865488 244.889119 193.56464 244.588271 
C 193.263793 244.287423 192.855698 244.118385 192.430235 244.118385 
C 192.004772 244.118385 191.596678 244.287423 191.29583 244.588271 
C 190.994983 244.889119 190.825944 245.297213 190.825944 245.722676 
C 190.825944 246.148139 190.994983 246.556233 191.29583 246.857081 
C 191.596678 247.157929 192.004772 247.326967 192.430235 247.326967 
z
" style="fill:#bed0ff;stroke:#bed0ff;"/>
    <path clip-path="url(#p3649760de3)" d="M 204.742739 235.564533 
C 205.206465 235.564533 205.651261 235.380293 205.979165 235.052388 
C 206.307069 234.724484 206.491309 234.279689 206.491309 233.815962 
C 206.491309 233.352236 206.307069 232.90744 205.979165 232.579536 
C 205.651261 232.251632 205.206465 232.067391 204.742739 232.067391 
C 204.279012 232.067391 203.834216 232.251632 203.506312 232.579536 
C 203.178408 232.90744 202.994168 233.352236 202.994168 233.815962 
C 202.994168 234.279689 203.178408 234.724484 203.506312 235.052388 
C 203.834216 235.380293 204.279012 235.564533 204.742739 235.564533 
z
" style="fill:#b9cbff;stroke:#b9cbff;"/>
    <path clip-path="url(#p3649760de3)" d="M 226.4446 216.472866 
C 226.981677 216.472866 227.496829 216.259483 227.8766 215.879712 
C 228.256371 215.499941 228.469754 214.984789 228.469754 214.447711 
C 228.469754 213.910634 228.256371 213.395482 227.8766 213.015711 
C 227.496829 212.63594 226.981677 212.422557 226.4446 212.422557 
C 225.907522 212.422557 225.39237 212.63594 225.012599 213.015711 
C 224.632828 213.395482 224.419445 213.910634 224.419445 214.447711 
C 224.419445 214.984789 224.632828 215.499941 225.012599 215.879712 
C 225.39237 216.259483 225.907522 216.472866 226.4446 216.472866 
z
" style="fill:#b7c9ff;stroke:#b7c9ff;"/>
    <path clip-path="url(#p3649760de3)" d="M 251.764411 197.166214 
C 252.391506 197.166214 252.993001 196.917066 253.436424 196.473643 
C 253.879846 196.030221 254.128994 195.428726 254.128994 194.801631 
C 254.128994 194.174537 253.879846 193.573042 253.436424 193.129619 
C 252.993001 192.686196 252.391506 192.437049 251.764411 192.437049 
C 251.137317 192.437049 250.535822 192.686196 250.092399 193.129619 
C 249.648976 193.573042 249.399829 194.174537 249.399829 194.801631 
C 249.399829 195.428726 249.648976 196.030221 250.092399 196.473643 
C 250.535822 196.917066 251.137317 197.166214 251.764411 197.166214 
z
" style="fill:#b3c7ff;stroke:#b3c7ff;"/>
    <path clip-path="url(#p3649760de3)" d="M 273.244413 183.055574 
C 273.950135 183.055574 274.627047 182.775187 275.126068 182.276167 
C 275.625089 181.777146 275.905475 181.100234 275.905475 180.394512 
C 275.905475 179.68879 275.625089 179.011878 275.126068 178.512857 
C 274.627047 178.013836 273.950135 177.73345 273.244413 177.73345 
C 272.538691 177.73345 271.861779 178.013836 271.362758 178.512857 
C 270.863738 179.011878 270.583351 179.68879 270.583351 180.394512 
C 270.583351 181.100234 270.863738 181.777146 271.362758 182.276167 
C 271.861779 182.775187 272.538691 183.055574 273.244413 183.055574 
z
" style="fill:#b0c4ff;stroke:#b0c4ff;"/>
    <path clip-path="url(#p3649760de3)" d="M 291.979561 171.693293 
C 292.755988 171.693293 293.500719 171.384815 294.049736 170.835798 
C 294.598753 170.286781 294.90723 169.54205 294.90723 168.765623 
C 294.90723 167.989196 294.598753 167.244465 294.049736 166.695448 
C 293.500719 166.146431 292.755988 165.837953 291.979561 165.837953 
C 291.203134 165.837953 290.458402 166.146431 289.909386 166.695448 
C 289.360369 167.244465 289.051891 167.989196 289.051891 168.765623 
C 289.051891 169.54205 289.360369 170.286781 289.909386 170.835798 
C 290.458402 171.384815 291.203134 171.693293 291.979561 171.693293 
z
" style="fill:#adc1ff;stroke:#adc1ff;"/>
    <path clip-path="url(#p3649760de3)" d="M 308.223211 162.491572 
C 309.064421 162.491572 309.871291 162.157356 310.466116 161.56253 
C 311.060942 160.967705 311.395158 160.160835 311.395158 159.319625 
C 311.395158 158.478415 311.060942 157.671545 310.466116 157.076719 
C 309.871291 156.481894 309.064421 156.147678 308.223211 156.147678 
C 307.382 156.147678 306.575131 156.481894 305.980305 157.076719 
C 305.38548 157.671545 305.051263 158.478415 305.051263 159.319625 
C 305.051263 160.160835 305.38548 160.967705 305.980305 161.56253 
C 306.575131 162.157356 307.382 162.491572 308.223211 162.491572 
z
" style="fill:#aabfff;stroke:#aabfff;"/>
    <path clip-path="url(#p3649760de3)" d="M 322.939709 154.661286 
C 323.84101 154.661286 324.705517 154.303195 325.342832 153.66588 
C 325.980148 153.028564 326.338239 152.164057 326.338239 151.262757 
C 326.338239 150.361456 325.980148 149.49695 325.342832 148.859634 
C 324.705517 148.222318 323.84101 147.864228 322.939709 147.864228 
C 322.038409 147.864228 321.173902 148.222318 320.536587 148.859634 
C 319.899271 149.49695 319.54118 150.361456 319.54118 151.262757 
C 319.54118 152.164057 319.899271 153.028564 320.536587 153.66588 
C 321.173902 154.303195 322.038409 154.661286 322.939709 154.661286 
z
" style="fill:#a8bdff;stroke:#a8bdff;"/>
    <path clip-path="url(#p3649760de3)" d="M 336.118848 147.967782 
C 337.076475 147.967782 337.995009 147.587313 338.672154 146.910168 
C 339.349299 146.233023 339.729769 145.314488 339.729769 144.356861 
C 339.729769 143.399234 339.349299 142.480699 338.672154 141.803554 
C 337.995009 141.12641 337.076475 140.74594 336.118848 140.74594 
C 335.16122 140.74594 334.242686 141.12641 333.565541 141.803554 
C 332.888396 142.480699 332.507927 143.399234 332.507927 144.356861 
C 332.507927 145.314488 332.888396 146.233023 333.565541 146.910168 
C 334.242686 147.587313 335.16122 147.967782 336.118848 147.967782 
z
" style="fill:#a7bcff;stroke:#a7bcff;"/>
    <path clip-path="url(#p3649760de3)" d="M 348.45337 141.897161 
C 349.464103 141.897161 350.433576 141.495592 351.148272 140.780895 
C 351.862969 140.066199 352.264537 139.096726 352.264537 138.085993 
C 352.264537 137.075259 351.862969 136.105787 351.148272 135.39109 
C 350.433576 134.676394 349.464103 134.274825 348.45337 134.274825 
C 347.442636 134.274825 346.473164 134.676394 345.758467 135.39109 
C 345.043771 136.105787 344.642202 137.075259 344.642202 138.085993 
C 344.642202 139.096726 345.043771 140.066199 345.758467 140.780895 
C 346.473164 141.495592 347.442636 141.897161 348.45337 141.897161 
z
" style="fill:#a6bcff;stroke:#a6bcff;"/>
    <path clip-path="url(#p3649760de3)" d="M 359.723173 136.649528 
C 360.784234 136.649528 361.80198 136.227964 362.552263 135.477681 
C 363.302547 134.727398 363.724111 133.709652 363.724111 132.648591 
C 363.724111 131.58753 363.302547 130.569784 362.552263 129.819501 
C 361.80198 129.069218 360.784234 128.647654 359.723173 128.647654 
C 358.662112 128.647654 357.644367 129.069218 356.894083 129.819501 
C 356.1438 130.569784 355.722236 131.58753 355.722236 132.648591 
C 355.722236 133.709652 356.1438 134.727398 356.894083 135.477681 
C 357.644367 136.227964 358.662112 136.649528 359.723173 136.649528 
z
" style="fill:#a6bbff;stroke:#a6bbff;"/>
    <path clip-path="url(#p3649760de3)" d="M 369.71927 131.908654 
C 370.828218 131.908654 371.891896 131.468064 372.676042 130.683919 
C 373.460187 129.899774 373.900777 128.836096 373.900777 127.727147 
C 373.900777 126.618198 373.460187 125.55452 372.676042 124.770375 
C 371.891896 123.98623 370.828218 123.54564 369.71927 123.54564 
C 368.610321 123.54564 367.546643 123.98623 366.762498 124.770375 
C 365.978352 125.55452 365.537762 126.618198 365.537762 127.727147 
C 365.537762 128.836096 365.978352 129.899774 366.762498 130.683919 
C 367.546643 131.468064 368.610321 131.908654 369.71927 131.908654 
z
" style="fill:#a5bbff;stroke:#a5bbff;"/>
    <path clip-path="url(#p3649760de3)" d="M 378.870037 127.55691 
C 380.024813 127.55691 381.132448 127.098113 381.948997 126.281563 
C 382.765547 125.465013 383.224345 124.357378 383.224345 123.202602 
C 383.224345 122.047826 382.765547 120.940191 381.948997 120.123642 
C 381.132448 119.307092 380.024813 118.848294 378.870037 118.848294 
C 377.715261 118.848294 376.607626 119.307092 375.791076 120.123642 
C 374.974526 120.940191 374.515729 122.047826 374.515729 123.202602 
C 374.515729 124.357378 374.974526 125.465013 375.791076 126.281563 
C 376.607626 127.098113 377.715261 127.55691 378.870037 127.55691 
z
" style="fill:#a4baff;stroke:#a4baff;"/>
    <path clip-path="url(#p3649760de3)" d="M 387.060493 123.794035 
C 388.259382 123.794035 389.40933 123.317711 390.257073 122.469968 
C 391.104816 121.622225 391.58114 120.472277 391.58114 119.273388 
C 391.58114 118.074498 391.104816 116.92455 390.257073 116.076807 
C 389.40933 115.229064 388.259382 114.752741 387.060493 114.752741 
C 385.861603 114.752741 384.711655 115.229064 383.863912 116.076807 
C 383.016169 116.92455 382.539846 118.074498 382.539846 119.273388 
C 382.539846 120.472277 383.016169 121.622225 383.863912 122.469968 
C 384.711655 123.317711 385.861603 123.794035 387.060493 123.794035 
z
" style="fill:#a4baff;stroke:#a4baff;"/>
    <path clip-path="url(#p3649760de3)" d="M 394.841702 120.263121 
C 396.083068 120.263121 397.273758 119.769921 398.151536 118.892143 
C 399.029314 118.014364 399.522514 116.823675 399.522514 115.582309 
C 399.522514 114.340943 399.029314 113.150253 398.151536 112.272475 
C 397.273758 111.394697 396.083068 110.901497 394.841702 110.901497 
C 393.600336 110.901497 392.409647 111.394697 391.531868 112.272475 
C 390.65409 113.150253 390.16089 114.340943 390.16089 115.582309 
C 390.16089 116.823675 390.65409 118.014364 391.531868 118.892143 
C 392.409647 119.769921 393.600336 120.263121 394.841702 120.263121 
z
" style="fill:#a3baff;stroke:#a3baff;"/>
    <path clip-path="url(#p3649760de3)" d="M 402.165888 116.924949 
C 403.448222 116.924949 404.678206 116.415473 405.584953 115.508727 
C 406.491699 114.60198 407.001175 113.371996 407.001175 112.089662 
C 407.001175 110.807329 406.491699 109.577345 405.584953 108.670598 
C 404.678206 107.763852 403.448222 107.254375 402.165888 107.254375 
C 400.883555 107.254375 399.653571 107.763852 398.746824 108.670598 
C 397.840078 109.577345 397.330601 110.807329 397.330601 112.089662 
C 397.330601 113.371996 397.840078 114.60198 398.746824 115.508727 
C 399.653571 116.415473 400.883555 116.924949 402.165888 116.924949 
z
" style="fill:#a3b9ff;stroke:#a3b9ff;"/>
    <path clip-path="url(#p3649760de3)" d="M 408.986856 113.780209 
C 410.308821 113.780209 411.57682 113.254987 412.51159 112.320216 
C 413.446361 111.385446 413.971583 110.117447 413.971583 108.795482 
C 413.971583 107.473518 413.446361 106.205519 412.51159 105.270749 
C 411.57682 104.335978 410.308821 103.810756 408.986856 103.810756 
C 407.664891 103.810756 406.396893 104.335978 405.462123 105.270749 
C 404.527352 106.205519 404.00213 107.473518 404.00213 108.795482 
C 404.00213 110.117447 404.527352 111.385446 405.462123 112.320216 
C 406.396893 113.254987 407.664891 113.780209 408.986856 113.780209 
z
" style="fill:#a2b9ff;stroke:#a2b9ff;"/>
    <path clip-path="url(#p3649760de3)" d="M 414.557928 111.02544 
C 415.917692 111.02544 417.221946 110.4852 418.183445 109.523702 
C 419.144943 108.562204 419.685183 107.257949 419.685183 105.898185 
C 419.685183 104.538421 419.144943 103.234166 418.183445 102.272668 
C 417.221946 101.311169 415.917692 100.770929 414.557928 100.770929 
C 413.198164 100.770929 411.893909 101.311169 410.93241 102.272668 
C 409.970912 103.234166 409.430672 104.538421 409.430672 105.898185 
C 409.430672 107.257949 409.970912 108.562204 410.93241 109.523702 
C 411.893909 110.4852 413.198164 111.02544 414.557928 111.02544 
z
" style="fill:#a2b9ff;stroke:#a2b9ff;"/>
    <path clip-path="url(#p3649760de3)" d="M 419.517582 108.464295 
C 420.91387 108.464295 422.253159 107.909544 423.240484 106.922219 
C 424.227809 105.934893 424.782561 104.595605 424.782561 103.199316 
C 424.782561 101.803028 424.227809 100.463739 423.240484 99.476414 
C 422.253159 98.489089 420.91387 97.934337 419.517582 97.934337 
C 418.121293 97.934337 416.782005 98.489089 415.794679 99.476414 
C 414.807354 100.463739 414.252603 101.803028 414.252603 103.199316 
C 414.252603 104.595605 414.807354 105.934893 415.794679 106.922219 
C 416.782005 107.909544 418.121293 108.464295 419.517582 108.464295 
z
" style="fill:#a2b9ff;stroke:#a2b9ff;"/>
    <path clip-path="url(#p3649760de3)" d="M 424.557763 105.978221 
C 425.98943 105.978221 427.362653 105.409414 428.374994 104.397072 
C 429.387335 103.384731 429.956143 102.011509 429.956143 100.579842 
C 429.956143 99.148175 429.387335 97.774952 428.374994 96.762611 
C 427.362653 95.75027 425.98943 95.181462 424.557763 95.181462 
C 423.126096 95.181462 421.752874 95.75027 420.740533 96.762611 
C 419.728191 97.774952 419.159384 99.148175 419.159384 100.579842 
C 419.159384 102.011509 419.728191 103.384731 420.740533 104.397072 
C 421.752874 105.409414 423.126096 105.978221 424.557763 105.978221 
z
" style="fill:#a1b8ff;stroke:#a1b8ff;"/>
    <path clip-path="url(#p3649760de3)" d="M 428.943151 103.6071 
C 430.409103 103.6071 431.815211 103.024671 432.851795 101.988087 
C 433.88838 100.951502 434.470809 99.545394 434.470809 98.079442 
C 434.470809 96.61349 433.88838 95.207383 432.851795 94.170798 
C 431.815211 93.134213 430.409103 92.551784 428.943151 92.551784 
C 427.477199 92.551784 426.071091 93.134213 425.034506 94.170798 
C 423.997922 95.207383 423.415493 96.61349 423.415493 98.079442 
C 423.415493 99.545394 423.997922 100.951502 425.034506 101.988087 
C 426.071091 103.024671 427.477199 103.6071 428.943151 103.6071 
z
" style="fill:#a1b8ff;stroke:#a1b8ff;"/>
   </g>
   <g id="PathCollection_2">
    <path clip-path="url(#p3649760de3)" d="M 120.451424 481.523033 
C 120.545187 481.523033 120.635123 481.48578 120.701424 481.419479 
C 120.767725 481.353178 120.804977 481.263243 120.804977 481.169479 
C 120.804977 481.075716 120.767725 480.98578 120.701424 480.919479 
C 120.635123 480.853178 120.545187 480.815926 120.451424 480.815926 
C 120.35766 480.815926 120.267725 480.853178 120.201424 480.919479 
C 120.135123 480.98578 120.09787 481.075716 120.09787 481.169479 
C 120.09787 481.263243 120.135123 481.353178 120.201424 481.419479 
C 120.267725 481.48578 120.35766 481.523033 120.451424 481.523033 
z
" style="fill:#9b3921;stroke:#9b3921;"/>
    <path clip-path="url(#p3649760de3)" d="M 120.764487 478.208823 
C 120.860261 478.208823 120.952126 478.170771 121.019849 478.103049 
C 121.087571 478.035326 121.125623 477.943462 121.125623 477.847687 
C 121.125623 477.751913 121.087571 477.660049 121.019849 477.592326 
C 120.952126 477.524603 120.860261 477.486552 120.764487 477.486552 
C 120.668713 477.486552 120.576848 477.524603 120.509126 477.592326 
C 120.441403 477.660049 120.403352 477.751913 120.403352 477.847687 
C 120.403352 477.943462 120.441403 478.035326 120.509126 478.103049 
C 120.576848 478.170771 120.668713 478.208823 120.764487 478.208823 
z
" style="fill:#9f3b22;stroke:#9f3b22;"/>
    <path clip-path="url(#p3649760de3)" d="M 121.086359 474.894776 
C 121.184187 474.894776 121.278021 474.855908 121.347196 474.786733 
C 121.416371 474.717558 121.455239 474.623724 121.455239 474.525896 
C 121.455239 474.428067 121.416371 474.334233 121.347196 474.265058 
C 121.278021 474.195883 121.184187 474.157015 121.086359 474.157015 
C 120.98853 474.157015 120.894696 474.195883 120.825521 474.265058 
C 120.756346 474.334233 120.717478 474.428067 120.717478 474.525896 
C 120.717478 474.623724 120.756346 474.717558 120.825521 474.786733 
C 120.894696 474.855908 120.98853 474.894776 121.086359 474.894776 
z
" style="fill:#a43d24;stroke:#a43d24;"/>
    <path clip-path="url(#p3649760de3)" d="M 121.417286 471.580895 
C 121.517212 471.580895 121.613059 471.541194 121.683717 471.470535 
C 121.754376 471.399877 121.794077 471.30403 121.794077 471.204104 
C 121.794077 471.104178 121.754376 471.008331 121.683717 470.937672 
C 121.613059 470.867014 121.517212 470.827313 121.417286 470.827313 
C 121.31736 470.827313 121.221513 470.867014 121.150854 470.937672 
C 121.080196 471.008331 121.040495 471.104178 121.040495 471.204104 
C 121.040495 471.30403 121.080196 471.399877 121.150854 471.470535 
C 121.221513 471.541194 121.31736 471.580895 121.417286 471.580895 
z
" style="fill:#a94025;stroke:#a94025;"/>
    <path clip-path="url(#p3649760de3)" d="M 121.757523 468.267184 
C 121.859593 468.267184 121.957495 468.226631 122.029669 468.154457 
C 122.101842 468.082284 122.142395 467.984381 122.142395 467.882312 
C 122.142395 467.780243 122.101842 467.682341 122.029669 467.610167 
C 121.957495 467.537993 121.859593 467.497441 121.757523 467.497441 
C 121.655454 467.497441 121.557552 467.537993 121.485378 467.610167 
C 121.413204 467.682341 121.372652 467.780243 121.372652 467.882312 
C 121.372652 467.984381 121.413204 468.082284 121.485378 468.154457 
C 121.557552 468.226631 121.655454 468.267184 121.757523 468.267184 
z
" style="fill:#ae4227;stroke:#ae4227;"/>
    <path clip-path="url(#p3649760de3)" d="M 122.107334 464.953646 
C 122.211592 464.953646 122.311594 464.912224 122.385315 464.838502 
C 122.459037 464.76478 122.500459 464.664779 122.500459 464.56052 
C 122.500459 464.456262 122.459037 464.35626 122.385315 464.282539 
C 122.311594 464.208817 122.211592 464.167395 122.107334 464.167395 
C 122.003076 464.167395 121.903074 464.208817 121.829352 464.282539 
C 121.75563 464.35626 121.714208 464.456262 121.714208 464.56052 
C 121.714208 464.664779 121.75563 464.76478 121.829352 464.838502 
C 121.903074 464.912224 122.003076 464.953646 122.107334 464.953646 
z
" style="fill:#b34528;stroke:#b34528;"/>
    <path clip-path="url(#p3649760de3)" d="M 122.466986 461.640285 
C 122.57348 461.640285 122.675626 461.597974 122.750929 461.522672 
C 122.826231 461.447369 122.868542 461.345223 122.868542 461.238729 
C 122.868542 461.132235 122.826231 461.030088 122.750929 460.954786 
C 122.675626 460.879483 122.57348 460.837173 122.466986 460.837173 
C 122.360492 460.837173 122.258345 460.879483 122.183043 460.954786 
C 122.10774 461.030088 122.06543 461.132235 122.06543 461.238729 
C 122.06543 461.345223 122.10774 461.447369 122.183043 461.522672 
C 122.258345 461.597974 122.360492 461.640285 122.466986 461.640285 
z
" style="fill:#b8472a;stroke:#b8472a;"/>
    <path clip-path="url(#p3649760de3)" d="M 122.836757 458.327105 
C 122.945534 458.327105 123.049871 458.283887 123.126789 458.206969 
C 123.203706 458.130052 123.246924 458.025715 123.246924 457.916937 
C 123.246924 457.808159 123.203706 457.703822 123.126789 457.626905 
C 123.049871 457.549987 122.945534 457.506769 122.836757 457.506769 
C 122.727979 457.506769 122.623642 457.549987 122.546724 457.626905 
C 122.469807 457.703822 122.426589 457.808159 122.426589 457.916937 
C 122.426589 458.025715 122.469807 458.130052 122.546724 458.206969 
C 122.623642 458.283887 122.727979 458.327105 122.836757 458.327105 
z
" style="fill:#be4a2b;stroke:#be4a2b;"/>
    <path clip-path="url(#p3649760de3)" d="M 123.216931 455.014109 
C 123.328041 455.014109 123.434616 454.969964 123.513183 454.891397 
C 123.59175 454.81283 123.635895 454.706256 123.635895 454.595145 
C 123.635895 454.484035 123.59175 454.37746 123.513183 454.298893 
C 123.434616 454.220326 123.328041 454.176181 123.216931 454.176181 
C 123.10582 454.176181 122.999246 454.220326 122.920679 454.298893 
C 122.842112 454.37746 122.797967 454.484035 122.797967 454.595145 
C 122.797967 454.706256 122.842112 454.81283 122.920679 454.891397 
C 122.999246 454.969964 123.10582 455.014109 123.216931 455.014109 
z
" style="fill:#c34d2d;stroke:#c34d2d;"/>
    <path clip-path="url(#p3649760de3)" d="M 123.607801 451.701302 
C 123.721295 451.701302 123.830155 451.656211 123.910407 451.575959 
C 123.990659 451.495707 124.03575 451.386847 124.03575 451.273353 
C 124.03575 451.15986 123.990659 451.051 123.910407 450.970748 
C 123.830155 450.890496 123.721295 450.845405 123.607801 450.845405 
C 123.494308 450.845405 123.385448 450.890496 123.305196 450.970748 
C 123.224944 451.051 123.179852 451.15986 123.179852 451.273353 
C 123.179852 451.386847 123.224944 451.495707 123.305196 451.575959 
C 123.385448 451.656211 123.494308 451.701302 123.607801 451.701302 
z
" style="fill:#ca502f;stroke:#ca502f;"/>
    <path clip-path="url(#p3649760de3)" d="M 124.009669 448.388688 
C 124.125596 448.388688 124.236791 448.34263 124.318764 448.260657 
C 124.400737 448.178684 124.446795 448.067489 124.446795 447.951562 
C 124.446795 447.835634 124.400737 447.72444 124.318764 447.642467 
C 124.236791 447.560494 124.125596 447.514435 124.009669 447.514435 
C 123.893741 447.514435 123.782547 447.560494 123.700574 447.642467 
C 123.618601 447.72444 123.572542 447.835634 123.572542 447.951562 
C 123.572542 448.067489 123.618601 448.178684 123.700574 448.260657 
C 123.782547 448.34263 123.893741 448.388688 124.009669 448.388688 
z
" style="fill:#d05331;stroke:#d05331;"/>
    <path clip-path="url(#p3649760de3)" d="M 124.422843 445.076271 
C 124.541256 445.076271 124.654835 445.029225 124.738566 444.945494 
C 124.822297 444.861763 124.869343 444.748183 124.869343 444.62977 
C 124.869343 444.511357 124.822297 444.397777 124.738566 444.314046 
C 124.654835 444.230315 124.541256 444.183269 124.422843 444.183269 
C 124.304429 444.183269 124.19085 444.230315 124.107119 444.314046 
C 124.023388 444.397777 123.976342 444.511357 123.976342 444.62977 
C 123.976342 444.748183 124.023388 444.861763 124.107119 444.945494 
C 124.19085 445.029225 124.304429 445.076271 124.422843 445.076271 
z
" style="fill:#d65733;stroke:#d65733;"/>
    <path clip-path="url(#p3649760de3)" d="M 124.847641 441.764054 
C 124.968594 441.764054 125.084609 441.715999 125.170136 441.630473 
C 125.255662 441.544946 125.303717 441.428931 125.303717 441.307978 
C 125.303717 441.187025 125.255662 441.07101 125.170136 440.985484 
C 125.084609 440.899957 124.968594 440.851902 124.847641 440.851902 
C 124.726688 440.851902 124.610673 440.899957 124.525146 440.985484 
C 124.43962 441.07101 124.391565 441.187025 124.391565 441.307978 
C 124.391565 441.428931 124.43962 441.544946 124.525146 441.630473 
C 124.610673 441.715999 124.726688 441.764054 124.847641 441.764054 
z
" style="fill:#dd5a35;stroke:#dd5a35;"/>
    <path clip-path="url(#p3649760de3)" d="M 125.284391 438.452044 
C 125.407938 438.452044 125.526441 438.402958 125.613802 438.315597 
C 125.701162 438.228236 125.750248 438.109733 125.750248 437.986186 
C 125.750248 437.86264 125.701162 437.744137 125.613802 437.656776 
C 125.526441 437.569415 125.407938 437.520329 125.284391 437.520329 
C 125.160844 437.520329 125.042341 437.569415 124.95498 437.656776 
C 124.86762 437.744137 124.818534 437.86264 124.818534 437.986186 
C 124.818534 438.109733 124.86762 438.228236 124.95498 438.315597 
C 125.042341 438.402958 125.160844 438.452044 125.284391 438.452044 
z
" style="fill:#e55e37;stroke:#e55e37;"/>
    <path clip-path="url(#p3649760de3)" d="M 125.733429 435.140242 
C 125.859625 435.140242 125.98067 435.090104 126.069904 435.00087 
C 126.159138 434.911636 126.209277 434.790591 126.209277 434.664395 
C 126.209277 434.538198 126.159138 434.417154 126.069904 434.32792 
C 125.98067 434.238685 125.859625 434.188547 125.733429 434.188547 
C 125.607233 434.188547 125.486188 434.238685 125.396954 434.32792 
C 125.30772 434.417154 125.257581 434.538198 125.257581 434.664395 
C 125.257581 434.790591 125.30772 434.911636 125.396954 435.00087 
C 125.486188 435.090104 125.607233 435.140242 125.733429 435.140242 
z
" style="fill:#ec6239;stroke:#ec6239;"/>
    <path clip-path="url(#p3649760de3)" d="M 126.195101 431.828655 
C 126.324003 431.828655 126.447644 431.777442 126.538792 431.686294 
C 126.629939 431.595146 126.681153 431.471506 126.681153 431.342603 
C 126.681153 431.2137 126.629939 431.09006 126.538792 430.998912 
C 126.447644 430.907764 126.324003 430.856551 126.195101 430.856551 
C 126.066198 430.856551 125.942558 430.907764 125.85141 430.998912 
C 125.760262 431.09006 125.709048 431.2137 125.709048 431.342603 
C 125.709048 431.471506 125.760262 431.595146 125.85141 431.686294 
C 125.942558 431.777442 126.066198 431.828655 126.195101 431.828655 
z
" style="fill:#f4653c;stroke:#f4653c;"/>
    <path clip-path="url(#p3649760de3)" d="M 126.669761 428.517287 
C 126.801428 428.517287 126.92772 428.464975 127.020823 428.371873 
C 127.113925 428.27877 127.166237 428.152478 127.166237 428.020811 
C 127.166237 427.889144 127.113925 427.762852 127.020823 427.66975 
C 126.92772 427.576647 126.801428 427.524335 126.669761 427.524335 
C 126.538094 427.524335 126.411802 427.576647 126.3187 427.66975 
C 126.225597 427.762852 126.173285 427.889144 126.173285 428.020811 
C 126.173285 428.152478 126.225597 428.27877 126.3187 428.371873 
C 126.411802 428.464975 126.538094 428.517287 126.669761 428.517287 
z
" style="fill:#fc6a3e;stroke:#fc6a3e;"/>
    <path clip-path="url(#p3649760de3)" d="M 127.157776 425.206143 
C 127.292267 425.206143 127.421267 425.152709 127.516366 425.05761 
C 127.611466 424.962511 127.664899 424.83351 127.664899 424.69902 
C 127.664899 424.564529 127.611466 424.435529 127.516366 424.340429 
C 127.421267 424.24533 127.292267 424.191896 127.157776 424.191896 
C 127.023286 424.191896 126.894285 424.24533 126.799186 424.340429 
C 126.704087 424.435529 126.650653 424.564529 126.650653 424.69902 
C 126.650653 424.83351 126.704087 424.962511 126.799186 425.05761 
C 126.894285 425.152709 127.023286 425.206143 127.157776 425.206143 
z
" style="fill:#ff6f42;stroke:#ff6f42;"/>
    <path clip-path="url(#p3649760de3)" d="M 127.659521 421.895226 
C 127.796896 421.895226 127.928663 421.840647 128.025802 421.743508 
C 128.122941 421.646369 128.17752 421.514603 128.17752 421.377228 
C 128.17752 421.239853 128.122941 421.108086 128.025802 421.010947 
C 127.928663 420.913809 127.796896 420.859229 127.659521 420.859229 
C 127.522147 420.859229 127.39038 420.913809 127.293241 421.010947 
C 127.196102 421.108086 127.141523 421.239853 127.141523 421.377228 
C 127.141523 421.514603 127.196102 421.646369 127.293241 421.743508 
C 127.39038 421.840647 127.522147 421.895226 127.659521 421.895226 
z
" style="fill:#ff7546;stroke:#ff7546;"/>
    <path clip-path="url(#p3649760de3)" d="M 128.175383 418.584543 
C 128.315704 418.584543 128.450297 418.528793 128.549519 418.429571 
C 128.648741 418.33035 128.704491 418.195757 128.704491 418.055436 
C 128.704491 417.915115 128.648741 417.780522 128.549519 417.681301 
C 128.450297 417.582079 128.315704 417.526329 128.175383 417.526329 
C 128.035062 417.526329 127.90047 417.582079 127.801248 417.681301 
C 127.702026 417.780522 127.646276 417.915115 127.646276 418.055436 
C 127.646276 418.195757 127.702026 418.33035 127.801248 418.429571 
C 127.90047 418.528793 128.035062 418.584543 128.175383 418.584543 
z
" style="fill:#ff7c4b;stroke:#ff7c4b;"/>
    <path clip-path="url(#p3649760de3)" d="M 128.705759 415.274099 
C 128.849089 415.274099 128.986568 415.217153 129.087918 415.115803 
C 129.189267 415.014454 129.246213 414.876974 129.246213 414.733644 
C 129.246213 414.590314 129.189267 414.452835 129.087918 414.351485 
C 128.986568 414.250136 128.849089 414.19319 128.705759 414.19319 
C 128.562428 414.19319 128.424949 414.250136 128.3236 414.351485 
C 128.22225 414.452835 128.165304 414.590314 128.165304 414.733644 
C 128.165304 414.876974 128.22225 415.014454 128.3236 415.115803 
C 128.424949 415.217153 128.562428 415.274099 128.705759 415.274099 
z
" style="fill:#ff8350;stroke:#ff8350;"/>
    <path clip-path="url(#p3649760de3)" d="M 129.251056 411.963897 
C 129.39746 411.963897 129.537887 411.90573 129.641411 411.802207 
C 129.744934 411.698684 129.803101 411.558257 129.803101 411.411853 
C 129.803101 411.265449 129.744934 411.125021 129.641411 411.021498 
C 129.537887 410.917975 129.39746 410.859808 129.251056 410.859808 
C 129.104652 410.859808 128.964225 410.917975 128.860702 411.021498 
C 128.757178 411.125021 128.699011 411.265449 128.699011 411.411853 
C 128.699011 411.558257 128.757178 411.698684 128.860702 411.802207 
C 128.964225 411.90573 129.104652 411.963897 129.251056 411.963897 
z
" style="fill:#ff8a55;stroke:#ff8a55;"/>
    <path clip-path="url(#p3649760de3)" d="M 129.811695 408.653944 
C 129.961239 408.653944 130.104678 408.59453 130.210421 408.488787 
C 130.316165 408.383043 130.375579 408.239604 130.375579 408.090061 
C 130.375579 407.940517 130.316165 407.797078 130.210421 407.691335 
C 130.104678 407.585591 129.961239 407.526177 129.811695 407.526177 
C 129.662152 407.526177 129.518713 407.585591 129.412969 407.691335 
C 129.307226 407.797078 129.247812 407.940517 129.247812 408.090061 
C 129.247812 408.239604 129.307226 408.383043 129.412969 408.488787 
C 129.518713 408.59453 129.662152 408.653944 129.811695 408.653944 
z
" style="fill:#ff915a;stroke:#ff915a;"/>
    <path clip-path="url(#p3649760de3)" d="M 130.388108 405.344245 
C 130.540859 405.344245 130.687374 405.283557 130.795385 405.175546 
C 130.903396 405.067535 130.964085 404.92102 130.964085 404.768269 
C 130.964085 404.615518 130.903396 404.469003 130.795385 404.360992 
C 130.687374 404.252981 130.540859 404.192293 130.388108 404.192293 
C 130.235357 404.192293 130.088842 404.252981 129.980831 404.360992 
C 129.87282 404.469003 129.812132 404.615518 129.812132 404.768269 
C 129.812132 404.92102 129.87282 405.067535 129.980831 405.175546 
C 130.088842 405.283557 130.235357 405.344245 130.388108 405.344245 
z
" style="fill:#ff9960;stroke:#ff9960;"/>
    <path clip-path="url(#p3649760de3)" d="M 130.980738 402.034806 
C 131.136765 402.034806 131.286422 401.972816 131.396749 401.862488 
C 131.507077 401.752161 131.569067 401.602504 131.569067 401.446477 
C 131.569067 401.290451 131.507077 401.140794 131.396749 401.030466 
C 131.286422 400.920139 131.136765 400.858149 130.980738 400.858149 
C 130.824712 400.858149 130.675054 400.920139 130.564727 401.030466 
C 130.4544 401.140794 130.39241 401.290451 130.39241 401.446477 
C 130.39241 401.602504 130.4544 401.752161 130.564727 401.862488 
C 130.675054 401.972816 130.824712 402.034806 130.980738 402.034806 
z
" style="fill:#ffa165;stroke:#ffa165;"/>
    <path clip-path="url(#p3649760de3)" d="M 131.590042 398.725631 
C 131.749414 398.725631 131.902281 398.662312 132.014974 398.549618 
C 132.127668 398.436925 132.190987 398.284058 132.190987 398.124686 
C 132.190987 397.965313 132.127668 397.812446 132.014974 397.699753 
C 131.902281 397.587059 131.749414 397.52374 131.590042 397.52374 
C 131.430669 397.52374 131.277802 397.587059 131.165109 397.699753 
C 131.052416 397.812446 130.989096 397.965313 130.989096 398.124686 
C 130.989096 398.284058 131.052416 398.436925 131.165109 398.549618 
C 131.277802 398.662312 131.430669 398.725631 131.590042 398.725631 
z
" style="fill:#ffa96b;stroke:#ffa96b;"/>
    <path clip-path="url(#p3649760de3)" d="M 132.216488 395.416727 
C 132.379278 395.416727 132.535423 395.35205 132.650533 395.236939 
C 132.765644 395.121829 132.830321 394.965684 132.830321 394.802894 
C 132.830321 394.640103 132.765644 394.483958 132.650533 394.368848 
C 132.535423 394.253738 132.379278 394.189061 132.216488 394.189061 
C 132.053697 394.189061 131.897552 394.253738 131.782442 394.368848 
C 131.667332 394.483958 131.602655 394.640103 131.602655 394.802894 
C 131.602655 394.965684 131.667332 395.121829 131.782442 395.236939 
C 131.897552 395.35205 132.053697 395.416727 132.216488 395.416727 
z
" style="fill:#ffb171;stroke:#ffb171;"/>
    <path clip-path="url(#p3649760de3)" d="M 132.860559 392.108099 
C 133.02684 392.108099 133.186334 392.042035 133.303913 391.924456 
C 133.421492 391.806877 133.487556 391.647384 133.487556 391.481102 
C 133.487556 391.314821 133.421492 391.155327 133.303913 391.037748 
C 133.186334 390.920169 133.02684 390.854105 132.860559 390.854105 
C 132.694277 390.854105 132.534784 390.920169 132.417205 391.037748 
C 132.299626 391.155327 132.233562 391.314821 132.233562 391.481102 
C 132.233562 391.647384 132.299626 391.806877 132.417205 391.924456 
C 132.534784 392.042035 132.694277 392.108099 132.860559 392.108099 
z
" style="fill:#ffb474;stroke:#ffb474;"/>
    <path clip-path="url(#p3649760de3)" d="M 133.522751 388.799754 
C 133.692598 388.799754 133.855512 388.732273 133.975613 388.612172 
C 134.095713 388.492072 134.163194 388.329158 134.163194 388.15931 
C 134.163194 387.989463 134.095713 387.826549 133.975613 387.706448 
C 133.855512 387.586348 133.692598 387.518867 133.522751 387.518867 
C 133.352903 387.518867 133.189989 387.586348 133.069889 387.706448 
C 132.949789 387.826549 132.882307 387.989463 132.882307 388.15931 
C 132.882307 388.329158 132.949789 388.492072 133.069889 388.612172 
C 133.189989 388.732273 133.352903 388.799754 133.522751 388.799754 
z
" style="fill:#ffb777;stroke:#ffb777;"/>
    <path clip-path="url(#p3649760de3)" d="M 134.203573 385.491697 
C 134.377063 385.491697 134.543471 385.422768 134.666147 385.300092 
C 134.788823 385.177416 134.857751 385.011009 134.857751 384.837519 
C 134.857751 384.664029 134.788823 384.497621 134.666147 384.374945 
C 134.543471 384.252269 134.377063 384.183341 134.203573 384.183341 
C 134.030083 384.183341 133.863676 384.252269 133.741 384.374945 
C 133.618324 384.497621 133.549395 384.664029 133.549395 384.837519 
C 133.549395 385.011009 133.618324 385.177416 133.741 385.300092 
C 133.863676 385.422768 134.030083 385.491697 134.203573 385.491697 
z
" style="fill:#ffb979;stroke:#ffb979;"/>
    <path clip-path="url(#p3649760de3)" d="M 134.903551 382.183934 
C 135.080761 382.183934 135.250738 382.113527 135.376045 381.988221 
C 135.501351 381.862914 135.571758 381.692937 135.571758 381.515727 
C 135.571758 381.338516 135.501351 381.16854 135.376045 381.043233 
C 135.250738 380.917926 135.080761 380.84752 134.903551 380.84752 
C 134.72634 380.84752 134.556364 380.917926 134.431057 381.043233 
C 134.30575 381.16854 134.235344 381.338516 134.235344 381.515727 
C 134.235344 381.692937 134.30575 381.862914 134.431057 381.988221 
C 134.556364 382.113527 134.72634 382.183934 134.903551 382.183934 
z
" style="fill:#ffbb7b;stroke:#ffbb7b;"/>
    <path clip-path="url(#p3649760de3)" d="M 135.623222 378.876472 
C 135.804233 378.876472 135.977854 378.804556 136.105848 378.676562 
C 136.233843 378.548568 136.305759 378.374946 136.305759 378.193935 
C 136.305759 378.012924 136.233843 377.839303 136.105848 377.711308 
C 135.977854 377.583314 135.804233 377.511398 135.623222 377.511398 
C 135.442211 377.511398 135.268589 377.583314 135.140595 377.711308 
C 135.012601 377.839303 134.940685 378.012924 134.940685 378.193935 
C 134.940685 378.374946 135.012601 378.548568 135.140595 378.676562 
C 135.268589 378.804556 135.442211 378.876472 135.623222 378.876472 
z
" style="fill:#ffbb7b;stroke:#ffbb7b;"/>
    <path clip-path="url(#p3649760de3)" d="M 136.363141 375.569318 
C 136.548033 375.569318 136.725378 375.495859 136.856117 375.36512 
C 136.986856 375.234381 137.060315 375.057036 137.060315 374.872143 
C 137.060315 374.68725 136.986856 374.509905 136.856117 374.379166 
C 136.725378 374.248427 136.548033 374.174969 136.363141 374.174969 
C 136.178248 374.174969 136.000903 374.248427 135.870164 374.379166 
C 135.739425 374.509905 135.665966 374.68725 135.665966 374.872143 
C 135.665966 375.057036 135.739425 375.234381 135.870164 375.36512 
C 136.000903 375.495859 136.178248 375.569318 136.363141 375.569318 
z
" style="fill:#ffbb7b;stroke:#ffbb7b;"/>
    <path clip-path="url(#p3649760de3)" d="M 137.123877 372.262477 
C 137.312735 372.262477 137.493883 372.187443 137.627426 372.053901 
C 137.760969 371.920358 137.836003 371.73921 137.836003 371.550352 
C 137.836003 371.361494 137.760969 371.180345 137.627426 371.046803 
C 137.493883 370.91326 137.312735 370.838226 137.123877 370.838226 
C 136.935019 370.838226 136.753871 370.91326 136.620328 371.046803 
C 136.486785 371.180345 136.411751 371.361494 136.411751 371.550352 
C 136.411751 371.73921 136.486785 371.920358 136.620328 372.053901 
C 136.753871 372.187443 136.935019 372.262477 137.123877 372.262477 
z
" style="fill:#ffbb7b;stroke:#ffbb7b;"/>
    <path clip-path="url(#p3649760de3)" d="M 137.906016 368.955958 
C 138.098925 368.955958 138.283958 368.879314 138.420364 368.742908 
C 138.556771 368.606501 138.633414 368.421468 138.633414 368.22856 
C 138.633414 368.035652 138.556771 367.850619 138.420364 367.714212 
C 138.283958 367.577805 138.098925 367.501162 137.906016 367.501162 
C 137.713108 367.501162 137.528075 367.577805 137.391669 367.714212 
C 137.255262 367.850619 137.178619 368.035652 137.178619 368.22856 
C 137.178619 368.421468 137.255262 368.606501 137.391669 368.742908 
C 137.528075 368.879314 137.713108 368.955958 137.906016 368.955958 
z
" style="fill:#ffbc7c;stroke:#ffbc7c;"/>
    <path clip-path="url(#p3649760de3)" d="M 138.710161 365.649765 
C 138.907206 365.649765 139.096208 365.571478 139.23554 365.432146 
C 139.374872 365.292814 139.453158 365.103813 139.453158 364.906768 
C 139.453158 364.709723 139.374872 364.520722 139.23554 364.38139 
C 139.096208 364.242058 138.907206 364.163771 138.710161 364.163771 
C 138.513116 364.163771 138.324115 364.242058 138.184783 364.38139 
C 138.045451 364.520722 137.967164 364.709723 137.967164 364.906768 
C 137.967164 365.103813 138.045451 365.292814 138.184783 365.432146 
C 138.324115 365.571478 138.513116 365.649765 138.710161 365.649765 
z
" style="fill:#ffbc7d;stroke:#ffbc7d;"/>
    <path clip-path="url(#p3649760de3)" d="M 139.536931 362.343907 
C 139.738201 362.343907 139.931256 362.263942 140.073576 362.121622 
C 140.215896 361.979302 140.295862 361.786247 140.295862 361.584976 
C 140.295862 361.383705 140.215896 361.190651 140.073576 361.048331 
C 139.931256 360.906011 139.738201 360.826045 139.536931 360.826045 
C 139.33566 360.826045 139.142605 360.906011 139.000285 361.048331 
C 138.857965 361.190651 138.777999 361.383705 138.777999 361.584976 
C 138.777999 361.786247 138.857965 361.979302 139.000285 362.121622 
C 139.142605 362.263942 139.33566 362.343907 139.536931 362.343907 
z
" style="fill:#ffbd7d;stroke:#ffbd7d;"/>
    <path clip-path="url(#p3649760de3)" d="M 140.386961 359.038391 
C 140.592548 359.038391 140.789743 358.956711 140.935115 358.811339 
C 141.080487 358.665966 141.162168 358.468772 141.162168 358.263185 
C 141.162168 358.057597 141.080487 357.860403 140.935115 357.715031 
C 140.789743 357.569659 140.592548 357.487978 140.386961 357.487978 
C 140.181374 357.487978 139.984179 357.569659 139.838807 357.715031 
C 139.693435 357.860403 139.611754 358.057597 139.611754 358.263185 
C 139.611754 358.468772 139.693435 358.665966 139.838807 358.811339 
C 139.984179 358.956711 140.181374 359.038391 140.386961 359.038391 
z
" style="fill:#ffbd7e;stroke:#ffbd7e;"/>
    <path clip-path="url(#p3649760de3)" d="M 141.260906 355.733224 
C 141.470903 355.733224 141.672326 355.649792 141.820816 355.501302 
C 141.969306 355.352813 142.052738 355.151389 142.052738 354.941393 
C 142.052738 354.731397 141.969306 354.529973 141.820816 354.381483 
C 141.672326 354.232994 141.470903 354.149561 141.260906 354.149561 
C 141.05091 354.149561 140.849487 354.232994 140.700997 354.381483 
C 140.552507 354.529973 140.469075 354.731397 140.469075 354.941393 
C 140.469075 355.151389 140.552507 355.352813 140.700997 355.501302 
C 140.849487 355.649792 141.05091 355.733224 141.260906 355.733224 
z
" style="fill:#ffbe7f;stroke:#ffbe7f;"/>
    <path clip-path="url(#p3649760de3)" d="M 142.15944 352.428414 
C 142.37394 352.428414 142.579683 352.343192 142.731357 352.191518 
C 142.883032 352.039844 142.968253 351.834101 142.968253 351.619601 
C 142.968253 351.405102 142.883032 351.199358 142.731357 351.047684 
C 142.579683 350.89601 142.37394 350.810788 142.15944 350.810788 
C 141.944941 350.810788 141.739198 350.89601 141.587523 351.047684 
C 141.435849 351.199358 141.350628 351.405102 141.350628 351.619601 
C 141.350628 351.834101 141.435849 352.039844 141.587523 352.191518 
C 141.739198 352.343192 141.944941 352.428414 142.15944 352.428414 
z
" style="fill:#ffc083;stroke:#ffc083;"/>
    <path clip-path="url(#p3649760de3)" d="M 143.083254 349.123967 
C 143.302354 349.123967 143.51251 349.036918 143.667436 348.881991 
C 143.822363 348.727065 143.909413 348.516909 143.909413 348.297809 
C 143.909413 348.07871 143.822363 347.868554 143.667436 347.713627 
C 143.51251 347.558701 143.302354 347.471651 143.083254 347.471651 
C 142.864155 347.471651 142.653999 347.558701 142.499072 347.713627 
C 142.344146 347.868554 142.257096 348.07871 142.257096 348.297809 
C 142.257096 348.516909 142.344146 348.727065 142.499072 348.881991 
C 142.653999 349.036918 142.864155 349.123967 143.083254 349.123967 
z
" style="fill:#ffc287;stroke:#ffc287;"/>
    <path clip-path="url(#p3649760de3)" d="M 144.03306 345.819893 
C 144.256858 345.819893 144.471521 345.730977 144.62977 345.572728 
C 144.788019 345.414478 144.876935 345.199816 144.876935 344.976018 
C 144.876935 344.752219 144.788019 344.537557 144.62977 344.379308 
C 144.471521 344.221058 144.256858 344.132142 144.03306 344.132142 
C 143.809261 344.132142 143.594599 344.221058 143.43635 344.379308 
C 143.2781 344.537557 143.189184 344.752219 143.189184 344.976018 
C 143.189184 345.199816 143.2781 345.414478 143.43635 345.572728 
C 143.594599 345.730977 143.809261 345.819893 144.03306 345.819893 
z
" style="fill:#ffc48b;stroke:#ffc48b;"/>
    <path clip-path="url(#p3649760de3)" d="M 145.009588 342.516199 
C 145.238186 342.516199 145.457452 342.425376 145.619095 342.263733 
C 145.780738 342.10209 145.871561 341.882824 145.871561 341.654226 
C 145.871561 341.425628 145.780738 341.206362 145.619095 341.044719 
C 145.457452 340.883076 145.238186 340.792253 145.009588 340.792253 
C 144.78099 340.792253 144.561724 340.883076 144.400081 341.044719 
C 144.238438 341.206362 144.147615 341.425628 144.147615 341.654226 
C 144.147615 341.882824 144.238438 342.10209 144.400081 342.263733 
C 144.561724 342.425376 144.78099 342.516199 145.009588 342.516199 
z
" style="fill:#ffc68f;stroke:#ffc68f;"/>
    <path clip-path="url(#p3649760de3)" d="M 146.01359 339.212892 
C 146.24709 339.212892 146.471059 339.120122 146.636168 338.955012 
C 146.801278 338.789903 146.894048 338.565934 146.894048 338.332434 
C 146.894048 338.098934 146.801278 337.874966 146.636168 337.709856 
C 146.471059 337.544747 146.24709 337.451976 146.01359 337.451976 
C 145.78009 337.451976 145.556122 337.544747 145.391012 337.709856 
C 145.225903 337.874966 145.133132 338.098934 145.133132 338.332434 
C 145.133132 338.565934 145.225903 338.789903 145.391012 338.955012 
C 145.556122 339.120122 145.78009 339.212892 146.01359 339.212892 
z
" style="fill:#ffc996;stroke:#ffc996;"/>
    <path clip-path="url(#p3649760de3)" d="M 147.04584 335.909983 
C 147.284348 335.909983 147.513119 335.815222 147.681769 335.646572 
C 147.85042 335.477921 147.94518 335.24915 147.94518 335.010642 
C 147.94518 334.772135 147.85042 334.543363 147.681769 334.374713 
C 147.513119 334.206062 147.284348 334.111302 147.04584 334.111302 
C 146.807332 334.111302 146.578561 334.206062 146.40991 334.374713 
C 146.24126 334.543363 146.1465 334.772135 146.1465 335.010642 
C 146.1465 335.24915 146.24126 335.477921 146.40991 335.646572 
C 146.578561 335.815222 146.807332 335.909983 147.04584 335.909983 
z
" style="fill:#ffce9e;stroke:#ffce9e;"/>
    <path clip-path="url(#p3649760de3)" d="M 148.107132 332.607478 
C 148.350755 332.607478 148.584432 332.510685 148.756699 332.338418 
C 148.928966 332.166151 149.025759 331.932473 149.025759 331.688851 
C 149.025759 331.445228 148.928966 331.211551 148.756699 331.039283 
C 148.584432 330.867016 148.350755 330.770224 148.107132 330.770224 
C 147.863509 330.770224 147.629832 330.867016 147.457564 331.039283 
C 147.285297 331.211551 147.188505 331.445228 147.188505 331.688851 
C 147.188505 331.932473 147.285297 332.166151 147.457564 332.338418 
C 147.629832 332.510685 147.863509 332.607478 148.107132 332.607478 
z
" style="fill:#ffd3a7;stroke:#ffd3a7;"/>
    <path clip-path="url(#p3649760de3)" d="M 149.198283 329.305386 
C 149.44713 329.305386 149.685819 329.206518 149.861781 329.030557 
C 150.037742 328.854595 150.13661 328.615906 150.13661 328.367059 
C 150.13661 328.118212 150.037742 327.879523 149.861781 327.703561 
C 149.685819 327.5276 149.44713 327.428732 149.198283 327.428732 
C 148.949436 327.428732 148.710747 327.5276 148.534785 327.703561 
C 148.358824 327.879523 148.259956 328.118212 148.259956 328.367059 
C 148.259956 328.615906 148.358824 328.854595 148.534785 329.030557 
C 148.710747 329.206518 148.949436 329.305386 149.198283 329.305386 
z
" style="fill:#ffd8af;stroke:#ffd8af;"/>
    <path clip-path="url(#p3649760de3)" d="M 150.320133 326.003717 
C 150.574317 326.003717 150.818125 325.902729 150.99786 325.722994 
C 151.177595 325.543259 151.278584 325.299451 151.278584 325.045267 
C 151.278584 324.791083 151.177595 324.547276 150.99786 324.36754 
C 150.818125 324.187805 150.574317 324.086817 150.320133 324.086817 
C 150.065949 324.086817 149.822142 324.187805 149.642407 324.36754 
C 149.462671 324.547276 149.361683 324.791083 149.361683 325.045267 
C 149.361683 325.299451 149.462671 325.543259 149.642407 325.722994 
C 149.822142 325.902729 150.065949 326.003717 150.320133 326.003717 
z
" style="fill:#ffdcb6;stroke:#ffdcb6;"/>
    <path clip-path="url(#p3649760de3)" d="M 151.473547 322.70248 
C 151.733182 322.70248 151.982218 322.599326 152.165808 322.415736 
C 152.349398 322.232147 152.452552 321.983111 152.452552 321.723475 
C 152.452552 321.46384 152.349398 321.214804 152.165808 321.031215 
C 151.982218 320.847625 151.733182 320.744471 151.473547 320.744471 
C 151.213912 320.744471 150.964876 320.847625 150.781286 321.031215 
C 150.597696 321.214804 150.494542 321.46384 150.494542 321.723475 
C 150.494542 321.983111 150.597696 322.232147 150.781286 322.415736 
C 150.964876 322.599326 151.213912 322.70248 151.473547 322.70248 
z
" style="fill:#ffe0be;stroke:#ffe0be;"/>
    <path clip-path="url(#p3649760de3)" d="M 152.659411 319.401684 
C 152.924615 319.401684 153.178991 319.296317 153.366518 319.10879 
C 153.554045 318.921264 153.659411 318.666887 153.659411 318.401684 
C 153.659411 318.136481 153.554045 317.882104 153.366518 317.694577 
C 153.178991 317.50705 152.924615 317.401684 152.659411 317.401684 
C 152.394208 317.401684 152.139832 317.50705 151.952305 317.694577 
C 151.764778 317.882104 151.659411 318.136481 151.659411 318.401684 
C 151.659411 318.666887 151.764778 318.921264 151.952305 319.10879 
C 152.139832 319.296317 152.394208 319.401684 152.659411 319.401684 
z
" style="fill:#ffe4c5;stroke:#ffe4c5;"/>
   </g>
   <g id="PathCollection_3">
    <path clip-path="url(#p3649760de3)" d="M 432.041134 102.425859 
C 433.523665 102.425859 434.945674 101.836843 435.993981 100.788536 
C 437.042289 99.740228 437.631304 98.318219 437.631304 96.835689 
C 437.631304 95.353158 437.042289 93.931149 435.993981 92.882841 
C 434.945674 91.834534 433.523665 91.245519 432.041134 91.245519 
C 430.558604 91.245519 429.136595 91.834534 428.088287 92.882841 
C 427.03998 93.931149 426.450964 95.353158 426.450964 96.835689 
C 426.450964 98.318219 427.03998 99.740228 428.088287 100.788536 
C 429.136595 101.836843 430.558604 102.425859 432.041134 102.425859 
z
" style="fill:#a1b8ff;stroke:#a1b8ff;"/>
    <path clip-path="url(#p3649760de3)" d="M 453.450756 91.819296 
C 455.104735 91.819296 456.691194 91.162163 457.860734 89.992623 
C 459.030274 88.823083 459.687407 87.236624 459.687407 85.582645 
C 459.687407 83.928666 459.030274 82.342207 457.860734 81.172667 
C 456.691194 80.003127 455.104735 79.345994 453.450756 79.345994 
C 451.796777 79.345994 450.210318 80.003127 449.040778 81.172667 
C 447.871238 82.342207 447.214105 83.928666 447.214105 85.582645 
C 447.214105 87.236624 447.871238 88.823083 449.040778 89.992623 
C 450.210318 91.162163 451.796777 91.819296 453.450756 91.819296 
z
" style="fill:#a0b7ff;stroke:#a0b7ff;"/>
    <path clip-path="url(#p3649760de3)" d="M 476.28073 81.287496 
C 478.125986 81.287496 479.895912 80.554368 481.200705 79.249576 
C 482.505497 77.944783 483.238625 76.174857 483.238625 74.329601 
C 483.238625 72.484346 482.505497 70.71442 481.200705 69.409627 
C 479.895912 68.104835 478.125986 67.371707 476.28073 67.371707 
C 474.435475 67.371707 472.665549 68.104835 471.360756 69.409627 
C 470.055964 70.71442 469.322836 72.484346 469.322836 74.329601 
C 469.322836 76.174857 470.055964 77.944783 471.360756 79.249576 
C 472.665549 80.554368 474.435475 81.287496 476.28073 81.287496 
z
" style="fill:#9fb6ff;stroke:#9fb6ff;"/>
    <path clip-path="url(#p3649760de3)" d="M 500.625286 70.839105 
C 502.683938 70.839105 504.658549 70.021194 506.114236 68.565507 
C 507.569922 67.109821 508.387833 65.135209 508.387833 63.076558 
C 508.387833 61.017906 507.569922 59.043295 506.114236 57.587608 
C 504.658549 56.131922 502.683938 55.314011 500.625286 55.314011 
C 498.566635 55.314011 496.592023 56.131922 495.136337 57.587608 
C 493.68065 59.043295 492.86274 61.017906 492.86274 63.076558 
C 492.86274 65.135209 493.68065 67.109821 495.136337 68.565507 
C 496.592023 70.021194 498.566635 70.839105 500.625286 70.839105 
z
" style="fill:#9db4ff;stroke:#9db4ff;"/>
    <path clip-path="url(#p3649760de3)" d="M 526.584903 60.483768 
C 528.88163 60.483768 531.084597 59.571269 532.708628 57.947239 
C 534.332658 56.323208 535.245157 54.12024 535.245157 51.823514 
C 535.245157 49.526788 534.332658 47.323821 532.708628 45.69979 
C 531.084597 44.075759 528.88163 43.16326 526.584903 43.16326 
C 524.288177 43.16326 522.08521 44.075759 520.461179 45.69979 
C 518.837148 47.323821 517.924649 49.526788 517.924649 51.823514 
C 517.924649 54.12024 518.837148 56.323208 520.461179 57.947239 
C 522.08521 59.571269 524.288177 60.483768 526.584903 60.483768 
z
" style="fill:#9cb3ff;stroke:#9cb3ff;"/>
   </g>
   <g id="matplotlib.axis_1">
    <g id="xtick_1">
     <g id="line2d_1">
      <defs>
       <path d="M 0 0 
L 0 3.5 
" id="me52778a3df" style="stroke:#000000;stroke-width:0.8;"/>
      </defs>
      <g>
       <use style="stroke:#000000;stroke-width:0.8;" x="109.324157" xlink:href="#me52778a3df" y="503.08"/>
      </g>
     </g>
     <g id="text_1">
      <!-- 0 -->
      <defs>
       <path d="M 31.78125 66.40625 
Q 24.171875 66.40625 20.328125 58.90625 
Q 16.5 51.421875 16.5 36.375 
Q 16.5 21.390625 20.328125 13.890625 
Q 24.171875 6.390625 31.78125 6.390625 
Q 39.453125 6.390625 43.28125 13.890625 
Q 47.125 21.390625 47.125 36.375 
Q 47.125 51.421875 43.28125 58.90625 
Q 39.453125 66.40625 31.78125 66.40625 
z
M 31.78125 74.21875 
Q 44.046875 74.21875 50.515625 64.515625 
Q 56.984375 54.828125 56.984375 36.375 
Q 56.984375 17.96875 50.515625 8.265625 
Q 44.046875 -1.421875 31.78125 -1.421875 
Q 19.53125 -1.421875 13.0625 8.265625 
Q 6.59375 17.96875 6.59375 36.375 
Q 6.59375 54.828125 13.0625 64.515625 
Q 19.53125 74.21875 31.78125 74.21875 
z
" id="DejaVuSans-30"/>
      </defs>
      <g transform="translate(102.961657 525.276875)scale(0.2 -0.2)">
       <use xlink:href="#DejaVuSans-30"/>
      </g>
     </g>
    </g>
    <g id="xtick_2">
     <g id="line2d_2">
      <g>
       <use style="stroke:#000000;stroke-width:0.8;" x="198.373915" xlink:href="#me52778a3df" y="503.08"/>
      </g>
     </g>
     <g id="text_2">
      <!-- 10000 -->
      <defs>
       <path d="M 12.40625 8.296875 
L 28.515625 8.296875 
L 28.515625 63.921875 
L 10.984375 60.40625 
L 10.984375 69.390625 
L 28.421875 72.90625 
L 38.28125 72.90625 
L 38.28125 8.296875 
L 54.390625 8.296875 
L 54.390625 0 
L 12.40625 0 
z
" id="DejaVuSans-31"/>
      </defs>
      <g transform="translate(166.561415 525.276875)scale(0.2 -0.2)">
       <use xlink:href="#DejaVuSans-31"/>
       <use x="63.623047" xlink:href="#DejaVuSans-30"/>
       <use x="127.246094" xlink:href="#DejaVuSans-30"/>
       <use x="190.869141" xlink:href="#DejaVuSans-30"/>
       <use x="254.492188" xlink:href="#DejaVuSans-30"/>
      </g>
     </g>
    </g>
    <g id="xtick_3">
     <g id="line2d_3">
      <g>
       <use style="stroke:#000000;stroke-width:0.8;" x="287.423674" xlink:href="#me52778a3df" y="503.08"/>
      </g>
     </g>
     <g id="text_3">
      <!-- 20000 -->
      <defs>
       <path d="M 19.1875 8.296875 
L 53.609375 8.296875 
L 53.609375 0 
L 7.328125 0 
L 7.328125 8.296875 
Q 12.9375 14.109375 22.625 23.890625 
Q 32.328125 33.6875 34.8125 36.53125 
Q 39.546875 41.84375 41.421875 45.53125 
Q 43.3125 49.21875 43.3125 52.78125 
Q 43.3125 58.59375 39.234375 62.25 
Q 35.15625 65.921875 28.609375 65.921875 
Q 23.96875 65.921875 18.8125 64.3125 
Q 13.671875 62.703125 7.8125 59.421875 
L 7.8125 69.390625 
Q 13.765625 71.78125 18.9375 73 
Q 24.125 74.21875 28.421875 74.21875 
Q 39.75 74.21875 46.484375 68.546875 
Q 53.21875 62.890625 53.21875 53.421875 
Q 53.21875 48.921875 51.53125 44.890625 
Q 49.859375 40.875 45.40625 35.40625 
Q 44.1875 33.984375 37.640625 27.21875 
Q 31.109375 20.453125 19.1875 8.296875 
z
" id="DejaVuSans-32"/>
      </defs>
      <g transform="translate(255.611174 525.276875)scale(0.2 -0.2)">
       <use xlink:href="#DejaVuSans-32"/>
       <use x="63.623047" xlink:href="#DejaVuSans-30"/>
       <use x="127.246094" xlink:href="#DejaVuSans-30"/>
       <use x="190.869141" xlink:href="#DejaVuSans-30"/>
       <use x="254.492188" xlink:href="#DejaVuSans-30"/>
      </g>
     </g>
    </g>
    <g id="xtick_4">
     <g id="line2d_4">
      <g>
       <use style="stroke:#000000;stroke-width:0.8;" x="376.473433" xlink:href="#me52778a3df" y="503.08"/>
      </g>
     </g>
     <g id="text_4">
      <!-- 30000 -->
      <defs>
       <path d="M 40.578125 39.3125 
Q 47.65625 37.796875 51.625 33 
Q 55.609375 28.21875 55.609375 21.1875 
Q 55.609375 10.40625 48.1875 4.484375 
Q 40.765625 -1.421875 27.09375 -1.421875 
Q 22.515625 -1.421875 17.65625 -0.515625 
Q 12.796875 0.390625 7.625 2.203125 
L 7.625 11.71875 
Q 11.71875 9.328125 16.59375 8.109375 
Q 21.484375 6.890625 26.8125 6.890625 
Q 36.078125 6.890625 40.9375 10.546875 
Q 45.796875 14.203125 45.796875 21.1875 
Q 45.796875 27.640625 41.28125 31.265625 
Q 36.765625 34.90625 28.71875 34.90625 
L 20.21875 34.90625 
L 20.21875 43.015625 
L 29.109375 43.015625 
Q 36.375 43.015625 40.234375 45.921875 
Q 44.09375 48.828125 44.09375 54.296875 
Q 44.09375 59.90625 40.109375 62.90625 
Q 36.140625 65.921875 28.71875 65.921875 
Q 24.65625 65.921875 20.015625 65.03125 
Q 15.375 64.15625 9.8125 62.3125 
L 9.8125 71.09375 
Q 15.4375 72.65625 20.34375 73.4375 
Q 25.25 74.21875 29.59375 74.21875 
Q 40.828125 74.21875 47.359375 69.109375 
Q 53.90625 64.015625 53.90625 55.328125 
Q 53.90625 49.265625 50.4375 45.09375 
Q 46.96875 40.921875 40.578125 39.3125 
z
" id="DejaVuSans-33"/>
      </defs>
      <g transform="translate(344.660933 525.276875)scale(0.2 -0.2)">
       <use xlink:href="#DejaVuSans-33"/>
       <use x="63.623047" xlink:href="#DejaVuSans-30"/>
       <use x="127.246094" xlink:href="#DejaVuSans-30"/>
       <use x="190.869141" xlink:href="#DejaVuSans-30"/>
       <use x="254.492188" xlink:href="#DejaVuSans-30"/>
      </g>
     </g>
    </g>
    <g id="xtick_5">
     <g id="line2d_5">
      <g>
       <use style="stroke:#000000;stroke-width:0.8;" x="465.523192" xlink:href="#me52778a3df" y="503.08"/>
      </g>
     </g>
     <g id="text_5">
      <!-- 40000 -->
      <defs>
       <path d="M 37.796875 64.3125 
L 12.890625 25.390625 
L 37.796875 25.390625 
z
M 35.203125 72.90625 
L 47.609375 72.90625 
L 47.609375 25.390625 
L 58.015625 25.390625 
L 58.015625 17.1875 
L 47.609375 17.1875 
L 47.609375 0 
L 37.796875 0 
L 37.796875 17.1875 
L 4.890625 17.1875 
L 4.890625 26.703125 
z
" id="DejaVuSans-34"/>
      </defs>
      <g transform="translate(433.710692 525.276875)scale(0.2 -0.2)">
       <use xlink:href="#DejaVuSans-34"/>
       <use x="63.623047" xlink:href="#DejaVuSans-30"/>
       <use x="127.246094" xlink:href="#DejaVuSans-30"/>
       <use x="190.869141" xlink:href="#DejaVuSans-30"/>
       <use x="254.492188" xlink:href="#DejaVuSans-30"/>
      </g>
     </g>
    </g>
    <g id="text_6">
     <!-- Temperature -->
     <defs>
      <path d="M -0.296875 72.90625 
L 61.375 72.90625 
L 61.375 64.59375 
L 35.5 64.59375 
L 35.5 0 
L 25.59375 0 
L 25.59375 64.59375 
L -0.296875 64.59375 
z
" id="DejaVuSans-54"/>
      <path d="M 56.203125 29.59375 
L 56.203125 25.203125 
L 14.890625 25.203125 
Q 15.484375 15.921875 20.484375 11.0625 
Q 25.484375 6.203125 34.421875 6.203125 
Q 39.59375 6.203125 44.453125 7.46875 
Q 49.3125 8.734375 54.109375 11.28125 
L 54.109375 2.78125 
Q 49.265625 0.734375 44.1875 -0.34375 
Q 39.109375 -1.421875 33.890625 -1.421875 
Q 20.796875 -1.421875 13.15625 6.1875 
Q 5.515625 13.8125 5.515625 26.8125 
Q 5.515625 40.234375 12.765625 48.109375 
Q 20.015625 56 32.328125 56 
Q 43.359375 56 49.78125 48.890625 
Q 56.203125 41.796875 56.203125 29.59375 
z
M 47.21875 32.234375 
Q 47.125 39.59375 43.09375 43.984375 
Q 39.0625 48.390625 32.421875 48.390625 
Q 24.90625 48.390625 20.390625 44.140625 
Q 15.875 39.890625 15.1875 32.171875 
z
" id="DejaVuSans-65"/>
      <path d="M 52 44.1875 
Q 55.375 50.25 60.0625 53.125 
Q 64.75 56 71.09375 56 
Q 79.640625 56 84.28125 50.015625 
Q 88.921875 44.046875 88.921875 33.015625 
L 88.921875 0 
L 79.890625 0 
L 79.890625 32.71875 
Q 79.890625 40.578125 77.09375 44.375 
Q 74.3125 48.1875 68.609375 48.1875 
Q 61.625 48.1875 57.5625 43.546875 
Q 53.515625 38.921875 53.515625 30.90625 
L 53.515625 0 
L 44.484375 0 
L 44.484375 32.71875 
Q 44.484375 40.625 41.703125 44.40625 
Q 38.921875 48.1875 33.109375 48.1875 
Q 26.21875 48.1875 22.15625 43.53125 
Q 18.109375 38.875 18.109375 30.90625 
L 18.109375 0 
L 9.078125 0 
L 9.078125 54.6875 
L 18.109375 54.6875 
L 18.109375 46.1875 
Q 21.1875 51.21875 25.484375 53.609375 
Q 29.78125 56 35.6875 56 
Q 41.65625 56 45.828125 52.96875 
Q 50 49.953125 52 44.1875 
z
" id="DejaVuSans-6d"/>
      <path d="M 18.109375 8.203125 
L 18.109375 -20.796875 
L 9.078125 -20.796875 
L 9.078125 54.6875 
L 18.109375 54.6875 
L 18.109375 46.390625 
Q 20.953125 51.265625 25.265625 53.625 
Q 29.59375 56 35.59375 56 
Q 45.5625 56 51.78125 48.09375 
Q 58.015625 40.1875 58.015625 27.296875 
Q 58.015625 14.40625 51.78125 6.484375 
Q 45.5625 -1.421875 35.59375 -1.421875 
Q 29.59375 -1.421875 25.265625 0.953125 
Q 20.953125 3.328125 18.109375 8.203125 
z
M 48.6875 27.296875 
Q 48.6875 37.203125 44.609375 42.84375 
Q 40.53125 48.484375 33.40625 48.484375 
Q 26.265625 48.484375 22.1875 42.84375 
Q 18.109375 37.203125 18.109375 27.296875 
Q 18.109375 17.390625 22.1875 11.75 
Q 26.265625 6.109375 33.40625 6.109375 
Q 40.53125 6.109375 44.609375 11.75 
Q 48.6875 17.390625 48.6875 27.296875 
z
" id="DejaVuSans-70"/>
      <path d="M 41.109375 46.296875 
Q 39.59375 47.171875 37.8125 47.578125 
Q 36.03125 48 33.890625 48 
Q 26.265625 48 22.1875 43.046875 
Q 18.109375 38.09375 18.109375 28.8125 
L 18.109375 0 
L 9.078125 0 
L 9.078125 54.6875 
L 18.109375 54.6875 
L 18.109375 46.1875 
Q 20.953125 51.171875 25.484375 53.578125 
Q 30.03125 56 36.53125 56 
Q 37.453125 56 38.578125 55.875 
Q 39.703125 55.765625 41.0625 55.515625 
z
" id="DejaVuSans-72"/>
      <path d="M 34.28125 27.484375 
Q 23.390625 27.484375 19.1875 25 
Q 14.984375 22.515625 14.984375 16.5 
Q 14.984375 11.71875 18.140625 8.90625 
Q 21.296875 6.109375 26.703125 6.109375 
Q 34.1875 6.109375 38.703125 11.40625 
Q 43.21875 16.703125 43.21875 25.484375 
L 43.21875 27.484375 
z
M 52.203125 31.203125 
L 52.203125 0 
L 43.21875 0 
L 43.21875 8.296875 
Q 40.140625 3.328125 35.546875 0.953125 
Q 30.953125 -1.421875 24.3125 -1.421875 
Q 15.921875 -1.421875 10.953125 3.296875 
Q 6 8.015625 6 15.921875 
Q 6 25.140625 12.171875 29.828125 
Q 18.359375 34.515625 30.609375 34.515625 
L 43.21875 34.515625 
L 43.21875 35.40625 
Q 43.21875 41.609375 39.140625 45 
Q 35.0625 48.390625 27.6875 48.390625 
Q 23 48.390625 18.546875 47.265625 
Q 14.109375 46.140625 10.015625 43.890625 
L 10.015625 52.203125 
Q 14.9375 54.109375 19.578125 55.046875 
Q 24.21875 56 28.609375 56 
Q 40.484375 56 46.34375 49.84375 
Q 52.203125 43.703125 52.203125 31.203125 
z
" id="DejaVuSans-61"/>
      <path d="M 18.3125 70.21875 
L 18.3125 54.6875 
L 36.8125 54.6875 
L 36.8125 47.703125 
L 18.3125 47.703125 
L 18.3125 18.015625 
Q 18.3125 11.328125 20.140625 9.421875 
Q 21.96875 7.515625 27.59375 7.515625 
L 36.8125 7.515625 
L 36.8125 0 
L 27.59375 0 
Q 17.1875 0 13.234375 3.875 
Q 9.28125 7.765625 9.28125 18.015625 
L 9.28125 47.703125 
L 2.6875 47.703125 
L 2.6875 54.6875 
L 9.28125 54.6875 
L 9.28125 70.21875 
z
" id="DejaVuSans-74"/>
      <path d="M 8.5 21.578125 
L 8.5 54.6875 
L 17.484375 54.6875 
L 17.484375 21.921875 
Q 17.484375 14.15625 20.5 10.265625 
Q 23.53125 6.390625 29.59375 6.390625 
Q 36.859375 6.390625 41.078125 11.03125 
Q 45.3125 15.671875 45.3125 23.6875 
L 45.3125 54.6875 
L 54.296875 54.6875 
L 54.296875 0 
L 45.3125 0 
L 45.3125 8.40625 
Q 42.046875 3.421875 37.71875 1 
Q 33.40625 -1.421875 27.6875 -1.421875 
Q 18.265625 -1.421875 13.375 4.4375 
Q 8.5 10.296875 8.5 21.578125 
z
M 31.109375 56 
z
" id="DejaVuSans-75"/>
     </defs>
     <g transform="translate(260.568475 548.633125)scale(0.2 -0.2)">
      <use xlink:href="#DejaVuSans-54"/>
      <use x="60.818359" xlink:href="#DejaVuSans-65"/>
      <use x="122.341797" xlink:href="#DejaVuSans-6d"/>
      <use x="219.753906" xlink:href="#DejaVuSans-70"/>
      <use x="283.230469" xlink:href="#DejaVuSans-65"/>
      <use x="344.753906" xlink:href="#DejaVuSans-72"/>
      <use x="385.867188" xlink:href="#DejaVuSans-61"/>
      <use x="447.146484" xlink:href="#DejaVuSans-74"/>
      <use x="486.355469" xlink:href="#DejaVuSans-75"/>
      <use x="549.734375" xlink:href="#DejaVuSans-72"/>
      <use x="590.816406" xlink:href="#DejaVuSans-65"/>
     </g>
    </g>
   </g>
   <g id="matplotlib.axis_2">
    <g id="ytick_1">
     <g id="line2d_6">
      <defs>
       <path d="M 0 0 
L -3.5 0 
" id="mf9f1cd0825" style="stroke:#000000;stroke-width:0.8;"/>
      </defs>
      <g>
       <use style="stroke:#000000;stroke-width:0.8;" x="99.7257" xlink:href="#mf9f1cd0825" y="454.050459"/>
      </g>
     </g>
     <g id="text_7">
      <!-- $\mathdefault{10^{-4}}$ -->
      <defs>
       <path d="M 10.59375 35.5 
L 73.1875 35.5 
L 73.1875 27.203125 
L 10.59375 27.203125 
z
" id="DejaVuSans-2212"/>
      </defs>
      <g transform="translate(45.7257 461.648897)scale(0.2 -0.2)">
       <use transform="translate(0 0.684375)" xlink:href="#DejaVuSans-31"/>
       <use transform="translate(63.623047 0.684375)" xlink:href="#DejaVuSans-30"/>
       <use transform="translate(128.203125 38.965625)scale(0.7)" xlink:href="#DejaVuSans-2212"/>
       <use transform="translate(186.855469 38.965625)scale(0.7)" xlink:href="#DejaVuSans-34"/>
      </g>
     </g>
    </g>
    <g id="ytick_2">
     <g id="line2d_7">
      <g>
       <use style="stroke:#000000;stroke-width:0.8;" x="99.7257" xlink:href="#mf9f1cd0825" y="374.672374"/>
      </g>
     </g>
     <g id="text_8">
      <!-- $\mathdefault{10^{-2}}$ -->
      <g transform="translate(45.7257 382.270812)scale(0.2 -0.2)">
       <use transform="translate(0 0.765625)" xlink:href="#DejaVuSans-31"/>
       <use transform="translate(63.623047 0.765625)" xlink:href="#DejaVuSans-30"/>
       <use transform="translate(128.203125 39.046875)scale(0.7)" xlink:href="#DejaVuSans-2212"/>
       <use transform="translate(186.855469 39.046875)scale(0.7)" xlink:href="#DejaVuSans-32"/>
      </g>
     </g>
    </g>
    <g id="ytick_3">
     <g id="line2d_8">
      <g>
       <use style="stroke:#000000;stroke-width:0.8;" x="99.7257" xlink:href="#mf9f1cd0825" y="295.294289"/>
      </g>
     </g>
     <g id="text_9">
      <!-- $\mathdefault{10^{0}}$ -->
      <g transform="translate(57.5257 302.892727)scale(0.2 -0.2)">
       <use transform="translate(0 0.765625)" xlink:href="#DejaVuSans-31"/>
       <use transform="translate(63.623047 0.765625)" xlink:href="#DejaVuSans-30"/>
       <use transform="translate(128.203125 39.046875)scale(0.7)" xlink:href="#DejaVuSans-30"/>
      </g>
     </g>
    </g>
    <g id="ytick_4">
     <g id="line2d_9">
      <g>
       <use style="stroke:#000000;stroke-width:0.8;" x="99.7257" xlink:href="#mf9f1cd0825" y="215.916204"/>
      </g>
     </g>
     <g id="text_10">
      <!-- $\mathdefault{10^{2}}$ -->
      <g transform="translate(57.5257 223.514642)scale(0.2 -0.2)">
       <use transform="translate(0 0.765625)" xlink:href="#DejaVuSans-31"/>
       <use transform="translate(63.623047 0.765625)" xlink:href="#DejaVuSans-30"/>
       <use transform="translate(128.203125 39.046875)scale(0.7)" xlink:href="#DejaVuSans-32"/>
      </g>
     </g>
    </g>
    <g id="ytick_5">
     <g id="line2d_10">
      <g>
       <use style="stroke:#000000;stroke-width:0.8;" x="99.7257" xlink:href="#mf9f1cd0825" y="136.538119"/>
      </g>
     </g>
     <g id="text_11">
      <!-- $\mathdefault{10^{4}}$ -->
      <g transform="translate(57.5257 144.136557)scale(0.2 -0.2)">
       <use transform="translate(0 0.684375)" xlink:href="#DejaVuSans-31"/>
       <use transform="translate(63.623047 0.684375)" xlink:href="#DejaVuSans-30"/>
       <use transform="translate(128.203125 38.965625)scale(0.7)" xlink:href="#DejaVuSans-34"/>
      </g>
     </g>
    </g>
    <g id="ytick_6">
     <g id="line2d_11">
      <g>
       <use style="stroke:#000000;stroke-width:0.8;" x="99.7257" xlink:href="#mf9f1cd0825" y="57.160034"/>
      </g>
     </g>
     <g id="text_12">
      <!-- $\mathdefault{10^{6}}$ -->
      <defs>
       <path d="M 33.015625 40.375 
Q 26.375 40.375 22.484375 35.828125 
Q 18.609375 31.296875 18.609375 23.390625 
Q 18.609375 15.53125 22.484375 10.953125 
Q 26.375 6.390625 33.015625 6.390625 
Q 39.65625 6.390625 43.53125 10.953125 
Q 47.40625 15.53125 47.40625 23.390625 
Q 47.40625 31.296875 43.53125 35.828125 
Q 39.65625 40.375 33.015625 40.375 
z
M 52.59375 71.296875 
L 52.59375 62.3125 
Q 48.875 64.0625 45.09375 64.984375 
Q 41.3125 65.921875 37.59375 65.921875 
Q 27.828125 65.921875 22.671875 59.328125 
Q 17.53125 52.734375 16.796875 39.40625 
Q 19.671875 43.65625 24.015625 45.921875 
Q 28.375 48.1875 33.59375 48.1875 
Q 44.578125 48.1875 50.953125 41.515625 
Q 57.328125 34.859375 57.328125 23.390625 
Q 57.328125 12.15625 50.6875 5.359375 
Q 44.046875 -1.421875 33.015625 -1.421875 
Q 20.359375 -1.421875 13.671875 8.265625 
Q 6.984375 17.96875 6.984375 36.375 
Q 6.984375 53.65625 15.1875 63.9375 
Q 23.390625 74.21875 37.203125 74.21875 
Q 40.921875 74.21875 44.703125 73.484375 
Q 48.484375 72.75 52.59375 71.296875 
z
" id="DejaVuSans-36"/>
      </defs>
      <g transform="translate(57.5257 64.758471)scale(0.2 -0.2)">
       <use transform="translate(0 0.765625)" xlink:href="#DejaVuSans-31"/>
       <use transform="translate(63.623047 0.765625)" xlink:href="#DejaVuSans-30"/>
       <use transform="translate(128.203125 39.046875)scale(0.7)" xlink:href="#DejaVuSans-36"/>
      </g>
     </g>
    </g>
    <g id="text_13">
     <!-- Luminosity -->
     <defs>
      <path d="M 9.8125 72.90625 
L 19.671875 72.90625 
L 19.671875 8.296875 
L 55.171875 8.296875 
L 55.171875 0 
L 9.8125 0 
z
" id="DejaVuSans-4c"/>
      <path d="M 9.421875 54.6875 
L 18.40625 54.6875 
L 18.40625 0 
L 9.421875 0 
z
M 9.421875 75.984375 
L 18.40625 75.984375 
L 18.40625 64.59375 
L 9.421875 64.59375 
z
" id="DejaVuSans-69"/>
      <path d="M 54.890625 33.015625 
L 54.890625 0 
L 45.90625 0 
L 45.90625 32.71875 
Q 45.90625 40.484375 42.875 44.328125 
Q 39.84375 48.1875 33.796875 48.1875 
Q 26.515625 48.1875 22.3125 43.546875 
Q 18.109375 38.921875 18.109375 30.90625 
L 18.109375 0 
L 9.078125 0 
L 9.078125 54.6875 
L 18.109375 54.6875 
L 18.109375 46.1875 
Q 21.34375 51.125 25.703125 53.5625 
Q 30.078125 56 35.796875 56 
Q 45.21875 56 50.046875 50.171875 
Q 54.890625 44.34375 54.890625 33.015625 
z
" id="DejaVuSans-6e"/>
      <path d="M 30.609375 48.390625 
Q 23.390625 48.390625 19.1875 42.75 
Q 14.984375 37.109375 14.984375 27.296875 
Q 14.984375 17.484375 19.15625 11.84375 
Q 23.34375 6.203125 30.609375 6.203125 
Q 37.796875 6.203125 41.984375 11.859375 
Q 46.1875 17.53125 46.1875 27.296875 
Q 46.1875 37.015625 41.984375 42.703125 
Q 37.796875 48.390625 30.609375 48.390625 
z
M 30.609375 56 
Q 42.328125 56 49.015625 48.375 
Q 55.71875 40.765625 55.71875 27.296875 
Q 55.71875 13.875 49.015625 6.21875 
Q 42.328125 -1.421875 30.609375 -1.421875 
Q 18.84375 -1.421875 12.171875 6.21875 
Q 5.515625 13.875 5.515625 27.296875 
Q 5.515625 40.765625 12.171875 48.375 
Q 18.84375 56 30.609375 56 
z
" id="DejaVuSans-6f"/>
      <path d="M 44.28125 53.078125 
L 44.28125 44.578125 
Q 40.484375 46.53125 36.375 47.5 
Q 32.28125 48.484375 27.875 48.484375 
Q 21.1875 48.484375 17.84375 46.4375 
Q 14.5 44.390625 14.5 40.28125 
Q 14.5 37.15625 16.890625 35.375 
Q 19.28125 33.59375 26.515625 31.984375 
L 29.59375 31.296875 
Q 39.15625 29.25 43.1875 25.515625 
Q 47.21875 21.78125 47.21875 15.09375 
Q 47.21875 7.46875 41.1875 3.015625 
Q 35.15625 -1.421875 24.609375 -1.421875 
Q 20.21875 -1.421875 15.453125 -0.5625 
Q 10.6875 0.296875 5.421875 2 
L 5.421875 11.28125 
Q 10.40625 8.6875 15.234375 7.390625 
Q 20.0625 6.109375 24.8125 6.109375 
Q 31.15625 6.109375 34.5625 8.28125 
Q 37.984375 10.453125 37.984375 14.40625 
Q 37.984375 18.0625 35.515625 20.015625 
Q 33.0625 21.96875 24.703125 23.78125 
L 21.578125 24.515625 
Q 13.234375 26.265625 9.515625 29.90625 
Q 5.8125 33.546875 5.8125 39.890625 
Q 5.8125 47.609375 11.28125 51.796875 
Q 16.75 56 26.8125 56 
Q 31.78125 56 36.171875 55.265625 
Q 40.578125 54.546875 44.28125 53.078125 
z
" id="DejaVuSans-73"/>
      <path d="M 32.171875 -5.078125 
Q 28.375 -14.84375 24.75 -17.8125 
Q 21.140625 -20.796875 15.09375 -20.796875 
L 7.90625 -20.796875 
L 7.90625 -13.28125 
L 13.1875 -13.28125 
Q 16.890625 -13.28125 18.9375 -11.515625 
Q 21 -9.765625 23.484375 -3.21875 
L 25.09375 0.875 
L 2.984375 54.6875 
L 12.5 54.6875 
L 29.59375 11.921875 
L 46.6875 54.6875 
L 56.203125 54.6875 
z
" id="DejaVuSans-79"/>
     </defs>
     <g transform="translate(37.566325 318.309375)rotate(-90)scale(0.2 -0.2)">
      <use xlink:href="#DejaVuSans-4c"/>
      <use x="55.697266" xlink:href="#DejaVuSans-75"/>
      <use x="119.076172" xlink:href="#DejaVuSans-6d"/>
      <use x="216.488281" xlink:href="#DejaVuSans-69"/>
      <use x="244.271484" xlink:href="#DejaVuSans-6e"/>
      <use x="307.650391" xlink:href="#DejaVuSans-6f"/>
      <use x="368.832031" xlink:href="#DejaVuSans-73"/>
      <use x="420.931641" xlink:href="#DejaVuSans-69"/>
      <use x="448.714844" xlink:href="#DejaVuSans-74"/>
      <use x="487.923828" xlink:href="#DejaVuSans-79"/>
     </g>
    </g>
   </g>
   <g id="patch_3">
    <path d="M 99.7257 503.08 
L 99.7257 24.12 
" style="fill:none;stroke:#000000;stroke-linecap:square;stroke-linejoin:miter;stroke-width:0.8;"/>
   </g>
   <g id="patch_4">
    <path d="M 551.88 503.08 
L 551.88 24.12 
" style="fill:none;stroke:#000000;stroke-linecap:square;stroke-linejoin:miter;stroke-width:0.8;"/>
   </g>
   <g id="patch_5">
    <path d="M 99.7257 503.08 
L 551.88 503.08 
" style="fill:none;stroke:#000000;stroke-linecap:square;stroke-linejoin:miter;stroke-width:0.8;"/>
   </g>
   <g id="patch_6">
    <path d="M 99.7257 24.12 
L 551.88 24.12 
" style="fill:none;stroke:#000000;stroke-linecap:square;stroke-linejoin:miter;stroke-width:0.8;"/>
   </g>
  </g>
 </g>
 <defs>
  <clipPath id="p3649760de3">
   <rect height="478.96" width="452.1543" x="99.7257" y="24.12"/>
  </clipPath>
 </defs>
</svg>
