<?xml version="1.0" encoding="utf-8" standalone="no"?>
<!DOCTYPE svg PUBLIC "-//W3C//DTD SVG 1.1//EN"
  "http://www.w3.org/Graphics/SVG/1.1/DTD/svg11.dtd">
<!-- Created with matplotlib (http://matplotlib.org/) -->
<svg height="345.6pt" version="1.1" viewBox="0 0 460.8 345.6" width="460.8pt" xmlns="http://www.w3.org/2000/svg" xmlns:xlink="http://www.w3.org/1999/xlink">
 <defs>
  <style type="text/css">
*{stroke-linecap:butt;stroke-linejoin:round;}
  </style>
 </defs>
 <g id="figure_1">
  <g id="patch_1">
   <path d="M 0 345.6 
L 460.8 345.6 
L 460.8 0 
L 0 0 
z
" style="fill:#ffffff;"/>
  </g>
  <g id="axes_1">
   <g id="patch_2">
    <path d="M 89.384319 280.6 
L 440.1 280.6 
L 440.1 20.7 
L 89.384319 20.7 
z
" style="fill:#ffffff;"/>
   </g>
   <g id="PathCollection_1">
    <path clip-path="url(#pedcd822d35)" d="M 130.564837 182.032006 
C 130.83004 182.032006 131.084417 181.92664 131.271944 181.739113 
C 131.459471 181.551586 131.564837 181.297209 131.564837 181.032006 
C 131.564837 180.766803 131.459471 180.512426 131.271944 180.324899 
C 131.084417 180.137372 130.83004 180.032006 130.564837 180.032006 
C 130.299634 180.032006 130.045258 180.137372 129.857731 180.324899 
C 129.670204 180.512426 129.564837 180.766803 129.564837 181.032006 
C 129.564837 181.297209 129.670204 181.551586 129.857731 181.739113 
C 130.045258 181.92664 130.299634 182.032006 130.564837 182.032006 
z
" style="fill:#ffe4c5;stroke:#ffe4c5;"/>
    <path clip-path="url(#pedcd822d35)" d="M 131.672875 180.083482 
C 131.944141 180.083482 132.204334 179.975706 132.396148 179.783892 
C 132.587963 179.592077 132.695738 179.331885 132.695738 179.060618 
C 132.695738 178.789351 132.587963 178.529159 132.396148 178.337344 
C 132.204334 178.14553 131.944141 178.037754 131.672875 178.037754 
C 131.401608 178.037754 131.141415 178.14553 130.949601 178.337344 
C 130.757786 178.529159 130.650011 178.789351 130.650011 179.060618 
C 130.650011 179.331885 130.757786 179.592077 130.949601 179.783892 
C 131.141415 179.975706 131.401608 180.083482 131.672875 180.083482 
z
" style="fill:#ffe9ce;stroke:#ffe9ce;"/>
    <path clip-path="url(#pedcd822d35)" d="M 132.817235 178.263025 
C 133.094432 178.263025 133.360314 178.152893 133.556322 177.956885 
C 133.75233 177.760877 133.862462 177.494995 133.862462 177.217798 
C 133.862462 176.9406 133.75233 176.674719 133.556322 176.478711 
C 133.360314 176.282702 133.094432 176.172571 132.817235 176.172571 
C 132.540037 176.172571 132.274156 176.282702 132.078147 176.478711 
C 131.882139 176.674719 131.772007 176.9406 131.772007 177.217798 
C 131.772007 177.494995 131.882139 177.760877 132.078147 177.956885 
C 132.274156 178.152893 132.540037 178.263025 132.817235 178.263025 
z
" style="fill:#ffeed8;stroke:#ffeed8;"/>
    <path clip-path="url(#pedcd822d35)" d="M 133.827881 176.421259 
C 134.111041 176.421259 134.382641 176.308759 134.582865 176.108535 
C 134.783089 175.908311 134.895589 175.636711 134.895589 175.353551 
C 134.895589 175.070392 134.783089 174.798792 134.582865 174.598568 
C 134.382641 174.398344 134.111041 174.285843 133.827881 174.285843 
C 133.544722 174.285843 133.273122 174.398344 133.072898 174.598568 
C 132.872674 174.798792 132.760174 175.070392 132.760174 175.353551 
C 132.760174 175.636711 132.872674 175.908311 133.072898 176.108535 
C 133.273122 176.308759 133.544722 176.421259 133.827881 176.421259 
z
" style="fill:#fff2e1;stroke:#fff2e1;"/>
    <path clip-path="url(#pedcd822d35)" d="M 134.866863 174.707024 
C 135.15571 174.707024 135.432764 174.592264 135.637009 174.388019 
C 135.841254 174.183774 135.956014 173.906719 135.956014 173.617873 
C 135.956014 173.329027 135.841254 173.051972 135.637009 172.847727 
C 135.432764 172.643482 135.15571 172.528722 134.866863 172.528722 
C 134.578017 172.528722 134.300962 172.643482 134.096717 172.847727 
C 133.892472 173.051972 133.777712 173.329027 133.777712 173.617873 
C 133.777712 173.906719 133.892472 174.183774 134.096717 174.388019 
C 134.300962 174.592264 134.578017 174.707024 134.866863 174.707024 
z
" style="fill:#fff4e8;stroke:#fff4e8;"/>
    <path clip-path="url(#pedcd822d35)" d="M 136.663576 171.427331 
C 136.963473 171.427331 137.251127 171.308181 137.463185 171.096122 
C 137.675244 170.884063 137.794394 170.596409 137.794394 170.296513 
C 137.794394 169.996616 137.675244 169.708962 137.463185 169.496903 
C 137.251127 169.284844 136.963473 169.165694 136.663576 169.165694 
C 136.36368 169.165694 136.076026 169.284844 135.863967 169.496903 
C 135.651908 169.708962 135.532758 169.996616 135.532758 170.296513 
C 135.532758 170.596409 135.651908 170.884063 135.863967 171.096122 
C 136.076026 171.308181 136.36368 171.427331 136.663576 171.427331 
z
" style="fill:#fff5ed;stroke:#fff5ed;"/>
    <path clip-path="url(#pedcd822d35)" d="M 138.352916 168.318115 
C 138.663611 168.318115 138.961623 168.194675 139.181318 167.97498 
C 139.401013 167.755285 139.524453 167.457273 139.524453 167.146578 
C 139.524453 166.835883 139.401013 166.537871 139.181318 166.318176 
C 138.961623 166.098481 138.663611 165.97504 138.352916 165.97504 
C 138.04222 165.97504 137.744208 166.098481 137.524514 166.318176 
C 137.304819 166.537871 137.181378 166.835883 137.181378 167.146578 
C 137.181378 167.457273 137.304819 167.755285 137.524514 167.97498 
C 137.744208 168.194675 138.04222 168.318115 138.352916 168.318115 
z
" style="fill:#fff7f2;stroke:#fff7f2;"/>
    <path clip-path="url(#pedcd822d35)" d="M 140.717066 163.613095 
C 141.047241 163.613095 141.363938 163.481915 141.597407 163.248445 
C 141.830876 163.014976 141.962056 162.69828 141.962056 162.368105 
C 141.962056 162.037929 141.830876 161.721233 141.597407 161.487764 
C 141.363938 161.254295 141.047241 161.123115 140.717066 161.123115 
C 140.386891 161.123115 140.070195 161.254295 139.836725 161.487764 
C 139.603256 161.721233 139.472076 162.037929 139.472076 162.368105 
C 139.472076 162.69828 139.603256 163.014976 139.836725 163.248445 
C 140.070195 163.481915 140.386891 163.613095 140.717066 163.613095 
z
" style="fill:#fdf9fb;stroke:#fdf9fb;"/>
    <path clip-path="url(#pedcd822d35)" d="M 142.577916 160.192896 
C 142.921658 160.192896 143.251368 160.056326 143.494431 159.813263 
C 143.737494 159.5702 143.874064 159.24049 143.874064 158.896748 
C 143.874064 158.553005 143.737494 158.223295 143.494431 157.980233 
C 143.251368 157.73717 142.921658 157.6006 142.577916 157.6006 
C 142.234173 157.6006 141.904463 157.73717 141.661401 157.980233 
C 141.418338 158.223295 141.281768 158.553005 141.281768 158.896748 
C 141.281768 159.24049 141.418338 159.5702 141.661401 159.813263 
C 141.904463 160.056326 142.234173 160.192896 142.577916 160.192896 
z
" style="fill:#f8f6ff;stroke:#f8f6ff;"/>
    <path clip-path="url(#pedcd822d35)" d="M 144.848693 156.649134 
C 145.207331 156.649134 145.551328 156.506646 145.804923 156.253051 
C 146.058518 155.999456 146.201006 155.655459 146.201006 155.296821 
C 146.201006 154.938184 146.058518 154.594187 145.804923 154.340592 
C 145.551328 154.086997 145.207331 153.944509 144.848693 153.944509 
C 144.490056 153.944509 144.146059 154.086997 143.892464 154.340592 
C 143.638868 154.594187 143.49638 154.938184 143.49638 155.296821 
C 143.49638 155.655459 143.638868 155.999456 143.892464 156.253051 
C 144.146059 156.506646 144.490056 156.649134 144.848693 156.649134 
z
" style="fill:#f0f0ff;stroke:#f0f0ff;"/>
    <path clip-path="url(#pedcd822d35)" d="M 148.407977 153.045499 
C 148.782679 153.045499 149.142085 152.896628 149.407039 152.631674 
C 149.671994 152.366719 149.820865 152.007314 149.820865 151.632611 
C 149.820865 151.257909 149.671994 150.898504 149.407039 150.633549 
C 149.142085 150.368595 148.782679 150.219724 148.407977 150.219724 
C 148.033275 150.219724 147.67387 150.368595 147.408915 150.633549 
C 147.143961 150.898504 146.99509 151.257909 146.99509 151.632611 
C 146.99509 152.007314 147.143961 152.366719 147.408915 152.631674 
C 147.67387 152.896628 148.033275 153.045499 148.407977 153.045499 
z
" style="fill:#e4e8ff;stroke:#e4e8ff;"/>
    <path clip-path="url(#pedcd822d35)" d="M 152.87314 149.467159 
C 153.264932 149.467159 153.64073 149.311499 153.917769 149.03446 
C 154.194808 148.757421 154.350468 148.381623 154.350468 147.989831 
C 154.350468 147.598038 154.194808 147.22224 153.917769 146.945201 
C 153.64073 146.668163 153.264932 146.512502 152.87314 146.512502 
C 152.481348 146.512502 152.10555 146.668163 151.828511 146.945201 
C 151.551472 147.22224 151.395811 147.598038 151.395811 147.989831 
C 151.395811 148.381623 151.551472 148.757421 151.828511 149.03446 
C 152.10555 149.311499 152.481348 149.467159 152.87314 149.467159 
z
" style="fill:#d5dfff;stroke:#d5dfff;"/>
    <path clip-path="url(#pedcd822d35)" d="M 157.026148 146.336113 
C 157.434315 146.336113 157.82582 146.173946 158.114438 145.885328 
C 158.403056 145.59671 158.565222 145.205205 158.565222 144.797038 
C 158.565222 144.388871 158.403056 143.997366 158.114438 143.708748 
C 157.82582 143.42013 157.434315 143.257964 157.026148 143.257964 
C 156.617981 143.257964 156.226476 143.42013 155.937858 143.708748 
C 155.64924 143.997366 155.487073 144.388871 155.487073 144.797038 
C 155.487073 145.205205 155.64924 145.59671 155.937858 145.885328 
C 156.226476 146.173946 156.617981 146.336113 157.026148 146.336113 
z
" style="fill:#c8d6ff;stroke:#c8d6ff;"/>
    <path clip-path="url(#pedcd822d35)" d="M 161.486466 143.208539 
C 161.911929 143.208539 162.320024 143.0395 162.620871 142.738653 
C 162.921719 142.437805 163.090757 142.029711 163.090757 141.604248 
C 163.090757 141.178785 162.921719 140.77069 162.620871 140.469842 
C 162.320024 140.168995 161.911929 139.999957 161.486466 139.999957 
C 161.061003 139.999957 160.652909 140.168995 160.352061 140.469842 
C 160.051213 140.77069 159.882175 141.178785 159.882175 141.604248 
C 159.882175 142.029711 160.051213 142.437805 160.352061 142.738653 
C 160.652909 143.0395 161.061003 143.208539 161.486466 143.208539 
z
" style="fill:#bed0ff;stroke:#bed0ff;"/>
    <path clip-path="url(#pedcd822d35)" d="M 171.078442 136.924379 
C 171.542168 136.924379 171.986964 136.740139 172.314868 136.412234 
C 172.642772 136.08433 172.827013 135.639535 172.827013 135.175808 
C 172.827013 134.712082 172.642772 134.267286 172.314868 133.939382 
C 171.986964 133.611478 171.542168 133.427237 171.078442 133.427237 
C 170.614716 133.427237 170.16992 133.611478 169.842016 133.939382 
C 169.514112 134.267286 169.329871 134.712082 169.329871 135.175808 
C 169.329871 135.639535 169.514112 136.08433 169.842016 136.412234 
C 170.16992 136.740139 170.614716 136.924379 171.078442 136.924379 
z
" style="fill:#b9cbff;stroke:#b9cbff;"/>
    <path clip-path="url(#pedcd822d35)" d="M 187.985136 126.744036 
C 188.522213 126.744036 189.037366 126.530653 189.417137 126.150882 
C 189.796907 125.771111 190.010291 125.255959 190.010291 124.718882 
C 190.010291 124.181805 189.796907 123.666653 189.417137 123.286882 
C 189.037366 122.907111 188.522213 122.693728 187.985136 122.693728 
C 187.448059 122.693728 186.932907 122.907111 186.553136 123.286882 
C 186.173365 123.666653 185.959982 124.181805 185.959982 124.718882 
C 185.959982 125.255959 186.173365 125.771111 186.553136 126.150882 
C 186.932907 126.530653 187.448059 126.744036 187.985136 126.744036 
z
" style="fill:#b7c9ff;stroke:#b7c9ff;"/>
    <path clip-path="url(#pedcd822d35)" d="M 207.710371 116.476538 
C 208.337466 116.476538 208.938961 116.227391 209.382384 115.783968 
C 209.825806 115.340545 210.074954 114.73905 210.074954 114.111956 
C 210.074954 113.484861 209.825806 112.883366 209.382384 112.439943 
C 208.938961 111.996521 208.337466 111.747373 207.710371 111.747373 
C 207.083277 111.747373 206.481782 111.996521 206.038359 112.439943 
C 205.594936 112.883366 205.345789 113.484861 205.345789 114.111956 
C 205.345789 114.73905 205.594936 115.340545 206.038359 115.783968 
C 206.481782 116.227391 207.083277 116.476538 207.710371 116.476538 
z
" style="fill:#b3c7ff;stroke:#b3c7ff;"/>
    <path clip-path="url(#pedcd822d35)" d="M 224.444228 108.994608 
C 225.14995 108.994608 225.826862 108.714222 226.325883 108.215201 
C 226.824903 107.71618 227.105289 107.039268 227.105289 106.333546 
C 227.105289 105.627824 226.824903 104.950912 226.325883 104.451891 
C 225.826862 103.952871 225.14995 103.672485 224.444228 103.672485 
C 223.738506 103.672485 223.061594 103.952871 222.562573 104.451891 
C 222.063552 104.950912 221.783166 105.627824 221.783166 106.333546 
C 221.783166 107.039268 222.063552 107.71618 222.562573 108.215201 
C 223.061594 108.714222 223.738506 108.994608 224.444228 108.994608 
z
" style="fill:#b0c4ff;stroke:#b0c4ff;"/>
    <path clip-path="url(#pedcd822d35)" d="M 239.039723 102.982774 
C 239.81615 102.982774 240.560881 102.674297 241.109898 102.12528 
C 241.658915 101.576263 241.967393 100.831532 241.967393 100.055105 
C 241.967393 99.278678 241.658915 98.533946 241.109898 97.98493 
C 240.560881 97.435913 239.81615 97.127435 239.039723 97.127435 
C 238.263296 97.127435 237.518565 97.435913 236.969548 97.98493 
C 236.420531 98.533946 236.112053 99.278678 236.112053 100.055105 
C 236.112053 100.831532 236.420531 101.576263 236.969548 102.12528 
C 237.518565 102.674297 238.263296 102.982774 239.039723 102.982774 
z
" style="fill:#adc1ff;stroke:#adc1ff;"/>
    <path clip-path="url(#pedcd822d35)" d="M 251.694233 98.127154 
C 252.535443 98.127154 253.342313 97.792937 253.937138 97.198112 
C 254.531964 96.603287 254.86618 95.796417 254.86618 94.955207 
C 254.86618 94.113996 254.531964 93.307127 253.937138 92.712301 
C 253.342313 92.117476 252.535443 91.783259 251.694233 91.783259 
C 250.853023 91.783259 250.046153 92.117476 249.451328 92.712301 
C 248.856502 93.307127 248.522286 94.113996 248.522286 94.955207 
C 248.522286 95.796417 248.856502 96.603287 249.451328 97.198112 
C 250.046153 97.792937 250.853023 98.127154 251.694233 98.127154 
z
" style="fill:#aabfff;stroke:#aabfff;"/>
    <path clip-path="url(#pedcd822d35)" d="M 263.159026 94.003829 
C 264.060327 94.003829 264.924833 93.645739 265.562149 93.008423 
C 266.199465 92.371108 266.557555 91.506601 266.557555 90.6053 
C 266.557555 89.704 266.199465 88.839493 265.562149 88.202177 
C 264.924833 87.564862 264.060327 87.206771 263.159026 87.206771 
C 262.257726 87.206771 261.393219 87.564862 260.755903 88.202177 
C 260.118587 88.839493 259.760497 89.704 259.760497 90.6053 
C 259.760497 91.506601 260.118587 92.371108 260.755903 93.008423 
C 261.393219 93.645739 262.257726 94.003829 263.159026 94.003829 
z
" style="fill:#a8bdff;stroke:#a8bdff;"/>
    <path clip-path="url(#pedcd822d35)" d="M 273.426148 90.487725 
C 274.383776 90.487725 275.30231 90.107256 275.979455 89.430111 
C 276.6566 88.752966 277.037069 87.834432 277.037069 86.876805 
C 277.037069 85.919177 276.6566 85.000643 275.979455 84.323498 
C 275.30231 83.646353 274.383776 83.265884 273.426148 83.265884 
C 272.468521 83.265884 271.549986 83.646353 270.872842 84.323498 
C 270.195697 85.000643 269.815227 85.919177 269.815227 86.876805 
C 269.815227 87.834432 270.195697 88.752966 270.872842 89.430111 
C 271.549986 90.107256 272.468521 90.487725 273.426148 90.487725 
z
" style="fill:#a7bcff;stroke:#a7bcff;"/>
    <path clip-path="url(#pedcd822d35)" d="M 283.035278 87.302328 
C 284.046011 87.302328 285.015484 86.900759 285.73018 86.186063 
C 286.444877 85.471366 286.846445 84.501894 286.846445 83.49116 
C 286.846445 82.480427 286.444877 81.510954 285.73018 80.796258 
C 285.015484 80.081561 284.046011 79.679993 283.035278 79.679993 
C 282.024544 79.679993 281.055072 80.081561 280.340375 80.796258 
C 279.625679 81.510954 279.22411 82.480427 279.22411 83.49116 
C 279.22411 84.501894 279.625679 85.471366 280.340375 86.186063 
C 281.055072 86.900759 282.024544 87.302328 283.035278 87.302328 
z
" style="fill:#a6bcff;stroke:#a6bcff;"/>
    <path clip-path="url(#pedcd822d35)" d="M 291.814945 84.556443 
C 292.876006 84.556443 293.893752 84.134878 294.644035 83.384595 
C 295.394319 82.634312 295.815883 81.616566 295.815883 80.555505 
C 295.815883 79.494444 295.394319 78.476698 294.644035 77.726415 
C 293.893752 76.976132 292.876006 76.554568 291.814945 76.554568 
C 290.753884 76.554568 289.736139 76.976132 288.985855 77.726415 
C 288.235572 78.476698 287.814008 79.494444 287.814008 80.555505 
C 287.814008 81.616566 288.235572 82.634312 288.985855 83.384595 
C 289.736139 84.134878 290.753884 84.556443 291.814945 84.556443 
z
" style="fill:#a6bbff;stroke:#a6bbff;"/>
    <path clip-path="url(#pedcd822d35)" d="M 299.602339 82.079923 
C 300.711288 82.079923 301.774966 81.639333 302.559111 80.855188 
C 303.343256 80.071042 303.783846 79.007364 303.783846 77.898415 
C 303.783846 76.789467 303.343256 75.725789 302.559111 74.941643 
C 301.774966 74.157498 300.711288 73.716908 299.602339 73.716908 
C 298.493391 73.716908 297.429712 74.157498 296.645567 74.941643 
C 295.861422 75.725789 295.420832 76.789467 295.420832 77.898415 
C 295.420832 79.007364 295.861422 80.071042 296.645567 80.855188 
C 297.429712 81.639333 298.493391 82.079923 299.602339 82.079923 
z
" style="fill:#a5bbff;stroke:#a5bbff;"/>
    <path clip-path="url(#pedcd822d35)" d="M 306.731185 79.80992 
C 307.885961 79.80992 308.993596 79.351123 309.810146 78.534573 
C 310.626696 77.718023 311.085493 76.610388 311.085493 75.455612 
C 311.085493 74.300836 310.626696 73.193201 309.810146 72.376651 
C 308.993596 71.560101 307.885961 71.101304 306.731185 71.101304 
C 305.576409 71.101304 304.468774 71.560101 303.652224 72.376651 
C 302.835674 73.193201 302.376877 74.300836 302.376877 75.455612 
C 302.376877 76.610388 302.835674 77.718023 303.652224 78.534573 
C 304.468774 79.351123 305.576409 79.80992 306.731185 79.80992 
z
" style="fill:#a4baff;stroke:#a4baff;"/>
    <path clip-path="url(#pedcd822d35)" d="M 313.111907 77.854875 
C 314.310796 77.854875 315.460744 77.378551 316.308487 76.530808 
C 317.15623 75.683065 317.632554 74.533117 317.632554 73.334228 
C 317.632554 72.135338 317.15623 70.98539 316.308487 70.137647 
C 315.460744 69.289904 314.310796 68.81358 313.111907 68.81358 
C 311.913017 68.81358 310.763069 69.289904 309.915326 70.137647 
C 309.067583 70.98539 308.59126 72.135338 308.59126 73.334228 
C 308.59126 74.533117 309.067583 75.683065 309.915326 76.530808 
C 310.763069 77.378551 311.913017 77.854875 313.111907 77.854875 
z
" style="fill:#a4baff;stroke:#a4baff;"/>
    <path clip-path="url(#pedcd822d35)" d="M 319.173808 76.022224 
C 320.415173 76.022224 321.605863 75.529025 322.483641 74.651246 
C 323.36142 73.773468 323.854619 72.582778 323.854619 71.341413 
C 323.854619 70.100047 323.36142 68.909357 322.483641 68.031579 
C 321.605863 67.153801 320.415173 66.660601 319.173808 66.660601 
C 317.932442 66.660601 316.741752 67.153801 315.863974 68.031579 
C 314.986196 68.909357 314.492996 70.100047 314.492996 71.341413 
C 314.492996 72.582778 314.986196 73.773468 315.863974 74.651246 
C 316.741752 75.529025 317.932442 76.022224 319.173808 76.022224 
z
" style="fill:#a3baff;stroke:#a3baff;"/>
    <path clip-path="url(#pedcd822d35)" d="M 324.879667 74.291019 
C 326.162 74.291019 327.391985 73.781542 328.298732 72.874796 
C 329.205478 71.968049 329.714954 70.738065 329.714954 69.455731 
C 329.714954 68.173398 329.205478 66.943414 328.298732 66.036667 
C 327.391985 65.129921 326.162 64.620444 324.879667 64.620444 
C 323.597334 64.620444 322.367349 65.129921 321.460603 66.036667 
C 320.553857 66.943414 320.04438 68.173398 320.04438 69.455731 
C 320.04438 70.738065 320.553857 71.968049 321.460603 72.874796 
C 322.367349 73.781542 323.597334 74.291019 324.879667 74.291019 
z
" style="fill:#a3b9ff;stroke:#a3b9ff;"/>
    <path clip-path="url(#pedcd822d35)" d="M 330.193498 72.661929 
C 331.515463 72.661929 332.783462 72.136707 333.718232 71.201936 
C 334.653002 70.267166 335.178225 68.999167 335.178225 67.677202 
C 335.178225 66.355238 334.653002 65.087239 333.718232 64.152469 
C 332.783462 63.217698 331.515463 62.692476 330.193498 62.692476 
C 328.871533 62.692476 327.603535 63.217698 326.668764 64.152469 
C 325.733994 65.087239 325.208772 66.355238 325.208772 67.677202 
C 325.208772 68.999167 325.733994 70.267166 326.668764 71.201936 
C 327.603535 72.136707 328.871533 72.661929 330.193498 72.661929 
z
" style="fill:#a2b9ff;stroke:#a2b9ff;"/>
    <path clip-path="url(#pedcd822d35)" d="M 334.533605 71.240206 
C 335.893369 71.240206 337.197624 70.699966 338.159122 69.738467 
C 339.120621 68.776969 339.660861 67.472714 339.660861 66.11295 
C 339.660861 64.753186 339.120621 63.448932 338.159122 62.487433 
C 337.197624 61.525935 335.893369 60.985695 334.533605 60.985695 
C 333.173841 60.985695 331.869586 61.525935 330.908088 62.487433 
C 329.94659 63.448932 329.40635 64.753186 329.40635 66.11295 
C 329.40635 67.472714 329.94659 68.776969 330.908088 69.738467 
C 331.869586 70.699966 333.173841 71.240206 334.533605 71.240206 
z
" style="fill:#a2b9ff;stroke:#a2b9ff;"/>
    <path clip-path="url(#pedcd822d35)" d="M 338.397391 69.920809 
C 339.79368 69.920809 341.132969 69.366058 342.120294 68.378732 
C 343.107619 67.391407 343.66237 66.052119 343.66237 64.65583 
C 343.66237 63.259541 343.107619 61.920253 342.120294 60.932928 
C 341.132969 59.945603 339.79368 59.390851 338.397391 59.390851 
C 337.001103 59.390851 335.661814 59.945603 334.674489 60.932928 
C 333.687164 61.920253 333.132413 63.259541 333.132413 64.65583 
C 333.132413 66.052119 333.687164 67.391407 334.674489 68.378732 
C 335.661814 69.366058 337.001103 69.920809 338.397391 69.920809 
z
" style="fill:#a2b9ff;stroke:#a2b9ff;"/>
    <path clip-path="url(#pedcd822d35)" d="M 342.323912 68.639954 
C 343.755579 68.639954 345.128801 68.071147 346.141143 67.058805 
C 347.153484 66.046464 347.722292 64.673242 347.722292 63.241575 
C 347.722292 61.809908 347.153484 60.436685 346.141143 59.424344 
C 345.128801 58.412003 343.755579 57.843195 342.323912 57.843195 
C 340.892245 57.843195 339.519023 58.412003 338.506682 59.424344 
C 337.49434 60.436685 336.925533 61.809908 336.925533 63.241575 
C 336.925533 64.673242 337.49434 66.046464 338.506682 67.058805 
C 339.519023 68.071147 340.892245 68.639954 342.323912 68.639954 
z
" style="fill:#a1b8ff;stroke:#a1b8ff;"/>
    <path clip-path="url(#pedcd822d35)" d="M 345.74032 67.419266 
C 347.206272 67.419266 348.61238 66.836837 349.648964 65.800253 
C 350.685549 64.763668 351.267978 63.35756 351.267978 61.891608 
C 351.267978 60.425656 350.685549 59.019548 349.648964 57.982964 
C 348.61238 56.946379 347.206272 56.36395 345.74032 56.36395 
C 344.274368 56.36395 342.86826 56.946379 341.831676 57.982964 
C 340.795091 59.019548 340.212662 60.425656 340.212662 61.891608 
C 340.212662 63.35756 340.795091 64.763668 341.831676 65.800253 
C 342.86826 66.836837 344.274368 67.419266 345.74032 67.419266 
z
" style="fill:#a1b8ff;stroke:#a1b8ff;"/>
   </g>
   <g id="PathCollection_2">
    <path clip-path="url(#pedcd822d35)" d="M 105.41184 269.075622 
C 105.505603 269.075622 105.595539 269.038369 105.66184 268.972068 
C 105.72814 268.905768 105.765393 268.815832 105.765393 268.722068 
C 105.765393 268.628305 105.72814 268.538369 105.66184 268.472068 
C 105.595539 268.405768 105.505603 268.368515 105.41184 268.368515 
C 105.318076 268.368515 105.22814 268.405768 105.16184 268.472068 
C 105.095539 268.538369 105.058286 268.628305 105.058286 268.722068 
C 105.058286 268.815832 105.095539 268.905768 105.16184 268.972068 
C 105.22814 269.038369 105.318076 269.075622 105.41184 269.075622 
z
" style="fill:#9b3921;stroke:#9b3921;"/>
    <path clip-path="url(#pedcd822d35)" d="M 105.65573 267.289767 
C 105.751504 267.289767 105.843368 267.251716 105.911091 267.183993 
C 105.978814 267.11627 106.016865 267.024406 106.016865 266.928632 
C 106.016865 266.832857 105.978814 266.740993 105.911091 266.67327 
C 105.843368 266.605548 105.751504 266.567496 105.65573 266.567496 
C 105.559955 266.567496 105.468091 266.605548 105.400368 266.67327 
C 105.332646 266.740993 105.294594 266.832857 105.294594 266.928632 
C 105.294594 267.024406 105.332646 267.11627 105.400368 267.183993 
C 105.468091 267.251716 105.559955 267.289767 105.65573 267.289767 
z
" style="fill:#9f3b22;stroke:#9f3b22;"/>
    <path clip-path="url(#pedcd822d35)" d="M 105.906481 265.504075 
C 106.00431 265.504075 106.098144 265.465208 106.167319 265.396033 
C 106.236494 265.326858 106.275362 265.233023 106.275362 265.135195 
C 106.275362 265.037367 106.236494 264.943532 106.167319 264.874357 
C 106.098144 264.805182 106.00431 264.766315 105.906481 264.766315 
C 105.808653 264.766315 105.714819 264.805182 105.645644 264.874357 
C 105.576469 264.943532 105.537601 265.037367 105.537601 265.135195 
C 105.537601 265.233023 105.576469 265.326858 105.645644 265.396033 
C 105.714819 265.465208 105.808653 265.504075 105.906481 265.504075 
z
" style="fill:#a43d24;stroke:#a43d24;"/>
    <path clip-path="url(#pedcd822d35)" d="M 106.164288 263.718549 
C 106.264214 263.718549 106.360061 263.678848 106.43072 263.60819 
C 106.501378 263.537531 106.541079 263.441685 106.541079 263.341758 
C 106.541079 263.241832 106.501378 263.145985 106.43072 263.075327 
C 106.360061 263.004668 106.264214 262.964967 106.164288 262.964967 
C 106.064362 262.964967 105.968515 263.004668 105.897857 263.075327 
C 105.827198 263.145985 105.787497 263.241832 105.787497 263.341758 
C 105.787497 263.441685 105.827198 263.537531 105.897857 263.60819 
C 105.968515 263.678848 106.064362 263.718549 106.164288 263.718549 
z
" style="fill:#a94025;stroke:#a94025;"/>
    <path clip-path="url(#pedcd822d35)" d="M 106.429348 261.933193 
C 106.531417 261.933193 106.62932 261.892641 106.701493 261.820467 
C 106.773667 261.748293 106.81422 261.650391 106.81422 261.548322 
C 106.81422 261.446253 106.773667 261.34835 106.701493 261.276176 
C 106.62932 261.204003 106.531417 261.16345 106.429348 261.16345 
C 106.327279 261.16345 106.229377 261.204003 106.157203 261.276176 
C 106.085029 261.34835 106.044476 261.446253 106.044476 261.548322 
C 106.044476 261.650391 106.085029 261.748293 106.157203 261.820467 
C 106.229377 261.892641 106.327279 261.933193 106.429348 261.933193 
z
" style="fill:#ae4227;stroke:#ae4227;"/>
    <path clip-path="url(#pedcd822d35)" d="M 106.701865 260.14801 
C 106.806124 260.14801 106.906125 260.106588 106.979847 260.032867 
C 107.053569 259.959145 107.094991 259.859143 107.094991 259.754885 
C 107.094991 259.650627 107.053569 259.550625 106.979847 259.476903 
C 106.906125 259.403182 106.806124 259.36176 106.701865 259.36176 
C 106.597607 259.36176 106.497605 259.403182 106.423884 259.476903 
C 106.350162 259.550625 106.30874 259.650627 106.30874 259.754885 
C 106.30874 259.859143 106.350162 259.959145 106.423884 260.032867 
C 106.497605 260.106588 106.597607 260.14801 106.701865 260.14801 
z
" style="fill:#b34528;stroke:#b34528;"/>
    <path clip-path="url(#pedcd822d35)" d="M 106.98205 258.363005 
C 107.088544 258.363005 107.190691 258.320694 107.265993 258.245391 
C 107.341296 258.170089 107.383606 258.067942 107.383606 257.961448 
C 107.383606 257.854954 107.341296 257.752808 107.265993 257.677505 
C 107.190691 257.602203 107.088544 257.559892 106.98205 257.559892 
C 106.875556 257.559892 106.77341 257.602203 106.698107 257.677505 
C 106.622804 257.752808 106.580494 257.854954 106.580494 257.961448 
C 106.580494 258.067942 106.622804 258.170089 106.698107 258.245391 
C 106.77341 258.320694 106.875556 258.363005 106.98205 258.363005 
z
" style="fill:#b8472a;stroke:#b8472a;"/>
    <path clip-path="url(#pedcd822d35)" d="M 107.270118 256.578179 
C 107.378895 256.578179 107.483233 256.534962 107.56015 256.458044 
C 107.637067 256.381127 107.680285 256.276789 107.680285 256.168012 
C 107.680285 256.059234 107.637067 255.954897 107.56015 255.877979 
C 107.483233 255.801062 107.378895 255.757844 107.270118 255.757844 
C 107.16134 255.757844 107.057003 255.801062 106.980085 255.877979 
C 106.903168 255.954897 106.85995 256.059234 106.85995 256.168012 
C 106.85995 256.276789 106.903168 256.381127 106.980085 256.458044 
C 107.057003 256.534962 107.16134 256.578179 107.270118 256.578179 
z
" style="fill:#be4a2b;stroke:#be4a2b;"/>
    <path clip-path="url(#pedcd822d35)" d="M 107.56629 254.793539 
C 107.6774 254.793539 107.783975 254.749394 107.862542 254.670827 
C 107.941109 254.59226 107.985254 254.485686 107.985254 254.374575 
C 107.985254 254.263465 107.941109 254.15689 107.862542 254.078323 
C 107.783975 253.999756 107.6774 253.955611 107.56629 253.955611 
C 107.455179 253.955611 107.348605 253.999756 107.270038 254.078323 
C 107.191471 254.15689 107.147326 254.263465 107.147326 254.374575 
C 107.147326 254.485686 107.191471 254.59226 107.270038 254.670827 
C 107.348605 254.749394 107.455179 254.793539 107.56629 254.793539 
z
" style="fill:#c34d2d;stroke:#c34d2d;"/>
    <path clip-path="url(#pedcd822d35)" d="M 107.870795 253.009087 
C 107.984288 253.009087 108.093149 252.963996 108.173401 252.883744 
C 108.253652 252.803492 108.298744 252.694632 108.298744 252.581138 
C 108.298744 252.467645 108.253652 252.358785 108.173401 252.278533 
C 108.093149 252.198281 107.984288 252.15319 107.870795 252.15319 
C 107.757302 252.15319 107.648441 252.198281 107.568189 252.278533 
C 107.487938 252.358785 107.442846 252.467645 107.442846 252.581138 
C 107.442846 252.694632 107.487938 252.803492 107.568189 252.883744 
C 107.648441 252.963996 107.757302 253.009087 107.870795 253.009087 
z
" style="fill:#ca502f;stroke:#ca502f;"/>
    <path clip-path="url(#pedcd822d35)" d="M 108.183867 251.224828 
C 108.299794 251.224828 108.410989 251.17877 108.492962 251.096797 
C 108.574935 251.014824 108.620994 250.903629 108.620994 250.787702 
C 108.620994 250.671774 108.574935 250.56058 108.492962 250.478607 
C 108.410989 250.396634 108.299794 250.350575 108.183867 250.350575 
C 108.06794 250.350575 107.956745 250.396634 107.874772 250.478607 
C 107.792799 250.56058 107.746741 250.671774 107.746741 250.787702 
C 107.746741 250.903629 107.792799 251.014824 107.874772 251.096797 
C 107.956745 251.17877 108.06794 251.224828 108.183867 251.224828 
z
" style="fill:#d05331;stroke:#d05331;"/>
    <path clip-path="url(#pedcd822d35)" d="M 108.505748 249.440766 
C 108.624161 249.440766 108.73774 249.39372 108.821471 249.309989 
C 108.905202 249.226258 108.952248 249.112679 108.952248 248.994265 
C 108.952248 248.875852 108.905202 248.762272 108.821471 248.678541 
C 108.73774 248.59481 108.624161 248.547764 108.505748 248.547764 
C 108.387334 248.547764 108.273755 248.59481 108.190024 248.678541 
C 108.106293 248.762272 108.059247 248.875852 108.059247 248.994265 
C 108.059247 249.112679 108.106293 249.226258 108.190024 249.309989 
C 108.273755 249.39372 108.387334 249.440766 108.505748 249.440766 
z
" style="fill:#d65733;stroke:#d65733;"/>
    <path clip-path="url(#pedcd822d35)" d="M 108.836684 247.656905 
C 108.957637 247.656905 109.073652 247.60885 109.159179 247.523323 
C 109.244705 247.437796 109.29276 247.321781 109.29276 247.200828 
C 109.29276 247.079876 109.244705 246.96386 109.159179 246.878334 
C 109.073652 246.792807 108.957637 246.744752 108.836684 246.744752 
C 108.715731 246.744752 108.599716 246.792807 108.51419 246.878334 
C 108.428663 246.96386 108.380608 247.079876 108.380608 247.200828 
C 108.380608 247.321781 108.428663 247.437796 108.51419 247.523323 
C 108.599716 247.60885 108.715731 247.656905 108.836684 247.656905 
z
" style="fill:#dd5a35;stroke:#dd5a35;"/>
    <path clip-path="url(#pedcd822d35)" d="M 109.176931 245.873249 
C 109.300478 245.873249 109.418981 245.824163 109.506342 245.736802 
C 109.593703 245.649442 109.642788 245.530939 109.642788 245.407392 
C 109.642788 245.283845 109.593703 245.165342 109.506342 245.077981 
C 109.418981 244.99062 109.300478 244.941535 109.176931 244.941535 
C 109.053385 244.941535 108.934882 244.99062 108.847521 245.077981 
C 108.76016 245.165342 108.711074 245.283845 108.711074 245.407392 
C 108.711074 245.530939 108.76016 245.649442 108.847521 245.736802 
C 108.934882 245.824163 109.053385 245.873249 109.176931 245.873249 
z
" style="fill:#e55e37;stroke:#e55e37;"/>
    <path clip-path="url(#pedcd822d35)" d="M 109.526752 244.089803 
C 109.652948 244.089803 109.773992 244.039664 109.863227 243.95043 
C 109.952461 243.861196 110.002599 243.740151 110.002599 243.613955 
C 110.002599 243.487759 109.952461 243.366714 109.863227 243.27748 
C 109.773992 243.188246 109.652948 243.138108 109.526752 243.138108 
C 109.400555 243.138108 109.279511 243.188246 109.190277 243.27748 
C 109.101042 243.366714 109.050904 243.487759 109.050904 243.613955 
C 109.050904 243.740151 109.101042 243.861196 109.190277 243.95043 
C 109.279511 244.039664 109.400555 244.089803 109.526752 244.089803 
z
" style="fill:#ec6239;stroke:#ec6239;"/>
    <path clip-path="url(#pedcd822d35)" d="M 109.886414 242.306571 
C 110.015316 242.306571 110.138957 242.255357 110.230105 242.164209 
C 110.321253 242.073062 110.372466 241.949421 110.372466 241.820518 
C 110.372466 241.691616 110.321253 241.567975 110.230105 241.476828 
C 110.138957 241.38568 110.015316 241.334466 109.886414 241.334466 
C 109.757511 241.334466 109.633871 241.38568 109.542723 241.476828 
C 109.451575 241.567975 109.400361 241.691616 109.400361 241.820518 
C 109.400361 241.949421 109.451575 242.073062 109.542723 242.164209 
C 109.633871 242.255357 109.757511 242.306571 109.886414 242.306571 
z
" style="fill:#f4653c;stroke:#f4653c;"/>
    <path clip-path="url(#pedcd822d35)" d="M 110.256195 240.523558 
C 110.387862 240.523558 110.514154 240.471246 110.607257 240.378143 
C 110.700359 240.285041 110.752671 240.158749 110.752671 240.027082 
C 110.752671 239.895415 110.700359 239.769123 110.607257 239.67602 
C 110.514154 239.582918 110.387862 239.530606 110.256195 239.530606 
C 110.124528 239.530606 109.998236 239.582918 109.905133 239.67602 
C 109.812031 239.769123 109.759719 239.895415 109.759719 240.027082 
C 109.759719 240.158749 109.812031 240.285041 109.905133 240.378143 
C 109.998236 240.471246 110.124528 240.523558 110.256195 240.523558 
z
" style="fill:#fc6a3e;stroke:#fc6a3e;"/>
    <path clip-path="url(#pedcd822d35)" d="M 110.63638 238.740768 
C 110.770871 238.740768 110.899871 238.687335 110.99497 238.592235 
C 111.09007 238.497136 111.143503 238.368136 111.143503 238.233645 
C 111.143503 238.099155 111.09007 237.970154 110.99497 237.875055 
C 110.899871 237.779956 110.770871 237.726522 110.63638 237.726522 
C 110.501889 237.726522 110.372889 237.779956 110.27779 237.875055 
C 110.182691 237.970154 110.129257 238.099155 110.129257 238.233645 
C 110.129257 238.368136 110.182691 238.497136 110.27779 238.592235 
C 110.372889 238.687335 110.501889 238.740768 110.63638 238.740768 
z
" style="fill:#ff6f42;stroke:#ff6f42;"/>
    <path clip-path="url(#pedcd822d35)" d="M 111.027261 236.958207 
C 111.164636 236.958207 111.296403 236.903628 111.393542 236.806489 
C 111.490681 236.70935 111.54526 236.577583 111.54526 236.440209 
C 111.54526 236.302834 111.490681 236.171067 111.393542 236.073928 
C 111.296403 235.976789 111.164636 235.92221 111.027261 235.92221 
C 110.889887 235.92221 110.75812 235.976789 110.660981 236.073928 
C 110.563842 236.171067 110.509263 236.302834 110.509263 236.440209 
C 110.509263 236.577583 110.563842 236.70935 110.660981 236.806489 
C 110.75812 236.903628 110.889887 236.958207 111.027261 236.958207 
z
" style="fill:#ff7546;stroke:#ff7546;"/>
    <path clip-path="url(#pedcd822d35)" d="M 111.42914 235.175879 
C 111.569461 235.175879 111.704054 235.120129 111.803276 235.020907 
C 111.902498 234.921685 111.958248 234.787093 111.958248 234.646772 
C 111.958248 234.506451 111.902498 234.371858 111.803276 234.272636 
C 111.704054 234.173415 111.569461 234.117664 111.42914 234.117664 
C 111.288819 234.117664 111.154227 234.173415 111.055005 234.272636 
C 110.955783 234.371858 110.900033 234.506451 110.900033 234.646772 
C 110.900033 234.787093 110.955783 234.921685 111.055005 235.020907 
C 111.154227 235.120129 111.288819 235.175879 111.42914 235.175879 
z
" style="fill:#ff7c4b;stroke:#ff7c4b;"/>
    <path clip-path="url(#pedcd822d35)" d="M 111.842326 233.39379 
C 111.985656 233.39379 112.123135 233.336844 112.224485 233.235494 
C 112.325834 233.134144 112.38278 232.996665 112.38278 232.853335 
C 112.38278 232.710005 112.325834 232.572526 112.224485 232.471176 
C 112.123135 232.369826 111.985656 232.312881 111.842326 232.312881 
C 111.698996 232.312881 111.561516 232.369826 111.460167 232.471176 
C 111.358817 232.572526 111.301871 232.710005 111.301871 232.853335 
C 111.301871 232.996665 111.358817 233.134144 111.460167 233.235494 
C 111.561516 233.336844 111.698996 233.39379 111.842326 233.39379 
z
" style="fill:#ff8350;stroke:#ff8350;"/>
    <path clip-path="url(#pedcd822d35)" d="M 112.267136 231.611943 
C 112.41354 231.611943 112.553968 231.553776 112.657491 231.450253 
C 112.761014 231.34673 112.819181 231.206303 112.819181 231.059899 
C 112.819181 230.913495 112.761014 230.773067 112.657491 230.669544 
C 112.553968 230.566021 112.41354 230.507854 112.267136 230.507854 
C 112.120732 230.507854 111.980305 230.566021 111.876782 230.669544 
C 111.773258 230.773067 111.715091 230.913495 111.715091 231.059899 
C 111.715091 231.206303 111.773258 231.34673 111.876782 231.450253 
C 111.980305 231.553776 112.120732 231.611943 112.267136 231.611943 
z
" style="fill:#ff8a55;stroke:#ff8a55;"/>
    <path clip-path="url(#pedcd822d35)" d="M 112.703899 229.830346 
C 112.853442 229.830346 112.996881 229.770931 113.102624 229.665188 
C 113.208368 229.559444 113.267782 229.416006 113.267782 229.266462 
C 113.267782 229.116918 113.208368 228.973479 113.102624 228.867736 
C 112.996881 228.761993 112.853442 228.702578 112.703899 228.702578 
C 112.554355 228.702578 112.410916 228.761993 112.305173 228.867736 
C 112.199429 228.973479 112.140015 229.116918 112.140015 229.266462 
C 112.140015 229.416006 112.199429 229.559444 112.305173 229.665188 
C 112.410916 229.770931 112.554355 229.830346 112.703899 229.830346 
z
" style="fill:#ff915a;stroke:#ff915a;"/>
    <path clip-path="url(#pedcd822d35)" d="M 113.152949 228.049002 
C 113.3057 228.049002 113.452215 227.988313 113.560226 227.880302 
C 113.668237 227.772291 113.728926 227.625776 113.728926 227.473025 
C 113.728926 227.320275 113.668237 227.173759 113.560226 227.065748 
C 113.452215 226.957737 113.3057 226.897049 113.152949 226.897049 
C 113.000198 226.897049 112.853683 226.957737 112.745672 227.065748 
C 112.637661 227.173759 112.576973 227.320275 112.576973 227.473025 
C 112.576973 227.625776 112.637661 227.772291 112.745672 227.880302 
C 112.853683 227.988313 113.000198 228.049002 113.152949 228.049002 
z
" style="fill:#ff9960;stroke:#ff9960;"/>
    <path clip-path="url(#pedcd822d35)" d="M 113.614634 226.267917 
C 113.77066 226.267917 113.920317 226.205927 114.030645 226.0956 
C 114.140972 225.985272 114.202962 225.835615 114.202962 225.679589 
C 114.202962 225.523562 114.140972 225.373905 114.030645 225.263577 
C 113.920317 225.15325 113.77066 225.09126 113.614634 225.09126 
C 113.458607 225.09126 113.30895 225.15325 113.198623 225.263577 
C 113.088295 225.373905 113.026305 225.523562 113.026305 225.679589 
C 113.026305 225.835615 113.088295 225.985272 113.198623 226.0956 
C 113.30895 226.205927 113.458607 226.267917 113.614634 226.267917 
z
" style="fill:#ffa165;stroke:#ffa165;"/>
    <path clip-path="url(#pedcd822d35)" d="M 114.089308 224.487097 
C 114.24868 224.487097 114.401547 224.423778 114.51424 224.311085 
C 114.626934 224.198391 114.690253 224.045525 114.690253 223.886152 
C 114.690253 223.726779 114.626934 223.573913 114.51424 223.461219 
C 114.401547 223.348526 114.24868 223.285206 114.089308 223.285206 
C 113.929935 223.285206 113.777068 223.348526 113.664375 223.461219 
C 113.551682 223.573913 113.488362 223.726779 113.488362 223.886152 
C 113.488362 224.045525 113.551682 224.198391 113.664375 224.311085 
C 113.777068 224.423778 113.929935 224.487097 114.089308 224.487097 
z
" style="fill:#ffa96b;stroke:#ffa96b;"/>
    <path clip-path="url(#pedcd822d35)" d="M 114.577337 222.706548 
C 114.740127 222.706548 114.896272 222.641871 115.011382 222.526761 
C 115.126492 222.411651 115.19117 222.255506 115.19117 222.092715 
C 115.19117 221.929925 115.126492 221.77378 115.011382 221.65867 
C 114.896272 221.543559 114.740127 221.478882 114.577337 221.478882 
C 114.414546 221.478882 114.258401 221.543559 114.143291 221.65867 
C 114.028181 221.77378 113.963503 221.929925 113.963503 222.092715 
C 113.963503 222.255506 114.028181 222.411651 114.143291 222.526761 
C 114.258401 222.641871 114.414546 222.706548 114.577337 222.706548 
z
" style="fill:#ffb171;stroke:#ffb171;"/>
    <path clip-path="url(#pedcd822d35)" d="M 115.079096 220.926276 
C 115.245377 220.926276 115.404871 220.860211 115.52245 220.742632 
C 115.640029 220.625054 115.706093 220.46556 115.706093 220.299279 
C 115.706093 220.132997 115.640029 219.973504 115.52245 219.855925 
C 115.404871 219.738346 115.245377 219.672282 115.079096 219.672282 
C 114.912814 219.672282 114.753321 219.738346 114.635742 219.855925 
C 114.518163 219.973504 114.452099 220.132997 114.452099 220.299279 
C 114.452099 220.46556 114.518163 220.625054 114.635742 220.742632 
C 114.753321 220.860211 114.912814 220.926276 115.079096 220.926276 
z
" style="fill:#ffb474;stroke:#ffb474;"/>
    <path clip-path="url(#pedcd822d35)" d="M 115.594972 219.146285 
C 115.76482 219.146285 115.927734 219.078804 116.047834 218.958704 
C 116.167934 218.838603 116.235416 218.67569 116.235416 218.505842 
C 116.235416 218.335994 116.167934 218.17308 116.047834 218.05298 
C 115.927734 217.93288 115.76482 217.865399 115.594972 217.865399 
C 115.425125 217.865399 115.262211 217.93288 115.14211 218.05298 
C 115.02201 218.17308 114.954529 218.335994 114.954529 218.505842 
C 114.954529 218.67569 115.02201 218.838603 115.14211 218.958704 
C 115.262211 219.078804 115.425125 219.146285 115.594972 219.146285 
z
" style="fill:#ffb777;stroke:#ffb777;"/>
    <path clip-path="url(#pedcd822d35)" d="M 116.125363 217.366583 
C 116.298853 217.366583 116.46526 217.297655 116.587936 217.174979 
C 116.710612 217.052303 116.779541 216.885895 116.779541 216.712405 
C 116.779541 216.538915 116.710612 216.372508 116.587936 216.249832 
C 116.46526 216.127156 116.298853 216.058227 116.125363 216.058227 
C 115.951873 216.058227 115.785465 216.127156 115.662789 216.249832 
C 115.540113 216.372508 115.471185 216.538915 115.471185 216.712405 
C 115.471185 216.885895 115.540113 217.052303 115.662789 217.174979 
C 115.785465 217.297655 115.951873 217.366583 116.125363 217.366583 
z
" style="fill:#ffb979;stroke:#ffb979;"/>
    <path clip-path="url(#pedcd822d35)" d="M 116.670675 215.587176 
C 116.847886 215.587176 117.017862 215.516769 117.143169 215.391462 
C 117.268476 215.266156 117.338883 215.096179 117.338883 214.918969 
C 117.338883 214.741758 117.268476 214.571782 117.143169 214.446475 
C 117.017862 214.321168 116.847886 214.250761 116.670675 214.250761 
C 116.493465 214.250761 116.323488 214.321168 116.198182 214.446475 
C 116.072875 214.571782 116.002468 214.741758 116.002468 214.918969 
C 116.002468 215.096179 116.072875 215.266156 116.198182 215.391462 
C 116.323488 215.516769 116.493465 215.587176 116.670675 215.587176 
z
" style="fill:#ffbb7b;stroke:#ffbb7b;"/>
    <path clip-path="url(#pedcd822d35)" d="M 117.23133 213.808069 
C 117.412341 213.808069 117.585963 213.736153 117.713957 213.608159 
C 117.841951 213.480165 117.913868 213.306543 117.913868 213.125532 
C 117.913868 212.944521 117.841951 212.770899 117.713957 212.642905 
C 117.585963 212.514911 117.412341 212.442995 117.23133 212.442995 
C 117.05032 212.442995 116.876698 212.514911 116.748704 212.642905 
C 116.62071 212.770899 116.548793 212.944521 116.548793 213.125532 
C 116.548793 213.306543 116.62071 213.480165 116.748704 213.608159 
C 116.876698 213.736153 117.05032 213.808069 117.23133 213.808069 
z
" style="fill:#ffbb7b;stroke:#ffbb7b;"/>
    <path clip-path="url(#pedcd822d35)" d="M 117.807759 212.02927 
C 117.992652 212.02927 118.169997 211.955811 118.300736 211.825072 
C 118.431475 211.694333 118.504934 211.516988 118.504934 211.332095 
C 118.504934 211.147202 118.431475 210.969857 118.300736 210.839118 
C 118.169997 210.708379 117.992652 210.634921 117.807759 210.634921 
C 117.622867 210.634921 117.445522 210.708379 117.314783 210.839118 
C 117.184044 210.969857 117.110585 211.147202 117.110585 211.332095 
C 117.110585 211.516988 117.184044 211.694333 117.314783 211.825072 
C 117.445522 211.955811 117.622867 212.02927 117.807759 212.02927 
z
" style="fill:#ffbb7b;stroke:#ffbb7b;"/>
    <path clip-path="url(#pedcd822d35)" d="M 118.400406 210.250784 
C 118.589264 210.250784 118.770412 210.17575 118.903955 210.042208 
C 119.037498 209.908665 119.112532 209.727517 119.112532 209.538659 
C 119.112532 209.349801 119.037498 209.168652 118.903955 209.03511 
C 118.770412 208.901567 118.589264 208.826533 118.400406 208.826533 
C 118.211548 208.826533 118.0304 208.901567 117.896857 209.03511 
C 117.763314 209.168652 117.68828 209.349801 117.68828 209.538659 
C 117.68828 209.727517 117.763314 209.908665 117.896857 210.042208 
C 118.0304 210.17575 118.211548 210.250784 118.400406 210.250784 
z
" style="fill:#ffbb7b;stroke:#ffbb7b;"/>
    <path clip-path="url(#pedcd822d35)" d="M 119.009727 208.47262 
C 119.202635 208.47262 119.387668 208.395977 119.524075 208.25957 
C 119.660481 208.123163 119.737125 207.93813 119.737125 207.745222 
C 119.737125 207.552314 119.660481 207.367281 119.524075 207.230874 
C 119.387668 207.094467 119.202635 207.017824 119.009727 207.017824 
C 118.816819 207.017824 118.631786 207.094467 118.495379 207.230874 
C 118.358972 207.367281 118.282329 207.552314 118.282329 207.745222 
C 118.282329 207.93813 118.358972 208.123163 118.495379 208.25957 
C 118.631786 208.395977 118.816819 208.47262 119.009727 208.47262 
z
" style="fill:#ffbc7c;stroke:#ffbc7c;"/>
    <path clip-path="url(#pedcd822d35)" d="M 119.636191 206.694782 
C 119.833236 206.694782 120.022237 206.616496 120.161569 206.477164 
C 120.300901 206.337832 120.379188 206.14883 120.379188 205.951785 
C 120.379188 205.75474 120.300901 205.565739 120.161569 205.426407 
C 120.022237 205.287075 119.833236 205.208788 119.636191 205.208788 
C 119.439146 205.208788 119.250144 205.287075 119.110812 205.426407 
C 118.97148 205.565739 118.893194 205.75474 118.893194 205.951785 
C 118.893194 206.14883 118.97148 206.337832 119.110812 206.477164 
C 119.250144 206.616496 119.439146 206.694782 119.636191 206.694782 
z
" style="fill:#ffbc7d;stroke:#ffbc7d;"/>
    <path clip-path="url(#pedcd822d35)" d="M 120.28028 204.91728 
C 120.481551 204.91728 120.674605 204.837314 120.816925 204.694994 
C 120.959245 204.552674 121.039211 204.35962 121.039211 204.158349 
C 121.039211 203.957078 120.959245 203.764023 120.816925 203.621703 
C 120.674605 203.479383 120.481551 203.399418 120.28028 203.399418 
C 120.079009 203.399418 119.885955 203.479383 119.743635 203.621703 
C 119.601315 203.764023 119.521349 203.957078 119.521349 204.158349 
C 119.521349 204.35962 119.601315 204.552674 119.743635 204.694994 
C 119.885955 204.837314 120.079009 204.91728 120.28028 204.91728 
z
" style="fill:#ffbd7d;stroke:#ffbd7d;"/>
    <path clip-path="url(#pedcd822d35)" d="M 120.94249 203.140119 
C 121.148078 203.140119 121.345272 203.058438 121.490644 202.913066 
C 121.636017 202.767694 121.717697 202.570499 121.717697 202.364912 
C 121.717697 202.159325 121.636017 201.96213 121.490644 201.816758 
C 121.345272 201.671386 121.148078 201.589705 120.94249 201.589705 
C 120.736903 201.589705 120.539709 201.671386 120.394337 201.816758 
C 120.248964 201.96213 120.167284 202.159325 120.167284 202.364912 
C 120.167284 202.570499 120.248964 202.767694 120.394337 202.913066 
C 120.539709 203.058438 120.736903 203.140119 120.94249 203.140119 
z
" style="fill:#ffbd7e;stroke:#ffbd7e;"/>
    <path clip-path="url(#pedcd822d35)" d="M 121.623332 201.363307 
C 121.833328 201.363307 122.034752 201.279874 122.183242 201.131385 
C 122.331731 200.982895 122.415164 200.781472 122.415164 200.571475 
C 122.415164 200.361479 122.331731 200.160056 122.183242 200.011566 
C 122.034752 199.863076 121.833328 199.779644 121.623332 199.779644 
C 121.413336 199.779644 121.211913 199.863076 121.063423 200.011566 
C 120.914933 200.160056 120.831501 200.361479 120.831501 200.571475 
C 120.831501 200.781472 120.914933 200.982895 121.063423 201.131385 
C 121.211913 201.279874 121.413336 201.363307 121.623332 201.363307 
z
" style="fill:#ffbe7f;stroke:#ffbe7f;"/>
    <path clip-path="url(#pedcd822d35)" d="M 122.323329 199.586851 
C 122.537829 199.586851 122.743572 199.50163 122.895246 199.349956 
C 123.04692 199.198282 123.132142 198.992538 123.132142 198.778039 
C 123.132142 198.563539 123.04692 198.357796 122.895246 198.206122 
C 122.743572 198.054448 122.537829 197.969226 122.323329 197.969226 
C 122.10883 197.969226 121.903086 198.054448 121.751412 198.206122 
C 121.599738 198.357796 121.514517 198.563539 121.514517 198.778039 
C 121.514517 198.992538 121.599738 199.198282 121.751412 199.349956 
C 121.903086 199.50163 122.10883 199.586851 122.323329 199.586851 
z
" style="fill:#ffc083;stroke:#ffc083;"/>
    <path clip-path="url(#pedcd822d35)" d="M 123.043021 197.81076 
C 123.26212 197.81076 123.472276 197.723711 123.627203 197.568784 
C 123.78213 197.413857 123.869179 197.203702 123.869179 196.984602 
C 123.869179 196.765502 123.78213 196.555347 123.627203 196.40042 
C 123.472276 196.245493 123.26212 196.158444 123.043021 196.158444 
C 122.823921 196.158444 122.613766 196.245493 122.458839 196.40042 
C 122.303912 196.555347 122.216863 196.765502 122.216863 196.984602 
C 122.216863 197.203702 122.303912 197.413857 122.458839 197.568784 
C 122.613766 197.723711 122.823921 197.81076 123.043021 197.81076 
z
" style="fill:#ffc287;stroke:#ffc287;"/>
    <path clip-path="url(#pedcd822d35)" d="M 123.78296 196.035041 
C 124.006759 196.035041 124.221421 195.946125 124.37967 195.787875 
C 124.53792 195.629626 124.626836 195.414964 124.626836 195.191165 
C 124.626836 194.967367 124.53792 194.752705 124.37967 194.594455 
C 124.221421 194.436206 124.006759 194.34729 123.78296 194.34729 
C 123.559162 194.34729 123.3445 194.436206 123.18625 194.594455 
C 123.028001 194.752705 122.939085 194.967367 122.939085 195.191165 
C 122.939085 195.414964 123.028001 195.629626 123.18625 195.787875 
C 123.3445 195.946125 123.559162 196.035041 123.78296 196.035041 
z
" style="fill:#ffc48b;stroke:#ffc48b;"/>
    <path clip-path="url(#pedcd822d35)" d="M 124.543718 194.259702 
C 124.772316 194.259702 124.991582 194.168879 125.153225 194.007236 
C 125.314868 193.845592 125.405691 193.626327 125.405691 193.397729 
C 125.405691 193.169131 125.314868 192.949865 125.153225 192.788222 
C 124.991582 192.626579 124.772316 192.535756 124.543718 192.535756 
C 124.31512 192.535756 124.095854 192.626579 123.934211 192.788222 
C 123.772568 192.949865 123.681745 193.169131 123.681745 193.397729 
C 123.681745 193.626327 123.772568 193.845592 123.934211 194.007236 
C 124.095854 194.168879 124.31512 194.259702 124.543718 194.259702 
z
" style="fill:#ffc68f;stroke:#ffc68f;"/>
    <path clip-path="url(#pedcd822d35)" d="M 125.32588 192.48475 
C 125.55938 192.48475 125.783348 192.39198 125.948458 192.22687 
C 126.113567 192.06176 126.206338 191.837792 126.206338 191.604292 
C 126.206338 191.370792 126.113567 191.146824 125.948458 190.981714 
C 125.783348 190.816604 125.55938 190.723834 125.32588 190.723834 
C 125.092379 190.723834 124.868411 190.816604 124.703302 190.981714 
C 124.538192 191.146824 124.445421 191.370792 124.445421 191.604292 
C 124.445421 191.837792 124.538192 192.06176 124.703302 192.22687 
C 124.868411 192.39198 125.092379 192.48475 125.32588 192.48475 
z
" style="fill:#ffc996;stroke:#ffc996;"/>
    <path clip-path="url(#pedcd822d35)" d="M 126.130047 190.710196 
C 126.368555 190.710196 126.597326 190.615435 126.765977 190.446785 
C 126.934627 190.278134 127.029387 190.049363 127.029387 189.810855 
C 127.029387 189.572348 126.934627 189.343576 126.765977 189.174926 
C 126.597326 189.006275 126.368555 188.911515 126.130047 188.911515 
C 125.891539 188.911515 125.662768 189.006275 125.494118 189.174926 
C 125.325467 189.343576 125.230707 189.572348 125.230707 189.810855 
C 125.230707 190.049363 125.325467 190.278134 125.494118 190.446785 
C 125.662768 190.615435 125.891539 190.710196 126.130047 190.710196 
z
" style="fill:#ffce9e;stroke:#ffce9e;"/>
    <path clip-path="url(#pedcd822d35)" d="M 126.95684 188.936046 
C 127.200462 188.936046 127.43414 188.839253 127.606407 188.666986 
C 127.778674 188.494719 127.875467 188.261041 127.875467 188.017419 
C 127.875467 187.773796 127.778674 187.540119 127.606407 187.367851 
C 127.43414 187.195584 127.200462 187.098792 126.95684 187.098792 
C 126.713217 187.098792 126.47954 187.195584 126.307272 187.367851 
C 126.135005 187.540119 126.038213 187.773796 126.038213 188.017419 
C 126.038213 188.261041 126.135005 188.494719 126.307272 188.666986 
C 126.47954 188.839253 126.713217 188.936046 126.95684 188.936046 
z
" style="fill:#ffd3a7;stroke:#ffd3a7;"/>
    <path clip-path="url(#pedcd822d35)" d="M 127.806894 187.162309 
C 128.055741 187.162309 128.29443 187.063441 128.470392 186.88748 
C 128.646353 186.711518 128.745221 186.472829 128.745221 186.223982 
C 128.745221 185.975135 128.646353 185.736446 128.470392 185.560484 
C 128.29443 185.384523 128.055741 185.285655 127.806894 185.285655 
C 127.558047 185.285655 127.319358 185.384523 127.143396 185.560484 
C 126.967435 185.736446 126.868567 185.975135 126.868567 186.223982 
C 126.868567 186.472829 126.967435 186.711518 127.143396 186.88748 
C 127.319358 187.063441 127.558047 187.162309 127.806894 187.162309 
z
" style="fill:#ffd8af;stroke:#ffd8af;"/>
    <path clip-path="url(#pedcd822d35)" d="M 128.680864 185.388996 
C 128.935048 185.388996 129.178856 185.288007 129.358591 185.108272 
C 129.538326 184.928537 129.639315 184.684729 129.639315 184.430545 
C 129.639315 184.176361 129.538326 183.932554 129.358591 183.752819 
C 129.178856 183.573084 128.935048 183.472095 128.680864 183.472095 
C 128.42668 183.472095 128.182873 183.573084 128.003138 183.752819 
C 127.823402 183.932554 127.722414 184.176361 127.722414 184.430545 
C 127.722414 184.684729 127.823402 184.928537 128.003138 185.108272 
C 128.182873 185.288007 128.42668 185.388996 128.680864 185.388996 
z
" style="fill:#ffdcb6;stroke:#ffdcb6;"/>
    <path clip-path="url(#pedcd822d35)" d="M 129.579424 183.616114 
C 129.839059 183.616114 130.088095 183.512959 130.271684 183.32937 
C 130.455274 183.14578 130.558428 182.896744 130.558428 182.637109 
C 130.558428 182.377474 130.455274 182.128438 130.271684 181.944848 
C 130.088095 181.761258 129.839059 181.658104 129.579424 181.658104 
C 129.319788 181.658104 129.070752 181.761258 128.887163 181.944848 
C 128.703573 182.128438 128.600419 182.377474 128.600419 182.637109 
C 128.600419 182.896744 128.703573 183.14578 128.887163 183.32937 
C 129.070752 183.512959 129.319788 183.616114 129.579424 183.616114 
z
" style="fill:#ffe0be;stroke:#ffe0be;"/>
    <path clip-path="url(#pedcd822d35)" d="M 130.503264 181.843672 
C 130.768467 181.843672 131.022844 181.738306 131.21037 181.550779 
C 131.397897 181.363252 131.503264 181.108875 131.503264 180.843672 
C 131.503264 180.578469 131.397897 180.324092 131.21037 180.136565 
C 131.022844 179.949038 130.768467 179.843672 130.503264 179.843672 
C 130.238061 179.843672 129.983684 179.949038 129.796157 180.136565 
C 129.60863 180.324092 129.503264 180.578469 129.503264 180.843672 
C 129.503264 181.108875 129.60863 181.363252 129.796157 181.550779 
C 129.983684 181.738306 130.238061 181.843672 130.503264 181.843672 
z
" style="fill:#ffe4c5;stroke:#ffe4c5;"/>
   </g>
   <g id="PathCollection_3">
    <path clip-path="url(#pedcd822d35)" d="M 348.153784 66.810275 
C 349.636314 66.810275 351.058324 66.221259 352.106631 65.172952 
C 353.154938 64.124645 353.743954 62.702635 353.743954 61.220105 
C 353.743954 59.737575 353.154938 58.315565 352.106631 57.267258 
C 351.058324 56.218951 349.636314 55.629935 348.153784 55.629935 
C 346.671254 55.629935 345.249244 56.218951 344.200937 57.267258 
C 343.15263 58.315565 342.563614 59.737575 342.563614 61.220105 
C 342.563614 62.702635 343.15263 64.124645 344.200937 65.172952 
C 345.249244 66.221259 346.671254 66.810275 348.153784 66.810275 
z
" style="fill:#a1b8ff;stroke:#a1b8ff;"/>
    <path clip-path="url(#pedcd822d35)" d="M 364.832811 61.381233 
C 366.48679 61.381233 368.073249 60.7241 369.242789 59.55456 
C 370.412329 58.385021 371.069462 56.798562 371.069462 55.144582 
C 371.069462 53.490603 370.412329 51.904144 369.242789 50.734604 
C 368.073249 49.565065 366.48679 48.907932 364.832811 48.907932 
C 363.178832 48.907932 361.592373 49.565065 360.422833 50.734604 
C 359.253293 51.904144 358.59616 53.490603 358.59616 55.144582 
C 358.59616 56.798562 359.253293 58.385021 360.422833 59.55456 
C 361.592373 60.7241 363.178832 61.381233 364.832811 61.381233 
z
" style="fill:#a0b7ff;stroke:#a0b7ff;"/>
    <path clip-path="url(#pedcd822d35)" d="M 382.618355 56.026954 
C 384.46361 56.026954 386.233536 55.293826 387.538329 53.989034 
C 388.843121 52.684242 389.576249 50.914315 389.576249 49.06906 
C 389.576249 47.223805 388.843121 45.453878 387.538329 44.149086 
C 386.233536 42.844293 384.46361 42.111166 382.618355 42.111166 
C 380.773099 42.111166 379.003173 42.844293 377.69838 44.149086 
C 376.393588 45.453878 375.66046 47.223805 375.66046 49.06906 
C 375.66046 50.914315 376.393588 52.684242 377.69838 53.989034 
C 379.003173 55.293826 380.773099 56.026954 382.618355 56.026954 
z
" style="fill:#9fb6ff;stroke:#9fb6ff;"/>
    <path clip-path="url(#pedcd822d35)" d="M 401.583823 50.756084 
C 403.642474 50.756084 405.617086 49.938173 407.072772 48.482487 
C 408.528459 47.0268 409.34637 45.052189 409.34637 42.993537 
C 409.34637 40.934886 408.528459 38.960274 407.072772 37.504588 
C 405.617086 36.048901 403.642474 35.23099 401.583823 35.23099 
C 399.525172 35.23099 397.55056 36.048901 396.094874 37.504588 
C 394.639187 38.960274 393.821276 40.934886 393.821276 42.993537 
C 393.821276 45.052189 394.639187 47.0268 396.094874 48.482487 
C 397.55056 49.938173 399.525172 50.756084 401.583823 50.756084 
z
" style="fill:#9db4ff;stroke:#9db4ff;"/>
    <path clip-path="url(#pedcd822d35)" d="M 421.807494 45.578269 
C 424.104221 45.578269 426.307188 44.66577 427.931219 43.041739 
C 429.555249 41.417708 430.467748 39.214741 430.467748 36.918015 
C 430.467748 34.621288 429.555249 32.418321 427.931219 30.79429 
C 426.307188 29.17026 424.104221 28.257761 421.807494 28.257761 
C 419.510768 28.257761 417.307801 29.17026 415.68377 30.79429 
C 414.059739 32.418321 413.14724 34.621288 413.14724 36.918015 
C 413.14724 39.214741 414.059739 41.417708 415.68377 43.041739 
C 417.307801 44.66577 419.510768 45.578269 421.807494 45.578269 
z
" style="fill:#9cb3ff;stroke:#9cb3ff;"/>
   </g>
   <g id="matplotlib.axis_1">
    <g id="xtick_1">
     <g id="line2d_1">
      <defs>
       <path d="M 0 0 
L 0 3.5 
" id="ma0e844b5a2" style="stroke:#000000;stroke-width:0.8;"/>
      </defs>
      <g>
       <use style="stroke:#000000;stroke-width:0.8;" x="96.743214" xlink:href="#ma0e844b5a2" y="280.6"/>
      </g>
     </g>
     <g id="text_1">
      <!-- 0 -->
      <defs>
       <path d="M 31.78125 66.40625 
Q 24.171875 66.40625 20.328125 58.90625 
Q 16.5 51.421875 16.5 36.375 
Q 16.5 21.390625 20.328125 13.890625 
Q 24.171875 6.390625 31.78125 6.390625 
Q 39.453125 6.390625 43.28125 13.890625 
Q 47.125 21.390625 47.125 36.375 
Q 47.125 51.421875 43.28125 58.90625 
Q 39.453125 66.40625 31.78125 66.40625 
z
M 31.78125 74.21875 
Q 44.046875 74.21875 50.515625 64.515625 
Q 56.984375 54.828125 56.984375 36.375 
Q 56.984375 17.96875 50.515625 8.265625 
Q 44.046875 -1.421875 31.78125 -1.421875 
Q 19.53125 -1.421875 13.0625 8.265625 
Q 6.59375 17.96875 6.59375 36.375 
Q 6.59375 54.828125 13.0625 64.515625 
Q 19.53125 74.21875 31.78125 74.21875 
z
" id="DejaVuSans-30"/>
      </defs>
      <g transform="translate(91.016964 301.277187)scale(0.18 -0.18)">
       <use xlink:href="#DejaVuSans-30"/>
      </g>
     </g>
    </g>
    <g id="xtick_2">
     <g id="line2d_2">
      <g>
       <use style="stroke:#000000;stroke-width:0.8;" x="166.116852" xlink:href="#ma0e844b5a2" y="280.6"/>
      </g>
     </g>
     <g id="text_2">
      <!-- 10000 -->
      <defs>
       <path d="M 12.40625 8.296875 
L 28.515625 8.296875 
L 28.515625 63.921875 
L 10.984375 60.40625 
L 10.984375 69.390625 
L 28.421875 72.90625 
L 38.28125 72.90625 
L 38.28125 8.296875 
L 54.390625 8.296875 
L 54.390625 0 
L 12.40625 0 
z
" id="DejaVuSans-31"/>
      </defs>
      <g transform="translate(137.485602 301.277187)scale(0.18 -0.18)">
       <use xlink:href="#DejaVuSans-31"/>
       <use x="63.623047" xlink:href="#DejaVuSans-30"/>
       <use x="127.246094" xlink:href="#DejaVuSans-30"/>
       <use x="190.869141" xlink:href="#DejaVuSans-30"/>
       <use x="254.492188" xlink:href="#DejaVuSans-30"/>
      </g>
     </g>
    </g>
    <g id="xtick_3">
     <g id="line2d_3">
      <g>
       <use style="stroke:#000000;stroke-width:0.8;" x="235.490489" xlink:href="#ma0e844b5a2" y="280.6"/>
      </g>
     </g>
     <g id="text_3">
      <!-- 20000 -->
      <defs>
       <path d="M 19.1875 8.296875 
L 53.609375 8.296875 
L 53.609375 0 
L 7.328125 0 
L 7.328125 8.296875 
Q 12.9375 14.109375 22.625 23.890625 
Q 32.328125 33.6875 34.8125 36.53125 
Q 39.546875 41.84375 41.421875 45.53125 
Q 43.3125 49.21875 43.3125 52.78125 
Q 43.3125 58.59375 39.234375 62.25 
Q 35.15625 65.921875 28.609375 65.921875 
Q 23.96875 65.921875 18.8125 64.3125 
Q 13.671875 62.703125 7.8125 59.421875 
L 7.8125 69.390625 
Q 13.765625 71.78125 18.9375 73 
Q 24.125 74.21875 28.421875 74.21875 
Q 39.75 74.21875 46.484375 68.546875 
Q 53.21875 62.890625 53.21875 53.421875 
Q 53.21875 48.921875 51.53125 44.890625 
Q 49.859375 40.875 45.40625 35.40625 
Q 44.1875 33.984375 37.640625 27.21875 
Q 31.109375 20.453125 19.1875 8.296875 
z
" id="DejaVuSans-32"/>
      </defs>
      <g transform="translate(206.859239 301.277187)scale(0.18 -0.18)">
       <use xlink:href="#DejaVuSans-32"/>
       <use x="63.623047" xlink:href="#DejaVuSans-30"/>
       <use x="127.246094" xlink:href="#DejaVuSans-30"/>
       <use x="190.869141" xlink:href="#DejaVuSans-30"/>
       <use x="254.492188" xlink:href="#DejaVuSans-30"/>
      </g>
     </g>
    </g>
    <g id="xtick_4">
     <g id="line2d_4">
      <g>
       <use style="stroke:#000000;stroke-width:0.8;" x="304.864126" xlink:href="#ma0e844b5a2" y="280.6"/>
      </g>
     </g>
     <g id="text_4">
      <!-- 30000 -->
      <defs>
       <path d="M 40.578125 39.3125 
Q 47.65625 37.796875 51.625 33 
Q 55.609375 28.21875 55.609375 21.1875 
Q 55.609375 10.40625 48.1875 4.484375 
Q 40.765625 -1.421875 27.09375 -1.421875 
Q 22.515625 -1.421875 17.65625 -0.515625 
Q 12.796875 0.390625 7.625 2.203125 
L 7.625 11.71875 
Q 11.71875 9.328125 16.59375 8.109375 
Q 21.484375 6.890625 26.8125 6.890625 
Q 36.078125 6.890625 40.9375 10.546875 
Q 45.796875 14.203125 45.796875 21.1875 
Q 45.796875 27.640625 41.28125 31.265625 
Q 36.765625 34.90625 28.71875 34.90625 
L 20.21875 34.90625 
L 20.21875 43.015625 
L 29.109375 43.015625 
Q 36.375 43.015625 40.234375 45.921875 
Q 44.09375 48.828125 44.09375 54.296875 
Q 44.09375 59.90625 40.109375 62.90625 
Q 36.140625 65.921875 28.71875 65.921875 
Q 24.65625 65.921875 20.015625 65.03125 
Q 15.375 64.15625 9.8125 62.3125 
L 9.8125 71.09375 
Q 15.4375 72.65625 20.34375 73.4375 
Q 25.25 74.21875 29.59375 74.21875 
Q 40.828125 74.21875 47.359375 69.109375 
Q 53.90625 64.015625 53.90625 55.328125 
Q 53.90625 49.265625 50.4375 45.09375 
Q 46.96875 40.921875 40.578125 39.3125 
z
" id="DejaVuSans-33"/>
      </defs>
      <g transform="translate(276.232876 301.277187)scale(0.18 -0.18)">
       <use xlink:href="#DejaVuSans-33"/>
       <use x="63.623047" xlink:href="#DejaVuSans-30"/>
       <use x="127.246094" xlink:href="#DejaVuSans-30"/>
       <use x="190.869141" xlink:href="#DejaVuSans-30"/>
       <use x="254.492188" xlink:href="#DejaVuSans-30"/>
      </g>
     </g>
    </g>
    <g id="xtick_5">
     <g id="line2d_5">
      <g>
       <use style="stroke:#000000;stroke-width:0.8;" x="374.237764" xlink:href="#ma0e844b5a2" y="280.6"/>
      </g>
     </g>
     <g id="text_5">
      <!-- 40000 -->
      <defs>
       <path d="M 37.796875 64.3125 
L 12.890625 25.390625 
L 37.796875 25.390625 
z
M 35.203125 72.90625 
L 47.609375 72.90625 
L 47.609375 25.390625 
L 58.015625 25.390625 
L 58.015625 17.1875 
L 47.609375 17.1875 
L 47.609375 0 
L 37.796875 0 
L 37.796875 17.1875 
L 4.890625 17.1875 
L 4.890625 26.703125 
z
" id="DejaVuSans-34"/>
      </defs>
      <g transform="translate(345.606514 301.277187)scale(0.18 -0.18)">
       <use xlink:href="#DejaVuSans-34"/>
       <use x="63.623047" xlink:href="#DejaVuSans-30"/>
       <use x="127.246094" xlink:href="#DejaVuSans-30"/>
       <use x="190.869141" xlink:href="#DejaVuSans-30"/>
       <use x="254.492188" xlink:href="#DejaVuSans-30"/>
      </g>
     </g>
    </g>
    <g id="text_6">
     <!-- Temperature -->
     <defs>
      <path d="M -0.296875 72.90625 
L 61.375 72.90625 
L 61.375 64.59375 
L 35.5 64.59375 
L 35.5 0 
L 25.59375 0 
L 25.59375 64.59375 
L -0.296875 64.59375 
z
" id="DejaVuSans-54"/>
      <path d="M 56.203125 29.59375 
L 56.203125 25.203125 
L 14.890625 25.203125 
Q 15.484375 15.921875 20.484375 11.0625 
Q 25.484375 6.203125 34.421875 6.203125 
Q 39.59375 6.203125 44.453125 7.46875 
Q 49.3125 8.734375 54.109375 11.28125 
L 54.109375 2.78125 
Q 49.265625 0.734375 44.1875 -0.34375 
Q 39.109375 -1.421875 33.890625 -1.421875 
Q 20.796875 -1.421875 13.15625 6.1875 
Q 5.515625 13.8125 5.515625 26.8125 
Q 5.515625 40.234375 12.765625 48.109375 
Q 20.015625 56 32.328125 56 
Q 43.359375 56 49.78125 48.890625 
Q 56.203125 41.796875 56.203125 29.59375 
z
M 47.21875 32.234375 
Q 47.125 39.59375 43.09375 43.984375 
Q 39.0625 48.390625 32.421875 48.390625 
Q 24.90625 48.390625 20.390625 44.140625 
Q 15.875 39.890625 15.1875 32.171875 
z
" id="DejaVuSans-65"/>
      <path d="M 52 44.1875 
Q 55.375 50.25 60.0625 53.125 
Q 64.75 56 71.09375 56 
Q 79.640625 56 84.28125 50.015625 
Q 88.921875 44.046875 88.921875 33.015625 
L 88.921875 0 
L 79.890625 0 
L 79.890625 32.71875 
Q 79.890625 40.578125 77.09375 44.375 
Q 74.3125 48.1875 68.609375 48.1875 
Q 61.625 48.1875 57.5625 43.546875 
Q 53.515625 38.921875 53.515625 30.90625 
L 53.515625 0 
L 44.484375 0 
L 44.484375 32.71875 
Q 44.484375 40.625 41.703125 44.40625 
Q 38.921875 48.1875 33.109375 48.1875 
Q 26.21875 48.1875 22.15625 43.53125 
Q 18.109375 38.875 18.109375 30.90625 
L 18.109375 0 
L 9.078125 0 
L 9.078125 54.6875 
L 18.109375 54.6875 
L 18.109375 46.1875 
Q 21.1875 51.21875 25.484375 53.609375 
Q 29.78125 56 35.6875 56 
Q 41.65625 56 45.828125 52.96875 
Q 50 49.953125 52 44.1875 
z
" id="DejaVuSans-6d"/>
      <path d="M 18.109375 8.203125 
L 18.109375 -20.796875 
L 9.078125 -20.796875 
L 9.078125 54.6875 
L 18.109375 54.6875 
L 18.109375 46.390625 
Q 20.953125 51.265625 25.265625 53.625 
Q 29.59375 56 35.59375 56 
Q 45.5625 56 51.78125 48.09375 
Q 58.015625 40.1875 58.015625 27.296875 
Q 58.015625 14.40625 51.78125 6.484375 
Q 45.5625 -1.421875 35.59375 -1.421875 
Q 29.59375 -1.421875 25.265625 0.953125 
Q 20.953125 3.328125 18.109375 8.203125 
z
M 48.6875 27.296875 
Q 48.6875 37.203125 44.609375 42.84375 
Q 40.53125 48.484375 33.40625 48.484375 
Q 26.265625 48.484375 22.1875 42.84375 
Q 18.109375 37.203125 18.109375 27.296875 
Q 18.109375 17.390625 22.1875 11.75 
Q 26.265625 6.109375 33.40625 6.109375 
Q 40.53125 6.109375 44.609375 11.75 
Q 48.6875 17.390625 48.6875 27.296875 
z
" id="DejaVuSans-70"/>
      <path d="M 41.109375 46.296875 
Q 39.59375 47.171875 37.8125 47.578125 
Q 36.03125 48 33.890625 48 
Q 26.265625 48 22.1875 43.046875 
Q 18.109375 38.09375 18.109375 28.8125 
L 18.109375 0 
L 9.078125 0 
L 9.078125 54.6875 
L 18.109375 54.6875 
L 18.109375 46.1875 
Q 20.953125 51.171875 25.484375 53.578125 
Q 30.03125 56 36.53125 56 
Q 37.453125 56 38.578125 55.875 
Q 39.703125 55.765625 41.0625 55.515625 
z
" id="DejaVuSans-72"/>
      <path d="M 34.28125 27.484375 
Q 23.390625 27.484375 19.1875 25 
Q 14.984375 22.515625 14.984375 16.5 
Q 14.984375 11.71875 18.140625 8.90625 
Q 21.296875 6.109375 26.703125 6.109375 
Q 34.1875 6.109375 38.703125 11.40625 
Q 43.21875 16.703125 43.21875 25.484375 
L 43.21875 27.484375 
z
M 52.203125 31.203125 
L 52.203125 0 
L 43.21875 0 
L 43.21875 8.296875 
Q 40.140625 3.328125 35.546875 0.953125 
Q 30.953125 -1.421875 24.3125 -1.421875 
Q 15.921875 -1.421875 10.953125 3.296875 
Q 6 8.015625 6 15.921875 
Q 6 25.140625 12.171875 29.828125 
Q 18.359375 34.515625 30.609375 34.515625 
L 43.21875 34.515625 
L 43.21875 35.40625 
Q 43.21875 41.609375 39.140625 45 
Q 35.0625 48.390625 27.6875 48.390625 
Q 23 48.390625 18.546875 47.265625 
Q 14.109375 46.140625 10.015625 43.890625 
L 10.015625 52.203125 
Q 14.9375 54.109375 19.578125 55.046875 
Q 24.21875 56 28.609375 56 
Q 40.484375 56 46.34375 49.84375 
Q 52.203125 43.703125 52.203125 31.203125 
z
" id="DejaVuSans-61"/>
      <path d="M 18.3125 70.21875 
L 18.3125 54.6875 
L 36.8125 54.6875 
L 36.8125 47.703125 
L 18.3125 47.703125 
L 18.3125 18.015625 
Q 18.3125 11.328125 20.140625 9.421875 
Q 21.96875 7.515625 27.59375 7.515625 
L 36.8125 7.515625 
L 36.8125 0 
L 27.59375 0 
Q 17.1875 0 13.234375 3.875 
Q 9.28125 7.765625 9.28125 18.015625 
L 9.28125 47.703125 
L 2.6875 47.703125 
L 2.6875 54.6875 
L 9.28125 54.6875 
L 9.28125 70.21875 
z
" id="DejaVuSans-74"/>
      <path d="M 8.5 21.578125 
L 8.5 54.6875 
L 17.484375 54.6875 
L 17.484375 21.921875 
Q 17.484375 14.15625 20.5 10.265625 
Q 23.53125 6.390625 29.59375 6.390625 
Q 36.859375 6.390625 41.078125 11.03125 
Q 45.3125 15.671875 45.3125 23.6875 
L 45.3125 54.6875 
L 54.296875 54.6875 
L 54.296875 0 
L 45.3125 0 
L 45.3125 8.40625 
Q 42.046875 3.421875 37.71875 1 
Q 33.40625 -1.421875 27.6875 -1.421875 
Q 18.265625 -1.421875 13.375 4.4375 
Q 8.5 10.296875 8.5 21.578125 
z
M 31.109375 56 
z
" id="DejaVuSans-75"/>
     </defs>
     <g transform="translate(206.031222 322.697812)scale(0.18 -0.18)">
      <use xlink:href="#DejaVuSans-54"/>
      <use x="60.818359" xlink:href="#DejaVuSans-65"/>
      <use x="122.341797" xlink:href="#DejaVuSans-6d"/>
      <use x="219.753906" xlink:href="#DejaVuSans-70"/>
      <use x="283.230469" xlink:href="#DejaVuSans-65"/>
      <use x="344.753906" xlink:href="#DejaVuSans-72"/>
      <use x="385.867188" xlink:href="#DejaVuSans-61"/>
      <use x="447.146484" xlink:href="#DejaVuSans-74"/>
      <use x="486.355469" xlink:href="#DejaVuSans-75"/>
      <use x="549.734375" xlink:href="#DejaVuSans-72"/>
      <use x="590.816406" xlink:href="#DejaVuSans-65"/>
     </g>
    </g>
   </g>
   <g id="matplotlib.axis_2">
    <g id="ytick_1">
     <g id="line2d_6">
      <defs>
       <path d="M 0 0 
L -3.5 0 
" id="m22e30a38b5" style="stroke:#000000;stroke-width:0.8;"/>
      </defs>
      <g>
       <use style="stroke:#000000;stroke-width:0.8;" x="89.384319" xlink:href="#m22e30a38b5" y="254.080499"/>
      </g>
     </g>
     <g id="text_7">
      <!-- $\mathdefault{10^{-4}}$ -->
      <defs>
       <path d="M 10.59375 35.5 
L 73.1875 35.5 
L 73.1875 27.203125 
L 10.59375 27.203125 
z
" id="DejaVuSans-2212"/>
      </defs>
      <g transform="translate(40.084319 260.919093)scale(0.18 -0.18)">
       <use transform="translate(0 0.684375)" xlink:href="#DejaVuSans-31"/>
       <use transform="translate(63.623047 0.684375)" xlink:href="#DejaVuSans-30"/>
       <use transform="translate(128.203125 38.965625)scale(0.7)" xlink:href="#DejaVuSans-2212"/>
       <use transform="translate(186.855469 38.965625)scale(0.7)" xlink:href="#DejaVuSans-34"/>
      </g>
     </g>
    </g>
    <g id="ytick_2">
     <g id="line2d_7">
      <g>
       <use style="stroke:#000000;stroke-width:0.8;" x="89.384319" xlink:href="#m22e30a38b5" y="211.22424"/>
      </g>
     </g>
     <g id="text_8">
      <!-- $\mathdefault{10^{-2}}$ -->
      <g transform="translate(40.084319 218.062834)scale(0.18 -0.18)">
       <use transform="translate(0 0.765625)" xlink:href="#DejaVuSans-31"/>
       <use transform="translate(63.623047 0.765625)" xlink:href="#DejaVuSans-30"/>
       <use transform="translate(128.203125 39.046875)scale(0.7)" xlink:href="#DejaVuSans-2212"/>
       <use transform="translate(186.855469 39.046875)scale(0.7)" xlink:href="#DejaVuSans-32"/>
      </g>
     </g>
    </g>
    <g id="ytick_3">
     <g id="line2d_8">
      <g>
       <use style="stroke:#000000;stroke-width:0.8;" x="89.384319" xlink:href="#m22e30a38b5" y="168.367981"/>
      </g>
     </g>
     <g id="text_9">
      <!-- $\mathdefault{10^{0}}$ -->
      <g transform="translate(50.704319 175.206575)scale(0.18 -0.18)">
       <use transform="translate(0 0.765625)" xlink:href="#DejaVuSans-31"/>
       <use transform="translate(63.623047 0.765625)" xlink:href="#DejaVuSans-30"/>
       <use transform="translate(128.203125 39.046875)scale(0.7)" xlink:href="#DejaVuSans-30"/>
      </g>
     </g>
    </g>
    <g id="ytick_4">
     <g id="line2d_9">
      <g>
       <use style="stroke:#000000;stroke-width:0.8;" x="89.384319" xlink:href="#m22e30a38b5" y="125.511722"/>
      </g>
     </g>
     <g id="text_10">
      <!-- $\mathdefault{10^{2}}$ -->
      <g transform="translate(50.704319 132.350316)scale(0.18 -0.18)">
       <use transform="translate(0 0.765625)" xlink:href="#DejaVuSans-31"/>
       <use transform="translate(63.623047 0.765625)" xlink:href="#DejaVuSans-30"/>
       <use transform="translate(128.203125 39.046875)scale(0.7)" xlink:href="#DejaVuSans-32"/>
      </g>
     </g>
    </g>
    <g id="ytick_5">
     <g id="line2d_10">
      <g>
       <use style="stroke:#000000;stroke-width:0.8;" x="89.384319" xlink:href="#m22e30a38b5" y="82.655463"/>
      </g>
     </g>
     <g id="text_11">
      <!-- $\mathdefault{10^{4}}$ -->
      <g transform="translate(50.704319 89.494056)scale(0.18 -0.18)">
       <use transform="translate(0 0.684375)" xlink:href="#DejaVuSans-31"/>
       <use transform="translate(63.623047 0.684375)" xlink:href="#DejaVuSans-30"/>
       <use transform="translate(128.203125 38.965625)scale(0.7)" xlink:href="#DejaVuSans-34"/>
      </g>
     </g>
    </g>
    <g id="ytick_6">
     <g id="line2d_11">
      <g>
       <use style="stroke:#000000;stroke-width:0.8;" x="89.384319" xlink:href="#m22e30a38b5" y="39.799204"/>
      </g>
     </g>
     <g id="text_12">
      <!-- $\mathdefault{10^{6}}$ -->
      <defs>
       <path d="M 33.015625 40.375 
Q 26.375 40.375 22.484375 35.828125 
Q 18.609375 31.296875 18.609375 23.390625 
Q 18.609375 15.53125 22.484375 10.953125 
Q 26.375 6.390625 33.015625 6.390625 
Q 39.65625 6.390625 43.53125 10.953125 
Q 47.40625 15.53125 47.40625 23.390625 
Q 47.40625 31.296875 43.53125 35.828125 
Q 39.65625 40.375 33.015625 40.375 
z
M 52.59375 71.296875 
L 52.59375 62.3125 
Q 48.875 64.0625 45.09375 64.984375 
Q 41.3125 65.921875 37.59375 65.921875 
Q 27.828125 65.921875 22.671875 59.328125 
Q 17.53125 52.734375 16.796875 39.40625 
Q 19.671875 43.65625 24.015625 45.921875 
Q 28.375 48.1875 33.59375 48.1875 
Q 44.578125 48.1875 50.953125 41.515625 
Q 57.328125 34.859375 57.328125 23.390625 
Q 57.328125 12.15625 50.6875 5.359375 
Q 44.046875 -1.421875 33.015625 -1.421875 
Q 20.359375 -1.421875 13.671875 8.265625 
Q 6.984375 17.96875 6.984375 36.375 
Q 6.984375 53.65625 15.1875 63.9375 
Q 23.390625 74.21875 37.203125 74.21875 
Q 40.921875 74.21875 44.703125 73.484375 
Q 48.484375 72.75 52.59375 71.296875 
z
" id="DejaVuSans-36"/>
      </defs>
      <g transform="translate(50.704319 46.637797)scale(0.18 -0.18)">
       <use transform="translate(0 0.765625)" xlink:href="#DejaVuSans-31"/>
       <use transform="translate(63.623047 0.765625)" xlink:href="#DejaVuSans-30"/>
       <use transform="translate(128.203125 39.046875)scale(0.7)" xlink:href="#DejaVuSans-36"/>
      </g>
     </g>
    </g>
    <g id="text_13">
     <!-- Luminosity -->
     <defs>
      <path d="M 9.8125 72.90625 
L 19.671875 72.90625 
L 19.671875 8.296875 
L 55.171875 8.296875 
L 55.171875 0 
L 9.8125 0 
z
" id="DejaVuSans-4c"/>
      <path d="M 9.421875 54.6875 
L 18.40625 54.6875 
L 18.40625 0 
L 9.421875 0 
z
M 9.421875 75.984375 
L 18.40625 75.984375 
L 18.40625 64.59375 
L 9.421875 64.59375 
z
" id="DejaVuSans-69"/>
      <path d="M 54.890625 33.015625 
L 54.890625 0 
L 45.90625 0 
L 45.90625 32.71875 
Q 45.90625 40.484375 42.875 44.328125 
Q 39.84375 48.1875 33.796875 48.1875 
Q 26.515625 48.1875 22.3125 43.546875 
Q 18.109375 38.921875 18.109375 30.90625 
L 18.109375 0 
L 9.078125 0 
L 9.078125 54.6875 
L 18.109375 54.6875 
L 18.109375 46.1875 
Q 21.34375 51.125 25.703125 53.5625 
Q 30.078125 56 35.796875 56 
Q 45.21875 56 50.046875 50.171875 
Q 54.890625 44.34375 54.890625 33.015625 
z
" id="DejaVuSans-6e"/>
      <path d="M 30.609375 48.390625 
Q 23.390625 48.390625 19.1875 42.75 
Q 14.984375 37.109375 14.984375 27.296875 
Q 14.984375 17.484375 19.15625 11.84375 
Q 23.34375 6.203125 30.609375 6.203125 
Q 37.796875 6.203125 41.984375 11.859375 
Q 46.1875 17.53125 46.1875 27.296875 
Q 46.1875 37.015625 41.984375 42.703125 
Q 37.796875 48.390625 30.609375 48.390625 
z
M 30.609375 56 
Q 42.328125 56 49.015625 48.375 
Q 55.71875 40.765625 55.71875 27.296875 
Q 55.71875 13.875 49.015625 6.21875 
Q 42.328125 -1.421875 30.609375 -1.421875 
Q 18.84375 -1.421875 12.171875 6.21875 
Q 5.515625 13.875 5.515625 27.296875 
Q 5.515625 40.765625 12.171875 48.375 
Q 18.84375 56 30.609375 56 
z
" id="DejaVuSans-6f"/>
      <path d="M 44.28125 53.078125 
L 44.28125 44.578125 
Q 40.484375 46.53125 36.375 47.5 
Q 32.28125 48.484375 27.875 48.484375 
Q 21.1875 48.484375 17.84375 46.4375 
Q 14.5 44.390625 14.5 40.28125 
Q 14.5 37.15625 16.890625 35.375 
Q 19.28125 33.59375 26.515625 31.984375 
L 29.59375 31.296875 
Q 39.15625 29.25 43.1875 25.515625 
Q 47.21875 21.78125 47.21875 15.09375 
Q 47.21875 7.46875 41.1875 3.015625 
Q 35.15625 -1.421875 24.609375 -1.421875 
Q 20.21875 -1.421875 15.453125 -0.5625 
Q 10.6875 0.296875 5.421875 2 
L 5.421875 11.28125 
Q 10.40625 8.6875 15.234375 7.390625 
Q 20.0625 6.109375 24.8125 6.109375 
Q 31.15625 6.109375 34.5625 8.28125 
Q 37.984375 10.453125 37.984375 14.40625 
Q 37.984375 18.0625 35.515625 20.015625 
Q 33.0625 21.96875 24.703125 23.78125 
L 21.578125 24.515625 
Q 13.234375 26.265625 9.515625 29.90625 
Q 5.8125 33.546875 5.8125 39.890625 
Q 5.8125 47.609375 11.28125 51.796875 
Q 16.75 56 26.8125 56 
Q 31.78125 56 36.171875 55.265625 
Q 40.578125 54.546875 44.28125 53.078125 
z
" id="DejaVuSans-73"/>
      <path d="M 32.171875 -5.078125 
Q 28.375 -14.84375 24.75 -17.8125 
Q 21.140625 -20.796875 15.09375 -20.796875 
L 7.90625 -20.796875 
L 7.90625 -13.28125 
L 13.1875 -13.28125 
Q 16.890625 -13.28125 18.9375 -11.515625 
Q 21 -9.765625 23.484375 -3.21875 
L 25.09375 0.875 
L 2.984375 54.6875 
L 12.5 54.6875 
L 29.59375 11.921875 
L 46.6875 54.6875 
L 56.203125 54.6875 
z
" id="DejaVuSans-79"/>
     </defs>
     <g transform="translate(32.340881 199.888437)rotate(-90)scale(0.18 -0.18)">
      <use xlink:href="#DejaVuSans-4c"/>
      <use x="55.697266" xlink:href="#DejaVuSans-75"/>
      <use x="119.076172" xlink:href="#DejaVuSans-6d"/>
      <use x="216.488281" xlink:href="#DejaVuSans-69"/>
      <use x="244.271484" xlink:href="#DejaVuSans-6e"/>
      <use x="307.650391" xlink:href="#DejaVuSans-6f"/>
      <use x="368.832031" xlink:href="#DejaVuSans-73"/>
      <use x="420.931641" xlink:href="#DejaVuSans-69"/>
      <use x="448.714844" xlink:href="#DejaVuSans-74"/>
      <use x="487.923828" xlink:href="#DejaVuSans-79"/>
     </g>
    </g>
   </g>
   <g id="line2d_12">
    <path clip-path="url(#pedcd822d35)" d="M 105.41184 32.513636 
L 421.807494 32.513636 
" style="fill:none;stroke:#000000;stroke-dasharray:5.55,2.4;stroke-dashoffset:0;stroke-width:1.5;"/>
   </g>
   <g id="line2d_13">
    <path clip-path="url(#pedcd822d35)" d="M 105.41184 55.227452 
L 421.807494 55.227452 
" style="fill:none;stroke:#000000;stroke-dasharray:5.55,2.4;stroke-dashoffset:0;stroke-width:1.5;"/>
   </g>
   <g id="line2d_14">
    <path clip-path="url(#pedcd822d35)" d="M 105.41184 86.041107 
L 421.807494 86.041107 
" style="fill:none;stroke:#000000;stroke-dasharray:5.55,2.4;stroke-dashoffset:0;stroke-width:1.5;"/>
   </g>
   <g id="line2d_15">
    <path clip-path="url(#pedcd822d35)" d="M 105.41184 112.37628 
L 421.807494 112.37628 
" style="fill:none;stroke:#000000;stroke-dasharray:5.55,2.4;stroke-dashoffset:0;stroke-width:1.5;"/>
   </g>
   <g id="text_14">
    <g id="patch_3">
     <path clip-path="url(#pedcd822d35)" d="M 121.817455 46.553636 
L 197.237455 46.553636 
L 197.237455 18.473636 
L 121.817455 18.473636 
z
" style="fill:#ffffff;stroke:#ffffff;stroke-linejoin:miter;"/>
    </g>
    <g clip-path="url(#pedcd822d35)">
     <!-- $10^{6.5}$ yr -->
     <defs>
      <path d="M 10.6875 12.40625 
L 21 12.40625 
L 21 0 
L 10.6875 0 
z
" id="DejaVuSans-2e"/>
      <path d="M 10.796875 72.90625 
L 49.515625 72.90625 
L 49.515625 64.59375 
L 19.828125 64.59375 
L 19.828125 46.734375 
Q 21.96875 47.46875 24.109375 47.828125 
Q 26.265625 48.1875 28.421875 48.1875 
Q 40.625 48.1875 47.75 41.5 
Q 54.890625 34.8125 54.890625 23.390625 
Q 54.890625 11.625 47.5625 5.09375 
Q 40.234375 -1.421875 26.90625 -1.421875 
Q 22.3125 -1.421875 17.546875 -0.640625 
Q 12.796875 0.140625 7.71875 1.703125 
L 7.71875 11.625 
Q 12.109375 9.234375 16.796875 8.0625 
Q 21.484375 6.890625 26.703125 6.890625 
Q 35.15625 6.890625 40.078125 11.328125 
Q 45.015625 15.765625 45.015625 23.390625 
Q 45.015625 31 40.078125 35.4375 
Q 35.15625 39.890625 26.703125 39.890625 
Q 22.75 39.890625 18.8125 39.015625 
Q 14.890625 38.140625 10.796875 36.28125 
z
" id="DejaVuSans-35"/>
      <path id="DejaVuSans-20"/>
     </defs>
     <g transform="translate(125.777455 38.813636)scale(0.18 -0.18)">
      <use transform="translate(0 0.765625)" xlink:href="#DejaVuSans-31"/>
      <use transform="translate(63.623047 0.765625)" xlink:href="#DejaVuSans-30"/>
      <use transform="translate(128.203125 39.046875)scale(0.7)" xlink:href="#DejaVuSans-36"/>
      <use transform="translate(172.739258 39.046875)scale(0.7)" xlink:href="#DejaVuSans-2e"/>
      <use transform="translate(194.990234 39.046875)scale(0.7)" xlink:href="#DejaVuSans-35"/>
      <use transform="translate(242.260742 0.765625)" xlink:href="#DejaVuSans-20"/>
      <use transform="translate(274.047852 0.765625)" xlink:href="#DejaVuSans-79"/>
      <use transform="translate(333.227539 0.765625)" xlink:href="#DejaVuSans-72"/>
     </g>
    </g>
   </g>
   <g id="text_15">
    <g id="patch_4">
     <path clip-path="url(#pedcd822d35)" d="M 197.990591 69.177452 
L 261.350591 69.177452 
L 261.350591 41.277452 
L 197.990591 41.277452 
z
" style="fill:#ffffff;stroke:#ffffff;stroke-linejoin:miter;"/>
    </g>
    <g clip-path="url(#pedcd822d35)">
     <!-- $10^{7}$ yr -->
     <defs>
      <path d="M 8.203125 72.90625 
L 55.078125 72.90625 
L 55.078125 68.703125 
L 28.609375 0 
L 18.3125 0 
L 43.21875 64.59375 
L 8.203125 64.59375 
z
" id="DejaVuSans-37"/>
     </defs>
     <g transform="translate(201.950591 61.437452)scale(0.18 -0.18)">
      <use transform="translate(0 0.684375)" xlink:href="#DejaVuSans-31"/>
      <use transform="translate(63.623047 0.684375)" xlink:href="#DejaVuSans-30"/>
      <use transform="translate(128.203125 38.965625)scale(0.7)" xlink:href="#DejaVuSans-37"/>
      <use transform="translate(175.473633 0.684375)" xlink:href="#DejaVuSans-20"/>
      <use transform="translate(207.260742 0.684375)" xlink:href="#DejaVuSans-79"/>
      <use transform="translate(266.44043 0.684375)" xlink:href="#DejaVuSans-72"/>
     </g>
    </g>
   </g>
   <g id="text_16">
    <g id="patch_5">
     <path clip-path="url(#pedcd822d35)" d="M 268.133728 100.081107 
L 331.493727 100.081107 
L 331.493727 72.001107 
L 268.133728 72.001107 
z
" style="fill:#ffffff;stroke:#ffffff;stroke-linejoin:miter;"/>
    </g>
    <g clip-path="url(#pedcd822d35)">
     <!-- $10^{8}$ yr -->
     <defs>
      <path d="M 31.78125 34.625 
Q 24.75 34.625 20.71875 30.859375 
Q 16.703125 27.09375 16.703125 20.515625 
Q 16.703125 13.921875 20.71875 10.15625 
Q 24.75 6.390625 31.78125 6.390625 
Q 38.8125 6.390625 42.859375 10.171875 
Q 46.921875 13.96875 46.921875 20.515625 
Q 46.921875 27.09375 42.890625 30.859375 
Q 38.875 34.625 31.78125 34.625 
z
M 21.921875 38.8125 
Q 15.578125 40.375 12.03125 44.71875 
Q 8.5 49.078125 8.5 55.328125 
Q 8.5 64.0625 14.71875 69.140625 
Q 20.953125 74.21875 31.78125 74.21875 
Q 42.671875 74.21875 48.875 69.140625 
Q 55.078125 64.0625 55.078125 55.328125 
Q 55.078125 49.078125 51.53125 44.71875 
Q 48 40.375 41.703125 38.8125 
Q 48.828125 37.15625 52.796875 32.3125 
Q 56.78125 27.484375 56.78125 20.515625 
Q 56.78125 9.90625 50.3125 4.234375 
Q 43.84375 -1.421875 31.78125 -1.421875 
Q 19.734375 -1.421875 13.25 4.234375 
Q 6.78125 9.90625 6.78125 20.515625 
Q 6.78125 27.484375 10.78125 32.3125 
Q 14.796875 37.15625 21.921875 38.8125 
z
M 18.3125 54.390625 
Q 18.3125 48.734375 21.84375 45.5625 
Q 25.390625 42.390625 31.78125 42.390625 
Q 38.140625 42.390625 41.71875 45.5625 
Q 45.3125 48.734375 45.3125 54.390625 
Q 45.3125 60.0625 41.71875 63.234375 
Q 38.140625 66.40625 31.78125 66.40625 
Q 25.390625 66.40625 21.84375 63.234375 
Q 18.3125 60.0625 18.3125 54.390625 
z
" id="DejaVuSans-38"/>
     </defs>
     <g transform="translate(272.093727 92.341107)scale(0.18 -0.18)">
      <use transform="translate(0 0.765625)" xlink:href="#DejaVuSans-31"/>
      <use transform="translate(63.623047 0.765625)" xlink:href="#DejaVuSans-30"/>
      <use transform="translate(128.203125 39.046875)scale(0.7)" xlink:href="#DejaVuSans-38"/>
      <use transform="translate(175.473633 0.765625)" xlink:href="#DejaVuSans-20"/>
      <use transform="translate(207.260742 0.765625)" xlink:href="#DejaVuSans-79"/>
      <use transform="translate(266.44043 0.765625)" xlink:href="#DejaVuSans-72"/>
     </g>
    </g>
   </g>
   <g id="text_17">
    <g id="patch_6">
     <path clip-path="url(#pedcd822d35)" d="M 334.226864 126.41628 
L 405.686864 126.41628 
L 405.686864 98.33628 
L 334.226864 98.33628 
z
" style="fill:#ffffff;stroke:#ffffff;stroke-linejoin:miter;"/>
    </g>
    <g clip-path="url(#pedcd822d35)">
     <!-- $10^{10}$ yr -->
     <g transform="translate(338.186864 118.67628)scale(0.18 -0.18)">
      <use transform="translate(0 0.765625)" xlink:href="#DejaVuSans-31"/>
      <use transform="translate(63.623047 0.765625)" xlink:href="#DejaVuSans-30"/>
      <use transform="translate(128.203125 39.046875)scale(0.7)" xlink:href="#DejaVuSans-31"/>
      <use transform="translate(172.739258 39.046875)scale(0.7)" xlink:href="#DejaVuSans-30"/>
      <use transform="translate(220.009766 0.765625)" xlink:href="#DejaVuSans-20"/>
      <use transform="translate(251.796875 0.765625)" xlink:href="#DejaVuSans-79"/>
      <use transform="translate(310.976562 0.765625)" xlink:href="#DejaVuSans-72"/>
     </g>
    </g>
   </g>
   <g id="patch_7">
    <path d="M 89.384319 280.6 
L 89.384319 20.7 
" style="fill:none;stroke:#000000;stroke-linecap:square;stroke-linejoin:miter;stroke-width:0.8;"/>
   </g>
   <g id="patch_8">
    <path d="M 440.1 280.6 
L 440.1 20.7 
" style="fill:none;stroke:#000000;stroke-linecap:square;stroke-linejoin:miter;stroke-width:0.8;"/>
   </g>
   <g id="patch_9">
    <path d="M 89.384319 280.6 
L 440.1 280.6 
" style="fill:none;stroke:#000000;stroke-linecap:square;stroke-linejoin:miter;stroke-width:0.8;"/>
   </g>
   <g id="patch_10">
    <path d="M 89.384319 20.7 
L 440.1 20.7 
" style="fill:none;stroke:#000000;stroke-linecap:square;stroke-linejoin:miter;stroke-width:0.8;"/>
   </g>
  </g>
 </g>
 <defs>
  <clipPath id="pedcd822d35">
   <rect height="259.9" width="350.715681" x="89.384319" y="20.7"/>
  </clipPath>
 </defs>
</svg>
