<?xml version="1.0" encoding="utf-8" standalone="no"?>
<!DOCTYPE svg PUBLIC "-//W3C//DTD SVG 1.1//EN"
  "http://www.w3.org/Graphics/SVG/1.1/DTD/svg11.dtd">
<!-- Created with matplotlib (http://matplotlib.org/) -->
<svg height="576pt" version="1.1" viewBox="0 0 576 576" width="576pt" xmlns="http://www.w3.org/2000/svg" xmlns:xlink="http://www.w3.org/1999/xlink">
 <defs>
  <style type="text/css">
*{stroke-linecap:butt;stroke-linejoin:round;}
  </style>
 </defs>
 <g id="figure_1">
  <g id="patch_1">
   <path d="M 0 576 
L 576 576 
L 576 0 
L 0 0 
z
" style="fill:#ffffff;"/>
  </g>
  <g id="axes_1">
   <g id="patch_2">
    <path d="M 98.273104 504.52 
L 553.14 504.52 
L 553.14 22.86 
L 98.273104 22.86 
z
" style="fill:#ffffff;"/>
   </g>
   <g id="PathCollection_1">
    <path clip-path="url(#p7418a69005)" d="M 151.714751 318.987534 
C 151.979954 318.987534 152.23433 318.882168 152.421857 318.694641 
C 152.609384 318.507114 152.714751 318.252737 152.714751 317.987534 
C 152.714751 317.722331 152.609384 317.467954 152.421857 317.280427 
C 152.23433 317.0929 151.979954 316.987534 151.714751 316.987534 
C 151.449547 316.987534 151.195171 317.0929 151.007644 317.280427 
C 150.820117 317.467954 150.714751 317.722331 150.714751 317.987534 
C 150.714751 318.252737 150.820117 318.507114 151.007644 318.694641 
C 151.195171 318.882168 151.449547 318.987534 151.714751 318.987534 
z
" style="fill:#ffe4c5;stroke:#ffe4c5;"/>
    <path clip-path="url(#p7418a69005)" d="M 153.154359 315.310563 
C 153.425626 315.310563 153.685818 315.202788 153.877633 315.010973 
C 154.069447 314.819159 154.177223 314.558966 154.177223 314.287699 
C 154.177223 314.016433 154.069447 313.75624 153.877633 313.564425 
C 153.685818 313.372611 153.425626 313.264836 153.154359 313.264836 
C 152.883092 313.264836 152.6229 313.372611 152.431085 313.564425 
C 152.239271 313.75624 152.131495 314.016433 152.131495 314.287699 
C 152.131495 314.558966 152.239271 314.819159 152.431085 315.010973 
C 152.6229 315.202788 152.883092 315.310563 153.154359 315.310563 
z
" style="fill:#ffe9ce;stroke:#ffe9ce;"/>
    <path clip-path="url(#p7418a69005)" d="M 154.64116 311.874384 
C 154.918357 311.874384 155.184239 311.764252 155.380247 311.568244 
C 155.576255 311.372235 155.686387 311.106354 155.686387 310.829156 
C 155.686387 310.551959 155.576255 310.286077 155.380247 310.090069 
C 155.184239 309.894061 154.918357 309.783929 154.64116 309.783929 
C 154.363962 309.783929 154.098081 309.894061 153.902072 310.090069 
C 153.706064 310.286077 153.595932 310.551959 153.595932 310.829156 
C 153.595932 311.106354 153.706064 311.372235 153.902072 311.568244 
C 154.098081 311.764252 154.363962 311.874384 154.64116 311.874384 
z
" style="fill:#ffeed8;stroke:#ffeed8;"/>
    <path clip-path="url(#p7418a69005)" d="M 155.954234 308.398108 
C 156.237393 308.398108 156.508993 308.285608 156.709217 308.085384 
C 156.909441 307.88516 157.021942 307.61356 157.021942 307.3304 
C 157.021942 307.047241 156.909441 306.775641 156.709217 306.575417 
C 156.508993 306.375193 156.237393 306.262693 155.954234 306.262693 
C 155.671075 306.262693 155.399474 306.375193 155.199251 306.575417 
C 154.999027 306.775641 154.886526 307.047241 154.886526 307.3304 
C 154.886526 307.61356 154.999027 307.88516 155.199251 308.085384 
C 155.399474 308.285608 155.671075 308.398108 155.954234 308.398108 
z
" style="fill:#fff2e1;stroke:#fff2e1;"/>
    <path clip-path="url(#p7418a69005)" d="M 157.304123 305.162089 
C 157.592969 305.162089 157.870024 305.047329 158.074269 304.843084 
C 158.278514 304.638839 158.393274 304.361784 158.393274 304.072938 
C 158.393274 303.784092 158.278514 303.507037 158.074269 303.302792 
C 157.870024 303.098547 157.592969 302.983787 157.304123 302.983787 
C 157.015277 302.983787 156.738222 303.098547 156.533977 303.302792 
C 156.329732 303.507037 156.214972 303.784092 156.214972 304.072938 
C 156.214972 304.361784 156.329732 304.638839 156.533977 304.843084 
C 156.738222 305.047329 157.015277 305.162089 157.304123 305.162089 
z
" style="fill:#fff4e8;stroke:#fff4e8;"/>
    <path clip-path="url(#p7418a69005)" d="M 159.638488 298.970338 
C 159.938384 298.970338 160.226038 298.851188 160.438097 298.639129 
C 160.650156 298.42707 160.769306 298.139416 160.769306 297.83952 
C 160.769306 297.539623 160.650156 297.251969 160.438097 297.039911 
C 160.226038 296.827852 159.938384 296.708702 159.638488 296.708702 
C 159.338591 296.708702 159.050937 296.827852 158.838878 297.039911 
C 158.626819 297.251969 158.507669 297.539623 158.507669 297.83952 
C 158.507669 298.139416 158.626819 298.42707 158.838878 298.639129 
C 159.050937 298.851188 159.338591 298.970338 159.638488 298.970338 
z
" style="fill:#fff5ed;stroke:#fff5ed;"/>
    <path clip-path="url(#p7418a69005)" d="M 161.833348 293.099365 
C 162.144044 293.099365 162.442056 292.975925 162.66175 292.75623 
C 162.881445 292.536535 163.004886 292.238523 163.004886 291.927828 
C 163.004886 291.617133 162.881445 291.319121 162.66175 291.099426 
C 162.442056 290.879731 162.144044 290.75629 161.833348 290.75629 
C 161.522653 290.75629 161.224641 290.879731 161.004946 291.099426 
C 160.785251 291.319121 160.661811 291.617133 160.661811 291.927828 
C 160.661811 292.238523 160.785251 292.536535 161.004946 292.75623 
C 161.224641 292.975925 161.522653 293.099365 161.833348 293.099365 
z
" style="fill:#fff7f2;stroke:#fff7f2;"/>
    <path clip-path="url(#p7418a69005)" d="M 164.904952 284.204739 
C 165.235127 284.204739 165.551824 284.073559 165.785293 283.84009 
C 166.018762 283.606621 166.149942 283.289924 166.149942 282.959749 
C 166.149942 282.629574 166.018762 282.312877 165.785293 282.079408 
C 165.551824 281.845939 165.235127 281.714759 164.904952 281.714759 
C 164.574777 281.714759 164.25808 281.845939 164.024611 282.079408 
C 163.791142 282.312877 163.659962 282.629574 163.659962 282.959749 
C 163.659962 283.289924 163.791142 283.606621 164.024611 283.84009 
C 164.25808 284.073559 164.574777 284.204739 164.904952 284.204739 
z
" style="fill:#fdf9fb;stroke:#fdf9fb;"/>
    <path clip-path="url(#p7418a69005)" d="M 167.322646 277.740971 
C 167.666388 277.740971 167.996098 277.604401 168.239161 277.361338 
C 168.482223 277.118276 168.618794 276.788566 168.618794 276.444823 
C 168.618794 276.101081 168.482223 275.771371 168.239161 275.528308 
C 167.996098 275.285246 167.666388 275.148675 167.322646 275.148675 
C 166.978903 275.148675 166.649193 275.285246 166.406131 275.528308 
C 166.163068 275.771371 166.026498 276.101081 166.026498 276.444823 
C 166.026498 276.788566 166.163068 277.118276 166.406131 277.361338 
C 166.649193 277.604401 166.978903 277.740971 167.322646 277.740971 
z
" style="fill:#f8f6ff;stroke:#f8f6ff;"/>
    <path clip-path="url(#p7418a69005)" d="M 170.272935 271.040915 
C 170.631572 271.040915 170.975569 270.898427 171.229164 270.644831 
C 171.482759 270.391236 171.625248 270.047239 171.625248 269.688602 
C 171.625248 269.329964 171.482759 268.985967 171.229164 268.732372 
C 170.975569 268.478777 170.631572 268.336289 170.272935 268.336289 
C 169.914297 268.336289 169.5703 268.478777 169.316705 268.732372 
C 169.06311 268.985967 168.920622 269.329964 168.920622 269.688602 
C 168.920622 270.047239 169.06311 270.391236 169.316705 270.644831 
C 169.5703 270.898427 169.914297 271.040915 170.272935 271.040915 
z
" style="fill:#f0f0ff;stroke:#f0f0ff;"/>
    <path clip-path="url(#p7418a69005)" d="M 174.897306 264.224622 
C 175.272008 264.224622 175.631414 264.075752 175.896368 263.810797 
C 176.161322 263.545843 176.310193 263.186437 176.310193 262.811735 
C 176.310193 262.437033 176.161322 262.077628 175.896368 261.812673 
C 175.631414 261.547719 175.272008 261.398848 174.897306 261.398848 
C 174.522604 261.398848 174.163198 261.547719 173.898244 261.812673 
C 173.63329 262.077628 173.484419 262.437033 173.484419 262.811735 
C 173.484419 263.186437 173.63329 263.545843 173.898244 263.810797 
C 174.163198 264.075752 174.522604 264.224622 174.897306 264.224622 
z
" style="fill:#e4e8ff;stroke:#e4e8ff;"/>
    <path clip-path="url(#p7418a69005)" d="M 180.698632 257.452415 
C 181.090424 257.452415 181.466222 257.296754 181.743261 257.019715 
C 182.0203 256.742676 182.175961 256.366878 182.175961 255.975086 
C 182.175961 255.583294 182.0203 255.207496 181.743261 254.930457 
C 181.466222 254.653418 181.090424 254.497757 180.698632 254.497757 
C 180.30684 254.497757 179.931042 254.653418 179.654003 254.930457 
C 179.376964 255.207496 179.221303 255.583294 179.221303 255.975086 
C 179.221303 256.366878 179.376964 256.742676 179.654003 257.019715 
C 179.931042 257.296754 180.30684 257.452415 180.698632 257.452415 
z
" style="fill:#d5dfff;stroke:#d5dfff;"/>
    <path clip-path="url(#p7418a69005)" d="M 186.094394 251.522035 
C 186.502562 251.522035 186.894066 251.359868 187.182684 251.07125 
C 187.471302 250.782632 187.633469 250.391128 187.633469 249.98296 
C 187.633469 249.574793 187.471302 249.183288 187.182684 248.89467 
C 186.894066 248.606052 186.502562 248.443886 186.094394 248.443886 
C 185.686227 248.443886 185.294722 248.606052 185.006104 248.89467 
C 184.717486 249.183288 184.55532 249.574793 184.55532 249.98296 
C 184.55532 250.391128 184.717486 250.782632 185.006104 251.07125 
C 185.294722 251.359868 185.686227 251.522035 186.094394 251.522035 
z
" style="fill:#c8d6ff;stroke:#c8d6ff;"/>
    <path clip-path="url(#p7418a69005)" d="M 191.889427 245.595129 
C 192.31489 245.595129 192.722984 245.426091 193.023832 245.125243 
C 193.32468 244.824395 193.493718 244.416301 193.493718 243.990838 
C 193.493718 243.565375 193.32468 243.157281 193.023832 242.856433 
C 192.722984 242.555585 192.31489 242.386547 191.889427 242.386547 
C 191.463964 242.386547 191.05587 242.555585 190.755022 242.856433 
C 190.454174 243.157281 190.285136 243.565375 190.285136 243.990838 
C 190.285136 244.416301 190.454174 244.824395 190.755022 245.125243 
C 191.05587 245.426091 191.463964 245.595129 191.889427 245.595129 
z
" style="fill:#bed0ff;stroke:#bed0ff;"/>
    <path clip-path="url(#p7418a69005)" d="M 204.351724 233.674729 
C 204.81545 233.674729 205.260246 233.490488 205.58815 233.162584 
C 205.916054 232.83468 206.100295 232.389884 206.100295 231.926158 
C 206.100295 231.462432 205.916054 231.017636 205.58815 230.689732 
C 205.260246 230.361828 204.81545 230.177587 204.351724 230.177587 
C 203.887997 230.177587 203.443202 230.361828 203.115298 230.689732 
C 202.787393 231.017636 202.603153 231.462432 202.603153 231.926158 
C 202.603153 232.389884 202.787393 232.83468 203.115298 233.162584 
C 203.443202 233.490488 203.887997 233.674729 204.351724 233.674729 
z
" style="fill:#b9cbff;stroke:#b9cbff;"/>
    <path clip-path="url(#p7418a69005)" d="M 226.31761 214.326104 
C 226.854687 214.326104 227.369839 214.112721 227.74961 213.73295 
C 228.129381 213.353179 228.342764 212.838027 228.342764 212.300949 
C 228.342764 211.763872 228.129381 211.24872 227.74961 210.868949 
C 227.369839 210.489178 226.854687 210.275795 226.31761 210.275795 
C 225.780532 210.275795 225.26538 210.489178 224.885609 210.868949 
C 224.505838 211.24872 224.292455 211.763872 224.292455 212.300949 
C 224.292455 212.838027 224.505838 213.353179 224.885609 213.73295 
C 225.26538 214.112721 225.780532 214.326104 226.31761 214.326104 
z
" style="fill:#b7c9ff;stroke:#b7c9ff;"/>
    <path clip-path="url(#p7418a69005)" d="M 251.945462 194.758808 
C 252.572557 194.758808 253.174051 194.50966 253.617474 194.066237 
C 254.060897 193.622815 254.310044 193.02132 254.310044 192.394225 
C 254.310044 191.767131 254.060897 191.165636 253.617474 190.722213 
C 253.174051 190.27879 252.572557 190.029643 251.945462 190.029643 
C 251.318368 190.029643 250.716873 190.27879 250.27345 190.722213 
C 249.830027 191.165636 249.58088 191.767131 249.58088 192.394225 
C 249.58088 193.02132 249.830027 193.622815 250.27345 194.066237 
C 250.716873 194.50966 251.318368 194.758808 251.945462 194.758808 
z
" style="fill:#b3c7ff;stroke:#b3c7ff;"/>
    <path clip-path="url(#p7418a69005)" d="M 273.68679 180.457029 
C 274.392511 180.457029 275.069424 180.176643 275.568444 179.677622 
C 276.067465 179.178601 276.347851 178.501689 276.347851 177.795967 
C 276.347851 177.090245 276.067465 176.413333 275.568444 175.914312 
C 275.069424 175.415292 274.392511 175.134905 273.68679 175.134905 
C 272.981068 175.134905 272.304155 175.415292 271.805135 175.914312 
C 271.306114 176.413333 271.025728 177.090245 271.025728 177.795967 
C 271.025728 178.501689 271.306114 179.178601 271.805135 179.677622 
C 272.304155 180.176643 272.981068 180.457029 273.68679 180.457029 
z
" style="fill:#b0c4ff;stroke:#b0c4ff;"/>
    <path clip-path="url(#p7418a69005)" d="M 292.649869 168.940468 
C 293.426296 168.940468 294.171027 168.63199 294.720044 168.082973 
C 295.269061 167.533957 295.577538 166.789225 295.577538 166.012798 
C 295.577538 165.236371 295.269061 164.49164 294.720044 163.942623 
C 294.171027 163.393606 293.426296 163.085129 292.649869 163.085129 
C 291.873442 163.085129 291.12871 163.393606 290.579694 163.942623 
C 290.030677 164.49164 289.722199 165.236371 289.722199 166.012798 
C 289.722199 166.789225 290.030677 167.533957 290.579694 168.082973 
C 291.12871 168.63199 291.873442 168.940468 292.649869 168.940468 
z
" style="fill:#adc1ff;stroke:#adc1ff;"/>
    <path clip-path="url(#p7418a69005)" d="M 309.091139 159.613428 
C 309.932349 159.613428 310.739219 159.279211 311.334044 158.684386 
C 311.92887 158.08956 312.263086 157.282691 312.263086 156.44148 
C 312.263086 155.60027 311.92887 154.7934 311.334044 154.198575 
C 310.739219 153.603749 309.932349 153.269533 309.091139 153.269533 
C 308.249929 153.269533 307.443059 153.603749 306.848233 154.198575 
C 306.253408 154.7934 305.919192 155.60027 305.919192 156.44148 
C 305.919192 157.282691 306.253408 158.08956 306.848233 158.684386 
C 307.443059 159.279211 308.249929 159.613428 309.091139 159.613428 
z
" style="fill:#aabfff;stroke:#aabfff;"/>
    <path clip-path="url(#p7418a69005)" d="M 323.986678 151.676251 
C 324.887979 151.676251 325.752486 151.318161 326.389801 150.680845 
C 327.027117 150.043529 327.385208 149.179022 327.385208 148.277722 
C 327.385208 147.376422 327.027117 146.511915 326.389801 145.874599 
C 325.752486 145.237283 324.887979 144.879193 323.986678 144.879193 
C 323.085378 144.879193 322.220871 145.237283 321.583556 145.874599 
C 320.94624 146.511915 320.588149 147.376422 320.588149 148.277722 
C 320.588149 149.179022 320.94624 150.043529 321.583556 150.680845 
C 322.220871 151.318161 323.085378 151.676251 323.986678 151.676251 
z
" style="fill:#a8bdff;stroke:#a8bdff;"/>
    <path clip-path="url(#p7418a69005)" d="M 337.326154 144.891127 
C 338.283781 144.891127 339.202316 144.510657 339.879461 143.833513 
C 340.556606 143.156368 340.937075 142.237833 340.937075 141.280206 
C 340.937075 140.322579 340.556606 139.404044 339.879461 138.726899 
C 339.202316 138.049754 338.283781 137.669285 337.326154 137.669285 
C 336.368527 137.669285 335.449992 138.049754 334.772847 138.726899 
C 334.095703 139.404044 333.715233 140.322579 333.715233 141.280206 
C 333.715233 142.237833 334.095703 143.156368 334.772847 143.833513 
C 335.449992 144.510657 336.368527 144.891127 337.326154 144.891127 
z
" style="fill:#a7bcff;stroke:#a7bcff;"/>
    <path clip-path="url(#p7418a69005)" d="M 349.810738 138.73731 
C 350.821471 138.73731 351.790944 138.335741 352.50564 137.621045 
C 353.220337 136.906348 353.621906 135.936876 353.621906 134.926142 
C 353.621906 133.915409 353.220337 132.945936 352.50564 132.23124 
C 351.790944 131.516543 350.821471 131.114975 349.810738 131.114975 
C 348.800004 131.114975 347.830532 131.516543 347.115835 132.23124 
C 346.401139 132.945936 345.99957 133.915409 345.99957 134.926142 
C 345.99957 135.936876 346.401139 136.906348 347.115835 137.621045 
C 347.830532 138.335741 348.800004 138.73731 349.810738 138.73731 
z
" style="fill:#a6bcff;stroke:#a6bcff;"/>
    <path clip-path="url(#p7418a69005)" d="M 361.21765 133.41754 
C 362.278711 133.41754 363.296456 132.995976 364.04674 132.245693 
C 364.797023 131.495409 365.218587 130.477664 365.218587 129.416603 
C 365.218587 128.355542 364.797023 127.337796 364.04674 126.587513 
C 363.296456 125.837229 362.278711 125.415665 361.21765 125.415665 
C 360.156589 125.415665 359.138843 125.837229 358.38856 126.587513 
C 357.638276 127.337796 357.216712 128.355542 357.216712 129.416603 
C 357.216712 130.477664 357.638276 131.495409 358.38856 132.245693 
C 359.138843 132.995976 360.156589 133.41754 361.21765 133.41754 
z
" style="fill:#a6bbff;stroke:#a6bbff;"/>
    <path clip-path="url(#p7418a69005)" d="M 371.335358 128.611373 
C 372.444307 128.611373 373.507985 128.170783 374.292131 127.386638 
C 375.076276 126.602493 375.516866 125.538815 375.516866 124.429866 
C 375.516866 123.320917 375.076276 122.257239 374.292131 121.473094 
C 373.507985 120.688949 372.444307 120.248359 371.335358 120.248359 
C 370.22641 120.248359 369.162732 120.688949 368.378586 121.473094 
C 367.594441 122.257239 367.153851 123.320917 367.153851 124.429866 
C 367.153851 125.538815 367.594441 126.602493 368.378586 127.386638 
C 369.162732 128.170783 370.22641 128.611373 371.335358 128.611373 
z
" style="fill:#a5bbff;stroke:#a5bbff;"/>
    <path clip-path="url(#p7418a69005)" d="M 380.597454 124.199603 
C 381.75223 124.199603 382.859865 123.740805 383.676415 122.924255 
C 384.492965 122.107705 384.951762 121.00007 384.951762 119.845294 
C 384.951762 118.690518 384.492965 117.582884 383.676415 116.766334 
C 382.859865 115.949784 381.75223 115.490986 380.597454 115.490986 
C 379.442678 115.490986 378.335043 115.949784 377.518493 116.766334 
C 376.701943 117.582884 376.243146 118.690518 376.243146 119.845294 
C 376.243146 121.00007 376.701943 122.107705 377.518493 122.924255 
C 378.335043 123.740805 379.442678 124.199603 380.597454 124.199603 
z
" style="fill:#a4baff;stroke:#a4baff;"/>
    <path clip-path="url(#p7418a69005)" d="M 388.887555 120.384598 
C 390.086444 120.384598 391.236392 119.908274 392.084135 119.060531 
C 392.931878 118.212788 393.408202 117.062841 393.408202 115.863951 
C 393.408202 114.665061 392.931878 113.515114 392.084135 112.667371 
C 391.236392 111.819628 390.086444 111.343304 388.887555 111.343304 
C 387.688665 111.343304 386.538718 111.819628 385.690975 112.667371 
C 384.843232 113.515114 384.366908 114.665061 384.366908 115.863951 
C 384.366908 117.062841 384.843232 118.212788 385.690975 119.060531 
C 386.538718 119.908274 387.688665 120.384598 388.887555 120.384598 
z
" style="fill:#a4baff;stroke:#a4baff;"/>
    <path clip-path="url(#p7418a69005)" d="M 396.763431 116.804715 
C 398.004796 116.804715 399.195486 116.311515 400.073264 115.433736 
C 400.951043 114.555958 401.444242 113.365268 401.444242 112.123903 
C 401.444242 110.882537 400.951043 109.691847 400.073264 108.814069 
C 399.195486 107.936291 398.004796 107.443091 396.763431 107.443091 
C 395.522065 107.443091 394.331375 107.936291 393.453597 108.814069 
C 392.575819 109.691847 392.082619 110.882537 392.082619 112.123903 
C 392.082619 113.365268 392.575819 114.555958 393.453597 115.433736 
C 394.331375 116.311515 395.522065 116.804715 396.763431 116.804715 
z
" style="fill:#a3baff;stroke:#a3baff;"/>
    <path clip-path="url(#p7418a69005)" d="M 404.176723 113.420207 
C 405.459056 113.420207 406.689041 112.91073 407.595787 112.003984 
C 408.502533 111.097237 409.01201 109.867253 409.01201 108.584919 
C 409.01201 107.302586 408.502533 106.072602 407.595787 105.165855 
C 406.689041 104.259109 405.459056 103.749632 404.176723 103.749632 
C 402.89439 103.749632 401.664405 104.259109 400.757658 105.165855 
C 399.850912 106.072602 399.341436 107.302586 399.341436 108.584919 
C 399.341436 109.867253 399.850912 111.097237 400.757658 112.003984 
C 401.664405 112.91073 402.89439 113.420207 404.176723 113.420207 
z
" style="fill:#a3b9ff;stroke:#a3b9ff;"/>
    <path clip-path="url(#p7418a69005)" d="M 411.080675 110.231762 
C 412.402639 110.231762 413.670638 109.70654 414.605408 108.77177 
C 415.540179 107.836999 416.065401 106.569001 416.065401 105.247036 
C 416.065401 103.925071 415.540179 102.657072 414.605408 101.722302 
C 413.670638 100.787532 412.402639 100.262309 411.080675 100.262309 
C 409.75871 100.262309 408.490711 100.787532 407.555941 101.722302 
C 406.62117 102.657072 406.095948 103.925071 406.095948 105.247036 
C 406.095948 106.569001 406.62117 107.836999 407.555941 108.77177 
C 408.490711 109.70654 409.75871 110.231762 411.080675 110.231762 
z
" style="fill:#a2b9ff;stroke:#a2b9ff;"/>
    <path clip-path="url(#p7418a69005)" d="M 416.719523 107.438555 
C 418.079287 107.438555 419.383542 106.898315 420.34504 105.936817 
C 421.306539 104.975319 421.846779 103.671064 421.846779 102.3113 
C 421.846779 100.951536 421.306539 99.647281 420.34504 98.685783 
C 419.383542 97.724284 418.079287 97.184044 416.719523 97.184044 
C 415.359759 97.184044 414.055505 97.724284 413.094006 98.685783 
C 412.132508 99.647281 411.592268 100.951536 411.592268 102.3113 
C 411.592268 103.671064 412.132508 104.975319 413.094006 105.936817 
C 414.055505 106.898315 415.359759 107.438555 416.719523 107.438555 
z
" style="fill:#a2b9ff;stroke:#a2b9ff;"/>
    <path clip-path="url(#p7418a69005)" d="M 421.739517 104.841604 
C 423.135805 104.841604 424.475094 104.286853 425.462419 103.299528 
C 426.449744 102.312203 427.004496 100.972914 427.004496 99.576626 
C 427.004496 98.180337 426.449744 96.841048 425.462419 95.853723 
C 424.475094 94.866398 423.135805 94.311647 421.739517 94.311647 
C 420.343228 94.311647 419.00394 94.866398 418.016614 95.853723 
C 417.029289 96.841048 416.474538 98.180337 416.474538 99.576626 
C 416.474538 100.972914 417.029289 102.312203 418.016614 103.299528 
C 419.00394 104.286853 420.343228 104.841604 421.739517 104.841604 
z
" style="fill:#a2b9ff;stroke:#a2b9ff;"/>
    <path clip-path="url(#p7418a69005)" d="M 426.841017 102.320778 
C 428.272684 102.320778 429.645906 101.75197 430.658248 100.739629 
C 431.670589 99.727287 432.239396 98.354065 432.239396 96.922398 
C 432.239396 95.490731 431.670589 94.117509 430.658248 93.105168 
C 429.645906 92.092826 428.272684 91.524019 426.841017 91.524019 
C 425.40935 91.524019 424.036128 92.092826 423.023786 93.105168 
C 422.011445 94.117509 421.442638 95.490731 421.442638 96.922398 
C 421.442638 98.354065 422.011445 99.727287 423.023786 100.739629 
C 424.036128 101.75197 425.40935 102.320778 426.841017 102.320778 
z
" style="fill:#a1b8ff;stroke:#a1b8ff;"/>
    <path clip-path="url(#p7418a69005)" d="M 431.279757 99.916484 
C 432.745709 99.916484 434.151817 99.334055 435.188402 98.297471 
C 436.224986 97.260886 436.807415 95.854778 436.807415 94.388826 
C 436.807415 92.922874 436.224986 91.516766 435.188402 90.480182 
C 434.151817 89.443597 432.745709 88.861168 431.279757 88.861168 
C 429.813805 88.861168 428.407697 89.443597 427.371113 90.480182 
C 426.334528 91.516766 425.752099 92.922874 425.752099 94.388826 
C 425.752099 95.854778 426.334528 97.260886 427.371113 98.297471 
C 428.407697 99.334055 429.813805 99.916484 431.279757 99.916484 
z
" style="fill:#a1b8ff;stroke:#a1b8ff;"/>
   </g>
   <g id="PathCollection_2">
    <path clip-path="url(#p7418a69005)" d="M 119.034921 482.914859 
C 119.128685 482.914859 119.218621 482.877607 119.284921 482.811306 
C 119.351222 482.745005 119.388475 482.65507 119.388475 482.561306 
C 119.388475 482.467543 119.351222 482.377607 119.284921 482.311306 
C 119.218621 482.245005 119.128685 482.207753 119.034921 482.207753 
C 118.941158 482.207753 118.851222 482.245005 118.784921 482.311306 
C 118.718621 482.377607 118.681368 482.467543 118.681368 482.561306 
C 118.681368 482.65507 118.718621 482.745005 118.784921 482.811306 
C 118.851222 482.877607 118.941158 482.914859 119.034921 482.914859 
z
" style="fill:#9b3921;stroke:#9b3921;"/>
    <path clip-path="url(#p7418a69005)" d="M 119.351794 479.55658 
C 119.447568 479.55658 119.539432 479.518528 119.607155 479.450806 
C 119.674878 479.383083 119.712929 479.291218 119.712929 479.195444 
C 119.712929 479.09967 119.674878 479.007805 119.607155 478.940083 
C 119.539432 478.87236 119.447568 478.834309 119.351794 478.834309 
C 119.256019 478.834309 119.164155 478.87236 119.096432 478.940083 
C 119.02871 479.007805 118.990658 479.09967 118.990658 479.195444 
C 118.990658 479.291218 119.02871 479.383083 119.096432 479.450806 
C 119.164155 479.518528 119.256019 479.55658 119.351794 479.55658 
z
" style="fill:#9f3b22;stroke:#9f3b22;"/>
    <path clip-path="url(#p7418a69005)" d="M 119.677581 476.198463 
C 119.775409 476.198463 119.869244 476.159595 119.938419 476.09042 
C 120.007594 476.021245 120.046461 475.927411 120.046461 475.829582 
C 120.046461 475.731754 120.007594 475.63792 119.938419 475.568745 
C 119.869244 475.49957 119.775409 475.460702 119.677581 475.460702 
C 119.579753 475.460702 119.485918 475.49957 119.416743 475.568745 
C 119.347568 475.63792 119.308701 475.731754 119.308701 475.829582 
C 119.308701 475.927411 119.347568 476.021245 119.416743 476.09042 
C 119.485918 476.159595 119.579753 476.198463 119.677581 476.198463 
z
" style="fill:#a43d24;stroke:#a43d24;"/>
    <path clip-path="url(#p7418a69005)" d="M 120.012534 472.840512 
C 120.11246 472.840512 120.208307 472.800811 120.278966 472.730152 
C 120.349624 472.659494 120.389325 472.563647 120.389325 472.463721 
C 120.389325 472.363794 120.349624 472.267947 120.278966 472.197289 
C 120.208307 472.126631 120.11246 472.086929 120.012534 472.086929 
C 119.912608 472.086929 119.816761 472.126631 119.746102 472.197289 
C 119.675444 472.267947 119.635743 472.363794 119.635743 472.463721 
C 119.635743 472.563647 119.675444 472.659494 119.746102 472.730152 
C 119.816761 472.800811 119.912608 472.840512 120.012534 472.840512 
z
" style="fill:#a94025;stroke:#a94025;"/>
    <path clip-path="url(#p7418a69005)" d="M 120.356911 469.48273 
C 120.45898 469.48273 120.556883 469.442178 120.629056 469.370004 
C 120.70123 469.29783 120.741783 469.199928 120.741783 469.097859 
C 120.741783 468.99579 120.70123 468.897887 120.629056 468.825713 
C 120.556883 468.75354 120.45898 468.712987 120.356911 468.712987 
C 120.254842 468.712987 120.15694 468.75354 120.084766 468.825713 
C 120.012592 468.897887 119.97204 468.99579 119.97204 469.097859 
C 119.97204 469.199928 120.012592 469.29783 120.084766 469.370004 
C 120.15694 469.442178 120.254842 469.48273 120.356911 469.48273 
z
" style="fill:#ae4227;stroke:#ae4227;"/>
    <path clip-path="url(#p7418a69005)" d="M 120.710977 466.125122 
C 120.815235 466.125122 120.915237 466.0837 120.988959 466.009978 
C 121.06268 465.936257 121.104102 465.836255 121.104102 465.731997 
C 121.104102 465.627739 121.06268 465.527737 120.988959 465.454015 
C 120.915237 465.380294 120.815235 465.338871 120.710977 465.338871 
C 120.606719 465.338871 120.506717 465.380294 120.432996 465.454015 
C 120.359274 465.527737 120.317852 465.627739 120.317852 465.731997 
C 120.317852 465.836255 120.359274 465.936257 120.432996 466.009978 
C 120.506717 466.0837 120.606719 466.125122 120.710977 466.125122 
z
" style="fill:#b34528;stroke:#b34528;"/>
    <path clip-path="url(#p7418a69005)" d="M 121.075005 462.767691 
C 121.181499 462.767691 121.283645 462.725381 121.358948 462.650078 
C 121.43425 462.574775 121.476561 462.472629 121.476561 462.366135 
C 121.476561 462.259641 121.43425 462.157495 121.358948 462.082192 
C 121.283645 462.006889 121.181499 461.964579 121.075005 461.964579 
C 120.968511 461.964579 120.866364 462.006889 120.791062 462.082192 
C 120.715759 462.157495 120.673449 462.259641 120.673449 462.366135 
C 120.673449 462.472629 120.715759 462.574775 120.791062 462.650078 
C 120.866364 462.725381 120.968511 462.767691 121.075005 462.767691 
z
" style="fill:#b8472a;stroke:#b8472a;"/>
    <path clip-path="url(#p7418a69005)" d="M 121.449274 459.410441 
C 121.558052 459.410441 121.662389 459.367223 121.739307 459.290305 
C 121.816224 459.213388 121.859442 459.109051 121.859442 459.000273 
C 121.859442 458.891495 121.816224 458.787158 121.739307 458.710241 
C 121.662389 458.633323 121.558052 458.590105 121.449274 458.590105 
C 121.340496 458.590105 121.236159 458.633323 121.159242 458.710241 
C 121.082324 458.787158 121.039107 458.891495 121.039107 459.000273 
C 121.039107 459.109051 121.082324 459.213388 121.159242 459.290305 
C 121.236159 459.367223 121.340496 459.410441 121.449274 459.410441 
z
" style="fill:#be4a2b;stroke:#be4a2b;"/>
    <path clip-path="url(#p7418a69005)" d="M 121.834074 456.053375 
C 121.945184 456.053375 122.051759 456.009231 122.130326 455.930664 
C 122.208893 455.852097 122.253038 455.745522 122.253038 455.634411 
C 122.253038 455.523301 122.208893 455.416726 122.130326 455.338159 
C 122.051759 455.259592 121.945184 455.215447 121.834074 455.215447 
C 121.722963 455.215447 121.616388 455.259592 121.537821 455.338159 
C 121.459254 455.416726 121.41511 455.523301 121.41511 455.634411 
C 121.41511 455.745522 121.459254 455.852097 121.537821 455.930664 
C 121.616388 456.009231 121.722963 456.053375 121.834074 456.053375 
z
" style="fill:#c34d2d;stroke:#c34d2d;"/>
    <path clip-path="url(#p7418a69005)" d="M 122.229699 452.696498 
C 122.343193 452.696498 122.452053 452.651407 122.532305 452.571155 
C 122.612557 452.490903 122.657648 452.382043 122.657648 452.268549 
C 122.657648 452.155056 122.612557 452.046196 122.532305 451.965944 
C 122.452053 451.885692 122.343193 451.840601 122.229699 451.840601 
C 122.116206 451.840601 122.007346 451.885692 121.927094 451.965944 
C 121.846842 452.046196 121.801751 452.155056 121.801751 452.268549 
C 121.801751 452.382043 121.846842 452.490903 121.927094 452.571155 
C 122.007346 452.651407 122.116206 452.696498 122.229699 452.696498 
z
" style="fill:#ca502f;stroke:#ca502f;"/>
    <path clip-path="url(#p7418a69005)" d="M 122.636456 449.339814 
C 122.752383 449.339814 122.863578 449.293756 122.945551 449.211783 
C 123.027524 449.12981 123.073582 449.018615 123.073582 448.902688 
C 123.073582 448.78676 123.027524 448.675566 122.945551 448.593593 
C 122.863578 448.51162 122.752383 448.465561 122.636456 448.465561 
C 122.520529 448.465561 122.409334 448.51162 122.327361 448.593593 
C 122.245388 448.675566 122.199329 448.78676 122.199329 448.902688 
C 122.199329 449.018615 122.245388 449.12981 122.327361 449.211783 
C 122.409334 449.293756 122.520529 449.339814 122.636456 449.339814 
z
" style="fill:#d05331;stroke:#d05331;"/>
    <path clip-path="url(#p7418a69005)" d="M 123.054656 445.983327 
C 123.17307 445.983327 123.286649 445.93628 123.37038 445.852549 
C 123.454111 445.768819 123.501157 445.655239 123.501157 445.536826 
C 123.501157 445.418412 123.454111 445.304833 123.37038 445.221102 
C 123.286649 445.137371 123.17307 445.090325 123.054656 445.090325 
C 122.936243 445.090325 122.822664 445.137371 122.738933 445.221102 
C 122.655202 445.304833 122.608156 445.418412 122.608156 445.536826 
C 122.608156 445.655239 122.655202 445.768819 122.738933 445.852549 
C 122.822664 445.93628 122.936243 445.983327 123.054656 445.983327 
z
" style="fill:#d65733;stroke:#d65733;"/>
    <path clip-path="url(#p7418a69005)" d="M 123.484623 442.62704 
C 123.605576 442.62704 123.721591 442.578985 123.807118 442.493459 
C 123.892644 442.407932 123.940699 442.291917 123.940699 442.170964 
C 123.940699 442.050011 123.892644 441.933996 123.807118 441.848469 
C 123.721591 441.762943 123.605576 441.714888 123.484623 441.714888 
C 123.36367 441.714888 123.247655 441.762943 123.162128 441.848469 
C 123.076602 441.933996 123.028547 442.050011 123.028547 442.170964 
C 123.028547 442.291917 123.076602 442.407932 123.162128 442.493459 
C 123.247655 442.578985 123.36367 442.62704 123.484623 442.62704 
z
" style="fill:#dd5a35;stroke:#dd5a35;"/>
    <path clip-path="url(#p7418a69005)" d="M 123.926687 439.270959 
C 124.050233 439.270959 124.168737 439.221873 124.256097 439.134513 
C 124.343458 439.047152 124.392544 438.928649 124.392544 438.805102 
C 124.392544 438.681555 124.343458 438.563052 124.256097 438.475691 
C 124.168737 438.388331 124.050233 438.339245 123.926687 438.339245 
C 123.80314 438.339245 123.684637 438.388331 123.597276 438.475691 
C 123.509915 438.563052 123.46083 438.681555 123.46083 438.805102 
C 123.46083 438.928649 123.509915 439.047152 123.597276 439.134513 
C 123.684637 439.221873 123.80314 439.270959 123.926687 439.270959 
z
" style="fill:#e55e37;stroke:#e55e37;"/>
    <path clip-path="url(#p7418a69005)" d="M 124.381188 435.915088 
C 124.507384 435.915088 124.628428 435.864949 124.717663 435.775715 
C 124.806897 435.686481 124.857035 435.565436 124.857035 435.43924 
C 124.857035 435.313044 124.806897 435.191999 124.717663 435.102765 
C 124.628428 435.013531 124.507384 434.963393 124.381188 434.963393 
C 124.254991 434.963393 124.133947 435.013531 124.044713 435.102765 
C 123.955478 435.191999 123.90534 435.313044 123.90534 435.43924 
C 123.90534 435.565436 123.955478 435.686481 124.044713 435.775715 
C 124.133947 435.864949 124.254991 435.915088 124.381188 435.915088 
z
" style="fill:#ec6239;stroke:#ec6239;"/>
    <path clip-path="url(#p7418a69005)" d="M 124.848476 432.559431 
C 124.977378 432.559431 125.101019 432.508217 125.192167 432.417069 
C 125.283315 432.325921 125.334528 432.202281 125.334528 432.073378 
C 125.334528 431.944476 125.283315 431.820835 125.192167 431.729687 
C 125.101019 431.63854 124.977378 431.587326 124.848476 431.587326 
C 124.719573 431.587326 124.595933 431.63854 124.504785 431.729687 
C 124.413637 431.820835 124.362423 431.944476 124.362423 432.073378 
C 124.362423 432.202281 124.413637 432.325921 124.504785 432.417069 
C 124.595933 432.508217 124.719573 432.559431 124.848476 432.559431 
z
" style="fill:#f4653c;stroke:#f4653c;"/>
    <path clip-path="url(#p7418a69005)" d="M 125.328911 429.203993 
C 125.460578 429.203993 125.58687 429.151681 125.679973 429.058578 
C 125.773075 428.965475 125.825387 428.839183 125.825387 428.707517 
C 125.825387 428.57585 125.773075 428.449558 125.679973 428.356455 
C 125.58687 428.263352 125.460578 428.211041 125.328911 428.211041 
C 125.197244 428.211041 125.070952 428.263352 124.97785 428.356455 
C 124.884747 428.449558 124.832435 428.57585 124.832435 428.707517 
C 124.832435 428.839183 124.884747 428.965475 124.97785 429.058578 
C 125.070952 429.151681 125.197244 429.203993 125.328911 429.203993 
z
" style="fill:#fc6a3e;stroke:#fc6a3e;"/>
    <path clip-path="url(#p7418a69005)" d="M 125.822863 425.848778 
C 125.957354 425.848778 126.086354 425.795344 126.181454 425.700245 
C 126.276553 425.605146 126.329987 425.476145 126.329987 425.341655 
C 126.329987 425.207164 126.276553 425.078164 126.181454 424.983064 
C 126.086354 424.887965 125.957354 424.834531 125.822863 424.834531 
C 125.688373 424.834531 125.559372 424.887965 125.464273 424.983064 
C 125.369174 425.078164 125.31574 425.207164 125.31574 425.341655 
C 125.31574 425.476145 125.369174 425.605146 125.464273 425.700245 
C 125.559372 425.795344 125.688373 425.848778 125.822863 425.848778 
z
" style="fill:#ff6f42;stroke:#ff6f42;"/>
    <path clip-path="url(#p7418a69005)" d="M 126.330713 422.493792 
C 126.468088 422.493792 126.599855 422.439212 126.696993 422.342073 
C 126.794132 422.244935 126.848712 422.113168 126.848712 421.975793 
C 126.848712 421.838418 126.794132 421.706651 126.696993 421.609512 
C 126.599855 421.512374 126.468088 421.457794 126.330713 421.457794 
C 126.193338 421.457794 126.061571 421.512374 125.964432 421.609512 
C 125.867294 421.706651 125.812714 421.838418 125.812714 421.975793 
C 125.812714 422.113168 125.867294 422.244935 125.964432 422.342073 
C 126.061571 422.439212 126.193338 422.493792 126.330713 422.493792 
z
" style="fill:#ff7546;stroke:#ff7546;"/>
    <path clip-path="url(#p7418a69005)" d="M 126.852851 419.139038 
C 126.993172 419.139038 127.127764 419.083288 127.226986 418.984066 
C 127.326208 418.884845 127.381958 418.750252 127.381958 418.609931 
C 127.381958 418.46961 127.326208 418.335017 127.226986 418.235796 
C 127.127764 418.136574 126.993172 418.080824 126.852851 418.080824 
C 126.71253 418.080824 126.577937 418.136574 126.478715 418.235796 
C 126.379493 418.335017 126.323743 418.46961 126.323743 418.609931 
C 126.323743 418.750252 126.379493 418.884845 126.478715 418.984066 
C 126.577937 419.083288 126.71253 419.139038 126.852851 419.139038 
z
" style="fill:#ff7c4b;stroke:#ff7c4b;"/>
    <path clip-path="url(#p7418a69005)" d="M 127.389679 415.784524 
C 127.533009 415.784524 127.670488 415.727578 127.771838 415.626228 
C 127.873187 415.524878 127.930133 415.387399 127.930133 415.244069 
C 127.930133 415.100739 127.873187 414.96326 127.771838 414.86191 
C 127.670488 414.76056 127.533009 414.703615 127.389679 414.703615 
C 127.246348 414.703615 127.108869 414.76056 127.00752 414.86191 
C 126.90617 414.96326 126.849224 415.100739 126.849224 415.244069 
C 126.849224 415.387399 126.90617 415.524878 127.00752 415.626228 
C 127.108869 415.727578 127.246348 415.784524 127.389679 415.784524 
z
" style="fill:#ff8350;stroke:#ff8350;"/>
    <path clip-path="url(#p7418a69005)" d="M 127.94161 412.430252 
C 128.088014 412.430252 128.228441 412.372085 128.331965 412.268562 
C 128.435488 412.165039 128.493655 412.024611 128.493655 411.878207 
C 128.493655 411.731803 128.435488 411.591376 128.331965 411.487853 
C 128.228441 411.384329 128.088014 411.326163 127.94161 411.326163 
C 127.795206 411.326163 127.654779 411.384329 127.551255 411.487853 
C 127.447732 411.591376 127.389565 411.731803 127.389565 411.878207 
C 127.389565 412.024611 127.447732 412.165039 127.551255 412.268562 
C 127.654779 412.372085 127.795206 412.430252 127.94161 412.430252 
z
" style="fill:#ff8a55;stroke:#ff8a55;"/>
    <path clip-path="url(#p7418a69005)" d="M 128.50907 409.076229 
C 128.658614 409.076229 128.802053 409.016815 128.907796 408.911071 
C 129.013539 408.805328 129.072954 408.661889 129.072954 408.512345 
C 129.072954 408.362802 129.013539 408.219363 128.907796 408.113619 
C 128.802053 408.007876 128.658614 407.948462 128.50907 407.948462 
C 128.359526 407.948462 128.216088 408.007876 128.110344 408.113619 
C 128.004601 408.219363 127.945186 408.362802 127.945186 408.512345 
C 127.945186 408.661889 128.004601 408.805328 128.110344 408.911071 
C 128.216088 409.016815 128.359526 409.076229 128.50907 409.076229 
z
" style="fill:#ff915a;stroke:#ff915a;"/>
    <path clip-path="url(#p7418a69005)" d="M 129.092495 405.72246 
C 129.245246 405.72246 129.391761 405.661771 129.499772 405.55376 
C 129.607783 405.445749 129.668472 405.299234 129.668472 405.146484 
C 129.668472 404.993733 129.607783 404.847218 129.499772 404.739207 
C 129.391761 404.631196 129.245246 404.570507 129.092495 404.570507 
C 128.939745 404.570507 128.79323 404.631196 128.685219 404.739207 
C 128.577208 404.847218 128.516519 404.993733 128.516519 405.146484 
C 128.516519 405.299234 128.577208 405.445749 128.685219 405.55376 
C 128.79323 405.661771 128.939745 405.72246 129.092495 405.72246 
z
" style="fill:#ff9960;stroke:#ff9960;"/>
    <path clip-path="url(#p7418a69005)" d="M 129.692335 402.36895 
C 129.848362 402.36895 129.998019 402.30696 130.108346 402.196633 
C 130.218674 402.086305 130.280664 401.936648 130.280664 401.780622 
C 130.280664 401.624595 130.218674 401.474938 130.108346 401.364611 
C 129.998019 401.254283 129.848362 401.192293 129.692335 401.192293 
C 129.536309 401.192293 129.386652 401.254283 129.276324 401.364611 
C 129.165997 401.474938 129.104007 401.624595 129.104007 401.780622 
C 129.104007 401.936648 129.165997 402.086305 129.276324 402.196633 
C 129.386652 402.30696 129.536309 402.36895 129.692335 402.36895 
z
" style="fill:#ffa165;stroke:#ffa165;"/>
    <path clip-path="url(#p7418a69005)" d="M 130.309052 399.015705 
C 130.468424 399.015705 130.621291 398.952386 130.733984 398.839693 
C 130.846678 398.726999 130.909997 398.574133 130.909997 398.41476 
C 130.909997 398.255387 130.846678 398.102521 130.733984 397.989827 
C 130.621291 397.877134 130.468424 397.813814 130.309052 397.813814 
C 130.149679 397.813814 129.996813 397.877134 129.884119 397.989827 
C 129.771426 398.102521 129.708106 398.255387 129.708106 398.41476 
C 129.708106 398.574133 129.771426 398.726999 129.884119 398.839693 
C 129.996813 398.952386 130.149679 399.015705 130.309052 399.015705 
z
" style="fill:#ffa96b;stroke:#ffa96b;"/>
    <path clip-path="url(#p7418a69005)" d="M 130.943119 395.662731 
C 131.10591 395.662731 131.262055 395.598054 131.377165 395.482944 
C 131.492275 395.367833 131.556952 395.211688 131.556952 395.048898 
C 131.556952 394.886108 131.492275 394.729963 131.377165 394.614852 
C 131.262055 394.499742 131.10591 394.435065 130.943119 394.435065 
C 130.780329 394.435065 130.624184 394.499742 130.509074 394.614852 
C 130.393963 394.729963 130.329286 394.886108 130.329286 395.048898 
C 130.329286 395.211688 130.393963 395.367833 130.509074 395.482944 
C 130.624184 395.598054 130.780329 395.662731 130.943119 395.662731 
z
" style="fill:#ffb171;stroke:#ffb171;"/>
    <path clip-path="url(#p7418a69005)" d="M 131.595026 392.310033 
C 131.761308 392.310033 131.920801 392.243969 132.03838 392.12639 
C 132.155959 392.008811 132.222023 391.849318 132.222023 391.683036 
C 132.222023 391.516755 132.155959 391.357261 132.03838 391.239682 
C 131.920801 391.122103 131.761308 391.056039 131.595026 391.056039 
C 131.428744 391.056039 131.269251 391.122103 131.151672 391.239682 
C 131.034093 391.357261 130.968029 391.516755 130.968029 391.683036 
C 130.968029 391.849318 131.034093 392.008811 131.151672 392.12639 
C 131.269251 392.243969 131.428744 392.310033 131.595026 392.310033 
z
" style="fill:#ffb474;stroke:#ffb474;"/>
    <path clip-path="url(#p7418a69005)" d="M 132.265274 388.957618 
C 132.435122 388.957618 132.598036 388.890137 132.718136 388.770036 
C 132.838236 388.649936 132.905718 388.487022 132.905718 388.317174 
C 132.905718 388.147327 132.838236 387.984413 132.718136 387.864313 
C 132.598036 387.744212 132.435122 387.676731 132.265274 387.676731 
C 132.095427 387.676731 131.932513 387.744212 131.812412 387.864313 
C 131.692312 387.984413 131.624831 388.147327 131.624831 388.317174 
C 131.624831 388.487022 131.692312 388.649936 131.812412 388.770036 
C 131.932513 388.890137 132.095427 388.957618 132.265274 388.957618 
z
" style="fill:#ffb777;stroke:#ffb777;"/>
    <path clip-path="url(#p7418a69005)" d="M 132.95438 385.60549 
C 133.12787 385.60549 133.294277 385.536562 133.416953 385.413886 
C 133.539629 385.29121 133.608558 385.124803 133.608558 384.951313 
C 133.608558 384.777822 133.539629 384.611415 133.416953 384.488739 
C 133.294277 384.366063 133.12787 384.297135 132.95438 384.297135 
C 132.78089 384.297135 132.614482 384.366063 132.491806 384.488739 
C 132.36913 384.611415 132.300202 384.777822 132.300202 384.951313 
C 132.300202 385.124803 132.36913 385.29121 132.491806 385.413886 
C 132.614482 385.536562 132.78089 385.60549 132.95438 385.60549 
z
" style="fill:#ffb979;stroke:#ffb979;"/>
    <path clip-path="url(#p7418a69005)" d="M 133.662873 382.253658 
C 133.840083 382.253658 134.01006 382.183251 134.135367 382.057944 
C 134.260673 381.932638 134.33108 381.762661 134.33108 381.585451 
C 134.33108 381.40824 134.260673 381.238264 134.135367 381.112957 
C 134.01006 380.98765 133.840083 380.917244 133.662873 380.917244 
C 133.485662 380.917244 133.315686 380.98765 133.190379 381.112957 
C 133.065072 381.238264 132.994666 381.40824 132.994666 381.585451 
C 132.994666 381.762661 133.065072 381.932638 133.190379 382.057944 
C 133.315686 382.183251 133.485662 382.253658 133.662873 382.253658 
z
" style="fill:#ffbb7b;stroke:#ffbb7b;"/>
    <path clip-path="url(#p7418a69005)" d="M 134.391299 378.902126 
C 134.57231 378.902126 134.745932 378.83021 134.873926 378.702215 
C 135.00192 378.574221 135.073837 378.4006 135.073837 378.219589 
C 135.073837 378.038578 135.00192 377.864956 134.873926 377.736962 
C 134.745932 377.608968 134.57231 377.537052 134.391299 377.537052 
C 134.210288 377.537052 134.036667 377.608968 133.908673 377.736962 
C 133.780679 377.864956 133.708762 378.038578 133.708762 378.219589 
C 133.708762 378.4006 133.780679 378.574221 133.908673 378.702215 
C 134.036667 378.83021 134.210288 378.902126 134.391299 378.902126 
z
" style="fill:#ffbb7b;stroke:#ffbb7b;"/>
    <path clip-path="url(#p7418a69005)" d="M 135.14022 375.550902 
C 135.325113 375.550902 135.502458 375.477443 135.633197 375.346704 
C 135.763936 375.215965 135.837395 375.03862 135.837395 374.853727 
C 135.837395 374.668834 135.763936 374.491489 135.633197 374.36075 
C 135.502458 374.230011 135.325113 374.156552 135.14022 374.156552 
C 134.955327 374.156552 134.777982 374.230011 134.647243 374.36075 
C 134.516504 374.491489 134.443046 374.668834 134.443046 374.853727 
C 134.443046 375.03862 134.516504 375.215965 134.647243 375.346704 
C 134.777982 375.477443 134.955327 375.550902 135.14022 375.550902 
z
" style="fill:#ffbb7b;stroke:#ffbb7b;"/>
    <path clip-path="url(#p7418a69005)" d="M 135.910212 372.199991 
C 136.09907 372.199991 136.280218 372.124957 136.413761 371.991414 
C 136.547303 371.857871 136.622337 371.676723 136.622337 371.487865 
C 136.622337 371.299007 136.547303 371.117859 136.413761 370.984316 
C 136.280218 370.850773 136.09907 370.775739 135.910212 370.775739 
C 135.721354 370.775739 135.540205 370.850773 135.406663 370.984316 
C 135.27312 371.117859 135.198086 371.299007 135.198086 371.487865 
C 135.198086 371.676723 135.27312 371.857871 135.406663 371.991414 
C 135.540205 372.124957 135.721354 372.199991 135.910212 372.199991 
z
" style="fill:#ffbb7b;stroke:#ffbb7b;"/>
    <path clip-path="url(#p7418a69005)" d="M 136.701867 368.849401 
C 136.894775 368.849401 137.079808 368.772758 137.216214 368.636351 
C 137.352621 368.499944 137.429264 368.314911 137.429264 368.122003 
C 137.429264 367.929095 137.352621 367.744062 137.216214 367.607655 
C 137.079808 367.471249 136.894775 367.394606 136.701867 367.394606 
C 136.508958 367.394606 136.323925 367.471249 136.187519 367.607655 
C 136.051112 367.744062 135.974469 367.929095 135.974469 368.122003 
C 135.974469 368.314911 136.051112 368.499944 136.187519 368.636351 
C 136.323925 368.772758 136.508958 368.849401 136.701867 368.849401 
z
" style="fill:#ffbc7c;stroke:#ffbc7c;"/>
    <path clip-path="url(#p7418a69005)" d="M 137.515795 365.499139 
C 137.71284 365.499139 137.901841 365.420852 138.041173 365.28152 
C 138.180505 365.142188 138.258792 364.953187 138.258792 364.756141 
C 138.258792 364.559096 138.180505 364.370095 138.041173 364.230763 
C 137.901841 364.091431 137.71284 364.013144 137.515795 364.013144 
C 137.318749 364.013144 137.129748 364.091431 136.990416 364.230763 
C 136.851084 364.370095 136.772797 364.559096 136.772797 364.756141 
C 136.772797 364.953187 136.851084 365.142188 136.990416 365.28152 
C 137.129748 365.420852 137.318749 365.499139 137.515795 365.499139 
z
" style="fill:#ffbc7d;stroke:#ffbc7d;"/>
    <path clip-path="url(#p7418a69005)" d="M 138.352622 362.149211 
C 138.553893 362.149211 138.746948 362.069245 138.889268 361.926925 
C 139.031588 361.784605 139.111553 361.59155 139.111553 361.39028 
C 139.111553 361.189009 139.031588 360.995954 138.889268 360.853634 
C 138.746948 360.711314 138.553893 360.631348 138.352622 360.631348 
C 138.151351 360.631348 137.958297 360.711314 137.815977 360.853634 
C 137.673657 360.995954 137.593691 361.189009 137.593691 361.39028 
C 137.593691 361.59155 137.673657 361.784605 137.815977 361.926925 
C 137.958297 362.069245 138.151351 362.149211 138.352622 362.149211 
z
" style="fill:#ffbd7d;stroke:#ffbd7d;"/>
    <path clip-path="url(#p7418a69005)" d="M 139.212994 358.799624 
C 139.418581 358.799624 139.615776 358.717944 139.761148 358.572572 
C 139.90652 358.4272 139.988201 358.230005 139.988201 358.024418 
C 139.988201 357.81883 139.90652 357.621636 139.761148 357.476264 
C 139.615776 357.330892 139.418581 357.249211 139.212994 357.249211 
C 139.007407 357.249211 138.810212 357.330892 138.66484 357.476264 
C 138.519468 357.621636 138.437787 357.81883 138.437787 358.024418 
C 138.437787 358.230005 138.519468 358.4272 138.66484 358.572572 
C 138.810212 358.717944 139.007407 358.799624 139.212994 358.799624 
z
" style="fill:#ffbd7e;stroke:#ffbd7e;"/>
    <path clip-path="url(#p7418a69005)" d="M 140.097572 355.450387 
C 140.307568 355.450387 140.508992 355.366955 140.657482 355.218465 
C 140.805971 355.069976 140.889404 354.868552 140.889404 354.658556 
C 140.889404 354.44856 140.805971 354.247136 140.657482 354.098646 
C 140.508992 353.950157 140.307568 353.866724 140.097572 353.866724 
C 139.887576 353.866724 139.686153 353.950157 139.537663 354.098646 
C 139.389173 354.247136 139.305741 354.44856 139.305741 354.658556 
C 139.305741 354.868552 139.389173 355.069976 139.537663 355.218465 
C 139.686153 355.366955 139.887576 355.450387 140.097572 355.450387 
z
" style="fill:#ffbe7f;stroke:#ffbe7f;"/>
    <path clip-path="url(#p7418a69005)" d="M 141.007038 352.101507 
C 141.221537 352.101507 141.427281 352.016285 141.578955 351.864611 
C 141.730629 351.712937 141.81585 351.507194 141.81585 351.292694 
C 141.81585 351.078194 141.730629 350.872451 141.578955 350.720777 
C 141.427281 350.569103 141.221537 350.483881 141.007038 350.483881 
C 140.792538 350.483881 140.586795 350.569103 140.435121 350.720777 
C 140.283447 350.872451 140.198225 351.078194 140.198225 351.292694 
C 140.198225 351.507194 140.283447 351.712937 140.435121 351.864611 
C 140.586795 352.016285 140.792538 352.101507 141.007038 352.101507 
z
" style="fill:#ffc083;stroke:#ffc083;"/>
    <path clip-path="url(#p7418a69005)" d="M 141.942091 348.75299 
C 142.161191 348.75299 142.371346 348.665941 142.526273 348.511014 
C 142.6812 348.356087 142.768249 348.145932 142.768249 347.926832 
C 142.768249 347.707733 142.6812 347.497577 142.526273 347.34265 
C 142.371346 347.187723 142.161191 347.100674 141.942091 347.100674 
C 141.722991 347.100674 141.512836 347.187723 141.357909 347.34265 
C 141.202982 347.497577 141.115933 347.707733 141.115933 347.926832 
C 141.115933 348.145932 141.202982 348.356087 141.357909 348.511014 
C 141.512836 348.665941 141.722991 348.75299 141.942091 348.75299 
z
" style="fill:#ffc287;stroke:#ffc287;"/>
    <path clip-path="url(#p7418a69005)" d="M 142.903452 345.404846 
C 143.12725 345.404846 143.341912 345.31593 143.500162 345.15768 
C 143.658411 344.999431 143.747327 344.784769 143.747327 344.56097 
C 143.747327 344.337172 143.658411 344.12251 143.500162 343.96426 
C 143.341912 343.806011 143.12725 343.717095 142.903452 343.717095 
C 142.679653 343.717095 142.464991 343.806011 142.306742 343.96426 
C 142.148492 344.12251 142.059576 344.337172 142.059576 344.56097 
C 142.059576 344.784769 142.148492 344.999431 142.306742 345.15768 
C 142.464991 345.31593 142.679653 345.404846 142.903452 345.404846 
z
" style="fill:#ffc48b;stroke:#ffc48b;"/>
    <path clip-path="url(#p7418a69005)" d="M 143.89186 342.057081 
C 144.120458 342.057081 144.339724 341.966258 144.501367 341.804615 
C 144.66301 341.642972 144.753833 341.423706 144.753833 341.195109 
C 144.753833 340.966511 144.66301 340.747245 144.501367 340.585602 
C 144.339724 340.423959 144.120458 340.333136 143.89186 340.333136 
C 143.663262 340.333136 143.443996 340.423959 143.282353 340.585602 
C 143.12071 340.747245 143.029887 340.966511 143.029887 341.195109 
C 143.029887 341.423706 143.12071 341.642972 143.282353 341.804615 
C 143.443996 341.966258 143.663262 342.057081 143.89186 342.057081 
z
" style="fill:#ffc68f;stroke:#ffc68f;"/>
    <path clip-path="url(#p7418a69005)" d="M 144.908077 338.709705 
C 145.141577 338.709705 145.365545 338.616934 145.530655 338.451825 
C 145.695765 338.286715 145.788535 338.062747 145.788535 337.829247 
C 145.788535 337.595746 145.695765 337.371778 145.530655 337.206669 
C 145.365545 337.041559 145.141577 336.948788 144.908077 336.948788 
C 144.674577 336.948788 144.450609 337.041559 144.285499 337.206669 
C 144.120389 337.371778 144.027619 337.595746 144.027619 337.829247 
C 144.027619 338.062747 144.120389 338.286715 144.285499 338.451825 
C 144.450609 338.616934 144.674577 338.709705 144.908077 338.709705 
z
" style="fill:#ffc996;stroke:#ffc996;"/>
    <path clip-path="url(#p7418a69005)" d="M 145.952885 335.362725 
C 146.191393 335.362725 146.420164 335.267965 146.588815 335.099314 
C 146.757465 334.930664 146.852225 334.701893 146.852225 334.463385 
C 146.852225 334.224877 146.757465 333.996106 146.588815 333.827455 
C 146.420164 333.658805 146.191393 333.564045 145.952885 333.564045 
C 145.714377 333.564045 145.485606 333.658805 145.316956 333.827455 
C 145.148305 333.996106 145.053545 334.224877 145.053545 334.463385 
C 145.053545 334.701893 145.148305 334.930664 145.316956 335.099314 
C 145.485606 335.267965 145.714377 335.362725 145.952885 335.362725 
z
" style="fill:#ffce9e;stroke:#ffce9e;"/>
    <path clip-path="url(#p7418a69005)" d="M 147.027089 332.01615 
C 147.270711 332.01615 147.504389 331.919358 147.676656 331.74709 
C 147.848923 331.574823 147.945716 331.341146 147.945716 331.097523 
C 147.945716 330.8539 147.848923 330.620223 147.676656 330.447956 
C 147.504389 330.275688 147.270711 330.178896 147.027089 330.178896 
C 146.783466 330.178896 146.549789 330.275688 146.377521 330.447956 
C 146.205254 330.620223 146.108462 330.8539 146.108462 331.097523 
C 146.108462 331.341146 146.205254 331.574823 146.377521 331.74709 
C 146.549789 331.919358 146.783466 332.01615 147.027089 332.01615 
z
" style="fill:#ffd3a7;stroke:#ffd3a7;"/>
    <path clip-path="url(#p7418a69005)" d="M 148.131515 328.669988 
C 148.380362 328.669988 148.619051 328.57112 148.795012 328.395159 
C 148.970974 328.219197 149.069842 327.980508 149.069842 327.731661 
C 149.069842 327.482814 148.970974 327.244125 148.795012 327.068163 
C 148.619051 326.892202 148.380362 326.793334 148.131515 326.793334 
C 147.882667 326.793334 147.643979 326.892202 147.468017 327.068163 
C 147.292055 327.244125 147.193187 327.482814 147.193187 327.731661 
C 147.193187 327.980508 147.292055 328.219197 147.468017 328.395159 
C 147.643979 328.57112 147.882667 328.669988 148.131515 328.669988 
z
" style="fill:#ffd8af;stroke:#ffd8af;"/>
    <path clip-path="url(#p7418a69005)" d="M 149.267014 325.32425 
C 149.521198 325.32425 149.765005 325.223261 149.94474 325.043526 
C 150.124476 324.863791 150.225464 324.619983 150.225464 324.365799 
C 150.225464 324.111615 150.124476 323.867808 149.94474 323.688073 
C 149.765005 323.508337 149.521198 323.407349 149.267014 323.407349 
C 149.01283 323.407349 148.769022 323.508337 148.589287 323.688073 
C 148.409552 323.867808 148.308563 324.111615 148.308563 324.365799 
C 148.308563 324.619983 148.409552 324.863791 148.589287 325.043526 
C 148.769022 325.223261 149.01283 325.32425 149.267014 325.32425 
z
" style="fill:#ffdcb6;stroke:#ffdcb6;"/>
    <path clip-path="url(#p7418a69005)" d="M 150.43446 321.978942 
C 150.694095 321.978942 150.943131 321.875788 151.12672 321.692198 
C 151.31031 321.508609 151.413464 321.259573 151.413464 320.999937 
C 151.413464 320.740302 151.31031 320.491266 151.12672 320.307677 
C 150.943131 320.124087 150.694095 320.020933 150.43446 320.020933 
C 150.174824 320.020933 149.925788 320.124087 149.742199 320.307677 
C 149.558609 320.491266 149.455455 320.740302 149.455455 320.999937 
C 149.455455 321.259573 149.558609 321.508609 149.742199 321.692198 
C 149.925788 321.875788 150.174824 321.978942 150.43446 321.978942 
z
" style="fill:#ffe0be;stroke:#ffe0be;"/>
    <path clip-path="url(#p7418a69005)" d="M 151.634751 318.634076 
C 151.899954 318.634076 152.154331 318.528709 152.341858 318.341182 
C 152.529385 318.153655 152.634751 317.899279 152.634751 317.634076 
C 152.634751 317.368872 152.529385 317.114496 152.341858 316.926969 
C 152.154331 316.739442 151.899954 316.634076 151.634751 316.634076 
C 151.369548 316.634076 151.115171 316.739442 150.927645 316.926969 
C 150.740118 317.114496 150.634751 317.368872 150.634751 317.634076 
C 150.634751 317.899279 150.740118 318.153655 150.927645 318.341182 
C 151.115171 318.528709 151.369548 318.634076 151.634751 318.634076 
z
" style="fill:#ffe4c5;stroke:#ffe4c5;"/>
   </g>
   <g id="PathCollection_3">
    <path clip-path="url(#p7418a69005)" d="M 434.415431 98.718742 
C 435.897961 98.718742 437.31997 98.129726 438.368278 97.081419 
C 439.416585 96.033111 440.005601 94.611102 440.005601 93.128572 
C 440.005601 91.646041 439.416585 90.224032 438.368278 89.175725 
C 437.31997 88.127417 435.897961 87.538402 434.415431 87.538402 
C 432.9329 87.538402 431.510891 88.127417 430.462584 89.175725 
C 429.414276 90.224032 428.825261 91.646041 428.825261 93.128572 
C 428.825261 94.611102 429.414276 96.033111 430.462584 97.081419 
C 431.510891 98.129726 432.9329 98.718742 434.415431 98.718742 
z
" style="fill:#a1b8ff;stroke:#a1b8ff;"/>
    <path clip-path="url(#p7418a69005)" d="M 456.085522 87.962885 
C 457.739501 87.962885 459.32596 87.305752 460.4955 86.136212 
C 461.66504 84.966672 462.322172 83.380213 462.322172 81.726234 
C 462.322172 80.072255 461.66504 78.485796 460.4955 77.316256 
C 459.32596 76.146717 457.739501 75.489584 456.085522 75.489584 
C 454.431543 75.489584 452.845084 76.146717 451.675544 77.316256 
C 450.506004 78.485796 449.848871 80.072255 449.848871 81.726234 
C 449.848871 83.380213 450.506004 84.966672 451.675544 86.136212 
C 452.845084 87.305752 454.431543 87.962885 456.085522 87.962885 
z
" style="fill:#a0b7ff;stroke:#a0b7ff;"/>
    <path clip-path="url(#p7418a69005)" d="M 479.193246 77.281791 
C 481.038501 77.281791 482.808427 76.548664 484.11322 75.243871 
C 485.418012 73.939079 486.15114 72.169152 486.15114 70.323897 
C 486.15114 68.478642 485.418012 66.708715 484.11322 65.403923 
C 482.808427 64.09913 481.038501 63.366003 479.193246 63.366003 
C 477.34799 63.366003 475.578064 64.09913 474.273271 65.403923 
C 472.968479 66.708715 472.235351 68.478642 472.235351 70.323897 
C 472.235351 72.169152 472.968479 73.939079 474.273271 75.243871 
C 475.578064 76.548664 477.34799 77.281791 479.193246 77.281791 
z
" style="fill:#9fb6ff;stroke:#9fb6ff;"/>
    <path clip-path="url(#p7418a69005)" d="M 503.833977 66.684106 
C 505.892628 66.684106 507.86724 65.866195 509.322926 64.410509 
C 510.778613 62.954823 511.596524 60.980211 511.596524 58.92156 
C 511.596524 56.862908 510.778613 54.888297 509.322926 53.43261 
C 507.86724 51.976924 505.892628 51.159013 503.833977 51.159013 
C 501.775326 51.159013 499.800714 51.976924 498.345028 53.43261 
C 496.889341 54.888297 496.07143 56.862908 496.07143 58.92156 
C 496.07143 60.980211 496.889341 62.954823 498.345028 64.410509 
C 499.800714 65.866195 501.775326 66.684106 503.833977 66.684106 
z
" style="fill:#9db4ff;stroke:#9db4ff;"/>
    <path clip-path="url(#p7418a69005)" d="M 530.109419 56.179476 
C 532.406145 56.179476 534.609112 55.266977 536.233143 53.642947 
C 537.857174 52.018916 538.769673 49.815949 538.769673 47.519222 
C 538.769673 45.222496 537.857174 43.019529 536.233143 41.395498 
C 534.609112 39.771467 532.406145 38.858968 530.109419 38.858968 
C 527.812693 38.858968 525.609725 39.771467 523.985694 41.395498 
C 522.361664 43.019529 521.449165 45.222496 521.449165 47.519222 
C 521.449165 49.815949 522.361664 52.018916 523.985694 53.642947 
C 525.609725 55.266977 527.812693 56.179476 530.109419 56.179476 
z
" style="fill:#9cb3ff;stroke:#9cb3ff;"/>
   </g>
   <g id="matplotlib.axis_1">
    <g id="xtick_1">
     <g id="line2d_1">
      <defs>
       <path d="M 0 0 
L 0 3.5 
" id="m4493621b06" style="stroke:#000000;stroke-width:0.8;"/>
      </defs>
      <g>
       <use style="stroke:#000000;stroke-width:0.8;" x="107.77228" xlink:href="#m4493621b06" y="504.52"/>
      </g>
     </g>
     <g id="text_1">
      <!-- 0 -->
      <defs>
       <path d="M 31.78125 66.40625 
Q 24.171875 66.40625 20.328125 58.90625 
Q 16.5 51.421875 16.5 36.375 
Q 16.5 21.390625 20.328125 13.890625 
Q 24.171875 6.390625 31.78125 6.390625 
Q 39.453125 6.390625 43.28125 13.890625 
Q 47.125 21.390625 47.125 36.375 
Q 47.125 51.421875 43.28125 58.90625 
Q 39.453125 66.40625 31.78125 66.40625 
z
M 31.78125 74.21875 
Q 44.046875 74.21875 50.515625 64.515625 
Q 56.984375 54.828125 56.984375 36.375 
Q 56.984375 17.96875 50.515625 8.265625 
Q 44.046875 -1.421875 31.78125 -1.421875 
Q 19.53125 -1.421875 13.0625 8.265625 
Q 6.59375 17.96875 6.59375 36.375 
Q 6.59375 54.828125 13.0625 64.515625 
Q 19.53125 74.21875 31.78125 74.21875 
z
" id="DejaVuSans-30"/>
      </defs>
      <g transform="translate(101.40978 526.716875)scale(0.2 -0.2)">
       <use xlink:href="#DejaVuSans-30"/>
      </g>
     </g>
    </g>
    <g id="xtick_2">
     <g id="line2d_2">
      <g>
       <use style="stroke:#000000;stroke-width:0.8;" x="197.905418" xlink:href="#m4493621b06" y="504.52"/>
      </g>
     </g>
     <g id="text_2">
      <!-- 10000 -->
      <defs>
       <path d="M 12.40625 8.296875 
L 28.515625 8.296875 
L 28.515625 63.921875 
L 10.984375 60.40625 
L 10.984375 69.390625 
L 28.421875 72.90625 
L 38.28125 72.90625 
L 38.28125 8.296875 
L 54.390625 8.296875 
L 54.390625 0 
L 12.40625 0 
z
" id="DejaVuSans-31"/>
      </defs>
      <g transform="translate(166.092918 526.716875)scale(0.2 -0.2)">
       <use xlink:href="#DejaVuSans-31"/>
       <use x="63.623047" xlink:href="#DejaVuSans-30"/>
       <use x="127.246094" xlink:href="#DejaVuSans-30"/>
       <use x="190.869141" xlink:href="#DejaVuSans-30"/>
       <use x="254.492188" xlink:href="#DejaVuSans-30"/>
      </g>
     </g>
    </g>
    <g id="xtick_3">
     <g id="line2d_3">
      <g>
       <use style="stroke:#000000;stroke-width:0.8;" x="288.038555" xlink:href="#m4493621b06" y="504.52"/>
      </g>
     </g>
     <g id="text_3">
      <!-- 20000 -->
      <defs>
       <path d="M 19.1875 8.296875 
L 53.609375 8.296875 
L 53.609375 0 
L 7.328125 0 
L 7.328125 8.296875 
Q 12.9375 14.109375 22.625 23.890625 
Q 32.328125 33.6875 34.8125 36.53125 
Q 39.546875 41.84375 41.421875 45.53125 
Q 43.3125 49.21875 43.3125 52.78125 
Q 43.3125 58.59375 39.234375 62.25 
Q 35.15625 65.921875 28.609375 65.921875 
Q 23.96875 65.921875 18.8125 64.3125 
Q 13.671875 62.703125 7.8125 59.421875 
L 7.8125 69.390625 
Q 13.765625 71.78125 18.9375 73 
Q 24.125 74.21875 28.421875 74.21875 
Q 39.75 74.21875 46.484375 68.546875 
Q 53.21875 62.890625 53.21875 53.421875 
Q 53.21875 48.921875 51.53125 44.890625 
Q 49.859375 40.875 45.40625 35.40625 
Q 44.1875 33.984375 37.640625 27.21875 
Q 31.109375 20.453125 19.1875 8.296875 
z
" id="DejaVuSans-32"/>
      </defs>
      <g transform="translate(256.226055 526.716875)scale(0.2 -0.2)">
       <use xlink:href="#DejaVuSans-32"/>
       <use x="63.623047" xlink:href="#DejaVuSans-30"/>
       <use x="127.246094" xlink:href="#DejaVuSans-30"/>
       <use x="190.869141" xlink:href="#DejaVuSans-30"/>
       <use x="254.492188" xlink:href="#DejaVuSans-30"/>
      </g>
     </g>
    </g>
    <g id="xtick_4">
     <g id="line2d_4">
      <g>
       <use style="stroke:#000000;stroke-width:0.8;" x="378.171693" xlink:href="#m4493621b06" y="504.52"/>
      </g>
     </g>
     <g id="text_4">
      <!-- 30000 -->
      <defs>
       <path d="M 40.578125 39.3125 
Q 47.65625 37.796875 51.625 33 
Q 55.609375 28.21875 55.609375 21.1875 
Q 55.609375 10.40625 48.1875 4.484375 
Q 40.765625 -1.421875 27.09375 -1.421875 
Q 22.515625 -1.421875 17.65625 -0.515625 
Q 12.796875 0.390625 7.625 2.203125 
L 7.625 11.71875 
Q 11.71875 9.328125 16.59375 8.109375 
Q 21.484375 6.890625 26.8125 6.890625 
Q 36.078125 6.890625 40.9375 10.546875 
Q 45.796875 14.203125 45.796875 21.1875 
Q 45.796875 27.640625 41.28125 31.265625 
Q 36.765625 34.90625 28.71875 34.90625 
L 20.21875 34.90625 
L 20.21875 43.015625 
L 29.109375 43.015625 
Q 36.375 43.015625 40.234375 45.921875 
Q 44.09375 48.828125 44.09375 54.296875 
Q 44.09375 59.90625 40.109375 62.90625 
Q 36.140625 65.921875 28.71875 65.921875 
Q 24.65625 65.921875 20.015625 65.03125 
Q 15.375 64.15625 9.8125 62.3125 
L 9.8125 71.09375 
Q 15.4375 72.65625 20.34375 73.4375 
Q 25.25 74.21875 29.59375 74.21875 
Q 40.828125 74.21875 47.359375 69.109375 
Q 53.90625 64.015625 53.90625 55.328125 
Q 53.90625 49.265625 50.4375 45.09375 
Q 46.96875 40.921875 40.578125 39.3125 
z
" id="DejaVuSans-33"/>
      </defs>
      <g transform="translate(346.359193 526.716875)scale(0.2 -0.2)">
       <use xlink:href="#DejaVuSans-33"/>
       <use x="63.623047" xlink:href="#DejaVuSans-30"/>
       <use x="127.246094" xlink:href="#DejaVuSans-30"/>
       <use x="190.869141" xlink:href="#DejaVuSans-30"/>
       <use x="254.492188" xlink:href="#DejaVuSans-30"/>
      </g>
     </g>
    </g>
    <g id="xtick_5">
     <g id="line2d_5">
      <g>
       <use style="stroke:#000000;stroke-width:0.8;" x="468.30483" xlink:href="#m4493621b06" y="504.52"/>
      </g>
     </g>
     <g id="text_5">
      <!-- 40000 -->
      <defs>
       <path d="M 37.796875 64.3125 
L 12.890625 25.390625 
L 37.796875 25.390625 
z
M 35.203125 72.90625 
L 47.609375 72.90625 
L 47.609375 25.390625 
L 58.015625 25.390625 
L 58.015625 17.1875 
L 47.609375 17.1875 
L 47.609375 0 
L 37.796875 0 
L 37.796875 17.1875 
L 4.890625 17.1875 
L 4.890625 26.703125 
z
" id="DejaVuSans-34"/>
      </defs>
      <g transform="translate(436.49233 526.716875)scale(0.2 -0.2)">
       <use xlink:href="#DejaVuSans-34"/>
       <use x="63.623047" xlink:href="#DejaVuSans-30"/>
       <use x="127.246094" xlink:href="#DejaVuSans-30"/>
       <use x="190.869141" xlink:href="#DejaVuSans-30"/>
       <use x="254.492188" xlink:href="#DejaVuSans-30"/>
      </g>
     </g>
    </g>
    <g id="text_6">
     <!-- Temperature -->
     <defs>
      <path d="M -0.296875 72.90625 
L 61.375 72.90625 
L 61.375 64.59375 
L 35.5 64.59375 
L 35.5 0 
L 25.59375 0 
L 25.59375 64.59375 
L -0.296875 64.59375 
z
" id="DejaVuSans-54"/>
      <path d="M 56.203125 29.59375 
L 56.203125 25.203125 
L 14.890625 25.203125 
Q 15.484375 15.921875 20.484375 11.0625 
Q 25.484375 6.203125 34.421875 6.203125 
Q 39.59375 6.203125 44.453125 7.46875 
Q 49.3125 8.734375 54.109375 11.28125 
L 54.109375 2.78125 
Q 49.265625 0.734375 44.1875 -0.34375 
Q 39.109375 -1.421875 33.890625 -1.421875 
Q 20.796875 -1.421875 13.15625 6.1875 
Q 5.515625 13.8125 5.515625 26.8125 
Q 5.515625 40.234375 12.765625 48.109375 
Q 20.015625 56 32.328125 56 
Q 43.359375 56 49.78125 48.890625 
Q 56.203125 41.796875 56.203125 29.59375 
z
M 47.21875 32.234375 
Q 47.125 39.59375 43.09375 43.984375 
Q 39.0625 48.390625 32.421875 48.390625 
Q 24.90625 48.390625 20.390625 44.140625 
Q 15.875 39.890625 15.1875 32.171875 
z
" id="DejaVuSans-65"/>
      <path d="M 52 44.1875 
Q 55.375 50.25 60.0625 53.125 
Q 64.75 56 71.09375 56 
Q 79.640625 56 84.28125 50.015625 
Q 88.921875 44.046875 88.921875 33.015625 
L 88.921875 0 
L 79.890625 0 
L 79.890625 32.71875 
Q 79.890625 40.578125 77.09375 44.375 
Q 74.3125 48.1875 68.609375 48.1875 
Q 61.625 48.1875 57.5625 43.546875 
Q 53.515625 38.921875 53.515625 30.90625 
L 53.515625 0 
L 44.484375 0 
L 44.484375 32.71875 
Q 44.484375 40.625 41.703125 44.40625 
Q 38.921875 48.1875 33.109375 48.1875 
Q 26.21875 48.1875 22.15625 43.53125 
Q 18.109375 38.875 18.109375 30.90625 
L 18.109375 0 
L 9.078125 0 
L 9.078125 54.6875 
L 18.109375 54.6875 
L 18.109375 46.1875 
Q 21.1875 51.21875 25.484375 53.609375 
Q 29.78125 56 35.6875 56 
Q 41.65625 56 45.828125 52.96875 
Q 50 49.953125 52 44.1875 
z
" id="DejaVuSans-6d"/>
      <path d="M 18.109375 8.203125 
L 18.109375 -20.796875 
L 9.078125 -20.796875 
L 9.078125 54.6875 
L 18.109375 54.6875 
L 18.109375 46.390625 
Q 20.953125 51.265625 25.265625 53.625 
Q 29.59375 56 35.59375 56 
Q 45.5625 56 51.78125 48.09375 
Q 58.015625 40.1875 58.015625 27.296875 
Q 58.015625 14.40625 51.78125 6.484375 
Q 45.5625 -1.421875 35.59375 -1.421875 
Q 29.59375 -1.421875 25.265625 0.953125 
Q 20.953125 3.328125 18.109375 8.203125 
z
M 48.6875 27.296875 
Q 48.6875 37.203125 44.609375 42.84375 
Q 40.53125 48.484375 33.40625 48.484375 
Q 26.265625 48.484375 22.1875 42.84375 
Q 18.109375 37.203125 18.109375 27.296875 
Q 18.109375 17.390625 22.1875 11.75 
Q 26.265625 6.109375 33.40625 6.109375 
Q 40.53125 6.109375 44.609375 11.75 
Q 48.6875 17.390625 48.6875 27.296875 
z
" id="DejaVuSans-70"/>
      <path d="M 41.109375 46.296875 
Q 39.59375 47.171875 37.8125 47.578125 
Q 36.03125 48 33.890625 48 
Q 26.265625 48 22.1875 43.046875 
Q 18.109375 38.09375 18.109375 28.8125 
L 18.109375 0 
L 9.078125 0 
L 9.078125 54.6875 
L 18.109375 54.6875 
L 18.109375 46.1875 
Q 20.953125 51.171875 25.484375 53.578125 
Q 30.03125 56 36.53125 56 
Q 37.453125 56 38.578125 55.875 
Q 39.703125 55.765625 41.0625 55.515625 
z
" id="DejaVuSans-72"/>
      <path d="M 34.28125 27.484375 
Q 23.390625 27.484375 19.1875 25 
Q 14.984375 22.515625 14.984375 16.5 
Q 14.984375 11.71875 18.140625 8.90625 
Q 21.296875 6.109375 26.703125 6.109375 
Q 34.1875 6.109375 38.703125 11.40625 
Q 43.21875 16.703125 43.21875 25.484375 
L 43.21875 27.484375 
z
M 52.203125 31.203125 
L 52.203125 0 
L 43.21875 0 
L 43.21875 8.296875 
Q 40.140625 3.328125 35.546875 0.953125 
Q 30.953125 -1.421875 24.3125 -1.421875 
Q 15.921875 -1.421875 10.953125 3.296875 
Q 6 8.015625 6 15.921875 
Q 6 25.140625 12.171875 29.828125 
Q 18.359375 34.515625 30.609375 34.515625 
L 43.21875 34.515625 
L 43.21875 35.40625 
Q 43.21875 41.609375 39.140625 45 
Q 35.0625 48.390625 27.6875 48.390625 
Q 23 48.390625 18.546875 47.265625 
Q 14.109375 46.140625 10.015625 43.890625 
L 10.015625 52.203125 
Q 14.9375 54.109375 19.578125 55.046875 
Q 24.21875 56 28.609375 56 
Q 40.484375 56 46.34375 49.84375 
Q 52.203125 43.703125 52.203125 31.203125 
z
" id="DejaVuSans-61"/>
      <path d="M 18.3125 70.21875 
L 18.3125 54.6875 
L 36.8125 54.6875 
L 36.8125 47.703125 
L 18.3125 47.703125 
L 18.3125 18.015625 
Q 18.3125 11.328125 20.140625 9.421875 
Q 21.96875 7.515625 27.59375 7.515625 
L 36.8125 7.515625 
L 36.8125 0 
L 27.59375 0 
Q 17.1875 0 13.234375 3.875 
Q 9.28125 7.765625 9.28125 18.015625 
L 9.28125 47.703125 
L 2.6875 47.703125 
L 2.6875 54.6875 
L 9.28125 54.6875 
L 9.28125 70.21875 
z
" id="DejaVuSans-74"/>
      <path d="M 8.5 21.578125 
L 8.5 54.6875 
L 17.484375 54.6875 
L 17.484375 21.921875 
Q 17.484375 14.15625 20.5 10.265625 
Q 23.53125 6.390625 29.59375 6.390625 
Q 36.859375 6.390625 41.078125 11.03125 
Q 45.3125 15.671875 45.3125 23.6875 
L 45.3125 54.6875 
L 54.296875 54.6875 
L 54.296875 0 
L 45.3125 0 
L 45.3125 8.40625 
Q 42.046875 3.421875 37.71875 1 
Q 33.40625 -1.421875 27.6875 -1.421875 
Q 18.265625 -1.421875 13.375 4.4375 
Q 8.5 10.296875 8.5 21.578125 
z
M 31.109375 56 
z
" id="DejaVuSans-75"/>
     </defs>
     <g transform="translate(260.472177 550.073125)scale(0.2 -0.2)">
      <use xlink:href="#DejaVuSans-54"/>
      <use x="60.818359" xlink:href="#DejaVuSans-65"/>
      <use x="122.341797" xlink:href="#DejaVuSans-6d"/>
      <use x="219.753906" xlink:href="#DejaVuSans-70"/>
      <use x="283.230469" xlink:href="#DejaVuSans-65"/>
      <use x="344.753906" xlink:href="#DejaVuSans-72"/>
      <use x="385.867188" xlink:href="#DejaVuSans-61"/>
      <use x="447.146484" xlink:href="#DejaVuSans-74"/>
      <use x="486.355469" xlink:href="#DejaVuSans-75"/>
      <use x="549.734375" xlink:href="#DejaVuSans-72"/>
      <use x="590.816406" xlink:href="#DejaVuSans-65"/>
     </g>
    </g>
   </g>
   <g id="matplotlib.axis_2">
    <g id="ytick_1">
     <g id="line2d_6">
      <defs>
       <path d="M 0 0 
L -3.5 0 
" id="m039973c824" style="stroke:#000000;stroke-width:0.8;"/>
      </defs>
      <g>
       <use style="stroke:#000000;stroke-width:0.8;" x="98.273104" xlink:href="#m039973c824" y="455.082499"/>
      </g>
     </g>
     <g id="text_7">
      <!-- $\mathdefault{10^{-4}}$ -->
      <defs>
       <path d="M 10.59375 35.5 
L 73.1875 35.5 
L 73.1875 27.203125 
L 10.59375 27.203125 
z
" id="DejaVuSans-2212"/>
      </defs>
      <g transform="translate(44.273104 462.680937)scale(0.2 -0.2)">
       <use transform="translate(0 0.684375)" xlink:href="#DejaVuSans-31"/>
       <use transform="translate(63.623047 0.684375)" xlink:href="#DejaVuSans-30"/>
       <use transform="translate(128.203125 38.965625)scale(0.7)" xlink:href="#DejaVuSans-2212"/>
       <use transform="translate(186.855469 38.965625)scale(0.7)" xlink:href="#DejaVuSans-34"/>
      </g>
     </g>
    </g>
    <g id="ytick_2">
     <g id="line2d_7">
      <g>
       <use style="stroke:#000000;stroke-width:0.8;" x="98.273104" xlink:href="#m039973c824" y="374.651307"/>
      </g>
     </g>
     <g id="text_8">
      <!-- $\mathdefault{10^{-2}}$ -->
      <g transform="translate(44.273104 382.249745)scale(0.2 -0.2)">
       <use transform="translate(0 0.765625)" xlink:href="#DejaVuSans-31"/>
       <use transform="translate(63.623047 0.765625)" xlink:href="#DejaVuSans-30"/>
       <use transform="translate(128.203125 39.046875)scale(0.7)" xlink:href="#DejaVuSans-2212"/>
       <use transform="translate(186.855469 39.046875)scale(0.7)" xlink:href="#DejaVuSans-32"/>
      </g>
     </g>
    </g>
    <g id="ytick_3">
     <g id="line2d_8">
      <g>
       <use style="stroke:#000000;stroke-width:0.8;" x="98.273104" xlink:href="#m039973c824" y="294.220116"/>
      </g>
     </g>
     <g id="text_9">
      <!-- $\mathdefault{10^{0}}$ -->
      <g transform="translate(56.073104 301.818553)scale(0.2 -0.2)">
       <use transform="translate(0 0.765625)" xlink:href="#DejaVuSans-31"/>
       <use transform="translate(63.623047 0.765625)" xlink:href="#DejaVuSans-30"/>
       <use transform="translate(128.203125 39.046875)scale(0.7)" xlink:href="#DejaVuSans-30"/>
      </g>
     </g>
    </g>
    <g id="ytick_4">
     <g id="line2d_9">
      <g>
       <use style="stroke:#000000;stroke-width:0.8;" x="98.273104" xlink:href="#m039973c824" y="213.788924"/>
      </g>
     </g>
     <g id="text_10">
      <!-- $\mathdefault{10^{2}}$ -->
      <g transform="translate(56.073104 221.387362)scale(0.2 -0.2)">
       <use transform="translate(0 0.765625)" xlink:href="#DejaVuSans-31"/>
       <use transform="translate(63.623047 0.765625)" xlink:href="#DejaVuSans-30"/>
       <use transform="translate(128.203125 39.046875)scale(0.7)" xlink:href="#DejaVuSans-32"/>
      </g>
     </g>
    </g>
    <g id="ytick_5">
     <g id="line2d_10">
      <g>
       <use style="stroke:#000000;stroke-width:0.8;" x="98.273104" xlink:href="#m039973c824" y="133.357733"/>
      </g>
     </g>
     <g id="text_11">
      <!-- $\mathdefault{10^{4}}$ -->
      <g transform="translate(56.073104 140.95617)scale(0.2 -0.2)">
       <use transform="translate(0 0.684375)" xlink:href="#DejaVuSans-31"/>
       <use transform="translate(63.623047 0.684375)" xlink:href="#DejaVuSans-30"/>
       <use transform="translate(128.203125 38.965625)scale(0.7)" xlink:href="#DejaVuSans-34"/>
      </g>
     </g>
    </g>
    <g id="ytick_6">
     <g id="line2d_11">
      <g>
       <use style="stroke:#000000;stroke-width:0.8;" x="98.273104" xlink:href="#m039973c824" y="52.926541"/>
      </g>
     </g>
     <g id="text_12">
      <!-- $\mathdefault{10^{6}}$ -->
      <defs>
       <path d="M 33.015625 40.375 
Q 26.375 40.375 22.484375 35.828125 
Q 18.609375 31.296875 18.609375 23.390625 
Q 18.609375 15.53125 22.484375 10.953125 
Q 26.375 6.390625 33.015625 6.390625 
Q 39.65625 6.390625 43.53125 10.953125 
Q 47.40625 15.53125 47.40625 23.390625 
Q 47.40625 31.296875 43.53125 35.828125 
Q 39.65625 40.375 33.015625 40.375 
z
M 52.59375 71.296875 
L 52.59375 62.3125 
Q 48.875 64.0625 45.09375 64.984375 
Q 41.3125 65.921875 37.59375 65.921875 
Q 27.828125 65.921875 22.671875 59.328125 
Q 17.53125 52.734375 16.796875 39.40625 
Q 19.671875 43.65625 24.015625 45.921875 
Q 28.375 48.1875 33.59375 48.1875 
Q 44.578125 48.1875 50.953125 41.515625 
Q 57.328125 34.859375 57.328125 23.390625 
Q 57.328125 12.15625 50.6875 5.359375 
Q 44.046875 -1.421875 33.015625 -1.421875 
Q 20.359375 -1.421875 13.671875 8.265625 
Q 6.984375 17.96875 6.984375 36.375 
Q 6.984375 53.65625 15.1875 63.9375 
Q 23.390625 74.21875 37.203125 74.21875 
Q 40.921875 74.21875 44.703125 73.484375 
Q 48.484375 72.75 52.59375 71.296875 
z
" id="DejaVuSans-36"/>
      </defs>
      <g transform="translate(56.073104 60.524979)scale(0.2 -0.2)">
       <use transform="translate(0 0.765625)" xlink:href="#DejaVuSans-31"/>
       <use transform="translate(63.623047 0.765625)" xlink:href="#DejaVuSans-30"/>
       <use transform="translate(128.203125 39.046875)scale(0.7)" xlink:href="#DejaVuSans-36"/>
      </g>
     </g>
    </g>
    <g id="text_13">
     <!-- Luminosity -->
     <defs>
      <path d="M 9.8125 72.90625 
L 19.671875 72.90625 
L 19.671875 8.296875 
L 55.171875 8.296875 
L 55.171875 0 
L 9.8125 0 
z
" id="DejaVuSans-4c"/>
      <path d="M 9.421875 54.6875 
L 18.40625 54.6875 
L 18.40625 0 
L 9.421875 0 
z
M 9.421875 75.984375 
L 18.40625 75.984375 
L 18.40625 64.59375 
L 9.421875 64.59375 
z
" id="DejaVuSans-69"/>
      <path d="M 54.890625 33.015625 
L 54.890625 0 
L 45.90625 0 
L 45.90625 32.71875 
Q 45.90625 40.484375 42.875 44.328125 
Q 39.84375 48.1875 33.796875 48.1875 
Q 26.515625 48.1875 22.3125 43.546875 
Q 18.109375 38.921875 18.109375 30.90625 
L 18.109375 0 
L 9.078125 0 
L 9.078125 54.6875 
L 18.109375 54.6875 
L 18.109375 46.1875 
Q 21.34375 51.125 25.703125 53.5625 
Q 30.078125 56 35.796875 56 
Q 45.21875 56 50.046875 50.171875 
Q 54.890625 44.34375 54.890625 33.015625 
z
" id="DejaVuSans-6e"/>
      <path d="M 30.609375 48.390625 
Q 23.390625 48.390625 19.1875 42.75 
Q 14.984375 37.109375 14.984375 27.296875 
Q 14.984375 17.484375 19.15625 11.84375 
Q 23.34375 6.203125 30.609375 6.203125 
Q 37.796875 6.203125 41.984375 11.859375 
Q 46.1875 17.53125 46.1875 27.296875 
Q 46.1875 37.015625 41.984375 42.703125 
Q 37.796875 48.390625 30.609375 48.390625 
z
M 30.609375 56 
Q 42.328125 56 49.015625 48.375 
Q 55.71875 40.765625 55.71875 27.296875 
Q 55.71875 13.875 49.015625 6.21875 
Q 42.328125 -1.421875 30.609375 -1.421875 
Q 18.84375 -1.421875 12.171875 6.21875 
Q 5.515625 13.875 5.515625 27.296875 
Q 5.515625 40.765625 12.171875 48.375 
Q 18.84375 56 30.609375 56 
z
" id="DejaVuSans-6f"/>
      <path d="M 44.28125 53.078125 
L 44.28125 44.578125 
Q 40.484375 46.53125 36.375 47.5 
Q 32.28125 48.484375 27.875 48.484375 
Q 21.1875 48.484375 17.84375 46.4375 
Q 14.5 44.390625 14.5 40.28125 
Q 14.5 37.15625 16.890625 35.375 
Q 19.28125 33.59375 26.515625 31.984375 
L 29.59375 31.296875 
Q 39.15625 29.25 43.1875 25.515625 
Q 47.21875 21.78125 47.21875 15.09375 
Q 47.21875 7.46875 41.1875 3.015625 
Q 35.15625 -1.421875 24.609375 -1.421875 
Q 20.21875 -1.421875 15.453125 -0.5625 
Q 10.6875 0.296875 5.421875 2 
L 5.421875 11.28125 
Q 10.40625 8.6875 15.234375 7.390625 
Q 20.0625 6.109375 24.8125 6.109375 
Q 31.15625 6.109375 34.5625 8.28125 
Q 37.984375 10.453125 37.984375 14.40625 
Q 37.984375 18.0625 35.515625 20.015625 
Q 33.0625 21.96875 24.703125 23.78125 
L 21.578125 24.515625 
Q 13.234375 26.265625 9.515625 29.90625 
Q 5.8125 33.546875 5.8125 39.890625 
Q 5.8125 47.609375 11.28125 51.796875 
Q 16.75 56 26.8125 56 
Q 31.78125 56 36.171875 55.265625 
Q 40.578125 54.546875 44.28125 53.078125 
z
" id="DejaVuSans-73"/>
      <path d="M 32.171875 -5.078125 
Q 28.375 -14.84375 24.75 -17.8125 
Q 21.140625 -20.796875 15.09375 -20.796875 
L 7.90625 -20.796875 
L 7.90625 -13.28125 
L 13.1875 -13.28125 
Q 16.890625 -13.28125 18.9375 -11.515625 
Q 21 -9.765625 23.484375 -3.21875 
L 25.09375 0.875 
L 2.984375 54.6875 
L 12.5 54.6875 
L 29.59375 11.921875 
L 46.6875 54.6875 
L 56.203125 54.6875 
z
" id="DejaVuSans-79"/>
     </defs>
     <g transform="translate(36.113729 318.399375)rotate(-90)scale(0.2 -0.2)">
      <use xlink:href="#DejaVuSans-4c"/>
      <use x="55.697266" xlink:href="#DejaVuSans-75"/>
      <use x="119.076172" xlink:href="#DejaVuSans-6d"/>
      <use x="216.488281" xlink:href="#DejaVuSans-69"/>
      <use x="244.271484" xlink:href="#DejaVuSans-6e"/>
      <use x="307.650391" xlink:href="#DejaVuSans-6f"/>
      <use x="368.832031" xlink:href="#DejaVuSans-73"/>
      <use x="420.931641" xlink:href="#DejaVuSans-69"/>
      <use x="448.714844" xlink:href="#DejaVuSans-74"/>
      <use x="487.923828" xlink:href="#DejaVuSans-79"/>
     </g>
    </g>
   </g>
   <g id="patch_3">
    <path d="M 98.273104 504.52 
L 98.273104 22.86 
" style="fill:none;stroke:#000000;stroke-linecap:square;stroke-linejoin:miter;stroke-width:0.8;"/>
   </g>
   <g id="patch_4">
    <path d="M 553.14 504.52 
L 553.14 22.86 
" style="fill:none;stroke:#000000;stroke-linecap:square;stroke-linejoin:miter;stroke-width:0.8;"/>
   </g>
   <g id="patch_5">
    <path d="M 98.273104 504.52 
L 553.14 504.52 
" style="fill:none;stroke:#000000;stroke-linecap:square;stroke-linejoin:miter;stroke-width:0.8;"/>
   </g>
   <g id="patch_6">
    <path d="M 98.273104 22.86 
L 553.14 22.86 
" style="fill:none;stroke:#000000;stroke-linecap:square;stroke-linejoin:miter;stroke-width:0.8;"/>
   </g>
  </g>
 </g>
 <defs>
  <clipPath id="p7418a69005">
   <rect height="481.66" width="454.866896" x="98.273104" y="22.86"/>
  </clipPath>
 </defs>
</svg>
