<?xml version="1.0" encoding="utf-8" standalone="no"?>
<!DOCTYPE svg PUBLIC "-//W3C//DTD SVG 1.1//EN"
  "http://www.w3.org/Graphics/SVG/1.1/DTD/svg11.dtd">
<!-- Created with matplotlib (https://matplotlib.org/) -->
<svg height="568.8pt" version="1.1" viewBox="0 0 576 568.8" width="576pt" xmlns="http://www.w3.org/2000/svg" xmlns:xlink="http://www.w3.org/1999/xlink">
 <defs>
  <style type="text/css">
*{stroke-linecap:butt;stroke-linejoin:round;}
  </style>
 </defs>
 <g id="figure_1">
  <g id="patch_1">
   <path d="M 0 568.8 
L 576 568.8 
L 576 0 
L 0 0 
z
" style="fill:#ffffff;"/>
  </g>
  <g id="axes_1">
   <g id="patch_2">
    <path d="M 89.564476 499.32 
L 522.6525 499.32 
L 522.6525 31.57875 
L 89.564476 31.57875 
z
" style="fill:#ffffff;"/>
   </g>
   <g id="PathCollection_1">
    <path clip-path="url(#p6c75ed1263)" d="M 196.93627 305.703661 
C 197.201473 305.703661 197.45585 305.598295 197.643377 305.410768 
C 197.830903 305.223241 197.93627 304.968864 197.93627 304.703661 
C 197.93627 304.438458 197.830903 304.184081 197.643377 303.996554 
C 197.45585 303.809027 197.201473 303.703661 196.93627 303.703661 
C 196.671067 303.703661 196.41669 303.809027 196.229163 303.996554 
C 196.041636 304.184081 195.93627 304.438458 195.93627 304.703661 
C 195.93627 304.968864 196.041636 305.223241 196.229163 305.410768 
C 196.41669 305.598295 196.671067 305.703661 196.93627 305.703661 
z
" style="fill:#ffe4c5;stroke:#000000;"/>
    <path clip-path="url(#p6c75ed1263)" d="M 198.089152 302.416356 
C 198.360418 302.416356 198.620611 302.30858 198.812425 302.116766 
C 199.00424 301.924951 199.112015 301.664759 199.112015 301.393492 
C 199.112015 301.122225 199.00424 300.862033 198.812425 300.670218 
C 198.620611 300.478404 198.360418 300.370628 198.089152 300.370628 
C 197.817885 300.370628 197.557692 300.478404 197.365878 300.670218 
C 197.174063 300.862033 197.066288 301.122225 197.066288 301.393492 
C 197.066288 301.664759 197.174063 301.924951 197.365878 302.116766 
C 197.557692 302.30858 197.817885 302.416356 198.089152 302.416356 
z
" style="fill:#ffe9ce;stroke:#000000;"/>
    <path clip-path="url(#p6c75ed1263)" d="M 199.279826 299.344429 
C 199.557024 299.344429 199.822906 299.234298 200.018914 299.038289 
C 200.214922 298.842281 200.325054 298.5764 200.325054 298.299202 
C 200.325054 298.022005 200.214922 297.756123 200.018914 297.560115 
C 199.822906 297.364107 199.557024 297.253975 199.279826 297.253975 
C 199.002629 297.253975 198.736747 297.364107 198.540739 297.560115 
C 198.344731 297.756123 198.234599 298.022005 198.234599 298.299202 
C 198.234599 298.5764 198.344731 298.842281 198.540739 299.038289 
C 198.736747 299.234298 199.002629 299.344429 199.279826 299.344429 
z
" style="fill:#ffeed8;stroke:#000000;"/>
    <path clip-path="url(#p6c75ed1263)" d="M 200.331376 296.236642 
C 200.614535 296.236642 200.886136 296.124142 201.086359 295.923918 
C 201.286583 295.723694 201.399084 295.452094 201.399084 295.168935 
C 201.399084 294.885775 201.286583 294.614175 201.086359 294.413951 
C 200.886136 294.213727 200.614535 294.101227 200.331376 294.101227 
C 200.048217 294.101227 199.776617 294.213727 199.576393 294.413951 
C 199.376169 294.614175 199.263668 294.885775 199.263668 295.168935 
C 199.263668 295.452094 199.376169 295.723694 199.576393 295.923918 
C 199.776617 296.124142 200.048217 296.236642 200.331376 296.236642 
z
" style="fill:#fff2e1;stroke:#000000;"/>
    <path clip-path="url(#p6c75ed1263)" d="M 201.412408 293.343698 
C 201.701254 293.343698 201.978309 293.228939 202.182554 293.024694 
C 202.386799 292.820448 202.501559 292.543394 202.501559 292.254547 
C 202.501559 291.965701 202.386799 291.688646 202.182554 291.484401 
C 201.978309 291.280156 201.701254 291.165396 201.412408 291.165396 
C 201.123562 291.165396 200.846507 291.280156 200.642262 291.484401 
C 200.438017 291.688646 200.323257 291.965701 200.323257 292.254547 
C 200.323257 292.543394 200.438017 292.820448 200.642262 293.024694 
C 200.846507 293.228939 201.123562 293.343698 201.412408 293.343698 
z
" style="fill:#fff4e8;stroke:#000000;"/>
    <path clip-path="url(#p6c75ed1263)" d="M 203.281838 287.80845 
C 203.581734 287.80845 203.869388 287.6893 204.081447 287.477241 
C 204.293506 287.265182 204.412656 286.977528 204.412656 286.677632 
C 204.412656 286.377735 204.293506 286.090081 204.081447 285.878023 
C 203.869388 285.665964 203.581734 285.546814 203.281838 285.546814 
C 202.981941 285.546814 202.694287 285.665964 202.482228 285.878023 
C 202.270169 286.090081 202.151019 286.377735 202.151019 286.677632 
C 202.151019 286.977528 202.270169 287.265182 202.482228 287.477241 
C 202.694287 287.6893 202.981941 287.80845 203.281838 287.80845 
z
" style="fill:#fff5ed;stroke:#000000;"/>
    <path clip-path="url(#p6c75ed1263)" d="M 205.039548 282.560096 
C 205.350244 282.560096 205.648256 282.436655 205.86795 282.216961 
C 206.087645 281.997266 206.211086 281.699254 206.211086 281.388558 
C 206.211086 281.077863 206.087645 280.779851 205.86795 280.560156 
C 205.648256 280.340461 205.350244 280.217021 205.039548 280.217021 
C 204.728853 280.217021 204.430841 280.340461 204.211146 280.560156 
C 203.991451 280.779851 203.868011 281.077863 203.868011 281.388558 
C 203.868011 281.699254 203.991451 281.997266 204.211146 282.216961 
C 204.430841 282.436655 204.728853 282.560096 205.039548 282.560096 
z
" style="fill:#fff7f2;stroke:#000000;"/>
    <path clip-path="url(#p6c75ed1263)" d="M 207.499381 274.609986 
C 207.829556 274.609986 208.146253 274.478806 208.379722 274.245337 
C 208.613191 274.011868 208.744371 273.695171 208.744371 273.364996 
C 208.744371 273.034821 208.613191 272.718124 208.379722 272.484655 
C 208.146253 272.251186 207.829556 272.120006 207.499381 272.120006 
C 207.169206 272.120006 206.852509 272.251186 206.61904 272.484655 
C 206.385571 272.718124 206.254391 273.034821 206.254391 273.364996 
C 206.254391 273.695171 206.385571 274.011868 206.61904 274.245337 
C 206.852509 274.478806 207.169206 274.609986 207.499381 274.609986 
z
" style="fill:#fdf9fb;stroke:#000000;"/>
    <path clip-path="url(#p6c75ed1263)" d="M 209.435543 268.832369 
C 209.779286 268.832369 210.108996 268.695799 210.352058 268.452736 
C 210.595121 268.209674 210.731691 267.879964 210.731691 267.536221 
C 210.731691 267.192479 210.595121 266.862769 210.352058 266.619706 
C 210.108996 266.376643 209.779286 266.240073 209.435543 266.240073 
C 209.091801 266.240073 208.762091 266.376643 208.519028 266.619706 
C 208.275966 266.862769 208.139395 267.192479 208.139395 267.536221 
C 208.139395 267.879964 208.275966 268.209674 208.519028 268.452736 
C 208.762091 268.695799 209.091801 268.832369 209.435543 268.832369 
z
" style="fill:#f8f6ff;stroke:#000000;"/>
    <path clip-path="url(#p6c75ed1263)" d="M 211.798224 262.843877 
C 212.156861 262.843877 212.500858 262.701388 212.754453 262.447793 
C 213.008049 262.194198 213.150537 261.850201 213.150537 261.491564 
C 213.150537 261.132926 213.008049 260.788929 212.754453 260.535334 
C 212.500858 260.281739 212.156861 260.139251 211.798224 260.139251 
C 211.439586 260.139251 211.095589 260.281739 210.841994 260.535334 
C 210.588399 260.788929 210.445911 261.132926 210.445911 261.491564 
C 210.445911 261.850201 210.588399 262.194198 210.841994 262.447793 
C 211.095589 262.701388 211.439586 262.843877 211.798224 262.843877 
z
" style="fill:#f0f0ff;stroke:#000000;"/>
    <path clip-path="url(#p6c75ed1263)" d="M 215.50156 256.751855 
C 215.876262 256.751855 216.235668 256.602984 216.500622 256.33803 
C 216.765576 256.073075 216.914447 255.71367 216.914447 255.338968 
C 216.914447 254.964266 216.765576 254.60486 216.500622 254.339906 
C 216.235668 254.074951 215.876262 253.926081 215.50156 253.926081 
C 215.126858 253.926081 214.767452 254.074951 214.502498 254.339906 
C 214.237544 254.60486 214.088673 254.964266 214.088673 255.338968 
C 214.088673 255.71367 214.237544 256.073075 214.502498 256.33803 
C 214.767452 256.602984 215.126858 256.751855 215.50156 256.751855 
z
" style="fill:#e4e8ff;stroke:#000000;"/>
    <path clip-path="url(#p6c75ed1263)" d="M 220.147437 250.699682 
C 220.539229 250.699682 220.915027 250.544021 221.192066 250.266982 
C 221.469105 249.989943 221.624766 249.614145 221.624766 249.222353 
C 221.624766 248.830561 221.469105 248.454763 221.192066 248.177724 
C 220.915027 247.900685 220.539229 247.745024 220.147437 247.745024 
C 219.755645 247.745024 219.379847 247.900685 219.102808 248.177724 
C 218.825769 248.454763 218.670108 248.830561 218.670108 249.222353 
C 218.670108 249.614145 218.825769 249.989943 219.102808 250.266982 
C 219.379847 250.544021 219.755645 250.699682 220.147437 250.699682 
z
" style="fill:#d5dfff;stroke:#000000;"/>
    <path clip-path="url(#p6c75ed1263)" d="M 224.468526 245.400391 
C 224.876694 245.400391 225.268198 245.238225 225.556816 244.949607 
C 225.845434 244.660989 226.007601 244.269484 226.007601 243.861317 
C 226.007601 243.45315 225.845434 243.061645 225.556816 242.773027 
C 225.268198 242.484409 224.876694 242.322243 224.468526 242.322243 
C 224.060359 242.322243 223.668854 242.484409 223.380236 242.773027 
C 223.091618 243.061645 222.929452 243.45315 222.929452 243.861317 
C 222.929452 244.269484 223.091618 244.660989 223.380236 244.949607 
C 223.668854 245.238225 224.060359 245.400391 224.468526 245.400391 
z
" style="fill:#c8d6ff;stroke:#000000;"/>
    <path clip-path="url(#p6c75ed1263)" d="M 229.109363 240.104575 
C 229.534826 240.104575 229.942921 239.935537 230.243768 239.634689 
C 230.544616 239.333841 230.713654 238.925747 230.713654 238.500284 
C 230.713654 238.074821 230.544616 237.666727 230.243768 237.365879 
C 229.942921 237.065031 229.534826 236.895993 229.109363 236.895993 
C 228.6839 236.895993 228.275806 237.065031 227.974958 237.365879 
C 227.67411 237.666727 227.505072 238.074821 227.505072 238.500284 
C 227.505072 238.925747 227.67411 239.333841 227.974958 239.634689 
C 228.275806 239.935537 228.6839 240.104575 229.109363 240.104575 
z
" style="fill:#bed0ff;stroke:#000000;"/>
    <path clip-path="url(#p6c75ed1263)" d="M 239.089547 229.454825 
C 239.553273 229.454825 239.998069 229.270584 240.325973 228.94268 
C 240.653877 228.614776 240.838118 228.16998 240.838118 227.706254 
C 240.838118 227.242528 240.653877 226.797732 240.325973 226.469828 
C 239.998069 226.141924 239.553273 225.957683 239.089547 225.957683 
C 238.625821 225.957683 238.181025 226.141924 237.853121 226.469828 
C 237.525216 226.797732 237.340976 227.242528 237.340976 227.706254 
C 237.340976 228.16998 237.525216 228.614776 237.853121 228.94268 
C 238.181025 229.270584 238.625821 229.454825 239.089547 229.454825 
z
" style="fill:#b9cbff;stroke:#000000;"/>
    <path clip-path="url(#p6c75ed1263)" d="M 256.680491 212.173123 
C 257.217569 212.173123 257.732721 211.95974 258.112492 211.579969 
C 258.492263 211.200198 258.705646 210.685046 258.705646 210.147969 
C 258.705646 209.610892 258.492263 209.095739 258.112492 208.715968 
C 257.732721 208.336198 257.217569 208.122815 256.680491 208.122815 
C 256.143414 208.122815 255.628262 208.336198 255.248491 208.715968 
C 254.86872 209.095739 254.655337 209.610892 254.655337 210.147969 
C 254.655337 210.685046 254.86872 211.200198 255.248491 211.579969 
C 255.628262 211.95974 256.143414 212.173123 256.680491 212.173123 
z
" style="fill:#b7c9ff;stroke:#000000;"/>
    <path clip-path="url(#p6c75ed1263)" d="M 277.204049 194.7024 
C 277.831144 194.7024 278.432639 194.453253 278.876061 194.00983 
C 279.319484 193.566407 279.568632 192.964912 279.568632 192.337818 
C 279.568632 191.710723 279.319484 191.109228 278.876061 190.665805 
C 278.432639 190.222383 277.831144 189.973235 277.204049 189.973235 
C 276.576955 189.973235 275.97546 190.222383 275.532037 190.665805 
C 275.088614 191.109228 274.839467 191.710723 274.839467 192.337818 
C 274.839467 192.964912 275.088614 193.566407 275.532037 194.00983 
C 275.97546 194.453253 276.576955 194.7024 277.204049 194.7024 
z
" style="fill:#b3c7ff;stroke:#000000;"/>
    <path clip-path="url(#p6c75ed1263)" d="M 294.615161 181.938107 
C 295.320882 181.938107 295.997795 181.657721 296.496815 181.1587 
C 296.995836 180.65968 297.276222 179.982767 297.276222 179.277045 
C 297.276222 178.571324 296.995836 177.894411 296.496815 177.395391 
C 295.997795 176.89637 295.320882 176.615984 294.615161 176.615984 
C 293.909439 176.615984 293.232526 176.89637 292.733506 177.395391 
C 292.234485 177.894411 291.954099 178.571324 291.954099 179.277045 
C 291.954099 179.982767 292.234485 180.65968 292.733506 181.1587 
C 293.232526 181.657721 293.909439 181.938107 294.615161 181.938107 
z
" style="fill:#b0c4ff;stroke:#000000;"/>
    <path clip-path="url(#p6c75ed1263)" d="M 309.801367 171.662548 
C 310.577794 171.662548 311.322525 171.35407 311.871542 170.805053 
C 312.420559 170.256036 312.729037 169.511305 312.729037 168.734878 
C 312.729037 167.958451 312.420559 167.21372 311.871542 166.664703 
C 311.322525 166.115686 310.577794 165.807208 309.801367 165.807208 
C 309.02494 165.807208 308.280209 166.115686 307.731192 166.664703 
C 307.182175 167.21372 306.873697 167.958451 306.873697 168.734878 
C 306.873697 169.511305 307.182175 170.256036 307.731192 170.805053 
C 308.280209 171.35407 309.02494 171.662548 309.801367 171.662548 
z
" style="fill:#adc1ff;stroke:#000000;"/>
    <path clip-path="url(#p6c75ed1263)" d="M 322.968032 163.343557 
C 323.809242 163.343557 324.616112 163.00934 325.210938 162.414515 
C 325.805763 161.819689 326.139979 161.01282 326.139979 160.171609 
C 326.139979 159.330399 325.805763 158.52353 325.210938 157.928704 
C 324.616112 157.333879 323.809242 156.999662 322.968032 156.999662 
C 322.126822 156.999662 321.319952 157.333879 320.725127 157.928704 
C 320.130301 158.52353 319.796085 159.330399 319.796085 160.171609 
C 319.796085 161.01282 320.130301 161.819689 320.725127 162.414515 
C 321.319952 163.00934 322.126822 163.343557 322.968032 163.343557 
z
" style="fill:#aabfff;stroke:#000000;"/>
    <path clip-path="url(#p6c75ed1263)" d="M 334.89683 156.266186 
C 335.79813 156.266186 336.662637 155.908095 337.299953 155.27078 
C 337.937269 154.633464 338.295359 153.768957 338.295359 152.867657 
C 338.295359 151.966356 337.937269 151.10185 337.299953 150.464534 
C 336.662637 149.827218 335.79813 149.469128 334.89683 149.469128 
C 333.99553 149.469128 333.131023 149.827218 332.493707 150.464534 
C 331.856391 151.10185 331.498301 151.966356 331.498301 152.867657 
C 331.498301 153.768957 331.856391 154.633464 332.493707 155.27078 
C 333.131023 155.908095 333.99553 156.266186 334.89683 156.266186 
z
" style="fill:#a8bdff;stroke:#000000;"/>
    <path clip-path="url(#p6c75ed1263)" d="M 345.579485 150.218039 
C 346.537112 150.218039 347.455646 149.837569 348.132791 149.160425 
C 348.809936 148.48328 349.190406 147.564745 349.190406 146.607118 
C 349.190406 145.649491 348.809936 144.730956 348.132791 144.053811 
C 347.455646 143.376666 346.537112 142.996197 345.579485 142.996197 
C 344.621857 142.996197 343.703323 143.376666 343.026178 144.053811 
C 342.349033 144.730956 341.968564 145.649491 341.968564 146.607118 
C 341.968564 147.564745 342.349033 148.48328 343.026178 149.160425 
C 343.703323 149.837569 344.621857 150.218039 345.579485 150.218039 
z
" style="fill:#a7bcff;stroke:#000000;"/>
    <path clip-path="url(#p6c75ed1263)" d="M 355.577516 144.733431 
C 356.58825 144.733431 357.557722 144.331862 358.272419 143.617166 
C 358.987115 142.902469 359.388684 141.932997 359.388684 140.922263 
C 359.388684 139.91153 358.987115 138.942057 358.272419 138.227361 
C 357.557722 137.512664 356.58825 137.111095 355.577516 137.111095 
C 354.566783 137.111095 353.59731 137.512664 352.882614 138.227361 
C 352.167917 138.942057 351.766349 139.91153 351.766349 140.922263 
C 351.766349 141.932997 352.167917 142.902469 352.882614 143.617166 
C 353.59731 144.331862 354.566783 144.733431 355.577516 144.733431 
z
" style="fill:#a6bcff;stroke:#000000;"/>
    <path clip-path="url(#p6c75ed1263)" d="M 364.712516 139.993925 
C 365.773577 139.993925 366.791322 139.572361 367.541606 138.822077 
C 368.291889 138.071794 368.713453 137.054048 368.713453 135.992987 
C 368.713453 134.931926 368.291889 133.914181 367.541606 133.163897 
C 366.791322 132.413614 365.773577 131.99205 364.712516 131.99205 
C 363.651455 131.99205 362.633709 132.413614 361.883426 133.163897 
C 361.133142 133.914181 360.711578 134.931926 360.711578 135.992987 
C 360.711578 137.054048 361.133142 138.071794 361.883426 138.822077 
C 362.633709 139.572361 363.651455 139.993925 364.712516 139.993925 
z
" style="fill:#a6bbff;stroke:#000000;"/>
    <path clip-path="url(#p6c75ed1263)" d="M 372.815082 135.71296 
C 373.924031 135.71296 374.987709 135.27237 375.771854 134.488225 
C 376.555999 133.70408 376.996589 132.640402 376.996589 131.531453 
C 376.996589 130.422504 376.555999 129.358826 375.771854 128.574681 
C 374.987709 127.790536 373.924031 127.349946 372.815082 127.349946 
C 371.706134 127.349946 370.642455 127.790536 369.85831 128.574681 
C 369.074165 129.358826 368.633575 130.422504 368.633575 131.531453 
C 368.633575 132.640402 369.074165 133.70408 369.85831 134.488225 
C 370.642455 135.27237 371.706134 135.71296 372.815082 135.71296 
z
" style="fill:#a5bbff;stroke:#000000;"/>
    <path clip-path="url(#p6c75ed1263)" d="M 380.232448 131.784036 
C 381.387224 131.784036 382.494859 131.325238 383.311409 130.508688 
C 384.127958 129.692138 384.586756 128.584504 384.586756 127.429728 
C 384.586756 126.274952 384.127958 125.167317 383.311409 124.350767 
C 382.494859 123.534217 381.387224 123.075419 380.232448 123.075419 
C 379.077672 123.075419 377.970037 123.534217 377.153487 124.350767 
C 376.336937 125.167317 375.87814 126.274952 375.87814 127.429728 
C 375.87814 128.584504 376.336937 129.692138 377.153487 130.508688 
C 377.970037 131.325238 379.077672 131.784036 380.232448 131.784036 
z
" style="fill:#a4baff;stroke:#000000;"/>
    <path clip-path="url(#p6c75ed1263)" d="M 386.871411 128.388346 
C 388.0703 128.388346 389.220248 127.912022 390.067991 127.064279 
C 390.915734 126.216536 391.392058 125.066588 391.392058 123.867699 
C 391.392058 122.668809 390.915734 121.518861 390.067991 120.671118 
C 389.220248 119.823375 388.0703 119.347051 386.871411 119.347051 
C 385.672521 119.347051 384.522574 119.823375 383.674831 120.671118 
C 382.827088 121.518861 382.350764 122.668809 382.350764 123.867699 
C 382.350764 125.066588 382.827088 126.216536 383.674831 127.064279 
C 384.522574 127.912022 385.672521 128.388346 386.871411 128.388346 
z
" style="fill:#a4baff;stroke:#000000;"/>
    <path clip-path="url(#p6c75ed1263)" d="M 393.17865 125.202363 
C 394.420016 125.202363 395.610706 124.709164 396.488484 123.831385 
C 397.366262 122.953607 397.859462 121.762917 397.859462 120.521551 
C 397.859462 119.280186 397.366262 118.089496 396.488484 117.211718 
C 395.610706 116.333939 394.420016 115.84074 393.17865 115.84074 
C 391.937284 115.84074 390.746594 116.333939 389.868816 117.211718 
C 388.991038 118.089496 388.497838 119.280186 388.497838 120.521551 
C 388.497838 121.762917 388.991038 122.953607 389.868816 123.831385 
C 390.746594 124.709164 391.937284 125.202363 393.17865 125.202363 
z
" style="fill:#a3baff;stroke:#000000;"/>
    <path clip-path="url(#p6c75ed1263)" d="M 399.115438 122.19058 
C 400.397771 122.19058 401.627756 121.681104 402.534502 120.774358 
C 403.441249 119.867611 403.950725 118.637627 403.950725 117.355293 
C 403.950725 116.07296 403.441249 114.842976 402.534502 113.936229 
C 401.627756 113.029483 400.397771 112.520006 399.115438 112.520006 
C 397.833105 112.520006 396.60312 113.029483 395.696374 113.936229 
C 394.789627 114.842976 394.280151 116.07296 394.280151 117.355293 
C 394.280151 118.637627 394.789627 119.867611 395.696374 120.774358 
C 396.60312 121.681104 397.833105 122.19058 399.115438 122.19058 
z
" style="fill:#a3b9ff;stroke:#000000;"/>
    <path clip-path="url(#p6c75ed1263)" d="M 404.644331 119.353681 
C 405.966296 119.353681 407.234295 118.828459 408.169065 117.893689 
C 409.103835 116.958919 409.629058 115.69092 409.629058 114.368955 
C 409.629058 113.04699 409.103835 111.778992 408.169065 110.844221 
C 407.234295 109.909451 405.966296 109.384229 404.644331 109.384229 
C 403.322366 109.384229 402.054368 109.909451 401.119597 110.844221 
C 400.184827 111.778992 399.659605 113.04699 399.659605 114.368955 
C 399.659605 115.69092 400.184827 116.958919 401.119597 117.893689 
C 402.054368 118.828459 403.322366 119.353681 404.644331 119.353681 
z
" style="fill:#a2b9ff;stroke:#000000;"/>
    <path clip-path="url(#p6c75ed1263)" d="M 409.160091 116.869666 
C 410.519855 116.869666 411.82411 116.329426 412.785609 115.367927 
C 413.747107 114.406429 414.287347 113.102174 414.287347 111.74241 
C 414.287347 110.382646 413.747107 109.078392 412.785609 108.116893 
C 411.82411 107.155395 410.519855 106.615155 409.160091 106.615155 
C 407.800327 106.615155 406.496073 107.155395 405.534574 108.116893 
C 404.573076 109.078392 404.032836 110.382646 404.032836 111.74241 
C 404.032836 113.102174 404.573076 114.406429 405.534574 115.367927 
C 406.496073 116.329426 407.800327 116.869666 409.160091 116.869666 
z
" style="fill:#a2b9ff;stroke:#000000;"/>
    <path clip-path="url(#p6c75ed1263)" d="M 413.180254 114.56073 
C 414.576542 114.56073 415.915831 114.005979 416.903156 113.018654 
C 417.890481 112.031328 418.445232 110.69204 418.445232 109.295751 
C 418.445232 107.899463 417.890481 106.560174 416.903156 105.572849 
C 415.915831 104.585524 414.576542 104.030773 413.180254 104.030773 
C 411.783965 104.030773 410.444677 104.585524 409.457351 105.572849 
C 408.470026 106.560174 407.915275 107.899463 407.915275 109.295751 
C 407.915275 110.69204 408.470026 112.031328 409.457351 113.018654 
C 410.444677 114.005979 411.783965 114.56073 413.180254 114.56073 
z
" style="fill:#a2b9ff;stroke:#000000;"/>
    <path clip-path="url(#p6c75ed1263)" d="M 417.265689 112.319446 
C 418.697356 112.319446 420.070578 111.750639 421.08292 110.738297 
C 422.095261 109.725956 422.664068 108.352734 422.664068 106.921067 
C 422.664068 105.4894 422.095261 104.116178 421.08292 103.103836 
C 420.070578 102.091495 418.697356 101.522688 417.265689 101.522688 
C 415.834022 101.522688 414.4608 102.091495 413.448458 103.103836 
C 412.436117 104.116178 411.86731 105.4894 411.86731 106.921067 
C 411.86731 108.352734 412.436117 109.725956 413.448458 110.738297 
C 414.4608 111.750639 415.834022 112.319446 417.265689 112.319446 
z
" style="fill:#a1b8ff;stroke:#000000;"/>
    <path clip-path="url(#p6c75ed1263)" d="M 420.820366 110.181988 
C 422.286318 110.181988 423.692426 109.599559 424.729011 108.562975 
C 425.765595 107.52639 426.348024 106.120282 426.348024 104.65433 
C 426.348024 103.188378 425.765595 101.78227 424.729011 100.745686 
C 423.692426 99.709101 422.286318 99.126672 420.820366 99.126672 
C 419.354414 99.126672 417.948306 99.709101 416.911722 100.745686 
C 415.875137 101.78227 415.292708 103.188378 415.292708 104.65433 
C 415.292708 106.120282 415.875137 107.52639 416.911722 108.562975 
C 417.948306 109.599559 419.354414 110.181988 420.820366 110.181988 
z
" style="fill:#a1b8ff;stroke:#000000;"/>
   </g>
   <g id="PathCollection_2">
    <path clip-path="url(#p6c75ed1263)" d="M 170.765276 452.298105 
C 170.85904 452.298105 170.948975 452.260852 171.015276 452.194552 
C 171.081577 452.128251 171.11883 452.038315 171.11883 451.944552 
C 171.11883 451.850788 171.081577 451.760852 171.015276 451.694552 
C 170.948975 451.628251 170.85904 451.590998 170.765276 451.590998 
C 170.671513 451.590998 170.581577 451.628251 170.515276 451.694552 
C 170.448975 451.760852 170.411723 451.850788 170.411723 451.944552 
C 170.411723 452.038315 170.448975 452.128251 170.515276 452.194552 
C 170.581577 452.260852 170.671513 452.298105 170.765276 452.298105 
z
" style="fill:#9b3921;stroke:#000000;"/>
    <path clip-path="url(#p6c75ed1263)" d="M 171.019037 449.294317 
C 171.114811 449.294317 171.206676 449.256266 171.274398 449.188543 
C 171.342121 449.12082 171.380172 449.028956 171.380172 448.933182 
C 171.380172 448.837407 171.342121 448.745543 171.274398 448.67782 
C 171.206676 448.610098 171.114811 448.572046 171.019037 448.572046 
C 170.923263 448.572046 170.831398 448.610098 170.763675 448.67782 
C 170.695953 448.745543 170.657901 448.837407 170.657901 448.933182 
C 170.657901 449.028956 170.695953 449.12082 170.763675 449.188543 
C 170.831398 449.256266 170.923263 449.294317 171.019037 449.294317 
z
" style="fill:#9f3b22;stroke:#000000;"/>
    <path clip-path="url(#p6c75ed1263)" d="M 171.279937 446.290692 
C 171.377765 446.290692 171.4716 446.251825 171.540775 446.18265 
C 171.60995 446.113475 171.648817 446.01964 171.648817 445.921812 
C 171.648817 445.823984 171.60995 445.730149 171.540775 445.660974 
C 171.4716 445.591799 171.377765 445.552932 171.279937 445.552932 
C 171.182109 445.552932 171.088274 445.591799 171.019099 445.660974 
C 170.949924 445.730149 170.911057 445.823984 170.911057 445.921812 
C 170.911057 446.01964 170.949924 446.113475 171.019099 446.18265 
C 171.088274 446.251825 171.182109 446.290692 171.279937 446.290692 
z
" style="fill:#a43d24;stroke:#000000;"/>
    <path clip-path="url(#p6c75ed1263)" d="M 171.548178 443.287233 
C 171.648104 443.287233 171.743951 443.247532 171.814609 443.176873 
C 171.885268 443.106215 171.924969 443.010368 171.924969 442.910442 
C 171.924969 442.810516 171.885268 442.714669 171.814609 442.64401 
C 171.743951 442.573352 171.648104 442.533651 171.548178 442.533651 
C 171.448252 442.533651 171.352405 442.573352 171.281746 442.64401 
C 171.211088 442.714669 171.171387 442.810516 171.171387 442.910442 
C 171.171387 443.010368 171.211088 443.106215 171.281746 443.176873 
C 171.352405 443.247532 171.448252 443.287233 171.548178 443.287233 
z
" style="fill:#a94025;stroke:#000000;"/>
    <path clip-path="url(#p6c75ed1263)" d="M 171.823965 440.283944 
C 171.926034 440.283944 172.023937 440.243391 172.096111 440.171217 
C 172.168284 440.099044 172.208837 440.001141 172.208837 439.899072 
C 172.208837 439.797003 172.168284 439.699101 172.096111 439.626927 
C 172.023937 439.554753 171.926034 439.514201 171.823965 439.514201 
C 171.721896 439.514201 171.623994 439.554753 171.55182 439.626927 
C 171.479646 439.699101 171.439094 439.797003 171.439094 439.899072 
C 171.439094 440.001141 171.479646 440.099044 171.55182 440.171217 
C 171.623994 440.243391 171.721896 440.283944 171.823965 440.283944 
z
" style="fill:#ae4227;stroke:#000000;"/>
    <path clip-path="url(#p6c75ed1263)" d="M 172.107512 437.280828 
C 172.21177 437.280828 172.311772 437.239405 172.385494 437.165684 
C 172.459215 437.091962 172.500637 436.99196 172.500637 436.887702 
C 172.500637 436.783444 172.459215 436.683442 172.385494 436.609721 
C 172.311772 436.535999 172.21177 436.494577 172.107512 436.494577 
C 172.003254 436.494577 171.903252 436.535999 171.829531 436.609721 
C 171.755809 436.683442 171.714387 436.783444 171.714387 436.887702 
C 171.714387 436.99196 171.755809 437.091962 171.829531 437.165684 
C 171.903252 437.239405 172.003254 437.280828 172.107512 437.280828 
z
" style="fill:#b34528;stroke:#000000;"/>
    <path clip-path="url(#p6c75ed1263)" d="M 172.399036 434.277888 
C 172.50553 434.277888 172.607677 434.235578 172.682979 434.160275 
C 172.758282 434.084973 172.800593 433.982826 172.800593 433.876332 
C 172.800593 433.769838 172.758282 433.667692 172.682979 433.592389 
C 172.607677 433.517087 172.50553 433.474776 172.399036 433.474776 
C 172.292542 433.474776 172.190396 433.517087 172.115093 433.592389 
C 172.039791 433.667692 171.99748 433.769838 171.99748 433.876332 
C 171.99748 433.982826 172.039791 434.084973 172.115093 434.160275 
C 172.190396 434.235578 172.292542 434.277888 172.399036 434.277888 
z
" style="fill:#b8472a;stroke:#000000;"/>
    <path clip-path="url(#p6c75ed1263)" d="M 172.698763 431.27513 
C 172.80754 431.27513 172.911878 431.231912 172.988795 431.154995 
C 173.065713 431.078077 173.10893 430.97374 173.10893 430.864963 
C 173.10893 430.756185 173.065713 430.651848 172.988795 430.57493 
C 172.911878 430.498013 172.80754 430.454795 172.698763 430.454795 
C 172.589985 430.454795 172.485648 430.498013 172.40873 430.57493 
C 172.331813 430.651848 172.288595 430.756185 172.288595 430.864963 
C 172.288595 430.97374 172.331813 431.078077 172.40873 431.154995 
C 172.485648 431.231912 172.589985 431.27513 172.698763 431.27513 
z
" style="fill:#be4a2b;stroke:#000000;"/>
    <path clip-path="url(#p6c75ed1263)" d="M 173.006922 428.272557 
C 173.118032 428.272557 173.224607 428.228412 173.303174 428.149845 
C 173.381741 428.071278 173.425886 427.964703 173.425886 427.853593 
C 173.425886 427.742482 173.381741 427.635907 173.303174 427.55734 
C 173.224607 427.478773 173.118032 427.434629 173.006922 427.434629 
C 172.895811 427.434629 172.789236 427.478773 172.710669 427.55734 
C 172.632102 427.635907 172.587958 427.742482 172.587958 427.853593 
C 172.587958 427.964703 172.632102 428.071278 172.710669 428.149845 
C 172.789236 428.228412 172.895811 428.272557 173.006922 428.272557 
z
" style="fill:#c34d2d;stroke:#000000;"/>
    <path clip-path="url(#p6c75ed1263)" d="M 173.323751 425.270172 
C 173.437244 425.270172 173.546104 425.22508 173.626356 425.144828 
C 173.706608 425.064576 173.7517 424.955716 173.7517 424.842223 
C 173.7517 424.728729 173.706608 424.619869 173.626356 424.539617 
C 173.546104 424.459365 173.437244 424.414274 173.323751 424.414274 
C 173.210257 424.414274 173.101397 424.459365 173.021145 424.539617 
C 172.940893 424.619869 172.895802 424.728729 172.895802 424.842223 
C 172.895802 424.955716 172.940893 425.064576 173.021145 425.144828 
C 173.101397 425.22508 173.210257 425.270172 173.323751 425.270172 
z
" style="fill:#ca502f;stroke:#000000;"/>
    <path clip-path="url(#p6c75ed1263)" d="M 173.649494 422.267979 
C 173.765421 422.267979 173.876616 422.221921 173.958589 422.139948 
C 174.040562 422.057975 174.08662 421.94678 174.08662 421.830853 
C 174.08662 421.714926 174.040562 421.603731 173.958589 421.521758 
C 173.876616 421.439785 173.765421 421.393727 173.649494 421.393727 
C 173.533566 421.393727 173.422372 421.439785 173.340399 421.521758 
C 173.258426 421.603731 173.212367 421.714926 173.212367 421.830853 
C 173.212367 421.94678 173.258426 422.057975 173.340399 422.139948 
C 173.422372 422.221921 173.533566 422.267979 173.649494 422.267979 
z
" style="fill:#d05331;stroke:#000000;"/>
    <path clip-path="url(#p6c75ed1263)" d="M 173.984401 419.265984 
C 174.102815 419.265984 174.216394 419.218938 174.300125 419.135207 
C 174.383856 419.051476 174.430902 418.937896 174.430902 418.819483 
C 174.430902 418.70107 174.383856 418.58749 174.300125 418.503759 
C 174.216394 418.420028 174.102815 418.372982 173.984401 418.372982 
C 173.865988 418.372982 173.752408 418.420028 173.668678 418.503759 
C 173.584947 418.58749 173.5379 418.70107 173.5379 418.819483 
C 173.5379 418.937896 173.584947 419.051476 173.668678 419.135207 
C 173.752408 419.218938 173.865988 419.265984 173.984401 419.265984 
z
" style="fill:#d65733;stroke:#000000;"/>
    <path clip-path="url(#p6c75ed1263)" d="M 174.328731 416.264189 
C 174.449684 416.264189 174.5657 416.216134 174.651226 416.130608 
C 174.736753 416.045081 174.784808 415.929066 174.784808 415.808113 
C 174.784808 415.68716 174.736753 415.571145 174.651226 415.485619 
C 174.5657 415.400092 174.449684 415.352037 174.328731 415.352037 
C 174.207779 415.352037 174.091763 415.400092 174.006237 415.485619 
C 173.92071 415.571145 173.872655 415.68716 173.872655 415.808113 
C 173.872655 415.929066 173.92071 416.045081 174.006237 416.130608 
C 174.091763 416.216134 174.207779 416.264189 174.328731 416.264189 
z
" style="fill:#dd5a35;stroke:#000000;"/>
    <path clip-path="url(#p6c75ed1263)" d="M 174.682749 413.2626 
C 174.806296 413.2626 174.924799 413.213515 175.01216 413.126154 
C 175.099521 413.038793 175.148606 412.92029 175.148606 412.796743 
C 175.148606 412.673197 175.099521 412.554693 175.01216 412.467333 
C 174.924799 412.379972 174.806296 412.330886 174.682749 412.330886 
C 174.559203 412.330886 174.440699 412.379972 174.353339 412.467333 
C 174.265978 412.554693 174.216892 412.673197 174.216892 412.796743 
C 174.216892 412.92029 174.265978 413.038793 174.353339 413.126154 
C 174.440699 413.213515 174.559203 413.2626 174.682749 413.2626 
z
" style="fill:#e55e37;stroke:#000000;"/>
    <path clip-path="url(#p6c75ed1263)" d="M 175.046727 410.261221 
C 175.172924 410.261221 175.293968 410.211083 175.383202 410.121849 
C 175.472437 410.032614 175.522575 409.91157 175.522575 409.785374 
C 175.522575 409.659177 175.472437 409.538133 175.383202 409.448898 
C 175.293968 409.359664 175.172924 409.309526 175.046727 409.309526 
C 174.920531 409.309526 174.799487 409.359664 174.710252 409.448898 
C 174.621018 409.538133 174.57088 409.659177 174.57088 409.785374 
C 174.57088 409.91157 174.621018 410.032614 174.710252 410.121849 
C 174.799487 410.211083 174.920531 410.261221 175.046727 410.261221 
z
" style="fill:#ec6239;stroke:#000000;"/>
    <path clip-path="url(#p6c75ed1263)" d="M 175.420946 407.260056 
C 175.549849 407.260056 175.673489 407.208842 175.764637 407.117695 
C 175.855785 407.026547 175.906998 406.902906 175.906998 406.774004 
C 175.906998 406.645101 175.855785 406.521461 175.764637 406.430313 
C 175.673489 406.339165 175.549849 406.287951 175.420946 406.287951 
C 175.292043 406.287951 175.168403 406.339165 175.077255 406.430313 
C 174.986107 406.521461 174.934894 406.645101 174.934894 406.774004 
C 174.934894 406.902906 174.986107 407.026547 175.077255 407.117695 
C 175.168403 407.208842 175.292043 407.260056 175.420946 407.260056 
z
" style="fill:#f4653c;stroke:#000000;"/>
    <path clip-path="url(#p6c75ed1263)" d="M 175.805693 404.25911 
C 175.93736 404.25911 176.063652 404.206798 176.156755 404.113695 
C 176.249857 404.020593 176.302169 403.894301 176.302169 403.762634 
C 176.302169 403.630967 176.249857 403.504675 176.156755 403.411572 
C 176.063652 403.31847 175.93736 403.266158 175.805693 403.266158 
C 175.674026 403.266158 175.547734 403.31847 175.454631 403.411572 
C 175.361529 403.504675 175.309217 403.630967 175.309217 403.762634 
C 175.309217 403.894301 175.361529 404.020593 175.454631 404.113695 
C 175.547734 404.206798 175.674026 404.25911 175.805693 404.25911 
z
" style="fill:#fc6a3e;stroke:#000000;"/>
    <path clip-path="url(#p6c75ed1263)" d="M 176.201265 401.258387 
C 176.335756 401.258387 176.464756 401.204953 176.559855 401.109854 
C 176.654954 401.014755 176.708388 400.885755 176.708388 400.751264 
C 176.708388 400.616773 176.654954 400.487773 176.559855 400.392674 
C 176.464756 400.297574 176.335756 400.244141 176.201265 400.244141 
C 176.066774 400.244141 175.937774 400.297574 175.842675 400.392674 
C 175.747575 400.487773 175.694142 400.616773 175.694142 400.751264 
C 175.694142 400.885755 175.747575 401.014755 175.842675 401.109854 
C 175.937774 401.204953 176.066774 401.258387 176.201265 401.258387 
z
" style="fill:#ff6f42;stroke:#000000;"/>
    <path clip-path="url(#p6c75ed1263)" d="M 176.607966 398.257893 
C 176.745341 398.257893 176.877108 398.203313 176.974247 398.106174 
C 177.071385 398.009036 177.125965 397.877269 177.125965 397.739894 
C 177.125965 397.602519 177.071385 397.470752 176.974247 397.373614 
C 176.877108 397.276475 176.745341 397.221895 176.607966 397.221895 
C 176.470591 397.221895 176.338824 397.276475 176.241686 397.373614 
C 176.144547 397.470752 176.089967 397.602519 176.089967 397.739894 
C 176.089967 397.877269 176.144547 398.009036 176.241686 398.106174 
C 176.338824 398.203313 176.470591 398.257893 176.607966 398.257893 
z
" style="fill:#ff7546;stroke:#000000;"/>
    <path clip-path="url(#p6c75ed1263)" d="M 177.02611 395.257632 
C 177.166431 395.257632 177.301023 395.201882 177.400245 395.10266 
C 177.499467 395.003438 177.555217 394.868845 177.555217 394.728524 
C 177.555217 394.588203 177.499467 394.453611 177.400245 394.354389 
C 177.301023 394.255167 177.166431 394.199417 177.02611 394.199417 
C 176.885789 394.199417 176.751196 394.255167 176.651974 394.354389 
C 176.552752 394.453611 176.497002 394.588203 176.497002 394.728524 
C 176.497002 394.868845 176.552752 395.003438 176.651974 395.10266 
C 176.751196 395.201882 176.885789 395.257632 177.02611 395.257632 
z
" style="fill:#ff7c4b;stroke:#000000;"/>
    <path clip-path="url(#p6c75ed1263)" d="M 177.456018 392.257609 
C 177.599348 392.257609 177.736827 392.200663 177.838177 392.099313 
C 177.939527 391.997964 177.996472 391.860485 177.996472 391.717154 
C 177.996472 391.573824 177.939527 391.436345 177.838177 391.334995 
C 177.736827 391.233646 177.599348 391.1767 177.456018 391.1767 
C 177.312688 391.1767 177.175209 391.233646 177.073859 391.334995 
C 176.972509 391.436345 176.915563 391.573824 176.915563 391.717154 
C 176.915563 391.860485 176.972509 391.997964 177.073859 392.099313 
C 177.175209 392.200663 177.312688 392.257609 177.456018 392.257609 
z
" style="fill:#ff8350;stroke:#000000;"/>
    <path clip-path="url(#p6c75ed1263)" d="M 177.898021 389.257829 
C 178.044425 389.257829 178.184853 389.199662 178.288376 389.096139 
C 178.391899 388.992616 178.450066 388.852188 178.450066 388.705785 
C 178.450066 388.559381 178.391899 388.418953 178.288376 388.31543 
C 178.184853 388.211907 178.044425 388.15374 177.898021 388.15374 
C 177.751617 388.15374 177.61119 388.211907 177.507667 388.31543 
C 177.404143 388.418953 177.345977 388.559381 177.345977 388.705785 
C 177.345977 388.852188 177.404143 388.992616 177.507667 389.096139 
C 177.61119 389.199662 177.751617 389.257829 177.898021 389.257829 
z
" style="fill:#ff8a55;stroke:#000000;"/>
    <path clip-path="url(#p6c75ed1263)" d="M 178.35246 386.258298 
C 178.502004 386.258298 178.645443 386.198884 178.751186 386.093141 
C 178.85693 385.987397 178.916344 385.843958 178.916344 385.694415 
C 178.916344 385.544871 178.85693 385.401432 178.751186 385.295689 
C 178.645443 385.189945 178.502004 385.130531 178.35246 385.130531 
C 178.202917 385.130531 178.059478 385.189945 177.953734 385.295689 
C 177.847991 385.401432 177.788577 385.544871 177.788577 385.694415 
C 177.788577 385.843958 177.847991 385.987397 177.953734 386.093141 
C 178.059478 386.198884 178.202917 386.258298 178.35246 386.258298 
z
" style="fill:#ff915a;stroke:#000000;"/>
    <path clip-path="url(#p6c75ed1263)" d="M 178.819685 383.259021 
C 178.972436 383.259021 179.118951 383.198333 179.226962 383.090322 
C 179.334973 382.982311 179.395661 382.835796 179.395661 382.683045 
C 179.395661 382.530294 179.334973 382.383779 179.226962 382.275768 
C 179.118951 382.167757 178.972436 382.107068 178.819685 382.107068 
C 178.666934 382.107068 178.520419 382.167757 178.412408 382.275768 
C 178.304397 382.383779 178.243709 382.530294 178.243709 382.683045 
C 178.243709 382.835796 178.304397 382.982311 178.412408 383.090322 
C 178.520419 383.198333 178.666934 383.259021 178.819685 383.259021 
z
" style="fill:#ff9960;stroke:#000000;"/>
    <path clip-path="url(#p6c75ed1263)" d="M 179.300055 380.260003 
C 179.456081 380.260003 179.605739 380.198013 179.716066 380.087686 
C 179.826393 379.977359 179.888383 379.827701 179.888383 379.671675 
C 179.888383 379.515648 179.826393 379.365991 179.716066 379.255664 
C 179.605739 379.145336 179.456081 379.083346 179.300055 379.083346 
C 179.144028 379.083346 178.994371 379.145336 178.884044 379.255664 
C 178.773716 379.365991 178.711726 379.515648 178.711726 379.671675 
C 178.711726 379.827701 178.773716 379.977359 178.884044 380.087686 
C 178.994371 380.198013 179.144028 380.260003 179.300055 380.260003 
z
" style="fill:#ffa165;stroke:#000000;"/>
    <path clip-path="url(#p6c75ed1263)" d="M 179.79394 377.261251 
C 179.953313 377.261251 180.106179 377.197931 180.218873 377.085238 
C 180.331566 376.972544 180.394886 376.819678 180.394886 376.660305 
C 180.394886 376.500932 180.331566 376.348066 180.218873 376.235372 
C 180.106179 376.122679 179.953313 376.05936 179.79394 376.05936 
C 179.634567 376.05936 179.481701 376.122679 179.369007 376.235372 
C 179.256314 376.348066 179.192994 376.500932 179.192994 376.660305 
C 179.192994 376.819678 179.256314 376.972544 179.369007 377.085238 
C 179.481701 377.197931 179.634567 377.261251 179.79394 377.261251 
z
" style="fill:#ffa96b;stroke:#000000;"/>
    <path clip-path="url(#p6c75ed1263)" d="M 180.30172 374.262768 
C 180.464511 374.262768 180.620656 374.198091 180.735766 374.082981 
C 180.850876 373.967871 180.915553 373.811726 180.915553 373.648935 
C 180.915553 373.486145 180.850876 373.33 180.735766 373.21489 
C 180.620656 373.099779 180.464511 373.035102 180.30172 373.035102 
C 180.13893 373.035102 179.982785 373.099779 179.867675 373.21489 
C 179.752565 373.33 179.687887 373.486145 179.687887 373.648935 
C 179.687887 373.811726 179.752565 373.967871 179.867675 374.082981 
C 179.982785 374.198091 180.13893 374.262768 180.30172 374.262768 
z
" style="fill:#ffb171;stroke:#000000;"/>
    <path clip-path="url(#p6c75ed1263)" d="M 180.823787 371.264562 
C 180.990069 371.264562 181.149562 371.198498 181.267141 371.080919 
C 181.38472 370.96334 181.450784 370.803847 181.450784 370.637565 
C 181.450784 370.471284 181.38472 370.31179 181.267141 370.194211 
C 181.149562 370.076633 180.990069 370.010568 180.823787 370.010568 
C 180.657505 370.010568 180.498012 370.076633 180.380433 370.194211 
C 180.262854 370.31179 180.19679 370.471284 180.19679 370.637565 
C 180.19679 370.803847 180.262854 370.96334 180.380433 371.080919 
C 180.498012 371.198498 180.657505 371.264562 180.823787 371.264562 
z
" style="fill:#ffb474;stroke:#000000;"/>
    <path clip-path="url(#p6c75ed1263)" d="M 181.360542 368.266639 
C 181.53039 368.266639 181.693303 368.199158 181.813404 368.079057 
C 181.933504 367.958957 182.000985 367.796043 182.000985 367.626196 
C 182.000985 367.456348 181.933504 367.293434 181.813404 367.173334 
C 181.693303 367.053233 181.53039 366.985752 181.360542 366.985752 
C 181.190694 366.985752 181.027781 367.053233 180.90768 367.173334 
C 180.78758 367.293434 180.720099 367.456348 180.720099 367.626196 
C 180.720099 367.796043 180.78758 367.958957 180.90768 368.079057 
C 181.027781 368.199158 181.190694 368.266639 181.360542 368.266639 
z
" style="fill:#ffb777;stroke:#000000;"/>
    <path clip-path="url(#p6c75ed1263)" d="M 181.912398 365.269004 
C 182.085888 365.269004 182.252296 365.200075 182.374972 365.077399 
C 182.497648 364.954723 182.566576 364.788316 182.566576 364.614826 
C 182.566576 364.441336 182.497648 364.274928 182.374972 364.152252 
C 182.252296 364.029576 182.085888 363.960648 181.912398 363.960648 
C 181.738908 363.960648 181.572501 364.029576 181.449825 364.152252 
C 181.327149 364.274928 181.25822 364.441336 181.25822 364.614826 
C 181.25822 364.788316 181.327149 364.954723 181.449825 365.077399 
C 181.572501 365.200075 181.738908 365.269004 181.912398 365.269004 
z
" style="fill:#ffb979;stroke:#000000;"/>
    <path clip-path="url(#p6c75ed1263)" d="M 182.479781 362.271663 
C 182.656992 362.271663 182.826968 362.201256 182.952275 362.07595 
C 183.077582 361.950643 183.147988 361.780666 183.147988 361.603456 
C 183.147988 361.426245 183.077582 361.256269 182.952275 361.130962 
C 182.826968 361.005655 182.656992 360.935249 182.479781 360.935249 
C 182.302571 360.935249 182.132594 361.005655 182.007287 361.130962 
C 181.881981 361.256269 181.811574 361.426245 181.811574 361.603456 
C 181.811574 361.780666 181.881981 361.950643 182.007287 362.07595 
C 182.132594 362.201256 182.302571 362.271663 182.479781 362.271663 
z
" style="fill:#ffbb7b;stroke:#000000;"/>
    <path clip-path="url(#p6c75ed1263)" d="M 183.063127 359.274623 
C 183.244138 359.274623 183.41776 359.202707 183.545754 359.074713 
C 183.673748 358.946719 183.745664 358.773097 183.745664 358.592086 
C 183.745664 358.411075 183.673748 358.237453 183.545754 358.109459 
C 183.41776 357.981465 183.244138 357.909549 183.063127 357.909549 
C 182.882116 357.909549 182.708495 357.981465 182.580501 358.109459 
C 182.452506 358.237453 182.38059 358.411075 182.38059 358.592086 
C 182.38059 358.773097 182.452506 358.946719 182.580501 359.074713 
C 182.708495 359.202707 182.882116 359.274623 183.063127 359.274623 
z
" style="fill:#ffbb7b;stroke:#000000;"/>
    <path clip-path="url(#p6c75ed1263)" d="M 183.662886 356.277891 
C 183.847778 356.277891 184.025123 356.204432 184.155862 356.073693 
C 184.286601 355.942954 184.36006 355.765609 184.36006 355.580716 
C 184.36006 355.395823 184.286601 355.218478 184.155862 355.087739 
C 184.025123 354.957 183.847778 354.883542 183.662886 354.883542 
C 183.477993 354.883542 183.300648 354.957 183.169909 355.087739 
C 183.03917 355.218478 182.965711 355.395823 182.965711 355.580716 
C 182.965711 355.765609 183.03917 355.942954 183.169909 356.073693 
C 183.300648 356.204432 183.477993 356.277891 183.662886 356.277891 
z
" style="fill:#ffbb7b;stroke:#000000;"/>
    <path clip-path="url(#p6c75ed1263)" d="M 184.279518 353.281472 
C 184.468376 353.281472 184.649524 353.206438 184.783067 353.072895 
C 184.91661 352.939352 184.991644 352.758204 184.991644 352.569346 
C 184.991644 352.380488 184.91661 352.19934 184.783067 352.065797 
C 184.649524 351.932254 184.468376 351.85722 184.279518 351.85722 
C 184.09066 351.85722 183.909512 351.932254 183.775969 352.065797 
C 183.642426 352.19934 183.567392 352.380488 183.567392 352.569346 
C 183.567392 352.758204 183.642426 352.939352 183.775969 353.072895 
C 183.909512 353.206438 184.09066 353.281472 184.279518 353.281472 
z
" style="fill:#ffbb7b;stroke:#000000;"/>
    <path clip-path="url(#p6c75ed1263)" d="M 184.913499 350.285374 
C 185.106407 350.285374 185.29144 350.208731 185.427847 350.072324 
C 185.564254 349.935918 185.640897 349.750884 185.640897 349.557976 
C 185.640897 349.365068 185.564254 349.180035 185.427847 349.043628 
C 185.29144 348.907222 185.106407 348.830579 184.913499 348.830579 
C 184.720591 348.830579 184.535558 348.907222 184.399151 349.043628 
C 184.262745 349.180035 184.186101 349.365068 184.186101 349.557976 
C 184.186101 349.750884 184.262745 349.935918 184.399151 350.072324 
C 184.535558 350.208731 184.720591 350.285374 184.913499 350.285374 
z
" style="fill:#ffbc7c;stroke:#000000;"/>
    <path clip-path="url(#p6c75ed1263)" d="M 185.565317 347.289604 
C 185.762362 347.289604 185.951364 347.211317 186.090696 347.071985 
C 186.230028 346.932653 186.308314 346.743652 186.308314 346.546606 
C 186.308314 346.349561 186.230028 346.16056 186.090696 346.021228 
C 185.951364 345.881896 185.762362 345.803609 185.565317 345.803609 
C 185.368272 345.803609 185.179271 345.881896 185.039939 346.021228 
C 184.900607 346.16056 184.82232 346.349561 184.82232 346.546606 
C 184.82232 346.743652 184.900607 346.932653 185.039939 347.071985 
C 185.179271 347.211317 185.368272 347.289604 185.565317 347.289604 
z
" style="fill:#ffbc7d;stroke:#000000;"/>
    <path clip-path="url(#p6c75ed1263)" d="M 186.235474 344.294168 
C 186.436745 344.294168 186.629799 344.214202 186.772119 344.071882 
C 186.91444 343.929562 186.994405 343.736508 186.994405 343.535237 
C 186.994405 343.333966 186.91444 343.140911 186.772119 342.998591 
C 186.629799 342.856271 186.436745 342.776306 186.235474 342.776306 
C 186.034203 342.776306 185.841149 342.856271 185.698829 342.998591 
C 185.556509 343.140911 185.476543 343.333966 185.476543 343.535237 
C 185.476543 343.736508 185.556509 343.929562 185.698829 344.071882 
C 185.841149 344.214202 186.034203 344.294168 186.235474 344.294168 
z
" style="fill:#ffbd7d;stroke:#000000;"/>
    <path clip-path="url(#p6c75ed1263)" d="M 186.924486 341.299074 
C 187.130073 341.299074 187.327268 341.217393 187.47264 341.072021 
C 187.618012 340.926649 187.699693 340.729454 187.699693 340.523867 
C 187.699693 340.31828 187.618012 340.121085 187.47264 339.975713 
C 187.327268 339.830341 187.130073 339.74866 186.924486 339.74866 
C 186.718899 339.74866 186.521704 339.830341 186.376332 339.975713 
C 186.23096 340.121085 186.149279 340.31828 186.149279 340.523867 
C 186.149279 340.729454 186.23096 340.926649 186.376332 341.072021 
C 186.521704 341.217393 186.718899 341.299074 186.924486 341.299074 
z
" style="fill:#ffbd7e;stroke:#000000;"/>
    <path clip-path="url(#p6c75ed1263)" d="M 187.632883 338.304328 
C 187.842879 338.304328 188.044302 338.220896 188.192792 338.072406 
C 188.341282 337.923917 188.424714 337.722493 188.424714 337.512497 
C 188.424714 337.302501 188.341282 337.101077 188.192792 336.952588 
C 188.044302 336.804098 187.842879 336.720665 187.632883 336.720665 
C 187.422887 336.720665 187.221463 336.804098 187.072973 336.952588 
C 186.924484 337.101077 186.841051 337.302501 186.841051 337.512497 
C 186.841051 337.722493 186.924484 337.923917 187.072973 338.072406 
C 187.221463 338.220896 187.422887 338.304328 187.632883 338.304328 
z
" style="fill:#ffbe7f;stroke:#000000;"/>
    <path clip-path="url(#p6c75ed1263)" d="M 188.36121 335.30994 
C 188.57571 335.30994 188.781453 335.224718 188.933127 335.073044 
C 189.084801 334.92137 189.170023 334.715627 189.170023 334.501127 
C 189.170023 334.286627 189.084801 334.080884 188.933127 333.92921 
C 188.781453 333.777536 188.57571 333.692314 188.36121 333.692314 
C 188.14671 333.692314 187.940967 333.777536 187.789293 333.92921 
C 187.637619 334.080884 187.552397 334.286627 187.552397 334.501127 
C 187.552397 334.715627 187.637619 334.92137 187.789293 335.073044 
C 187.940967 335.224718 188.14671 335.30994 188.36121 335.30994 
z
" style="fill:#ffc083;stroke:#000000;"/>
    <path clip-path="url(#p6c75ed1263)" d="M 189.110029 332.315915 
C 189.329129 332.315915 189.539284 332.228866 189.694211 332.073939 
C 189.849138 331.919012 189.936187 331.708857 189.936187 331.489757 
C 189.936187 331.270658 189.849138 331.060502 189.694211 330.905575 
C 189.539284 330.750648 189.329129 330.663599 189.110029 330.663599 
C 188.890929 330.663599 188.680774 330.750648 188.525847 330.905575 
C 188.37092 331.060502 188.283871 331.270658 188.283871 331.489757 
C 188.283871 331.708857 188.37092 331.919012 188.525847 332.073939 
C 188.680774 332.228866 188.890929 332.315915 189.110029 332.315915 
z
" style="fill:#ffc287;stroke:#000000;"/>
    <path clip-path="url(#p6c75ed1263)" d="M 189.879916 329.322263 
C 190.103714 329.322263 190.318376 329.233347 190.476626 329.075097 
C 190.634875 328.916848 190.723791 328.702186 190.723791 328.478387 
C 190.723791 328.254589 190.634875 328.039927 190.476626 327.881677 
C 190.318376 327.723428 190.103714 327.634512 189.879916 327.634512 
C 189.656117 327.634512 189.441455 327.723428 189.283206 327.881677 
C 189.124956 328.039927 189.03604 328.254589 189.03604 328.478387 
C 189.03604 328.702186 189.124956 328.916848 189.283206 329.075097 
C 189.441455 329.233347 189.656117 329.322263 189.879916 329.322263 
z
" style="fill:#ffc48b;stroke:#000000;"/>
    <path clip-path="url(#p6c75ed1263)" d="M 190.671463 326.32899 
C 190.900061 326.32899 191.119327 326.238167 191.28097 326.076524 
C 191.442613 325.914881 191.533436 325.695615 191.533436 325.467017 
C 191.533436 325.23842 191.442613 325.019154 191.28097 324.857511 
C 191.119327 324.695868 190.900061 324.605045 190.671463 324.605045 
C 190.442865 324.605045 190.223599 324.695868 190.061956 324.857511 
C 189.900313 325.019154 189.80949 325.23842 189.80949 325.467017 
C 189.80949 325.695615 189.900313 325.914881 190.061956 326.076524 
C 190.223599 326.238167 190.442865 326.32899 190.671463 326.32899 
z
" style="fill:#ffc68f;stroke:#000000;"/>
    <path clip-path="url(#p6c75ed1263)" d="M 191.48528 323.336106 
C 191.71878 323.336106 191.942749 323.243335 192.107858 323.078226 
C 192.272968 322.913116 192.365738 322.689148 192.365738 322.455648 
C 192.365738 322.222147 192.272968 321.998179 192.107858 321.83307 
C 191.942749 321.66796 191.71878 321.575189 191.48528 321.575189 
C 191.25178 321.575189 191.027812 321.66796 190.862702 321.83307 
C 190.697593 321.998179 190.604822 322.222147 190.604822 322.455648 
C 190.604822 322.689148 190.697593 322.913116 190.862702 323.078226 
C 191.027812 323.243335 191.25178 323.336106 191.48528 323.336106 
z
" style="fill:#ffc996;stroke:#000000;"/>
    <path clip-path="url(#p6c75ed1263)" d="M 192.321994 320.343618 
C 192.560502 320.343618 192.789273 320.248858 192.957924 320.080207 
C 193.126574 319.911557 193.221334 319.682786 193.221334 319.444278 
C 193.221334 319.20577 193.126574 318.976999 192.957924 318.808348 
C 192.789273 318.639698 192.560502 318.544938 192.321994 318.544938 
C 192.083486 318.544938 191.854715 318.639698 191.686065 318.808348 
C 191.517414 318.976999 191.422654 319.20577 191.422654 319.444278 
C 191.422654 319.682786 191.517414 319.911557 191.686065 320.080207 
C 191.854715 320.248858 192.083486 320.343618 192.321994 320.343618 
z
" style="fill:#ffce9e;stroke:#000000;"/>
    <path clip-path="url(#p6c75ed1263)" d="M 193.182249 317.351535 
C 193.425871 317.351535 193.659549 317.254743 193.831816 317.082475 
C 194.004083 316.910208 194.100876 316.676531 194.100876 316.432908 
C 194.100876 316.189285 194.004083 315.955608 193.831816 315.783341 
C 193.659549 315.611073 193.425871 315.514281 193.182249 315.514281 
C 192.938626 315.514281 192.704949 315.611073 192.532681 315.783341 
C 192.360414 315.955608 192.263622 316.189285 192.263622 316.432908 
C 192.263622 316.676531 192.360414 316.910208 192.532681 317.082475 
C 192.704949 317.254743 192.938626 317.351535 193.182249 317.351535 
z
" style="fill:#ffd3a7;stroke:#000000;"/>
    <path clip-path="url(#p6c75ed1263)" d="M 194.066706 314.359865 
C 194.315554 314.359865 194.554242 314.260997 194.730204 314.085036 
C 194.906166 313.909074 195.005034 313.670385 195.005034 313.421538 
C 195.005034 313.172691 194.906166 312.934002 194.730204 312.75804 
C 194.554242 312.582079 194.315554 312.483211 194.066706 312.483211 
C 193.817859 312.483211 193.57917 312.582079 193.403209 312.75804 
C 193.227247 312.934002 193.128379 313.172691 193.128379 313.421538 
C 193.128379 313.670385 193.227247 313.909074 193.403209 314.085036 
C 193.57917 314.260997 193.817859 314.359865 194.066706 314.359865 
z
" style="fill:#ffd8af;stroke:#000000;"/>
    <path clip-path="url(#p6c75ed1263)" d="M 194.976048 311.368618 
C 195.230232 311.368618 195.47404 311.26763 195.653775 311.087895 
C 195.83351 310.90816 195.934498 310.664352 195.934498 310.410168 
C 195.934498 310.155984 195.83351 309.912177 195.653775 309.732442 
C 195.47404 309.552706 195.230232 309.451718 194.976048 309.451718 
C 194.721864 309.451718 194.478057 309.552706 194.298321 309.732442 
C 194.118586 309.912177 194.017598 310.155984 194.017598 310.410168 
C 194.017598 310.664352 194.118586 310.90816 194.298321 311.087895 
C 194.478057 311.26763 194.721864 311.368618 194.976048 311.368618 
z
" style="fill:#ffdcb6;stroke:#000000;"/>
    <path clip-path="url(#p6c75ed1263)" d="M 195.910974 308.377803 
C 196.170609 308.377803 196.419645 308.274649 196.603235 308.091059 
C 196.786825 307.907469 196.889979 307.658433 196.889979 307.398798 
C 196.889979 307.139163 196.786825 306.890127 196.603235 306.706537 
C 196.419645 306.522948 196.170609 306.419794 195.910974 306.419794 
C 195.651339 306.419794 195.402303 306.522948 195.218713 306.706537 
C 195.035123 306.890127 194.931969 307.139163 194.931969 307.398798 
C 194.931969 307.658433 195.035123 307.907469 195.218713 308.091059 
C 195.402303 308.274649 195.651339 308.377803 195.910974 308.377803 
z
" style="fill:#ffe0be;stroke:#000000;"/>
    <path clip-path="url(#p6c75ed1263)" d="M 196.872204 305.387428 
C 197.137407 305.387428 197.391784 305.282062 197.579311 305.094535 
C 197.766838 304.907008 197.872204 304.652632 197.872204 304.387428 
C 197.872204 304.122225 197.766838 303.867849 197.579311 303.680322 
C 197.391784 303.492795 197.137407 303.387428 196.872204 303.387428 
C 196.607001 303.387428 196.352624 303.492795 196.165097 303.680322 
C 195.97757 303.867849 195.872204 304.122225 195.872204 304.387428 
C 195.872204 304.652632 195.97757 304.907008 196.165097 305.094535 
C 196.352624 305.282062 196.607001 305.387428 196.872204 305.387428 
z
" style="fill:#ffe4c5;stroke:#000000;"/>
   </g>
   <g id="PathCollection_3">
    <path clip-path="url(#p6c75ed1263)" d="M 423.331508 109.116975 
C 424.814039 109.116975 426.236048 108.52796 427.284355 107.479653 
C 428.332663 106.431345 428.921678 105.009336 428.921678 103.526805 
C 428.921678 102.044275 428.332663 100.622266 427.284355 99.573958 
C 426.236048 98.525651 424.814039 97.936636 423.331508 97.936636 
C 421.848978 97.936636 420.426968 98.525651 419.378661 99.573958 
C 418.330354 100.622266 417.741338 102.044275 417.741338 103.526805 
C 417.741338 105.009336 418.330354 106.431345 419.378661 107.479653 
C 420.426968 108.52796 421.848978 109.116975 423.331508 109.116975 
z
" style="fill:#a1b8ff;stroke:#000000;"/>
    <path clip-path="url(#p6c75ed1263)" d="M 440.685571 99.562011 
C 442.33955 99.562011 443.926009 98.904878 445.095549 97.735338 
C 446.265089 96.565798 446.922222 94.979339 446.922222 93.32536 
C 446.922222 91.671381 446.265089 90.084922 445.095549 88.915382 
C 443.926009 87.745843 442.33955 87.08871 440.685571 87.08871 
C 439.031592 87.08871 437.445133 87.745843 436.275593 88.915382 
C 435.106054 90.084922 434.448921 91.671381 434.448921 93.32536 
C 434.448921 94.979339 435.106054 96.565798 436.275593 97.735338 
C 437.445133 98.904878 439.031592 99.562011 440.685571 99.562011 
z
" style="fill:#a0b7ff;stroke:#000000;"/>
    <path clip-path="url(#p6c75ed1263)" d="M 459.190934 90.081809 
C 461.036189 90.081809 462.806116 89.348682 464.110908 88.043889 
C 465.415701 86.739097 466.148828 84.96917 466.148828 83.123915 
C 466.148828 81.27866 465.415701 79.508733 464.110908 78.203941 
C 462.806116 76.899149 461.036189 76.166021 459.190934 76.166021 
C 457.345679 76.166021 455.575752 76.899149 454.27096 78.203941 
C 452.966167 79.508733 452.23304 81.27866 452.23304 83.123915 
C 452.23304 84.96917 452.966167 86.739097 454.27096 88.043889 
C 455.575752 89.348682 457.345679 90.081809 459.190934 90.081809 
z
" style="fill:#9fb6ff;stroke:#000000;"/>
    <path clip-path="url(#p6c75ed1263)" d="M 478.923976 80.685017 
C 480.982627 80.685017 482.957239 79.867106 484.412925 78.411419 
C 485.868611 76.955733 486.686522 74.981121 486.686522 72.92247 
C 486.686522 70.863819 485.868611 68.889207 484.412925 67.433521 
C 482.957239 65.977834 480.982627 65.159923 478.923976 65.159923 
C 476.865324 65.159923 474.890713 65.977834 473.435026 67.433521 
C 471.97934 68.889207 471.161429 70.863819 471.161429 72.92247 
C 471.161429 74.981121 471.97934 76.955733 473.435026 78.411419 
C 474.890713 79.867106 476.865324 80.685017 478.923976 80.685017 
z
" style="fill:#9db4ff;stroke:#000000;"/>
    <path clip-path="url(#p6c75ed1263)" d="M 499.966143 71.381279 
C 502.262869 71.381279 504.465836 70.46878 506.089867 68.844749 
C 507.713898 67.220719 508.626397 65.017751 508.626397 62.721025 
C 508.626397 60.424299 507.713898 58.221331 506.089867 56.597301 
C 504.465836 54.97327 502.262869 54.060771 499.966143 54.060771 
C 497.669416 54.060771 495.466449 54.97327 493.842418 56.597301 
C 492.218387 58.221331 491.305888 60.424299 491.305888 62.721025 
C 491.305888 65.017751 492.218387 67.220719 493.842418 68.844749 
C 495.466449 70.46878 497.669416 71.381279 499.966143 71.381279 
z
" style="fill:#9cb3ff;stroke:#000000;"/>
   </g>
   <g id="patch_3">
    <path d="M 89.564476 499.32 
L 89.564476 31.57875 
" style="fill:none;stroke:#000000;stroke-linecap:square;stroke-linejoin:miter;"/>
   </g>
   <g id="patch_4">
    <path d="M 522.6525 499.32 
L 522.6525 31.57875 
" style="fill:none;stroke:#000000;stroke-linecap:square;stroke-linejoin:miter;"/>
   </g>
   <g id="patch_5">
    <path d="M 89.564476 499.32 
L 522.6525 499.32 
" style="fill:none;stroke:#000000;stroke-linecap:square;stroke-linejoin:miter;"/>
   </g>
   <g id="patch_6">
    <path d="M 89.564476 31.57875 
L 522.6525 31.57875 
" style="fill:none;stroke:#000000;stroke-linecap:square;stroke-linejoin:miter;"/>
   </g>
   <g id="matplotlib.axis_1">
    <g id="xtick_1">
     <g id="line2d_1">
      <defs>
       <path d="M 0 0 
L 0 -4 
" id="m5c512fcb54" style="stroke:#000000;stroke-width:0.5;"/>
      </defs>
      <g>
       <use style="stroke:#000000;stroke-width:0.5;" x="89.564476" xlink:href="#m5c512fcb54" y="499.32"/>
      </g>
     </g>
     <g id="line2d_2">
      <defs>
       <path d="M 0 0 
L 0 4 
" id="m3d3050706b" style="stroke:#000000;stroke-width:0.5;"/>
      </defs>
      <g>
       <use style="stroke:#000000;stroke-width:0.5;" x="89.564476" xlink:href="#m3d3050706b" y="31.57875"/>
      </g>
     </g>
     <g id="text_1">
      <!-- 10000 -->
      <defs>
       <path d="M 10.59375 35.5 
L 73.1875 35.5 
L 73.1875 27.203125 
L 10.59375 27.203125 
z
" id="DejaVuSans-8722"/>
       <path d="M 12.40625 8.296875 
L 28.515625 8.296875 
L 28.515625 63.921875 
L 10.984375 60.40625 
L 10.984375 69.390625 
L 28.421875 72.90625 
L 38.28125 72.90625 
L 38.28125 8.296875 
L 54.390625 8.296875 
L 54.390625 0 
L 12.40625 0 
z
" id="DejaVuSans-49"/>
       <path d="M 31.78125 66.40625 
Q 24.171875 66.40625 20.328125 58.90625 
Q 16.5 51.421875 16.5 36.375 
Q 16.5 21.390625 20.328125 13.890625 
Q 24.171875 6.390625 31.78125 6.390625 
Q 39.453125 6.390625 43.28125 13.890625 
Q 47.125 21.390625 47.125 36.375 
Q 47.125 51.421875 43.28125 58.90625 
Q 39.453125 66.40625 31.78125 66.40625 
z
M 31.78125 74.21875 
Q 44.046875 74.21875 50.515625 64.515625 
Q 56.984375 54.828125 56.984375 36.375 
Q 56.984375 17.96875 50.515625 8.265625 
Q 44.046875 -1.421875 31.78125 -1.421875 
Q 19.53125 -1.421875 13.0625 8.265625 
Q 6.59375 17.96875 6.59375 36.375 
Q 6.59375 54.828125 13.0625 64.515625 
Q 19.53125 74.21875 31.78125 74.21875 
z
" id="DejaVuSans-48"/>
      </defs>
      <g transform="translate(49.372288 518.516875)scale(0.2 -0.2)">
       <use xlink:href="#DejaVuSans-8722"/>
       <use x="83.789062" xlink:href="#DejaVuSans-49"/>
       <use x="147.412109" xlink:href="#DejaVuSans-48"/>
       <use x="211.035156" xlink:href="#DejaVuSans-48"/>
       <use x="274.658203" xlink:href="#DejaVuSans-48"/>
       <use x="338.28125" xlink:href="#DejaVuSans-48"/>
      </g>
     </g>
    </g>
    <g id="xtick_2">
     <g id="line2d_3">
      <g>
       <use style="stroke:#000000;stroke-width:0.5;" x="161.745813" xlink:href="#m5c512fcb54" y="499.32"/>
      </g>
     </g>
     <g id="line2d_4">
      <g>
       <use style="stroke:#000000;stroke-width:0.5;" x="161.745813" xlink:href="#m3d3050706b" y="31.57875"/>
      </g>
     </g>
     <g id="text_2">
      <!-- 0 -->
      <g transform="translate(155.383313 518.516875)scale(0.2 -0.2)">
       <use xlink:href="#DejaVuSans-48"/>
      </g>
     </g>
    </g>
    <g id="xtick_3">
     <g id="line2d_5">
      <g>
       <use style="stroke:#000000;stroke-width:0.5;" x="233.92715" xlink:href="#m5c512fcb54" y="499.32"/>
      </g>
     </g>
     <g id="line2d_6">
      <g>
       <use style="stroke:#000000;stroke-width:0.5;" x="233.92715" xlink:href="#m3d3050706b" y="31.57875"/>
      </g>
     </g>
     <g id="text_3">
      <!-- 10000 -->
      <g transform="translate(202.11465 518.516875)scale(0.2 -0.2)">
       <use xlink:href="#DejaVuSans-49"/>
       <use x="63.623047" xlink:href="#DejaVuSans-48"/>
       <use x="127.246094" xlink:href="#DejaVuSans-48"/>
       <use x="190.869141" xlink:href="#DejaVuSans-48"/>
       <use x="254.492188" xlink:href="#DejaVuSans-48"/>
      </g>
     </g>
    </g>
    <g id="xtick_4">
     <g id="line2d_7">
      <g>
       <use style="stroke:#000000;stroke-width:0.5;" x="306.108488" xlink:href="#m5c512fcb54" y="499.32"/>
      </g>
     </g>
     <g id="line2d_8">
      <g>
       <use style="stroke:#000000;stroke-width:0.5;" x="306.108488" xlink:href="#m3d3050706b" y="31.57875"/>
      </g>
     </g>
     <g id="text_4">
      <!-- 20000 -->
      <defs>
       <path d="M 19.1875 8.296875 
L 53.609375 8.296875 
L 53.609375 0 
L 7.328125 0 
L 7.328125 8.296875 
Q 12.9375 14.109375 22.625 23.890625 
Q 32.328125 33.6875 34.8125 36.53125 
Q 39.546875 41.84375 41.421875 45.53125 
Q 43.3125 49.21875 43.3125 52.78125 
Q 43.3125 58.59375 39.234375 62.25 
Q 35.15625 65.921875 28.609375 65.921875 
Q 23.96875 65.921875 18.8125 64.3125 
Q 13.671875 62.703125 7.8125 59.421875 
L 7.8125 69.390625 
Q 13.765625 71.78125 18.9375 73 
Q 24.125 74.21875 28.421875 74.21875 
Q 39.75 74.21875 46.484375 68.546875 
Q 53.21875 62.890625 53.21875 53.421875 
Q 53.21875 48.921875 51.53125 44.890625 
Q 49.859375 40.875 45.40625 35.40625 
Q 44.1875 33.984375 37.640625 27.21875 
Q 31.109375 20.453125 19.1875 8.296875 
z
" id="DejaVuSans-50"/>
      </defs>
      <g transform="translate(274.295988 518.516875)scale(0.2 -0.2)">
       <use xlink:href="#DejaVuSans-50"/>
       <use x="63.623047" xlink:href="#DejaVuSans-48"/>
       <use x="127.246094" xlink:href="#DejaVuSans-48"/>
       <use x="190.869141" xlink:href="#DejaVuSans-48"/>
       <use x="254.492188" xlink:href="#DejaVuSans-48"/>
      </g>
     </g>
    </g>
    <g id="xtick_5">
     <g id="line2d_9">
      <g>
       <use style="stroke:#000000;stroke-width:0.5;" x="378.289825" xlink:href="#m5c512fcb54" y="499.32"/>
      </g>
     </g>
     <g id="line2d_10">
      <g>
       <use style="stroke:#000000;stroke-width:0.5;" x="378.289825" xlink:href="#m3d3050706b" y="31.57875"/>
      </g>
     </g>
     <g id="text_5">
      <!-- 30000 -->
      <defs>
       <path d="M 40.578125 39.3125 
Q 47.65625 37.796875 51.625 33 
Q 55.609375 28.21875 55.609375 21.1875 
Q 55.609375 10.40625 48.1875 4.484375 
Q 40.765625 -1.421875 27.09375 -1.421875 
Q 22.515625 -1.421875 17.65625 -0.515625 
Q 12.796875 0.390625 7.625 2.203125 
L 7.625 11.71875 
Q 11.71875 9.328125 16.59375 8.109375 
Q 21.484375 6.890625 26.8125 6.890625 
Q 36.078125 6.890625 40.9375 10.546875 
Q 45.796875 14.203125 45.796875 21.1875 
Q 45.796875 27.640625 41.28125 31.265625 
Q 36.765625 34.90625 28.71875 34.90625 
L 20.21875 34.90625 
L 20.21875 43.015625 
L 29.109375 43.015625 
Q 36.375 43.015625 40.234375 45.921875 
Q 44.09375 48.828125 44.09375 54.296875 
Q 44.09375 59.90625 40.109375 62.90625 
Q 36.140625 65.921875 28.71875 65.921875 
Q 24.65625 65.921875 20.015625 65.03125 
Q 15.375 64.15625 9.8125 62.3125 
L 9.8125 71.09375 
Q 15.4375 72.65625 20.34375 73.4375 
Q 25.25 74.21875 29.59375 74.21875 
Q 40.828125 74.21875 47.359375 69.109375 
Q 53.90625 64.015625 53.90625 55.328125 
Q 53.90625 49.265625 50.4375 45.09375 
Q 46.96875 40.921875 40.578125 39.3125 
z
" id="DejaVuSans-51"/>
      </defs>
      <g transform="translate(346.477325 518.516875)scale(0.2 -0.2)">
       <use xlink:href="#DejaVuSans-51"/>
       <use x="63.623047" xlink:href="#DejaVuSans-48"/>
       <use x="127.246094" xlink:href="#DejaVuSans-48"/>
       <use x="190.869141" xlink:href="#DejaVuSans-48"/>
       <use x="254.492188" xlink:href="#DejaVuSans-48"/>
      </g>
     </g>
    </g>
    <g id="xtick_6">
     <g id="line2d_11">
      <g>
       <use style="stroke:#000000;stroke-width:0.5;" x="450.471163" xlink:href="#m5c512fcb54" y="499.32"/>
      </g>
     </g>
     <g id="line2d_12">
      <g>
       <use style="stroke:#000000;stroke-width:0.5;" x="450.471163" xlink:href="#m3d3050706b" y="31.57875"/>
      </g>
     </g>
     <g id="text_6">
      <!-- 40000 -->
      <defs>
       <path d="M 37.796875 64.3125 
L 12.890625 25.390625 
L 37.796875 25.390625 
z
M 35.203125 72.90625 
L 47.609375 72.90625 
L 47.609375 25.390625 
L 58.015625 25.390625 
L 58.015625 17.1875 
L 47.609375 17.1875 
L 47.609375 0 
L 37.796875 0 
L 37.796875 17.1875 
L 4.890625 17.1875 
L 4.890625 26.703125 
z
" id="DejaVuSans-52"/>
      </defs>
      <g transform="translate(418.658663 518.516875)scale(0.2 -0.2)">
       <use xlink:href="#DejaVuSans-52"/>
       <use x="63.623047" xlink:href="#DejaVuSans-48"/>
       <use x="127.246094" xlink:href="#DejaVuSans-48"/>
       <use x="190.869141" xlink:href="#DejaVuSans-48"/>
       <use x="254.492188" xlink:href="#DejaVuSans-48"/>
      </g>
     </g>
    </g>
    <g id="xtick_7">
     <g id="line2d_13">
      <g>
       <use style="stroke:#000000;stroke-width:0.5;" x="522.6525" xlink:href="#m5c512fcb54" y="499.32"/>
      </g>
     </g>
     <g id="line2d_14">
      <g>
       <use style="stroke:#000000;stroke-width:0.5;" x="522.6525" xlink:href="#m3d3050706b" y="31.57875"/>
      </g>
     </g>
     <g id="text_7">
      <!-- 50000 -->
      <defs>
       <path d="M 10.796875 72.90625 
L 49.515625 72.90625 
L 49.515625 64.59375 
L 19.828125 64.59375 
L 19.828125 46.734375 
Q 21.96875 47.46875 24.109375 47.828125 
Q 26.265625 48.1875 28.421875 48.1875 
Q 40.625 48.1875 47.75 41.5 
Q 54.890625 34.8125 54.890625 23.390625 
Q 54.890625 11.625 47.5625 5.09375 
Q 40.234375 -1.421875 26.90625 -1.421875 
Q 22.3125 -1.421875 17.546875 -0.640625 
Q 12.796875 0.140625 7.71875 1.703125 
L 7.71875 11.625 
Q 12.109375 9.234375 16.796875 8.0625 
Q 21.484375 6.890625 26.703125 6.890625 
Q 35.15625 6.890625 40.078125 11.328125 
Q 45.015625 15.765625 45.015625 23.390625 
Q 45.015625 31 40.078125 35.4375 
Q 35.15625 39.890625 26.703125 39.890625 
Q 22.75 39.890625 18.8125 39.015625 
Q 14.890625 38.140625 10.796875 36.28125 
z
" id="DejaVuSans-53"/>
      </defs>
      <g transform="translate(490.84 518.516875)scale(0.2 -0.2)">
       <use xlink:href="#DejaVuSans-53"/>
       <use x="63.623047" xlink:href="#DejaVuSans-48"/>
       <use x="127.246094" xlink:href="#DejaVuSans-48"/>
       <use x="190.869141" xlink:href="#DejaVuSans-48"/>
       <use x="254.492188" xlink:href="#DejaVuSans-48"/>
      </g>
     </g>
    </g>
    <g id="text_8">
     <!-- Temperature -->
     <defs>
      <path d="M -0.296875 72.90625 
L 61.375 72.90625 
L 61.375 64.59375 
L 35.5 64.59375 
L 35.5 0 
L 25.59375 0 
L 25.59375 64.59375 
L -0.296875 64.59375 
z
" id="DejaVuSans-84"/>
      <path d="M 56.203125 29.59375 
L 56.203125 25.203125 
L 14.890625 25.203125 
Q 15.484375 15.921875 20.484375 11.0625 
Q 25.484375 6.203125 34.421875 6.203125 
Q 39.59375 6.203125 44.453125 7.46875 
Q 49.3125 8.734375 54.109375 11.28125 
L 54.109375 2.78125 
Q 49.265625 0.734375 44.1875 -0.34375 
Q 39.109375 -1.421875 33.890625 -1.421875 
Q 20.796875 -1.421875 13.15625 6.1875 
Q 5.515625 13.8125 5.515625 26.8125 
Q 5.515625 40.234375 12.765625 48.109375 
Q 20.015625 56 32.328125 56 
Q 43.359375 56 49.78125 48.890625 
Q 56.203125 41.796875 56.203125 29.59375 
z
M 47.21875 32.234375 
Q 47.125 39.59375 43.09375 43.984375 
Q 39.0625 48.390625 32.421875 48.390625 
Q 24.90625 48.390625 20.390625 44.140625 
Q 15.875 39.890625 15.1875 32.171875 
z
" id="DejaVuSans-101"/>
      <path d="M 52 44.1875 
Q 55.375 50.25 60.0625 53.125 
Q 64.75 56 71.09375 56 
Q 79.640625 56 84.28125 50.015625 
Q 88.921875 44.046875 88.921875 33.015625 
L 88.921875 0 
L 79.890625 0 
L 79.890625 32.71875 
Q 79.890625 40.578125 77.09375 44.375 
Q 74.3125 48.1875 68.609375 48.1875 
Q 61.625 48.1875 57.5625 43.546875 
Q 53.515625 38.921875 53.515625 30.90625 
L 53.515625 0 
L 44.484375 0 
L 44.484375 32.71875 
Q 44.484375 40.625 41.703125 44.40625 
Q 38.921875 48.1875 33.109375 48.1875 
Q 26.21875 48.1875 22.15625 43.53125 
Q 18.109375 38.875 18.109375 30.90625 
L 18.109375 0 
L 9.078125 0 
L 9.078125 54.6875 
L 18.109375 54.6875 
L 18.109375 46.1875 
Q 21.1875 51.21875 25.484375 53.609375 
Q 29.78125 56 35.6875 56 
Q 41.65625 56 45.828125 52.96875 
Q 50 49.953125 52 44.1875 
z
" id="DejaVuSans-109"/>
      <path d="M 18.109375 8.203125 
L 18.109375 -20.796875 
L 9.078125 -20.796875 
L 9.078125 54.6875 
L 18.109375 54.6875 
L 18.109375 46.390625 
Q 20.953125 51.265625 25.265625 53.625 
Q 29.59375 56 35.59375 56 
Q 45.5625 56 51.78125 48.09375 
Q 58.015625 40.1875 58.015625 27.296875 
Q 58.015625 14.40625 51.78125 6.484375 
Q 45.5625 -1.421875 35.59375 -1.421875 
Q 29.59375 -1.421875 25.265625 0.953125 
Q 20.953125 3.328125 18.109375 8.203125 
z
M 48.6875 27.296875 
Q 48.6875 37.203125 44.609375 42.84375 
Q 40.53125 48.484375 33.40625 48.484375 
Q 26.265625 48.484375 22.1875 42.84375 
Q 18.109375 37.203125 18.109375 27.296875 
Q 18.109375 17.390625 22.1875 11.75 
Q 26.265625 6.109375 33.40625 6.109375 
Q 40.53125 6.109375 44.609375 11.75 
Q 48.6875 17.390625 48.6875 27.296875 
z
" id="DejaVuSans-112"/>
      <path d="M 41.109375 46.296875 
Q 39.59375 47.171875 37.8125 47.578125 
Q 36.03125 48 33.890625 48 
Q 26.265625 48 22.1875 43.046875 
Q 18.109375 38.09375 18.109375 28.8125 
L 18.109375 0 
L 9.078125 0 
L 9.078125 54.6875 
L 18.109375 54.6875 
L 18.109375 46.1875 
Q 20.953125 51.171875 25.484375 53.578125 
Q 30.03125 56 36.53125 56 
Q 37.453125 56 38.578125 55.875 
Q 39.703125 55.765625 41.0625 55.515625 
z
" id="DejaVuSans-114"/>
      <path d="M 34.28125 27.484375 
Q 23.390625 27.484375 19.1875 25 
Q 14.984375 22.515625 14.984375 16.5 
Q 14.984375 11.71875 18.140625 8.90625 
Q 21.296875 6.109375 26.703125 6.109375 
Q 34.1875 6.109375 38.703125 11.40625 
Q 43.21875 16.703125 43.21875 25.484375 
L 43.21875 27.484375 
z
M 52.203125 31.203125 
L 52.203125 0 
L 43.21875 0 
L 43.21875 8.296875 
Q 40.140625 3.328125 35.546875 0.953125 
Q 30.953125 -1.421875 24.3125 -1.421875 
Q 15.921875 -1.421875 10.953125 3.296875 
Q 6 8.015625 6 15.921875 
Q 6 25.140625 12.171875 29.828125 
Q 18.359375 34.515625 30.609375 34.515625 
L 43.21875 34.515625 
L 43.21875 35.40625 
Q 43.21875 41.609375 39.140625 45 
Q 35.0625 48.390625 27.6875 48.390625 
Q 23 48.390625 18.546875 47.265625 
Q 14.109375 46.140625 10.015625 43.890625 
L 10.015625 52.203125 
Q 14.9375 54.109375 19.578125 55.046875 
Q 24.21875 56 28.609375 56 
Q 40.484375 56 46.34375 49.84375 
Q 52.203125 43.703125 52.203125 31.203125 
z
" id="DejaVuSans-97"/>
      <path d="M 18.3125 70.21875 
L 18.3125 54.6875 
L 36.8125 54.6875 
L 36.8125 47.703125 
L 18.3125 47.703125 
L 18.3125 18.015625 
Q 18.3125 11.328125 20.140625 9.421875 
Q 21.96875 7.515625 27.59375 7.515625 
L 36.8125 7.515625 
L 36.8125 0 
L 27.59375 0 
Q 17.1875 0 13.234375 3.875 
Q 9.28125 7.765625 9.28125 18.015625 
L 9.28125 47.703125 
L 2.6875 47.703125 
L 2.6875 54.6875 
L 9.28125 54.6875 
L 9.28125 70.21875 
z
" id="DejaVuSans-116"/>
      <path d="M 8.5 21.578125 
L 8.5 54.6875 
L 17.484375 54.6875 
L 17.484375 21.921875 
Q 17.484375 14.15625 20.5 10.265625 
Q 23.53125 6.390625 29.59375 6.390625 
Q 36.859375 6.390625 41.078125 11.03125 
Q 45.3125 15.671875 45.3125 23.6875 
L 45.3125 54.6875 
L 54.296875 54.6875 
L 54.296875 0 
L 45.3125 0 
L 45.3125 8.40625 
Q 42.046875 3.421875 37.71875 1 
Q 33.40625 -1.421875 27.6875 -1.421875 
Q 18.265625 -1.421875 13.375 4.4375 
Q 8.5 10.296875 8.5 21.578125 
z
M 31.109375 56 
z
" id="DejaVuSans-117"/>
     </defs>
     <g transform="translate(242.769425 542.873125)scale(0.2 -0.2)">
      <use xlink:href="#DejaVuSans-84"/>
      <use x="44.083984" xlink:href="#DejaVuSans-101"/>
      <use x="105.607422" xlink:href="#DejaVuSans-109"/>
      <use x="203.019531" xlink:href="#DejaVuSans-112"/>
      <use x="266.496094" xlink:href="#DejaVuSans-101"/>
      <use x="328.019531" xlink:href="#DejaVuSans-114"/>
      <use x="369.132812" xlink:href="#DejaVuSans-97"/>
      <use x="430.412109" xlink:href="#DejaVuSans-116"/>
      <use x="469.621094" xlink:href="#DejaVuSans-117"/>
      <use x="533" xlink:href="#DejaVuSans-114"/>
      <use x="571.863281" xlink:href="#DejaVuSans-101"/>
     </g>
    </g>
   </g>
   <g id="matplotlib.axis_2">
    <g id="ytick_1">
     <g id="line2d_15">
      <defs>
       <path d="M 0 0 
L 4 0 
" id="m8974c0f05a" style="stroke:#000000;stroke-width:0.5;"/>
      </defs>
      <g>
       <use style="stroke:#000000;stroke-width:0.5;" x="89.564476" xlink:href="#m8974c0f05a" y="499.32"/>
      </g>
     </g>
     <g id="line2d_16">
      <defs>
       <path d="M 0 0 
L -4 0 
" id="m9f3b4f1b31" style="stroke:#000000;stroke-width:0.5;"/>
      </defs>
      <g>
       <use style="stroke:#000000;stroke-width:0.5;" x="522.6525" xlink:href="#m9f3b4f1b31" y="499.32"/>
      </g>
     </g>
     <g id="text_9">
      <!-- $\mathdefault{10^{-6}}$ -->
      <defs>
       <path d="M 4.890625 31.390625 
L 31.203125 31.390625 
L 31.203125 23.390625 
L 4.890625 23.390625 
z
" id="DejaVuSans-45"/>
       <path d="M 33.015625 40.375 
Q 26.375 40.375 22.484375 35.828125 
Q 18.609375 31.296875 18.609375 23.390625 
Q 18.609375 15.53125 22.484375 10.953125 
Q 26.375 6.390625 33.015625 6.390625 
Q 39.65625 6.390625 43.53125 10.953125 
Q 47.40625 15.53125 47.40625 23.390625 
Q 47.40625 31.296875 43.53125 35.828125 
Q 39.65625 40.375 33.015625 40.375 
z
M 52.59375 71.296875 
L 52.59375 62.3125 
Q 48.875 64.0625 45.09375 64.984375 
Q 41.3125 65.921875 37.59375 65.921875 
Q 27.828125 65.921875 22.671875 59.328125 
Q 17.53125 52.734375 16.796875 39.40625 
Q 19.671875 43.65625 24.015625 45.921875 
Q 28.375 48.1875 33.59375 48.1875 
Q 44.578125 48.1875 50.953125 41.515625 
Q 57.328125 34.859375 57.328125 23.390625 
Q 57.328125 12.15625 50.6875 5.359375 
Q 44.046875 -1.421875 33.015625 -1.421875 
Q 20.359375 -1.421875 13.671875 8.265625 
Q 6.984375 17.96875 6.984375 36.375 
Q 6.984375 53.65625 15.1875 63.9375 
Q 23.390625 74.21875 37.203125 74.21875 
Q 40.921875 74.21875 44.703125 73.484375 
Q 48.484375 72.75 52.59375 71.296875 
z
" id="DejaVuSans-54"/>
      </defs>
      <g transform="translate(45.364476 504.83875)scale(0.2 -0.2)">
       <use transform="translate(0 0.765625)" xlink:href="#DejaVuSans-49"/>
       <use transform="translate(63.623047 0.765625)" xlink:href="#DejaVuSans-48"/>
       <use transform="translate(128.203125 39.046875)scale(0.7)" xlink:href="#DejaVuSans-45"/>
       <use transform="translate(153.461914 39.046875)scale(0.7)" xlink:href="#DejaVuSans-54"/>
      </g>
     </g>
    </g>
    <g id="ytick_2">
     <g id="line2d_17">
      <g>
       <use style="stroke:#000000;stroke-width:0.5;" x="89.564476" xlink:href="#m8974c0f05a" y="463.339904"/>
      </g>
     </g>
     <g id="line2d_18">
      <g>
       <use style="stroke:#000000;stroke-width:0.5;" x="522.6525" xlink:href="#m9f3b4f1b31" y="463.339904"/>
      </g>
     </g>
     <g id="text_10">
      <!-- $\mathdefault{10^{-5}}$ -->
      <g transform="translate(45.364476 468.858654)scale(0.2 -0.2)">
       <use transform="translate(0 0.684375)" xlink:href="#DejaVuSans-49"/>
       <use transform="translate(63.623047 0.684375)" xlink:href="#DejaVuSans-48"/>
       <use transform="translate(128.203125 38.965625)scale(0.7)" xlink:href="#DejaVuSans-45"/>
       <use transform="translate(153.461914 38.965625)scale(0.7)" xlink:href="#DejaVuSans-53"/>
      </g>
     </g>
    </g>
    <g id="ytick_3">
     <g id="line2d_19">
      <g>
       <use style="stroke:#000000;stroke-width:0.5;" x="89.564476" xlink:href="#m8974c0f05a" y="427.359808"/>
      </g>
     </g>
     <g id="line2d_20">
      <g>
       <use style="stroke:#000000;stroke-width:0.5;" x="522.6525" xlink:href="#m9f3b4f1b31" y="427.359808"/>
      </g>
     </g>
     <g id="text_11">
      <!-- $\mathdefault{10^{-4}}$ -->
      <g transform="translate(45.364476 432.878558)scale(0.2 -0.2)">
       <use transform="translate(0 0.684375)" xlink:href="#DejaVuSans-49"/>
       <use transform="translate(63.623047 0.684375)" xlink:href="#DejaVuSans-48"/>
       <use transform="translate(128.203125 38.965625)scale(0.7)" xlink:href="#DejaVuSans-45"/>
       <use transform="translate(153.461914 38.965625)scale(0.7)" xlink:href="#DejaVuSans-52"/>
      </g>
     </g>
    </g>
    <g id="ytick_4">
     <g id="line2d_21">
      <g>
       <use style="stroke:#000000;stroke-width:0.5;" x="89.564476" xlink:href="#m8974c0f05a" y="391.379712"/>
      </g>
     </g>
     <g id="line2d_22">
      <g>
       <use style="stroke:#000000;stroke-width:0.5;" x="522.6525" xlink:href="#m9f3b4f1b31" y="391.379712"/>
      </g>
     </g>
     <g id="text_12">
      <!-- $\mathdefault{10^{-3}}$ -->
      <g transform="translate(45.364476 396.898462)scale(0.2 -0.2)">
       <use transform="translate(0 0.765625)" xlink:href="#DejaVuSans-49"/>
       <use transform="translate(63.623047 0.765625)" xlink:href="#DejaVuSans-48"/>
       <use transform="translate(128.203125 39.046875)scale(0.7)" xlink:href="#DejaVuSans-45"/>
       <use transform="translate(153.461914 39.046875)scale(0.7)" xlink:href="#DejaVuSans-51"/>
      </g>
     </g>
    </g>
    <g id="ytick_5">
     <g id="line2d_23">
      <g>
       <use style="stroke:#000000;stroke-width:0.5;" x="89.564476" xlink:href="#m8974c0f05a" y="355.399615"/>
      </g>
     </g>
     <g id="line2d_24">
      <g>
       <use style="stroke:#000000;stroke-width:0.5;" x="522.6525" xlink:href="#m9f3b4f1b31" y="355.399615"/>
      </g>
     </g>
     <g id="text_13">
      <!-- $\mathdefault{10^{-2}}$ -->
      <g transform="translate(45.364476 360.918365)scale(0.2 -0.2)">
       <use transform="translate(0 0.765625)" xlink:href="#DejaVuSans-49"/>
       <use transform="translate(63.623047 0.765625)" xlink:href="#DejaVuSans-48"/>
       <use transform="translate(128.203125 39.046875)scale(0.7)" xlink:href="#DejaVuSans-45"/>
       <use transform="translate(153.461914 39.046875)scale(0.7)" xlink:href="#DejaVuSans-50"/>
      </g>
     </g>
    </g>
    <g id="ytick_6">
     <g id="line2d_25">
      <g>
       <use style="stroke:#000000;stroke-width:0.5;" x="89.564476" xlink:href="#m8974c0f05a" y="319.419519"/>
      </g>
     </g>
     <g id="line2d_26">
      <g>
       <use style="stroke:#000000;stroke-width:0.5;" x="522.6525" xlink:href="#m9f3b4f1b31" y="319.419519"/>
      </g>
     </g>
     <g id="text_14">
      <!-- $\mathdefault{10^{-1}}$ -->
      <g transform="translate(45.364476 324.938269)scale(0.2 -0.2)">
       <use transform="translate(0 0.684375)" xlink:href="#DejaVuSans-49"/>
       <use transform="translate(63.623047 0.684375)" xlink:href="#DejaVuSans-48"/>
       <use transform="translate(128.203125 38.965625)scale(0.7)" xlink:href="#DejaVuSans-45"/>
       <use transform="translate(153.461914 38.965625)scale(0.7)" xlink:href="#DejaVuSans-49"/>
      </g>
     </g>
    </g>
    <g id="ytick_7">
     <g id="line2d_27">
      <g>
       <use style="stroke:#000000;stroke-width:0.5;" x="89.564476" xlink:href="#m8974c0f05a" y="283.439423"/>
      </g>
     </g>
     <g id="line2d_28">
      <g>
       <use style="stroke:#000000;stroke-width:0.5;" x="522.6525" xlink:href="#m9f3b4f1b31" y="283.439423"/>
      </g>
     </g>
     <g id="text_15">
      <!-- $\mathdefault{10^{0}}$ -->
      <g transform="translate(50.364476 288.958173)scale(0.2 -0.2)">
       <use transform="translate(0 0.765625)" xlink:href="#DejaVuSans-49"/>
       <use transform="translate(63.623047 0.765625)" xlink:href="#DejaVuSans-48"/>
       <use transform="translate(128.203125 39.046875)scale(0.7)" xlink:href="#DejaVuSans-48"/>
      </g>
     </g>
    </g>
    <g id="ytick_8">
     <g id="line2d_29">
      <g>
       <use style="stroke:#000000;stroke-width:0.5;" x="89.564476" xlink:href="#m8974c0f05a" y="247.459327"/>
      </g>
     </g>
     <g id="line2d_30">
      <g>
       <use style="stroke:#000000;stroke-width:0.5;" x="522.6525" xlink:href="#m9f3b4f1b31" y="247.459327"/>
      </g>
     </g>
     <g id="text_16">
      <!-- $\mathdefault{10^{1}}$ -->
      <g transform="translate(50.364476 252.978077)scale(0.2 -0.2)">
       <use transform="translate(0 0.684375)" xlink:href="#DejaVuSans-49"/>
       <use transform="translate(63.623047 0.684375)" xlink:href="#DejaVuSans-48"/>
       <use transform="translate(128.203125 38.965625)scale(0.7)" xlink:href="#DejaVuSans-49"/>
      </g>
     </g>
    </g>
    <g id="ytick_9">
     <g id="line2d_31">
      <g>
       <use style="stroke:#000000;stroke-width:0.5;" x="89.564476" xlink:href="#m8974c0f05a" y="211.479231"/>
      </g>
     </g>
     <g id="line2d_32">
      <g>
       <use style="stroke:#000000;stroke-width:0.5;" x="522.6525" xlink:href="#m9f3b4f1b31" y="211.479231"/>
      </g>
     </g>
     <g id="text_17">
      <!-- $\mathdefault{10^{2}}$ -->
      <g transform="translate(50.364476 216.997981)scale(0.2 -0.2)">
       <use transform="translate(0 0.765625)" xlink:href="#DejaVuSans-49"/>
       <use transform="translate(63.623047 0.765625)" xlink:href="#DejaVuSans-48"/>
       <use transform="translate(128.203125 39.046875)scale(0.7)" xlink:href="#DejaVuSans-50"/>
      </g>
     </g>
    </g>
    <g id="ytick_10">
     <g id="line2d_33">
      <g>
       <use style="stroke:#000000;stroke-width:0.5;" x="89.564476" xlink:href="#m8974c0f05a" y="175.499135"/>
      </g>
     </g>
     <g id="line2d_34">
      <g>
       <use style="stroke:#000000;stroke-width:0.5;" x="522.6525" xlink:href="#m9f3b4f1b31" y="175.499135"/>
      </g>
     </g>
     <g id="text_18">
      <!-- $\mathdefault{10^{3}}$ -->
      <g transform="translate(50.364476 181.017885)scale(0.2 -0.2)">
       <use transform="translate(0 0.765625)" xlink:href="#DejaVuSans-49"/>
       <use transform="translate(63.623047 0.765625)" xlink:href="#DejaVuSans-48"/>
       <use transform="translate(128.203125 39.046875)scale(0.7)" xlink:href="#DejaVuSans-51"/>
      </g>
     </g>
    </g>
    <g id="ytick_11">
     <g id="line2d_35">
      <g>
       <use style="stroke:#000000;stroke-width:0.5;" x="89.564476" xlink:href="#m8974c0f05a" y="139.519038"/>
      </g>
     </g>
     <g id="line2d_36">
      <g>
       <use style="stroke:#000000;stroke-width:0.5;" x="522.6525" xlink:href="#m9f3b4f1b31" y="139.519038"/>
      </g>
     </g>
     <g id="text_19">
      <!-- $\mathdefault{10^{4}}$ -->
      <g transform="translate(50.364476 145.037788)scale(0.2 -0.2)">
       <use transform="translate(0 0.684375)" xlink:href="#DejaVuSans-49"/>
       <use transform="translate(63.623047 0.684375)" xlink:href="#DejaVuSans-48"/>
       <use transform="translate(128.203125 38.965625)scale(0.7)" xlink:href="#DejaVuSans-52"/>
      </g>
     </g>
    </g>
    <g id="ytick_12">
     <g id="line2d_37">
      <g>
       <use style="stroke:#000000;stroke-width:0.5;" x="89.564476" xlink:href="#m8974c0f05a" y="103.538942"/>
      </g>
     </g>
     <g id="line2d_38">
      <g>
       <use style="stroke:#000000;stroke-width:0.5;" x="522.6525" xlink:href="#m9f3b4f1b31" y="103.538942"/>
      </g>
     </g>
     <g id="text_20">
      <!-- $\mathdefault{10^{5}}$ -->
      <g transform="translate(50.364476 109.057692)scale(0.2 -0.2)">
       <use transform="translate(0 0.684375)" xlink:href="#DejaVuSans-49"/>
       <use transform="translate(63.623047 0.684375)" xlink:href="#DejaVuSans-48"/>
       <use transform="translate(128.203125 38.965625)scale(0.7)" xlink:href="#DejaVuSans-53"/>
      </g>
     </g>
    </g>
    <g id="ytick_13">
     <g id="line2d_39">
      <g>
       <use style="stroke:#000000;stroke-width:0.5;" x="89.564476" xlink:href="#m8974c0f05a" y="67.558846"/>
      </g>
     </g>
     <g id="line2d_40">
      <g>
       <use style="stroke:#000000;stroke-width:0.5;" x="522.6525" xlink:href="#m9f3b4f1b31" y="67.558846"/>
      </g>
     </g>
     <g id="text_21">
      <!-- $\mathdefault{10^{6}}$ -->
      <g transform="translate(50.364476 73.077596)scale(0.2 -0.2)">
       <use transform="translate(0 0.765625)" xlink:href="#DejaVuSans-49"/>
       <use transform="translate(63.623047 0.765625)" xlink:href="#DejaVuSans-48"/>
       <use transform="translate(128.203125 39.046875)scale(0.7)" xlink:href="#DejaVuSans-54"/>
      </g>
     </g>
    </g>
    <g id="ytick_14">
     <g id="line2d_41">
      <g>
       <use style="stroke:#000000;stroke-width:0.5;" x="89.564476" xlink:href="#m8974c0f05a" y="31.57875"/>
      </g>
     </g>
     <g id="line2d_42">
      <g>
       <use style="stroke:#000000;stroke-width:0.5;" x="522.6525" xlink:href="#m9f3b4f1b31" y="31.57875"/>
      </g>
     </g>
     <g id="text_22">
      <!-- $\mathdefault{10^{7}}$ -->
      <defs>
       <path d="M 8.203125 72.90625 
L 55.078125 72.90625 
L 55.078125 68.703125 
L 28.609375 0 
L 18.3125 0 
L 43.21875 64.59375 
L 8.203125 64.59375 
z
" id="DejaVuSans-55"/>
      </defs>
      <g transform="translate(50.364476 37.0975)scale(0.2 -0.2)">
       <use transform="translate(0 0.684375)" xlink:href="#DejaVuSans-49"/>
       <use transform="translate(63.623047 0.684375)" xlink:href="#DejaVuSans-48"/>
       <use transform="translate(128.203125 38.965625)scale(0.7)" xlink:href="#DejaVuSans-55"/>
      </g>
     </g>
    </g>
    <g id="text_23">
     <!-- Luminosity -->
     <defs>
      <path d="M 9.8125 72.90625 
L 19.671875 72.90625 
L 19.671875 8.296875 
L 55.171875 8.296875 
L 55.171875 0 
L 9.8125 0 
z
" id="DejaVuSans-76"/>
      <path d="M 9.421875 54.6875 
L 18.40625 54.6875 
L 18.40625 0 
L 9.421875 0 
z
M 9.421875 75.984375 
L 18.40625 75.984375 
L 18.40625 64.59375 
L 9.421875 64.59375 
z
" id="DejaVuSans-105"/>
      <path d="M 54.890625 33.015625 
L 54.890625 0 
L 45.90625 0 
L 45.90625 32.71875 
Q 45.90625 40.484375 42.875 44.328125 
Q 39.84375 48.1875 33.796875 48.1875 
Q 26.515625 48.1875 22.3125 43.546875 
Q 18.109375 38.921875 18.109375 30.90625 
L 18.109375 0 
L 9.078125 0 
L 9.078125 54.6875 
L 18.109375 54.6875 
L 18.109375 46.1875 
Q 21.34375 51.125 25.703125 53.5625 
Q 30.078125 56 35.796875 56 
Q 45.21875 56 50.046875 50.171875 
Q 54.890625 44.34375 54.890625 33.015625 
z
" id="DejaVuSans-110"/>
      <path d="M 30.609375 48.390625 
Q 23.390625 48.390625 19.1875 42.75 
Q 14.984375 37.109375 14.984375 27.296875 
Q 14.984375 17.484375 19.15625 11.84375 
Q 23.34375 6.203125 30.609375 6.203125 
Q 37.796875 6.203125 41.984375 11.859375 
Q 46.1875 17.53125 46.1875 27.296875 
Q 46.1875 37.015625 41.984375 42.703125 
Q 37.796875 48.390625 30.609375 48.390625 
z
M 30.609375 56 
Q 42.328125 56 49.015625 48.375 
Q 55.71875 40.765625 55.71875 27.296875 
Q 55.71875 13.875 49.015625 6.21875 
Q 42.328125 -1.421875 30.609375 -1.421875 
Q 18.84375 -1.421875 12.171875 6.21875 
Q 5.515625 13.875 5.515625 27.296875 
Q 5.515625 40.765625 12.171875 48.375 
Q 18.84375 56 30.609375 56 
z
" id="DejaVuSans-111"/>
      <path d="M 44.28125 53.078125 
L 44.28125 44.578125 
Q 40.484375 46.53125 36.375 47.5 
Q 32.28125 48.484375 27.875 48.484375 
Q 21.1875 48.484375 17.84375 46.4375 
Q 14.5 44.390625 14.5 40.28125 
Q 14.5 37.15625 16.890625 35.375 
Q 19.28125 33.59375 26.515625 31.984375 
L 29.59375 31.296875 
Q 39.15625 29.25 43.1875 25.515625 
Q 47.21875 21.78125 47.21875 15.09375 
Q 47.21875 7.46875 41.1875 3.015625 
Q 35.15625 -1.421875 24.609375 -1.421875 
Q 20.21875 -1.421875 15.453125 -0.5625 
Q 10.6875 0.296875 5.421875 2 
L 5.421875 11.28125 
Q 10.40625 8.6875 15.234375 7.390625 
Q 20.0625 6.109375 24.8125 6.109375 
Q 31.15625 6.109375 34.5625 8.28125 
Q 37.984375 10.453125 37.984375 14.40625 
Q 37.984375 18.0625 35.515625 20.015625 
Q 33.0625 21.96875 24.703125 23.78125 
L 21.578125 24.515625 
Q 13.234375 26.265625 9.515625 29.90625 
Q 5.8125 33.546875 5.8125 39.890625 
Q 5.8125 47.609375 11.28125 51.796875 
Q 16.75 56 26.8125 56 
Q 31.78125 56 36.171875 55.265625 
Q 40.578125 54.546875 44.28125 53.078125 
z
" id="DejaVuSans-115"/>
      <path d="M 32.171875 -5.078125 
Q 28.375 -14.84375 24.75 -17.8125 
Q 21.140625 -20.796875 15.09375 -20.796875 
L 7.90625 -20.796875 
L 7.90625 -13.28125 
L 13.1875 -13.28125 
Q 16.890625 -13.28125 18.9375 -11.515625 
Q 21 -9.765625 23.484375 -3.21875 
L 25.09375 0.875 
L 2.984375 54.6875 
L 12.5 54.6875 
L 29.59375 11.921875 
L 46.6875 54.6875 
L 56.203125 54.6875 
z
" id="DejaVuSans-121"/>
     </defs>
     <g transform="translate(36.205101 319.985313)rotate(-90)scale(0.2 -0.2)">
      <use xlink:href="#DejaVuSans-76"/>
      <use x="53.962891" xlink:href="#DejaVuSans-117"/>
      <use x="117.341797" xlink:href="#DejaVuSans-109"/>
      <use x="214.753906" xlink:href="#DejaVuSans-105"/>
      <use x="242.537109" xlink:href="#DejaVuSans-110"/>
      <use x="305.916016" xlink:href="#DejaVuSans-111"/>
      <use x="367.097656" xlink:href="#DejaVuSans-115"/>
      <use x="419.197266" xlink:href="#DejaVuSans-105"/>
      <use x="446.980469" xlink:href="#DejaVuSans-116"/>
      <use x="486.189453" xlink:href="#DejaVuSans-121"/>
     </g>
    </g>
   </g>
  </g>
 </g>
 <defs>
  <clipPath id="p6c75ed1263">
   <rect height="467.74125" width="433.088024" x="89.564476" y="31.57875"/>
  </clipPath>
 </defs>
</svg>
