<?xml version="1.0" encoding="utf-8" standalone="no"?>
<!DOCTYPE svg PUBLIC "-//W3C//DTD SVG 1.1//EN"
  "http://www.w3.org/Graphics/SVG/1.1/DTD/svg11.dtd">
<!-- Created with matplotlib (http://matplotlib.org/) -->
<svg height="576pt" version="1.1" viewBox="0 0 576 576" width="576pt" xmlns="http://www.w3.org/2000/svg" xmlns:xlink="http://www.w3.org/1999/xlink">
 <defs>
  <style type="text/css">
*{stroke-linecap:butt;stroke-linejoin:round;}
  </style>
 </defs>
 <g id="figure_1">
  <g id="patch_1">
   <path d="M 0 576 
L 576 576 
L 576 0 
L 0 0 
z
" style="fill:#ffffff;"/>
  </g>
  <g id="axes_1">
   <g id="patch_2">
    <path d="M 90.065619 511 
L 554.04 511 
L 554.04 21.96 
L 90.065619 21.96 
z
" style="fill:#ffffff;"/>
   </g>
   <g id="PathCollection_1">
    <path clip-path="url(#pe80139407f)" d="M 144.472577 323.588493 
C 144.737781 323.588493 144.992157 323.483126 145.179684 323.2956 
C 145.367211 323.108073 145.472577 322.853696 145.472577 322.588493 
C 145.472577 322.32329 145.367211 322.068913 145.179684 321.881386 
C 144.992157 321.693859 144.737781 321.588493 144.472577 321.588493 
C 144.207374 321.588493 143.952998 321.693859 143.765471 321.881386 
C 143.577944 322.068913 143.472577 322.32329 143.472577 322.588493 
C 143.472577 322.853696 143.577944 323.108073 143.765471 323.2956 
C 143.952998 323.483126 144.207374 323.588493 144.472577 323.588493 
z
" style="fill:#ffe4c5;stroke:#ffe4c5;"/>
    <path clip-path="url(#pe80139407f)" d="M 145.932725 319.878267 
C 146.203992 319.878267 146.464185 319.770491 146.655999 319.578677 
C 146.847814 319.386862 146.955589 319.12667 146.955589 318.855403 
C 146.955589 318.584136 146.847814 318.323944 146.655999 318.132129 
C 146.464185 317.940315 146.203992 317.832539 145.932725 317.832539 
C 145.661459 317.832539 145.401266 317.940315 145.209452 318.132129 
C 145.017637 318.323944 144.909862 318.584136 144.909862 318.855403 
C 144.909862 319.12667 145.017637 319.386862 145.209452 319.578677 
C 145.401266 319.770491 145.661459 319.878267 145.932725 319.878267 
z
" style="fill:#ffe9ce;stroke:#ffe9ce;"/>
    <path clip-path="url(#pe80139407f)" d="M 147.440739 316.411001 
C 147.717936 316.411001 147.983818 316.30087 148.179826 316.104861 
C 148.375834 315.908853 148.485966 315.642972 148.485966 315.365774 
C 148.485966 315.088577 148.375834 314.822695 148.179826 314.626687 
C 147.983818 314.430679 147.717936 314.320547 147.440739 314.320547 
C 147.163541 314.320547 146.89766 314.430679 146.701651 314.626687 
C 146.505643 314.822695 146.395511 315.088577 146.395511 315.365774 
C 146.395511 315.642972 146.505643 315.908853 146.701651 316.104861 
C 146.89766 316.30087 147.163541 316.411001 147.440739 316.411001 
z
" style="fill:#ffeed8;stroke:#ffeed8;"/>
    <path clip-path="url(#pe80139407f)" d="M 148.772547 312.903279 
C 149.055707 312.903279 149.327307 312.790778 149.527531 312.590554 
C 149.727755 312.39033 149.840255 312.11873 149.840255 311.835571 
C 149.840255 311.552411 149.727755 311.280811 149.527531 311.080587 
C 149.327307 310.880363 149.055707 310.767863 148.772547 310.767863 
C 148.489388 310.767863 148.217788 310.880363 148.017564 311.080587 
C 147.81734 311.280811 147.70484 311.552411 147.70484 311.835571 
C 147.70484 312.11873 147.81734 312.39033 148.017564 312.590554 
C 148.217788 312.790778 148.489388 312.903279 148.772547 312.903279 
z
" style="fill:#fff2e1;stroke:#fff2e1;"/>
    <path clip-path="url(#pe80139407f)" d="M 150.141696 309.63798 
C 150.430542 309.63798 150.707597 309.523221 150.911842 309.318976 
C 151.116087 309.11473 151.230847 308.837676 151.230847 308.548829 
C 151.230847 308.259983 151.116087 307.982929 150.911842 307.778683 
C 150.707597 307.574438 150.430542 307.459678 150.141696 307.459678 
C 149.852849 307.459678 149.575795 307.574438 149.37155 307.778683 
C 149.167305 307.982929 149.052545 308.259983 149.052545 308.548829 
C 149.052545 308.837676 149.167305 309.11473 149.37155 309.318976 
C 149.575795 309.523221 149.852849 309.63798 150.141696 309.63798 
z
" style="fill:#fff4e8;stroke:#fff4e8;"/>
    <path clip-path="url(#pe80139407f)" d="M 152.509366 303.390203 
C 152.809262 303.390203 153.096916 303.271052 153.308975 303.058994 
C 153.521034 302.846935 153.640184 302.559281 153.640184 302.259384 
C 153.640184 301.959488 153.521034 301.671834 153.308975 301.459775 
C 153.096916 301.247716 152.809262 301.128566 152.509366 301.128566 
C 152.209469 301.128566 151.921815 301.247716 151.709756 301.459775 
C 151.497698 301.671834 151.378547 301.959488 151.378547 302.259384 
C 151.378547 302.559281 151.497698 302.846935 151.709756 303.058994 
C 151.921815 303.271052 152.209469 303.390203 152.509366 303.390203 
z
" style="fill:#fff5ed;stroke:#fff5ed;"/>
    <path clip-path="url(#pe80139407f)" d="M 154.735541 297.466095 
C 155.046237 297.466095 155.344249 297.342654 155.563944 297.122959 
C 155.783638 296.903264 155.907079 296.605252 155.907079 296.294557 
C 155.907079 295.983862 155.783638 295.68585 155.563944 295.466155 
C 155.344249 295.24646 155.046237 295.123019 154.735541 295.123019 
C 154.424846 295.123019 154.126834 295.24646 153.907139 295.466155 
C 153.687444 295.68585 153.564004 295.983862 153.564004 296.294557 
C 153.564004 296.605252 153.687444 296.903264 153.907139 297.122959 
C 154.126834 297.342654 154.424846 297.466095 154.735541 297.466095 
z
" style="fill:#fff7f2;stroke:#fff7f2;"/>
    <path clip-path="url(#pe80139407f)" d="M 157.850969 288.490861 
C 158.181144 288.490861 158.497841 288.359681 158.73131 288.126212 
C 158.964779 287.892743 159.095959 287.576047 159.095959 287.245871 
C 159.095959 286.915696 158.964779 286.599 158.73131 286.365531 
C 158.497841 286.132062 158.181144 286.000882 157.850969 286.000882 
C 157.520794 286.000882 157.204097 286.132062 156.970628 286.365531 
C 156.737159 286.599 156.605979 286.915696 156.605979 287.245871 
C 156.605979 287.576047 156.737159 287.892743 156.970628 288.126212 
C 157.204097 288.359681 157.520794 288.490861 157.850969 288.490861 
z
" style="fill:#fdf9fb;stroke:#fdf9fb;"/>
    <path clip-path="url(#pe80139407f)" d="M 160.303157 281.968536 
C 160.646899 281.968536 160.976609 281.831966 161.219672 281.588903 
C 161.462735 281.345841 161.599305 281.016131 161.599305 280.672388 
C 161.599305 280.328646 161.462735 279.998936 161.219672 279.755873 
C 160.976609 279.51281 160.646899 279.37624 160.303157 279.37624 
C 159.959414 279.37624 159.629704 279.51281 159.386642 279.755873 
C 159.143579 279.998936 159.007009 280.328646 159.007009 280.672388 
C 159.007009 281.016131 159.143579 281.345841 159.386642 281.588903 
C 159.629704 281.831966 159.959414 281.968536 160.303157 281.968536 
z
" style="fill:#f8f6ff;stroke:#f8f6ff;"/>
    <path clip-path="url(#pe80139407f)" d="M 163.295539 275.207754 
C 163.654177 275.207754 163.998174 275.065265 164.251769 274.81167 
C 164.505364 274.558075 164.647852 274.214078 164.647852 273.855441 
C 164.647852 273.496803 164.505364 273.152806 164.251769 272.899211 
C 163.998174 272.645616 163.654177 272.503128 163.295539 272.503128 
C 162.936901 272.503128 162.592904 272.645616 162.339309 272.899211 
C 162.085714 273.152806 161.943226 273.496803 161.943226 273.855441 
C 161.943226 274.214078 162.085714 274.558075 162.339309 274.81167 
C 162.592904 275.065265 162.936901 275.207754 163.295539 275.207754 
z
" style="fill:#f0f0ff;stroke:#f0f0ff;"/>
    <path clip-path="url(#pe80139407f)" d="M 167.985888 268.329651 
C 168.36059 268.329651 168.719996 268.18078 168.98495 267.915826 
C 169.249904 267.650871 169.398775 267.291466 169.398775 266.916764 
C 169.398775 266.542061 169.249904 266.182656 168.98495 265.917701 
C 168.719996 265.652747 168.36059 265.503876 167.985888 265.503876 
C 167.611186 265.503876 167.25178 265.652747 166.986826 265.917701 
C 166.721872 266.182656 166.573001 266.542061 166.573001 266.916764 
C 166.573001 267.291466 166.721872 267.650871 166.986826 267.915826 
C 167.25178 268.18078 167.611186 268.329651 167.985888 268.329651 
z
" style="fill:#e4e8ff;stroke:#e4e8ff;"/>
    <path clip-path="url(#pe80139407f)" d="M 173.869984 261.495994 
C 174.261776 261.495994 174.637574 261.340333 174.914613 261.063294 
C 175.191652 260.786255 175.347313 260.410457 175.347313 260.018665 
C 175.347313 259.626873 175.191652 259.251075 174.914613 258.974036 
C 174.637574 258.696997 174.261776 258.541337 173.869984 258.541337 
C 173.478192 258.541337 173.102394 258.696997 172.825355 258.974036 
C 172.548316 259.251075 172.392655 259.626873 172.392655 260.018665 
C 172.392655 260.410457 172.548316 260.786255 172.825355 261.063294 
C 173.102394 261.340333 173.478192 261.495994 173.869984 261.495994 
z
" style="fill:#d5dfff;stroke:#d5dfff;"/>
    <path clip-path="url(#pe80139407f)" d="M 179.34273 255.511755 
C 179.750897 255.511755 180.142402 255.349589 180.43102 255.060971 
C 180.719638 254.772353 180.881804 254.380848 180.881804 253.972681 
C 180.881804 253.564514 180.719638 253.173009 180.43102 252.884391 
C 180.142402 252.595773 179.750897 252.433607 179.34273 252.433607 
C 178.934563 252.433607 178.543058 252.595773 178.25444 252.884391 
C 177.965822 253.173009 177.803655 253.564514 177.803655 253.972681 
C 177.803655 254.380848 177.965822 254.772353 178.25444 255.060971 
C 178.543058 255.349589 178.934563 255.511755 179.34273 255.511755 
z
" style="fill:#c8d6ff;stroke:#c8d6ff;"/>
    <path clip-path="url(#pe80139407f)" d="M 185.220443 249.530991 
C 185.645906 249.530991 186.054 249.361953 186.354848 249.061105 
C 186.655695 248.760258 186.824734 248.352163 186.824734 247.9267 
C 186.824734 247.501237 186.655695 247.093143 186.354848 246.792295 
C 186.054 246.491447 185.645906 246.322409 185.220443 246.322409 
C 184.79498 246.322409 184.386885 246.491447 184.086038 246.792295 
C 183.78519 247.093143 183.616152 247.501237 183.616152 247.9267 
C 183.616152 248.352163 183.78519 248.760258 184.086038 249.061105 
C 184.386885 249.361953 184.79498 249.530991 185.220443 249.530991 
z
" style="fill:#bed0ff;stroke:#bed0ff;"/>
    <path clip-path="url(#pe80139407f)" d="M 197.860544 237.502152 
C 198.324271 237.502152 198.769067 237.317911 199.096971 236.990007 
C 199.424875 236.662103 199.609115 236.217307 199.609115 235.753581 
C 199.609115 235.289854 199.424875 234.845059 199.096971 234.517154 
C 198.769067 234.18925 198.324271 234.00501 197.860544 234.00501 
C 197.396818 234.00501 196.952022 234.18925 196.624118 234.517154 
C 196.296214 234.845059 196.111973 235.289854 196.111973 235.753581 
C 196.111973 236.217307 196.296214 236.662103 196.624118 236.990007 
C 196.952022 237.317911 197.396818 237.502152 197.860544 237.502152 
z
" style="fill:#b9cbff;stroke:#b9cbff;"/>
    <path clip-path="url(#pe80139407f)" d="M 220.139827 217.977131 
C 220.676904 217.977131 221.192056 217.763748 221.571827 217.383977 
C 221.951598 217.004206 222.164981 216.489054 222.164981 215.951977 
C 222.164981 215.4149 221.951598 214.899748 221.571827 214.519977 
C 221.192056 214.140206 220.676904 213.926823 220.139827 213.926823 
C 219.602749 213.926823 219.087597 214.140206 218.707826 214.519977 
C 218.328055 214.899748 218.114672 215.4149 218.114672 215.951977 
C 218.114672 216.489054 218.328055 217.004206 218.707826 217.383977 
C 219.087597 217.763748 219.602749 217.977131 220.139827 217.977131 
z
" style="fill:#b7c9ff;stroke:#b7c9ff;"/>
    <path clip-path="url(#pe80139407f)" d="M 246.133322 198.23091 
C 246.760417 198.23091 247.361912 197.981763 247.805335 197.53834 
C 248.248757 197.094917 248.497905 196.493422 248.497905 195.866328 
C 248.497905 195.239233 248.248757 194.637738 247.805335 194.194315 
C 247.361912 193.750893 246.760417 193.501745 246.133322 193.501745 
C 245.506228 193.501745 244.904733 193.750893 244.46131 194.194315 
C 244.017887 194.637738 243.76874 195.239233 243.76874 195.866328 
C 243.76874 196.493422 244.017887 197.094917 244.46131 197.53834 
C 244.904733 197.981763 245.506228 198.23091 246.133322 198.23091 
z
" style="fill:#b3c7ff;stroke:#b3c7ff;"/>
    <path clip-path="url(#pe80139407f)" d="M 268.184842 183.797919 
C 268.890564 183.797919 269.567477 183.517533 270.066497 183.018512 
C 270.565518 182.519492 270.845904 181.842579 270.845904 181.136858 
C 270.845904 180.431136 270.565518 179.754223 270.066497 179.255203 
C 269.567477 178.756182 268.890564 178.475796 268.184842 178.475796 
C 267.479121 178.475796 266.802208 178.756182 266.303188 179.255203 
C 265.804167 179.754223 265.523781 180.431136 265.523781 181.136858 
C 265.523781 181.842579 265.804167 182.519492 266.303188 183.018512 
C 266.802208 183.517533 267.479121 183.797919 268.184842 183.797919 
z
" style="fill:#b0c4ff;stroke:#b0c4ff;"/>
    <path clip-path="url(#pe80139407f)" d="M 287.418476 172.175449 
C 288.194903 172.175449 288.939634 171.866971 289.488651 171.317955 
C 290.037668 170.768938 290.346145 170.024206 290.346145 169.247779 
C 290.346145 168.471352 290.037668 167.726621 289.488651 167.177604 
C 288.939634 166.628587 288.194903 166.32011 287.418476 166.32011 
C 286.642049 166.32011 285.897317 166.628587 285.348301 167.177604 
C 284.799284 167.726621 284.490806 168.471352 284.490806 169.247779 
C 284.490806 170.024206 284.799284 170.768938 285.348301 171.317955 
C 285.897317 171.866971 286.642049 172.175449 287.418476 172.175449 
z
" style="fill:#adc1ff;stroke:#adc1ff;"/>
    <path clip-path="url(#pe80139407f)" d="M 304.09432 162.76238 
C 304.935531 162.76238 305.7424 162.428163 306.337226 161.833338 
C 306.932051 161.238513 307.266268 160.431643 307.266268 159.590433 
C 307.266268 158.749222 306.932051 157.942353 306.337226 157.347527 
C 305.7424 156.752702 304.935531 156.418485 304.09432 156.418485 
C 303.25311 156.418485 302.44624 156.752702 301.851415 157.347527 
C 301.256589 157.942353 300.922373 158.749222 300.922373 159.590433 
C 300.922373 160.431643 301.256589 161.238513 301.851415 161.833338 
C 302.44624 162.428163 303.25311 162.76238 304.09432 162.76238 
z
" style="fill:#aabfff;stroke:#aabfff;"/>
    <path clip-path="url(#pe80139407f)" d="M 319.202381 154.751826 
C 320.103681 154.751826 320.968188 154.393736 321.605504 153.75642 
C 322.242819 153.119104 322.60091 152.254597 322.60091 151.353297 
C 322.60091 150.451996 322.242819 149.58749 321.605504 148.950174 
C 320.968188 148.312858 320.103681 147.954768 319.202381 147.954768 
C 318.30108 147.954768 317.436574 148.312858 316.799258 148.950174 
C 316.161942 149.58749 315.803852 150.451996 315.803852 151.353297 
C 315.803852 152.254597 316.161942 153.119104 316.799258 153.75642 
C 317.436574 154.393736 318.30108 154.751826 319.202381 154.751826 
z
" style="fill:#a8bdff;stroke:#a8bdff;"/>
    <path clip-path="url(#pe80139407f)" d="M 332.732176 147.903807 
C 333.689804 147.903807 334.608338 147.523337 335.285483 146.846193 
C 335.962628 146.169048 336.343097 145.250513 336.343097 144.292886 
C 336.343097 143.335258 335.962628 142.416724 335.285483 141.739579 
C 334.608338 141.062434 333.689804 140.681965 332.732176 140.681965 
C 331.774549 140.681965 330.856014 141.062434 330.17887 141.739579 
C 329.501725 142.416724 329.121255 143.335258 329.121255 144.292886 
C 329.121255 145.250513 329.501725 146.169048 330.17887 146.846193 
C 330.856014 147.523337 331.774549 147.903807 332.732176 147.903807 
z
" style="fill:#a7bcff;stroke:#a7bcff;"/>
    <path clip-path="url(#pe80139407f)" d="M 345.394883 141.692878 
C 346.405616 141.692878 347.375089 141.29131 348.089785 140.576613 
C 348.804482 139.861917 349.20605 138.892444 349.20605 137.881711 
C 349.20605 136.870977 348.804482 135.901505 348.089785 135.186808 
C 347.375089 134.472112 346.405616 134.070543 345.394883 134.070543 
C 344.384149 134.070543 343.414677 134.472112 342.69998 135.186808 
C 341.985284 135.901505 341.583715 136.870977 341.583715 137.881711 
C 341.583715 138.892444 341.985284 139.861917 342.69998 140.576613 
C 343.414677 141.29131 344.384149 141.692878 345.394883 141.692878 
z
" style="fill:#a6bcff;stroke:#a6bcff;"/>
    <path clip-path="url(#pe80139407f)" d="M 356.964542 136.323588 
C 358.025603 136.323588 359.043348 135.902024 359.793632 135.15174 
C 360.543915 134.401457 360.965479 133.383711 360.965479 132.32265 
C 360.965479 131.261589 360.543915 130.243844 359.793632 129.49356 
C 359.043348 128.743277 358.025603 128.321713 356.964542 128.321713 
C 355.903481 128.321713 354.885735 128.743277 354.135452 129.49356 
C 353.385168 130.243844 352.963604 131.261589 352.963604 132.32265 
C 352.963604 133.383711 353.385168 134.401457 354.135452 135.15174 
C 354.885735 135.902024 355.903481 136.323588 356.964542 136.323588 
z
" style="fill:#a6bbff;stroke:#a6bbff;"/>
    <path clip-path="url(#pe80139407f)" d="M 367.226604 131.472599 
C 368.335553 131.472599 369.399231 131.032009 370.183376 130.247864 
C 370.967521 129.463719 371.408111 128.400041 371.408111 127.291092 
C 371.408111 126.182143 370.967521 125.118465 370.183376 124.33432 
C 369.399231 123.550175 368.335553 123.109585 367.226604 123.109585 
C 366.117656 123.109585 365.053977 123.550175 364.269832 124.33432 
C 363.485687 125.118465 363.045097 126.182143 363.045097 127.291092 
C 363.045097 128.400041 363.485687 129.463719 364.269832 130.247864 
C 365.053977 131.032009 366.117656 131.472599 367.226604 131.472599 
z
" style="fill:#a5bbff;stroke:#a5bbff;"/>
    <path clip-path="url(#pe80139407f)" d="M 376.620846 127.019621 
C 377.775622 127.019621 378.883256 126.560824 379.699806 125.744274 
C 380.516356 124.927724 380.975154 123.820089 380.975154 122.665313 
C 380.975154 121.510537 380.516356 120.402902 379.699806 119.586352 
C 378.883256 118.769803 377.775622 118.311005 376.620846 118.311005 
C 375.46607 118.311005 374.358435 118.769803 373.541885 119.586352 
C 372.725335 120.402902 372.266537 121.510537 372.266537 122.665313 
C 372.266537 123.820089 372.725335 124.927724 373.541885 125.744274 
C 374.358435 126.560824 375.46607 127.019621 376.620846 127.019621 
z
" style="fill:#a4baff;stroke:#a4baff;"/>
    <path clip-path="url(#pe80139407f)" d="M 385.029225 123.168832 
C 386.228115 123.168832 387.378062 122.692508 388.225805 121.844765 
C 389.073548 120.997022 389.549872 119.847074 389.549872 118.648185 
C 389.549872 117.449295 389.073548 116.299348 388.225805 115.451605 
C 387.378062 114.603862 386.228115 114.127538 385.029225 114.127538 
C 383.830335 114.127538 382.680388 114.603862 381.832645 115.451605 
C 380.984902 116.299348 380.508578 117.449295 380.508578 118.648185 
C 380.508578 119.847074 380.984902 120.997022 381.832645 121.844765 
C 382.680388 122.692508 383.830335 123.168832 385.029225 123.168832 
z
" style="fill:#a4baff;stroke:#a4baff;"/>
    <path clip-path="url(#pe80139407f)" d="M 393.017469 119.555332 
C 394.258835 119.555332 395.449525 119.062132 396.327303 118.184354 
C 397.205081 117.306576 397.698281 116.115886 397.698281 114.87452 
C 397.698281 113.633154 397.205081 112.442465 396.327303 111.564686 
C 395.449525 110.686908 394.258835 110.193708 393.017469 110.193708 
C 391.776103 110.193708 390.585413 110.686908 389.707635 111.564686 
C 388.829857 112.442465 388.336657 113.633154 388.336657 114.87452 
C 388.336657 116.115886 388.829857 117.306576 389.707635 118.184354 
C 390.585413 119.062132 391.776103 119.555332 393.017469 119.555332 
z
" style="fill:#a3baff;stroke:#a3baff;"/>
    <path clip-path="url(#pe80139407f)" d="M 400.53653 116.139015 
C 401.818863 116.139015 403.048848 115.629539 403.955594 114.722792 
C 404.862341 113.816046 405.371817 112.586061 405.371817 111.303728 
C 405.371817 110.021395 404.862341 108.79141 403.955594 107.884664 
C 403.048848 106.977917 401.818863 106.468441 400.53653 106.468441 
C 399.254197 106.468441 398.024212 106.977917 397.117465 107.884664 
C 396.210719 108.79141 395.701243 110.021395 395.701243 111.303728 
C 395.701243 112.586061 396.210719 113.816046 397.117465 114.722792 
C 398.024212 115.629539 399.254197 116.139015 400.53653 116.139015 
z
" style="fill:#a3b9ff;stroke:#a3b9ff;"/>
    <path clip-path="url(#pe80139407f)" d="M 407.538983 112.920569 
C 408.860948 112.920569 410.128947 112.395347 411.063717 111.460577 
C 411.998487 110.525806 412.52371 109.257808 412.52371 107.935843 
C 412.52371 106.613878 411.998487 105.345879 411.063717 104.411109 
C 410.128947 103.476339 408.860948 102.951116 407.538983 102.951116 
C 406.217018 102.951116 404.94902 103.476339 404.014249 104.411109 
C 403.079479 105.345879 402.554257 106.613878 402.554257 107.935843 
C 402.554257 109.257808 403.079479 110.525806 404.014249 111.460577 
C 404.94902 112.395347 406.217018 112.920569 407.538983 112.920569 
z
" style="fill:#a2b9ff;stroke:#a2b9ff;"/>
    <path clip-path="url(#pe80139407f)" d="M 413.258284 110.100975 
C 414.618048 110.100975 415.922303 109.560735 416.883801 108.599237 
C 417.845299 107.637739 418.385539 106.333484 418.385539 104.97372 
C 418.385539 103.613956 417.845299 102.309701 416.883801 101.348203 
C 415.922303 100.386704 414.618048 99.846464 413.258284 99.846464 
C 411.89852 99.846464 410.594265 100.386704 409.632767 101.348203 
C 408.671268 102.309701 408.131028 103.613956 408.131028 104.97372 
C 408.131028 106.333484 408.671268 107.637739 409.632767 108.599237 
C 410.594265 109.560735 411.89852 110.100975 413.258284 110.100975 
z
" style="fill:#a2b9ff;stroke:#a2b9ff;"/>
    <path clip-path="url(#pe80139407f)" d="M 418.349899 107.479445 
C 419.746188 107.479445 421.085476 106.924693 422.072802 105.937368 
C 423.060127 104.950043 423.614878 103.610755 423.614878 102.214466 
C 423.614878 100.818177 423.060127 99.478889 422.072802 98.491564 
C 421.085476 97.504238 419.746188 96.949487 418.349899 96.949487 
C 416.953611 96.949487 415.614322 97.504238 414.626997 98.491564 
C 413.639672 99.478889 413.084921 100.818177 413.084921 102.214466 
C 413.084921 103.610755 413.639672 104.950043 414.626997 105.937368 
C 415.614322 106.924693 416.953611 107.479445 418.349899 107.479445 
z
" style="fill:#a2b9ff;stroke:#a2b9ff;"/>
    <path clip-path="url(#pe80139407f)" d="M 423.524185 104.934761 
C 424.955852 104.934761 426.329074 104.365954 427.341416 103.353612 
C 428.353757 102.341271 428.922564 100.968049 428.922564 99.536382 
C 428.922564 98.104715 428.353757 96.731493 427.341416 95.719151 
C 426.329074 94.70681 424.955852 94.138002 423.524185 94.138002 
C 422.092518 94.138002 420.719296 94.70681 419.706954 95.719151 
C 418.694613 96.731493 418.125806 98.104715 418.125806 99.536382 
C 418.125806 100.968049 418.694613 102.341271 419.706954 103.353612 
C 420.719296 104.365954 422.092518 104.934761 423.524185 104.934761 
z
" style="fill:#a1b8ff;stroke:#a1b8ff;"/>
    <path clip-path="url(#pe80139407f)" d="M 428.026255 102.507696 
C 429.492207 102.507696 430.898314 101.925267 431.934899 100.888682 
C 432.971484 99.852097 433.553913 98.44599 433.553913 96.980038 
C 433.553913 95.514086 432.971484 94.107978 431.934899 93.071393 
C 430.898314 92.034809 429.492207 91.45238 428.026255 91.45238 
C 426.560303 91.45238 425.154195 92.034809 424.11761 93.071393 
C 423.081025 94.107978 422.498597 95.514086 422.498597 96.980038 
C 422.498597 98.44599 423.081025 99.852097 424.11761 100.888682 
C 425.154195 101.925267 426.560303 102.507696 428.026255 102.507696 
z
" style="fill:#a1b8ff;stroke:#a1b8ff;"/>
   </g>
   <g id="PathCollection_2">
    <path clip-path="url(#pe80139407f)" d="M 111.326492 488.995038 
C 111.420255 488.995038 111.510191 488.957785 111.576492 488.891485 
C 111.642792 488.825184 111.680045 488.735248 111.680045 488.641485 
C 111.680045 488.547721 111.642792 488.457785 111.576492 488.391485 
C 111.510191 488.325184 111.420255 488.287931 111.326492 488.287931 
C 111.232728 488.287931 111.142792 488.325184 111.076492 488.391485 
C 111.010191 488.457785 110.972938 488.547721 110.972938 488.641485 
C 110.972938 488.735248 111.010191 488.825184 111.076492 488.891485 
C 111.142792 488.957785 111.232728 488.995038 111.326492 488.995038 
z
" style="fill:#9b3921;stroke:#9b3921;"/>
    <path clip-path="url(#pe80139407f)" d="M 111.647885 485.606505 
C 111.743659 485.606505 111.835523 485.568454 111.903246 485.500731 
C 111.970969 485.433009 112.00902 485.341144 112.00902 485.24537 
C 112.00902 485.149596 111.970969 485.057731 111.903246 484.990008 
C 111.835523 484.922286 111.743659 484.884234 111.647885 484.884234 
C 111.55211 484.884234 111.460246 484.922286 111.392523 484.990008 
C 111.324801 485.057731 111.286749 485.149596 111.286749 485.24537 
C 111.286749 485.341144 111.324801 485.433009 111.392523 485.500731 
C 111.460246 485.568454 111.55211 485.606505 111.647885 485.606505 
z
" style="fill:#9f3b22;stroke:#9f3b22;"/>
    <path clip-path="url(#pe80139407f)" d="M 111.97832 482.218135 
C 112.076148 482.218135 112.169983 482.179268 112.239158 482.110093 
C 112.308333 482.040918 112.3472 481.947083 112.3472 481.849255 
C 112.3472 481.751427 112.308333 481.657592 112.239158 481.588417 
C 112.169983 481.519242 112.076148 481.480375 111.97832 481.480375 
C 111.880492 481.480375 111.786657 481.519242 111.717482 481.588417 
C 111.648307 481.657592 111.60944 481.751427 111.60944 481.849255 
C 111.60944 481.947083 111.648307 482.040918 111.717482 482.110093 
C 111.786657 482.179268 111.880492 482.218135 111.97832 482.218135 
z
" style="fill:#a43d24;stroke:#a43d24;"/>
    <path clip-path="url(#pe80139407f)" d="M 112.318052 478.829931 
C 112.417978 478.829931 112.513825 478.79023 112.584484 478.719572 
C 112.655142 478.648913 112.694843 478.553066 112.694843 478.45314 
C 112.694843 478.353214 112.655142 478.257367 112.584484 478.186709 
C 112.513825 478.11605 112.417978 478.076349 112.318052 478.076349 
C 112.218126 478.076349 112.122279 478.11605 112.051621 478.186709 
C 111.980962 478.257367 111.941261 478.353214 111.941261 478.45314 
C 111.941261 478.553066 111.980962 478.648913 112.051621 478.719572 
C 112.122279 478.79023 112.218126 478.829931 112.318052 478.829931 
z
" style="fill:#a94025;stroke:#a94025;"/>
    <path clip-path="url(#pe80139407f)" d="M 112.667343 475.441897 
C 112.769412 475.441897 112.867314 475.401344 112.939488 475.329171 
C 113.011662 475.256997 113.052214 475.159094 113.052214 475.057025 
C 113.052214 474.954956 113.011662 474.857054 112.939488 474.78488 
C 112.867314 474.712706 112.769412 474.672154 112.667343 474.672154 
C 112.565273 474.672154 112.467371 474.712706 112.395197 474.78488 
C 112.323024 474.857054 112.282471 474.954956 112.282471 475.057025 
C 112.282471 475.159094 112.323024 475.256997 112.395197 475.329171 
C 112.467371 475.401344 112.565273 475.441897 112.667343 475.441897 
z
" style="fill:#ae4227;stroke:#ae4227;"/>
    <path clip-path="url(#pe80139407f)" d="M 113.02646 472.054036 
C 113.130718 472.054036 113.23072 472.012614 113.304442 471.938892 
C 113.378163 471.86517 113.419586 471.765169 113.419586 471.66091 
C 113.419586 471.556652 113.378163 471.45665 113.304442 471.382929 
C 113.23072 471.309207 113.130718 471.267785 113.02646 471.267785 
C 112.922202 471.267785 112.8222 471.309207 112.748479 471.382929 
C 112.674757 471.45665 112.633335 471.556652 112.633335 471.66091 
C 112.633335 471.765169 112.674757 471.86517 112.748479 471.938892 
C 112.8222 472.012614 112.922202 472.054036 113.02646 472.054036 
z
" style="fill:#b34528;stroke:#b34528;"/>
    <path clip-path="url(#pe80139407f)" d="M 113.395682 468.666352 
C 113.502176 468.666352 113.604322 468.624041 113.679625 468.548739 
C 113.754927 468.473436 113.797238 468.37129 113.797238 468.264796 
C 113.797238 468.158302 113.754927 468.056155 113.679625 467.980853 
C 113.604322 467.90555 113.502176 467.86324 113.395682 467.86324 
C 113.289188 467.86324 113.187041 467.90555 113.111739 467.980853 
C 113.036436 468.056155 112.994125 468.158302 112.994125 468.264796 
C 112.994125 468.37129 113.036436 468.473436 113.111739 468.548739 
C 113.187041 468.624041 113.289188 468.666352 113.395682 468.666352 
z
" style="fill:#b8472a;stroke:#b8472a;"/>
    <path clip-path="url(#pe80139407f)" d="M 113.775291 465.278848 
C 113.884069 465.278848 113.988406 465.235631 114.065323 465.158713 
C 114.142241 465.081796 114.185459 464.977459 114.185459 464.868681 
C 114.185459 464.759903 114.142241 464.655566 114.065323 464.578648 
C 113.988406 464.501731 113.884069 464.458513 113.775291 464.458513 
C 113.666513 464.458513 113.562176 464.501731 113.485259 464.578648 
C 113.408341 464.655566 113.365123 464.759903 113.365123 464.868681 
C 113.365123 464.977459 113.408341 465.081796 113.485259 465.158713 
C 113.562176 465.235631 113.666513 465.278848 113.775291 465.278848 
z
" style="fill:#be4a2b;stroke:#be4a2b;"/>
    <path clip-path="url(#pe80139407f)" d="M 114.16558 461.89153 
C 114.276691 461.89153 114.383266 461.847385 114.461833 461.768818 
C 114.5404 461.690251 114.584544 461.583676 114.584544 461.472566 
C 114.584544 461.361455 114.5404 461.254881 114.461833 461.176314 
C 114.383266 461.097747 114.276691 461.053602 114.16558 461.053602 
C 114.05447 461.053602 113.947895 461.097747 113.869328 461.176314 
C 113.790761 461.254881 113.746617 461.361455 113.746617 461.472566 
C 113.746617 461.583676 113.790761 461.690251 113.869328 461.768818 
C 113.947895 461.847385 114.05447 461.89153 114.16558 461.89153 
z
" style="fill:#c34d2d;stroke:#c34d2d;"/>
    <path clip-path="url(#pe80139407f)" d="M 114.566851 458.5044 
C 114.680344 458.5044 114.789204 458.459309 114.869456 458.379057 
C 114.949708 458.298805 114.9948 458.189944 114.9948 458.076451 
C 114.9948 457.962958 114.949708 457.854097 114.869456 457.773846 
C 114.789204 457.693594 114.680344 457.648502 114.566851 457.648502 
C 114.453357 457.648502 114.344497 457.693594 114.264245 457.773846 
C 114.183993 457.854097 114.138902 457.962958 114.138902 458.076451 
C 114.138902 458.189944 114.183993 458.298805 114.264245 458.379057 
C 114.344497 458.459309 114.453357 458.5044 114.566851 458.5044 
z
" style="fill:#ca502f;stroke:#ca502f;"/>
    <path clip-path="url(#pe80139407f)" d="M 114.979411 455.117463 
C 115.095338 455.117463 115.206533 455.071404 115.288506 454.989431 
C 115.370479 454.907458 115.416537 454.796264 115.416537 454.680336 
C 115.416537 454.564409 115.370479 454.453214 115.288506 454.371241 
C 115.206533 454.289268 115.095338 454.24321 114.979411 454.24321 
C 114.863483 454.24321 114.752289 454.289268 114.670316 454.371241 
C 114.588343 454.453214 114.542284 454.564409 114.542284 454.680336 
C 114.542284 454.796264 114.588343 454.907458 114.670316 454.989431 
C 114.752289 455.071404 114.863483 455.117463 114.979411 455.117463 
z
" style="fill:#d05331;stroke:#d05331;"/>
    <path clip-path="url(#pe80139407f)" d="M 115.403578 451.730722 
C 115.521991 451.730722 115.635571 451.683676 115.719302 451.599945 
C 115.803033 451.516214 115.850079 451.402635 115.850079 451.284221 
C 115.850079 451.165808 115.803033 451.052229 115.719302 450.968498 
C 115.635571 450.884767 115.521991 450.837721 115.403578 450.837721 
C 115.285164 450.837721 115.171585 450.884767 115.087854 450.968498 
C 115.004123 451.052229 114.957077 451.165808 114.957077 451.284221 
C 114.957077 451.402635 115.004123 451.516214 115.087854 451.599945 
C 115.171585 451.683676 115.285164 451.730722 115.403578 451.730722 
z
" style="fill:#d65733;stroke:#d65733;"/>
    <path clip-path="url(#pe80139407f)" d="M 115.839679 448.344183 
C 115.960632 448.344183 116.076647 448.296128 116.162174 448.210601 
C 116.2477 448.125075 116.295755 448.009059 116.295755 447.888107 
C 116.295755 447.767154 116.2477 447.651139 116.162174 447.565612 
C 116.076647 447.480085 115.960632 447.43203 115.839679 447.43203 
C 115.718726 447.43203 115.602711 447.480085 115.517184 447.565612 
C 115.431658 447.651139 115.383603 447.767154 115.383603 447.888107 
C 115.383603 448.009059 115.431658 448.125075 115.517184 448.210601 
C 115.602711 448.296128 115.718726 448.344183 115.839679 448.344183 
z
" style="fill:#dd5a35;stroke:#dd5a35;"/>
    <path clip-path="url(#pe80139407f)" d="M 116.28805 444.957849 
C 116.411596 444.957849 116.5301 444.908763 116.61746 444.821402 
C 116.704821 444.734042 116.753907 444.615538 116.753907 444.491992 
C 116.753907 444.368445 116.704821 444.249942 116.61746 444.162581 
C 116.5301 444.07522 116.411596 444.026135 116.28805 444.026135 
C 116.164503 444.026135 116.046 444.07522 115.958639 444.162581 
C 115.871278 444.249942 115.822193 444.368445 115.822193 444.491992 
C 115.822193 444.615538 115.871278 444.734042 115.958639 444.821402 
C 116.046 444.908763 116.164503 444.957849 116.28805 444.957849 
z
" style="fill:#e55e37;stroke:#e55e37;"/>
    <path clip-path="url(#pe80139407f)" d="M 116.749035 441.571724 
C 116.875231 441.571724 116.996276 441.521586 117.08551 441.432352 
C 117.174744 441.343118 117.224883 441.222073 117.224883 441.095877 
C 117.224883 440.969681 117.174744 440.848636 117.08551 440.759402 
C 116.996276 440.670168 116.875231 440.620029 116.749035 440.620029 
C 116.622839 440.620029 116.501794 440.670168 116.41256 440.759402 
C 116.323326 440.848636 116.273188 440.969681 116.273188 441.095877 
C 116.273188 441.222073 116.323326 441.343118 116.41256 441.432352 
C 116.501794 441.521586 116.622839 441.571724 116.749035 441.571724 
z
" style="fill:#ec6239;stroke:#ec6239;"/>
    <path clip-path="url(#pe80139407f)" d="M 117.22299 438.185814 
C 117.351893 438.185814 117.475533 438.134601 117.566681 438.043453 
C 117.657829 437.952305 117.709043 437.828665 117.709043 437.699762 
C 117.709043 437.570859 117.657829 437.447219 117.566681 437.356071 
C 117.475533 437.264923 117.351893 437.21371 117.22299 437.21371 
C 117.094088 437.21371 116.970447 437.264923 116.879299 437.356071 
C 116.788152 437.447219 116.736938 437.570859 116.736938 437.699762 
C 116.736938 437.828665 116.788152 437.952305 116.879299 438.043453 
C 116.970447 438.134601 117.094088 438.185814 117.22299 438.185814 
z
" style="fill:#f4653c;stroke:#f4653c;"/>
    <path clip-path="url(#pe80139407f)" d="M 117.71028 434.800123 
C 117.841947 434.800123 117.968239 434.747811 118.061342 434.654709 
C 118.154444 434.561606 118.206756 434.435314 118.206756 434.303647 
C 118.206756 434.17198 118.154444 434.045688 118.061342 433.952586 
C 117.968239 433.859483 117.841947 433.807171 117.71028 433.807171 
C 117.578613 433.807171 117.452321 433.859483 117.359219 433.952586 
C 117.266116 434.045688 117.213804 434.17198 117.213804 434.303647 
C 117.213804 434.435314 117.266116 434.561606 117.359219 434.654709 
C 117.452321 434.747811 117.578613 434.800123 117.71028 434.800123 
z
" style="fill:#fc6a3e;stroke:#fc6a3e;"/>
    <path clip-path="url(#pe80139407f)" d="M 118.21128 431.414656 
C 118.345771 431.414656 118.474771 431.361222 118.56987 431.266123 
C 118.664969 431.171023 118.718403 431.042023 118.718403 430.907532 
C 118.718403 430.773042 118.664969 430.644041 118.56987 430.548942 
C 118.474771 430.453843 118.345771 430.400409 118.21128 430.400409 
C 118.076789 430.400409 117.947789 430.453843 117.85269 430.548942 
C 117.75759 430.644041 117.704157 430.773042 117.704157 430.907532 
C 117.704157 431.042023 117.75759 431.171023 117.85269 431.266123 
C 117.947789 431.361222 118.076789 431.414656 118.21128 431.414656 
z
" style="fill:#ff6f42;stroke:#ff6f42;"/>
    <path clip-path="url(#pe80139407f)" d="M 118.726375 428.029416 
C 118.86375 428.029416 118.995517 427.974837 119.092655 427.877698 
C 119.189794 427.780559 119.244374 427.648792 119.244374 427.511417 
C 119.244374 427.374043 119.189794 427.242276 119.092655 427.145137 
C 118.995517 427.047998 118.86375 426.993419 118.726375 426.993419 
C 118.589 426.993419 118.457233 427.047998 118.360095 427.145137 
C 118.262956 427.242276 118.208376 427.374043 118.208376 427.511417 
C 118.208376 427.648792 118.262956 427.780559 118.360095 427.877698 
C 118.457233 427.974837 118.589 428.029416 118.726375 428.029416 
z
" style="fill:#ff7546;stroke:#ff7546;"/>
    <path clip-path="url(#pe80139407f)" d="M 119.255962 424.64441 
C 119.396283 424.64441 119.530876 424.58866 119.630098 424.489438 
C 119.72932 424.390216 119.78507 424.255624 119.78507 424.115303 
C 119.78507 423.974982 119.72932 423.840389 119.630098 423.741167 
C 119.530876 423.641945 119.396283 423.586195 119.255962 423.586195 
C 119.115641 423.586195 118.981049 423.641945 118.881827 423.741167 
C 118.782605 423.840389 118.726855 423.974982 118.726855 424.115303 
C 118.726855 424.255624 118.782605 424.390216 118.881827 424.489438 
C 118.981049 424.58866 119.115641 424.64441 119.255962 424.64441 
z
" style="fill:#ff7c4b;stroke:#ff7c4b;"/>
    <path clip-path="url(#pe80139407f)" d="M 119.80045 421.259642 
C 119.94378 421.259642 120.081259 421.202697 120.182609 421.101347 
C 120.283958 420.999997 120.340904 420.862518 120.340904 420.719188 
C 120.340904 420.575858 120.283958 420.438379 120.182609 420.337029 
C 120.081259 420.235679 119.94378 420.178733 119.80045 420.178733 
C 119.657119 420.178733 119.51964 420.235679 119.418291 420.337029 
C 119.316941 420.438379 119.259995 420.575858 119.259995 420.719188 
C 119.259995 420.862518 119.316941 420.999997 119.418291 421.101347 
C 119.51964 421.202697 119.657119 421.259642 119.80045 421.259642 
z
" style="fill:#ff8350;stroke:#ff8350;"/>
    <path clip-path="url(#pe80139407f)" d="M 120.360256 417.875118 
C 120.50666 417.875118 120.647087 417.816951 120.75061 417.713428 
C 120.854134 417.609904 120.9123 417.469477 120.9123 417.323073 
C 120.9123 417.176669 120.854134 417.036242 120.75061 416.932718 
C 120.647087 416.829195 120.50666 416.771028 120.360256 416.771028 
C 120.213852 416.771028 120.073424 416.829195 119.969901 416.932718 
C 119.866378 417.036242 119.808211 417.176669 119.808211 417.323073 
C 119.808211 417.469477 119.866378 417.609904 119.969901 417.713428 
C 120.073424 417.816951 120.213852 417.875118 120.360256 417.875118 
z
" style="fill:#ff8a55;stroke:#ff8a55;"/>
    <path clip-path="url(#pe80139407f)" d="M 120.935812 414.490842 
C 121.085356 414.490842 121.228794 414.431427 121.334538 414.325684 
C 121.440281 414.219941 121.499696 414.076502 121.499696 413.926958 
C 121.499696 413.777414 121.440281 413.633975 121.334538 413.528232 
C 121.228794 413.422489 121.085356 413.363074 120.935812 413.363074 
C 120.786268 413.363074 120.642829 413.422489 120.537086 413.528232 
C 120.431343 413.633975 120.371928 413.777414 120.371928 413.926958 
C 120.371928 414.076502 120.431343 414.219941 120.537086 414.325684 
C 120.642829 414.431427 120.786268 414.490842 120.935812 414.490842 
z
" style="fill:#ff915a;stroke:#ff915a;"/>
    <path clip-path="url(#pe80139407f)" d="M 121.527561 411.10682 
C 121.680312 411.10682 121.826827 411.046131 121.934838 410.93812 
C 122.042849 410.830109 122.103538 410.683594 122.103538 410.530843 
C 122.103538 410.378093 122.042849 410.231577 121.934838 410.123566 
C 121.826827 410.015555 121.680312 409.954867 121.527561 409.954867 
C 121.37481 409.954867 121.228295 410.015555 121.120284 410.123566 
C 121.012273 410.231577 120.951585 410.378093 120.951585 410.530843 
C 120.951585 410.683594 121.012273 410.830109 121.120284 410.93812 
C 121.228295 411.046131 121.37481 411.10682 121.527561 411.10682 
z
" style="fill:#ff9960;stroke:#ff9960;"/>
    <path clip-path="url(#pe80139407f)" d="M 122.135959 407.723057 
C 122.291986 407.723057 122.441643 407.661067 122.55197 407.550739 
C 122.662298 407.440412 122.724288 407.290755 122.724288 407.134728 
C 122.724288 406.978702 122.662298 406.829045 122.55197 406.718717 
C 122.441643 406.60839 122.291986 406.5464 122.135959 406.5464 
C 121.979933 406.5464 121.830276 406.60839 121.719948 406.718717 
C 121.609621 406.829045 121.547631 406.978702 121.547631 407.134728 
C 121.547631 407.290755 121.609621 407.440412 121.719948 407.550739 
C 121.830276 407.661067 121.979933 407.723057 122.135959 407.723057 
z
" style="fill:#ffa165;stroke:#ffa165;"/>
    <path clip-path="url(#pe80139407f)" d="M 122.761475 404.339559 
C 122.920847 404.339559 123.073714 404.27624 123.186407 404.163546 
C 123.299101 404.050853 123.36242 403.897986 123.36242 403.738614 
C 123.36242 403.579241 123.299101 403.426374 123.186407 403.313681 
C 123.073714 403.200987 122.920847 403.137668 122.761475 403.137668 
C 122.602102 403.137668 122.449235 403.200987 122.336542 403.313681 
C 122.223848 403.426374 122.160529 403.579241 122.160529 403.738614 
C 122.160529 403.897986 122.223848 404.050853 122.336542 404.163546 
C 122.449235 404.27624 122.602102 404.339559 122.761475 404.339559 
z
" style="fill:#ffa96b;stroke:#ffa96b;"/>
    <path clip-path="url(#pe80139407f)" d="M 123.404589 400.956332 
C 123.567379 400.956332 123.723524 400.891654 123.838634 400.776544 
C 123.953744 400.661434 124.018422 400.505289 124.018422 400.342499 
C 124.018422 400.179708 123.953744 400.023563 123.838634 399.908453 
C 123.723524 399.793343 123.567379 399.728666 123.404589 399.728666 
C 123.241798 399.728666 123.085653 399.793343 122.970543 399.908453 
C 122.855433 400.023563 122.790755 400.179708 122.790755 400.342499 
C 122.790755 400.505289 122.855433 400.661434 122.970543 400.776544 
C 123.085653 400.891654 123.241798 400.956332 123.404589 400.956332 
z
" style="fill:#ffb171;stroke:#ffb171;"/>
    <path clip-path="url(#pe80139407f)" d="M 124.065796 397.573381 
C 124.232078 397.573381 124.391572 397.507317 124.50915 397.389738 
C 124.626729 397.272159 124.692794 397.112665 124.692794 396.946384 
C 124.692794 396.780102 124.626729 396.620609 124.50915 396.50303 
C 124.391572 396.385451 124.232078 396.319387 124.065796 396.319387 
C 123.899515 396.319387 123.740021 396.385451 123.622443 396.50303 
C 123.504864 396.620609 123.438799 396.780102 123.438799 396.946384 
C 123.438799 397.112665 123.504864 397.272159 123.622443 397.389738 
C 123.740021 397.507317 123.899515 397.573381 124.065796 397.573381 
z
" style="fill:#ffb474;stroke:#ffb474;"/>
    <path clip-path="url(#pe80139407f)" d="M 124.745607 394.190712 
C 124.915455 394.190712 125.078369 394.123231 125.198469 394.003131 
C 125.318569 393.88303 125.386051 393.720117 125.386051 393.550269 
C 125.386051 393.380421 125.318569 393.217508 125.198469 393.097407 
C 125.078369 392.977307 124.915455 392.909826 124.745607 392.909826 
C 124.57576 392.909826 124.412846 392.977307 124.292745 393.097407 
C 124.172645 393.217508 124.105164 393.380421 124.105164 393.550269 
C 124.105164 393.720117 124.172645 393.88303 124.292745 394.003131 
C 124.412846 394.123231 124.57576 394.190712 124.745607 394.190712 
z
" style="fill:#ffb777;stroke:#ffb777;"/>
    <path clip-path="url(#pe80139407f)" d="M 125.444544 390.808332 
C 125.618034 390.808332 125.784442 390.739404 125.907118 390.616728 
C 126.029794 390.494052 126.098722 390.327644 126.098722 390.154154 
C 126.098722 389.980664 126.029794 389.814256 125.907118 389.69158 
C 125.784442 389.568905 125.618034 389.499976 125.444544 389.499976 
C 125.271054 389.499976 125.104647 389.568905 124.981971 389.69158 
C 124.859295 389.814256 124.790366 389.980664 124.790366 390.154154 
C 124.790366 390.327644 124.859295 390.494052 124.981971 390.616728 
C 125.104647 390.739404 125.271054 390.808332 125.444544 390.808332 
z
" style="fill:#ffb979;stroke:#ffb979;"/>
    <path clip-path="url(#pe80139407f)" d="M 126.163146 387.426246 
C 126.340357 387.426246 126.510333 387.35584 126.63564 387.230533 
C 126.760947 387.105226 126.831353 386.93525 126.831353 386.758039 
C 126.831353 386.580829 126.760947 386.410852 126.63564 386.285546 
C 126.510333 386.160239 126.340357 386.089832 126.163146 386.089832 
C 125.985935 386.089832 125.815959 386.160239 125.690652 386.285546 
C 125.565345 386.410852 125.494939 386.580829 125.494939 386.758039 
C 125.494939 386.93525 125.565345 387.105226 125.690652 387.230533 
C 125.815959 387.35584 125.985935 387.426246 126.163146 387.426246 
z
" style="fill:#ffbb7b;stroke:#ffbb7b;"/>
    <path clip-path="url(#pe80139407f)" d="M 126.901965 384.044462 
C 127.082976 384.044462 127.256598 383.972545 127.384592 383.844551 
C 127.512586 383.716557 127.584503 383.542935 127.584503 383.361924 
C 127.584503 383.180913 127.512586 383.007292 127.384592 382.879298 
C 127.256598 382.751304 127.082976 382.679387 126.901965 382.679387 
C 126.720954 382.679387 126.547333 382.751304 126.419339 382.879298 
C 126.291345 383.007292 126.219428 383.180913 126.219428 383.361924 
C 126.219428 383.542935 126.291345 383.716557 126.419339 383.844551 
C 126.547333 383.972545 126.720954 384.044462 126.901965 384.044462 
z
" style="fill:#ffbb7b;stroke:#ffbb7b;"/>
    <path clip-path="url(#pe80139407f)" d="M 127.661571 380.662984 
C 127.846464 380.662984 128.023809 380.589525 128.154548 380.458786 
C 128.285287 380.328047 128.358746 380.150702 128.358746 379.96581 
C 128.358746 379.780917 128.285287 379.603572 128.154548 379.472833 
C 128.023809 379.342094 127.846464 379.268635 127.661571 379.268635 
C 127.476678 379.268635 127.299333 379.342094 127.168594 379.472833 
C 127.037855 379.603572 126.964397 379.780917 126.964397 379.96581 
C 126.964397 380.150702 127.037855 380.328047 127.168594 380.458786 
C 127.299333 380.589525 127.476678 380.662984 127.661571 380.662984 
z
" style="fill:#ffbb7b;stroke:#ffbb7b;"/>
    <path clip-path="url(#pe80139407f)" d="M 128.442549 377.281821 
C 128.631407 377.281821 128.812555 377.206787 128.946098 377.073244 
C 129.07964 376.939701 129.154674 376.758553 129.154674 376.569695 
C 129.154674 376.380837 129.07964 376.199689 128.946098 376.066146 
C 128.812555 375.932603 128.631407 375.857569 128.442549 375.857569 
C 128.253691 375.857569 128.072542 375.932603 127.939 376.066146 
C 127.805457 376.199689 127.730423 376.380837 127.730423 376.569695 
C 127.730423 376.758553 127.805457 376.939701 127.939 377.073244 
C 128.072542 377.206787 128.253691 377.281821 128.442549 377.281821 
z
" style="fill:#ffbb7b;stroke:#ffbb7b;"/>
    <path clip-path="url(#pe80139407f)" d="M 129.245498 373.900978 
C 129.438407 373.900978 129.62344 373.824334 129.759846 373.687928 
C 129.896253 373.551521 129.972896 373.366488 129.972896 373.17358 
C 129.972896 372.980672 129.896253 372.795639 129.759846 372.659232 
C 129.62344 372.522825 129.438407 372.446182 129.245498 372.446182 
C 129.05259 372.446182 128.867557 372.522825 128.731151 372.659232 
C 128.594744 372.795639 128.518101 372.980672 128.518101 373.17358 
C 128.518101 373.366488 128.594744 373.551521 128.731151 373.687928 
C 128.867557 373.824334 129.05259 373.900978 129.245498 373.900978 
z
" style="fill:#ffbc7c;stroke:#ffbc7c;"/>
    <path clip-path="url(#pe80139407f)" d="M 130.071039 370.520462 
C 130.268084 370.520462 130.457085 370.442175 130.596417 370.302843 
C 130.735749 370.163511 130.814036 369.97451 130.814036 369.777465 
C 130.814036 369.58042 130.735749 369.391419 130.596417 369.252087 
C 130.457085 369.112755 130.268084 369.034468 130.071039 369.034468 
C 129.873994 369.034468 129.684993 369.112755 129.545661 369.252087 
C 129.406329 369.391419 129.328042 369.58042 129.328042 369.777465 
C 129.328042 369.97451 129.406329 370.163511 129.545661 370.302843 
C 129.684993 370.442175 129.873994 370.520462 130.071039 370.520462 
z
" style="fill:#ffbc7d;stroke:#ffbc7d;"/>
    <path clip-path="url(#pe80139407f)" d="M 130.919806 367.140281 
C 131.121077 367.140281 131.314132 367.060316 131.456452 366.917996 
C 131.598772 366.775676 131.678737 366.582621 131.678737 366.38135 
C 131.678737 366.180079 131.598772 365.987025 131.456452 365.844705 
C 131.314132 365.702385 131.121077 365.622419 130.919806 365.622419 
C 130.718535 365.622419 130.525481 365.702385 130.383161 365.844705 
C 130.240841 365.987025 130.160875 366.180079 130.160875 366.38135 
C 130.160875 366.582621 130.240841 366.775676 130.383161 366.917996 
C 130.525481 367.060316 130.718535 367.140281 130.919806 367.140281 
z
" style="fill:#ffbd7d;stroke:#ffbd7d;"/>
    <path clip-path="url(#pe80139407f)" d="M 131.792453 363.760442 
C 131.99804 363.760442 132.195235 363.678761 132.340607 363.533389 
C 132.485979 363.388017 132.56766 363.190823 132.56766 362.985235 
C 132.56766 362.779648 132.485979 362.582454 132.340607 362.437081 
C 132.195235 362.291709 131.99804 362.210029 131.792453 362.210029 
C 131.586866 362.210029 131.389671 362.291709 131.244299 362.437081 
C 131.098927 362.582454 131.017246 362.779648 131.017246 362.985235 
C 131.017246 363.190823 131.098927 363.388017 131.244299 363.533389 
C 131.389671 363.678761 131.586866 363.760442 131.792453 363.760442 
z
" style="fill:#ffbd7e;stroke:#ffbd7e;"/>
    <path clip-path="url(#pe80139407f)" d="M 132.689652 360.380952 
C 132.899648 360.380952 133.101072 360.29752 133.249561 360.14903 
C 133.398051 360.00054 133.481483 359.799117 133.481483 359.589121 
C 133.481483 359.379124 133.398051 359.177701 133.249561 359.029211 
C 133.101072 358.880721 132.899648 358.797289 132.689652 358.797289 
C 132.479656 358.797289 132.278232 358.880721 132.129743 359.029211 
C 131.981253 359.177701 131.897821 359.379124 131.897821 359.589121 
C 131.897821 359.799117 131.981253 360.00054 132.129743 360.14903 
C 132.278232 360.29752 132.479656 360.380952 132.689652 360.380952 
z
" style="fill:#ffbe7f;stroke:#ffbe7f;"/>
    <path clip-path="url(#pe80139407f)" d="M 133.612093 357.001818 
C 133.826593 357.001818 134.032336 356.916597 134.18401 356.764923 
C 134.335684 356.613248 134.420906 356.407505 134.420906 356.193006 
C 134.420906 355.978506 134.335684 355.772763 134.18401 355.621089 
C 134.032336 355.469415 133.826593 355.384193 133.612093 355.384193 
C 133.397594 355.384193 133.19185 355.469415 133.040176 355.621089 
C 132.888502 355.772763 132.803281 355.978506 132.803281 356.193006 
C 132.803281 356.407505 132.888502 356.613248 133.040176 356.764923 
C 133.19185 356.916597 133.397594 357.001818 133.612093 357.001818 
z
" style="fill:#ffc083;stroke:#ffc083;"/>
    <path clip-path="url(#pe80139407f)" d="M 134.560487 353.623049 
C 134.779587 353.623049 134.989742 353.536 135.144669 353.381073 
C 135.299596 353.226146 135.386645 353.015991 135.386645 352.796891 
C 135.386645 352.577791 135.299596 352.367636 135.144669 352.212709 
C 134.989742 352.057782 134.779587 351.970733 134.560487 351.970733 
C 134.341387 351.970733 134.131232 352.057782 133.976305 352.212709 
C 133.821378 352.367636 133.734329 352.577791 133.734329 352.796891 
C 133.734329 353.015991 133.821378 353.226146 133.976305 353.381073 
C 134.131232 353.536 134.341387 353.623049 134.560487 353.623049 
z
" style="fill:#ffc287;stroke:#ffc287;"/>
    <path clip-path="url(#pe80139407f)" d="M 135.535564 350.244651 
C 135.759362 350.244651 135.974025 350.155735 136.132274 349.997486 
C 136.290523 349.839237 136.379439 349.624574 136.379439 349.400776 
C 136.379439 349.176978 136.290523 348.962315 136.132274 348.804066 
C 135.974025 348.645817 135.759362 348.556901 135.535564 348.556901 
C 135.311766 348.556901 135.097103 348.645817 134.938854 348.804066 
C 134.780605 348.962315 134.691689 349.176978 134.691689 349.400776 
C 134.691689 349.624574 134.780605 349.839237 134.938854 349.997486 
C 135.097103 350.155735 135.311766 350.244651 135.535564 350.244651 
z
" style="fill:#ffc48b;stroke:#ffc48b;"/>
    <path clip-path="url(#pe80139407f)" d="M 136.538074 346.866634 
C 136.766672 346.866634 136.985938 346.775811 137.147581 346.614168 
C 137.309224 346.452525 137.400047 346.233259 137.400047 346.004661 
C 137.400047 345.776063 137.309224 345.556797 137.147581 345.395154 
C 136.985938 345.233511 136.766672 345.142688 136.538074 345.142688 
C 136.309477 345.142688 136.090211 345.233511 135.928568 345.395154 
C 135.766924 345.556797 135.676102 345.776063 135.676102 346.004661 
C 135.676102 346.233259 135.766924 346.452525 135.928568 346.614168 
C 136.090211 346.775811 136.309477 346.866634 136.538074 346.866634 
z
" style="fill:#ffc68f;stroke:#ffc68f;"/>
    <path clip-path="url(#pe80139407f)" d="M 137.56879 343.489005 
C 137.802291 343.489005 138.026259 343.396234 138.191368 343.231124 
C 138.356478 343.066015 138.449249 342.842047 138.449249 342.608546 
C 138.449249 342.375046 138.356478 342.151078 138.191368 341.985968 
C 138.026259 341.820859 137.802291 341.728088 137.56879 341.728088 
C 137.33529 341.728088 137.111322 341.820859 136.946212 341.985968 
C 136.781103 342.151078 136.688332 342.375046 136.688332 342.608546 
C 136.688332 342.842047 136.781103 343.066015 136.946212 343.231124 
C 137.111322 343.396234 137.33529 343.489005 137.56879 343.489005 
z
" style="fill:#ffc996;stroke:#ffc996;"/>
    <path clip-path="url(#pe80139407f)" d="M 138.628505 340.111772 
C 138.867013 340.111772 139.095784 340.017011 139.264435 339.848361 
C 139.433085 339.679711 139.527845 339.450939 139.527845 339.212431 
C 139.527845 338.973924 139.433085 338.745152 139.264435 338.576502 
C 139.095784 338.407851 138.867013 338.313091 138.628505 338.313091 
C 138.389997 338.313091 138.161226 338.407851 137.992576 338.576502 
C 137.823925 338.745152 137.729165 338.973924 137.729165 339.212431 
C 137.729165 339.450939 137.823925 339.679711 137.992576 339.848361 
C 138.161226 340.017011 138.389997 340.111772 138.628505 340.111772 
z
" style="fill:#ffce9e;stroke:#ffce9e;"/>
    <path clip-path="url(#pe80139407f)" d="M 139.718035 336.734944 
C 139.961657 336.734944 140.195335 336.638151 140.367602 336.465884 
C 140.539869 336.293617 140.636662 336.059939 140.636662 335.816317 
C 140.636662 335.572694 140.539869 335.339017 140.367602 335.166749 
C 140.195335 334.994482 139.961657 334.89769 139.718035 334.89769 
C 139.474412 334.89769 139.240735 334.994482 139.068467 335.166749 
C 138.8962 335.339017 138.799408 335.572694 138.799408 335.816317 
C 138.799408 336.059939 138.8962 336.293617 139.068467 336.465884 
C 139.240735 336.638151 139.474412 336.734944 139.718035 336.734944 
z
" style="fill:#ffd3a7;stroke:#ffd3a7;"/>
    <path clip-path="url(#pe80139407f)" d="M 140.838218 333.358529 
C 141.087065 333.358529 141.325754 333.259661 141.501716 333.083699 
C 141.677677 332.907738 141.776546 332.669049 141.776546 332.420202 
C 141.776546 332.171354 141.677677 331.932666 141.501716 331.756704 
C 141.325754 331.580742 141.087065 331.481874 140.838218 331.481874 
C 140.589371 331.481874 140.350682 331.580742 140.174721 331.756704 
C 139.998759 331.932666 139.899891 332.171354 139.899891 332.420202 
C 139.899891 332.669049 139.998759 332.907738 140.174721 333.083699 
C 140.350682 333.259661 140.589371 333.358529 140.838218 333.358529 
z
" style="fill:#ffd8af;stroke:#ffd8af;"/>
    <path clip-path="url(#pe80139407f)" d="M 141.989918 329.982537 
C 142.244102 329.982537 142.487909 329.881549 142.667644 329.701814 
C 142.84738 329.522078 142.948368 329.278271 142.948368 329.024087 
C 142.948368 328.769903 142.84738 328.526095 142.667644 328.34636 
C 142.487909 328.166625 142.244102 328.065637 141.989918 328.065637 
C 141.735734 328.065637 141.491926 328.166625 141.312191 328.34636 
C 141.132456 328.526095 141.031467 328.769903 141.031467 329.024087 
C 141.031467 329.278271 141.132456 329.522078 141.312191 329.701814 
C 141.491926 329.881549 141.735734 329.982537 141.989918 329.982537 
z
" style="fill:#ffdcb6;stroke:#ffdcb6;"/>
    <path clip-path="url(#pe80139407f)" d="M 143.17402 326.606977 
C 143.433655 326.606977 143.682691 326.503823 143.866281 326.320233 
C 144.049871 326.136643 144.153025 325.887607 144.153025 325.627972 
C 144.153025 325.368337 144.049871 325.119301 143.866281 324.935711 
C 143.682691 324.752121 143.433655 324.648967 143.17402 324.648967 
C 142.914385 324.648967 142.665349 324.752121 142.481759 324.935711 
C 142.298169 325.119301 142.195015 325.368337 142.195015 325.627972 
C 142.195015 325.887607 142.298169 326.136643 142.481759 326.320233 
C 142.665349 326.503823 142.914385 326.606977 143.17402 326.606977 
z
" style="fill:#ffe0be;stroke:#ffe0be;"/>
    <path clip-path="url(#pe80139407f)" d="M 144.391437 323.231857 
C 144.65664 323.231857 144.911017 323.126491 145.098544 322.938964 
C 145.286071 322.751437 145.391437 322.49706 145.391437 322.231857 
C 145.391437 321.966654 145.286071 321.712277 145.098544 321.52475 
C 144.911017 321.337224 144.65664 321.231857 144.391437 321.231857 
C 144.126234 321.231857 143.871857 321.337224 143.68433 321.52475 
C 143.496803 321.712277 143.391437 321.966654 143.391437 322.231857 
C 143.391437 322.49706 143.496803 322.751437 143.68433 322.938964 
C 143.871857 323.126491 144.126234 323.231857 144.391437 323.231857 
z
" style="fill:#ffe4c5;stroke:#ffe4c5;"/>
   </g>
   <g id="PathCollection_3">
    <path clip-path="url(#pe80139407f)" d="M 431.206666 101.298626 
C 432.689196 101.298626 434.111206 100.70961 435.159513 99.661303 
C 436.20782 98.612995 436.796836 97.190986 436.796836 95.708456 
C 436.796836 94.225925 436.20782 92.803916 435.159513 91.755609 
C 434.111206 90.707301 432.689196 90.118286 431.206666 90.118286 
C 429.724136 90.118286 428.302126 90.707301 427.253819 91.755609 
C 426.205512 92.803916 425.616496 94.225925 425.616496 95.708456 
C 425.616496 97.190986 426.205512 98.612995 427.253819 99.661303 
C 428.302126 100.70961 429.724136 101.298626 431.206666 101.298626 
z
" style="fill:#a1b8ff;stroke:#a1b8ff;"/>
    <path clip-path="url(#pe80139407f)" d="M 453.185933 90.440283 
C 454.839912 90.440283 456.426372 89.78315 457.595911 88.61361 
C 458.765451 87.44407 459.422584 85.857611 459.422584 84.203632 
C 459.422584 82.549653 458.765451 80.963194 457.595911 79.793654 
C 456.426372 78.624114 454.839912 77.966981 453.185933 77.966981 
C 451.531954 77.966981 449.945495 78.624114 448.775955 79.793654 
C 447.606416 80.963194 446.949283 82.549653 446.949283 84.203632 
C 446.949283 85.857611 447.606416 87.44407 448.775955 88.61361 
C 449.945495 89.78315 451.531954 90.440283 453.185933 90.440283 
z
" style="fill:#a0b7ff;stroke:#a0b7ff;"/>
    <path clip-path="url(#pe80139407f)" d="M 476.623345 79.656702 
C 478.4686 79.656702 480.238526 78.923575 481.543319 77.618782 
C 482.848111 76.31399 483.581239 74.544063 483.581239 72.698808 
C 483.581239 70.853553 482.848111 69.083626 481.543319 67.778834 
C 480.238526 66.474042 478.4686 65.740914 476.623345 65.740914 
C 474.77809 65.740914 473.008163 66.474042 471.70337 67.778834 
C 470.398578 69.083626 469.66545 70.853553 469.66545 72.698808 
C 469.66545 74.544063 470.398578 76.31399 471.70337 77.618782 
C 473.008163 78.923575 474.77809 79.656702 476.623345 79.656702 
z
" style="fill:#9fb6ff;stroke:#9fb6ff;"/>
    <path clip-path="url(#pe80139407f)" d="M 501.615636 68.956531 
C 503.674287 68.956531 505.648899 68.13862 507.104585 66.682934 
C 508.560272 65.227248 509.378182 63.252636 509.378182 61.193985 
C 509.378182 59.135333 508.560272 57.160722 507.104585 55.705035 
C 505.648899 54.249349 503.674287 53.431438 501.615636 53.431438 
C 499.556984 53.431438 497.582373 54.249349 496.126686 55.705035 
C 494.671 57.160722 493.853089 59.135333 493.853089 61.193985 
C 493.853089 63.252636 494.671 65.227248 496.126686 66.682934 
C 497.582373 68.13862 499.556984 68.956531 501.615636 68.956531 
z
" style="fill:#9db4ff;stroke:#9db4ff;"/>
    <path clip-path="url(#pe80139407f)" d="M 528.26596 58.349415 
C 530.562686 58.349415 532.765654 57.436916 534.389684 55.812885 
C 536.013715 54.188855 536.926214 51.985887 536.926214 49.689161 
C 536.926214 47.392435 536.013715 45.189467 534.389684 43.565436 
C 532.765654 41.941406 530.562686 41.028907 528.26596 41.028907 
C 525.969234 41.028907 523.766266 41.941406 522.142236 43.565436 
C 520.518205 45.189467 519.605706 47.392435 519.605706 49.689161 
C 519.605706 51.985887 520.518205 54.188855 522.142236 55.812885 
C 523.766266 57.436916 525.969234 58.349415 528.26596 58.349415 
z
" style="fill:#9cb3ff;stroke:#9cb3ff;"/>
   </g>
   <g id="matplotlib.axis_1">
    <g id="xtick_1">
     <g id="line2d_1">
      <defs>
       <path d="M 0 0 
L 0 3.5 
" id="m4dd3f5ae07" style="stroke:#000000;stroke-width:0.8;"/>
      </defs>
      <g>
       <use style="stroke:#000000;stroke-width:0.8;" x="99.903161" xlink:href="#m4dd3f5ae07" y="511"/>
      </g>
     </g>
     <g id="text_1">
      <!-- 0 -->
      <defs>
       <path d="M 31.78125 66.40625 
Q 24.171875 66.40625 20.328125 58.90625 
Q 16.5 51.421875 16.5 36.375 
Q 16.5 21.390625 20.328125 13.890625 
Q 24.171875 6.390625 31.78125 6.390625 
Q 39.453125 6.390625 43.28125 13.890625 
Q 47.125 21.390625 47.125 36.375 
Q 47.125 51.421875 43.28125 58.90625 
Q 39.453125 66.40625 31.78125 66.40625 
z
M 31.78125 74.21875 
Q 44.046875 74.21875 50.515625 64.515625 
Q 56.984375 54.828125 56.984375 36.375 
Q 56.984375 17.96875 50.515625 8.265625 
Q 44.046875 -1.421875 31.78125 -1.421875 
Q 19.53125 -1.421875 13.0625 8.265625 
Q 6.59375 17.96875 6.59375 36.375 
Q 6.59375 54.828125 13.0625 64.515625 
Q 19.53125 74.21875 31.78125 74.21875 
z
" id="DejaVuSans-30"/>
      </defs>
      <g transform="translate(94.176911 531.677187)scale(0.18 -0.18)">
       <use xlink:href="#DejaVuSans-30"/>
      </g>
     </g>
    </g>
    <g id="xtick_2">
     <g id="line2d_2">
      <g>
       <use style="stroke:#000000;stroke-width:0.8;" x="191.322266" xlink:href="#m4dd3f5ae07" y="511"/>
      </g>
     </g>
     <g id="text_2">
      <!-- 10000 -->
      <defs>
       <path d="M 12.40625 8.296875 
L 28.515625 8.296875 
L 28.515625 63.921875 
L 10.984375 60.40625 
L 10.984375 69.390625 
L 28.421875 72.90625 
L 38.28125 72.90625 
L 38.28125 8.296875 
L 54.390625 8.296875 
L 54.390625 0 
L 12.40625 0 
z
" id="DejaVuSans-31"/>
      </defs>
      <g transform="translate(162.691016 531.677187)scale(0.18 -0.18)">
       <use xlink:href="#DejaVuSans-31"/>
       <use x="63.623047" xlink:href="#DejaVuSans-30"/>
       <use x="127.246094" xlink:href="#DejaVuSans-30"/>
       <use x="190.869141" xlink:href="#DejaVuSans-30"/>
       <use x="254.492188" xlink:href="#DejaVuSans-30"/>
      </g>
     </g>
    </g>
    <g id="xtick_3">
     <g id="line2d_3">
      <g>
       <use style="stroke:#000000;stroke-width:0.8;" x="282.741371" xlink:href="#m4dd3f5ae07" y="511"/>
      </g>
     </g>
     <g id="text_3">
      <!-- 20000 -->
      <defs>
       <path d="M 19.1875 8.296875 
L 53.609375 8.296875 
L 53.609375 0 
L 7.328125 0 
L 7.328125 8.296875 
Q 12.9375 14.109375 22.625 23.890625 
Q 32.328125 33.6875 34.8125 36.53125 
Q 39.546875 41.84375 41.421875 45.53125 
Q 43.3125 49.21875 43.3125 52.78125 
Q 43.3125 58.59375 39.234375 62.25 
Q 35.15625 65.921875 28.609375 65.921875 
Q 23.96875 65.921875 18.8125 64.3125 
Q 13.671875 62.703125 7.8125 59.421875 
L 7.8125 69.390625 
Q 13.765625 71.78125 18.9375 73 
Q 24.125 74.21875 28.421875 74.21875 
Q 39.75 74.21875 46.484375 68.546875 
Q 53.21875 62.890625 53.21875 53.421875 
Q 53.21875 48.921875 51.53125 44.890625 
Q 49.859375 40.875 45.40625 35.40625 
Q 44.1875 33.984375 37.640625 27.21875 
Q 31.109375 20.453125 19.1875 8.296875 
z
" id="DejaVuSans-32"/>
      </defs>
      <g transform="translate(254.110121 531.677187)scale(0.18 -0.18)">
       <use xlink:href="#DejaVuSans-32"/>
       <use x="63.623047" xlink:href="#DejaVuSans-30"/>
       <use x="127.246094" xlink:href="#DejaVuSans-30"/>
       <use x="190.869141" xlink:href="#DejaVuSans-30"/>
       <use x="254.492188" xlink:href="#DejaVuSans-30"/>
      </g>
     </g>
    </g>
    <g id="xtick_4">
     <g id="line2d_4">
      <g>
       <use style="stroke:#000000;stroke-width:0.8;" x="374.160475" xlink:href="#m4dd3f5ae07" y="511"/>
      </g>
     </g>
     <g id="text_4">
      <!-- 30000 -->
      <defs>
       <path d="M 40.578125 39.3125 
Q 47.65625 37.796875 51.625 33 
Q 55.609375 28.21875 55.609375 21.1875 
Q 55.609375 10.40625 48.1875 4.484375 
Q 40.765625 -1.421875 27.09375 -1.421875 
Q 22.515625 -1.421875 17.65625 -0.515625 
Q 12.796875 0.390625 7.625 2.203125 
L 7.625 11.71875 
Q 11.71875 9.328125 16.59375 8.109375 
Q 21.484375 6.890625 26.8125 6.890625 
Q 36.078125 6.890625 40.9375 10.546875 
Q 45.796875 14.203125 45.796875 21.1875 
Q 45.796875 27.640625 41.28125 31.265625 
Q 36.765625 34.90625 28.71875 34.90625 
L 20.21875 34.90625 
L 20.21875 43.015625 
L 29.109375 43.015625 
Q 36.375 43.015625 40.234375 45.921875 
Q 44.09375 48.828125 44.09375 54.296875 
Q 44.09375 59.90625 40.109375 62.90625 
Q 36.140625 65.921875 28.71875 65.921875 
Q 24.65625 65.921875 20.015625 65.03125 
Q 15.375 64.15625 9.8125 62.3125 
L 9.8125 71.09375 
Q 15.4375 72.65625 20.34375 73.4375 
Q 25.25 74.21875 29.59375 74.21875 
Q 40.828125 74.21875 47.359375 69.109375 
Q 53.90625 64.015625 53.90625 55.328125 
Q 53.90625 49.265625 50.4375 45.09375 
Q 46.96875 40.921875 40.578125 39.3125 
z
" id="DejaVuSans-33"/>
      </defs>
      <g transform="translate(345.529225 531.677187)scale(0.18 -0.18)">
       <use xlink:href="#DejaVuSans-33"/>
       <use x="63.623047" xlink:href="#DejaVuSans-30"/>
       <use x="127.246094" xlink:href="#DejaVuSans-30"/>
       <use x="190.869141" xlink:href="#DejaVuSans-30"/>
       <use x="254.492188" xlink:href="#DejaVuSans-30"/>
      </g>
     </g>
    </g>
    <g id="xtick_5">
     <g id="line2d_5">
      <g>
       <use style="stroke:#000000;stroke-width:0.8;" x="465.57958" xlink:href="#m4dd3f5ae07" y="511"/>
      </g>
     </g>
     <g id="text_5">
      <!-- 40000 -->
      <defs>
       <path d="M 37.796875 64.3125 
L 12.890625 25.390625 
L 37.796875 25.390625 
z
M 35.203125 72.90625 
L 47.609375 72.90625 
L 47.609375 25.390625 
L 58.015625 25.390625 
L 58.015625 17.1875 
L 47.609375 17.1875 
L 47.609375 0 
L 37.796875 0 
L 37.796875 17.1875 
L 4.890625 17.1875 
L 4.890625 26.703125 
z
" id="DejaVuSans-34"/>
      </defs>
      <g transform="translate(436.94833 531.677187)scale(0.18 -0.18)">
       <use xlink:href="#DejaVuSans-34"/>
       <use x="63.623047" xlink:href="#DejaVuSans-30"/>
       <use x="127.246094" xlink:href="#DejaVuSans-30"/>
       <use x="190.869141" xlink:href="#DejaVuSans-30"/>
       <use x="254.492188" xlink:href="#DejaVuSans-30"/>
      </g>
     </g>
    </g>
    <g id="text_6">
     <!-- Temperature -->
     <defs>
      <path d="M -0.296875 72.90625 
L 61.375 72.90625 
L 61.375 64.59375 
L 35.5 64.59375 
L 35.5 0 
L 25.59375 0 
L 25.59375 64.59375 
L -0.296875 64.59375 
z
" id="DejaVuSans-54"/>
      <path d="M 56.203125 29.59375 
L 56.203125 25.203125 
L 14.890625 25.203125 
Q 15.484375 15.921875 20.484375 11.0625 
Q 25.484375 6.203125 34.421875 6.203125 
Q 39.59375 6.203125 44.453125 7.46875 
Q 49.3125 8.734375 54.109375 11.28125 
L 54.109375 2.78125 
Q 49.265625 0.734375 44.1875 -0.34375 
Q 39.109375 -1.421875 33.890625 -1.421875 
Q 20.796875 -1.421875 13.15625 6.1875 
Q 5.515625 13.8125 5.515625 26.8125 
Q 5.515625 40.234375 12.765625 48.109375 
Q 20.015625 56 32.328125 56 
Q 43.359375 56 49.78125 48.890625 
Q 56.203125 41.796875 56.203125 29.59375 
z
M 47.21875 32.234375 
Q 47.125 39.59375 43.09375 43.984375 
Q 39.0625 48.390625 32.421875 48.390625 
Q 24.90625 48.390625 20.390625 44.140625 
Q 15.875 39.890625 15.1875 32.171875 
z
" id="DejaVuSans-65"/>
      <path d="M 52 44.1875 
Q 55.375 50.25 60.0625 53.125 
Q 64.75 56 71.09375 56 
Q 79.640625 56 84.28125 50.015625 
Q 88.921875 44.046875 88.921875 33.015625 
L 88.921875 0 
L 79.890625 0 
L 79.890625 32.71875 
Q 79.890625 40.578125 77.09375 44.375 
Q 74.3125 48.1875 68.609375 48.1875 
Q 61.625 48.1875 57.5625 43.546875 
Q 53.515625 38.921875 53.515625 30.90625 
L 53.515625 0 
L 44.484375 0 
L 44.484375 32.71875 
Q 44.484375 40.625 41.703125 44.40625 
Q 38.921875 48.1875 33.109375 48.1875 
Q 26.21875 48.1875 22.15625 43.53125 
Q 18.109375 38.875 18.109375 30.90625 
L 18.109375 0 
L 9.078125 0 
L 9.078125 54.6875 
L 18.109375 54.6875 
L 18.109375 46.1875 
Q 21.1875 51.21875 25.484375 53.609375 
Q 29.78125 56 35.6875 56 
Q 41.65625 56 45.828125 52.96875 
Q 50 49.953125 52 44.1875 
z
" id="DejaVuSans-6d"/>
      <path d="M 18.109375 8.203125 
L 18.109375 -20.796875 
L 9.078125 -20.796875 
L 9.078125 54.6875 
L 18.109375 54.6875 
L 18.109375 46.390625 
Q 20.953125 51.265625 25.265625 53.625 
Q 29.59375 56 35.59375 56 
Q 45.5625 56 51.78125 48.09375 
Q 58.015625 40.1875 58.015625 27.296875 
Q 58.015625 14.40625 51.78125 6.484375 
Q 45.5625 -1.421875 35.59375 -1.421875 
Q 29.59375 -1.421875 25.265625 0.953125 
Q 20.953125 3.328125 18.109375 8.203125 
z
M 48.6875 27.296875 
Q 48.6875 37.203125 44.609375 42.84375 
Q 40.53125 48.484375 33.40625 48.484375 
Q 26.265625 48.484375 22.1875 42.84375 
Q 18.109375 37.203125 18.109375 27.296875 
Q 18.109375 17.390625 22.1875 11.75 
Q 26.265625 6.109375 33.40625 6.109375 
Q 40.53125 6.109375 44.609375 11.75 
Q 48.6875 17.390625 48.6875 27.296875 
z
" id="DejaVuSans-70"/>
      <path d="M 41.109375 46.296875 
Q 39.59375 47.171875 37.8125 47.578125 
Q 36.03125 48 33.890625 48 
Q 26.265625 48 22.1875 43.046875 
Q 18.109375 38.09375 18.109375 28.8125 
L 18.109375 0 
L 9.078125 0 
L 9.078125 54.6875 
L 18.109375 54.6875 
L 18.109375 46.1875 
Q 20.953125 51.171875 25.484375 53.578125 
Q 30.03125 56 36.53125 56 
Q 37.453125 56 38.578125 55.875 
Q 39.703125 55.765625 41.0625 55.515625 
z
" id="DejaVuSans-72"/>
      <path d="M 34.28125 27.484375 
Q 23.390625 27.484375 19.1875 25 
Q 14.984375 22.515625 14.984375 16.5 
Q 14.984375 11.71875 18.140625 8.90625 
Q 21.296875 6.109375 26.703125 6.109375 
Q 34.1875 6.109375 38.703125 11.40625 
Q 43.21875 16.703125 43.21875 25.484375 
L 43.21875 27.484375 
z
M 52.203125 31.203125 
L 52.203125 0 
L 43.21875 0 
L 43.21875 8.296875 
Q 40.140625 3.328125 35.546875 0.953125 
Q 30.953125 -1.421875 24.3125 -1.421875 
Q 15.921875 -1.421875 10.953125 3.296875 
Q 6 8.015625 6 15.921875 
Q 6 25.140625 12.171875 29.828125 
Q 18.359375 34.515625 30.609375 34.515625 
L 43.21875 34.515625 
L 43.21875 35.40625 
Q 43.21875 41.609375 39.140625 45 
Q 35.0625 48.390625 27.6875 48.390625 
Q 23 48.390625 18.546875 47.265625 
Q 14.109375 46.140625 10.015625 43.890625 
L 10.015625 52.203125 
Q 14.9375 54.109375 19.578125 55.046875 
Q 24.21875 56 28.609375 56 
Q 40.484375 56 46.34375 49.84375 
Q 52.203125 43.703125 52.203125 31.203125 
z
" id="DejaVuSans-61"/>
      <path d="M 18.3125 70.21875 
L 18.3125 54.6875 
L 36.8125 54.6875 
L 36.8125 47.703125 
L 18.3125 47.703125 
L 18.3125 18.015625 
Q 18.3125 11.328125 20.140625 9.421875 
Q 21.96875 7.515625 27.59375 7.515625 
L 36.8125 7.515625 
L 36.8125 0 
L 27.59375 0 
Q 17.1875 0 13.234375 3.875 
Q 9.28125 7.765625 9.28125 18.015625 
L 9.28125 47.703125 
L 2.6875 47.703125 
L 2.6875 54.6875 
L 9.28125 54.6875 
L 9.28125 70.21875 
z
" id="DejaVuSans-74"/>
      <path d="M 8.5 21.578125 
L 8.5 54.6875 
L 17.484375 54.6875 
L 17.484375 21.921875 
Q 17.484375 14.15625 20.5 10.265625 
Q 23.53125 6.390625 29.59375 6.390625 
Q 36.859375 6.390625 41.078125 11.03125 
Q 45.3125 15.671875 45.3125 23.6875 
L 45.3125 54.6875 
L 54.296875 54.6875 
L 54.296875 0 
L 45.3125 0 
L 45.3125 8.40625 
Q 42.046875 3.421875 37.71875 1 
Q 33.40625 -1.421875 27.6875 -1.421875 
Q 18.265625 -1.421875 13.375 4.4375 
Q 8.5 10.296875 8.5 21.578125 
z
M 31.109375 56 
z
" id="DejaVuSans-75"/>
     </defs>
     <g transform="translate(263.341872 553.097813)scale(0.18 -0.18)">
      <use xlink:href="#DejaVuSans-54"/>
      <use x="60.818359" xlink:href="#DejaVuSans-65"/>
      <use x="122.341797" xlink:href="#DejaVuSans-6d"/>
      <use x="219.753906" xlink:href="#DejaVuSans-70"/>
      <use x="283.230469" xlink:href="#DejaVuSans-65"/>
      <use x="344.753906" xlink:href="#DejaVuSans-72"/>
      <use x="385.867188" xlink:href="#DejaVuSans-61"/>
      <use x="447.146484" xlink:href="#DejaVuSans-74"/>
      <use x="486.355469" xlink:href="#DejaVuSans-75"/>
      <use x="549.734375" xlink:href="#DejaVuSans-72"/>
      <use x="590.816406" xlink:href="#DejaVuSans-65"/>
     </g>
    </g>
   </g>
   <g id="matplotlib.axis_2">
    <g id="ytick_1">
     <g id="line2d_6">
      <defs>
       <path d="M 0 0 
L -3.5 0 
" id="mb078cfbd2b" style="stroke:#000000;stroke-width:0.8;"/>
      </defs>
      <g>
       <use style="stroke:#000000;stroke-width:0.8;" x="90.065619" xlink:href="#mb078cfbd2b" y="460.915693"/>
      </g>
     </g>
     <g id="text_7">
      <!-- $\mathdefault{10^{-4}}$ -->
      <defs>
       <path d="M 10.59375 35.5 
L 73.1875 35.5 
L 73.1875 27.203125 
L 10.59375 27.203125 
z
" id="DejaVuSans-2212"/>
      </defs>
      <g transform="translate(40.765619 467.754287)scale(0.18 -0.18)">
       <use transform="translate(0 0.684375)" xlink:href="#DejaVuSans-31"/>
       <use transform="translate(63.623047 0.684375)" xlink:href="#DejaVuSans-30"/>
       <use transform="translate(128.203125 38.965625)scale(0.7)" xlink:href="#DejaVuSans-2212"/>
       <use transform="translate(186.855469 38.965625)scale(0.7)" xlink:href="#DejaVuSans-34"/>
      </g>
     </g>
    </g>
    <g id="ytick_2">
     <g id="line2d_7">
      <g>
       <use style="stroke:#000000;stroke-width:0.8;" x="90.065619" xlink:href="#mb078cfbd2b" y="379.761571"/>
      </g>
     </g>
     <g id="text_8">
      <!-- $\mathdefault{10^{-2}}$ -->
      <g transform="translate(40.765619 386.600165)scale(0.18 -0.18)">
       <use transform="translate(0 0.765625)" xlink:href="#DejaVuSans-31"/>
       <use transform="translate(63.623047 0.765625)" xlink:href="#DejaVuSans-30"/>
       <use transform="translate(128.203125 39.046875)scale(0.7)" xlink:href="#DejaVuSans-2212"/>
       <use transform="translate(186.855469 39.046875)scale(0.7)" xlink:href="#DejaVuSans-32"/>
      </g>
     </g>
    </g>
    <g id="ytick_3">
     <g id="line2d_8">
      <g>
       <use style="stroke:#000000;stroke-width:0.8;" x="90.065619" xlink:href="#mb078cfbd2b" y="298.607449"/>
      </g>
     </g>
     <g id="text_9">
      <!-- $\mathdefault{10^{0}}$ -->
      <g transform="translate(51.385619 305.446042)scale(0.18 -0.18)">
       <use transform="translate(0 0.765625)" xlink:href="#DejaVuSans-31"/>
       <use transform="translate(63.623047 0.765625)" xlink:href="#DejaVuSans-30"/>
       <use transform="translate(128.203125 39.046875)scale(0.7)" xlink:href="#DejaVuSans-30"/>
      </g>
     </g>
    </g>
    <g id="ytick_4">
     <g id="line2d_9">
      <g>
       <use style="stroke:#000000;stroke-width:0.8;" x="90.065619" xlink:href="#mb078cfbd2b" y="217.453326"/>
      </g>
     </g>
     <g id="text_10">
      <!-- $\mathdefault{10^{2}}$ -->
      <g transform="translate(51.385619 224.29192)scale(0.18 -0.18)">
       <use transform="translate(0 0.765625)" xlink:href="#DejaVuSans-31"/>
       <use transform="translate(63.623047 0.765625)" xlink:href="#DejaVuSans-30"/>
       <use transform="translate(128.203125 39.046875)scale(0.7)" xlink:href="#DejaVuSans-32"/>
      </g>
     </g>
    </g>
    <g id="ytick_5">
     <g id="line2d_10">
      <g>
       <use style="stroke:#000000;stroke-width:0.8;" x="90.065619" xlink:href="#mb078cfbd2b" y="136.299204"/>
      </g>
     </g>
     <g id="text_11">
      <!-- $\mathdefault{10^{4}}$ -->
      <g transform="translate(51.385619 143.137798)scale(0.18 -0.18)">
       <use transform="translate(0 0.684375)" xlink:href="#DejaVuSans-31"/>
       <use transform="translate(63.623047 0.684375)" xlink:href="#DejaVuSans-30"/>
       <use transform="translate(128.203125 38.965625)scale(0.7)" xlink:href="#DejaVuSans-34"/>
      </g>
     </g>
    </g>
    <g id="ytick_6">
     <g id="line2d_11">
      <g>
       <use style="stroke:#000000;stroke-width:0.8;" x="90.065619" xlink:href="#mb078cfbd2b" y="55.145082"/>
      </g>
     </g>
     <g id="text_12">
      <!-- $\mathdefault{10^{6}}$ -->
      <defs>
       <path d="M 33.015625 40.375 
Q 26.375 40.375 22.484375 35.828125 
Q 18.609375 31.296875 18.609375 23.390625 
Q 18.609375 15.53125 22.484375 10.953125 
Q 26.375 6.390625 33.015625 6.390625 
Q 39.65625 6.390625 43.53125 10.953125 
Q 47.40625 15.53125 47.40625 23.390625 
Q 47.40625 31.296875 43.53125 35.828125 
Q 39.65625 40.375 33.015625 40.375 
z
M 52.59375 71.296875 
L 52.59375 62.3125 
Q 48.875 64.0625 45.09375 64.984375 
Q 41.3125 65.921875 37.59375 65.921875 
Q 27.828125 65.921875 22.671875 59.328125 
Q 17.53125 52.734375 16.796875 39.40625 
Q 19.671875 43.65625 24.015625 45.921875 
Q 28.375 48.1875 33.59375 48.1875 
Q 44.578125 48.1875 50.953125 41.515625 
Q 57.328125 34.859375 57.328125 23.390625 
Q 57.328125 12.15625 50.6875 5.359375 
Q 44.046875 -1.421875 33.015625 -1.421875 
Q 20.359375 -1.421875 13.671875 8.265625 
Q 6.984375 17.96875 6.984375 36.375 
Q 6.984375 53.65625 15.1875 63.9375 
Q 23.390625 74.21875 37.203125 74.21875 
Q 40.921875 74.21875 44.703125 73.484375 
Q 48.484375 72.75 52.59375 71.296875 
z
" id="DejaVuSans-36"/>
      </defs>
      <g transform="translate(51.385619 61.983676)scale(0.18 -0.18)">
       <use transform="translate(0 0.765625)" xlink:href="#DejaVuSans-31"/>
       <use transform="translate(63.623047 0.765625)" xlink:href="#DejaVuSans-30"/>
       <use transform="translate(128.203125 39.046875)scale(0.7)" xlink:href="#DejaVuSans-36"/>
      </g>
     </g>
    </g>
    <g id="text_13">
     <!-- Luminosity -->
     <defs>
      <path d="M 9.8125 72.90625 
L 19.671875 72.90625 
L 19.671875 8.296875 
L 55.171875 8.296875 
L 55.171875 0 
L 9.8125 0 
z
" id="DejaVuSans-4c"/>
      <path d="M 9.421875 54.6875 
L 18.40625 54.6875 
L 18.40625 0 
L 9.421875 0 
z
M 9.421875 75.984375 
L 18.40625 75.984375 
L 18.40625 64.59375 
L 9.421875 64.59375 
z
" id="DejaVuSans-69"/>
      <path d="M 54.890625 33.015625 
L 54.890625 0 
L 45.90625 0 
L 45.90625 32.71875 
Q 45.90625 40.484375 42.875 44.328125 
Q 39.84375 48.1875 33.796875 48.1875 
Q 26.515625 48.1875 22.3125 43.546875 
Q 18.109375 38.921875 18.109375 30.90625 
L 18.109375 0 
L 9.078125 0 
L 9.078125 54.6875 
L 18.109375 54.6875 
L 18.109375 46.1875 
Q 21.34375 51.125 25.703125 53.5625 
Q 30.078125 56 35.796875 56 
Q 45.21875 56 50.046875 50.171875 
Q 54.890625 44.34375 54.890625 33.015625 
z
" id="DejaVuSans-6e"/>
      <path d="M 30.609375 48.390625 
Q 23.390625 48.390625 19.1875 42.75 
Q 14.984375 37.109375 14.984375 27.296875 
Q 14.984375 17.484375 19.15625 11.84375 
Q 23.34375 6.203125 30.609375 6.203125 
Q 37.796875 6.203125 41.984375 11.859375 
Q 46.1875 17.53125 46.1875 27.296875 
Q 46.1875 37.015625 41.984375 42.703125 
Q 37.796875 48.390625 30.609375 48.390625 
z
M 30.609375 56 
Q 42.328125 56 49.015625 48.375 
Q 55.71875 40.765625 55.71875 27.296875 
Q 55.71875 13.875 49.015625 6.21875 
Q 42.328125 -1.421875 30.609375 -1.421875 
Q 18.84375 -1.421875 12.171875 6.21875 
Q 5.515625 13.875 5.515625 27.296875 
Q 5.515625 40.765625 12.171875 48.375 
Q 18.84375 56 30.609375 56 
z
" id="DejaVuSans-6f"/>
      <path d="M 44.28125 53.078125 
L 44.28125 44.578125 
Q 40.484375 46.53125 36.375 47.5 
Q 32.28125 48.484375 27.875 48.484375 
Q 21.1875 48.484375 17.84375 46.4375 
Q 14.5 44.390625 14.5 40.28125 
Q 14.5 37.15625 16.890625 35.375 
Q 19.28125 33.59375 26.515625 31.984375 
L 29.59375 31.296875 
Q 39.15625 29.25 43.1875 25.515625 
Q 47.21875 21.78125 47.21875 15.09375 
Q 47.21875 7.46875 41.1875 3.015625 
Q 35.15625 -1.421875 24.609375 -1.421875 
Q 20.21875 -1.421875 15.453125 -0.5625 
Q 10.6875 0.296875 5.421875 2 
L 5.421875 11.28125 
Q 10.40625 8.6875 15.234375 7.390625 
Q 20.0625 6.109375 24.8125 6.109375 
Q 31.15625 6.109375 34.5625 8.28125 
Q 37.984375 10.453125 37.984375 14.40625 
Q 37.984375 18.0625 35.515625 20.015625 
Q 33.0625 21.96875 24.703125 23.78125 
L 21.578125 24.515625 
Q 13.234375 26.265625 9.515625 29.90625 
Q 5.8125 33.546875 5.8125 39.890625 
Q 5.8125 47.609375 11.28125 51.796875 
Q 16.75 56 26.8125 56 
Q 31.78125 56 36.171875 55.265625 
Q 40.578125 54.546875 44.28125 53.078125 
z
" id="DejaVuSans-73"/>
      <path d="M 32.171875 -5.078125 
Q 28.375 -14.84375 24.75 -17.8125 
Q 21.140625 -20.796875 15.09375 -20.796875 
L 7.90625 -20.796875 
L 7.90625 -13.28125 
L 13.1875 -13.28125 
Q 16.890625 -13.28125 18.9375 -11.515625 
Q 21 -9.765625 23.484375 -3.21875 
L 25.09375 0.875 
L 2.984375 54.6875 
L 12.5 54.6875 
L 29.59375 11.921875 
L 46.6875 54.6875 
L 56.203125 54.6875 
z
" id="DejaVuSans-79"/>
     </defs>
     <g transform="translate(33.022181 315.718437)rotate(-90)scale(0.18 -0.18)">
      <use xlink:href="#DejaVuSans-4c"/>
      <use x="55.697266" xlink:href="#DejaVuSans-75"/>
      <use x="119.076172" xlink:href="#DejaVuSans-6d"/>
      <use x="216.488281" xlink:href="#DejaVuSans-69"/>
      <use x="244.271484" xlink:href="#DejaVuSans-6e"/>
      <use x="307.650391" xlink:href="#DejaVuSans-6f"/>
      <use x="368.832031" xlink:href="#DejaVuSans-73"/>
      <use x="420.931641" xlink:href="#DejaVuSans-69"/>
      <use x="448.714844" xlink:href="#DejaVuSans-74"/>
      <use x="487.923828" xlink:href="#DejaVuSans-79"/>
     </g>
    </g>
   </g>
   <g id="patch_3">
    <path d="M 90.065619 511 
L 90.065619 21.96 
" style="fill:none;stroke:#000000;stroke-linecap:square;stroke-linejoin:miter;stroke-width:0.8;"/>
   </g>
   <g id="patch_4">
    <path d="M 554.04 511 
L 554.04 21.96 
" style="fill:none;stroke:#000000;stroke-linecap:square;stroke-linejoin:miter;stroke-width:0.8;"/>
   </g>
   <g id="patch_5">
    <path d="M 90.065619 511 
L 554.04 511 
" style="fill:none;stroke:#000000;stroke-linecap:square;stroke-linejoin:miter;stroke-width:0.8;"/>
   </g>
   <g id="patch_6">
    <path d="M 90.065619 21.96 
L 554.04 21.96 
" style="fill:none;stroke:#000000;stroke-linecap:square;stroke-linejoin:miter;stroke-width:0.8;"/>
   </g>
  </g>
 </g>
 <defs>
  <clipPath id="pe80139407f">
   <rect height="489.04" width="463.974381" x="90.065619" y="21.96"/>
  </clipPath>
 </defs>
</svg>
