<?xml version="1.0" encoding="utf-8" standalone="no"?>
<!DOCTYPE svg PUBLIC "-//W3C//DTD SVG 1.1//EN"
  "http://www.w3.org/Graphics/SVG/1.1/DTD/svg11.dtd">
<!-- Created with matplotlib (http://matplotlib.org/) -->
<svg height="576pt" version="1.1" viewBox="0 0 576 576" width="576pt" xmlns="http://www.w3.org/2000/svg" xmlns:xlink="http://www.w3.org/1999/xlink">
 <defs>
  <style type="text/css">
*{stroke-linecap:butt;stroke-linejoin:round;}
  </style>
 </defs>
 <g id="figure_1">
  <g id="patch_1">
   <path d="M 0 576 
L 576 576 
L 576 0 
L 0 0 
z
" style="fill:#ffffff;"/>
  </g>
  <g id="axes_1">
   <g id="patch_2">
    <path d="M 90.065619 511 
L 554.04 511 
L 554.04 21.96 
L 90.065619 21.96 
z
" style="fill:#ffffff;"/>
   </g>
   <g id="PathCollection_1">
    <path clip-path="url(#p87a0c3ccc7)" d="M 144.472577 324.643412 
C 144.737781 324.643412 144.992157 324.538045 145.179684 324.350518 
C 145.367211 324.162991 145.472577 323.908615 145.472577 323.643412 
C 145.472577 323.378208 145.367211 323.123832 145.179684 322.936305 
C 144.992157 322.748778 144.737781 322.643412 144.472577 322.643412 
C 144.207374 322.643412 143.952998 322.748778 143.765471 322.936305 
C 143.577944 323.123832 143.472577 323.378208 143.472577 323.643412 
C 143.472577 323.908615 143.577944 324.162991 143.765471 324.350518 
C 143.952998 324.538045 144.207374 324.643412 144.472577 324.643412 
z
" style="fill:#ffe4c5;stroke:#ffe4c5;"/>
    <path clip-path="url(#p87a0c3ccc7)" d="M 145.932725 320.956883 
C 146.203992 320.956883 146.464185 320.849108 146.655999 320.657293 
C 146.847814 320.465479 146.955589 320.205286 146.955589 319.934019 
C 146.955589 319.662753 146.847814 319.40256 146.655999 319.210746 
C 146.464185 319.018931 146.203992 318.911156 145.932725 318.911156 
C 145.661459 318.911156 145.401266 319.018931 145.209452 319.210746 
C 145.017637 319.40256 144.909862 319.662753 144.909862 319.934019 
C 144.909862 320.205286 145.017637 320.465479 145.209452 320.657293 
C 145.401266 320.849108 145.661459 320.956883 145.932725 320.956883 
z
" style="fill:#ffe9ce;stroke:#ffe9ce;"/>
    <path clip-path="url(#p87a0c3ccc7)" d="M 147.440739 317.51177 
C 147.717936 317.51177 147.983818 317.401638 148.179826 317.20563 
C 148.375834 317.009621 148.485966 316.74374 148.485966 316.466542 
C 148.485966 316.189345 148.375834 315.923463 148.179826 315.727455 
C 147.983818 315.531447 147.717936 315.421315 147.440739 315.421315 
C 147.163541 315.421315 146.89766 315.531447 146.701651 315.727455 
C 146.505643 315.923463 146.395511 316.189345 146.395511 316.466542 
C 146.395511 316.74374 146.505643 317.009621 146.701651 317.20563 
C 146.89766 317.401638 147.163541 317.51177 147.440739 317.51177 
z
" style="fill:#ffeed8;stroke:#ffeed8;"/>
    <path clip-path="url(#p87a0c3ccc7)" d="M 148.772547 314.026456 
C 149.055707 314.026456 149.327307 313.913956 149.527531 313.713732 
C 149.727755 313.513508 149.840255 313.241908 149.840255 312.958749 
C 149.840255 312.675589 149.727755 312.403989 149.527531 312.203765 
C 149.327307 312.003541 149.055707 311.891041 148.772547 311.891041 
C 148.489388 311.891041 148.217788 312.003541 148.017564 312.203765 
C 147.81734 312.403989 147.70484 312.675589 147.70484 312.958749 
C 147.70484 313.241908 147.81734 313.513508 148.017564 313.713732 
C 148.217788 313.913956 148.489388 314.026456 148.772547 314.026456 
z
" style="fill:#fff2e1;stroke:#fff2e1;"/>
    <path clip-path="url(#p87a0c3ccc7)" d="M 150.141696 310.782023 
C 150.430542 310.782023 150.707597 310.667263 150.911842 310.463018 
C 151.116087 310.258772 151.230847 309.981718 151.230847 309.692871 
C 151.230847 309.404025 151.116087 309.126971 150.911842 308.922725 
C 150.707597 308.71848 150.430542 308.60372 150.141696 308.60372 
C 149.852849 308.60372 149.575795 308.71848 149.37155 308.922725 
C 149.167305 309.126971 149.052545 309.404025 149.052545 309.692871 
C 149.052545 309.981718 149.167305 310.258772 149.37155 310.463018 
C 149.575795 310.667263 149.852849 310.782023 150.141696 310.782023 
z
" style="fill:#fff4e8;stroke:#fff4e8;"/>
    <path clip-path="url(#p87a0c3ccc7)" d="M 152.509366 304.57417 
C 152.809262 304.57417 153.096916 304.45502 153.308975 304.242961 
C 153.521034 304.030902 153.640184 303.743248 153.640184 303.443351 
C 153.640184 303.143455 153.521034 302.855801 153.308975 302.643742 
C 153.096916 302.431683 152.809262 302.312533 152.509366 302.312533 
C 152.209469 302.312533 151.921815 302.431683 151.709756 302.643742 
C 151.497698 302.855801 151.378547 303.143455 151.378547 303.443351 
C 151.378547 303.743248 151.497698 304.030902 151.709756 304.242961 
C 151.921815 304.45502 152.209469 304.57417 152.509366 304.57417 
z
" style="fill:#fff5ed;stroke:#fff5ed;"/>
    <path clip-path="url(#p87a0c3ccc7)" d="M 154.735541 298.687926 
C 155.046237 298.687926 155.344249 298.564486 155.563944 298.344791 
C 155.783638 298.125096 155.907079 297.827084 155.907079 297.516389 
C 155.907079 297.205693 155.783638 296.907681 155.563944 296.687986 
C 155.344249 296.468292 155.046237 296.344851 154.735541 296.344851 
C 154.424846 296.344851 154.126834 296.468292 153.907139 296.687986 
C 153.687444 296.907681 153.564004 297.205693 153.564004 297.516389 
C 153.564004 297.827084 153.687444 298.125096 153.907139 298.344791 
C 154.126834 298.564486 154.424846 298.687926 154.735541 298.687926 
z
" style="fill:#fff7f2;stroke:#fff7f2;"/>
    <path clip-path="url(#p87a0c3ccc7)" d="M 157.850969 289.770134 
C 158.181144 289.770134 158.497841 289.638954 158.73131 289.405485 
C 158.964779 289.172016 159.095959 288.855319 159.095959 288.525144 
C 159.095959 288.194969 158.964779 287.878272 158.73131 287.644803 
C 158.497841 287.411334 158.181144 287.280154 157.850969 287.280154 
C 157.520794 287.280154 157.204097 287.411334 156.970628 287.644803 
C 156.737159 287.878272 156.605979 288.194969 156.605979 288.525144 
C 156.605979 288.855319 156.737159 289.172016 156.970628 289.405485 
C 157.204097 289.638954 157.520794 289.770134 157.850969 289.770134 
z
" style="fill:#fdf9fb;stroke:#fdf9fb;"/>
    <path clip-path="url(#p87a0c3ccc7)" d="M 160.303157 283.289537 
C 160.646899 283.289537 160.976609 283.152966 161.219672 282.909904 
C 161.462735 282.666841 161.599305 282.337131 161.599305 281.993389 
C 161.599305 281.649646 161.462735 281.319936 161.219672 281.076874 
C 160.976609 280.833811 160.646899 280.697241 160.303157 280.697241 
C 159.959414 280.697241 159.629704 280.833811 159.386642 281.076874 
C 159.143579 281.319936 159.007009 281.649646 159.007009 281.993389 
C 159.007009 282.337131 159.143579 282.666841 159.386642 282.909904 
C 159.629704 283.152966 159.959414 283.289537 160.303157 283.289537 
z
" style="fill:#f8f6ff;stroke:#f8f6ff;"/>
    <path clip-path="url(#p87a0c3ccc7)" d="M 163.295539 276.572028 
C 163.654177 276.572028 163.998174 276.429539 164.251769 276.175944 
C 164.505364 275.922349 164.647852 275.578352 164.647852 275.219715 
C 164.647852 274.861077 164.505364 274.51708 164.251769 274.263485 
C 163.998174 274.00989 163.654177 273.867402 163.295539 273.867402 
C 162.936901 273.867402 162.592904 274.00989 162.339309 274.263485 
C 162.085714 274.51708 161.943226 274.861077 161.943226 275.219715 
C 161.943226 275.578352 162.085714 275.922349 162.339309 276.175944 
C 162.592904 276.429539 162.936901 276.572028 163.295539 276.572028 
z
" style="fill:#f0f0ff;stroke:#f0f0ff;"/>
    <path clip-path="url(#p87a0c3ccc7)" d="M 167.985888 269.737971 
C 168.36059 269.737971 168.719996 269.589101 168.98495 269.324146 
C 169.249904 269.059192 169.398775 268.699786 169.398775 268.325084 
C 169.398775 267.950382 169.249904 267.590976 168.98495 267.326022 
C 168.719996 267.061068 168.36059 266.912197 167.985888 266.912197 
C 167.611186 266.912197 167.25178 267.061068 166.986826 267.326022 
C 166.721872 267.590976 166.573001 267.950382 166.573001 268.325084 
C 166.573001 268.699786 166.721872 269.059192 166.986826 269.324146 
C 167.25178 269.589101 167.611186 269.737971 167.985888 269.737971 
z
" style="fill:#e4e8ff;stroke:#e4e8ff;"/>
    <path clip-path="url(#p87a0c3ccc7)" d="M 173.869984 262.948103 
C 174.261776 262.948103 174.637574 262.792443 174.914613 262.515404 
C 175.191652 262.238365 175.347313 261.862567 175.347313 261.470775 
C 175.347313 261.078982 175.191652 260.703184 174.914613 260.426145 
C 174.637574 260.149107 174.261776 259.993446 173.869984 259.993446 
C 173.478192 259.993446 173.102394 260.149107 172.825355 260.426145 
C 172.548316 260.703184 172.392655 261.078982 172.392655 261.470775 
C 172.392655 261.862567 172.548316 262.238365 172.825355 262.515404 
C 173.102394 262.792443 173.478192 262.948103 173.869984 262.948103 
z
" style="fill:#d5dfff;stroke:#d5dfff;"/>
    <path clip-path="url(#p87a0c3ccc7)" d="M 179.34273 257.002244 
C 179.750897 257.002244 180.142402 256.840078 180.43102 256.55146 
C 180.719638 256.262842 180.881804 255.871337 180.881804 255.46317 
C 180.881804 255.055003 180.719638 254.663498 180.43102 254.37488 
C 180.142402 254.086262 179.750897 253.924096 179.34273 253.924096 
C 178.934563 253.924096 178.543058 254.086262 178.25444 254.37488 
C 177.965822 254.663498 177.803655 255.055003 177.803655 255.46317 
C 177.803655 255.871337 177.965822 256.262842 178.25444 256.55146 
C 178.543058 256.840078 178.934563 257.002244 179.34273 257.002244 
z
" style="fill:#c8d6ff;stroke:#c8d6ff;"/>
    <path clip-path="url(#p87a0c3ccc7)" d="M 185.220443 251.05986 
C 185.645906 251.05986 186.054 250.890822 186.354848 250.589974 
C 186.655695 250.289126 186.824734 249.881032 186.824734 249.455569 
C 186.824734 249.030106 186.655695 248.622012 186.354848 248.321164 
C 186.054 248.020316 185.645906 247.851278 185.220443 247.851278 
C 184.79498 247.851278 184.386885 248.020316 184.086038 248.321164 
C 183.78519 248.622012 183.616152 249.030106 183.616152 249.455569 
C 183.616152 249.881032 183.78519 250.289126 184.086038 250.589974 
C 184.386885 250.890822 184.79498 251.05986 185.220443 251.05986 
z
" style="fill:#bed0ff;stroke:#bed0ff;"/>
    <path clip-path="url(#p87a0c3ccc7)" d="M 197.860544 239.108295 
C 198.324271 239.108295 198.769067 238.924054 199.096971 238.59615 
C 199.424875 238.268246 199.609115 237.82345 199.609115 237.359724 
C 199.609115 236.895997 199.424875 236.451202 199.096971 236.123298 
C 198.769067 235.795393 198.324271 235.611153 197.860544 235.611153 
C 197.396818 235.611153 196.952022 235.795393 196.624118 236.123298 
C 196.296214 236.451202 196.111973 236.895997 196.111973 237.359724 
C 196.111973 237.82345 196.296214 238.268246 196.624118 238.59615 
C 196.952022 238.924054 197.396818 239.108295 197.860544 239.108295 
z
" style="fill:#b9cbff;stroke:#b9cbff;"/>
    <path clip-path="url(#p87a0c3ccc7)" d="M 220.139827 219.708974 
C 220.676904 219.708974 221.192056 219.495591 221.571827 219.11582 
C 221.951598 218.736049 222.164981 218.220897 222.164981 217.68382 
C 222.164981 217.146743 221.951598 216.63159 221.571827 216.251819 
C 221.192056 215.872049 220.676904 215.658666 220.139827 215.658666 
C 219.602749 215.658666 219.087597 215.872049 218.707826 216.251819 
C 218.328055 216.63159 218.114672 217.146743 218.114672 217.68382 
C 218.114672 218.220897 218.328055 218.736049 218.707826 219.11582 
C 219.087597 219.495591 219.602749 219.708974 220.139827 219.708974 
z
" style="fill:#b7c9ff;stroke:#b7c9ff;"/>
    <path clip-path="url(#p87a0c3ccc7)" d="M 246.133322 200.090256 
C 246.760417 200.090256 247.361912 199.841108 247.805335 199.397685 
C 248.248757 198.954263 248.497905 198.352768 248.497905 197.725673 
C 248.497905 197.098579 248.248757 196.497084 247.805335 196.053661 
C 247.361912 195.610238 246.760417 195.361091 246.133322 195.361091 
C 245.506228 195.361091 244.904733 195.610238 244.46131 196.053661 
C 244.017887 196.497084 243.76874 197.098579 243.76874 197.725673 
C 243.76874 198.352768 244.017887 198.954263 244.46131 199.397685 
C 244.904733 199.841108 245.506228 200.090256 246.133322 200.090256 
z
" style="fill:#b3c7ff;stroke:#b3c7ff;"/>
    <path clip-path="url(#p87a0c3ccc7)" d="M 268.184842 185.750767 
C 268.890564 185.750767 269.567477 185.470381 270.066497 184.97136 
C 270.565518 184.472339 270.845904 183.795427 270.845904 183.089705 
C 270.845904 182.383984 270.565518 181.707071 270.066497 181.208051 
C 269.567477 180.70903 268.890564 180.428644 268.184842 180.428644 
C 267.479121 180.428644 266.802208 180.70903 266.303188 181.208051 
C 265.804167 181.707071 265.523781 182.383984 265.523781 183.089705 
C 265.523781 183.795427 265.804167 184.472339 266.303188 184.97136 
C 266.802208 185.470381 267.479121 185.750767 268.184842 185.750767 
z
" style="fill:#b0c4ff;stroke:#b0c4ff;"/>
    <path clip-path="url(#p87a0c3ccc7)" d="M 287.418476 174.203768 
C 288.194903 174.203768 288.939634 173.89529 289.488651 173.346274 
C 290.037668 172.797257 290.346145 172.052526 290.346145 171.276098 
C 290.346145 170.499671 290.037668 169.75494 289.488651 169.205923 
C 288.939634 168.656906 288.194903 168.348429 287.418476 168.348429 
C 286.642049 168.348429 285.897317 168.656906 285.348301 169.205923 
C 284.799284 169.75494 284.490806 170.499671 284.490806 171.276098 
C 284.490806 172.052526 284.799284 172.797257 285.348301 173.346274 
C 285.897317 173.89529 286.642049 174.203768 287.418476 174.203768 
z
" style="fill:#adc1ff;stroke:#adc1ff;"/>
    <path clip-path="url(#p87a0c3ccc7)" d="M 304.09432 164.852003 
C 304.935531 164.852003 305.7424 164.517787 306.337226 163.922962 
C 306.932051 163.328136 307.266268 162.521266 307.266268 161.680056 
C 307.266268 160.838846 306.932051 160.031976 306.337226 159.437151 
C 305.7424 158.842325 304.935531 158.508109 304.09432 158.508109 
C 303.25311 158.508109 302.44624 158.842325 301.851415 159.437151 
C 301.256589 160.031976 300.922373 160.838846 300.922373 161.680056 
C 300.922373 162.521266 301.256589 163.328136 301.851415 163.922962 
C 302.44624 164.517787 303.25311 164.852003 304.09432 164.852003 
z
" style="fill:#aabfff;stroke:#aabfff;"/>
    <path clip-path="url(#p87a0c3ccc7)" d="M 319.202381 156.893738 
C 320.103681 156.893738 320.968188 156.535648 321.605504 155.898332 
C 322.242819 155.261017 322.60091 154.39651 322.60091 153.495209 
C 322.60091 152.593909 322.242819 151.729402 321.605504 151.092086 
C 320.968188 150.454771 320.103681 150.09668 319.202381 150.09668 
C 318.30108 150.09668 317.436574 150.454771 316.799258 151.092086 
C 316.161942 151.729402 315.803852 152.593909 315.803852 153.495209 
C 315.803852 154.39651 316.161942 155.261017 316.799258 155.898332 
C 317.436574 156.535648 318.30108 156.893738 319.202381 156.893738 
z
" style="fill:#a8bdff;stroke:#a8bdff;"/>
    <path clip-path="url(#p87a0c3ccc7)" d="M 332.732176 150.090538 
C 333.689804 150.090538 334.608338 149.710069 335.285483 149.032924 
C 335.962628 148.355779 336.343097 147.437245 336.343097 146.479618 
C 336.343097 145.52199 335.962628 144.603456 335.285483 143.926311 
C 334.608338 143.249166 333.689804 142.868697 332.732176 142.868697 
C 331.774549 142.868697 330.856014 143.249166 330.17887 143.926311 
C 329.501725 144.603456 329.121255 145.52199 329.121255 146.479618 
C 329.121255 147.437245 329.501725 148.355779 330.17887 149.032924 
C 330.856014 149.710069 331.774549 150.090538 332.732176 150.090538 
z
" style="fill:#a7bcff;stroke:#a7bcff;"/>
    <path clip-path="url(#p87a0c3ccc7)" d="M 345.394883 143.920308 
C 346.405616 143.920308 347.375089 143.518739 348.089785 142.804043 
C 348.804482 142.089346 349.20605 141.119874 349.20605 140.10914 
C 349.20605 139.098407 348.804482 138.128934 348.089785 137.414238 
C 347.375089 136.699541 346.405616 136.297973 345.394883 136.297973 
C 344.384149 136.297973 343.414677 136.699541 342.69998 137.414238 
C 341.985284 138.128934 341.583715 139.098407 341.583715 140.10914 
C 341.583715 141.119874 341.985284 142.089346 342.69998 142.804043 
C 343.414677 143.518739 344.384149 143.920308 345.394883 143.920308 
z
" style="fill:#a6bcff;stroke:#a6bcff;"/>
    <path clip-path="url(#p87a0c3ccc7)" d="M 356.964542 138.586306 
C 358.025603 138.586306 359.043348 138.164742 359.793632 137.414459 
C 360.543915 136.664175 360.965479 135.64643 360.965479 134.585369 
C 360.965479 133.524308 360.543915 132.506562 359.793632 131.756279 
C 359.043348 131.005995 358.025603 130.584431 356.964542 130.584431 
C 355.903481 130.584431 354.885735 131.005995 354.135452 131.756279 
C 353.385168 132.506562 352.963604 133.524308 352.963604 134.585369 
C 352.963604 135.64643 353.385168 136.664175 354.135452 137.414459 
C 354.885735 138.164742 355.903481 138.586306 356.964542 138.586306 
z
" style="fill:#a6bbff;stroke:#a6bbff;"/>
    <path clip-path="url(#p87a0c3ccc7)" d="M 367.226604 133.767257 
C 368.335553 133.767257 369.399231 133.326667 370.183376 132.542522 
C 370.967521 131.758377 371.408111 130.694699 371.408111 129.58575 
C 371.408111 128.476802 370.967521 127.413123 370.183376 126.628978 
C 369.399231 125.844833 368.335553 125.404243 367.226604 125.404243 
C 366.117656 125.404243 365.053977 125.844833 364.269832 126.628978 
C 363.485687 127.413123 363.045097 128.476802 363.045097 129.58575 
C 363.045097 130.694699 363.485687 131.758377 364.269832 132.542522 
C 365.053977 133.326667 366.117656 133.767257 367.226604 133.767257 
z
" style="fill:#a5bbff;stroke:#a5bbff;"/>
    <path clip-path="url(#p87a0c3ccc7)" d="M 376.620846 129.343644 
C 377.775622 129.343644 378.883256 128.884847 379.699806 128.068297 
C 380.516356 127.251747 380.975154 126.144112 380.975154 124.989336 
C 380.975154 123.83456 380.516356 122.726925 379.699806 121.910375 
C 378.883256 121.093825 377.775622 120.635028 376.620846 120.635028 
C 375.46607 120.635028 374.358435 121.093825 373.541885 121.910375 
C 372.725335 122.726925 372.266537 123.83456 372.266537 124.989336 
C 372.266537 126.144112 372.725335 127.251747 373.541885 128.068297 
C 374.358435 128.884847 375.46607 129.343644 376.620846 129.343644 
z
" style="fill:#a4baff;stroke:#a4baff;"/>
    <path clip-path="url(#p87a0c3ccc7)" d="M 385.029225 125.518355 
C 386.228115 125.518355 387.378062 125.042031 388.225805 124.194288 
C 389.073548 123.346545 389.549872 122.196598 389.549872 120.997708 
C 389.549872 119.798818 389.073548 118.648871 388.225805 117.801128 
C 387.378062 116.953385 386.228115 116.477061 385.029225 116.477061 
C 383.830335 116.477061 382.680388 116.953385 381.832645 117.801128 
C 380.984902 118.648871 380.508578 119.798818 380.508578 120.997708 
C 380.508578 122.196598 380.984902 123.346545 381.832645 124.194288 
C 382.680388 125.042031 383.830335 125.518355 385.029225 125.518355 
z
" style="fill:#a4baff;stroke:#a4baff;"/>
    <path clip-path="url(#p87a0c3ccc7)" d="M 393.017469 121.92881 
C 394.258835 121.92881 395.449525 121.43561 396.327303 120.557832 
C 397.205081 119.680054 397.698281 118.489364 397.698281 117.247998 
C 397.698281 116.006633 397.205081 114.815943 396.327303 113.938165 
C 395.449525 113.060386 394.258835 112.567187 393.017469 112.567187 
C 391.776103 112.567187 390.585413 113.060386 389.707635 113.938165 
C 388.829857 114.815943 388.336657 116.006633 388.336657 117.247998 
C 388.336657 118.489364 388.829857 119.680054 389.707635 120.557832 
C 390.585413 121.43561 391.776103 121.92881 393.017469 121.92881 
z
" style="fill:#a3baff;stroke:#a3baff;"/>
    <path clip-path="url(#p87a0c3ccc7)" d="M 400.53653 118.535161 
C 401.818863 118.535161 403.048848 118.025684 403.955594 117.118938 
C 404.862341 116.212191 405.371817 114.982207 405.371817 113.699873 
C 405.371817 112.41754 404.862341 111.187556 403.955594 110.280809 
C 403.048848 109.374063 401.818863 108.864586 400.53653 108.864586 
C 399.254197 108.864586 398.024212 109.374063 397.117465 110.280809 
C 396.210719 111.187556 395.701243 112.41754 395.701243 113.699873 
C 395.701243 114.982207 396.210719 116.212191 397.117465 117.118938 
C 398.024212 118.025684 399.254197 118.535161 400.53653 118.535161 
z
" style="fill:#a3b9ff;stroke:#a3b9ff;"/>
    <path clip-path="url(#p87a0c3ccc7)" d="M 407.538983 115.338094 
C 408.860948 115.338094 410.128947 114.812872 411.063717 113.878101 
C 411.998487 112.943331 412.52371 111.675332 412.52371 110.353367 
C 412.52371 109.031403 411.998487 107.763404 411.063717 106.828634 
C 410.128947 105.893863 408.860948 105.368641 407.538983 105.368641 
C 406.217018 105.368641 404.94902 105.893863 404.014249 106.828634 
C 403.079479 107.763404 402.554257 109.031403 402.554257 110.353367 
C 402.554257 111.675332 403.079479 112.943331 404.014249 113.878101 
C 404.94902 114.812872 406.217018 115.338094 407.538983 115.338094 
z
" style="fill:#a2b9ff;stroke:#a2b9ff;"/>
    <path clip-path="url(#p87a0c3ccc7)" d="M 413.258284 112.537303 
C 414.618048 112.537303 415.922303 111.997063 416.883801 111.035565 
C 417.845299 110.074067 418.385539 108.769812 418.385539 107.410048 
C 418.385539 106.050284 417.845299 104.746029 416.883801 103.784531 
C 415.922303 102.823032 414.618048 102.282792 413.258284 102.282792 
C 411.89852 102.282792 410.594265 102.823032 409.632767 103.784531 
C 408.671268 104.746029 408.131028 106.050284 408.131028 107.410048 
C 408.131028 108.769812 408.671268 110.074067 409.632767 111.035565 
C 410.594265 111.997063 411.89852 112.537303 413.258284 112.537303 
z
" style="fill:#a2b9ff;stroke:#a2b9ff;"/>
    <path clip-path="url(#p87a0c3ccc7)" d="M 418.349899 109.933288 
C 419.746188 109.933288 421.085476 109.378537 422.072802 108.391212 
C 423.060127 107.403887 423.614878 106.064598 423.614878 104.668309 
C 423.614878 103.272021 423.060127 101.932732 422.072802 100.945407 
C 421.085476 99.958082 419.746188 99.403331 418.349899 99.403331 
C 416.953611 99.403331 415.614322 99.958082 414.626997 100.945407 
C 413.639672 101.932732 413.084921 103.272021 413.084921 104.668309 
C 413.084921 106.064598 413.639672 107.403887 414.626997 108.391212 
C 415.614322 109.378537 416.953611 109.933288 418.349899 109.933288 
z
" style="fill:#a2b9ff;stroke:#a2b9ff;"/>
    <path clip-path="url(#p87a0c3ccc7)" d="M 423.524185 107.405605 
C 424.955852 107.405605 426.329074 106.836798 427.341416 105.824456 
C 428.353757 104.812115 428.922564 103.438893 428.922564 102.007226 
C 428.922564 100.575559 428.353757 99.202337 427.341416 98.189995 
C 426.329074 97.177654 424.955852 96.608847 423.524185 96.608847 
C 422.092518 96.608847 420.719296 97.177654 419.706954 98.189995 
C 418.694613 99.202337 418.125806 100.575559 418.125806 102.007226 
C 418.125806 103.438893 418.694613 104.812115 419.706954 105.824456 
C 420.719296 106.836798 422.092518 107.405605 423.524185 107.405605 
z
" style="fill:#a1b8ff;stroke:#a1b8ff;"/>
    <path clip-path="url(#p87a0c3ccc7)" d="M 428.026255 104.994767 
C 429.492207 104.994767 430.898314 104.412338 431.934899 103.375754 
C 432.971484 102.339169 433.553913 100.933061 433.553913 99.467109 
C 433.553913 98.001157 432.971484 96.595049 431.934899 95.558465 
C 430.898314 94.52188 429.492207 93.939451 428.026255 93.939451 
C 426.560303 93.939451 425.154195 94.52188 424.11761 95.558465 
C 423.081025 96.595049 422.498597 98.001157 422.498597 99.467109 
C 422.498597 100.933061 423.081025 102.339169 424.11761 103.375754 
C 425.154195 104.412338 426.560303 104.994767 428.026255 104.994767 
z
" style="fill:#a1b8ff;stroke:#a1b8ff;"/>
   </g>
   <g id="PathCollection_2">
    <path clip-path="url(#p87a0c3ccc7)" d="M 111.326492 488.99586 
C 111.420255 488.99586 111.510191 488.958607 111.576492 488.892306 
C 111.642792 488.826006 111.680045 488.73607 111.680045 488.642306 
C 111.680045 488.548543 111.642792 488.458607 111.576492 488.392306 
C 111.510191 488.326006 111.420255 488.288753 111.326492 488.288753 
C 111.232728 488.288753 111.142792 488.326006 111.076492 488.392306 
C 111.010191 488.458607 110.972938 488.548543 110.972938 488.642306 
C 110.972938 488.73607 111.010191 488.826006 111.076492 488.892306 
C 111.142792 488.958607 111.232728 488.99586 111.326492 488.99586 
z
" style="fill:#9b3921;stroke:#9b3921;"/>
    <path clip-path="url(#p87a0c3ccc7)" d="M 111.647885 485.628885 
C 111.743659 485.628885 111.835523 485.590834 111.903246 485.523111 
C 111.970969 485.455389 112.00902 485.363524 112.00902 485.26775 
C 112.00902 485.171976 111.970969 485.080111 111.903246 485.012388 
C 111.835523 484.944666 111.743659 484.906614 111.647885 484.906614 
C 111.55211 484.906614 111.460246 484.944666 111.392523 485.012388 
C 111.324801 485.080111 111.286749 485.171976 111.286749 485.26775 
C 111.286749 485.363524 111.324801 485.455389 111.392523 485.523111 
C 111.460246 485.590834 111.55211 485.628885 111.647885 485.628885 
z
" style="fill:#9f3b22;stroke:#9f3b22;"/>
    <path clip-path="url(#p87a0c3ccc7)" d="M 111.97832 482.262074 
C 112.076148 482.262074 112.169983 482.223206 112.239158 482.154031 
C 112.308333 482.084856 112.3472 481.991022 112.3472 481.893193 
C 112.3472 481.795365 112.308333 481.701531 112.239158 481.632356 
C 112.169983 481.563181 112.076148 481.524313 111.97832 481.524313 
C 111.880492 481.524313 111.786657 481.563181 111.717482 481.632356 
C 111.648307 481.701531 111.60944 481.795365 111.60944 481.893193 
C 111.60944 481.991022 111.648307 482.084856 111.717482 482.154031 
C 111.786657 482.223206 111.880492 482.262074 111.97832 482.262074 
z
" style="fill:#a43d24;stroke:#a43d24;"/>
    <path clip-path="url(#p87a0c3ccc7)" d="M 112.318052 478.895428 
C 112.417978 478.895428 112.513825 478.855727 112.584484 478.785068 
C 112.655142 478.71441 112.694843 478.618563 112.694843 478.518637 
C 112.694843 478.418711 112.655142 478.322864 112.584484 478.252205 
C 112.513825 478.181547 112.417978 478.141846 112.318052 478.141846 
C 112.218126 478.141846 112.122279 478.181547 112.051621 478.252205 
C 111.980962 478.322864 111.941261 478.418711 111.941261 478.518637 
C 111.941261 478.618563 111.980962 478.71441 112.051621 478.785068 
C 112.122279 478.855727 112.218126 478.895428 112.318052 478.895428 
z
" style="fill:#a94025;stroke:#a94025;"/>
    <path clip-path="url(#p87a0c3ccc7)" d="M 112.667343 475.528952 
C 112.769412 475.528952 112.867314 475.4884 112.939488 475.416226 
C 113.011662 475.344052 113.052214 475.24615 113.052214 475.14408 
C 113.052214 475.042011 113.011662 474.944109 112.939488 474.871935 
C 112.867314 474.799761 112.769412 474.759209 112.667343 474.759209 
C 112.565273 474.759209 112.467371 474.799761 112.395197 474.871935 
C 112.323024 474.944109 112.282471 475.042011 112.282471 475.14408 
C 112.282471 475.24615 112.323024 475.344052 112.395197 475.416226 
C 112.467371 475.4884 112.565273 475.528952 112.667343 475.528952 
z
" style="fill:#ae4227;stroke:#ae4227;"/>
    <path clip-path="url(#p87a0c3ccc7)" d="M 113.02646 472.162649 
C 113.130718 472.162649 113.23072 472.121227 113.304442 472.047506 
C 113.378163 471.973784 113.419586 471.873782 113.419586 471.769524 
C 113.419586 471.665266 113.378163 471.565264 113.304442 471.491542 
C 113.23072 471.417821 113.130718 471.376399 113.02646 471.376399 
C 112.922202 471.376399 112.8222 471.417821 112.748479 471.491542 
C 112.674757 471.565264 112.633335 471.665266 112.633335 471.769524 
C 112.633335 471.873782 112.674757 471.973784 112.748479 472.047506 
C 112.8222 472.121227 112.922202 472.162649 113.02646 472.162649 
z
" style="fill:#b34528;stroke:#b34528;"/>
    <path clip-path="url(#p87a0c3ccc7)" d="M 113.395682 468.796524 
C 113.502176 468.796524 113.604322 468.754213 113.679625 468.678911 
C 113.754927 468.603608 113.797238 468.501461 113.797238 468.394968 
C 113.797238 468.288474 113.754927 468.186327 113.679625 468.111025 
C 113.604322 468.035722 113.502176 467.993411 113.395682 467.993411 
C 113.289188 467.993411 113.187041 468.035722 113.111739 468.111025 
C 113.036436 468.186327 112.994125 468.288474 112.994125 468.394968 
C 112.994125 468.501461 113.036436 468.603608 113.111739 468.678911 
C 113.187041 468.754213 113.289188 468.796524 113.395682 468.796524 
z
" style="fill:#b8472a;stroke:#b8472a;"/>
    <path clip-path="url(#p87a0c3ccc7)" d="M 113.775291 465.430579 
C 113.884069 465.430579 113.988406 465.387361 114.065323 465.310443 
C 114.142241 465.233526 114.185459 465.129189 114.185459 465.020411 
C 114.185459 464.911633 114.142241 464.807296 114.065323 464.730379 
C 113.988406 464.653461 113.884069 464.610243 113.775291 464.610243 
C 113.666513 464.610243 113.562176 464.653461 113.485259 464.730379 
C 113.408341 464.807296 113.365123 464.911633 113.365123 465.020411 
C 113.365123 465.129189 113.408341 465.233526 113.485259 465.310443 
C 113.562176 465.387361 113.666513 465.430579 113.775291 465.430579 
z
" style="fill:#be4a2b;stroke:#be4a2b;"/>
    <path clip-path="url(#p87a0c3ccc7)" d="M 114.16558 462.064819 
C 114.276691 462.064819 114.383266 462.020674 114.461833 461.942107 
C 114.5404 461.86354 114.584544 461.756965 114.584544 461.645855 
C 114.584544 461.534744 114.5404 461.428169 114.461833 461.349602 
C 114.383266 461.271035 114.276691 461.226891 114.16558 461.226891 
C 114.05447 461.226891 113.947895 461.271035 113.869328 461.349602 
C 113.790761 461.428169 113.746617 461.534744 113.746617 461.645855 
C 113.746617 461.756965 113.790761 461.86354 113.869328 461.942107 
C 113.947895 462.020674 114.05447 462.064819 114.16558 462.064819 
z
" style="fill:#c34d2d;stroke:#c34d2d;"/>
    <path clip-path="url(#p87a0c3ccc7)" d="M 114.566851 458.699247 
C 114.680344 458.699247 114.789204 458.654156 114.869456 458.573904 
C 114.949708 458.493652 114.9948 458.384792 114.9948 458.271298 
C 114.9948 458.157805 114.949708 458.048945 114.869456 457.968693 
C 114.789204 457.888441 114.680344 457.843349 114.566851 457.843349 
C 114.453357 457.843349 114.344497 457.888441 114.264245 457.968693 
C 114.183993 458.048945 114.138902 458.157805 114.138902 458.271298 
C 114.138902 458.384792 114.183993 458.493652 114.264245 458.573904 
C 114.344497 458.654156 114.453357 458.699247 114.566851 458.699247 
z
" style="fill:#ca502f;stroke:#ca502f;"/>
    <path clip-path="url(#p87a0c3ccc7)" d="M 114.979411 455.333868 
C 115.095338 455.333868 115.206533 455.28781 115.288506 455.205837 
C 115.370479 455.123864 115.416537 455.012669 115.416537 454.896742 
C 115.416537 454.780814 115.370479 454.66962 115.288506 454.587647 
C 115.206533 454.505674 115.095338 454.459615 114.979411 454.459615 
C 114.863483 454.459615 114.752289 454.505674 114.670316 454.587647 
C 114.588343 454.66962 114.542284 454.780814 114.542284 454.896742 
C 114.542284 455.012669 114.588343 455.123864 114.670316 455.205837 
C 114.752289 455.28781 114.863483 455.333868 114.979411 455.333868 
z
" style="fill:#d05331;stroke:#d05331;"/>
    <path clip-path="url(#p87a0c3ccc7)" d="M 115.403578 451.968686 
C 115.521991 451.968686 115.635571 451.92164 115.719302 451.837909 
C 115.803033 451.754178 115.850079 451.640599 115.850079 451.522185 
C 115.850079 451.403772 115.803033 451.290192 115.719302 451.206462 
C 115.635571 451.122731 115.521991 451.075684 115.403578 451.075684 
C 115.285164 451.075684 115.171585 451.122731 115.087854 451.206462 
C 115.004123 451.290192 114.957077 451.403772 114.957077 451.522185 
C 114.957077 451.640599 115.004123 451.754178 115.087854 451.837909 
C 115.171585 451.92164 115.285164 451.968686 115.403578 451.968686 
z
" style="fill:#d65733;stroke:#d65733;"/>
    <path clip-path="url(#p87a0c3ccc7)" d="M 115.839679 448.603705 
C 115.960632 448.603705 116.076647 448.55565 116.162174 448.470123 
C 116.2477 448.384597 116.295755 448.268582 116.295755 448.147629 
C 116.295755 448.026676 116.2477 447.910661 116.162174 447.825134 
C 116.076647 447.739608 115.960632 447.691553 115.839679 447.691553 
C 115.718726 447.691553 115.602711 447.739608 115.517184 447.825134 
C 115.431658 447.910661 115.383603 448.026676 115.383603 448.147629 
C 115.383603 448.268582 115.431658 448.384597 115.517184 448.470123 
C 115.602711 448.55565 115.718726 448.603705 115.839679 448.603705 
z
" style="fill:#dd5a35;stroke:#dd5a35;"/>
    <path clip-path="url(#p87a0c3ccc7)" d="M 116.28805 445.238929 
C 116.411596 445.238929 116.5301 445.189844 116.61746 445.102483 
C 116.704821 445.015122 116.753907 444.896619 116.753907 444.773072 
C 116.753907 444.649526 116.704821 444.531022 116.61746 444.443662 
C 116.5301 444.356301 116.411596 444.307215 116.28805 444.307215 
C 116.164503 444.307215 116.046 444.356301 115.958639 444.443662 
C 115.871278 444.531022 115.822193 444.649526 115.822193 444.773072 
C 115.822193 444.896619 115.871278 445.015122 115.958639 445.102483 
C 116.046 445.189844 116.164503 445.238929 116.28805 445.238929 
z
" style="fill:#e55e37;stroke:#e55e37;"/>
    <path clip-path="url(#p87a0c3ccc7)" d="M 116.749035 441.874363 
C 116.875231 441.874363 116.996276 441.824225 117.08551 441.734991 
C 117.174744 441.645757 117.224883 441.524712 117.224883 441.398516 
C 117.224883 441.27232 117.174744 441.151275 117.08551 441.062041 
C 116.996276 440.972807 116.875231 440.922668 116.749035 440.922668 
C 116.622839 440.922668 116.501794 440.972807 116.41256 441.062041 
C 116.323326 441.151275 116.273188 441.27232 116.273188 441.398516 
C 116.273188 441.524712 116.323326 441.645757 116.41256 441.734991 
C 116.501794 441.824225 116.622839 441.874363 116.749035 441.874363 
z
" style="fill:#ec6239;stroke:#ec6239;"/>
    <path clip-path="url(#p87a0c3ccc7)" d="M 117.22299 438.510012 
C 117.351893 438.510012 117.475533 438.458798 117.566681 438.36765 
C 117.657829 438.276502 117.709043 438.152862 117.709043 438.023959 
C 117.709043 437.895057 117.657829 437.771416 117.566681 437.680269 
C 117.475533 437.589121 117.351893 437.537907 117.22299 437.537907 
C 117.094088 437.537907 116.970447 437.589121 116.879299 437.680269 
C 116.788152 437.771416 116.736938 437.895057 116.736938 438.023959 
C 116.736938 438.152862 116.788152 438.276502 116.879299 438.36765 
C 116.970447 438.458798 117.094088 438.510012 117.22299 438.510012 
z
" style="fill:#f4653c;stroke:#f4653c;"/>
    <path clip-path="url(#p87a0c3ccc7)" d="M 117.71028 435.145879 
C 117.841947 435.145879 117.968239 435.093567 118.061342 435.000465 
C 118.154444 434.907362 118.206756 434.78107 118.206756 434.649403 
C 118.206756 434.517736 118.154444 434.391444 118.061342 434.298341 
C 117.968239 434.205239 117.841947 434.152927 117.71028 434.152927 
C 117.578613 434.152927 117.452321 434.205239 117.359219 434.298341 
C 117.266116 434.391444 117.213804 434.517736 117.213804 434.649403 
C 117.213804 434.78107 117.266116 434.907362 117.359219 435.000465 
C 117.452321 435.093567 117.578613 435.145879 117.71028 435.145879 
z
" style="fill:#fc6a3e;stroke:#fc6a3e;"/>
    <path clip-path="url(#p87a0c3ccc7)" d="M 118.21128 431.78197 
C 118.345771 431.78197 118.474771 431.728536 118.56987 431.633437 
C 118.664969 431.538338 118.718403 431.409337 118.718403 431.274847 
C 118.718403 431.140356 118.664969 431.011356 118.56987 430.916256 
C 118.474771 430.821157 118.345771 430.767723 118.21128 430.767723 
C 118.076789 430.767723 117.947789 430.821157 117.85269 430.916256 
C 117.75759 431.011356 117.704157 431.140356 117.704157 431.274847 
C 117.704157 431.409337 117.75759 431.538338 117.85269 431.633437 
C 117.947789 431.728536 118.076789 431.78197 118.21128 431.78197 
z
" style="fill:#ff6f42;stroke:#ff6f42;"/>
    <path clip-path="url(#p87a0c3ccc7)" d="M 118.726375 428.418289 
C 118.86375 428.418289 118.995517 428.363709 119.092655 428.26657 
C 119.189794 428.169432 119.244374 428.037665 119.244374 427.90029 
C 119.244374 427.762915 119.189794 427.631148 119.092655 427.53401 
C 118.995517 427.436871 118.86375 427.382291 118.726375 427.382291 
C 118.589 427.382291 118.457233 427.436871 118.360095 427.53401 
C 118.262956 427.631148 118.208376 427.762915 118.208376 427.90029 
C 118.208376 428.037665 118.262956 428.169432 118.360095 428.26657 
C 118.457233 428.363709 118.589 428.418289 118.726375 428.418289 
z
" style="fill:#ff7546;stroke:#ff7546;"/>
    <path clip-path="url(#p87a0c3ccc7)" d="M 119.255962 425.054841 
C 119.396283 425.054841 119.530876 424.999091 119.630098 424.899869 
C 119.72932 424.800647 119.78507 424.666055 119.78507 424.525734 
C 119.78507 424.385413 119.72932 424.25082 119.630098 424.151598 
C 119.530876 424.052376 119.396283 423.996626 119.255962 423.996626 
C 119.115641 423.996626 118.981049 424.052376 118.881827 424.151598 
C 118.782605 424.25082 118.726855 424.385413 118.726855 424.525734 
C 118.726855 424.666055 118.782605 424.800647 118.881827 424.899869 
C 118.981049 424.999091 119.115641 425.054841 119.255962 425.054841 
z
" style="fill:#ff7c4b;stroke:#ff7c4b;"/>
    <path clip-path="url(#p87a0c3ccc7)" d="M 119.80045 421.691632 
C 119.94378 421.691632 120.081259 421.634686 120.182609 421.533336 
C 120.283958 421.431986 120.340904 421.294507 120.340904 421.151177 
C 120.340904 421.007847 120.283958 420.870368 120.182609 420.769018 
C 120.081259 420.667668 119.94378 420.610723 119.80045 420.610723 
C 119.657119 420.610723 119.51964 420.667668 119.418291 420.769018 
C 119.316941 420.870368 119.259995 421.007847 119.259995 421.151177 
C 119.259995 421.294507 119.316941 421.431986 119.418291 421.533336 
C 119.51964 421.634686 119.657119 421.691632 119.80045 421.691632 
z
" style="fill:#ff8350;stroke:#ff8350;"/>
    <path clip-path="url(#p87a0c3ccc7)" d="M 120.360256 418.328665 
C 120.50666 418.328665 120.647087 418.270499 120.75061 418.166975 
C 120.854134 418.063452 120.9123 417.923025 120.9123 417.776621 
C 120.9123 417.630217 120.854134 417.489789 120.75061 417.386266 
C 120.647087 417.282743 120.50666 417.224576 120.360256 417.224576 
C 120.213852 417.224576 120.073424 417.282743 119.969901 417.386266 
C 119.866378 417.489789 119.808211 417.630217 119.808211 417.776621 
C 119.808211 417.923025 119.866378 418.063452 119.969901 418.166975 
C 120.073424 418.270499 120.213852 418.328665 120.360256 418.328665 
z
" style="fill:#ff8a55;stroke:#ff8a55;"/>
    <path clip-path="url(#p87a0c3ccc7)" d="M 120.935812 414.965948 
C 121.085356 414.965948 121.228794 414.906534 121.334538 414.80079 
C 121.440281 414.695047 121.499696 414.551608 121.499696 414.402064 
C 121.499696 414.252521 121.440281 414.109082 121.334538 414.003338 
C 121.228794 413.897595 121.085356 413.838181 120.935812 413.838181 
C 120.786268 413.838181 120.642829 413.897595 120.537086 414.003338 
C 120.431343 414.109082 120.371928 414.252521 120.371928 414.402064 
C 120.371928 414.551608 120.431343 414.695047 120.537086 414.80079 
C 120.642829 414.906534 120.786268 414.965948 120.935812 414.965948 
z
" style="fill:#ff915a;stroke:#ff915a;"/>
    <path clip-path="url(#p87a0c3ccc7)" d="M 121.527561 411.603484 
C 121.680312 411.603484 121.826827 411.542796 121.934838 411.434785 
C 122.042849 411.326774 122.103538 411.180259 122.103538 411.027508 
C 122.103538 410.874757 122.042849 410.728242 121.934838 410.620231 
C 121.826827 410.51222 121.680312 410.451531 121.527561 410.451531 
C 121.37481 410.451531 121.228295 410.51222 121.120284 410.620231 
C 121.012273 410.728242 120.951585 410.874757 120.951585 411.027508 
C 120.951585 411.180259 121.012273 411.326774 121.120284 411.434785 
C 121.228295 411.542796 121.37481 411.603484 121.527561 411.603484 
z
" style="fill:#ff9960;stroke:#ff9960;"/>
    <path clip-path="url(#p87a0c3ccc7)" d="M 122.135959 408.24128 
C 122.291986 408.24128 122.441643 408.17929 122.55197 408.068962 
C 122.662298 407.958635 122.724288 407.808978 122.724288 407.652951 
C 122.724288 407.496925 122.662298 407.347268 122.55197 407.23694 
C 122.441643 407.126613 122.291986 407.064623 122.135959 407.064623 
C 121.979933 407.064623 121.830276 407.126613 121.719948 407.23694 
C 121.609621 407.347268 121.547631 407.496925 121.547631 407.652951 
C 121.547631 407.808978 121.609621 407.958635 121.719948 408.068962 
C 121.830276 408.17929 121.979933 408.24128 122.135959 408.24128 
z
" style="fill:#ffa165;stroke:#ffa165;"/>
    <path clip-path="url(#p87a0c3ccc7)" d="M 122.761475 404.87934 
C 122.920847 404.87934 123.073714 404.816021 123.186407 404.703328 
C 123.299101 404.590634 123.36242 404.437768 123.36242 404.278395 
C 123.36242 404.119022 123.299101 403.966156 123.186407 403.853462 
C 123.073714 403.740769 122.920847 403.677449 122.761475 403.677449 
C 122.602102 403.677449 122.449235 403.740769 122.336542 403.853462 
C 122.223848 403.966156 122.160529 404.119022 122.160529 404.278395 
C 122.160529 404.437768 122.223848 404.590634 122.336542 404.703328 
C 122.449235 404.816021 122.602102 404.87934 122.761475 404.87934 
z
" style="fill:#ffa96b;stroke:#ffa96b;"/>
    <path clip-path="url(#p87a0c3ccc7)" d="M 123.404589 401.517672 
C 123.567379 401.517672 123.723524 401.452994 123.838634 401.337884 
C 123.953744 401.222774 124.018422 401.066629 124.018422 400.903838 
C 124.018422 400.741048 123.953744 400.584903 123.838634 400.469793 
C 123.723524 400.354683 123.567379 400.290005 123.404589 400.290005 
C 123.241798 400.290005 123.085653 400.354683 122.970543 400.469793 
C 122.855433 400.584903 122.790755 400.741048 122.790755 400.903838 
C 122.790755 401.066629 122.855433 401.222774 122.970543 401.337884 
C 123.085653 401.452994 123.241798 401.517672 123.404589 401.517672 
z
" style="fill:#ffb171;stroke:#ffb171;"/>
    <path clip-path="url(#p87a0c3ccc7)" d="M 124.065796 398.156279 
C 124.232078 398.156279 124.391572 398.090215 124.50915 397.972636 
C 124.626729 397.855057 124.692794 397.695564 124.692794 397.529282 
C 124.692794 397.363 124.626729 397.203507 124.50915 397.085928 
C 124.391572 396.968349 124.232078 396.902285 124.065796 396.902285 
C 123.899515 396.902285 123.740021 396.968349 123.622443 397.085928 
C 123.504864 397.203507 123.438799 397.363 123.438799 397.529282 
C 123.438799 397.695564 123.504864 397.855057 123.622443 397.972636 
C 123.740021 398.090215 123.899515 398.156279 124.065796 398.156279 
z
" style="fill:#ffb474;stroke:#ffb474;"/>
    <path clip-path="url(#p87a0c3ccc7)" d="M 124.745607 394.795169 
C 124.915455 394.795169 125.078369 394.727688 125.198469 394.607587 
C 125.318569 394.487487 125.386051 394.324573 125.386051 394.154726 
C 125.386051 393.984878 125.318569 393.821964 125.198469 393.701864 
C 125.078369 393.581763 124.915455 393.514282 124.745607 393.514282 
C 124.57576 393.514282 124.412846 393.581763 124.292745 393.701864 
C 124.172645 393.821964 124.105164 393.984878 124.105164 394.154726 
C 124.105164 394.324573 124.172645 394.487487 124.292745 394.607587 
C 124.412846 394.727688 124.57576 394.795169 124.745607 394.795169 
z
" style="fill:#ffb777;stroke:#ffb777;"/>
    <path clip-path="url(#p87a0c3ccc7)" d="M 125.444544 391.434347 
C 125.618034 391.434347 125.784442 391.365419 125.907118 391.242743 
C 126.029794 391.120067 126.098722 390.953659 126.098722 390.780169 
C 126.098722 390.606679 126.029794 390.440271 125.907118 390.317595 
C 125.784442 390.194919 125.618034 390.125991 125.444544 390.125991 
C 125.271054 390.125991 125.104647 390.194919 124.981971 390.317595 
C 124.859295 390.440271 124.790366 390.606679 124.790366 390.780169 
C 124.790366 390.953659 124.859295 391.120067 124.981971 391.242743 
C 125.104647 391.365419 125.271054 391.434347 125.444544 391.434347 
z
" style="fill:#ffb979;stroke:#ffb979;"/>
    <path clip-path="url(#p87a0c3ccc7)" d="M 126.163146 388.07382 
C 126.340357 388.07382 126.510333 388.003413 126.63564 387.878106 
C 126.760947 387.7528 126.831353 387.582823 126.831353 387.405613 
C 126.831353 387.228402 126.760947 387.058426 126.63564 386.933119 
C 126.510333 386.807812 126.340357 386.737405 126.163146 386.737405 
C 125.985935 386.737405 125.815959 386.807812 125.690652 386.933119 
C 125.565345 387.058426 125.494939 387.228402 125.494939 387.405613 
C 125.494939 387.582823 125.565345 387.7528 125.690652 387.878106 
C 125.815959 388.003413 125.985935 388.07382 126.163146 388.07382 
z
" style="fill:#ffbb7b;stroke:#ffbb7b;"/>
    <path clip-path="url(#p87a0c3ccc7)" d="M 126.901965 384.713593 
C 127.082976 384.713593 127.256598 384.641677 127.384592 384.513683 
C 127.512586 384.385689 127.584503 384.212067 127.584503 384.031056 
C 127.584503 383.850045 127.512586 383.676424 127.384592 383.548429 
C 127.256598 383.420435 127.082976 383.348519 126.901965 383.348519 
C 126.720954 383.348519 126.547333 383.420435 126.419339 383.548429 
C 126.291345 383.676424 126.219428 383.850045 126.219428 384.031056 
C 126.219428 384.212067 126.291345 384.385689 126.419339 384.513683 
C 126.547333 384.641677 126.720954 384.713593 126.901965 384.713593 
z
" style="fill:#ffbb7b;stroke:#ffbb7b;"/>
    <path clip-path="url(#p87a0c3ccc7)" d="M 127.661571 381.353674 
C 127.846464 381.353674 128.023809 381.280216 128.154548 381.149477 
C 128.285287 381.018738 128.358746 380.841393 128.358746 380.6565 
C 128.358746 380.471607 128.285287 380.294262 128.154548 380.163523 
C 128.023809 380.032784 127.846464 379.959325 127.661571 379.959325 
C 127.476678 379.959325 127.299333 380.032784 127.168594 380.163523 
C 127.037855 380.294262 126.964397 380.471607 126.964397 380.6565 
C 126.964397 380.841393 127.037855 381.018738 127.168594 381.149477 
C 127.299333 381.280216 127.476678 381.353674 127.661571 381.353674 
z
" style="fill:#ffbb7b;stroke:#ffbb7b;"/>
    <path clip-path="url(#p87a0c3ccc7)" d="M 128.442549 377.994069 
C 128.631407 377.994069 128.812555 377.919035 128.946098 377.785492 
C 129.07964 377.65195 129.154674 377.470801 129.154674 377.281943 
C 129.154674 377.093085 129.07964 376.911937 128.946098 376.778394 
C 128.812555 376.644852 128.631407 376.569817 128.442549 376.569817 
C 128.253691 376.569817 128.072542 376.644852 127.939 376.778394 
C 127.805457 376.911937 127.730423 377.093085 127.730423 377.281943 
C 127.730423 377.470801 127.805457 377.65195 127.939 377.785492 
C 128.072542 377.919035 128.253691 377.994069 128.442549 377.994069 
z
" style="fill:#ffbb7b;stroke:#ffbb7b;"/>
    <path clip-path="url(#p87a0c3ccc7)" d="M 129.245498 374.634785 
C 129.438407 374.634785 129.62344 374.558141 129.759846 374.421735 
C 129.896253 374.285328 129.972896 374.100295 129.972896 373.907387 
C 129.972896 373.714479 129.896253 373.529446 129.759846 373.393039 
C 129.62344 373.256632 129.438407 373.179989 129.245498 373.179989 
C 129.05259 373.179989 128.867557 373.256632 128.731151 373.393039 
C 128.594744 373.529446 128.518101 373.714479 128.518101 373.907387 
C 128.518101 374.100295 128.594744 374.285328 128.731151 374.421735 
C 128.867557 374.558141 129.05259 374.634785 129.245498 374.634785 
z
" style="fill:#ffbc7c;stroke:#ffbc7c;"/>
    <path clip-path="url(#p87a0c3ccc7)" d="M 130.071039 371.275828 
C 130.268084 371.275828 130.457085 371.197541 130.596417 371.058209 
C 130.735749 370.918877 130.814036 370.729876 130.814036 370.53283 
C 130.814036 370.335785 130.735749 370.146784 130.596417 370.007452 
C 130.457085 369.86812 130.268084 369.789833 130.071039 369.789833 
C 129.873994 369.789833 129.684993 369.86812 129.545661 370.007452 
C 129.406329 370.146784 129.328042 370.335785 129.328042 370.53283 
C 129.328042 370.729876 129.406329 370.918877 129.545661 371.058209 
C 129.684993 371.197541 129.873994 371.275828 130.071039 371.275828 
z
" style="fill:#ffbc7d;stroke:#ffbc7d;"/>
    <path clip-path="url(#p87a0c3ccc7)" d="M 130.919806 367.917205 
C 131.121077 367.917205 131.314132 367.837239 131.456452 367.694919 
C 131.598772 367.552599 131.678737 367.359545 131.678737 367.158274 
C 131.678737 366.957003 131.598772 366.763949 131.456452 366.621629 
C 131.314132 366.479309 131.121077 366.399343 130.919806 366.399343 
C 130.718535 366.399343 130.525481 366.479309 130.383161 366.621629 
C 130.240841 366.763949 130.160875 366.957003 130.160875 367.158274 
C 130.160875 367.359545 130.240841 367.552599 130.383161 367.694919 
C 130.525481 367.837239 130.718535 367.917205 130.919806 367.917205 
z
" style="fill:#ffbd7d;stroke:#ffbd7d;"/>
    <path clip-path="url(#p87a0c3ccc7)" d="M 131.792453 364.558924 
C 131.99804 364.558924 132.195235 364.477244 132.340607 364.331871 
C 132.485979 364.186499 132.56766 363.989305 132.56766 363.783717 
C 132.56766 363.57813 132.485979 363.380936 132.340607 363.235563 
C 132.195235 363.090191 131.99804 363.008511 131.792453 363.008511 
C 131.586866 363.008511 131.389671 363.090191 131.244299 363.235563 
C 131.098927 363.380936 131.017246 363.57813 131.017246 363.783717 
C 131.017246 363.989305 131.098927 364.186499 131.244299 364.331871 
C 131.389671 364.477244 131.586866 364.558924 131.792453 364.558924 
z
" style="fill:#ffbd7e;stroke:#ffbd7e;"/>
    <path clip-path="url(#p87a0c3ccc7)" d="M 132.689652 361.200992 
C 132.899648 361.200992 133.101072 361.11756 133.249561 360.96907 
C 133.398051 360.820581 133.481483 360.619157 133.481483 360.409161 
C 133.481483 360.199165 133.398051 359.997741 133.249561 359.849252 
C 133.101072 359.700762 132.899648 359.61733 132.689652 359.61733 
C 132.479656 359.61733 132.278232 359.700762 132.129743 359.849252 
C 131.981253 359.997741 131.897821 360.199165 131.897821 360.409161 
C 131.897821 360.619157 131.981253 360.820581 132.129743 360.96907 
C 132.278232 361.11756 132.479656 361.200992 132.689652 361.200992 
z
" style="fill:#ffbe7f;stroke:#ffbe7f;"/>
    <path clip-path="url(#p87a0c3ccc7)" d="M 133.612093 357.843417 
C 133.826593 357.843417 134.032336 357.758196 134.18401 357.606521 
C 134.335684 357.454847 134.420906 357.249104 134.420906 357.034605 
C 134.420906 356.820105 134.335684 356.614362 134.18401 356.462688 
C 134.032336 356.311013 133.826593 356.225792 133.612093 356.225792 
C 133.397594 356.225792 133.19185 356.311013 133.040176 356.462688 
C 132.888502 356.614362 132.803281 356.820105 132.803281 357.034605 
C 132.803281 357.249104 132.888502 357.454847 133.040176 357.606521 
C 133.19185 357.758196 133.397594 357.843417 133.612093 357.843417 
z
" style="fill:#ffc083;stroke:#ffc083;"/>
    <path clip-path="url(#p87a0c3ccc7)" d="M 134.560487 354.486206 
C 134.779587 354.486206 134.989742 354.399157 135.144669 354.24423 
C 135.299596 354.089303 135.386645 353.879148 135.386645 353.660048 
C 135.386645 353.440948 135.299596 353.230793 135.144669 353.075866 
C 134.989742 352.920939 134.779587 352.83389 134.560487 352.83389 
C 134.341387 352.83389 134.131232 352.920939 133.976305 353.075866 
C 133.821378 353.230793 133.734329 353.440948 133.734329 353.660048 
C 133.734329 353.879148 133.821378 354.089303 133.976305 354.24423 
C 134.131232 354.399157 134.341387 354.486206 134.560487 354.486206 
z
" style="fill:#ffc287;stroke:#ffc287;"/>
    <path clip-path="url(#p87a0c3ccc7)" d="M 135.535564 351.129367 
C 135.759362 351.129367 135.974025 351.040451 136.132274 350.882202 
C 136.290523 350.723952 136.379439 350.50929 136.379439 350.285492 
C 136.379439 350.061693 136.290523 349.847031 136.132274 349.688782 
C 135.974025 349.530532 135.759362 349.441616 135.535564 349.441616 
C 135.311766 349.441616 135.097103 349.530532 134.938854 349.688782 
C 134.780605 349.847031 134.691689 350.061693 134.691689 350.285492 
C 134.691689 350.50929 134.780605 350.723952 134.938854 350.882202 
C 135.097103 351.040451 135.311766 351.129367 135.535564 351.129367 
z
" style="fill:#ffc48b;stroke:#ffc48b;"/>
    <path clip-path="url(#p87a0c3ccc7)" d="M 136.538074 347.772908 
C 136.766672 347.772908 136.985938 347.682085 137.147581 347.520442 
C 137.309224 347.358799 137.400047 347.139533 137.400047 346.910935 
C 137.400047 346.682337 137.309224 346.463071 137.147581 346.301428 
C 136.985938 346.139785 136.766672 346.048962 136.538074 346.048962 
C 136.309477 346.048962 136.090211 346.139785 135.928568 346.301428 
C 135.766924 346.463071 135.676102 346.682337 135.676102 346.910935 
C 135.676102 347.139533 135.766924 347.358799 135.928568 347.520442 
C 136.090211 347.682085 136.309477 347.772908 136.538074 347.772908 
z
" style="fill:#ffc68f;stroke:#ffc68f;"/>
    <path clip-path="url(#p87a0c3ccc7)" d="M 137.56879 344.416837 
C 137.802291 344.416837 138.026259 344.324066 138.191368 344.158957 
C 138.356478 343.993847 138.449249 343.769879 138.449249 343.536379 
C 138.449249 343.302878 138.356478 343.07891 138.191368 342.913801 
C 138.026259 342.748691 137.802291 342.65592 137.56879 342.65592 
C 137.33529 342.65592 137.111322 342.748691 136.946212 342.913801 
C 136.781103 343.07891 136.688332 343.302878 136.688332 343.536379 
C 136.688332 343.769879 136.781103 343.993847 136.946212 344.158957 
C 137.111322 344.324066 137.33529 344.416837 137.56879 344.416837 
z
" style="fill:#ffc996;stroke:#ffc996;"/>
    <path clip-path="url(#p87a0c3ccc7)" d="M 138.628505 341.061162 
C 138.867013 341.061162 139.095784 340.966402 139.264435 340.797752 
C 139.433085 340.629101 139.527845 340.40033 139.527845 340.161822 
C 139.527845 339.923314 139.433085 339.694543 139.264435 339.525893 
C 139.095784 339.357242 138.867013 339.262482 138.628505 339.262482 
C 138.389997 339.262482 138.161226 339.357242 137.992576 339.525893 
C 137.823925 339.694543 137.729165 339.923314 137.729165 340.161822 
C 137.729165 340.40033 137.823925 340.629101 137.992576 340.797752 
C 138.161226 340.966402 138.389997 341.061162 138.628505 341.061162 
z
" style="fill:#ffce9e;stroke:#ffce9e;"/>
    <path clip-path="url(#p87a0c3ccc7)" d="M 139.718035 337.705893 
C 139.961657 337.705893 140.195335 337.6091 140.367602 337.436833 
C 140.539869 337.264566 140.636662 337.030889 140.636662 336.787266 
C 140.636662 336.543643 140.539869 336.309966 140.367602 336.137698 
C 140.195335 335.965431 139.961657 335.868639 139.718035 335.868639 
C 139.474412 335.868639 139.240735 335.965431 139.068467 336.137698 
C 138.8962 336.309966 138.799408 336.543643 138.799408 336.787266 
C 138.799408 337.030889 138.8962 337.264566 139.068467 337.436833 
C 139.240735 337.6091 139.474412 337.705893 139.718035 337.705893 
z
" style="fill:#ffd3a7;stroke:#ffd3a7;"/>
    <path clip-path="url(#p87a0c3ccc7)" d="M 140.838218 334.351037 
C 141.087065 334.351037 141.325754 334.252169 141.501716 334.076207 
C 141.677677 333.900245 141.776546 333.661557 141.776546 333.412709 
C 141.776546 333.163862 141.677677 332.925173 141.501716 332.749212 
C 141.325754 332.57325 141.087065 332.474382 140.838218 332.474382 
C 140.589371 332.474382 140.350682 332.57325 140.174721 332.749212 
C 139.998759 332.925173 139.899891 333.163862 139.899891 333.412709 
C 139.899891 333.661557 139.998759 333.900245 140.174721 334.076207 
C 140.350682 334.252169 140.589371 334.351037 140.838218 334.351037 
z
" style="fill:#ffd8af;stroke:#ffd8af;"/>
    <path clip-path="url(#p87a0c3ccc7)" d="M 141.989918 330.996603 
C 142.244102 330.996603 142.487909 330.895615 142.667644 330.71588 
C 142.84738 330.536144 142.948368 330.292337 142.948368 330.038153 
C 142.948368 329.783969 142.84738 329.540161 142.667644 329.360426 
C 142.487909 329.180691 142.244102 329.079703 141.989918 329.079703 
C 141.735734 329.079703 141.491926 329.180691 141.312191 329.360426 
C 141.132456 329.540161 141.031467 329.783969 141.031467 330.038153 
C 141.031467 330.292337 141.132456 330.536144 141.312191 330.71588 
C 141.491926 330.895615 141.735734 330.996603 141.989918 330.996603 
z
" style="fill:#ffdcb6;stroke:#ffdcb6;"/>
    <path clip-path="url(#p87a0c3ccc7)" d="M 143.17402 327.642601 
C 143.433655 327.642601 143.682691 327.539447 143.866281 327.355857 
C 144.049871 327.172268 144.153025 326.923232 144.153025 326.663596 
C 144.153025 326.403961 144.049871 326.154925 143.866281 325.971336 
C 143.682691 325.787746 143.433655 325.684592 143.17402 325.684592 
C 142.914385 325.684592 142.665349 325.787746 142.481759 325.971336 
C 142.298169 326.154925 142.195015 326.403961 142.195015 326.663596 
C 142.195015 326.923232 142.298169 327.172268 142.481759 327.355857 
C 142.665349 327.539447 142.914385 327.642601 143.17402 327.642601 
z
" style="fill:#ffe0be;stroke:#ffe0be;"/>
    <path clip-path="url(#p87a0c3ccc7)" d="M 144.391437 324.28904 
C 144.65664 324.28904 144.911017 324.183674 145.098544 323.996147 
C 145.286071 323.80862 145.391437 323.554243 145.391437 323.28904 
C 145.391437 323.023837 145.286071 322.76946 145.098544 322.581933 
C 144.911017 322.394406 144.65664 322.28904 144.391437 322.28904 
C 144.126234 322.28904 143.871857 322.394406 143.68433 322.581933 
C 143.496803 322.76946 143.391437 323.023837 143.391437 323.28904 
C 143.391437 323.554243 143.496803 323.80862 143.68433 323.996147 
C 143.871857 324.183674 144.126234 324.28904 144.391437 324.28904 
z
" style="fill:#ffe4c5;stroke:#ffe4c5;"/>
   </g>
   <g id="PathCollection_3">
    <path clip-path="url(#p87a0c3ccc7)" d="M 431.206666 103.793769 
C 432.689196 103.793769 434.111206 103.204754 435.159513 102.156446 
C 436.20782 101.108139 436.796836 99.68613 436.796836 98.203599 
C 436.796836 96.721069 436.20782 95.299059 435.159513 94.250752 
C 434.111206 93.202445 432.689196 92.613429 431.206666 92.613429 
C 429.724136 92.613429 428.302126 93.202445 427.253819 94.250752 
C 426.205512 95.299059 425.616496 96.721069 425.616496 98.203599 
C 425.616496 99.68613 426.205512 101.108139 427.253819 102.156446 
C 428.302126 103.204754 429.724136 103.793769 431.206666 103.793769 
z
" style="fill:#a1b8ff;stroke:#a1b8ff;"/>
    <path clip-path="url(#p87a0c3ccc7)" d="M 453.185933 93.008458 
C 454.839912 93.008458 456.426372 92.351325 457.595911 91.181786 
C 458.765451 90.012246 459.422584 88.425787 459.422584 86.771808 
C 459.422584 85.117829 458.765451 83.531369 457.595911 82.36183 
C 456.426372 81.19229 454.839912 80.535157 453.185933 80.535157 
C 451.531954 80.535157 449.945495 81.19229 448.775955 82.36183 
C 447.606416 83.531369 446.949283 85.117829 446.949283 86.771808 
C 446.949283 88.425787 447.606416 90.012246 448.775955 91.181786 
C 449.945495 92.351325 451.531954 93.008458 453.185933 93.008458 
z
" style="fill:#a0b7ff;stroke:#a0b7ff;"/>
    <path clip-path="url(#p87a0c3ccc7)" d="M 476.623345 82.29791 
C 478.4686 82.29791 480.238526 81.564783 481.543319 80.25999 
C 482.848111 78.955198 483.581239 77.185271 483.581239 75.340016 
C 483.581239 73.494761 482.848111 71.724834 481.543319 70.420042 
C 480.238526 69.115249 478.4686 68.382122 476.623345 68.382122 
C 474.77809 68.382122 473.008163 69.115249 471.70337 70.420042 
C 470.398578 71.724834 469.66545 73.494761 469.66545 75.340016 
C 469.66545 77.185271 470.398578 78.955198 471.70337 80.25999 
C 473.008163 81.564783 474.77809 82.29791 476.623345 82.29791 
z
" style="fill:#9fb6ff;stroke:#9fb6ff;"/>
    <path clip-path="url(#p87a0c3ccc7)" d="M 501.615636 71.670771 
C 503.674287 71.670771 505.648899 70.85286 507.104585 69.397174 
C 508.560272 67.941488 509.378182 65.966876 509.378182 63.908224 
C 509.378182 61.849573 508.560272 59.874961 507.104585 58.419275 
C 505.648899 56.963589 503.674287 56.145678 501.615636 56.145678 
C 499.556984 56.145678 497.582373 56.963589 496.126686 58.419275 
C 494.671 59.874961 493.853089 61.849573 493.853089 63.908224 
C 493.853089 65.966876 494.671 67.941488 496.126686 69.397174 
C 497.582373 70.85286 499.556984 71.670771 501.615636 71.670771 
z
" style="fill:#9db4ff;stroke:#9db4ff;"/>
    <path clip-path="url(#p87a0c3ccc7)" d="M 528.26596 61.136687 
C 530.562686 61.136687 532.765654 60.224188 534.389684 58.600157 
C 536.013715 56.976127 536.926214 54.773159 536.926214 52.476433 
C 536.926214 50.179707 536.013715 47.976739 534.389684 46.352709 
C 532.765654 44.728678 530.562686 43.816179 528.26596 43.816179 
C 525.969234 43.816179 523.766266 44.728678 522.142236 46.352709 
C 520.518205 47.976739 519.605706 50.179707 519.605706 52.476433 
C 519.605706 54.773159 520.518205 56.976127 522.142236 58.600157 
C 523.766266 60.224188 525.969234 61.136687 528.26596 61.136687 
z
" style="fill:#9cb3ff;stroke:#9cb3ff;"/>
   </g>
   <g id="matplotlib.axis_1">
    <g id="xtick_1">
     <g id="line2d_1">
      <defs>
       <path d="M 0 0 
L 0 3.5 
" id="m48f7088c24" style="stroke:#000000;stroke-width:0.8;"/>
      </defs>
      <g>
       <use style="stroke:#000000;stroke-width:0.8;" x="99.903161" xlink:href="#m48f7088c24" y="511"/>
      </g>
     </g>
     <g id="text_1">
      <!-- 0 -->
      <defs>
       <path d="M 31.78125 66.40625 
Q 24.171875 66.40625 20.328125 58.90625 
Q 16.5 51.421875 16.5 36.375 
Q 16.5 21.390625 20.328125 13.890625 
Q 24.171875 6.390625 31.78125 6.390625 
Q 39.453125 6.390625 43.28125 13.890625 
Q 47.125 21.390625 47.125 36.375 
Q 47.125 51.421875 43.28125 58.90625 
Q 39.453125 66.40625 31.78125 66.40625 
z
M 31.78125 74.21875 
Q 44.046875 74.21875 50.515625 64.515625 
Q 56.984375 54.828125 56.984375 36.375 
Q 56.984375 17.96875 50.515625 8.265625 
Q 44.046875 -1.421875 31.78125 -1.421875 
Q 19.53125 -1.421875 13.0625 8.265625 
Q 6.59375 17.96875 6.59375 36.375 
Q 6.59375 54.828125 13.0625 64.515625 
Q 19.53125 74.21875 31.78125 74.21875 
z
" id="DejaVuSans-30"/>
      </defs>
      <g transform="translate(94.176911 531.677187)scale(0.18 -0.18)">
       <use xlink:href="#DejaVuSans-30"/>
      </g>
     </g>
    </g>
    <g id="xtick_2">
     <g id="line2d_2">
      <g>
       <use style="stroke:#000000;stroke-width:0.8;" x="191.322266" xlink:href="#m48f7088c24" y="511"/>
      </g>
     </g>
     <g id="text_2">
      <!-- 10000 -->
      <defs>
       <path d="M 12.40625 8.296875 
L 28.515625 8.296875 
L 28.515625 63.921875 
L 10.984375 60.40625 
L 10.984375 69.390625 
L 28.421875 72.90625 
L 38.28125 72.90625 
L 38.28125 8.296875 
L 54.390625 8.296875 
L 54.390625 0 
L 12.40625 0 
z
" id="DejaVuSans-31"/>
      </defs>
      <g transform="translate(162.691016 531.677187)scale(0.18 -0.18)">
       <use xlink:href="#DejaVuSans-31"/>
       <use x="63.623047" xlink:href="#DejaVuSans-30"/>
       <use x="127.246094" xlink:href="#DejaVuSans-30"/>
       <use x="190.869141" xlink:href="#DejaVuSans-30"/>
       <use x="254.492188" xlink:href="#DejaVuSans-30"/>
      </g>
     </g>
    </g>
    <g id="xtick_3">
     <g id="line2d_3">
      <g>
       <use style="stroke:#000000;stroke-width:0.8;" x="282.741371" xlink:href="#m48f7088c24" y="511"/>
      </g>
     </g>
     <g id="text_3">
      <!-- 20000 -->
      <defs>
       <path d="M 19.1875 8.296875 
L 53.609375 8.296875 
L 53.609375 0 
L 7.328125 0 
L 7.328125 8.296875 
Q 12.9375 14.109375 22.625 23.890625 
Q 32.328125 33.6875 34.8125 36.53125 
Q 39.546875 41.84375 41.421875 45.53125 
Q 43.3125 49.21875 43.3125 52.78125 
Q 43.3125 58.59375 39.234375 62.25 
Q 35.15625 65.921875 28.609375 65.921875 
Q 23.96875 65.921875 18.8125 64.3125 
Q 13.671875 62.703125 7.8125 59.421875 
L 7.8125 69.390625 
Q 13.765625 71.78125 18.9375 73 
Q 24.125 74.21875 28.421875 74.21875 
Q 39.75 74.21875 46.484375 68.546875 
Q 53.21875 62.890625 53.21875 53.421875 
Q 53.21875 48.921875 51.53125 44.890625 
Q 49.859375 40.875 45.40625 35.40625 
Q 44.1875 33.984375 37.640625 27.21875 
Q 31.109375 20.453125 19.1875 8.296875 
z
" id="DejaVuSans-32"/>
      </defs>
      <g transform="translate(254.110121 531.677187)scale(0.18 -0.18)">
       <use xlink:href="#DejaVuSans-32"/>
       <use x="63.623047" xlink:href="#DejaVuSans-30"/>
       <use x="127.246094" xlink:href="#DejaVuSans-30"/>
       <use x="190.869141" xlink:href="#DejaVuSans-30"/>
       <use x="254.492188" xlink:href="#DejaVuSans-30"/>
      </g>
     </g>
    </g>
    <g id="xtick_4">
     <g id="line2d_4">
      <g>
       <use style="stroke:#000000;stroke-width:0.8;" x="374.160475" xlink:href="#m48f7088c24" y="511"/>
      </g>
     </g>
     <g id="text_4">
      <!-- 30000 -->
      <defs>
       <path d="M 40.578125 39.3125 
Q 47.65625 37.796875 51.625 33 
Q 55.609375 28.21875 55.609375 21.1875 
Q 55.609375 10.40625 48.1875 4.484375 
Q 40.765625 -1.421875 27.09375 -1.421875 
Q 22.515625 -1.421875 17.65625 -0.515625 
Q 12.796875 0.390625 7.625 2.203125 
L 7.625 11.71875 
Q 11.71875 9.328125 16.59375 8.109375 
Q 21.484375 6.890625 26.8125 6.890625 
Q 36.078125 6.890625 40.9375 10.546875 
Q 45.796875 14.203125 45.796875 21.1875 
Q 45.796875 27.640625 41.28125 31.265625 
Q 36.765625 34.90625 28.71875 34.90625 
L 20.21875 34.90625 
L 20.21875 43.015625 
L 29.109375 43.015625 
Q 36.375 43.015625 40.234375 45.921875 
Q 44.09375 48.828125 44.09375 54.296875 
Q 44.09375 59.90625 40.109375 62.90625 
Q 36.140625 65.921875 28.71875 65.921875 
Q 24.65625 65.921875 20.015625 65.03125 
Q 15.375 64.15625 9.8125 62.3125 
L 9.8125 71.09375 
Q 15.4375 72.65625 20.34375 73.4375 
Q 25.25 74.21875 29.59375 74.21875 
Q 40.828125 74.21875 47.359375 69.109375 
Q 53.90625 64.015625 53.90625 55.328125 
Q 53.90625 49.265625 50.4375 45.09375 
Q 46.96875 40.921875 40.578125 39.3125 
z
" id="DejaVuSans-33"/>
      </defs>
      <g transform="translate(345.529225 531.677187)scale(0.18 -0.18)">
       <use xlink:href="#DejaVuSans-33"/>
       <use x="63.623047" xlink:href="#DejaVuSans-30"/>
       <use x="127.246094" xlink:href="#DejaVuSans-30"/>
       <use x="190.869141" xlink:href="#DejaVuSans-30"/>
       <use x="254.492188" xlink:href="#DejaVuSans-30"/>
      </g>
     </g>
    </g>
    <g id="xtick_5">
     <g id="line2d_5">
      <g>
       <use style="stroke:#000000;stroke-width:0.8;" x="465.57958" xlink:href="#m48f7088c24" y="511"/>
      </g>
     </g>
     <g id="text_5">
      <!-- 40000 -->
      <defs>
       <path d="M 37.796875 64.3125 
L 12.890625 25.390625 
L 37.796875 25.390625 
z
M 35.203125 72.90625 
L 47.609375 72.90625 
L 47.609375 25.390625 
L 58.015625 25.390625 
L 58.015625 17.1875 
L 47.609375 17.1875 
L 47.609375 0 
L 37.796875 0 
L 37.796875 17.1875 
L 4.890625 17.1875 
L 4.890625 26.703125 
z
" id="DejaVuSans-34"/>
      </defs>
      <g transform="translate(436.94833 531.677187)scale(0.18 -0.18)">
       <use xlink:href="#DejaVuSans-34"/>
       <use x="63.623047" xlink:href="#DejaVuSans-30"/>
       <use x="127.246094" xlink:href="#DejaVuSans-30"/>
       <use x="190.869141" xlink:href="#DejaVuSans-30"/>
       <use x="254.492188" xlink:href="#DejaVuSans-30"/>
      </g>
     </g>
    </g>
    <g id="text_6">
     <!-- Temperature -->
     <defs>
      <path d="M -0.296875 72.90625 
L 61.375 72.90625 
L 61.375 64.59375 
L 35.5 64.59375 
L 35.5 0 
L 25.59375 0 
L 25.59375 64.59375 
L -0.296875 64.59375 
z
" id="DejaVuSans-54"/>
      <path d="M 56.203125 29.59375 
L 56.203125 25.203125 
L 14.890625 25.203125 
Q 15.484375 15.921875 20.484375 11.0625 
Q 25.484375 6.203125 34.421875 6.203125 
Q 39.59375 6.203125 44.453125 7.46875 
Q 49.3125 8.734375 54.109375 11.28125 
L 54.109375 2.78125 
Q 49.265625 0.734375 44.1875 -0.34375 
Q 39.109375 -1.421875 33.890625 -1.421875 
Q 20.796875 -1.421875 13.15625 6.1875 
Q 5.515625 13.8125 5.515625 26.8125 
Q 5.515625 40.234375 12.765625 48.109375 
Q 20.015625 56 32.328125 56 
Q 43.359375 56 49.78125 48.890625 
Q 56.203125 41.796875 56.203125 29.59375 
z
M 47.21875 32.234375 
Q 47.125 39.59375 43.09375 43.984375 
Q 39.0625 48.390625 32.421875 48.390625 
Q 24.90625 48.390625 20.390625 44.140625 
Q 15.875 39.890625 15.1875 32.171875 
z
" id="DejaVuSans-65"/>
      <path d="M 52 44.1875 
Q 55.375 50.25 60.0625 53.125 
Q 64.75 56 71.09375 56 
Q 79.640625 56 84.28125 50.015625 
Q 88.921875 44.046875 88.921875 33.015625 
L 88.921875 0 
L 79.890625 0 
L 79.890625 32.71875 
Q 79.890625 40.578125 77.09375 44.375 
Q 74.3125 48.1875 68.609375 48.1875 
Q 61.625 48.1875 57.5625 43.546875 
Q 53.515625 38.921875 53.515625 30.90625 
L 53.515625 0 
L 44.484375 0 
L 44.484375 32.71875 
Q 44.484375 40.625 41.703125 44.40625 
Q 38.921875 48.1875 33.109375 48.1875 
Q 26.21875 48.1875 22.15625 43.53125 
Q 18.109375 38.875 18.109375 30.90625 
L 18.109375 0 
L 9.078125 0 
L 9.078125 54.6875 
L 18.109375 54.6875 
L 18.109375 46.1875 
Q 21.1875 51.21875 25.484375 53.609375 
Q 29.78125 56 35.6875 56 
Q 41.65625 56 45.828125 52.96875 
Q 50 49.953125 52 44.1875 
z
" id="DejaVuSans-6d"/>
      <path d="M 18.109375 8.203125 
L 18.109375 -20.796875 
L 9.078125 -20.796875 
L 9.078125 54.6875 
L 18.109375 54.6875 
L 18.109375 46.390625 
Q 20.953125 51.265625 25.265625 53.625 
Q 29.59375 56 35.59375 56 
Q 45.5625 56 51.78125 48.09375 
Q 58.015625 40.1875 58.015625 27.296875 
Q 58.015625 14.40625 51.78125 6.484375 
Q 45.5625 -1.421875 35.59375 -1.421875 
Q 29.59375 -1.421875 25.265625 0.953125 
Q 20.953125 3.328125 18.109375 8.203125 
z
M 48.6875 27.296875 
Q 48.6875 37.203125 44.609375 42.84375 
Q 40.53125 48.484375 33.40625 48.484375 
Q 26.265625 48.484375 22.1875 42.84375 
Q 18.109375 37.203125 18.109375 27.296875 
Q 18.109375 17.390625 22.1875 11.75 
Q 26.265625 6.109375 33.40625 6.109375 
Q 40.53125 6.109375 44.609375 11.75 
Q 48.6875 17.390625 48.6875 27.296875 
z
" id="DejaVuSans-70"/>
      <path d="M 41.109375 46.296875 
Q 39.59375 47.171875 37.8125 47.578125 
Q 36.03125 48 33.890625 48 
Q 26.265625 48 22.1875 43.046875 
Q 18.109375 38.09375 18.109375 28.8125 
L 18.109375 0 
L 9.078125 0 
L 9.078125 54.6875 
L 18.109375 54.6875 
L 18.109375 46.1875 
Q 20.953125 51.171875 25.484375 53.578125 
Q 30.03125 56 36.53125 56 
Q 37.453125 56 38.578125 55.875 
Q 39.703125 55.765625 41.0625 55.515625 
z
" id="DejaVuSans-72"/>
      <path d="M 34.28125 27.484375 
Q 23.390625 27.484375 19.1875 25 
Q 14.984375 22.515625 14.984375 16.5 
Q 14.984375 11.71875 18.140625 8.90625 
Q 21.296875 6.109375 26.703125 6.109375 
Q 34.1875 6.109375 38.703125 11.40625 
Q 43.21875 16.703125 43.21875 25.484375 
L 43.21875 27.484375 
z
M 52.203125 31.203125 
L 52.203125 0 
L 43.21875 0 
L 43.21875 8.296875 
Q 40.140625 3.328125 35.546875 0.953125 
Q 30.953125 -1.421875 24.3125 -1.421875 
Q 15.921875 -1.421875 10.953125 3.296875 
Q 6 8.015625 6 15.921875 
Q 6 25.140625 12.171875 29.828125 
Q 18.359375 34.515625 30.609375 34.515625 
L 43.21875 34.515625 
L 43.21875 35.40625 
Q 43.21875 41.609375 39.140625 45 
Q 35.0625 48.390625 27.6875 48.390625 
Q 23 48.390625 18.546875 47.265625 
Q 14.109375 46.140625 10.015625 43.890625 
L 10.015625 52.203125 
Q 14.9375 54.109375 19.578125 55.046875 
Q 24.21875 56 28.609375 56 
Q 40.484375 56 46.34375 49.84375 
Q 52.203125 43.703125 52.203125 31.203125 
z
" id="DejaVuSans-61"/>
      <path d="M 18.3125 70.21875 
L 18.3125 54.6875 
L 36.8125 54.6875 
L 36.8125 47.703125 
L 18.3125 47.703125 
L 18.3125 18.015625 
Q 18.3125 11.328125 20.140625 9.421875 
Q 21.96875 7.515625 27.59375 7.515625 
L 36.8125 7.515625 
L 36.8125 0 
L 27.59375 0 
Q 17.1875 0 13.234375 3.875 
Q 9.28125 7.765625 9.28125 18.015625 
L 9.28125 47.703125 
L 2.6875 47.703125 
L 2.6875 54.6875 
L 9.28125 54.6875 
L 9.28125 70.21875 
z
" id="DejaVuSans-74"/>
      <path d="M 8.5 21.578125 
L 8.5 54.6875 
L 17.484375 54.6875 
L 17.484375 21.921875 
Q 17.484375 14.15625 20.5 10.265625 
Q 23.53125 6.390625 29.59375 6.390625 
Q 36.859375 6.390625 41.078125 11.03125 
Q 45.3125 15.671875 45.3125 23.6875 
L 45.3125 54.6875 
L 54.296875 54.6875 
L 54.296875 0 
L 45.3125 0 
L 45.3125 8.40625 
Q 42.046875 3.421875 37.71875 1 
Q 33.40625 -1.421875 27.6875 -1.421875 
Q 18.265625 -1.421875 13.375 4.4375 
Q 8.5 10.296875 8.5 21.578125 
z
M 31.109375 56 
z
" id="DejaVuSans-75"/>
     </defs>
     <g transform="translate(263.341872 553.097813)scale(0.18 -0.18)">
      <use xlink:href="#DejaVuSans-54"/>
      <use x="60.818359" xlink:href="#DejaVuSans-65"/>
      <use x="122.341797" xlink:href="#DejaVuSans-6d"/>
      <use x="219.753906" xlink:href="#DejaVuSans-70"/>
      <use x="283.230469" xlink:href="#DejaVuSans-65"/>
      <use x="344.753906" xlink:href="#DejaVuSans-72"/>
      <use x="385.867188" xlink:href="#DejaVuSans-61"/>
      <use x="447.146484" xlink:href="#DejaVuSans-74"/>
      <use x="486.355469" xlink:href="#DejaVuSans-75"/>
      <use x="549.734375" xlink:href="#DejaVuSans-72"/>
      <use x="590.816406" xlink:href="#DejaVuSans-65"/>
     </g>
    </g>
   </g>
   <g id="matplotlib.axis_2">
    <g id="ytick_1">
     <g id="line2d_6">
      <defs>
       <path d="M 0 0 
L -3.5 0 
" id="md55a6f662f" style="stroke:#000000;stroke-width:0.8;"/>
      </defs>
      <g>
       <use style="stroke:#000000;stroke-width:0.8;" x="90.065619" xlink:href="#md55a6f662f" y="461.092517"/>
      </g>
     </g>
     <g id="text_7">
      <!-- $\mathdefault{10^{-4}}$ -->
      <defs>
       <path d="M 10.59375 35.5 
L 73.1875 35.5 
L 73.1875 27.203125 
L 10.59375 27.203125 
z
" id="DejaVuSans-2212"/>
      </defs>
      <g transform="translate(40.765619 467.93111)scale(0.18 -0.18)">
       <use transform="translate(0 0.684375)" xlink:href="#DejaVuSans-31"/>
       <use transform="translate(63.623047 0.684375)" xlink:href="#DejaVuSans-30"/>
       <use transform="translate(128.203125 38.965625)scale(0.7)" xlink:href="#DejaVuSans-2212"/>
       <use transform="translate(186.855469 38.965625)scale(0.7)" xlink:href="#DejaVuSans-34"/>
      </g>
     </g>
    </g>
    <g id="ytick_2">
     <g id="line2d_7">
      <g>
       <use style="stroke:#000000;stroke-width:0.8;" x="90.065619" xlink:href="#md55a6f662f" y="380.453557"/>
      </g>
     </g>
     <g id="text_8">
      <!-- $\mathdefault{10^{-2}}$ -->
      <g transform="translate(40.765619 387.292151)scale(0.18 -0.18)">
       <use transform="translate(0 0.765625)" xlink:href="#DejaVuSans-31"/>
       <use transform="translate(63.623047 0.765625)" xlink:href="#DejaVuSans-30"/>
       <use transform="translate(128.203125 39.046875)scale(0.7)" xlink:href="#DejaVuSans-2212"/>
       <use transform="translate(186.855469 39.046875)scale(0.7)" xlink:href="#DejaVuSans-32"/>
      </g>
     </g>
    </g>
    <g id="ytick_3">
     <g id="line2d_8">
      <g>
       <use style="stroke:#000000;stroke-width:0.8;" x="90.065619" xlink:href="#md55a6f662f" y="299.814598"/>
      </g>
     </g>
     <g id="text_9">
      <!-- $\mathdefault{10^{0}}$ -->
      <g transform="translate(51.385619 306.653192)scale(0.18 -0.18)">
       <use transform="translate(0 0.765625)" xlink:href="#DejaVuSans-31"/>
       <use transform="translate(63.623047 0.765625)" xlink:href="#DejaVuSans-30"/>
       <use transform="translate(128.203125 39.046875)scale(0.7)" xlink:href="#DejaVuSans-30"/>
      </g>
     </g>
    </g>
    <g id="ytick_4">
     <g id="line2d_9">
      <g>
       <use style="stroke:#000000;stroke-width:0.8;" x="90.065619" xlink:href="#md55a6f662f" y="219.175639"/>
      </g>
     </g>
     <g id="text_10">
      <!-- $\mathdefault{10^{2}}$ -->
      <g transform="translate(51.385619 226.014233)scale(0.18 -0.18)">
       <use transform="translate(0 0.765625)" xlink:href="#DejaVuSans-31"/>
       <use transform="translate(63.623047 0.765625)" xlink:href="#DejaVuSans-30"/>
       <use transform="translate(128.203125 39.046875)scale(0.7)" xlink:href="#DejaVuSans-32"/>
      </g>
     </g>
    </g>
    <g id="ytick_5">
     <g id="line2d_10">
      <g>
       <use style="stroke:#000000;stroke-width:0.8;" x="90.065619" xlink:href="#md55a6f662f" y="138.536679"/>
      </g>
     </g>
     <g id="text_11">
      <!-- $\mathdefault{10^{4}}$ -->
      <g transform="translate(51.385619 145.375273)scale(0.18 -0.18)">
       <use transform="translate(0 0.684375)" xlink:href="#DejaVuSans-31"/>
       <use transform="translate(63.623047 0.684375)" xlink:href="#DejaVuSans-30"/>
       <use transform="translate(128.203125 38.965625)scale(0.7)" xlink:href="#DejaVuSans-34"/>
      </g>
     </g>
    </g>
    <g id="ytick_6">
     <g id="line2d_11">
      <g>
       <use style="stroke:#000000;stroke-width:0.8;" x="90.065619" xlink:href="#md55a6f662f" y="57.89772"/>
      </g>
     </g>
     <g id="text_12">
      <!-- $\mathdefault{10^{6}}$ -->
      <defs>
       <path d="M 33.015625 40.375 
Q 26.375 40.375 22.484375 35.828125 
Q 18.609375 31.296875 18.609375 23.390625 
Q 18.609375 15.53125 22.484375 10.953125 
Q 26.375 6.390625 33.015625 6.390625 
Q 39.65625 6.390625 43.53125 10.953125 
Q 47.40625 15.53125 47.40625 23.390625 
Q 47.40625 31.296875 43.53125 35.828125 
Q 39.65625 40.375 33.015625 40.375 
z
M 52.59375 71.296875 
L 52.59375 62.3125 
Q 48.875 64.0625 45.09375 64.984375 
Q 41.3125 65.921875 37.59375 65.921875 
Q 27.828125 65.921875 22.671875 59.328125 
Q 17.53125 52.734375 16.796875 39.40625 
Q 19.671875 43.65625 24.015625 45.921875 
Q 28.375 48.1875 33.59375 48.1875 
Q 44.578125 48.1875 50.953125 41.515625 
Q 57.328125 34.859375 57.328125 23.390625 
Q 57.328125 12.15625 50.6875 5.359375 
Q 44.046875 -1.421875 33.015625 -1.421875 
Q 20.359375 -1.421875 13.671875 8.265625 
Q 6.984375 17.96875 6.984375 36.375 
Q 6.984375 53.65625 15.1875 63.9375 
Q 23.390625 74.21875 37.203125 74.21875 
Q 40.921875 74.21875 44.703125 73.484375 
Q 48.484375 72.75 52.59375 71.296875 
z
" id="DejaVuSans-36"/>
      </defs>
      <g transform="translate(51.385619 64.736314)scale(0.18 -0.18)">
       <use transform="translate(0 0.765625)" xlink:href="#DejaVuSans-31"/>
       <use transform="translate(63.623047 0.765625)" xlink:href="#DejaVuSans-30"/>
       <use transform="translate(128.203125 39.046875)scale(0.7)" xlink:href="#DejaVuSans-36"/>
      </g>
     </g>
    </g>
    <g id="text_13">
     <!-- Luminosity -->
     <defs>
      <path d="M 9.8125 72.90625 
L 19.671875 72.90625 
L 19.671875 8.296875 
L 55.171875 8.296875 
L 55.171875 0 
L 9.8125 0 
z
" id="DejaVuSans-4c"/>
      <path d="M 9.421875 54.6875 
L 18.40625 54.6875 
L 18.40625 0 
L 9.421875 0 
z
M 9.421875 75.984375 
L 18.40625 75.984375 
L 18.40625 64.59375 
L 9.421875 64.59375 
z
" id="DejaVuSans-69"/>
      <path d="M 54.890625 33.015625 
L 54.890625 0 
L 45.90625 0 
L 45.90625 32.71875 
Q 45.90625 40.484375 42.875 44.328125 
Q 39.84375 48.1875 33.796875 48.1875 
Q 26.515625 48.1875 22.3125 43.546875 
Q 18.109375 38.921875 18.109375 30.90625 
L 18.109375 0 
L 9.078125 0 
L 9.078125 54.6875 
L 18.109375 54.6875 
L 18.109375 46.1875 
Q 21.34375 51.125 25.703125 53.5625 
Q 30.078125 56 35.796875 56 
Q 45.21875 56 50.046875 50.171875 
Q 54.890625 44.34375 54.890625 33.015625 
z
" id="DejaVuSans-6e"/>
      <path d="M 30.609375 48.390625 
Q 23.390625 48.390625 19.1875 42.75 
Q 14.984375 37.109375 14.984375 27.296875 
Q 14.984375 17.484375 19.15625 11.84375 
Q 23.34375 6.203125 30.609375 6.203125 
Q 37.796875 6.203125 41.984375 11.859375 
Q 46.1875 17.53125 46.1875 27.296875 
Q 46.1875 37.015625 41.984375 42.703125 
Q 37.796875 48.390625 30.609375 48.390625 
z
M 30.609375 56 
Q 42.328125 56 49.015625 48.375 
Q 55.71875 40.765625 55.71875 27.296875 
Q 55.71875 13.875 49.015625 6.21875 
Q 42.328125 -1.421875 30.609375 -1.421875 
Q 18.84375 -1.421875 12.171875 6.21875 
Q 5.515625 13.875 5.515625 27.296875 
Q 5.515625 40.765625 12.171875 48.375 
Q 18.84375 56 30.609375 56 
z
" id="DejaVuSans-6f"/>
      <path d="M 44.28125 53.078125 
L 44.28125 44.578125 
Q 40.484375 46.53125 36.375 47.5 
Q 32.28125 48.484375 27.875 48.484375 
Q 21.1875 48.484375 17.84375 46.4375 
Q 14.5 44.390625 14.5 40.28125 
Q 14.5 37.15625 16.890625 35.375 
Q 19.28125 33.59375 26.515625 31.984375 
L 29.59375 31.296875 
Q 39.15625 29.25 43.1875 25.515625 
Q 47.21875 21.78125 47.21875 15.09375 
Q 47.21875 7.46875 41.1875 3.015625 
Q 35.15625 -1.421875 24.609375 -1.421875 
Q 20.21875 -1.421875 15.453125 -0.5625 
Q 10.6875 0.296875 5.421875 2 
L 5.421875 11.28125 
Q 10.40625 8.6875 15.234375 7.390625 
Q 20.0625 6.109375 24.8125 6.109375 
Q 31.15625 6.109375 34.5625 8.28125 
Q 37.984375 10.453125 37.984375 14.40625 
Q 37.984375 18.0625 35.515625 20.015625 
Q 33.0625 21.96875 24.703125 23.78125 
L 21.578125 24.515625 
Q 13.234375 26.265625 9.515625 29.90625 
Q 5.8125 33.546875 5.8125 39.890625 
Q 5.8125 47.609375 11.28125 51.796875 
Q 16.75 56 26.8125 56 
Q 31.78125 56 36.171875 55.265625 
Q 40.578125 54.546875 44.28125 53.078125 
z
" id="DejaVuSans-73"/>
      <path d="M 32.171875 -5.078125 
Q 28.375 -14.84375 24.75 -17.8125 
Q 21.140625 -20.796875 15.09375 -20.796875 
L 7.90625 -20.796875 
L 7.90625 -13.28125 
L 13.1875 -13.28125 
Q 16.890625 -13.28125 18.9375 -11.515625 
Q 21 -9.765625 23.484375 -3.21875 
L 25.09375 0.875 
L 2.984375 54.6875 
L 12.5 54.6875 
L 29.59375 11.921875 
L 46.6875 54.6875 
L 56.203125 54.6875 
z
" id="DejaVuSans-79"/>
     </defs>
     <g transform="translate(33.022181 315.718437)rotate(-90)scale(0.18 -0.18)">
      <use xlink:href="#DejaVuSans-4c"/>
      <use x="55.697266" xlink:href="#DejaVuSans-75"/>
      <use x="119.076172" xlink:href="#DejaVuSans-6d"/>
      <use x="216.488281" xlink:href="#DejaVuSans-69"/>
      <use x="244.271484" xlink:href="#DejaVuSans-6e"/>
      <use x="307.650391" xlink:href="#DejaVuSans-6f"/>
      <use x="368.832031" xlink:href="#DejaVuSans-73"/>
      <use x="420.931641" xlink:href="#DejaVuSans-69"/>
      <use x="448.714844" xlink:href="#DejaVuSans-74"/>
      <use x="487.923828" xlink:href="#DejaVuSans-79"/>
     </g>
    </g>
   </g>
   <g id="line2d_12">
    <path clip-path="url(#p87a0c3ccc7)" d="M 111.326492 44.189091 
L 528.26596 44.189091 
" style="fill:none;stroke:#000000;stroke-dasharray:5.55,2.4;stroke-dashoffset:0;stroke-width:1.5;"/>
   </g>
   <g id="line2d_13">
    <path clip-path="url(#p87a0c3ccc7)" d="M 111.326492 86.927737 
L 528.26596 86.927737 
" style="fill:none;stroke:#000000;stroke-dasharray:5.55,2.4;stroke-dashoffset:0;stroke-width:1.5;"/>
   </g>
   <g id="line2d_14">
    <path clip-path="url(#p87a0c3ccc7)" d="M 111.326492 144.907157 
L 528.26596 144.907157 
" style="fill:none;stroke:#000000;stroke-dasharray:5.55,2.4;stroke-dashoffset:0;stroke-width:1.5;"/>
   </g>
   <g id="line2d_15">
    <path clip-path="url(#p87a0c3ccc7)" d="M 111.326492 194.459801 
L 528.26596 194.459801 
" style="fill:none;stroke:#000000;stroke-dasharray:5.55,2.4;stroke-dashoffset:0;stroke-width:1.5;"/>
   </g>
   <g id="text_14">
    <g id="patch_3">
     <path clip-path="url(#p87a0c3ccc7)" d="M 145.150495 58.229091 
L 220.570495 58.229091 
L 220.570495 30.149091 
L 145.150495 30.149091 
z
" style="fill:#ffffff;stroke:#ffffff;stroke-linejoin:miter;"/>
    </g>
    <g clip-path="url(#p87a0c3ccc7)">
     <!-- $10^{6.5}$ yr -->
     <defs>
      <path d="M 10.6875 12.40625 
L 21 12.40625 
L 21 0 
L 10.6875 0 
z
" id="DejaVuSans-2e"/>
      <path d="M 10.796875 72.90625 
L 49.515625 72.90625 
L 49.515625 64.59375 
L 19.828125 64.59375 
L 19.828125 46.734375 
Q 21.96875 47.46875 24.109375 47.828125 
Q 26.265625 48.1875 28.421875 48.1875 
Q 40.625 48.1875 47.75 41.5 
Q 54.890625 34.8125 54.890625 23.390625 
Q 54.890625 11.625 47.5625 5.09375 
Q 40.234375 -1.421875 26.90625 -1.421875 
Q 22.3125 -1.421875 17.546875 -0.640625 
Q 12.796875 0.140625 7.71875 1.703125 
L 7.71875 11.625 
Q 12.109375 9.234375 16.796875 8.0625 
Q 21.484375 6.890625 26.703125 6.890625 
Q 35.15625 6.890625 40.078125 11.328125 
Q 45.015625 15.765625 45.015625 23.390625 
Q 45.015625 31 40.078125 35.4375 
Q 35.15625 39.890625 26.703125 39.890625 
Q 22.75 39.890625 18.8125 39.015625 
Q 14.890625 38.140625 10.796875 36.28125 
z
" id="DejaVuSans-35"/>
      <path id="DejaVuSans-20"/>
     </defs>
     <g transform="translate(149.110495 50.489091)scale(0.18 -0.18)">
      <use transform="translate(0 0.765625)" xlink:href="#DejaVuSans-31"/>
      <use transform="translate(63.623047 0.765625)" xlink:href="#DejaVuSans-30"/>
      <use transform="translate(128.203125 39.046875)scale(0.7)" xlink:href="#DejaVuSans-36"/>
      <use transform="translate(172.739258 39.046875)scale(0.7)" xlink:href="#DejaVuSans-2e"/>
      <use transform="translate(194.990234 39.046875)scale(0.7)" xlink:href="#DejaVuSans-35"/>
      <use transform="translate(242.260742 0.765625)" xlink:href="#DejaVuSans-20"/>
      <use transform="translate(274.047852 0.765625)" xlink:href="#DejaVuSans-79"/>
      <use transform="translate(333.227539 0.765625)" xlink:href="#DejaVuSans-72"/>
     </g>
    </g>
   </g>
   <g id="text_15">
    <g id="patch_4">
     <path clip-path="url(#p87a0c3ccc7)" d="M 243.975371 100.877737 
L 307.335371 100.877737 
L 307.335371 72.977737 
L 243.975371 72.977737 
z
" style="fill:#ffffff;stroke:#ffffff;stroke-linejoin:miter;"/>
    </g>
    <g clip-path="url(#p87a0c3ccc7)">
     <!-- $10^{7}$ yr -->
     <defs>
      <path d="M 8.203125 72.90625 
L 55.078125 72.90625 
L 55.078125 68.703125 
L 28.609375 0 
L 18.3125 0 
L 43.21875 64.59375 
L 8.203125 64.59375 
z
" id="DejaVuSans-37"/>
     </defs>
     <g transform="translate(247.935371 93.137737)scale(0.18 -0.18)">
      <use transform="translate(0 0.684375)" xlink:href="#DejaVuSans-31"/>
      <use transform="translate(63.623047 0.684375)" xlink:href="#DejaVuSans-30"/>
      <use transform="translate(128.203125 38.965625)scale(0.7)" xlink:href="#DejaVuSans-37"/>
      <use transform="translate(175.473633 0.684375)" xlink:href="#DejaVuSans-20"/>
      <use transform="translate(207.260742 0.684375)" xlink:href="#DejaVuSans-79"/>
      <use transform="translate(266.44043 0.684375)" xlink:href="#DejaVuSans-72"/>
     </g>
    </g>
   </g>
   <g id="text_16">
    <g id="patch_5">
     <path clip-path="url(#p87a0c3ccc7)" d="M 336.770248 158.947157 
L 400.130247 158.947157 
L 400.130247 130.867157 
L 336.770248 130.867157 
z
" style="fill:#ffffff;stroke:#ffffff;stroke-linejoin:miter;"/>
    </g>
    <g clip-path="url(#p87a0c3ccc7)">
     <!-- $10^{8}$ yr -->
     <defs>
      <path d="M 31.78125 34.625 
Q 24.75 34.625 20.71875 30.859375 
Q 16.703125 27.09375 16.703125 20.515625 
Q 16.703125 13.921875 20.71875 10.15625 
Q 24.75 6.390625 31.78125 6.390625 
Q 38.8125 6.390625 42.859375 10.171875 
Q 46.921875 13.96875 46.921875 20.515625 
Q 46.921875 27.09375 42.890625 30.859375 
Q 38.875 34.625 31.78125 34.625 
z
M 21.921875 38.8125 
Q 15.578125 40.375 12.03125 44.71875 
Q 8.5 49.078125 8.5 55.328125 
Q 8.5 64.0625 14.71875 69.140625 
Q 20.953125 74.21875 31.78125 74.21875 
Q 42.671875 74.21875 48.875 69.140625 
Q 55.078125 64.0625 55.078125 55.328125 
Q 55.078125 49.078125 51.53125 44.71875 
Q 48 40.375 41.703125 38.8125 
Q 48.828125 37.15625 52.796875 32.3125 
Q 56.78125 27.484375 56.78125 20.515625 
Q 56.78125 9.90625 50.3125 4.234375 
Q 43.84375 -1.421875 31.78125 -1.421875 
Q 19.734375 -1.421875 13.25 4.234375 
Q 6.78125 9.90625 6.78125 20.515625 
Q 6.78125 27.484375 10.78125 32.3125 
Q 14.796875 37.15625 21.921875 38.8125 
z
M 18.3125 54.390625 
Q 18.3125 48.734375 21.84375 45.5625 
Q 25.390625 42.390625 31.78125 42.390625 
Q 38.140625 42.390625 41.71875 45.5625 
Q 45.3125 48.734375 45.3125 54.390625 
Q 45.3125 60.0625 41.71875 63.234375 
Q 38.140625 66.40625 31.78125 66.40625 
Q 25.390625 66.40625 21.84375 63.234375 
Q 18.3125 60.0625 18.3125 54.390625 
z
" id="DejaVuSans-38"/>
     </defs>
     <g transform="translate(340.730248 151.207157)scale(0.18 -0.18)">
      <use transform="translate(0 0.765625)" xlink:href="#DejaVuSans-31"/>
      <use transform="translate(63.623047 0.765625)" xlink:href="#DejaVuSans-30"/>
      <use transform="translate(128.203125 39.046875)scale(0.7)" xlink:href="#DejaVuSans-38"/>
      <use transform="translate(175.473633 0.765625)" xlink:href="#DejaVuSans-20"/>
      <use transform="translate(207.260742 0.765625)" xlink:href="#DejaVuSans-79"/>
      <use transform="translate(266.44043 0.765625)" xlink:href="#DejaVuSans-72"/>
     </g>
    </g>
   </g>
   <g id="text_17">
    <g id="patch_6">
     <path clip-path="url(#p87a0c3ccc7)" d="M 425.515124 208.499801 
L 496.975124 208.499801 
L 496.975124 180.419801 
L 425.515124 180.419801 
z
" style="fill:#ffffff;stroke:#ffffff;stroke-linejoin:miter;"/>
    </g>
    <g clip-path="url(#p87a0c3ccc7)">
     <!-- $10^{10}$ yr -->
     <g transform="translate(429.475124 200.759801)scale(0.18 -0.18)">
      <use transform="translate(0 0.765625)" xlink:href="#DejaVuSans-31"/>
      <use transform="translate(63.623047 0.765625)" xlink:href="#DejaVuSans-30"/>
      <use transform="translate(128.203125 39.046875)scale(0.7)" xlink:href="#DejaVuSans-31"/>
      <use transform="translate(172.739258 39.046875)scale(0.7)" xlink:href="#DejaVuSans-30"/>
      <use transform="translate(220.009766 0.765625)" xlink:href="#DejaVuSans-20"/>
      <use transform="translate(251.796875 0.765625)" xlink:href="#DejaVuSans-79"/>
      <use transform="translate(310.976562 0.765625)" xlink:href="#DejaVuSans-72"/>
     </g>
    </g>
   </g>
   <g id="patch_7">
    <path d="M 90.065619 511 
L 90.065619 21.96 
" style="fill:none;stroke:#000000;stroke-linecap:square;stroke-linejoin:miter;stroke-width:0.8;"/>
   </g>
   <g id="patch_8">
    <path d="M 554.04 511 
L 554.04 21.96 
" style="fill:none;stroke:#000000;stroke-linecap:square;stroke-linejoin:miter;stroke-width:0.8;"/>
   </g>
   <g id="patch_9">
    <path d="M 90.065619 511 
L 554.04 511 
" style="fill:none;stroke:#000000;stroke-linecap:square;stroke-linejoin:miter;stroke-width:0.8;"/>
   </g>
   <g id="patch_10">
    <path d="M 90.065619 21.96 
L 554.04 21.96 
" style="fill:none;stroke:#000000;stroke-linecap:square;stroke-linejoin:miter;stroke-width:0.8;"/>
   </g>
  </g>
 </g>
 <defs>
  <clipPath id="p87a0c3ccc7">
   <rect height="489.04" width="463.974381" x="90.065619" y="21.96"/>
  </clipPath>
 </defs>
</svg>
