<?xml version="1.0" encoding="UTF-8" standalone="no"?>
<!-- Created with Inkscape (http://www.inkscape.org/) -->

<svg
   xmlns:dc="http://purl.org/dc/elements/1.1/"
   xmlns:cc="http://creativecommons.org/ns#"
   xmlns:rdf="http://www.w3.org/1999/02/22-rdf-syntax-ns#"
   xmlns:svg="http://www.w3.org/2000/svg"
   xmlns="http://www.w3.org/2000/svg"
   xmlns:sodipodi="http://sodipodi.sourceforge.net/DTD/sodipodi-0.dtd"
   xmlns:inkscape="http://www.inkscape.org/namespaces/inkscape"
   id="svg35624"
   version="1.1"
   inkscape:version="0.48.5 r10040"
   width="347.21387"
   height="263.48475"
   xml:space="preserve"
   sodipodi:docname="Lada2010_NYSOs_vs_CloudMass.pdf"><metadata
     id="metadata35630"><rdf:RDF><cc:Work
         rdf:about=""><dc:format>image/svg+xml</dc:format><dc:type
           rdf:resource="http://purl.org/dc/dcmitype/StillImage" /><dc:title></dc:title></cc:Work></rdf:RDF></metadata><defs
     id="defs35628"><clipPath
       clipPathUnits="userSpaceOnUse"
       id="clipPath35640"><path
         d="m 40.3199,65.952 531.0001,0 0,657 -531.0001,0 0,-657 z"
         id="path35642" /></clipPath><clipPath
       clipPathUnits="userSpaceOnUse"
       id="clipPath35646"><path
         d="M 0,0 612,0 612,792 0,792 0,0 z"
         id="path35648" /></clipPath><clipPath
       clipPathUnits="userSpaceOnUse"
       id="clipPath35736"><path
         d="m 474.008,684.424 -261.23,0 0,-191.554 261.23,0 0,191.554 z"
         id="path35738" /></clipPath><clipPath
       clipPathUnits="userSpaceOnUse"
       id="clipPath35742"><path
         d="M 0,0 612,0 612,792 0,792 0,0 z"
         id="path35744" /></clipPath><clipPath
       clipPathUnits="userSpaceOnUse"
       id="clipPath35754"><path
         d="m 40.3199,65.952 531.0001,0 0,657 -531.0001,0 0,-657 z"
         id="path35756" /></clipPath><clipPath
       clipPathUnits="userSpaceOnUse"
       id="clipPath35760"><path
         d="M 0,0 612,0 612,792 0,792 0,0 z"
         id="path35762" /></clipPath><clipPath
       clipPathUnits="userSpaceOnUse"
       id="clipPath36232"><path
         d="m 40.3199,65.952 531,0 0,656.998 -531,0 0,-656.998 z"
         id="path36234" /></clipPath></defs><sodipodi:namedview
     pagecolor="#ffffff"
     bordercolor="#666666"
     borderopacity="1"
     objecttolerance="10"
     gridtolerance="10"
     guidetolerance="10"
     inkscape:pageopacity="0"
     inkscape:pageshadow="2"
     inkscape:window-width="1442"
     inkscape:window-height="1106"
     id="namedview35626"
     showgrid="false"
     inkscape:zoom="0.89568754"
     inkscape:cx="173.60693"
     inkscape:cy="-46.891352"
     inkscape:window-x="0"
     inkscape:window-y="22"
     inkscape:window-maximized="0"
     inkscape:current-layer="g35632" /><g
     id="g35632"
     inkscape:groupmode="layer"
     inkscape:label="Lada2010_NYSOs_vs_CloudMass"
     transform="matrix(1.25,0,0,-1.25,-250.59675,867.136)"><path
       inkscape:connector-curvature="0"
       id="path35654"
       style="fill:#127bca;fill-opacity:1;fill-rule:nonzero;stroke:none"
       d="m 349.114,549.928 c 0,1.358 -1.102,2.458 -2.458,2.458 -1.355,0 -2.456,-1.1 -2.456,-2.458 0,-1.358 1.101,-2.458 2.456,-2.458 1.356,0 2.458,1.1 2.458,2.458" /><g
       transform="scale(0.1,0.1)"
       id="g35656"><path
         inkscape:connector-curvature="0"
         id="path35658"
         style="fill:none;stroke:#ffffff;stroke-width:5;stroke-linecap:butt;stroke-linejoin:miter;stroke-miterlimit:4;stroke-opacity:1;stroke-dasharray:none"
         d="m 3491.14,5499.28 c 0,13.58 -11.02,24.58 -24.58,24.58 -13.55,0 -24.56,-11 -24.56,-24.58 0,-13.58 11.01,-24.58 24.56,-24.58 13.56,0 24.58,11 24.58,24.58" /></g><path
       inkscape:connector-curvature="0"
       id="path35660"
       style="fill:#127bca;fill-opacity:1;fill-rule:nonzero;stroke:none"
       d="m 371.926,609.028 c 0,1.357 -1.098,2.456 -2.457,2.456 -1.356,0 -2.457,-1.099 -2.457,-2.456 0,-1.357 1.101,-2.458 2.457,-2.458 1.359,0 2.457,1.101 2.457,2.458" /><g
       transform="scale(0.1,0.1)"
       id="g35662"><path
         inkscape:connector-curvature="0"
         id="path35664"
         style="fill:none;stroke:#ffffff;stroke-width:5;stroke-linecap:butt;stroke-linejoin:miter;stroke-miterlimit:4;stroke-opacity:1;stroke-dasharray:none"
         d="m 3719.26,6090.28 c 0,13.57 -10.98,24.56 -24.57,24.56 -13.56,0 -24.57,-10.99 -24.57,-24.56 0,-13.57 11.01,-24.58 24.57,-24.58 13.59,0 24.57,11.01 24.57,24.58" /></g><path
       inkscape:connector-curvature="0"
       id="path35666"
       style="fill:#127bca;fill-opacity:1;fill-rule:nonzero;stroke:none"
       d="m 433.556,647.771 c 0,1.357 -1.101,2.458 -2.459,2.458 -1.356,0 -2.456,-1.101 -2.456,-2.458 0,-1.358 1.1,-2.457 2.456,-2.457 1.358,0 2.459,1.099 2.459,2.457" /><g
       transform="scale(0.1,0.1)"
       id="g35668"><path
         inkscape:connector-curvature="0"
         id="path35670"
         style="fill:none;stroke:#ffffff;stroke-width:5;stroke-linecap:butt;stroke-linejoin:miter;stroke-miterlimit:4;stroke-opacity:1;stroke-dasharray:none"
         d="m 4335.56,6477.71 c 0,13.57 -11.01,24.58 -24.59,24.58 -13.56,0 -24.56,-11.01 -24.56,-24.58 0,-13.58 11,-24.57 24.56,-24.57 13.58,0 24.59,10.99 24.59,24.57" /></g><path
       inkscape:connector-curvature="0"
       id="path35672"
       style="fill:#127bca;fill-opacity:1;fill-rule:nonzero;stroke:none"
       d="m 448.84,551.812 c 0,1.357 -1.1,2.456 -2.458,2.456 -1.356,0 -2.457,-1.099 -2.457,-2.456 0,-1.357 1.101,-2.457 2.457,-2.457 1.358,0 2.458,1.1 2.458,2.457" /><g
       transform="scale(0.1,0.1)"
       id="g35674"><path
         inkscape:connector-curvature="0"
         id="path35676"
         style="fill:none;stroke:#ffffff;stroke-width:5;stroke-linecap:butt;stroke-linejoin:miter;stroke-miterlimit:4;stroke-opacity:1;stroke-dasharray:none"
         d="m 4488.4,5518.12 c 0,13.57 -11,24.56 -24.58,24.56 -13.56,0 -24.57,-10.99 -24.57,-24.56 0,-13.57 11.01,-24.57 24.57,-24.57 13.58,0 24.58,11 24.58,24.57" /></g><path
       inkscape:connector-curvature="0"
       id="path35678"
       style="fill:#127bca;fill-opacity:1;fill-rule:nonzero;stroke:none"
       d="m 297.837,637.922 c 0,1.357 -1.1,2.458 -2.457,2.458 -1.357,0 -2.457,-1.101 -2.457,-2.458 0,-1.357 1.1,-2.457 2.457,-2.457 1.357,0 2.457,1.1 2.457,2.457" /><g
       transform="scale(0.1,0.1)"
       id="g35680"><path
         inkscape:connector-curvature="0"
         id="path35682"
         style="fill:none;stroke:#ffffff;stroke-width:5;stroke-linecap:butt;stroke-linejoin:miter;stroke-miterlimit:4;stroke-opacity:1;stroke-dasharray:none"
         d="m 2978.37,6379.22 c 0,13.57 -11,24.58 -24.57,24.58 -13.57,0 -24.57,-11.01 -24.57,-24.58 0,-13.57 11,-24.57 24.57,-24.57 13.57,0 24.57,11 24.57,24.57" /></g><path
       inkscape:connector-curvature="0"
       id="path35684"
       style="fill:#127bca;fill-opacity:1;fill-rule:nonzero;stroke:none"
       d="m 374.097,609.314 c 0,1.358 -1.099,2.458 -2.458,2.458 -1.355,0 -2.457,-1.1 -2.457,-2.458 0,-1.358 1.102,-2.456 2.457,-2.456 1.359,0 2.458,1.098 2.458,2.456" /><g
       transform="scale(0.1,0.1)"
       id="g35686"><path
         inkscape:connector-curvature="0"
         id="path35688"
         style="fill:none;stroke:#ffffff;stroke-width:5;stroke-linecap:butt;stroke-linejoin:miter;stroke-miterlimit:4;stroke-opacity:1;stroke-dasharray:none"
         d="m 3740.97,6093.14 c 0,13.58 -10.99,24.58 -24.58,24.58 -13.55,0 -24.57,-11 -24.57,-24.58 0,-13.58 11.02,-24.56 24.57,-24.56 13.59,0 24.58,10.98 24.58,24.56" /></g><path
       inkscape:connector-curvature="0"
       id="path35690"
       style="fill:#127bca;fill-opacity:1;fill-rule:nonzero;stroke:none"
       d="m 382.356,643.502 c 0,1.357 -1.1,2.456 -2.457,2.456 -1.357,0 -2.458,-1.099 -2.458,-2.456 0,-1.358 1.101,-2.457 2.458,-2.457 1.357,0 2.457,1.099 2.457,2.457" /><g
       transform="scale(0.1,0.1)"
       id="g35692"><path
         inkscape:connector-curvature="0"
         id="path35694"
         style="fill:none;stroke:#ffffff;stroke-width:5;stroke-linecap:butt;stroke-linejoin:miter;stroke-miterlimit:4;stroke-opacity:1;stroke-dasharray:none"
         d="m 3823.56,6435.02 c 0,13.57 -11,24.56 -24.57,24.56 -13.57,0 -24.58,-10.99 -24.58,-24.56 0,-13.58 11.01,-24.57 24.58,-24.57 13.57,0 24.57,10.99 24.57,24.57" /></g><path
       inkscape:connector-curvature="0"
       id="path35696"
       style="fill:#127bca;fill-opacity:1;fill-rule:nonzero;stroke:none"
       d="m 435.876,592.512 c 0,1.356 -1.1,2.455 -2.457,2.455 -1.358,0 -2.458,-1.099 -2.458,-2.455 0,-1.358 1.1,-2.458 2.458,-2.458 1.357,0 2.457,1.1 2.457,2.458" /><g
       transform="scale(0.1,0.1)"
       id="g35698"><path
         inkscape:connector-curvature="0"
         id="path35700"
         style="fill:none;stroke:#ffffff;stroke-width:5;stroke-linecap:butt;stroke-linejoin:miter;stroke-miterlimit:4;stroke-opacity:1;stroke-dasharray:none"
         d="m 4358.76,5925.12 c 0,13.56 -11,24.55 -24.57,24.55 -13.58,0 -24.58,-10.99 -24.58,-24.55 0,-13.58 11,-24.58 24.58,-24.58 13.57,0 24.57,11 24.57,24.58" /></g><path
       inkscape:connector-curvature="0"
       id="path35702"
       style="fill:#127bca;fill-opacity:1;fill-rule:nonzero;stroke:none"
       d="m 272.639,668.271 c 0,1.356 -1.1,2.456 -2.458,2.456 -1.357,0 -2.457,-1.1 -2.457,-2.456 0,-1.358 1.1,-2.458 2.457,-2.458 1.358,0 2.458,1.1 2.458,2.458" /><g
       transform="scale(0.1,0.1)"
       id="g35704"><path
         inkscape:connector-curvature="0"
         id="path35706"
         style="fill:none;stroke:#ffffff;stroke-width:5;stroke-linecap:butt;stroke-linejoin:miter;stroke-miterlimit:4;stroke-opacity:1;stroke-dasharray:none"
         d="m 2726.39,6682.71 c 0,13.56 -11,24.56 -24.58,24.56 -13.57,0 -24.57,-11 -24.57,-24.56 0,-13.58 11,-24.58 24.57,-24.58 13.58,0 24.58,11 24.58,24.58" /></g><path
       inkscape:connector-curvature="0"
       id="path35708"
       style="fill:#127bca;fill-opacity:1;fill-rule:nonzero;stroke:none"
       d="m 280.239,591.93 c 0,1.358 -1.1,2.457 -2.458,2.457 -1.357,0 -2.457,-1.099 -2.457,-2.457 0,-1.355 1.1,-2.456 2.457,-2.456 1.358,0 2.458,1.101 2.458,2.456" /><g
       transform="scale(0.1,0.1)"
       id="g35710"><path
         inkscape:connector-curvature="0"
         id="path35712"
         style="fill:none;stroke:#ffffff;stroke-width:5;stroke-linecap:butt;stroke-linejoin:miter;stroke-miterlimit:4;stroke-opacity:1;stroke-dasharray:none"
         d="m 2802.39,5919.3 c 0,13.58 -11,24.57 -24.58,24.57 -13.57,0 -24.57,-10.99 -24.57,-24.57 0,-13.55 11,-24.56 24.57,-24.56 13.58,0 24.58,11.01 24.58,24.56" /></g><path
       inkscape:connector-curvature="0"
       id="path35714"
       style="fill:#127bca;fill-opacity:1;fill-rule:nonzero;stroke:none"
       d="m 258.149,614.529 c 0,1.356 -1.1,2.457 -2.457,2.457 -1.358,0 -2.458,-1.101 -2.458,-2.457 0,-1.357 1.1,-2.457 2.458,-2.457 1.357,0 2.457,1.1 2.457,2.457" /><g
       transform="scale(0.1,0.1)"
       id="g35716"><path
         inkscape:connector-curvature="0"
         id="path35718"
         style="fill:none;stroke:#ffffff;stroke-width:5;stroke-linecap:butt;stroke-linejoin:miter;stroke-miterlimit:4;stroke-opacity:1;stroke-dasharray:none"
         d="m 2581.49,6145.29 c 0,13.56 -11,24.57 -24.57,24.57 -13.58,0 -24.58,-11.01 -24.58,-24.57 0,-13.57 11,-24.57 24.58,-24.57 13.57,0 24.57,11 24.57,24.57" /></g><g
       transform="scale(0.1,0.1)"
       id="g35720"><path
         inkscape:connector-curvature="0"
         id="path35722"
         style="fill:none;stroke:#231f20;stroke-width:5;stroke-linecap:butt;stroke-linejoin:miter;stroke-miterlimit:4;stroke-opacity:1;stroke-dasharray:none"
         d="m 2651.09,5181.67 0,-26.42 m 906.73,26.42 0,-26.42 m 906.72,26.42 0,-26.42 m -2014.77,13.22 0,-13.22 m 60.8,13.22 0,-13.22 m 52.86,13.22 0,-13.22 m 46.34,13.22 0,-13.22 m 314.38,13.22 0,-13.22 m 159.3,13.22 0,-13.22 m 113.73,13.22 0,-13.22 m 87.6,13.22 0,-13.22 m 71.71,13.22 0,-13.22 m 60.79,13.22 0,-13.22 m 52.87,13.22 0,-13.22 m 46.41,13.22 0,-13.22 m 314.32,13.22 0,-13.22 m 159.28,13.22 0,-13.22 m 113.74,13.22 0,-13.22 m 87.6,13.22 0,-13.22 m 71.7,13.22 0,-13.22 m 60.81,13.22 0,-13.22 m 52.15,13.22 0,-13.22 m 47.12,13.22 0,-13.22 m -1772.19,1626.65 0,-26.42 m 906.73,26.42 0,-26.42 m 906.72,26.42 0,-26.42 m -2014.77,26.42 0,-13.21 m 60.8,13.21 0,-13.21 m 52.86,13.21 0,-13.21 m 46.34,13.21 0,-13.21 m 314.38,13.21 0,-13.21 m 159.3,13.21 0,-13.21 m 113.73,13.21 0,-13.21 m 87.6,13.21 0,-13.21 m 71.71,13.21 0,-13.21 m 60.79,13.21 0,-13.21 m 52.87,13.21 0,-13.21 m 46.41,13.21 0,-13.21 m 314.32,13.21 0,-13.21 m 159.28,13.21 0,-13.21 m 113.74,13.21 0,-13.21 m 87.6,13.21 0,-13.21 m 71.7,13.21 0,-13.21 m 60.81,13.21 0,-13.21 m 52.15,13.21 0,-13.21 m 47.12,13.21 0,-13.21 m -2018.79,-800.11 -26.42,0 m 13.21,-568.51 -13.21,0 m 13.21,143.4 -13.21,0 m 13.21,101.36 -13.21,0 m 13.21,78.92 -13.21,0 m 13.21,64.49 -13.21,0 m 13.21,54.34 -13.21,0 m 13.21,47.08 -13.21,0 m 13.21,41.26 -13.21,0 m 13.21,282.48 -13.21,0 m 13.21,142.61 -13.21,0 m 13.21,102.14 -13.21,0 m 13.21,78.94 -13.21,0 m 13.21,63.74 -13.21,0 m 13.21,55.02 -13.21,0 m 13.21,47.12 -13.21,0 m 13.21,41.27 -13.21,0 m 2359.51,-775.66 -26.41,0 m 26.41,-568.51 -13.21,0 m 13.21,143.4 -13.21,0 m 13.21,101.36 -13.21,0 m 13.21,78.92 -13.21,0 m 13.21,64.49 -13.21,0 m 13.21,54.34 -13.21,0 m 13.21,47.08 -13.21,0 m 13.21,41.26 -13.21,0 m 13.21,282.48 -13.21,0 m 13.21,142.61 -13.21,0 m 13.21,102.14 -13.21,0 m 13.21,78.94 -13.21,0 m 13.21,63.74 -13.21,0 m 13.21,55.02 -13.21,0 m 13.21,47.12 -13.21,0 m 13.21,41.27 -13.21,0 m 13.21,-1588.99 -2359.51,0 0,1626.65 2359.51,0 0,-1626.65 z" /></g><text
       id="text35724"
       transform="scale(1,-1)"
       x="326.64401"
       y="-497.396"><tspan
         id="tspan35726"
         sodipodi:role="line"
         y="-497.396"
         x="326.64401 331.4024 333.6008 338.21521 342.87759 347.64401 349.26001 356.1384 360.36081 363.83121 367.30161 368.9176 371.42801"
         style="font-size:8px;font-variant:normal;font-weight:bold;writing-mode:lr-tb;fill:#231f20;fill-opacity:1;fill-rule:nonzero;stroke:none;font-family:MyriadPro;-inkscape-font-specification:MyriadPro-Bold">Cloud mass (M</tspan></text>
<text
       id="text35728"
       transform="scale(0.99999098,-1.000009)"
       x="378.1904"
       y="-494.99054"
       style="font-size:11.99989223px"><tspan
         id="tspan35730"
         y="-494.99054"
         x="378.1904"
         style="font-size:5.59994936px;font-variant:normal;font-weight:normal;writing-mode:lr-tb;fill:#231f20;fill-opacity:1;fill-rule:nonzero;stroke:none;font-family:Apple LiSung;-inkscape-font-specification:AppleSymbols">☉</tspan></text>
<text
       id="text35746"
       transform="scale(0.99999098,-1.000009)"
       x="378.1904"
       y="-494.99054"
       style="font-size:11.99989223px"><tspan
         id="tspan35748"
         y="-494.99054"
         x="378.1904"
         style="font-size:5.59994936px;font-variant:normal;font-weight:normal;writing-mode:lr-tb;fill:none;stroke:#231f20;stroke-width:0.24999775;stroke-linecap:butt;stroke-linejoin:miter;stroke-miterlimit:4;stroke-opacity:1;stroke-dasharray:none;font-family:Apple LiSung;-inkscape-font-specification:AppleSymbols">☉</tspan></text>
<text
       id="text35764"
       transform="scale(1,-1)"
       x="382.41"
       y="-497.396"><tspan
         id="tspan35766"
         y="-497.396"
         x="382.41"
         style="font-size:8px;font-variant:normal;font-weight:bold;writing-mode:lr-tb;fill:#231f20;fill-opacity:1;fill-rule:nonzero;stroke:none;font-family:MyriadPro;-inkscape-font-specification:MyriadPro-Bold">)</tspan></text>
<text
       id="text35768"
       transform="scale(0.999993,-1.000007)"
       x="260.05481"
       y="-507.48944"
       style="font-size:11.99991608px"><tspan
         id="tspan35770"
         sodipodi:role="line"
         y="-507.48944"
         x="260.05481 263.64578"
         style="font-size:6.99995089px;font-variant:normal;font-weight:normal;writing-mode:lr-tb;fill:#231f20;fill-opacity:1;fill-rule:nonzero;stroke:none;font-family:MyriadPro;-inkscape-font-specification:MyriadPro-Regular">10</tspan></text>
<text
       id="text35772"
       transform="scale(1,-1)"
       x="267.655"
       y="-509.59201"><tspan
         id="tspan35774"
         y="-509.59201"
         x="267.655"
         style="font-size:4.9000001px;font-variant:normal;font-weight:normal;writing-mode:lr-tb;fill:#231f20;fill-opacity:1;fill-rule:nonzero;stroke:none;font-family:MyriadPro;-inkscape-font-specification:MyriadPro-Regular">3</tspan></text>
<text
       id="text35776"
       transform="scale(0.999993,-1.000007)"
       x="223.13956"
       y="-676.46326"
       style="font-size:11.99991608px"><tspan
         id="tspan35778"
         sodipodi:role="line"
         y="-676.46326"
         x="223.13956 226.73053"
         style="font-size:6.99995089px;font-variant:normal;font-weight:normal;writing-mode:lr-tb;fill:#231f20;fill-opacity:1;fill-rule:nonzero;stroke:none;font-family:MyriadPro;-inkscape-font-specification:MyriadPro-Regular">10</tspan></text>
<text
       id="text35780"
       transform="scale(1,-1)"
       x="230.74001"
       y="-678.56799"><tspan
         id="tspan35782"
         sodipodi:role="line"
         y="-678.56799"
         x="230.74001 233.19"
         style="font-size:4.9000001px;font-variant:normal;font-weight:normal;writing-mode:lr-tb;fill:#231f20;fill-opacity:1;fill-rule:nonzero;stroke:none;font-family:MyriadPro;-inkscape-font-specification:MyriadPro-Regular">–1</tspan></text>
<text
       id="text35784"
       transform="scale(0.999993,-1.000007)"
       x="223.13956"
       y="-595.20483"
       style="font-size:11.99991608px"><tspan
         id="tspan35786"
         sodipodi:role="line"
         y="-595.20483"
         x="223.13956 226.73053"
         style="font-size:6.99995089px;font-variant:normal;font-weight:normal;writing-mode:lr-tb;fill:#231f20;fill-opacity:1;fill-rule:nonzero;stroke:none;font-family:MyriadPro;-inkscape-font-specification:MyriadPro-Regular">10</tspan></text>
<text
       id="text35788"
       transform="scale(1,-1)"
       x="230.74001"
       y="-597.30902"><tspan
         id="tspan35790"
         sodipodi:role="line"
         y="-597.30902"
         x="230.74001 233.19"
         style="font-size:4.9000001px;font-variant:normal;font-weight:normal;writing-mode:lr-tb;fill:#231f20;fill-opacity:1;fill-rule:nonzero;stroke:none;font-family:MyriadPro;-inkscape-font-specification:MyriadPro-Regular">–2</tspan></text>
<text
       id="text35792"
       transform="scale(0.999993,-1.000007)"
       x="223.13956"
       y="-513.94641"
       style="font-size:11.99991608px"><tspan
         id="tspan35794"
         sodipodi:role="line"
         y="-513.94641"
         x="223.13956 226.73053"
         style="font-size:6.99995089px;font-variant:normal;font-weight:normal;writing-mode:lr-tb;fill:#231f20;fill-opacity:1;fill-rule:nonzero;stroke:none;font-family:MyriadPro;-inkscape-font-specification:MyriadPro-Regular">10</tspan></text>
<text
       id="text35796"
       transform="scale(1,-1)"
       x="230.74001"
       y="-516.04999"><tspan
         id="tspan35798"
         sodipodi:role="line"
         y="-516.04999"
         x="230.74001 233.19"
         style="font-size:4.9000001px;font-variant:normal;font-weight:normal;writing-mode:lr-tb;fill:#231f20;fill-opacity:1;fill-rule:nonzero;stroke:none;font-family:MyriadPro;-inkscape-font-specification:MyriadPro-Regular">–3</tspan></text>
<text
       id="text35800"
       transform="scale(0.999993,-1.000007)"
       x="350.65744"
       y="-507.48944"
       style="font-size:11.99991608px"><tspan
         id="tspan35802"
         sodipodi:role="line"
         y="-507.48944"
         x="350.65744 354.24844"
         style="font-size:6.99995089px;font-variant:normal;font-weight:normal;writing-mode:lr-tb;fill:#231f20;fill-opacity:1;fill-rule:nonzero;stroke:none;font-family:MyriadPro;-inkscape-font-specification:MyriadPro-Regular">10</tspan></text>
<text
       id="text35804"
       transform="scale(1,-1)"
       x="358.397"
       y="-509.59201"><tspan
         id="tspan35806"
         y="-509.59201"
         x="358.397"
         style="font-size:4.9000001px;font-variant:normal;font-weight:normal;writing-mode:lr-tb;fill:#231f20;fill-opacity:1;fill-rule:nonzero;stroke:none;font-family:MyriadPro;-inkscape-font-specification:MyriadPro-Regular">4</tspan></text>
<text
       id="text35808"
       transform="scale(0.999993,-1.000007)"
       x="441.4711"
       y="-507.48944"
       style="font-size:11.99991608px"><tspan
         id="tspan35810"
         sodipodi:role="line"
         y="-507.48944"
         x="441.4711 445.06207"
         style="font-size:6.99995089px;font-variant:normal;font-weight:normal;writing-mode:lr-tb;fill:#231f20;fill-opacity:1;fill-rule:nonzero;stroke:none;font-family:MyriadPro;-inkscape-font-specification:MyriadPro-Regular">10</tspan></text>
<text
       id="text35812"
       transform="scale(1,-1)"
       x="448.92899"
       y="-509.59201"><tspan
         id="tspan35814"
         y="-509.59201"
         x="448.92899"
         style="font-size:4.9000001px;font-variant:normal;font-weight:normal;writing-mode:lr-tb;fill:#231f20;fill-opacity:1;fill-rule:nonzero;stroke:none;font-family:MyriadPro;-inkscape-font-specification:MyriadPro-Regular">5</tspan></text>
<text
       id="text35816"
       transform="matrix(0,0.999994,1.000006,0,0,0)"
       x="573.58246"
       y="219.47269"
       style="font-size:11.99992847px"><tspan
         id="tspan35818"
         y="219.47269"
         x="573.58246"
         style="font-size:7.99995184px;font-variant:normal;font-weight:bold;writing-mode:lr-tb;fill:#231f20;fill-opacity:1;fill-rule:nonzero;stroke:none;font-family:MyriadPro;-inkscape-font-specification:MyriadPro-BoldIt">N</tspan></text>
<text
       id="text35820"
       transform="matrix(0,0.999994,1.000006,0,0,0)"
       x="579.71021"
       y="219.47269"
       style="font-size:11.99992847px"><tspan
         id="tspan35822"
         sodipodi:role="line"
         y="219.47269"
         x="579.71021 582.22217 587.04614 591.36609 597.10205 599.61407 602.26202 609.14203 613.36597 616.83795"
         style="font-size:7.99995184px;font-variant:normal;font-weight:bold;writing-mode:lr-tb;fill:#231f20;fill-opacity:1;fill-rule:nonzero;stroke:none;font-family:MyriadPro;-inkscape-font-specification:MyriadPro-Bold">(YSO)/mass</tspan></text>
<text
       id="text35824"
       transform="scale(0.999993,-1.000007)"
       x="375.71463"
       y="-607.67175"
       style="font-size:11.99991608px"><tspan
         id="tspan35826"
         sodipodi:role="line"
         y="-607.67175"
         x="375.71463 379.38962 382.94559 386.92856 389.42053 393.4035"
         style="font-size:6.99995089px;font-variant:normal;font-weight:600;writing-mode:lr-tb;fill:#231f20;fill-opacity:1;fill-rule:nonzero;stroke:none;font-family:MyriadPro;-inkscape-font-specification:MyriadPro-Semibold">Taurus</tspan></text>
<text
       id="text35828"
       transform="scale(0.999993,-1.000007)"
       x="431.74353"
       y="-543.06989"
       style="font-size:11.99991608px"><tspan
         id="tspan35830"
         sodipodi:role="line"
         y="-543.06989"
         x="431.74353 435.8595 439.41547 441.21445 443.00644 445.23944 449.18741 451.67938 455.68335 457.47534"
         style="font-size:6.99995089px;font-variant:normal;font-weight:600;writing-mode:lr-tb;fill:#231f20;fill-opacity:1;fill-rule:nonzero;stroke:none;font-family:MyriadPro;-inkscape-font-specification:MyriadPro-Semibold">California</tspan></text>
<text
       id="text35832"
       transform="scale(0.999993,-1.000007)"
       x="419.56924"
       y="-639.02942"
       style="font-size:11.99991608px"><tspan
         id="tspan35834"
         sodipodi:role="line"
         y="-639.02942"
         x="419.56924 424.49719 426.9892 428.78116 432.72916 436.73312 438.1821"
         style="font-size:6.99995089px;font-variant:normal;font-weight:600;writing-mode:lr-tb;fill:#231f20;fill-opacity:1;fill-rule:nonzero;stroke:none;font-family:MyriadPro;-inkscape-font-specification:MyriadPro-Semibold">Orion A</tspan></text>
<text
       id="text35836"
       transform="scale(0.999993,-1.000007)"
       x="368.17819"
       y="-634.75958"
       style="font-size:11.99991608px"><tspan
         id="tspan35838"
         sodipodi:role="line"
         y="-634.75958"
         x="368.17819 372.09116 375.70312 378.1951 381.11407 384.72607 388.70905"
         style="font-size:6.99995089px;font-variant:normal;font-weight:600;writing-mode:lr-tb;fill:#231f20;fill-opacity:1;fill-rule:nonzero;stroke:none;font-family:MyriadPro;-inkscape-font-specification:MyriadPro-Semibold">Perseus</tspan></text>
<text
       id="text35840"
       transform="scale(0.999993,-1.000007)"
       x="422.09814"
       y="-583.76892"
       style="font-size:11.99991608px"><tspan
         id="tspan35842"
         sodipodi:role="line"
         y="-583.76892"
         x="422.09814 427.02612 429.5181 431.31009 435.25806 439.26202 440.71103"
         style="font-size:6.99995089px;font-variant:normal;font-weight:600;writing-mode:lr-tb;fill:#231f20;fill-opacity:1;fill-rule:nonzero;stroke:none;font-family:MyriadPro;-inkscape-font-specification:MyriadPro-Semibold">Orion B</tspan></text>
<text
       id="text35844"
       transform="scale(0.999993,-1.000007)"
       x="262.66223"
       y="-659.5282"
       style="font-size:11.99991608px"><tspan
         id="tspan35846"
         sodipodi:role="line"
         y="-659.5282"
         x="262.66223 266.6452 270.76117 273.25317"
         style="font-size:6.99995089px;font-variant:normal;font-weight:600;writing-mode:lr-tb;fill:#231f20;fill-opacity:1;fill-rule:nonzero;stroke:none;font-family:MyriadPro;-inkscape-font-specification:MyriadPro-Semibold">RCrA</tspan></text>
<text
       id="text35848"
       transform="scale(0.999993,-1.000007)"
       x="283.56628"
       y="-629.18073"
       style="font-size:11.99991608px"><tspan
         id="tspan35850"
         sodipodi:role="line"
         y="-629.18073"
         x="283.56628 287.01727 291.00024 295.09521 299.07819 301.99716 303.44614"
         style="font-size:6.99995089px;font-variant:normal;font-weight:600;writing-mode:lr-tb;fill:#231f20;fill-opacity:1;fill-rule:nonzero;stroke:none;font-family:MyriadPro;-inkscape-font-specification:MyriadPro-Semibold">Lupus 3</tspan></text>
<text
       id="text35852"
       transform="scale(0.999993,-1.000007)"
       x="243.8777"
       y="-605.78748"
       style="font-size:11.99991608px"><tspan
         id="tspan35854"
         sodipodi:role="line"
         y="-605.78748"
         x="243.8777 247.32869 251.31166 255.40663 259.38959 262.30856 263.75757"
         style="font-size:6.99995089px;font-variant:normal;font-weight:600;writing-mode:lr-tb;fill:#231f20;fill-opacity:1;fill-rule:nonzero;stroke:none;font-family:MyriadPro;-inkscape-font-specification:MyriadPro-Semibold">Lupus 1</tspan></text>
<text
       id="text35856"
       transform="scale(0.999993,-1.000007)"
       x="339.95428"
       y="-541.18713"
       style="font-size:11.99991608px"><tspan
         id="tspan35858"
         sodipodi:role="line"
         y="-541.18713"
         x="339.95428 343.86725 345.65924 349.75421"
         style="font-size:6.99995089px;font-variant:normal;font-weight:600;writing-mode:lr-tb;fill:#231f20;fill-opacity:1;fill-rule:nonzero;stroke:none;font-family:MyriadPro;-inkscape-font-specification:MyriadPro-Semibold">Pipe</tspan></text>
<text
       id="text35860"
       transform="scale(0.999993,-1.000007)"
       x="265.96817"
       y="-583.18884"
       style="font-size:11.99991608px"><tspan
         id="tspan35862"
         sodipodi:role="line"
         y="-583.18884"
         x="265.96817 269.41913 273.4021 277.49707 281.48004 284.39902 285.84802"
         style="font-size:6.99995089px;font-variant:normal;font-weight:600;writing-mode:lr-tb;fill:#231f20;fill-opacity:1;fill-rule:nonzero;stroke:none;font-family:MyriadPro;-inkscape-font-specification:MyriadPro-Semibold">Lupus 4</tspan></text>
<text
       id="text35864"
       transform="scale(0.999993,-1.000007)"
       x="332.01712"
       y="-607.38275"
       style="font-size:11.99991608px"><tspan
         id="tspan35866"
         sodipodi:role="line"
         y="-607.38275"
         x="332.01712 336.9444 341.03867 345.04193 346.83322 350.81549 353.95776 357.96103 361.94333"
         style="font-size:6.99995089px;font-variant:normal;font-weight:600;writing-mode:lr-tb;fill:#231f20;fill-opacity:1;fill-rule:nonzero;stroke:none;font-family:MyriadPro;-inkscape-font-specification:MyriadPro-Semibold">Ophiuchus</tspan></text>
</g></svg>