<?xml version="1.0" encoding="utf-8" standalone="no"?>
<!DOCTYPE svg PUBLIC "-//W3C//DTD SVG 1.1//EN"
  "http://www.w3.org/Graphics/SVG/1.1/DTD/svg11.dtd">
<!-- Created with matplotlib (https://matplotlib.org/) -->
<svg height="568.8pt" version="1.1" viewBox="0 0 576 568.8" width="576pt" xmlns="http://www.w3.org/2000/svg" xmlns:xlink="http://www.w3.org/1999/xlink">
 <defs>
  <style type="text/css">
*{stroke-linecap:butt;stroke-linejoin:round;}
  </style>
 </defs>
 <g id="figure_1">
  <g id="patch_1">
   <path d="M 0 568.8 
L 576 568.8 
L 576 0 
L 0 0 
z
" style="fill:#ffffff;"/>
  </g>
  <g id="axes_1">
   <g id="patch_2">
    <path d="M 97.741508 497.32 
L 554.4 497.32 
L 554.4 21.6 
L 97.741508 21.6 
z
" style="fill:#ffffff;"/>
   </g>
   <g id="PathCollection_1">
    <path clip-path="url(#pfae800fb23)" d="M 151.502067 339.553996 
C 152.252445 339.553996 152.97219 339.255868 153.502787 338.725271 
C 154.033384 338.194674 154.331512 337.474929 154.331512 336.724551 
C 154.331512 335.974173 154.033384 335.254428 153.502787 334.723831 
C 152.97219 334.193234 152.252445 333.895106 151.502067 333.895106 
C 150.75169 333.895106 150.031945 334.193234 149.501348 334.723831 
C 148.97075 335.254428 148.672622 335.974173 148.672622 336.724551 
C 148.672622 337.474929 148.97075 338.194674 149.501348 338.725271 
C 150.031945 339.255868 150.75169 339.553996 151.502067 339.553996 
z
" style="fill:#ffe4c5;stroke:#ffe4c5;"/>
    <path clip-path="url(#pfae800fb23)" d="M 152.955928 336.608319 
C 153.72644 336.608319 154.465499 336.302191 155.010334 335.757356 
C 155.555168 335.212522 155.861296 334.473463 155.861296 333.702951 
C 155.861296 332.932438 155.555168 332.19338 155.010334 331.648545 
C 154.465499 331.10371 153.72644 330.797582 152.955928 330.797582 
C 152.185415 330.797582 151.446357 331.10371 150.901522 331.648545 
C 150.356687 332.19338 150.050559 332.932438 150.050559 333.702951 
C 150.050559 334.473463 150.356687 335.212522 150.901522 335.757356 
C 151.446357 336.302191 152.185415 336.608319 152.955928 336.608319 
z
" style="fill:#ffe9ce;stroke:#ffe9ce;"/>
    <path clip-path="url(#pfae800fb23)" d="M 154.457448 333.790257 
C 155.247271 333.790257 156.004851 333.476457 156.56334 332.917968 
C 157.12183 332.359478 157.43563 331.601898 157.43563 330.812075 
C 157.43563 330.022252 157.12183 329.264671 156.56334 328.706182 
C 156.004851 328.147693 155.247271 327.833893 154.457448 327.833893 
C 153.667624 327.833893 152.910044 328.147693 152.351555 328.706182 
C 151.793065 329.264671 151.479265 330.022252 151.479265 330.812075 
C 151.479265 331.601898 151.793065 332.359478 152.351555 332.917968 
C 152.910044 333.476457 153.667624 333.790257 154.457448 333.790257 
z
" style="fill:#ffeed8;stroke:#ffeed8;"/>
    <path clip-path="url(#pfae800fb23)" d="M 155.783521 331.02146 
C 156.593372 331.02146 157.370162 330.699703 157.942813 330.127052 
C 158.515463 329.554402 158.83722 328.777611 158.83722 327.967761 
C 158.83722 327.15791 158.515463 326.38112 157.942813 325.808469 
C 157.370162 325.235819 156.593372 324.914062 155.783521 324.914062 
C 154.973671 324.914062 154.19688 325.235819 153.62423 325.808469 
C 153.051579 326.38112 152.729822 327.15791 152.729822 327.967761 
C 152.729822 328.777611 153.051579 329.554402 153.62423 330.127052 
C 154.19688 330.699703 154.973671 331.02146 155.783521 331.02146 
z
" style="fill:#fff2e1;stroke:#fff2e1;"/>
    <path clip-path="url(#pfae800fb23)" d="M 157.146774 328.435688 
C 157.975727 328.435688 158.770839 328.106341 159.356998 327.520183 
C 159.943156 326.934025 160.272502 326.138912 160.272502 325.309959 
C 160.272502 324.481006 159.943156 323.685893 159.356998 323.099735 
C 158.770839 322.513577 157.975727 322.18423 157.146774 322.18423 
C 156.317821 322.18423 155.522708 322.513577 154.93655 323.099735 
C 154.350392 323.685893 154.021045 324.481006 154.021045 325.309959 
C 154.021045 326.138912 154.350392 326.934025 154.93655 327.520183 
C 155.522708 328.106341 156.317821 328.435688 157.146774 328.435688 
z
" style="fill:#fff4e8;stroke:#fff4e8;"/>
    <path clip-path="url(#pfae800fb23)" d="M 159.504248 323.560198 
C 160.37102 323.560198 161.202408 323.215826 161.815309 322.602925 
C 162.428209 321.990025 162.772581 321.158637 162.772581 320.291865 
C 162.772581 319.425093 162.428209 318.593705 161.815309 317.980805 
C 161.202408 317.367905 160.37102 317.023532 159.504248 317.023532 
C 158.637476 317.023532 157.806089 317.367905 157.193188 317.980805 
C 156.580288 318.593705 156.235916 319.425093 156.235916 320.291865 
C 156.235916 321.158637 156.580288 321.990025 157.193188 322.602925 
C 157.806089 323.215826 158.637476 323.560198 159.504248 323.560198 
z
" style="fill:#fff5ed;stroke:#fff5ed;"/>
    <path clip-path="url(#pfae800fb23)" d="M 161.720838 318.973072 
C 162.62507 318.973072 163.492389 318.613817 164.131777 317.974429 
C 164.771166 317.33504 165.130421 316.467721 165.130421 315.56349 
C 165.130421 314.659258 164.771166 313.791939 164.131777 313.15255 
C 163.492389 312.513162 162.62507 312.153907 161.720838 312.153907 
C 160.816606 312.153907 159.949287 312.513162 159.309899 313.15255 
C 158.67051 313.791939 158.311255 314.659258 158.311255 315.56349 
C 158.311255 316.467721 158.67051 317.33504 159.309899 317.974429 
C 159.949287 318.613817 160.816606 318.973072 161.720838 318.973072 
z
" style="fill:#fff7f2;stroke:#fff7f2;"/>
    <path clip-path="url(#pfae800fb23)" d="M 164.82285 311.071 
C 165.787023 311.071 166.711835 310.68793 167.393608 310.006157 
C 168.075382 309.324384 168.458452 308.399571 168.458452 307.435398 
C 168.458452 306.471226 168.075382 305.546413 167.393608 304.86464 
C 166.711835 304.182867 165.787023 303.799797 164.82285 303.799797 
C 163.858677 303.799797 162.933865 304.182867 162.252092 304.86464 
C 161.570318 305.546413 161.187248 306.471226 161.187248 307.435398 
C 161.187248 308.399571 161.570318 309.324384 162.252092 310.006157 
C 162.933865 310.68793 163.858677 311.071 164.82285 311.071 
z
" style="fill:#fdf9fb;stroke:#fdf9fb;"/>
    <path clip-path="url(#pfae800fb23)" d="M 167.264479 305.862016 
C 168.274673 305.862016 169.243628 305.460661 169.957943 304.746346 
C 170.672258 304.032031 171.073613 303.063076 171.073613 302.052882 
C 171.073613 301.042687 170.672258 300.073732 169.957943 299.359417 
C 169.243628 298.645102 168.274673 298.243747 167.264479 298.243747 
C 166.254284 298.243747 165.285329 298.645102 164.571014 299.359417 
C 163.856699 300.073732 163.455344 301.042687 163.455344 302.052882 
C 163.455344 303.063076 163.856699 304.032031 164.571014 304.746346 
C 165.285329 305.460661 166.254284 305.862016 167.264479 305.862016 
z
" style="fill:#f8f6ff;stroke:#f8f6ff;"/>
    <path clip-path="url(#pfae800fb23)" d="M 170.243975 300.380832 
C 171.304217 300.380832 172.321176 299.959593 173.07088 299.209889 
C 173.820584 298.460185 174.241823 297.443226 174.241823 296.382984 
C 174.241823 295.322743 173.820584 294.305783 173.07088 293.556079 
C 172.321176 292.806375 171.304217 292.385137 170.243975 292.385137 
C 169.183734 292.385137 168.166774 292.806375 167.41707 293.556079 
C 166.667366 294.305783 166.246128 295.322743 166.246128 296.382984 
C 166.246128 297.443226 166.667366 298.460185 167.41707 299.209889 
C 168.166774 299.959593 169.183734 300.380832 170.243975 300.380832 
z
" style="fill:#f0f0ff;stroke:#f0f0ff;"/>
    <path clip-path="url(#pfae800fb23)" d="M 174.914127 294.725576 
C 176.027857 294.725576 177.096121 294.283087 177.883647 293.495561 
C 178.671173 292.708035 179.113663 291.639771 179.113663 290.526041 
C 179.113663 289.412311 178.671173 288.344047 177.883647 287.556521 
C 177.096121 286.768995 176.027857 286.326506 174.914127 286.326506 
C 173.800397 286.326506 172.732133 286.768995 171.944607 287.556521 
C 171.157081 288.344047 170.714592 289.412311 170.714592 290.526041 
C 170.714592 291.639771 171.157081 292.708035 171.944607 293.495561 
C 172.732133 294.283087 173.800397 294.725576 174.914127 294.725576 
z
" style="fill:#e4e8ff;stroke:#e4e8ff;"/>
    <path clip-path="url(#pfae800fb23)" d="M 180.772886 288.974775 
C 181.942466 288.974775 183.0643 288.510096 183.891318 287.683078 
C 184.718335 286.856061 185.183014 285.734226 185.183014 284.564647 
C 185.183014 283.395067 184.718335 282.273232 183.891318 281.446215 
C 183.0643 280.619197 181.942466 280.154518 180.772886 280.154518 
C 179.603306 280.154518 178.481472 280.619197 177.654454 281.446215 
C 176.827436 282.273232 176.362757 283.395067 176.362757 284.564647 
C 176.362757 285.734226 176.827436 286.856061 177.654454 287.683078 
C 178.481472 288.510096 179.603306 288.974775 180.772886 288.974775 
z
" style="fill:#d5dfff;stroke:#d5dfff;"/>
    <path clip-path="url(#pfae800fb23)" d="M 186.222065 283.695115 
C 187.442894 283.695115 188.613886 283.210074 189.477142 282.346817 
C 190.340399 281.483561 190.825439 280.31257 190.825439 279.091741 
C 190.825439 277.870911 190.340399 276.69992 189.477142 275.836664 
C 188.613886 274.973407 187.442894 274.488367 186.222065 274.488367 
C 185.001236 274.488367 183.830245 274.973407 182.966988 275.836664 
C 182.103732 276.69992 181.618691 277.870911 181.618691 279.091741 
C 181.618691 280.31257 182.103732 281.483561 182.966988 282.346817 
C 183.830245 283.210074 185.001236 283.695115 186.222065 283.695115 
z
" style="fill:#c8d6ff;stroke:#c8d6ff;"/>
    <path clip-path="url(#pfae800fb23)" d="M 192.074468 278.349721 
C 193.348792 278.349721 194.571094 277.843426 195.472177 276.942343 
C 196.37326 276.04126 196.879555 274.818958 196.879555 273.544634 
C 196.879555 272.27031 196.37326 271.048008 195.472177 270.146925 
C 194.571094 269.245842 193.348792 268.739547 192.074468 268.739547 
C 190.800144 268.739547 189.577842 269.245842 188.676759 270.146925 
C 187.775676 271.048008 187.269381 272.27031 187.269381 273.544634 
C 187.269381 274.818958 187.775676 276.04126 188.676759 276.942343 
C 189.577842 277.843426 190.800144 278.349721 192.074468 278.349721 
z
" style="fill:#bed0ff;stroke:#bed0ff;"/>
    <path clip-path="url(#pfae800fb23)" d="M 204.66014 267.272465 
C 206.049388 267.272465 207.381924 266.720511 208.364271 265.738164 
C 209.346617 264.755817 209.898572 263.423282 209.898572 262.034033 
C 209.898572 260.644785 209.346617 259.31225 208.364271 258.329903 
C 207.381924 257.347556 206.049388 256.795602 204.66014 256.795602 
C 203.270892 256.795602 201.938357 257.347556 200.95601 258.329903 
C 199.973663 259.31225 199.421709 260.644785 199.421709 262.034033 
C 199.421709 263.423282 199.973663 264.755817 200.95601 265.738164 
C 201.938357 266.720511 203.270892 267.272465 204.66014 267.272465 
z
" style="fill:#b9cbff;stroke:#b9cbff;"/>
    <path clip-path="url(#pfae800fb23)" d="M 226.843485 248.434456 
C 228.442233 248.434456 229.975715 247.799267 231.1062 246.668782 
C 232.236685 245.538297 232.871874 244.004815 232.871874 242.406067 
C 232.871874 240.80732 232.236685 239.273838 231.1062 238.143353 
C 229.975715 237.012868 228.442233 236.377679 226.843485 236.377679 
C 225.244738 236.377679 223.711256 237.012868 222.580771 238.143353 
C 221.450286 239.273838 220.815097 240.80732 220.815097 242.406067 
C 220.815097 244.004815 221.450286 245.538297 222.580771 246.668782 
C 223.711256 247.799267 225.244738 248.434456 226.843485 248.434456 
z
" style="fill:#b7c9ff;stroke:#b7c9ff;"/>
    <path clip-path="url(#pfae800fb23)" d="M 252.725051 228.645764 
C 254.5686 228.645764 256.336891 227.913314 257.640478 226.609728 
C 258.944064 225.306141 259.676514 223.53785 259.676514 221.6943 
C 259.676514 219.850751 258.944064 218.08246 257.640478 216.778873 
C 256.336891 215.475287 254.5686 214.742837 252.725051 214.742837 
C 250.881501 214.742837 249.11321 215.475287 247.809623 216.778873 
C 246.506037 218.08246 245.773587 219.850751 245.773587 221.6943 
C 245.773587 223.53785 246.506037 225.306141 247.809623 226.609728 
C 249.11321 227.913314 250.881501 228.645764 252.725051 228.645764 
z
" style="fill:#b3c7ff;stroke:#b3c7ff;"/>
    <path clip-path="url(#pfae800fb23)" d="M 274.681614 213.622616 
C 276.7282 213.622616 278.691238 212.809499 280.138393 211.362344 
C 281.585547 209.91519 282.398664 207.952151 282.398664 205.905566 
C 282.398664 203.858981 281.585547 201.895942 280.138393 200.448788 
C 278.691238 199.001633 276.7282 198.188516 274.681614 198.188516 
C 272.635029 198.188516 270.671991 199.001633 269.224836 200.448788 
C 267.777682 201.895942 266.964565 203.858981 266.964565 205.905566 
C 266.964565 207.952151 267.777682 209.91519 269.224836 211.362344 
C 270.671991 212.809499 272.635029 213.622616 274.681614 213.622616 
z
" style="fill:#b0c4ff;stroke:#b0c4ff;"/>
    <path clip-path="url(#pfae800fb23)" d="M 293.832426 201.539324 
C 296.059091 201.539324 298.194857 200.65466 299.769347 199.080171 
C 301.343837 197.505681 302.2285 195.369914 302.2285 193.14325 
C 302.2285 190.916585 301.343837 188.780818 299.769347 187.206328 
C 298.194857 185.631839 296.059091 184.747175 293.832426 184.747175 
C 291.605761 184.747175 289.469995 185.631839 287.895505 187.206328 
C 286.321015 188.780818 285.436351 190.916585 285.436351 193.14325 
C 285.436351 195.369914 286.321015 197.505681 287.895505 199.080171 
C 289.469995 200.65466 291.605761 201.539324 293.832426 201.539324 
z
" style="fill:#adc1ff;stroke:#adc1ff;"/>
    <path clip-path="url(#pfae800fb23)" d="M 310.436462 191.423051 
C 312.821004 191.423051 315.108202 190.475662 316.794327 188.789537 
C 318.480453 187.103411 319.427841 184.816213 319.427841 182.431672 
C 319.427841 180.04713 318.480453 177.759932 316.794327 176.073807 
C 315.108202 174.387681 312.821004 173.440293 310.436462 173.440293 
C 308.051921 173.440293 305.764723 174.387681 304.078598 176.073807 
C 302.392472 177.759932 301.445084 180.04713 301.445084 182.431672 
C 301.445084 184.816213 302.392472 187.103411 304.078598 188.789537 
C 305.764723 190.475662 308.051921 191.423051 310.436462 191.423051 
z
" style="fill:#aabfff;stroke:#aabfff;"/>
    <path clip-path="url(#pfae800fb23)" d="M 325.479466 182.741728 
C 328.007482 182.741728 330.432298 181.737336 332.219875 179.949759 
C 334.007453 178.162181 335.011844 175.737366 335.011844 173.20935 
C 335.011844 170.681333 334.007453 168.256518 332.219875 166.46894 
C 330.432298 164.681363 328.007482 163.676971 325.479466 163.676971 
C 322.95145 163.676971 320.526634 164.681363 318.739057 166.46894 
C 316.951479 168.256518 315.947088 170.681333 315.947088 173.20935 
C 315.947088 175.737366 316.951479 178.162181 318.739057 179.949759 
C 320.526634 181.737336 322.95145 182.741728 325.479466 182.741728 
z
" style="fill:#a8bdff;stroke:#a8bdff;"/>
    <path clip-path="url(#pfae800fb23)" d="M 338.951001 175.128631 
C 341.608847 175.128631 344.158192 174.072657 346.037573 172.193276 
C 347.916954 170.313895 348.972928 167.76455 348.972928 165.106704 
C 348.972928 162.448858 347.916954 159.899512 346.037573 158.020131 
C 344.158192 156.14075 341.608847 155.084777 338.951001 155.084777 
C 336.293155 155.084777 333.743809 156.14075 331.864428 158.020131 
C 329.985047 159.899512 328.929074 162.448858 328.929074 165.106704 
C 328.929074 167.76455 329.985047 170.313895 331.864428 172.193276 
C 333.743809 174.072657 336.293155 175.128631 338.951001 175.128631 
z
" style="fill:#a7bcff;stroke:#a7bcff;"/>
    <path clip-path="url(#pfae800fb23)" d="M 351.55918 168.380763 
C 354.340685 168.380763 357.008642 167.275659 358.975463 165.308838 
C 360.942284 163.342017 362.047387 160.674061 362.047387 157.892556 
C 362.047387 155.111051 360.942284 152.443095 358.975463 150.476274 
C 357.008642 148.509453 354.340685 147.404349 351.55918 147.404349 
C 348.777675 147.404349 346.109719 148.509453 344.142898 150.476274 
C 342.176077 152.443095 341.070973 155.111051 341.070973 157.892556 
C 341.070973 160.674061 342.176077 163.342017 344.142898 165.308838 
C 346.109719 167.275659 348.777675 168.380763 351.55918 168.380763 
z
" style="fill:#a6bcff;stroke:#a6bcff;"/>
    <path clip-path="url(#pfae800fb23)" d="M 363.079019 162.307522 
C 365.972395 162.307522 368.747655 161.157972 370.793581 159.112046 
C 372.839507 157.066121 373.989057 154.29086 373.989057 151.397484 
C 373.989057 148.504109 372.839507 145.728848 370.793581 143.682923 
C 368.747655 141.636997 365.972395 140.487446 363.079019 140.487446 
C 360.185643 140.487446 357.410383 141.636997 355.364457 143.682923 
C 353.318532 145.728848 352.168981 148.504109 352.168981 151.397484 
C 352.168981 154.29086 353.318532 157.066121 355.364457 159.112046 
C 357.410383 161.157972 360.185643 162.307522 363.079019 162.307522 
z
" style="fill:#a6bbff;stroke:#a6bbff;"/>
    <path clip-path="url(#pfae800fb23)" d="M 373.296892 156.803664 
C 376.295398 156.803664 379.171496 155.612345 381.29176 153.492082 
C 383.412024 151.371818 384.603343 148.495719 384.603343 145.497214 
C 384.603343 142.498708 383.412024 139.622609 381.29176 137.502346 
C 379.171496 135.382082 376.295398 134.190763 373.296892 134.190763 
C 370.298386 134.190763 367.422288 135.382082 365.302024 137.502346 
C 363.18176 139.622609 361.990441 142.498708 361.990441 145.497214 
C 361.990441 148.495719 363.18176 151.371818 365.302024 153.492082 
C 367.422288 155.612345 370.298386 156.803664 373.296892 156.803664 
z
" style="fill:#a5bbff;stroke:#a5bbff;"/>
    <path clip-path="url(#pfae800fb23)" d="M 382.650681 151.768258 
C 385.749205 151.768258 388.721239 150.537202 390.912226 148.346214 
C 393.103213 146.155227 394.33427 143.183193 394.33427 140.084669 
C 394.33427 136.986145 393.103213 134.014112 390.912226 131.823124 
C 388.721239 129.632137 385.749205 128.40108 382.650681 128.40108 
C 379.552157 128.40108 376.580123 129.632137 374.389136 131.823124 
C 372.198149 134.014112 370.967092 136.986145 370.967092 140.084669 
C 370.967092 143.183193 372.198149 146.155227 374.389136 148.346214 
C 376.580123 150.537202 379.552157 151.768258 382.650681 151.768258 
z
" style="fill:#a4baff;stroke:#a4baff;"/>
    <path clip-path="url(#pfae800fb23)" d="M 391.022853 147.095031 
C 394.210938 147.095031 397.268876 145.828392 399.523192 143.574075 
C 401.777509 141.319759 403.044148 138.26182 403.044148 135.073735 
C 403.044148 131.885651 401.777509 128.827712 399.523192 126.573396 
C 397.268876 124.319079 394.210938 123.05244 391.022853 123.05244 
C 387.834768 123.05244 384.77683 124.319079 382.522513 126.573396 
C 380.268197 128.827712 379.001557 131.885651 379.001557 135.073735 
C 379.001557 138.26182 380.268197 141.319759 382.522513 143.574075 
C 384.77683 145.828392 387.834768 147.095031 391.022853 147.095031 
z
" style="fill:#a4baff;stroke:#a4baff;"/>
    <path clip-path="url(#pfae800fb23)" d="M 398.976699 142.767504 
C 402.251273 142.767504 405.39217 141.466502 407.707644 139.151029 
C 410.023117 136.835555 411.32412 133.694658 411.32412 130.420084 
C 411.32412 127.145509 410.023117 124.004612 407.707644 121.689139 
C 405.39217 119.373665 402.251273 118.072663 398.976699 118.072663 
C 395.702125 118.072663 392.561228 119.373665 390.245754 121.689139 
C 387.93028 124.004612 386.629278 127.145509 386.629278 130.420084 
C 386.629278 133.694658 387.93028 136.835555 390.245754 139.151029 
C 392.561228 141.466502 395.702125 142.767504 398.976699 142.767504 
z
" style="fill:#a3baff;stroke:#a3baff;"/>
    <path clip-path="url(#pfae800fb23)" d="M 406.463382 138.74436 
C 409.821955 138.74436 413.043423 137.409984 415.418293 135.035114 
C 417.793163 132.660244 419.127539 129.438776 419.127539 126.080203 
C 419.127539 122.721629 417.793163 119.500162 415.418293 117.125292 
C 413.043423 114.750421 409.821955 113.416046 406.463382 113.416046 
C 403.104808 113.416046 399.883341 114.750421 397.50847 117.125292 
C 395.1336 119.500162 393.799225 122.721629 393.799225 126.080203 
C 393.799225 129.438776 395.1336 132.660244 397.50847 135.035114 
C 399.883341 137.409984 403.104808 138.74436 406.463382 138.74436 
z
" style="fill:#a3b9ff;stroke:#a3b9ff;"/>
    <path clip-path="url(#pfae800fb23)" d="M 413.435682 134.982105 
C 416.875455 134.982105 420.174808 133.615468 422.607095 131.183181 
C 425.039382 128.750894 426.406019 125.451541 426.406019 122.011768 
C 426.406019 118.571994 425.039382 115.272642 422.607095 112.840355 
C 420.174808 110.408068 416.875455 109.041431 413.435682 109.041431 
C 409.995908 109.041431 406.696556 110.408068 404.264269 112.840355 
C 401.831981 115.272642 400.465345 118.571994 400.465345 122.011768 
C 400.465345 125.451541 401.831981 128.750894 404.264269 131.183181 
C 406.696556 133.615468 409.995908 134.982105 413.435682 134.982105 
z
" style="fill:#a2b9ff;stroke:#a2b9ff;"/>
    <path clip-path="url(#pfae800fb23)" d="M 419.130355 131.489296 
C 422.643166 131.489296 426.012575 130.093641 428.496508 127.609708 
C 430.980441 125.125775 432.376095 121.756367 432.376095 118.243555 
C 432.376095 114.730743 430.980441 111.361335 428.496508 108.877402 
C 426.012575 106.393469 422.643166 104.997814 419.130355 104.997814 
C 415.617543 104.997814 412.248134 106.393469 409.764201 108.877402 
C 407.280268 111.361335 405.884614 114.730743 405.884614 118.243555 
C 405.884614 121.756367 407.280268 125.125775 409.764201 127.609708 
C 412.248134 130.093641 415.617543 131.489296 419.130355 131.489296 
z
" style="fill:#a2b9ff;stroke:#a2b9ff;"/>
    <path clip-path="url(#pfae800fb23)" d="M 424.200045 128.20816 
C 427.782287 128.20816 431.218291 126.784921 433.751319 124.251893 
C 436.284346 121.718866 437.707586 118.282861 437.707586 114.70062 
C 437.707586 111.118378 436.284346 107.682373 433.751319 105.149346 
C 431.218291 102.616319 427.782287 101.193079 424.200045 101.193079 
C 420.617803 101.193079 417.181799 102.616319 414.648771 105.149346 
C 412.115744 107.682373 410.692504 111.118378 410.692504 114.70062 
C 410.692504 118.282861 412.115744 121.718866 414.648771 124.251893 
C 417.181799 126.784921 420.617803 128.20816 424.200045 128.20816 
z
" style="fill:#a2b9ff;stroke:#a2b9ff;"/>
    <path clip-path="url(#pfae800fb23)" d="M 429.35205 125.122743 
C 433.002991 125.122743 436.504891 123.672208 439.086496 121.090603 
C 441.668102 118.508998 443.118636 115.007098 443.118636 111.356157 
C 443.118636 107.705215 441.668102 104.203315 439.086496 101.62171 
C 436.504891 99.040105 433.002991 97.58957 429.35205 97.58957 
C 425.701108 97.58957 422.199209 99.040105 419.617603 101.62171 
C 417.035998 104.203315 415.585463 107.705215 415.585463 111.356157 
C 415.585463 115.007098 417.035998 118.508998 419.617603 121.090603 
C 422.199209 123.672208 425.701108 125.122743 429.35205 125.122743 
z
" style="fill:#a1b8ff;stroke:#a1b8ff;"/>
    <path clip-path="url(#pfae800fb23)" d="M 433.834733 122.211467 
C 437.55248 122.211467 441.118458 120.734391 443.747302 118.105547 
C 446.376146 115.476703 447.853223 111.910724 447.853223 108.192977 
C 447.853223 104.47523 446.376146 100.909252 443.747302 98.280408 
C 441.118458 95.651564 437.55248 94.174488 433.834733 94.174488 
C 430.116986 94.174488 426.551008 95.651564 423.922164 98.280408 
C 421.29332 100.909252 419.816243 104.47523 419.816243 108.192977 
C 419.816243 111.910724 421.29332 115.476703 423.922164 118.105547 
C 426.551008 120.734391 430.116986 122.211467 433.834733 122.211467 
z
" style="fill:#a1b8ff;stroke:#a1b8ff;"/>
   </g>
   <g id="PathCollection_2">
    <path clip-path="url(#pfae800fb23)" d="M 118.498712 476.567659 
C 118.729782 476.567659 118.951419 476.475854 119.114811 476.312462 
C 119.278202 476.149071 119.370007 475.927434 119.370007 475.696364 
C 119.370007 475.465293 119.278202 475.243656 119.114811 475.080265 
C 118.951419 474.916874 118.729782 474.825068 118.498712 474.825068 
C 118.267642 474.825068 118.046005 474.916874 117.882613 475.080265 
C 117.719222 475.243656 117.627417 475.465293 117.627417 475.696364 
C 117.627417 475.927434 117.719222 476.149071 117.882613 476.312462 
C 118.046005 476.475854 118.267642 476.567659 118.498712 476.567659 
z
" style="fill:#9b3921;stroke:#9b3921;"/>
    <path clip-path="url(#pfae800fb23)" d="M 118.818721 473.752743 
C 119.055425 473.752743 119.282467 473.6587 119.449842 473.491325 
C 119.617217 473.32395 119.71126 473.096908 119.71126 472.860204 
C 119.71126 472.6235 119.617217 472.396459 119.449842 472.229084 
C 119.282467 472.061709 119.055425 471.967665 118.818721 471.967665 
C 118.582017 471.967665 118.354976 472.061709 118.187601 472.229084 
C 118.020226 472.396459 117.926182 472.6235 117.926182 472.860204 
C 117.926182 473.096908 118.020226 473.32395 118.187601 473.491325 
C 118.354976 473.6587 118.582017 473.752743 118.818721 473.752743 
z
" style="fill:#9f3b22;stroke:#9f3b22;"/>
    <path clip-path="url(#pfae800fb23)" d="M 119.147734 470.938346 
C 119.390209 470.938346 119.622786 470.842009 119.794242 470.670553 
C 119.965698 470.499097 120.062035 470.26652 120.062035 470.024045 
C 120.062035 469.781569 119.965698 469.548992 119.794242 469.377536 
C 119.622786 469.20608 119.390209 469.109744 119.147734 469.109744 
C 118.905258 469.109744 118.672681 469.20608 118.501225 469.377536 
C 118.329769 469.548992 118.233433 469.781569 118.233433 470.024045 
C 118.233433 470.26652 118.329769 470.499097 118.501225 470.670553 
C 118.672681 470.842009 118.905258 470.938346 119.147734 470.938346 
z
" style="fill:#a43d24;stroke:#a43d24;"/>
    <path clip-path="url(#pfae800fb23)" d="M 119.486003 468.124479 
C 119.73439 468.124479 119.972638 468.025793 120.148274 467.850157 
C 120.323911 467.67452 120.422596 467.436273 120.422596 467.187885 
C 120.422596 466.939498 120.323911 466.70125 120.148274 466.525614 
C 119.972638 466.349977 119.73439 466.251292 119.486003 466.251292 
C 119.237615 466.251292 118.999368 466.349977 118.823731 466.525614 
C 118.648095 466.70125 118.549409 466.939498 118.549409 467.187885 
C 118.549409 467.436273 118.648095 467.67452 118.823731 467.850157 
C 118.999368 468.025793 119.237615 468.124479 119.486003 468.124479 
z
" style="fill:#a94025;stroke:#a94025;"/>
    <path clip-path="url(#pfae800fb23)" d="M 119.833789 465.311155 
C 120.088233 465.311155 120.332289 465.210064 120.512208 465.030145 
C 120.692127 464.850226 120.793219 464.60617 120.793219 464.351726 
C 120.793219 464.097282 120.692127 463.853226 120.512208 463.673307 
C 120.332289 463.493388 120.088233 463.392296 119.833789 463.392296 
C 119.579346 463.392296 119.335289 463.493388 119.15537 463.673307 
C 118.975451 463.853226 118.87436 464.097282 118.87436 464.351726 
C 118.87436 464.60617 118.975451 464.850226 119.15537 465.030145 
C 119.335289 465.210064 119.579346 465.311155 119.833789 465.311155 
z
" style="fill:#ae4227;stroke:#ae4227;"/>
    <path clip-path="url(#pfae800fb23)" d="M 120.19136 462.498389 
C 120.452008 462.498389 120.702015 462.394832 120.886321 462.210527 
C 121.070626 462.026221 121.174183 461.776214 121.174183 461.515567 
C 121.174183 461.254919 121.070626 461.004912 120.886321 460.820606 
C 120.702015 460.636301 120.452008 460.532744 120.19136 460.532744 
C 119.930713 460.532744 119.680706 460.636301 119.4964 460.820606 
C 119.312095 461.004912 119.208538 461.254919 119.208538 461.515567 
C 119.208538 461.776214 119.312095 462.026221 119.4964 462.210527 
C 119.680706 462.394832 119.930713 462.498389 120.19136 462.498389 
z
" style="fill:#b34528;stroke:#b34528;"/>
    <path clip-path="url(#pfae800fb23)" d="M 120.558992 459.686193 
C 120.825995 459.686193 121.082097 459.580111 121.270897 459.391312 
C 121.459696 459.202513 121.565777 458.94641 121.565777 458.679407 
C 121.565777 458.412404 121.459696 458.156302 121.270897 457.967502 
C 121.082097 457.778703 120.825995 457.672622 120.558992 457.672622 
C 120.291989 457.672622 120.035886 457.778703 119.847087 457.967502 
C 119.658288 458.156302 119.552206 458.412404 119.552206 458.679407 
C 119.552206 458.94641 119.658288 459.202513 119.847087 459.391312 
C 120.035886 459.580111 120.291989 459.686193 120.558992 459.686193 
z
" style="fill:#b8472a;stroke:#b8472a;"/>
    <path clip-path="url(#pfae800fb23)" d="M 120.936967 456.874581 
C 121.210479 456.874581 121.472826 456.765913 121.666229 456.57251 
C 121.859632 456.379107 121.968299 456.11676 121.968299 455.843248 
C 121.968299 455.569735 121.859632 455.307388 121.666229 455.113985 
C 121.472826 454.920583 121.210479 454.811915 120.936967 454.811915 
C 120.663454 454.811915 120.401107 454.920583 120.207704 455.113985 
C 120.014301 455.307388 119.905634 455.569735 119.905634 455.843248 
C 119.905634 456.11676 120.014301 456.379107 120.207704 456.57251 
C 120.401107 456.765913 120.663454 456.874581 120.936967 456.874581 
z
" style="fill:#be4a2b;stroke:#be4a2b;"/>
    <path clip-path="url(#pfae800fb23)" d="M 121.325575 454.063567 
C 121.605757 454.063567 121.874501 453.95225 122.072619 453.754132 
C 122.270737 453.556013 122.382054 453.28727 122.382054 453.007088 
C 122.382054 452.726907 122.270737 452.458163 122.072619 452.260045 
C 121.874501 452.061927 121.605757 451.950609 121.325575 451.950609 
C 121.045394 451.950609 120.77665 452.061927 120.578532 452.260045 
C 120.380414 452.458163 120.269097 452.726907 120.269097 453.007088 
C 120.269097 453.28727 120.380414 453.556013 120.578532 453.754132 
C 120.77665 453.95225 121.045394 454.063567 121.325575 454.063567 
z
" style="fill:#c34d2d;stroke:#c34d2d;"/>
    <path clip-path="url(#pfae800fb23)" d="M 121.725118 451.253167 
C 122.012131 451.253167 122.287427 451.139135 122.490376 450.936187 
C 122.693324 450.733238 122.807356 450.457942 122.807356 450.170929 
C 122.807356 449.883916 122.693324 449.60862 122.490376 449.405671 
C 122.287427 449.202722 122.012131 449.088691 121.725118 449.088691 
C 121.438105 449.088691 121.162809 449.202722 120.95986 449.405671 
C 120.756911 449.60862 120.64288 449.883916 120.64288 450.170929 
C 120.64288 450.457942 120.756911 450.733238 120.95986 450.936187 
C 121.162809 451.139135 121.438105 451.253167 121.725118 451.253167 
z
" style="fill:#ca502f;stroke:#ca502f;"/>
    <path clip-path="url(#pfae800fb23)" d="M 122.135901 448.443394 
C 122.429912 448.443394 122.71192 448.326583 122.919817 448.118686 
C 123.127714 447.910789 123.244526 447.62878 123.244526 447.334769 
C 123.244526 447.040759 123.127714 446.75875 122.919817 446.550853 
C 122.71192 446.342956 122.429912 446.226144 122.135901 446.226144 
C 121.84189 446.226144 121.559882 446.342956 121.351985 446.550853 
C 121.144088 446.75875 121.027276 447.040759 121.027276 447.334769 
C 121.027276 447.62878 121.144088 447.910789 121.351985 448.118686 
C 121.559882 448.326583 121.84189 448.443394 122.135901 448.443394 
z
" style="fill:#d05331;stroke:#d05331;"/>
    <path clip-path="url(#pfae800fb23)" d="M 122.558242 445.634265 
C 122.859421 445.634265 123.148306 445.514606 123.361272 445.30164 
C 123.574238 445.088674 123.693897 444.799789 123.693897 444.49861 
C 123.693897 444.197431 123.574238 443.908546 123.361272 443.69558 
C 123.148306 443.482614 122.859421 443.362955 122.558242 443.362955 
C 122.257063 443.362955 121.968178 443.482614 121.755212 443.69558 
C 121.542246 443.908546 121.422587 444.197431 121.422587 444.49861 
C 121.422587 444.799789 121.542246 445.088674 121.755212 445.30164 
C 121.968178 445.514606 122.257063 445.634265 122.558242 445.634265 
z
" style="fill:#d65733;stroke:#d65733;"/>
    <path clip-path="url(#pfae800fb23)" d="M 122.992465 442.825795 
C 123.300988 442.825795 123.596916 442.703218 123.815074 442.48506 
C 124.033233 442.266901 124.15581 441.970973 124.15581 441.662451 
C 124.15581 441.353928 124.033233 441.058 123.815074 440.839841 
C 123.596916 440.621683 123.300988 440.499106 122.992465 440.499106 
C 122.683942 440.499106 122.388015 440.621683 122.169856 440.839841 
C 121.951698 441.058 121.82912 441.353928 121.82912 441.662451 
C 121.82912 441.970973 121.951698 442.266901 122.169856 442.48506 
C 122.388015 442.703218 122.683942 442.825795 122.992465 442.825795 
z
" style="fill:#dd5a35;stroke:#dd5a35;"/>
    <path clip-path="url(#pfae800fb23)" d="M 123.438905 440.018001 
C 123.75495 440.018001 124.058093 439.892435 124.281571 439.668957 
C 124.505049 439.445479 124.630615 439.142336 124.630615 438.826291 
C 124.630615 438.510246 124.505049 438.207103 124.281571 437.983625 
C 124.058093 437.760148 123.75495 437.634582 123.438905 437.634582 
C 123.12286 437.634582 122.819717 437.760148 122.596239 437.983625 
C 122.372762 438.207103 122.247195 438.510246 122.247195 438.826291 
C 122.247195 439.142336 122.372762 439.445479 122.596239 439.668957 
C 122.819717 439.892435 123.12286 440.018001 123.438905 440.018001 
z
" style="fill:#e55e37;stroke:#e55e37;"/>
    <path clip-path="url(#pfae800fb23)" d="M 123.897906 437.210898 
C 124.221656 437.210898 124.532191 437.08227 124.761117 436.853344 
C 124.990044 436.624417 125.118671 436.313883 125.118671 435.990132 
C 125.118671 435.666381 124.990044 435.355846 124.761117 435.12692 
C 124.532191 434.897993 124.221656 434.769366 123.897906 434.769366 
C 123.574155 434.769366 123.26362 434.897993 123.034694 435.12692 
C 122.805767 435.355846 122.67714 435.666381 122.67714 435.990132 
C 122.67714 436.313883 122.805767 436.624417 123.034694 436.853344 
C 123.26362 437.08227 123.574155 437.210898 123.897906 437.210898 
z
" style="fill:#ec6239;stroke:#ec6239;"/>
    <path clip-path="url(#pfae800fb23)" d="M 124.36982 434.404503 
C 124.701464 434.404503 125.01957 434.272739 125.254078 434.038231 
C 125.488587 433.803723 125.62035 433.485617 125.62035 433.153972 
C 125.62035 432.822328 125.488587 432.504222 125.254078 432.269714 
C 125.01957 432.035206 124.701464 431.903442 124.36982 431.903442 
C 124.038175 431.903442 123.720069 432.035206 123.485561 432.269714 
C 123.251053 432.504222 123.119289 432.822328 123.119289 433.153972 
C 123.119289 433.485617 123.251053 433.803723 123.485561 434.038231 
C 123.720069 434.272739 124.038175 434.404503 124.36982 434.404503 
z
" style="fill:#f4653c;stroke:#f4653c;"/>
    <path clip-path="url(#pfae800fb23)" d="M 124.855011 431.598834 
C 125.194742 431.598834 125.520604 431.463857 125.76083 431.223631 
C 126.001056 430.983406 126.136032 430.657544 126.136032 430.317813 
C 126.136032 429.978082 126.001056 429.65222 125.76083 429.411994 
C 125.520604 429.171768 125.194742 429.036792 124.855011 429.036792 
C 124.515281 429.036792 124.189419 429.171768 123.949193 429.411994 
C 123.708967 429.65222 123.57399 429.978082 123.57399 430.317813 
C 123.57399 430.657544 123.708967 430.983406 123.949193 431.223631 
C 124.189419 431.463857 124.515281 431.598834 124.855011 431.598834 
z
" style="fill:#fc6a3e;stroke:#fc6a3e;"/>
    <path clip-path="url(#pfae800fb23)" d="M 125.353854 428.793908 
C 125.701868 428.793908 126.035675 428.655641 126.281758 428.409558 
C 126.527841 428.163475 126.666108 427.829667 126.666108 427.481653 
C 126.666108 427.133639 126.527841 426.799832 126.281758 426.553749 
C 126.035675 426.307666 125.701868 426.169399 125.353854 426.169399 
C 125.00584 426.169399 124.672033 426.307666 124.42595 426.553749 
C 124.179866 426.799832 124.041599 427.133639 124.041599 427.481653 
C 124.041599 427.829667 124.179866 428.163475 124.42595 428.409558 
C 124.672033 428.655641 125.00584 428.793908 125.353854 428.793908 
z
" style="fill:#ff6f42;stroke:#ff6f42;"/>
    <path clip-path="url(#pfae800fb23)" d="M 125.866731 425.989744 
C 126.22323 425.989744 126.565176 425.848105 126.817259 425.596022 
C 127.069342 425.343939 127.210981 425.001993 127.210981 424.645494 
C 127.210981 424.288995 127.069342 423.947049 126.817259 423.694966 
C 126.565176 423.442883 126.22323 423.301244 125.866731 423.301244 
C 125.510232 423.301244 125.168286 423.442883 124.916203 423.694966 
C 124.664119 423.947049 124.522481 424.288995 124.522481 424.645494 
C 124.522481 425.001993 124.664119 425.343939 124.916203 425.596022 
C 125.168286 425.848105 125.510232 425.989744 125.866731 425.989744 
z
" style="fill:#ff7546;stroke:#ff7546;"/>
    <path clip-path="url(#pfae800fb23)" d="M 126.394038 423.18636 
C 126.759229 423.18636 127.109512 423.041268 127.367742 422.783039 
C 127.625971 422.524809 127.771063 422.174526 127.771063 421.809335 
C 127.771063 421.444143 127.625971 421.09386 127.367742 420.83563 
C 127.109512 420.577401 126.759229 420.432309 126.394038 420.432309 
C 126.028846 420.432309 125.678563 420.577401 125.420334 420.83563 
C 125.162104 421.09386 125.017012 421.444143 125.017012 421.809335 
C 125.017012 422.174526 125.162104 422.524809 125.420334 422.783039 
C 125.678563 423.041268 126.028846 423.18636 126.394038 423.18636 
z
" style="fill:#ff7c4b;stroke:#ff7c4b;"/>
    <path clip-path="url(#pfae800fb23)" d="M 126.93618 420.383775 
C 127.310276 420.383775 127.6691 420.235146 127.933625 419.97062 
C 128.198151 419.706095 128.34678 419.347271 128.34678 418.973175 
C 128.34678 418.59908 128.198151 418.240256 127.933625 417.97573 
C 127.6691 417.711205 127.310276 417.562575 126.93618 417.562575 
C 126.562085 417.562575 126.203261 417.711205 125.938735 417.97573 
C 125.67421 418.240256 125.52558 418.59908 125.52558 418.973175 
C 125.52558 419.347271 125.67421 419.706095 125.938735 419.97062 
C 126.203261 420.235146 126.562085 420.383775 126.93618 420.383775 
z
" style="fill:#ff8350;stroke:#ff8350;"/>
    <path clip-path="url(#pfae800fb23)" d="M 127.493576 417.582009 
C 127.876793 417.582009 128.244365 417.429756 128.51534 417.15878 
C 128.786316 416.887805 128.938569 416.520232 128.938569 416.137016 
C 128.938569 415.753799 128.786316 415.386226 128.51534 415.115251 
C 128.244365 414.844276 127.876793 414.692022 127.493576 414.692022 
C 127.110359 414.692022 126.742786 414.844276 126.471811 415.115251 
C 126.200836 415.386226 126.048582 415.753799 126.048582 416.137016 
C 126.048582 416.520232 126.200836 416.887805 126.471811 417.15878 
C 126.742786 417.429756 127.110359 417.582009 127.493576 417.582009 
z
" style="fill:#ff8a55;stroke:#ff8a55;"/>
    <path clip-path="url(#pfae800fb23)" d="M 128.066654 414.781082 
C 128.459214 414.781082 128.835749 414.625116 129.113331 414.347534 
C 129.390913 414.069952 129.546879 413.693417 129.546879 413.300856 
C 129.546879 412.908296 129.390913 412.531761 129.113331 412.254179 
C 128.835749 411.976597 128.459214 411.820631 128.066654 411.820631 
C 127.674093 411.820631 127.297558 411.976597 127.019976 412.254179 
C 126.742394 412.531761 126.586428 412.908296 126.586428 413.300856 
C 126.586428 413.693417 126.742394 414.069952 127.019976 414.347534 
C 127.297558 414.625116 127.674093 414.781082 128.066654 414.781082 
z
" style="fill:#ff915a;stroke:#ff915a;"/>
    <path clip-path="url(#pfae800fb23)" d="M 128.655855 411.981013 
C 129.057987 411.981013 129.443702 411.821244 129.728052 411.536894 
C 130.012402 411.252544 130.172171 410.866829 130.172171 410.464697 
C 130.172171 410.062565 130.012402 409.67685 129.728052 409.3925 
C 129.443702 409.10815 129.057987 408.948381 128.655855 408.948381 
C 128.253723 408.948381 127.868008 409.10815 127.583657 409.3925 
C 127.299307 409.67685 127.139539 410.062565 127.139539 410.464697 
C 127.139539 410.866829 127.299307 411.252544 127.583657 411.536894 
C 127.868008 411.821244 128.253723 411.981013 128.655855 411.981013 
z
" style="fill:#ff9960;stroke:#ff9960;"/>
    <path clip-path="url(#pfae800fb23)" d="M 129.261633 409.181824 
C 129.67357 409.181824 130.06869 409.01816 130.359973 408.726877 
C 130.651256 408.435594 130.81492 408.040474 130.81492 407.628537 
C 130.81492 407.216601 130.651256 406.821481 130.359973 406.530198 
C 130.06869 406.238915 129.67357 406.075251 129.261633 406.075251 
C 128.849697 406.075251 128.454577 406.238915 128.163293 406.530198 
C 127.87201 406.821481 127.708346 407.216601 127.708346 407.628537 
C 127.708346 408.040474 127.87201 408.435594 128.163293 408.726877 
C 128.454577 409.01816 128.849697 409.181824 129.261633 409.181824 
z
" style="fill:#ffa165;stroke:#ffa165;"/>
    <path clip-path="url(#pfae800fb23)" d="M 129.884455 406.383537 
C 130.306435 406.383537 130.711189 406.215883 131.009574 405.917497 
C 131.307959 405.619112 131.475614 405.214358 131.475614 404.792378 
C 131.475614 404.370398 131.307959 403.965644 131.009574 403.667259 
C 130.711189 403.368874 130.306435 403.201219 129.884455 403.201219 
C 129.462474 403.201219 129.057721 403.368874 128.759335 403.667259 
C 128.46095 403.965644 128.293296 404.370398 128.293296 404.792378 
C 128.293296 405.214358 128.46095 405.619112 128.759335 405.917497 
C 129.057721 406.215883 129.462474 406.383537 129.884455 406.383537 
z
" style="fill:#ffa96b;stroke:#ffa96b;"/>
    <path clip-path="url(#pfae800fb23)" d="M 130.524799 403.586173 
C 130.957068 403.586173 131.371691 403.414431 131.677351 403.108771 
C 131.983012 402.80311 132.154754 402.388488 132.154754 401.956219 
C 132.154754 401.52395 131.983012 401.109327 131.677351 400.803667 
C 131.371691 400.498006 130.957068 400.326264 130.524799 400.326264 
C 130.09253 400.326264 129.677908 400.498006 129.372248 400.803667 
C 129.066587 401.109327 128.894845 401.52395 128.894845 401.956219 
C 128.894845 402.388488 129.066587 402.80311 129.372248 403.108771 
C 129.677908 403.414431 130.09253 403.586173 130.524799 403.586173 
z
" style="fill:#ffb171;stroke:#ffb171;"/>
    <path clip-path="url(#pfae800fb23)" d="M 131.18316 400.789755 
C 131.625969 400.789755 132.050701 400.613826 132.363814 400.300713 
C 132.676927 399.9876 132.852856 399.562868 132.852856 399.120059 
C 132.852856 398.677251 132.676927 398.252519 132.363814 397.939406 
C 132.050701 397.626293 131.625969 397.450363 131.18316 397.450363 
C 130.740352 397.450363 130.31562 397.626293 130.002507 397.939406 
C 129.689394 398.252519 129.513464 398.677251 129.513464 399.120059 
C 129.513464 399.562868 129.689394 399.9876 130.002507 400.300713 
C 130.31562 400.613826 130.740352 400.789755 131.18316 400.789755 
z
" style="fill:#ffb474;stroke:#ffb474;"/>
    <path clip-path="url(#pfae800fb23)" d="M 131.860044 397.994306 
C 132.313649 397.994306 132.748736 397.814087 133.069484 397.49334 
C 133.390231 397.172593 133.57045 396.737505 133.57045 396.2839 
C 133.57045 395.830295 133.390231 395.395207 133.069484 395.07446 
C 132.748736 394.753712 132.313649 394.573493 131.860044 394.573493 
C 131.406438 394.573493 130.971351 394.753712 130.650603 395.07446 
C 130.329856 395.395207 130.149637 395.830295 130.149637 396.2839 
C 130.149637 396.737505 130.329856 397.172593 130.650603 397.49334 
C 130.971351 397.814087 131.406438 397.994306 131.860044 397.994306 
z
" style="fill:#ffb777;stroke:#ffb777;"/>
    <path clip-path="url(#pfae800fb23)" d="M 132.555971 395.19985 
C 133.020636 395.19985 133.466332 395.015237 133.7949 394.686669 
C 134.123468 394.358101 134.308081 393.912405 134.308081 393.44774 
C 134.308081 392.983075 134.123468 392.537379 133.7949 392.208812 
C 133.466332 391.880244 133.020636 391.695631 132.555971 391.695631 
C 132.091306 391.695631 131.64561 391.880244 131.317042 392.208812 
C 130.988475 392.537379 130.803861 392.983075 130.803861 393.44774 
C 130.803861 393.912405 130.988475 394.358101 131.317042 394.686669 
C 131.64561 395.015237 132.091306 395.19985 132.555971 395.19985 
z
" style="fill:#ffb979;stroke:#ffb979;"/>
    <path clip-path="url(#pfae800fb23)" d="M 133.271478 392.406411 
C 133.747473 392.406411 134.204036 392.217296 134.540615 391.880717 
C 134.877193 391.544138 135.066308 391.087575 135.066308 390.611581 
C 135.066308 390.135587 134.877193 389.679024 134.540615 389.342445 
C 134.204036 389.005866 133.747473 388.816751 133.271478 388.816751 
C 132.795484 388.816751 132.338921 389.005866 132.002342 389.342445 
C 131.665763 389.679024 131.476649 390.135587 131.476649 390.611581 
C 131.476649 391.087575 131.665763 391.544138 132.002342 391.880717 
C 132.338921 392.217296 132.795484 392.406411 133.271478 392.406411 
z
" style="fill:#ffbb7b;stroke:#ffbb7b;"/>
    <path clip-path="url(#pfae800fb23)" d="M 134.007116 389.614013 
C 134.494716 389.614013 134.962411 389.420287 135.307197 389.075502 
C 135.651982 388.730716 135.845707 388.263022 135.845707 387.775422 
C 135.845707 387.287821 135.651982 386.820127 135.307197 386.475341 
C 134.962411 386.130556 134.494716 385.93683 134.007116 385.93683 
C 133.519516 385.93683 133.051821 386.130556 132.707036 386.475341 
C 132.362251 386.820127 132.168525 387.287821 132.168525 387.775422 
C 132.168525 388.263022 132.362251 388.730716 132.707036 389.075502 
C 133.051821 389.420287 133.519516 389.614013 134.007116 389.614013 
z
" style="fill:#ffbb7b;stroke:#ffbb7b;"/>
    <path clip-path="url(#pfae800fb23)" d="M 134.763451 386.822682 
C 135.26294 386.822682 135.742038 386.624233 136.09523 386.271041 
C 136.448422 385.917849 136.646871 385.438751 136.646871 384.939262 
C 136.646871 384.439773 136.448422 383.960675 136.09523 383.607483 
C 135.742038 383.254291 135.26294 383.055842 134.763451 383.055842 
C 134.263962 383.055842 133.784864 383.254291 133.431672 383.607483 
C 133.078481 383.960675 132.880032 384.439773 132.880032 384.939262 
C 132.880032 385.438751 133.078481 385.917849 133.431672 386.271041 
C 133.784864 386.624233 134.263962 386.822682 134.763451 386.822682 
z
" style="fill:#ffbb7b;stroke:#ffbb7b;"/>
    <path clip-path="url(#pfae800fb23)" d="M 135.541065 384.032444 
C 136.052733 384.032444 136.543512 383.829156 136.905316 383.467353 
C 137.267119 383.10555 137.470407 382.61477 137.470407 382.103103 
C 137.470407 381.591435 137.267119 381.100656 136.905316 380.738853 
C 136.543512 380.377049 136.052733 380.173762 135.541065 380.173762 
C 135.029398 380.173762 134.538619 380.377049 134.176815 380.738853 
C 133.815012 381.100656 133.611724 381.591435 133.611724 382.103103 
C 133.611724 382.61477 133.815012 383.10555 134.176815 383.467353 
C 134.538619 383.829156 135.029398 384.032444 135.541065 384.032444 
z
" style="fill:#ffbb7b;stroke:#ffbb7b;"/>
    <path clip-path="url(#pfae800fb23)" d="M 136.340558 381.243326 
C 136.8647 381.243326 137.367446 381.035081 137.738071 380.664457 
C 138.108696 380.293832 138.31694 379.791086 138.31694 379.266943 
C 138.31694 378.742801 138.108696 378.240055 137.738071 377.86943 
C 137.367446 377.498805 136.8647 377.290561 136.340558 377.290561 
C 135.816415 377.290561 135.313669 377.498805 134.943044 377.86943 
C 134.57242 378.240055 134.364175 378.742801 134.364175 379.266943 
C 134.364175 379.791086 134.57242 380.293832 134.943044 380.664457 
C 135.313669 381.035081 135.816415 381.243326 136.340558 381.243326 
z
" style="fill:#ffbc7c;stroke:#ffbc7c;"/>
    <path clip-path="url(#pfae800fb23)" d="M 137.162544 378.455354 
C 137.699466 378.455354 138.21447 378.242033 138.594131 377.862371 
C 138.973792 377.48271 139.187114 376.967706 139.187114 376.430784 
C 139.187114 375.893862 138.973792 375.378858 138.594131 374.999196 
C 138.21447 374.619535 137.699466 374.406213 137.162544 374.406213 
C 136.625621 374.406213 136.110618 374.619535 135.730956 374.999196 
C 135.351295 375.378858 135.137973 375.893862 135.137973 376.430784 
C 135.137973 376.967706 135.351295 377.48271 135.730956 377.862371 
C 136.110618 378.242033 136.625621 378.455354 137.162544 378.455354 
z
" style="fill:#ffbc7d;stroke:#ffbc7d;"/>
    <path clip-path="url(#pfae800fb23)" d="M 138.007656 375.668558 
C 138.557669 375.668558 139.08523 375.450035 139.474148 375.061117 
C 139.863067 374.672198 140.081589 374.144638 140.081589 373.594624 
C 140.081589 373.044611 139.863067 372.51705 139.474148 372.128132 
C 139.08523 371.739214 138.557669 371.520691 138.007656 371.520691 
C 137.457642 371.520691 136.930082 371.739214 136.541163 372.128132 
C 136.152245 372.51705 135.933722 373.044611 135.933722 373.594624 
C 135.933722 374.144638 136.152245 374.672198 136.541163 375.061117 
C 136.930082 375.450035 137.457642 375.668558 138.007656 375.668558 
z
" style="fill:#ffbd7d;stroke:#ffbd7d;"/>
    <path clip-path="url(#pfae800fb23)" d="M 138.876545 372.882965 
C 139.439969 372.882965 139.980393 372.659114 140.378793 372.260713 
C 140.777194 371.862312 141.001045 371.321889 141.001045 370.758465 
C 141.001045 370.195041 140.777194 369.654618 140.378793 369.256217 
C 139.980393 368.857816 139.439969 368.633965 138.876545 368.633965 
C 138.313121 368.633965 137.772698 368.857816 137.374297 369.256217 
C 136.975896 369.654618 136.752045 370.195041 136.752045 370.758465 
C 136.752045 371.321889 136.975896 371.862312 137.374297 372.260713 
C 137.772698 372.659114 138.313121 372.882965 138.876545 372.882965 
z
" style="fill:#ffbd7e;stroke:#ffbd7e;"/>
    <path clip-path="url(#pfae800fb23)" d="M 139.76988 370.098605 
C 140.347042 370.098605 140.900642 369.869296 141.308757 369.461182 
C 141.716871 369.053067 141.94618 368.499467 141.94618 367.922306 
C 141.94618 367.345144 141.716871 366.791544 141.308757 366.383429 
C 140.900642 365.975315 140.347042 365.746006 139.76988 365.746006 
C 139.192719 365.746006 138.639119 365.975315 138.231004 366.383429 
C 137.82289 366.791544 137.593581 367.345144 137.593581 367.922306 
C 137.593581 368.499467 137.82289 369.053067 138.231004 369.461182 
C 138.639119 369.869296 139.192719 370.098605 139.76988 370.098605 
z
" style="fill:#ffbe7f;stroke:#ffbe7f;"/>
    <path clip-path="url(#pfae800fb23)" d="M 140.68835 367.315508 
C 141.279583 367.315508 141.846681 367.080609 142.264747 366.662543 
C 142.682812 366.244478 142.917712 365.67738 142.917712 365.086146 
C 142.917712 364.494912 142.682812 363.927815 142.264747 363.509749 
C 141.846681 363.091684 141.279583 362.856784 140.68835 362.856784 
C 140.097116 362.856784 139.530018 363.091684 139.111953 363.509749 
C 138.693887 363.927815 138.458988 364.494912 138.458988 365.086146 
C 138.458988 365.67738 138.693887 366.244478 139.111953 366.662543 
C 139.530018 367.080609 140.097116 367.315508 140.68835 367.315508 
z
" style="fill:#ffc083;stroke:#ffc083;"/>
    <path clip-path="url(#pfae800fb23)" d="M 141.63266 364.533705 
C 142.238309 364.533705 142.819234 364.293078 143.247492 363.864819 
C 143.675751 363.436561 143.916378 362.855636 143.916378 362.249987 
C 143.916378 361.644338 143.675751 361.063413 143.247492 360.635154 
C 142.819234 360.206895 142.238309 359.966268 141.63266 359.966268 
C 141.02701 359.966268 140.446086 360.206895 140.017827 360.635154 
C 139.589568 361.063413 139.348941 361.644338 139.348941 362.249987 
C 139.348941 362.855636 139.589568 363.436561 140.017827 363.864819 
C 140.446086 364.293078 141.02701 364.533705 141.63266 364.533705 
z
" style="fill:#ffc287;stroke:#ffc287;"/>
    <path clip-path="url(#pfae800fb23)" d="M 142.603538 361.753227 
C 143.223954 361.753227 143.819043 361.506733 144.257743 361.068033 
C 144.696444 360.629332 144.942938 360.034243 144.942938 359.413827 
C 144.942938 358.793411 144.696444 358.198322 144.257743 357.759622 
C 143.819043 357.320921 143.223954 357.074427 142.603538 357.074427 
C 141.983122 357.074427 141.388033 357.320921 140.949332 357.759622 
C 140.510632 358.198322 140.264138 358.793411 140.264138 359.413827 
C 140.264138 360.034243 140.510632 360.629332 140.949332 361.068033 
C 141.388033 361.506733 141.983122 361.753227 142.603538 361.753227 
z
" style="fill:#ffc48b;stroke:#ffc48b;"/>
    <path clip-path="url(#pfae800fb23)" d="M 143.601731 358.974107 
C 144.237274 358.974107 144.846873 358.721603 145.296269 358.272206 
C 145.745666 357.822809 145.99817 357.213211 145.99817 356.577668 
C 145.99817 355.942125 145.745666 355.332526 145.296269 354.88313 
C 144.846873 354.433733 144.237274 354.181229 143.601731 354.181229 
C 142.966188 354.181229 142.35659 354.433733 141.907193 354.88313 
C 141.457796 355.332526 141.205292 355.942125 141.205292 356.577668 
C 141.205292 357.213211 141.457796 357.822809 141.907193 358.272206 
C 142.35659 358.721603 142.966188 358.974107 143.601731 358.974107 
z
" style="fill:#ffc68f;stroke:#ffc68f;"/>
    <path clip-path="url(#pfae800fb23)" d="M 144.628009 356.196377 
C 145.279047 356.196377 145.903509 355.937717 146.363863 355.477363 
C 146.824217 355.017009 147.082878 354.392547 147.082878 353.741508 
C 147.082878 353.09047 146.824217 352.466008 146.363863 352.005654 
C 145.903509 351.5453 145.279047 351.28664 144.628009 351.28664 
C 143.97697 351.28664 143.352508 351.5453 142.892154 352.005654 
C 142.4318 352.466008 142.17314 353.09047 142.17314 353.741508 
C 142.17314 354.392547 142.4318 355.017009 142.892154 355.477363 
C 143.352508 355.937717 143.97697 356.196377 144.628009 356.196377 
z
" style="fill:#ffc996;stroke:#ffc996;"/>
    <path clip-path="url(#pfae800fb23)" d="M 145.68316 353.420073 
C 146.350073 353.420073 146.98976 353.155105 147.461338 352.683527 
C 147.932917 352.211949 148.197884 351.572262 148.197884 350.905349 
C 148.197884 350.238437 147.932917 349.598749 147.461338 349.127171 
C 146.98976 348.655593 146.350073 348.390626 145.68316 348.390626 
C 145.016248 348.390626 144.37656 348.655593 143.904982 349.127171 
C 143.433404 349.598749 143.168437 350.238437 143.168437 350.905349 
C 143.168437 351.572262 143.433404 352.211949 143.904982 352.683527 
C 144.37656 353.155105 145.016248 353.420073 145.68316 353.420073 
z
" style="fill:#ffce9e;stroke:#ffce9e;"/>
    <path clip-path="url(#pfae800fb23)" d="M 146.767998 350.645227 
C 147.451171 350.645227 148.106455 350.3738 148.589532 349.890723 
C 149.072608 349.407647 149.344036 348.752363 149.344036 348.06919 
C 149.344036 347.386017 149.072608 346.730732 148.589532 346.247656 
C 148.106455 345.76458 147.451171 345.493152 146.767998 345.493152 
C 146.084825 345.493152 145.429541 345.76458 144.946465 346.247656 
C 144.463388 346.730732 144.191961 347.386017 144.191961 348.06919 
C 144.191961 348.752363 144.463388 349.407647 144.946465 349.890723 
C 145.429541 350.3738 146.084825 350.645227 146.767998 350.645227 
z
" style="fill:#ffd3a7;stroke:#ffd3a7;"/>
    <path clip-path="url(#pfae800fb23)" d="M 147.883358 347.871877 
C 148.583188 347.871877 149.254449 347.593831 149.749304 347.098976 
C 150.244159 346.604122 150.522204 345.93286 150.522204 345.23303 
C 150.522204 344.5332 150.244159 343.861939 149.749304 343.367084 
C 149.254449 342.872229 148.583188 342.594184 147.883358 342.594184 
C 147.183528 342.594184 146.512267 342.872229 146.017412 343.367084 
C 145.522557 343.861939 145.244512 344.5332 145.244512 345.23303 
C 145.244512 345.93286 145.522557 346.604122 146.017412 347.098976 
C 146.512267 347.593831 147.183528 347.871877 147.883358 347.871877 
z
" style="fill:#ffd8af;stroke:#ffd8af;"/>
    <path clip-path="url(#pfae800fb23)" d="M 149.030098 345.100057 
C 149.746992 345.100057 150.43462 344.815233 150.94154 344.308312 
C 151.44846 343.801392 151.733285 343.113764 151.733285 342.396871 
C 151.733285 341.679977 151.44846 340.992349 150.94154 340.485429 
C 150.43462 339.978509 149.746992 339.693684 149.030098 339.693684 
C 148.313205 339.693684 147.625577 339.978509 147.118657 340.485429 
C 146.611736 340.992349 146.326912 341.679977 146.326912 342.396871 
C 146.326912 343.113764 146.611736 343.801392 147.118657 344.308312 
C 147.625577 344.815233 148.313205 345.100057 149.030098 345.100057 
z
" style="fill:#ffdcb6;stroke:#ffdcb6;"/>
    <path clip-path="url(#pfae800fb23)" d="M 150.209102 342.329807 
C 150.943474 342.329807 151.647868 342.038038 152.167148 341.518758 
C 152.686428 340.999478 152.978197 340.295084 152.978197 339.560711 
C 152.978197 338.826339 152.686428 338.121945 152.167148 337.602665 
C 151.647868 337.083385 150.943474 336.791616 150.209102 336.791616 
C 149.474729 336.791616 148.770335 337.083385 148.251055 337.602665 
C 147.731775 338.121945 147.440006 338.826339 147.440006 339.560711 
C 147.440006 340.295084 147.731775 340.999478 148.251055 341.518758 
C 148.770335 342.038038 149.474729 342.329807 150.209102 342.329807 
z
" style="fill:#ffe0be;stroke:#ffe0be;"/>
    <path clip-path="url(#pfae800fb23)" d="M 151.421276 339.561164 
C 152.173554 339.561164 152.895123 339.26228 153.427064 338.730339 
C 153.959005 338.198398 154.257888 337.47683 154.257888 336.724552 
C 154.257888 335.972274 153.959005 335.250706 153.427064 334.718765 
C 152.895123 334.186824 152.173554 333.88794 151.421276 333.88794 
C 150.668998 333.88794 149.94743 334.186824 149.415489 334.718765 
C 148.883548 335.250706 148.584664 335.972274 148.584664 336.724552 
C 148.584664 337.47683 148.883548 338.198398 149.415489 338.730339 
C 149.94743 339.26228 150.668998 339.561164 151.421276 339.561164 
z
" style="fill:#ffe4c5;stroke:#ffe4c5;"/>
   </g>
   <g id="PathCollection_3">
    <path clip-path="url(#pfae800fb23)" d="M 437.001449 120.835376 
C 440.752881 120.835376 444.351168 119.344917 447.003831 116.692254 
C 449.656494 114.039592 451.146953 110.441304 451.146953 106.689872 
C 451.146953 102.938441 449.656494 99.340153 447.003831 96.687491 
C 444.351168 94.034828 440.752881 92.544368 437.001449 92.544368 
C 433.250018 92.544368 429.65173 94.034828 426.999067 96.687491 
C 424.346405 99.340153 422.855945 102.938441 422.855945 106.689872 
C 422.855945 110.441304 424.346405 114.039592 426.999067 116.692254 
C 429.65173 119.344917 433.250018 120.835376 437.001449 120.835376 
z
" style="fill:#a1b8ff;stroke:#a1b8ff;"/>
    <path clip-path="url(#pfae800fb23)" d="M 458.886071 107.410971 
C 462.956483 107.410971 466.860729 105.793779 469.738944 102.915563 
C 472.61716 100.037348 474.234351 96.133102 474.234351 92.062691 
C 474.234351 87.992279 472.61716 84.088034 469.738944 81.209818 
C 466.860729 78.331603 462.956483 76.714411 458.886071 76.714411 
C 454.81566 76.714411 450.911414 78.331603 448.033199 81.209818 
C 445.154983 84.088034 443.537792 87.992279 443.537792 92.062691 
C 443.537792 96.133102 445.154983 100.037348 448.033199 102.915563 
C 450.911414 105.793779 454.81566 107.410971 458.886071 107.410971 
z
" style="fill:#a0b7ff;stroke:#a0b7ff;"/>
    <path clip-path="url(#pfae800fb23)" d="M 482.222559 94.088835 
C 486.639073 94.088835 490.875292 92.334136 493.998239 89.211189 
C 497.121185 86.088242 498.875885 81.852023 498.875885 77.435509 
C 498.875885 73.018995 497.121185 68.782776 493.998239 65.659829 
C 490.875292 62.536883 486.639073 60.782183 482.222559 60.782183 
C 477.806045 60.782183 473.569826 62.536883 470.446879 65.659829 
C 467.323932 68.782776 465.569233 73.018995 465.569233 77.435509 
C 465.569233 81.852023 467.323932 86.088242 470.446879 89.211189 
C 473.569826 92.334136 477.806045 94.088835 482.222559 94.088835 
z
" style="fill:#9fb6ff;stroke:#9fb6ff;"/>
    <path clip-path="url(#pfae800fb23)" d="M 507.10723 80.877666 
C 511.899275 80.877666 516.495695 78.973767 519.884183 75.58528 
C 523.27267 72.196792 525.176569 67.600372 525.176569 62.808328 
C 525.176569 58.016283 523.27267 53.419863 519.884183 50.031375 
C 516.495695 46.642888 511.899275 44.738989 507.10723 44.738989 
C 502.315186 44.738989 497.718766 46.642888 494.330278 50.031375 
C 490.941791 53.419863 489.037892 58.016283 489.037892 62.808328 
C 489.037892 67.600372 490.941791 72.196792 494.330278 75.58528 
C 497.718766 78.973767 502.315186 80.877666 507.10723 80.877666 
z
" style="fill:#9db4ff;stroke:#9db4ff;"/>
    <path clip-path="url(#pfae800fb23)" d="M 533.642796 67.7869 
C 538.842302 67.7869 543.829551 65.721114 547.506157 62.044507 
C 551.182764 58.367901 553.24855 53.380653 553.24855 48.181146 
C 553.24855 42.981639 551.182764 37.994391 547.506157 34.317784 
C 543.829551 30.641178 538.842302 28.575392 533.642796 28.575392 
C 528.443289 28.575392 523.456041 30.641178 519.779434 34.317784 
C 516.102828 37.994391 514.037042 42.981639 514.037042 48.181146 
C 514.037042 53.380653 516.102828 58.367901 519.779434 62.044507 
C 523.456041 65.721114 528.443289 67.7869 533.642796 67.7869 
z
" style="fill:#9cb3ff;stroke:#9cb3ff;"/>
   </g>
   <g id="matplotlib.axis_1">
    <g id="xtick_1">
     <g id="line2d_1">
      <defs>
       <path d="M 0 0 
L 0 3.5 
" id="m96b20078b0" style="stroke:#000000;stroke-width:0.8;"/>
      </defs>
      <g>
       <use style="stroke:#000000;stroke-width:0.8;" x="107.124572" xlink:href="#m96b20078b0" y="497.32"/>
      </g>
     </g>
     <g id="text_1">
      <!-- 0 -->
      <defs>
       <path d="M 31.78125 66.40625 
Q 24.171875 66.40625 20.328125 58.90625 
Q 16.5 51.421875 16.5 36.375 
Q 16.5 21.390625 20.328125 13.890625 
Q 24.171875 6.390625 31.78125 6.390625 
Q 39.453125 6.390625 43.28125 13.890625 
Q 47.125 21.390625 47.125 36.375 
Q 47.125 51.421875 43.28125 58.90625 
Q 39.453125 66.40625 31.78125 66.40625 
z
M 31.78125 74.21875 
Q 44.046875 74.21875 50.515625 64.515625 
Q 56.984375 54.828125 56.984375 36.375 
Q 56.984375 17.96875 50.515625 8.265625 
Q 44.046875 -1.421875 31.78125 -1.421875 
Q 19.53125 -1.421875 13.0625 8.265625 
Q 6.59375 17.96875 6.59375 36.375 
Q 6.59375 54.828125 13.0625 64.515625 
Q 19.53125 74.21875 31.78125 74.21875 
z
" id="DejaVuSans-48"/>
      </defs>
      <g transform="translate(100.762072 519.516875)scale(0.2 -0.2)">
       <use xlink:href="#DejaVuSans-48"/>
      </g>
     </g>
    </g>
    <g id="xtick_2">
     <g id="line2d_2">
      <g>
       <use style="stroke:#000000;stroke-width:0.8;" x="198.150016" xlink:href="#m96b20078b0" y="497.32"/>
      </g>
     </g>
     <g id="text_2">
      <!-- 10000 -->
      <defs>
       <path d="M 12.40625 8.296875 
L 28.515625 8.296875 
L 28.515625 63.921875 
L 10.984375 60.40625 
L 10.984375 69.390625 
L 28.421875 72.90625 
L 38.28125 72.90625 
L 38.28125 8.296875 
L 54.390625 8.296875 
L 54.390625 0 
L 12.40625 0 
z
" id="DejaVuSans-49"/>
      </defs>
      <g transform="translate(166.337516 519.516875)scale(0.2 -0.2)">
       <use xlink:href="#DejaVuSans-49"/>
       <use x="63.623047" xlink:href="#DejaVuSans-48"/>
       <use x="127.246094" xlink:href="#DejaVuSans-48"/>
       <use x="190.869141" xlink:href="#DejaVuSans-48"/>
       <use x="254.492188" xlink:href="#DejaVuSans-48"/>
      </g>
     </g>
    </g>
    <g id="xtick_3">
     <g id="line2d_3">
      <g>
       <use style="stroke:#000000;stroke-width:0.8;" x="289.175461" xlink:href="#m96b20078b0" y="497.32"/>
      </g>
     </g>
     <g id="text_3">
      <!-- 20000 -->
      <defs>
       <path d="M 19.1875 8.296875 
L 53.609375 8.296875 
L 53.609375 0 
L 7.328125 0 
L 7.328125 8.296875 
Q 12.9375 14.109375 22.625 23.890625 
Q 32.328125 33.6875 34.8125 36.53125 
Q 39.546875 41.84375 41.421875 45.53125 
Q 43.3125 49.21875 43.3125 52.78125 
Q 43.3125 58.59375 39.234375 62.25 
Q 35.15625 65.921875 28.609375 65.921875 
Q 23.96875 65.921875 18.8125 64.3125 
Q 13.671875 62.703125 7.8125 59.421875 
L 7.8125 69.390625 
Q 13.765625 71.78125 18.9375 73 
Q 24.125 74.21875 28.421875 74.21875 
Q 39.75 74.21875 46.484375 68.546875 
Q 53.21875 62.890625 53.21875 53.421875 
Q 53.21875 48.921875 51.53125 44.890625 
Q 49.859375 40.875 45.40625 35.40625 
Q 44.1875 33.984375 37.640625 27.21875 
Q 31.109375 20.453125 19.1875 8.296875 
z
" id="DejaVuSans-50"/>
      </defs>
      <g transform="translate(257.362961 519.516875)scale(0.2 -0.2)">
       <use xlink:href="#DejaVuSans-50"/>
       <use x="63.623047" xlink:href="#DejaVuSans-48"/>
       <use x="127.246094" xlink:href="#DejaVuSans-48"/>
       <use x="190.869141" xlink:href="#DejaVuSans-48"/>
       <use x="254.492188" xlink:href="#DejaVuSans-48"/>
      </g>
     </g>
    </g>
    <g id="xtick_4">
     <g id="line2d_4">
      <g>
       <use style="stroke:#000000;stroke-width:0.8;" x="380.200905" xlink:href="#m96b20078b0" y="497.32"/>
      </g>
     </g>
     <g id="text_4">
      <!-- 30000 -->
      <defs>
       <path d="M 40.578125 39.3125 
Q 47.65625 37.796875 51.625 33 
Q 55.609375 28.21875 55.609375 21.1875 
Q 55.609375 10.40625 48.1875 4.484375 
Q 40.765625 -1.421875 27.09375 -1.421875 
Q 22.515625 -1.421875 17.65625 -0.515625 
Q 12.796875 0.390625 7.625 2.203125 
L 7.625 11.71875 
Q 11.71875 9.328125 16.59375 8.109375 
Q 21.484375 6.890625 26.8125 6.890625 
Q 36.078125 6.890625 40.9375 10.546875 
Q 45.796875 14.203125 45.796875 21.1875 
Q 45.796875 27.640625 41.28125 31.265625 
Q 36.765625 34.90625 28.71875 34.90625 
L 20.21875 34.90625 
L 20.21875 43.015625 
L 29.109375 43.015625 
Q 36.375 43.015625 40.234375 45.921875 
Q 44.09375 48.828125 44.09375 54.296875 
Q 44.09375 59.90625 40.109375 62.90625 
Q 36.140625 65.921875 28.71875 65.921875 
Q 24.65625 65.921875 20.015625 65.03125 
Q 15.375 64.15625 9.8125 62.3125 
L 9.8125 71.09375 
Q 15.4375 72.65625 20.34375 73.4375 
Q 25.25 74.21875 29.59375 74.21875 
Q 40.828125 74.21875 47.359375 69.109375 
Q 53.90625 64.015625 53.90625 55.328125 
Q 53.90625 49.265625 50.4375 45.09375 
Q 46.96875 40.921875 40.578125 39.3125 
z
" id="DejaVuSans-51"/>
      </defs>
      <g transform="translate(348.388405 519.516875)scale(0.2 -0.2)">
       <use xlink:href="#DejaVuSans-51"/>
       <use x="63.623047" xlink:href="#DejaVuSans-48"/>
       <use x="127.246094" xlink:href="#DejaVuSans-48"/>
       <use x="190.869141" xlink:href="#DejaVuSans-48"/>
       <use x="254.492188" xlink:href="#DejaVuSans-48"/>
      </g>
     </g>
    </g>
    <g id="xtick_5">
     <g id="line2d_5">
      <g>
       <use style="stroke:#000000;stroke-width:0.8;" x="471.22635" xlink:href="#m96b20078b0" y="497.32"/>
      </g>
     </g>
     <g id="text_5">
      <!-- 40000 -->
      <defs>
       <path d="M 37.796875 64.3125 
L 12.890625 25.390625 
L 37.796875 25.390625 
z
M 35.203125 72.90625 
L 47.609375 72.90625 
L 47.609375 25.390625 
L 58.015625 25.390625 
L 58.015625 17.1875 
L 47.609375 17.1875 
L 47.609375 0 
L 37.796875 0 
L 37.796875 17.1875 
L 4.890625 17.1875 
L 4.890625 26.703125 
z
" id="DejaVuSans-52"/>
      </defs>
      <g transform="translate(439.41385 519.516875)scale(0.2 -0.2)">
       <use xlink:href="#DejaVuSans-52"/>
       <use x="63.623047" xlink:href="#DejaVuSans-48"/>
       <use x="127.246094" xlink:href="#DejaVuSans-48"/>
       <use x="190.869141" xlink:href="#DejaVuSans-48"/>
       <use x="254.492188" xlink:href="#DejaVuSans-48"/>
      </g>
     </g>
    </g>
    <g id="text_6">
     <!-- Temperature -->
     <defs>
      <path d="M -0.296875 72.90625 
L 61.375 72.90625 
L 61.375 64.59375 
L 35.5 64.59375 
L 35.5 0 
L 25.59375 0 
L 25.59375 64.59375 
L -0.296875 64.59375 
z
" id="DejaVuSans-84"/>
      <path d="M 56.203125 29.59375 
L 56.203125 25.203125 
L 14.890625 25.203125 
Q 15.484375 15.921875 20.484375 11.0625 
Q 25.484375 6.203125 34.421875 6.203125 
Q 39.59375 6.203125 44.453125 7.46875 
Q 49.3125 8.734375 54.109375 11.28125 
L 54.109375 2.78125 
Q 49.265625 0.734375 44.1875 -0.34375 
Q 39.109375 -1.421875 33.890625 -1.421875 
Q 20.796875 -1.421875 13.15625 6.1875 
Q 5.515625 13.8125 5.515625 26.8125 
Q 5.515625 40.234375 12.765625 48.109375 
Q 20.015625 56 32.328125 56 
Q 43.359375 56 49.78125 48.890625 
Q 56.203125 41.796875 56.203125 29.59375 
z
M 47.21875 32.234375 
Q 47.125 39.59375 43.09375 43.984375 
Q 39.0625 48.390625 32.421875 48.390625 
Q 24.90625 48.390625 20.390625 44.140625 
Q 15.875 39.890625 15.1875 32.171875 
z
" id="DejaVuSans-101"/>
      <path d="M 52 44.1875 
Q 55.375 50.25 60.0625 53.125 
Q 64.75 56 71.09375 56 
Q 79.640625 56 84.28125 50.015625 
Q 88.921875 44.046875 88.921875 33.015625 
L 88.921875 0 
L 79.890625 0 
L 79.890625 32.71875 
Q 79.890625 40.578125 77.09375 44.375 
Q 74.3125 48.1875 68.609375 48.1875 
Q 61.625 48.1875 57.5625 43.546875 
Q 53.515625 38.921875 53.515625 30.90625 
L 53.515625 0 
L 44.484375 0 
L 44.484375 32.71875 
Q 44.484375 40.625 41.703125 44.40625 
Q 38.921875 48.1875 33.109375 48.1875 
Q 26.21875 48.1875 22.15625 43.53125 
Q 18.109375 38.875 18.109375 30.90625 
L 18.109375 0 
L 9.078125 0 
L 9.078125 54.6875 
L 18.109375 54.6875 
L 18.109375 46.1875 
Q 21.1875 51.21875 25.484375 53.609375 
Q 29.78125 56 35.6875 56 
Q 41.65625 56 45.828125 52.96875 
Q 50 49.953125 52 44.1875 
z
" id="DejaVuSans-109"/>
      <path d="M 18.109375 8.203125 
L 18.109375 -20.796875 
L 9.078125 -20.796875 
L 9.078125 54.6875 
L 18.109375 54.6875 
L 18.109375 46.390625 
Q 20.953125 51.265625 25.265625 53.625 
Q 29.59375 56 35.59375 56 
Q 45.5625 56 51.78125 48.09375 
Q 58.015625 40.1875 58.015625 27.296875 
Q 58.015625 14.40625 51.78125 6.484375 
Q 45.5625 -1.421875 35.59375 -1.421875 
Q 29.59375 -1.421875 25.265625 0.953125 
Q 20.953125 3.328125 18.109375 8.203125 
z
M 48.6875 27.296875 
Q 48.6875 37.203125 44.609375 42.84375 
Q 40.53125 48.484375 33.40625 48.484375 
Q 26.265625 48.484375 22.1875 42.84375 
Q 18.109375 37.203125 18.109375 27.296875 
Q 18.109375 17.390625 22.1875 11.75 
Q 26.265625 6.109375 33.40625 6.109375 
Q 40.53125 6.109375 44.609375 11.75 
Q 48.6875 17.390625 48.6875 27.296875 
z
" id="DejaVuSans-112"/>
      <path d="M 41.109375 46.296875 
Q 39.59375 47.171875 37.8125 47.578125 
Q 36.03125 48 33.890625 48 
Q 26.265625 48 22.1875 43.046875 
Q 18.109375 38.09375 18.109375 28.8125 
L 18.109375 0 
L 9.078125 0 
L 9.078125 54.6875 
L 18.109375 54.6875 
L 18.109375 46.1875 
Q 20.953125 51.171875 25.484375 53.578125 
Q 30.03125 56 36.53125 56 
Q 37.453125 56 38.578125 55.875 
Q 39.703125 55.765625 41.0625 55.515625 
z
" id="DejaVuSans-114"/>
      <path d="M 34.28125 27.484375 
Q 23.390625 27.484375 19.1875 25 
Q 14.984375 22.515625 14.984375 16.5 
Q 14.984375 11.71875 18.140625 8.90625 
Q 21.296875 6.109375 26.703125 6.109375 
Q 34.1875 6.109375 38.703125 11.40625 
Q 43.21875 16.703125 43.21875 25.484375 
L 43.21875 27.484375 
z
M 52.203125 31.203125 
L 52.203125 0 
L 43.21875 0 
L 43.21875 8.296875 
Q 40.140625 3.328125 35.546875 0.953125 
Q 30.953125 -1.421875 24.3125 -1.421875 
Q 15.921875 -1.421875 10.953125 3.296875 
Q 6 8.015625 6 15.921875 
Q 6 25.140625 12.171875 29.828125 
Q 18.359375 34.515625 30.609375 34.515625 
L 43.21875 34.515625 
L 43.21875 35.40625 
Q 43.21875 41.609375 39.140625 45 
Q 35.0625 48.390625 27.6875 48.390625 
Q 23 48.390625 18.546875 47.265625 
Q 14.109375 46.140625 10.015625 43.890625 
L 10.015625 52.203125 
Q 14.9375 54.109375 19.578125 55.046875 
Q 24.21875 56 28.609375 56 
Q 40.484375 56 46.34375 49.84375 
Q 52.203125 43.703125 52.203125 31.203125 
z
" id="DejaVuSans-97"/>
      <path d="M 18.3125 70.21875 
L 18.3125 54.6875 
L 36.8125 54.6875 
L 36.8125 47.703125 
L 18.3125 47.703125 
L 18.3125 18.015625 
Q 18.3125 11.328125 20.140625 9.421875 
Q 21.96875 7.515625 27.59375 7.515625 
L 36.8125 7.515625 
L 36.8125 0 
L 27.59375 0 
Q 17.1875 0 13.234375 3.875 
Q 9.28125 7.765625 9.28125 18.015625 
L 9.28125 47.703125 
L 2.6875 47.703125 
L 2.6875 54.6875 
L 9.28125 54.6875 
L 9.28125 70.21875 
z
" id="DejaVuSans-116"/>
      <path d="M 8.5 21.578125 
L 8.5 54.6875 
L 17.484375 54.6875 
L 17.484375 21.921875 
Q 17.484375 14.15625 20.5 10.265625 
Q 23.53125 6.390625 29.59375 6.390625 
Q 36.859375 6.390625 41.078125 11.03125 
Q 45.3125 15.671875 45.3125 23.6875 
L 45.3125 54.6875 
L 54.296875 54.6875 
L 54.296875 0 
L 45.3125 0 
L 45.3125 8.40625 
Q 42.046875 3.421875 37.71875 1 
Q 33.40625 -1.421875 27.6875 -1.421875 
Q 18.265625 -1.421875 13.375 4.4375 
Q 8.5 10.296875 8.5 21.578125 
z
M 31.109375 56 
z
" id="DejaVuSans-117"/>
     </defs>
     <g transform="translate(262.731691 542.873125)scale(0.2 -0.2)">
      <use xlink:href="#DejaVuSans-84"/>
      <use x="44.083984" xlink:href="#DejaVuSans-101"/>
      <use x="105.607422" xlink:href="#DejaVuSans-109"/>
      <use x="203.019531" xlink:href="#DejaVuSans-112"/>
      <use x="266.496094" xlink:href="#DejaVuSans-101"/>
      <use x="328.019531" xlink:href="#DejaVuSans-114"/>
      <use x="369.132812" xlink:href="#DejaVuSans-97"/>
      <use x="430.412109" xlink:href="#DejaVuSans-116"/>
      <use x="469.621094" xlink:href="#DejaVuSans-117"/>
      <use x="533" xlink:href="#DejaVuSans-114"/>
      <use x="571.863281" xlink:href="#DejaVuSans-101"/>
     </g>
    </g>
   </g>
   <g id="matplotlib.axis_2">
    <g id="ytick_1">
     <g id="line2d_6">
      <defs>
       <path d="M 0 0 
L -3.5 0 
" id="me28e58586d" style="stroke:#000000;stroke-width:0.8;"/>
      </defs>
      <g>
       <use style="stroke:#000000;stroke-width:0.8;" x="97.741508" xlink:href="#me28e58586d" y="475.696364"/>
      </g>
     </g>
     <g id="text_7">
      <!-- $\mathdefault{10^{-1}}$ -->
      <defs>
       <path d="M 10.59375 35.5 
L 73.1875 35.5 
L 73.1875 27.203125 
L 10.59375 27.203125 
z
" id="DejaVuSans-8722"/>
      </defs>
      <g transform="translate(43.741508 483.294801)scale(0.2 -0.2)">
       <use transform="translate(0 0.684375)" xlink:href="#DejaVuSans-49"/>
       <use transform="translate(63.623047 0.684375)" xlink:href="#DejaVuSans-48"/>
       <use transform="translate(128.203125 38.965625)scale(0.7)" xlink:href="#DejaVuSans-8722"/>
       <use transform="translate(186.855469 38.965625)scale(0.7)" xlink:href="#DejaVuSans-49"/>
      </g>
     </g>
    </g>
    <g id="ytick_2">
     <g id="line2d_7">
      <g>
       <use style="stroke:#000000;stroke-width:0.8;" x="97.741508" xlink:href="#me28e58586d" y="321.811575"/>
      </g>
     </g>
     <g id="text_8">
      <!-- $\mathdefault{10^{0}}$ -->
      <g transform="translate(55.541508 329.410013)scale(0.2 -0.2)">
       <use transform="translate(0 0.765625)" xlink:href="#DejaVuSans-49"/>
       <use transform="translate(63.623047 0.765625)" xlink:href="#DejaVuSans-48"/>
       <use transform="translate(128.203125 39.046875)scale(0.7)" xlink:href="#DejaVuSans-48"/>
      </g>
     </g>
    </g>
    <g id="ytick_3">
     <g id="line2d_8">
      <g>
       <use style="stroke:#000000;stroke-width:0.8;" x="97.741508" xlink:href="#me28e58586d" y="167.926787"/>
      </g>
     </g>
     <g id="text_9">
      <!-- $\mathdefault{10^{1}}$ -->
      <g transform="translate(55.541508 175.525224)scale(0.2 -0.2)">
       <use transform="translate(0 0.684375)" xlink:href="#DejaVuSans-49"/>
       <use transform="translate(63.623047 0.684375)" xlink:href="#DejaVuSans-48"/>
       <use transform="translate(128.203125 38.965625)scale(0.7)" xlink:href="#DejaVuSans-49"/>
      </g>
     </g>
    </g>
    <g id="ytick_4">
     <g id="line2d_9">
      <defs>
       <path d="M 0 0 
L -2 0 
" id="mfd4baec563" style="stroke:#000000;stroke-width:0.6;"/>
      </defs>
      <g>
       <use style="stroke:#000000;stroke-width:0.6;" x="97.741508" xlink:href="#mfd4baec563" y="490.60934"/>
      </g>
     </g>
    </g>
    <g id="ytick_5">
     <g id="line2d_10">
      <g>
       <use style="stroke:#000000;stroke-width:0.6;" x="97.741508" xlink:href="#mfd4baec563" y="482.737745"/>
      </g>
     </g>
    </g>
    <g id="ytick_6">
     <g id="line2d_11">
      <g>
       <use style="stroke:#000000;stroke-width:0.6;" x="97.741508" xlink:href="#mfd4baec563" y="429.372426"/>
      </g>
     </g>
    </g>
    <g id="ytick_7">
     <g id="line2d_12">
      <g>
       <use style="stroke:#000000;stroke-width:0.6;" x="97.741508" xlink:href="#mfd4baec563" y="402.27466"/>
      </g>
     </g>
    </g>
    <g id="ytick_8">
     <g id="line2d_13">
      <g>
       <use style="stroke:#000000;stroke-width:0.6;" x="97.741508" xlink:href="#mfd4baec563" y="383.048489"/>
      </g>
     </g>
    </g>
    <g id="ytick_9">
     <g id="line2d_14">
      <g>
       <use style="stroke:#000000;stroke-width:0.6;" x="97.741508" xlink:href="#mfd4baec563" y="368.135512"/>
      </g>
     </g>
    </g>
    <g id="ytick_10">
     <g id="line2d_15">
      <g>
       <use style="stroke:#000000;stroke-width:0.6;" x="97.741508" xlink:href="#mfd4baec563" y="355.950723"/>
      </g>
     </g>
    </g>
    <g id="ytick_11">
     <g id="line2d_16">
      <g>
       <use style="stroke:#000000;stroke-width:0.6;" x="97.741508" xlink:href="#mfd4baec563" y="345.64863"/>
      </g>
     </g>
    </g>
    <g id="ytick_12">
     <g id="line2d_17">
      <g>
       <use style="stroke:#000000;stroke-width:0.6;" x="97.741508" xlink:href="#mfd4baec563" y="336.724552"/>
      </g>
     </g>
    </g>
    <g id="ytick_13">
     <g id="line2d_18">
      <g>
       <use style="stroke:#000000;stroke-width:0.6;" x="97.741508" xlink:href="#mfd4baec563" y="328.852957"/>
      </g>
     </g>
    </g>
    <g id="ytick_14">
     <g id="line2d_19">
      <g>
       <use style="stroke:#000000;stroke-width:0.6;" x="97.741508" xlink:href="#mfd4baec563" y="275.487638"/>
      </g>
     </g>
    </g>
    <g id="ytick_15">
     <g id="line2d_20">
      <g>
       <use style="stroke:#000000;stroke-width:0.6;" x="97.741508" xlink:href="#mfd4baec563" y="248.389872"/>
      </g>
     </g>
    </g>
    <g id="ytick_16">
     <g id="line2d_21">
      <g>
       <use style="stroke:#000000;stroke-width:0.6;" x="97.741508" xlink:href="#mfd4baec563" y="229.163701"/>
      </g>
     </g>
    </g>
    <g id="ytick_17">
     <g id="line2d_22">
      <g>
       <use style="stroke:#000000;stroke-width:0.6;" x="97.741508" xlink:href="#mfd4baec563" y="214.250724"/>
      </g>
     </g>
    </g>
    <g id="ytick_18">
     <g id="line2d_23">
      <g>
       <use style="stroke:#000000;stroke-width:0.6;" x="97.741508" xlink:href="#mfd4baec563" y="202.065934"/>
      </g>
     </g>
    </g>
    <g id="ytick_19">
     <g id="line2d_24">
      <g>
       <use style="stroke:#000000;stroke-width:0.6;" x="97.741508" xlink:href="#mfd4baec563" y="191.763842"/>
      </g>
     </g>
    </g>
    <g id="ytick_20">
     <g id="line2d_25">
      <g>
       <use style="stroke:#000000;stroke-width:0.6;" x="97.741508" xlink:href="#mfd4baec563" y="182.839763"/>
      </g>
     </g>
    </g>
    <g id="ytick_21">
     <g id="line2d_26">
      <g>
       <use style="stroke:#000000;stroke-width:0.6;" x="97.741508" xlink:href="#mfd4baec563" y="174.968168"/>
      </g>
     </g>
    </g>
    <g id="ytick_22">
     <g id="line2d_27">
      <g>
       <use style="stroke:#000000;stroke-width:0.6;" x="97.741508" xlink:href="#mfd4baec563" y="121.602849"/>
      </g>
     </g>
    </g>
    <g id="ytick_23">
     <g id="line2d_28">
      <g>
       <use style="stroke:#000000;stroke-width:0.6;" x="97.741508" xlink:href="#mfd4baec563" y="94.505083"/>
      </g>
     </g>
    </g>
    <g id="ytick_24">
     <g id="line2d_29">
      <g>
       <use style="stroke:#000000;stroke-width:0.6;" x="97.741508" xlink:href="#mfd4baec563" y="75.278912"/>
      </g>
     </g>
    </g>
    <g id="ytick_25">
     <g id="line2d_30">
      <g>
       <use style="stroke:#000000;stroke-width:0.6;" x="97.741508" xlink:href="#mfd4baec563" y="60.365935"/>
      </g>
     </g>
    </g>
    <g id="ytick_26">
     <g id="line2d_31">
      <g>
       <use style="stroke:#000000;stroke-width:0.6;" x="97.741508" xlink:href="#mfd4baec563" y="48.181146"/>
      </g>
     </g>
    </g>
    <g id="ytick_27">
     <g id="line2d_32">
      <g>
       <use style="stroke:#000000;stroke-width:0.6;" x="97.741508" xlink:href="#mfd4baec563" y="37.879053"/>
      </g>
     </g>
    </g>
    <g id="ytick_28">
     <g id="line2d_33">
      <g>
       <use style="stroke:#000000;stroke-width:0.6;" x="97.741508" xlink:href="#mfd4baec563" y="28.954975"/>
      </g>
     </g>
    </g>
    <g id="text_10">
     <!-- Mass -->
     <defs>
      <path d="M 9.8125 72.90625 
L 24.515625 72.90625 
L 43.109375 23.296875 
L 61.8125 72.90625 
L 76.515625 72.90625 
L 76.515625 0 
L 66.890625 0 
L 66.890625 64.015625 
L 48.09375 14.015625 
L 38.1875 14.015625 
L 19.390625 64.015625 
L 19.390625 0 
L 9.8125 0 
z
" id="DejaVuSans-77"/>
      <path d="M 44.28125 53.078125 
L 44.28125 44.578125 
Q 40.484375 46.53125 36.375 47.5 
Q 32.28125 48.484375 27.875 48.484375 
Q 21.1875 48.484375 17.84375 46.4375 
Q 14.5 44.390625 14.5 40.28125 
Q 14.5 37.15625 16.890625 35.375 
Q 19.28125 33.59375 26.515625 31.984375 
L 29.59375 31.296875 
Q 39.15625 29.25 43.1875 25.515625 
Q 47.21875 21.78125 47.21875 15.09375 
Q 47.21875 7.46875 41.1875 3.015625 
Q 35.15625 -1.421875 24.609375 -1.421875 
Q 20.21875 -1.421875 15.453125 -0.5625 
Q 10.6875 0.296875 5.421875 2 
L 5.421875 11.28125 
Q 10.40625 8.6875 15.234375 7.390625 
Q 20.0625 6.109375 24.8125 6.109375 
Q 31.15625 6.109375 34.5625 8.28125 
Q 37.984375 10.453125 37.984375 14.40625 
Q 37.984375 18.0625 35.515625 20.015625 
Q 33.0625 21.96875 24.703125 23.78125 
L 21.578125 24.515625 
Q 13.234375 26.265625 9.515625 29.90625 
Q 5.8125 33.546875 5.8125 39.890625 
Q 5.8125 47.609375 11.28125 51.796875 
Q 16.75 56 26.8125 56 
Q 31.78125 56 36.171875 55.265625 
Q 40.578125 54.546875 44.28125 53.078125 
z
" id="DejaVuSans-115"/>
     </defs>
     <g transform="translate(35.582133 284.635)rotate(-90)scale(0.2 -0.2)">
      <use xlink:href="#DejaVuSans-77"/>
      <use x="86.279297" xlink:href="#DejaVuSans-97"/>
      <use x="147.558594" xlink:href="#DejaVuSans-115"/>
      <use x="199.658203" xlink:href="#DejaVuSans-115"/>
     </g>
    </g>
   </g>
   <g id="line2d_34">
    <path clip-path="url(#pfae800fb23)" d="M 118.498712 43.223636 
L 533.642796 43.223636 
" style="fill:none;stroke:#000000;stroke-dasharray:5.55,2.4;stroke-dashoffset:0;stroke-width:1.5;"/>
   </g>
   <g id="line2d_35">
    <path clip-path="url(#pfae800fb23)" d="M 118.498712 125.510938 
L 533.642796 125.510938 
" style="fill:none;stroke:#000000;stroke-dasharray:5.55,2.4;stroke-dashoffset:0;stroke-width:1.5;"/>
   </g>
   <g id="line2d_36">
    <path clip-path="url(#pfae800fb23)" d="M 118.498712 207.747488 
L 533.642796 207.747488 
" style="fill:none;stroke:#000000;stroke-dasharray:5.55,2.4;stroke-dashoffset:0;stroke-width:1.5;"/>
   </g>
   <g id="line2d_37">
    <path clip-path="url(#pfae800fb23)" d="M 118.498712 318.233379 
L 533.642796 318.233379 
" style="fill:none;stroke:#000000;stroke-dasharray:5.55,2.4;stroke-dashoffset:0;stroke-width:1.5;"/>
   </g>
   <g id="text_11">
    <g id="patch_3">
     <path clip-path="url(#pfae800fb23)" d="M 147.573206 58.423636 
L 230.573206 58.423636 
L 230.573206 28.023636 
L 147.573206 28.023636 
z
" style="fill:#ffffff;stroke:#ffffff;stroke-linejoin:miter;"/>
    </g>
    <g clip-path="url(#pfae800fb23)">
     <!-- $10^{6.5}$ yr -->
     <defs>
      <path d="M 33.015625 40.375 
Q 26.375 40.375 22.484375 35.828125 
Q 18.609375 31.296875 18.609375 23.390625 
Q 18.609375 15.53125 22.484375 10.953125 
Q 26.375 6.390625 33.015625 6.390625 
Q 39.65625 6.390625 43.53125 10.953125 
Q 47.40625 15.53125 47.40625 23.390625 
Q 47.40625 31.296875 43.53125 35.828125 
Q 39.65625 40.375 33.015625 40.375 
z
M 52.59375 71.296875 
L 52.59375 62.3125 
Q 48.875 64.0625 45.09375 64.984375 
Q 41.3125 65.921875 37.59375 65.921875 
Q 27.828125 65.921875 22.671875 59.328125 
Q 17.53125 52.734375 16.796875 39.40625 
Q 19.671875 43.65625 24.015625 45.921875 
Q 28.375 48.1875 33.59375 48.1875 
Q 44.578125 48.1875 50.953125 41.515625 
Q 57.328125 34.859375 57.328125 23.390625 
Q 57.328125 12.15625 50.6875 5.359375 
Q 44.046875 -1.421875 33.015625 -1.421875 
Q 20.359375 -1.421875 13.671875 8.265625 
Q 6.984375 17.96875 6.984375 36.375 
Q 6.984375 53.65625 15.1875 63.9375 
Q 23.390625 74.21875 37.203125 74.21875 
Q 40.921875 74.21875 44.703125 73.484375 
Q 48.484375 72.75 52.59375 71.296875 
z
" id="DejaVuSans-54"/>
      <path d="M 10.6875 12.40625 
L 21 12.40625 
L 21 0 
L 10.6875 0 
z
" id="DejaVuSans-46"/>
      <path d="M 10.796875 72.90625 
L 49.515625 72.90625 
L 49.515625 64.59375 
L 19.828125 64.59375 
L 19.828125 46.734375 
Q 21.96875 47.46875 24.109375 47.828125 
Q 26.265625 48.1875 28.421875 48.1875 
Q 40.625 48.1875 47.75 41.5 
Q 54.890625 34.8125 54.890625 23.390625 
Q 54.890625 11.625 47.5625 5.09375 
Q 40.234375 -1.421875 26.90625 -1.421875 
Q 22.3125 -1.421875 17.546875 -0.640625 
Q 12.796875 0.140625 7.71875 1.703125 
L 7.71875 11.625 
Q 12.109375 9.234375 16.796875 8.0625 
Q 21.484375 6.890625 26.703125 6.890625 
Q 35.15625 6.890625 40.078125 11.328125 
Q 45.015625 15.765625 45.015625 23.390625 
Q 45.015625 31 40.078125 35.4375 
Q 35.15625 39.890625 26.703125 39.890625 
Q 22.75 39.890625 18.8125 39.015625 
Q 14.890625 38.140625 10.796875 36.28125 
z
" id="DejaVuSans-53"/>
      <path id="DejaVuSans-32"/>
      <path d="M 32.171875 -5.078125 
Q 28.375 -14.84375 24.75 -17.8125 
Q 21.140625 -20.796875 15.09375 -20.796875 
L 7.90625 -20.796875 
L 7.90625 -13.28125 
L 13.1875 -13.28125 
Q 16.890625 -13.28125 18.9375 -11.515625 
Q 21 -9.765625 23.484375 -3.21875 
L 25.09375 0.875 
L 2.984375 54.6875 
L 12.5 54.6875 
L 29.59375 11.921875 
L 46.6875 54.6875 
L 56.203125 54.6875 
z
" id="DejaVuSans-121"/>
     </defs>
     <g transform="translate(151.573206 50.223636)scale(0.2 -0.2)">
      <use transform="translate(0 0.765625)" xlink:href="#DejaVuSans-49"/>
      <use transform="translate(63.623047 0.765625)" xlink:href="#DejaVuSans-48"/>
      <use transform="translate(128.203125 39.046875)scale(0.7)" xlink:href="#DejaVuSans-54"/>
      <use transform="translate(172.739258 39.046875)scale(0.7)" xlink:href="#DejaVuSans-46"/>
      <use transform="translate(194.990234 39.046875)scale(0.7)" xlink:href="#DejaVuSans-53"/>
      <use transform="translate(242.260742 0.765625)" xlink:href="#DejaVuSans-32"/>
      <use transform="translate(274.047852 0.765625)" xlink:href="#DejaVuSans-121"/>
      <use transform="translate(333.227539 0.765625)" xlink:href="#DejaVuSans-114"/>
     </g>
    </g>
   </g>
   <g id="text_12">
    <g id="patch_4">
     <path clip-path="url(#pfae800fb23)" d="M 245.604905 140.610938 
L 315.204905 140.610938 
L 315.204905 110.410938 
L 245.604905 110.410938 
z
" style="fill:#ffffff;stroke:#ffffff;stroke-linejoin:miter;"/>
    </g>
    <g clip-path="url(#pfae800fb23)">
     <!-- $10^{7}$ yr -->
     <defs>
      <path d="M 8.203125 72.90625 
L 55.078125 72.90625 
L 55.078125 68.703125 
L 28.609375 0 
L 18.3125 0 
L 43.21875 64.59375 
L 8.203125 64.59375 
z
" id="DejaVuSans-55"/>
     </defs>
     <g transform="translate(249.604905 132.410938)scale(0.2 -0.2)">
      <use transform="translate(0 0.684375)" xlink:href="#DejaVuSans-49"/>
      <use transform="translate(63.623047 0.684375)" xlink:href="#DejaVuSans-48"/>
      <use transform="translate(128.203125 38.965625)scale(0.7)" xlink:href="#DejaVuSans-55"/>
      <use transform="translate(175.473633 0.684375)" xlink:href="#DejaVuSans-32"/>
      <use transform="translate(207.260742 0.684375)" xlink:href="#DejaVuSans-121"/>
      <use transform="translate(266.44043 0.684375)" xlink:href="#DejaVuSans-114"/>
     </g>
    </g>
   </g>
   <g id="text_13">
    <g id="patch_5">
     <path clip-path="url(#pfae800fb23)" d="M 336.936603 222.947488 
L 406.536603 222.947488 
L 406.536603 192.547488 
L 336.936603 192.547488 
z
" style="fill:#ffffff;stroke:#ffffff;stroke-linejoin:miter;"/>
    </g>
    <g clip-path="url(#pfae800fb23)">
     <!-- $10^{8}$ yr -->
     <defs>
      <path d="M 31.78125 34.625 
Q 24.75 34.625 20.71875 30.859375 
Q 16.703125 27.09375 16.703125 20.515625 
Q 16.703125 13.921875 20.71875 10.15625 
Q 24.75 6.390625 31.78125 6.390625 
Q 38.8125 6.390625 42.859375 10.171875 
Q 46.921875 13.96875 46.921875 20.515625 
Q 46.921875 27.09375 42.890625 30.859375 
Q 38.875 34.625 31.78125 34.625 
z
M 21.921875 38.8125 
Q 15.578125 40.375 12.03125 44.71875 
Q 8.5 49.078125 8.5 55.328125 
Q 8.5 64.0625 14.71875 69.140625 
Q 20.953125 74.21875 31.78125 74.21875 
Q 42.671875 74.21875 48.875 69.140625 
Q 55.078125 64.0625 55.078125 55.328125 
Q 55.078125 49.078125 51.53125 44.71875 
Q 48 40.375 41.703125 38.8125 
Q 48.828125 37.15625 52.796875 32.3125 
Q 56.78125 27.484375 56.78125 20.515625 
Q 56.78125 9.90625 50.3125 4.234375 
Q 43.84375 -1.421875 31.78125 -1.421875 
Q 19.734375 -1.421875 13.25 4.234375 
Q 6.78125 9.90625 6.78125 20.515625 
Q 6.78125 27.484375 10.78125 32.3125 
Q 14.796875 37.15625 21.921875 38.8125 
z
M 18.3125 54.390625 
Q 18.3125 48.734375 21.84375 45.5625 
Q 25.390625 42.390625 31.78125 42.390625 
Q 38.140625 42.390625 41.71875 45.5625 
Q 45.3125 48.734375 45.3125 54.390625 
Q 45.3125 60.0625 41.71875 63.234375 
Q 38.140625 66.40625 31.78125 66.40625 
Q 25.390625 66.40625 21.84375 63.234375 
Q 18.3125 60.0625 18.3125 54.390625 
z
" id="DejaVuSans-56"/>
     </defs>
     <g transform="translate(340.936603 214.747488)scale(0.2 -0.2)">
      <use transform="translate(0 0.765625)" xlink:href="#DejaVuSans-49"/>
      <use transform="translate(63.623047 0.765625)" xlink:href="#DejaVuSans-48"/>
      <use transform="translate(128.203125 39.046875)scale(0.7)" xlink:href="#DejaVuSans-56"/>
      <use transform="translate(175.473633 0.765625)" xlink:href="#DejaVuSans-32"/>
      <use transform="translate(207.260742 0.765625)" xlink:href="#DejaVuSans-121"/>
      <use transform="translate(266.44043 0.765625)" xlink:href="#DejaVuSans-114"/>
     </g>
    </g>
   </g>
   <g id="text_14">
    <g id="patch_6">
     <path clip-path="url(#pfae800fb23)" d="M 423.768302 333.433379 
L 502.368302 333.433379 
L 502.368302 303.033379 
L 423.768302 303.033379 
z
" style="fill:#ffffff;stroke:#ffffff;stroke-linejoin:miter;"/>
    </g>
    <g clip-path="url(#pfae800fb23)">
     <!-- $10^{10}$ yr -->
     <g transform="translate(427.768302 325.233379)scale(0.2 -0.2)">
      <use transform="translate(0 0.765625)" xlink:href="#DejaVuSans-49"/>
      <use transform="translate(63.623047 0.765625)" xlink:href="#DejaVuSans-48"/>
      <use transform="translate(128.203125 39.046875)scale(0.7)" xlink:href="#DejaVuSans-49"/>
      <use transform="translate(172.739258 39.046875)scale(0.7)" xlink:href="#DejaVuSans-48"/>
      <use transform="translate(220.009766 0.765625)" xlink:href="#DejaVuSans-32"/>
      <use transform="translate(251.796875 0.765625)" xlink:href="#DejaVuSans-121"/>
      <use transform="translate(310.976562 0.765625)" xlink:href="#DejaVuSans-114"/>
     </g>
    </g>
   </g>
   <g id="patch_7">
    <path d="M 97.741508 497.32 
L 97.741508 21.6 
" style="fill:none;stroke:#000000;stroke-linecap:square;stroke-linejoin:miter;stroke-width:0.8;"/>
   </g>
   <g id="patch_8">
    <path d="M 554.4 497.32 
L 554.4 21.6 
" style="fill:none;stroke:#000000;stroke-linecap:square;stroke-linejoin:miter;stroke-width:0.8;"/>
   </g>
   <g id="patch_9">
    <path d="M 97.741508 497.32 
L 554.4 497.32 
" style="fill:none;stroke:#000000;stroke-linecap:square;stroke-linejoin:miter;stroke-width:0.8;"/>
   </g>
   <g id="patch_10">
    <path d="M 97.741508 21.6 
L 554.4 21.6 
" style="fill:none;stroke:#000000;stroke-linecap:square;stroke-linejoin:miter;stroke-width:0.8;"/>
   </g>
  </g>
 </g>
 <defs>
  <clipPath id="pfae800fb23">
   <rect height="475.72" width="456.658492" x="97.741508" y="21.6"/>
  </clipPath>
 </defs>
</svg>
