<?xml version="1.0" encoding="utf-8" standalone="no"?>
<!DOCTYPE svg PUBLIC "-//W3C//DTD SVG 1.1//EN"
  "http://www.w3.org/Graphics/SVG/1.1/DTD/svg11.dtd">
<!-- Created with matplotlib (http://matplotlib.org/) -->
<svg height="576pt" version="1.1" viewBox="0 0 576 576" width="576pt" xmlns="http://www.w3.org/2000/svg" xmlns:xlink="http://www.w3.org/1999/xlink">
 <defs>
  <style type="text/css">
*{stroke-linecap:butt;stroke-linejoin:round;}
  </style>
 </defs>
 <g id="figure_1">
  <g id="patch_1">
   <path d="M 0 576 
L 576 576 
L 576 0 
L 0 0 
z
" style="fill:#ffffff;"/>
  </g>
  <g id="axes_1">
   <g id="patch_2">
    <path d="M 89.638119 511 
L 531.62608 511 
L 531.62608 27.650886 
L 89.638119 27.650886 
z
" style="fill:#ffffff;"/>
   </g>
   <g id="PathCollection_1">
    <path clip-path="url(#p9fb556ff66)" d="M 141.223153 352.672197 
C 141.973531 352.672197 142.693276 352.374068 143.223873 351.843471 
C 143.75447 351.312874 144.052598 350.593129 144.052598 349.842751 
C 144.052598 349.092374 143.75447 348.372629 143.223873 347.842032 
C 142.693276 347.311435 141.973531 347.013306 141.223153 347.013306 
C 140.472776 347.013306 139.75303 347.311435 139.222433 347.842032 
C 138.691836 348.372629 138.393708 349.092374 138.393708 349.842751 
C 138.393708 350.593129 138.691836 351.312874 139.222433 351.843471 
C 139.75303 352.374068 140.472776 352.672197 141.223153 352.672197 
z
" style="fill:#ffe4c5;stroke:#ffe4c5;"/>
    <path clip-path="url(#p9fb556ff66)" d="M 142.592267 349.729065 
C 143.36278 349.729065 144.101838 349.422937 144.646673 348.878102 
C 145.191508 348.333267 145.497636 347.594209 145.497636 346.823696 
C 145.497636 346.053183 145.191508 345.314125 144.646673 344.76929 
C 144.101838 344.224456 143.36278 343.918328 142.592267 343.918328 
C 141.821754 343.918328 141.082696 344.224456 140.537861 344.76929 
C 139.993026 345.314125 139.686898 346.053183 139.686898 346.823696 
C 139.686898 347.594209 139.993026 348.333267 140.537861 348.878102 
C 141.082696 349.422937 141.821754 349.729065 142.592267 349.729065 
z
" style="fill:#ffe9ce;stroke:#ffe9ce;"/>
    <path clip-path="url(#p9fb556ff66)" d="M 144.006262 346.913437 
C 144.796085 346.913437 145.553666 346.599637 146.112155 346.041148 
C 146.670644 345.482659 146.984444 344.725078 146.984444 343.935255 
C 146.984444 343.145432 146.670644 342.387852 146.112155 341.829363 
C 145.553666 341.270873 144.796085 340.957073 144.006262 340.957073 
C 143.216439 340.957073 142.458859 341.270873 141.90037 341.829363 
C 141.34188 342.387852 141.02808 343.145432 141.02808 343.935255 
C 141.02808 344.725078 141.34188 345.482659 141.90037 346.041148 
C 142.458859 346.599637 143.216439 346.913437 144.006262 346.913437 
z
" style="fill:#ffeed8;stroke:#ffeed8;"/>
    <path clip-path="url(#p9fb556ff66)" d="M 145.255038 344.147036 
C 146.064889 344.147036 146.841679 343.825279 147.41433 343.252628 
C 147.98698 342.679978 148.308737 341.903188 148.308737 341.093337 
C 148.308737 340.283487 147.98698 339.506696 147.41433 338.934046 
C 146.841679 338.361395 146.064889 338.039638 145.255038 338.039638 
C 144.445188 338.039638 143.668398 338.361395 143.095747 338.934046 
C 142.523096 339.506696 142.201339 340.283487 142.201339 341.093337 
C 142.201339 341.903188 142.523096 342.679978 143.095747 343.252628 
C 143.668398 343.825279 144.445188 344.147036 145.255038 344.147036 
z
" style="fill:#fff2e1;stroke:#fff2e1;"/>
    <path clip-path="url(#p9fb556ff66)" d="M 146.538826 341.563502 
C 147.367779 341.563502 148.162892 341.234156 148.74905 340.647998 
C 149.335208 340.06184 149.664555 339.266727 149.664555 338.437774 
C 149.664555 337.608821 149.335208 336.813708 148.74905 336.22755 
C 148.162892 335.641392 147.367779 335.312045 146.538826 335.312045 
C 145.709873 335.312045 144.91476 335.641392 144.328602 336.22755 
C 143.742444 336.813708 143.413097 337.608821 143.413097 338.437774 
C 143.413097 339.266727 143.742444 340.06184 144.328602 340.647998 
C 144.91476 341.234156 145.709873 341.563502 146.538826 341.563502 
z
" style="fill:#fff4e8;stroke:#fff4e8;"/>
    <path clip-path="url(#p9fb556ff66)" d="M 148.758882 336.692239 
C 149.625654 336.692239 150.457042 336.347867 151.069942 335.734967 
C 151.682842 335.122066 152.027215 334.290679 152.027215 333.423907 
C 152.027215 332.557135 151.682842 331.725747 151.069942 331.112846 
C 150.457042 330.499946 149.625654 330.155574 148.758882 330.155574 
C 147.89211 330.155574 147.060722 330.499946 146.447822 331.112846 
C 145.834921 331.725747 145.490549 332.557135 145.490549 333.423907 
C 145.490549 334.290679 145.834921 335.122066 146.447822 335.734967 
C 147.060722 336.347867 147.89211 336.692239 148.758882 336.692239 
z
" style="fill:#fff5ed;stroke:#fff5ed;"/>
    <path clip-path="url(#p9fb556ff66)" d="M 150.846265 332.109096 
C 151.750497 332.109096 152.617816 331.749841 153.257204 331.110453 
C 153.896593 330.471064 154.255848 329.603745 154.255848 328.699514 
C 154.255848 327.795282 153.896593 326.927963 153.257204 326.288574 
C 152.617816 325.649186 151.750497 325.289931 150.846265 325.289931 
C 149.942033 325.289931 149.074714 325.649186 148.435326 326.288574 
C 147.795937 326.927963 147.436682 327.795282 147.436682 328.699514 
C 147.436682 329.603745 147.795937 330.471064 148.435326 331.110453 
C 149.074714 331.749841 149.942033 332.109096 150.846265 332.109096 
z
" style="fill:#fff7f2;stroke:#fff7f2;"/>
    <path clip-path="url(#p9fb556ff66)" d="M 153.767459 324.21387 
C 154.731631 324.21387 155.656444 323.8308 156.338217 323.149027 
C 157.01999 322.467254 157.40306 321.542441 157.40306 320.578268 
C 157.40306 319.614096 157.01999 318.689283 156.338217 318.00751 
C 155.656444 317.325737 154.731631 316.942667 153.767459 316.942667 
C 152.803286 316.942667 151.878473 317.325737 151.1967 318.00751 
C 150.514927 318.689283 150.131857 319.614096 150.131857 320.578268 
C 150.131857 321.542441 150.514927 322.467254 151.1967 323.149027 
C 151.878473 323.8308 152.803286 324.21387 153.767459 324.21387 
z
" style="fill:#fdf9fb;stroke:#fdf9fb;"/>
    <path clip-path="url(#p9fb556ff66)" d="M 156.066763 319.00942 
C 157.076957 319.00942 158.045913 318.608065 158.760228 317.89375 
C 159.474543 317.179435 159.875897 316.21048 159.875897 315.200285 
C 159.875897 314.190091 159.474543 313.221136 158.760228 312.506821 
C 158.045913 311.792506 157.076957 311.391151 156.066763 311.391151 
C 155.056569 311.391151 154.087614 311.792506 153.373299 312.506821 
C 152.658983 313.221136 152.257629 314.190091 152.257629 315.200285 
C 152.257629 316.21048 152.658983 317.179435 153.373299 317.89375 
C 154.087614 318.608065 155.056569 319.00942 156.066763 319.00942 
z
" style="fill:#f8f6ff;stroke:#f8f6ff;"/>
    <path clip-path="url(#p9fb556ff66)" d="M 158.872583 313.533011 
C 159.932825 313.533011 160.949784 313.111773 161.699488 312.362069 
C 162.449192 311.612365 162.870431 310.595405 162.870431 309.535164 
C 162.870431 308.474922 162.449192 307.457962 161.699488 306.708258 
C 160.949784 305.958554 159.932825 305.537316 158.872583 305.537316 
C 157.812341 305.537316 156.795382 305.958554 156.045678 306.708258 
C 155.295974 307.457962 154.874735 308.474922 154.874735 309.535164 
C 154.874735 310.595405 155.295974 311.612365 156.045678 312.362069 
C 156.795382 313.111773 157.812341 313.533011 158.872583 313.533011 
z
" style="fill:#f0f0ff;stroke:#f0f0ff;"/>
    <path clip-path="url(#p9fb556ff66)" d="M 163.270509 307.882689 
C 164.384239 307.882689 165.452503 307.440199 166.240029 306.652673 
C 167.027555 305.865147 167.470044 304.796883 167.470044 303.683153 
C 167.470044 302.569424 167.027555 301.501159 166.240029 300.713633 
C 165.452503 299.926108 164.384239 299.483618 163.270509 299.483618 
C 162.156779 299.483618 161.088515 299.926108 160.300989 300.713633 
C 159.513463 301.501159 159.070973 302.569424 159.070973 303.683153 
C 159.070973 304.796883 159.513463 305.865147 160.300989 306.652673 
C 161.088515 307.440199 162.156779 307.882689 163.270509 307.882689 
z
" style="fill:#e4e8ff;stroke:#e4e8ff;"/>
    <path clip-path="url(#p9fb556ff66)" d="M 168.787756 302.136909 
C 169.957336 302.136909 171.07917 301.67223 171.906188 300.845212 
C 172.733206 300.018194 173.197885 298.89636 173.197885 297.72678 
C 173.197885 296.5572 172.733206 295.435366 171.906188 294.608348 
C 171.07917 293.781331 169.957336 293.316652 168.787756 293.316652 
C 167.618177 293.316652 166.496342 293.781331 165.669325 294.608348 
C 164.842307 295.435366 164.377628 296.5572 164.377628 297.72678 
C 164.377628 298.89636 164.842307 300.018194 165.669325 300.845212 
C 166.496342 301.67223 167.618177 302.136909 168.787756 302.136909 
z
" style="fill:#d5dfff;stroke:#d5dfff;"/>
    <path clip-path="url(#p9fb556ff66)" d="M 173.9193 296.861858 
C 175.140129 296.861858 176.31112 296.376817 177.174377 295.513561 
C 178.037633 294.650304 178.522674 293.479313 178.522674 292.258484 
C 178.522674 291.037655 178.037633 289.866663 177.174377 289.003407 
C 176.31112 288.14015 175.140129 287.65511 173.9193 287.65511 
C 172.698471 287.65511 171.527479 288.14015 170.664223 289.003407 
C 169.800966 289.866663 169.315926 291.037655 169.315926 292.258484 
C 169.315926 293.479313 169.800966 294.650304 170.664223 295.513561 
C 171.527479 296.376817 172.698471 296.861858 173.9193 296.861858 
z
" style="fill:#c8d6ff;stroke:#c8d6ff;"/>
    <path clip-path="url(#p9fb556ff66)" d="M 179.430562 291.521136 
C 180.704886 291.521136 181.927188 291.014842 182.828271 290.113759 
C 183.729354 289.212676 184.235649 287.990373 184.235649 286.71605 
C 184.235649 285.441726 183.729354 284.219423 182.828271 283.31834 
C 181.927188 282.417257 180.704886 281.910963 179.430562 281.910963 
C 178.156238 281.910963 176.933936 282.417257 176.032853 283.31834 
C 175.13177 284.219423 174.625475 285.441726 174.625475 286.71605 
C 174.625475 287.990373 175.13177 289.212676 176.032853 290.113759 
C 176.933936 291.014842 178.156238 291.521136 179.430562 291.521136 
z
" style="fill:#bed0ff;stroke:#bed0ff;"/>
    <path clip-path="url(#p9fb556ff66)" d="M 191.282607 280.453575 
C 192.671855 280.453575 194.004391 279.901621 194.986738 278.919274 
C 195.969084 277.936927 196.521039 276.604392 196.521039 275.215144 
C 196.521039 273.825896 195.969084 272.49336 194.986738 271.511014 
C 194.004391 270.528667 192.671855 269.976713 191.282607 269.976713 
C 189.893359 269.976713 188.560824 270.528667 187.578477 271.511014 
C 186.59613 272.49336 186.044176 273.825896 186.044176 275.215144 
C 186.044176 276.604392 186.59613 277.936927 187.578477 278.919274 
C 188.560824 279.901621 189.893359 280.453575 191.282607 280.453575 
z
" style="fill:#b9cbff;stroke:#b9cbff;"/>
    <path clip-path="url(#p9fb556ff66)" d="M 212.172871 261.632099 
C 213.771618 261.632099 215.3051 260.99691 216.435586 259.866425 
C 217.566071 258.73594 218.20126 257.202458 218.20126 255.60371 
C 218.20126 254.004963 217.566071 252.471481 216.435586 251.340996 
C 215.3051 250.21051 213.771618 249.575321 212.172871 249.575321 
C 210.574123 249.575321 209.040641 250.21051 207.910156 251.340996 
C 206.779671 252.471481 206.144482 254.004963 206.144482 255.60371 
C 206.144482 257.202458 206.779671 258.73594 207.910156 259.866425 
C 209.040641 260.99691 210.574123 261.632099 212.172871 261.632099 
z
" style="fill:#b7c9ff;stroke:#b7c9ff;"/>
    <path clip-path="url(#p9fb556ff66)" d="M 236.545783 241.860852 
C 238.389332 241.860852 240.157623 241.128402 241.46121 239.824816 
C 242.764796 238.521229 243.497246 236.752938 243.497246 234.909388 
C 243.497246 233.065839 242.764796 231.297548 241.46121 229.993961 
C 240.157623 228.690375 238.389332 227.957925 236.545783 227.957925 
C 234.702233 227.957925 232.933942 228.690375 231.630355 229.993961 
C 230.326769 231.297548 229.594319 233.065839 229.594319 234.909388 
C 229.594319 236.752938 230.326769 238.521229 231.630355 239.824816 
C 232.933942 241.128402 234.702233 241.860852 236.545783 241.860852 
z
" style="fill:#b3c7ff;stroke:#b3c7ff;"/>
    <path clip-path="url(#p9fb556ff66)" d="M 257.222484 226.851002 
C 259.269069 226.851002 261.232108 226.037885 262.679262 224.590731 
C 264.126417 223.143576 264.939534 221.180538 264.939534 219.133952 
C 264.939534 217.087367 264.126417 215.124329 262.679262 213.677174 
C 261.232108 212.23002 259.269069 211.416903 257.222484 211.416903 
C 255.175898 211.416903 253.21286 212.23002 251.765706 213.677174 
C 250.318551 215.124329 249.505434 217.087367 249.505434 219.133952 
C 249.505434 221.180538 250.318551 223.143576 251.765706 224.590731 
C 253.21286 226.037885 255.175898 226.851002 257.222484 226.851002 
z
" style="fill:#b0c4ff;stroke:#b0c4ff;"/>
    <path clip-path="url(#p9fb556ff66)" d="M 275.256982 214.77846 
C 277.483647 214.77846 279.619413 213.893796 281.193903 212.319306 
C 282.768393 210.744817 283.653056 208.60905 283.653056 206.382385 
C 283.653056 204.15572 282.768393 202.019954 281.193903 200.445464 
C 279.619413 198.870974 277.483647 197.986311 275.256982 197.986311 
C 273.030317 197.986311 270.894551 198.870974 269.320061 200.445464 
C 267.745571 202.019954 266.860908 204.15572 266.860908 206.382385 
C 266.860908 208.60905 267.745571 210.744817 269.320061 212.319306 
C 270.894551 213.893796 273.030317 214.77846 275.256982 214.77846 
z
" style="fill:#adc1ff;stroke:#adc1ff;"/>
    <path clip-path="url(#p9fb556ff66)" d="M 290.893158 204.671209 
C 293.2777 204.671209 295.564898 203.72382 297.251023 202.037695 
C 298.937149 200.351569 299.884537 198.064371 299.884537 195.67983 
C 299.884537 193.295288 298.937149 191.00809 297.251023 189.321965 
C 295.564898 187.635839 293.2777 186.688451 290.893158 186.688451 
C 288.508617 186.688451 286.221419 187.635839 284.535294 189.321965 
C 282.849168 191.00809 281.90178 193.295288 281.90178 195.67983 
C 281.90178 198.064371 282.849168 200.351569 284.535294 202.037695 
C 286.221419 203.72382 288.508617 204.671209 290.893158 204.671209 
z
" style="fill:#aabfff;stroke:#aabfff;"/>
    <path clip-path="url(#p9fb556ff66)" d="M 305.059296 195.997654 
C 307.587312 195.997654 310.012127 194.993262 311.799705 193.205685 
C 313.587282 191.418107 314.591674 188.993292 314.591674 186.465275 
C 314.591674 183.937259 313.587282 181.512444 311.799705 179.724866 
C 310.012127 177.937289 307.587312 176.932897 305.059296 176.932897 
C 302.531279 176.932897 300.106464 177.937289 298.318886 179.724866 
C 296.531309 181.512444 295.526917 183.937259 295.526917 186.465275 
C 295.526917 188.993292 296.531309 191.418107 298.318886 193.205685 
C 300.106464 194.993262 302.531279 195.997654 305.059296 195.997654 
z
" style="fill:#a8bdff;stroke:#a8bdff;"/>
    <path clip-path="url(#p9fb556ff66)" d="M 317.745566 188.391381 
C 320.403412 188.391381 322.952757 187.335408 324.832138 185.456027 
C 326.711519 183.576646 327.767493 181.0273 327.767493 178.369454 
C 327.767493 175.711608 326.711519 173.162263 324.832138 171.282882 
C 322.952757 169.403501 320.403412 168.347527 317.745566 168.347527 
C 315.08772 168.347527 312.538374 169.403501 310.658993 171.282882 
C 308.779612 173.162263 307.723639 175.711608 307.723639 178.369454 
C 307.723639 181.0273 308.779612 183.576646 310.658993 185.456027 
C 312.538374 187.335408 315.08772 188.391381 317.745566 188.391381 
z
" style="fill:#a7bcff;stroke:#a7bcff;"/>
    <path clip-path="url(#p9fb556ff66)" d="M 329.618806 181.64959 
C 332.400311 181.64959 335.068267 180.544486 337.035088 178.577665 
C 339.001909 176.610844 340.107013 173.942888 340.107013 171.161383 
C 340.107013 168.379878 339.001909 165.711922 337.035088 163.7451 
C 335.068267 161.778279 332.400311 160.673176 329.618806 160.673176 
C 326.837301 160.673176 324.169345 161.778279 322.202524 163.7451 
C 320.235703 165.711922 319.130599 168.379878 319.130599 171.161383 
C 319.130599 173.942888 320.235703 176.610844 322.202524 178.577665 
C 324.169345 180.544486 326.837301 181.64959 329.618806 181.64959 
z
" style="fill:#a6bcff;stroke:#a6bcff;"/>
    <path clip-path="url(#p9fb556ff66)" d="M 340.467146 175.58182 
C 343.360522 175.58182 346.135782 174.432269 348.181708 172.386344 
C 350.227634 170.340418 351.377184 167.565158 351.377184 164.671782 
C 351.377184 161.778406 350.227634 159.003146 348.181708 156.95722 
C 346.135782 154.911294 343.360522 153.761744 340.467146 153.761744 
C 337.57377 153.761744 334.79851 154.911294 332.752584 156.95722 
C 330.706659 159.003146 329.557108 161.778406 329.557108 164.671782 
C 329.557108 167.565158 330.706659 170.340418 332.752584 172.386344 
C 334.79851 174.432269 337.57377 175.58182 340.467146 175.58182 
z
" style="fill:#a6bbff;stroke:#a6bbff;"/>
    <path clip-path="url(#p9fb556ff66)" d="M 350.089413 170.082932 
C 353.087918 170.082932 355.964017 168.891613 358.084281 166.771349 
C 360.204544 164.651085 361.395863 161.774986 361.395863 158.776481 
C 361.395863 155.777975 360.204544 152.901876 358.084281 150.781613 
C 355.964017 148.661349 353.087918 147.47003 350.089413 147.47003 
C 347.090907 147.47003 344.214808 148.661349 342.094544 150.781613 
C 339.974281 152.901876 338.782962 155.777975 338.782962 158.776481 
C 338.782962 161.774986 339.974281 164.651085 342.094544 166.771349 
C 344.214808 168.891613 347.090907 170.082932 350.089413 170.082932 
z
" style="fill:#a5bbff;stroke:#a5bbff;"/>
    <path clip-path="url(#p9fb556ff66)" d="M 358.897963 165.052084 
C 361.996487 165.052084 364.968521 163.821028 367.159508 161.63004 
C 369.350495 159.439053 370.581552 156.467019 370.581552 153.368495 
C 370.581552 150.269971 369.350495 147.297938 367.159508 145.10695 
C 364.968521 142.915963 361.996487 141.684906 358.897963 141.684906 
C 355.799439 141.684906 352.827405 142.915963 350.636418 145.10695 
C 348.445431 147.297938 347.214374 150.269971 347.214374 153.368495 
C 347.214374 156.467019 348.445431 159.439053 350.636418 161.63004 
C 352.827405 163.821028 355.799439 165.052084 358.897963 165.052084 
z
" style="fill:#a4baff;stroke:#a4baff;"/>
    <path clip-path="url(#p9fb556ff66)" d="M 366.782116 160.383078 
C 369.9702 160.383078 373.028139 159.116438 375.282455 156.862122 
C 377.536772 154.607805 378.803411 151.549867 378.803411 148.361782 
C 378.803411 145.173697 377.536772 142.115759 375.282455 139.861442 
C 373.028139 137.607126 369.9702 136.340486 366.782116 136.340486 
C 363.594031 136.340486 360.536092 137.607126 358.281776 139.861442 
C 356.02746 142.115759 354.76082 145.173697 354.76082 148.361782 
C 354.76082 151.549867 356.02746 154.607805 358.281776 156.862122 
C 360.536092 159.116438 363.594031 160.383078 366.782116 160.383078 
z
" style="fill:#a4baff;stroke:#a4baff;"/>
    <path clip-path="url(#p9fb556ff66)" d="M 374.272327 156.05947 
C 377.546901 156.05947 380.687798 154.758468 383.003272 152.442995 
C 385.318745 150.127521 386.619747 146.986624 386.619747 143.71205 
C 386.619747 140.437476 385.318745 137.296579 383.003272 134.981105 
C 380.687798 132.665631 377.546901 131.364629 374.272327 131.364629 
C 370.997752 131.364629 367.856855 132.665631 365.541382 134.981105 
C 363.225908 137.296579 361.924906 140.437476 361.924906 143.71205 
C 361.924906 146.986624 363.225908 150.127521 365.541382 152.442995 
C 367.856855 154.758468 370.997752 156.05947 374.272327 156.05947 
z
" style="fill:#a3baff;stroke:#a3baff;"/>
    <path clip-path="url(#p9fb556ff66)" d="M 381.322606 152.039981 
C 384.681179 152.039981 387.902647 150.705606 390.277517 148.330736 
C 392.652387 145.955865 393.986763 142.734398 393.986763 139.375824 
C 393.986763 136.017251 392.652387 132.795783 390.277517 130.420913 
C 387.902647 128.046043 384.681179 126.711667 381.322606 126.711667 
C 377.964032 126.711667 374.742565 128.046043 372.367695 130.420913 
C 369.992824 132.795783 368.658449 136.017251 368.658449 139.375824 
C 368.658449 142.734398 369.992824 145.955865 372.367695 148.330736 
C 374.742565 150.705606 377.964032 152.039981 381.322606 152.039981 
z
" style="fill:#a3b9ff;stroke:#a3b9ff;"/>
    <path clip-path="url(#p9fb556ff66)" d="M 387.888486 148.281153 
C 391.32826 148.281153 394.627612 146.914517 397.059899 144.482229 
C 399.492186 142.049942 400.858823 138.75059 400.858823 135.310816 
C 400.858823 131.871043 399.492186 128.57169 397.059899 126.139403 
C 394.627612 123.707116 391.32826 122.340479 387.888486 122.340479 
C 384.448712 122.340479 381.14936 123.707116 378.717073 126.139403 
C 376.284786 128.57169 374.918149 131.871043 374.918149 135.310816 
C 374.918149 138.75059 376.284786 142.049942 378.717073 144.482229 
C 381.14936 146.914517 384.448712 148.281153 387.888486 148.281153 
z
" style="fill:#a2b9ff;stroke:#a2b9ff;"/>
    <path clip-path="url(#p9fb556ff66)" d="M 393.251213 144.791518 
C 396.764024 144.791518 400.133433 143.395863 402.617366 140.91193 
C 405.101299 138.427998 406.496953 135.058589 406.496953 131.545777 
C 406.496953 128.032966 405.101299 124.663557 402.617366 122.179624 
C 400.133433 119.695691 396.764024 118.300036 393.251213 118.300036 
C 389.738401 118.300036 386.368992 119.695691 383.885059 122.179624 
C 381.401126 124.663557 380.005472 128.032966 380.005472 131.545777 
C 380.005472 135.058589 381.401126 138.427998 383.885059 140.91193 
C 386.368992 143.395863 389.738401 144.791518 393.251213 144.791518 
z
" style="fill:#a2b9ff;stroke:#a2b9ff;"/>
    <path clip-path="url(#p9fb556ff66)" d="M 398.025388 141.513367 
C 401.607629 141.513367 405.043634 140.090127 407.576661 137.5571 
C 410.109689 135.024072 411.532928 131.588068 411.532928 128.005826 
C 411.532928 124.423584 410.109689 120.98758 407.576661 118.454552 
C 405.043634 115.921525 401.607629 114.498285 398.025388 114.498285 
C 394.443146 114.498285 391.007141 115.921525 388.474114 118.454552 
C 385.941087 120.98758 384.517847 124.423584 384.517847 128.005826 
C 384.517847 131.588068 385.941087 135.024072 388.474114 137.5571 
C 391.007141 140.090127 394.443146 141.513367 398.025388 141.513367 
z
" style="fill:#a2b9ff;stroke:#a2b9ff;"/>
    <path clip-path="url(#p9fb556ff66)" d="M 402.877078 138.430766 
C 406.52802 138.430766 410.02992 136.980232 412.611525 134.398626 
C 415.19313 131.817021 416.643665 128.315121 416.643665 124.66418 
C 416.643665 121.013239 415.19313 117.511339 412.611525 114.929733 
C 410.02992 112.348128 406.52802 110.897594 402.877078 110.897594 
C 399.226137 110.897594 395.724237 112.348128 393.142632 114.929733 
C 390.561026 117.511339 389.110492 121.013239 389.110492 124.66418 
C 389.110492 128.315121 390.561026 131.817021 393.142632 134.398626 
C 395.724237 136.980232 399.226137 138.430766 402.877078 138.430766 
z
" style="fill:#a1b8ff;stroke:#a1b8ff;"/>
    <path clip-path="url(#p9fb556ff66)" d="M 407.098463 135.522155 
C 410.81621 135.522155 414.382188 134.045078 417.011032 131.416234 
C 419.639876 128.78739 421.116953 125.221412 421.116953 121.503665 
C 421.116953 117.785918 419.639876 114.21994 417.011032 111.591096 
C 414.382188 108.962252 410.81621 107.485175 407.098463 107.485175 
C 403.380716 107.485175 399.814738 108.962252 397.185894 111.591096 
C 394.55705 114.21994 393.079973 117.785918 393.079973 121.503665 
C 393.079973 125.221412 394.55705 128.78739 397.185894 131.416234 
C 399.814738 134.045078 403.380716 135.522155 407.098463 135.522155 
z
" style="fill:#a1b8ff;stroke:#a1b8ff;"/>
   </g>
   <g id="PathCollection_2">
    <path clip-path="url(#p9fb556ff66)" d="M 110.143585 489.568807 
C 110.374655 489.568807 110.596292 489.477001 110.759684 489.31361 
C 110.923075 489.150219 111.01488 488.928581 111.01488 488.697511 
C 111.01488 488.466441 110.923075 488.244804 110.759684 488.081412 
C 110.596292 487.918021 110.374655 487.826216 110.143585 487.826216 
C 109.912515 487.826216 109.690878 487.918021 109.527486 488.081412 
C 109.364095 488.244804 109.27229 488.466441 109.27229 488.697511 
C 109.27229 488.928581 109.364095 489.150219 109.527486 489.31361 
C 109.690878 489.477001 109.912515 489.568807 110.143585 489.568807 
z
" style="fill:#9b3921;stroke:#9b3921;"/>
    <path clip-path="url(#p9fb556ff66)" d="M 110.444941 486.75628 
C 110.681645 486.75628 110.908686 486.662236 111.076061 486.494861 
C 111.243436 486.327486 111.33748 486.100445 111.33748 485.863741 
C 111.33748 485.627037 111.243436 485.399995 111.076061 485.23262 
C 110.908686 485.065245 110.681645 484.971202 110.444941 484.971202 
C 110.208236 484.971202 109.981195 485.065245 109.81382 485.23262 
C 109.646445 485.399995 109.552401 485.627037 109.552401 485.863741 
C 109.552401 486.100445 109.646445 486.327486 109.81382 486.494861 
C 109.981195 486.662236 110.208236 486.75628 110.444941 486.75628 
z
" style="fill:#9f3b22;stroke:#9f3b22;"/>
    <path clip-path="url(#p9fb556ff66)" d="M 110.754775 483.944271 
C 110.99725 483.944271 111.229827 483.847935 111.401283 483.676479 
C 111.572739 483.505022 111.669076 483.272446 111.669076 483.02997 
C 111.669076 482.787495 111.572739 482.554918 111.401283 482.383462 
C 111.229827 482.212006 110.99725 482.115669 110.754775 482.115669 
C 110.512299 482.115669 110.279722 482.212006 110.108266 482.383462 
C 109.93681 482.554918 109.840474 482.787495 109.840474 483.02997 
C 109.840474 483.272446 109.93681 483.505022 110.108266 483.676479 
C 110.279722 483.847935 110.512299 483.944271 110.754775 483.944271 
z
" style="fill:#a43d24;stroke:#a43d24;"/>
    <path clip-path="url(#p9fb556ff66)" d="M 111.073326 481.132793 
C 111.321713 481.132793 111.559961 481.034108 111.735598 480.858471 
C 111.911234 480.682835 112.009919 480.444587 112.009919 480.196199 
C 112.009919 479.947812 111.911234 479.709564 111.735598 479.533928 
C 111.559961 479.358291 111.321713 479.259606 111.073326 479.259606 
C 110.824939 479.259606 110.586691 479.358291 110.411054 479.533928 
C 110.235418 479.709564 110.136733 479.947812 110.136733 480.196199 
C 110.136733 480.444587 110.235418 480.682835 110.411054 480.858471 
C 110.586691 481.034108 110.824939 481.132793 111.073326 481.132793 
z
" style="fill:#a94025;stroke:#a94025;"/>
    <path clip-path="url(#p9fb556ff66)" d="M 111.40084 478.321858 
C 111.655283 478.321858 111.89934 478.220767 112.079259 478.040848 
C 112.259178 477.860929 112.360269 477.616873 112.360269 477.362429 
C 112.360269 477.107985 112.259178 476.863929 112.079259 476.68401 
C 111.89934 476.504091 111.655283 476.402999 111.40084 476.402999 
C 111.146396 476.402999 110.902339 476.504091 110.722421 476.68401 
C 110.542502 476.863929 110.44141 477.107985 110.44141 477.362429 
C 110.44141 477.616873 110.542502 477.860929 110.722421 478.040848 
C 110.902339 478.220767 111.146396 478.321858 111.40084 478.321858 
z
" style="fill:#ae4227;stroke:#ae4227;"/>
    <path clip-path="url(#p9fb556ff66)" d="M 111.737568 475.511481 
C 111.998215 475.511481 112.248223 475.407924 112.432528 475.223619 
C 112.616834 475.039313 112.72039 474.789306 112.72039 474.528658 
C 112.72039 474.268011 112.616834 474.018004 112.432528 473.833698 
C 112.248223 473.649392 111.998215 473.545836 111.737568 473.545836 
C 111.47692 473.545836 111.226913 473.649392 111.042608 473.833698 
C 110.858302 474.018004 110.754746 474.268011 110.754746 474.528658 
C 110.754746 474.789306 110.858302 475.039313 111.042608 475.223619 
C 111.226913 475.407924 111.47692 475.511481 111.737568 475.511481 
z
" style="fill:#b34528;stroke:#b34528;"/>
    <path clip-path="url(#p9fb556ff66)" d="M 112.08377 472.701673 
C 112.350772 472.701673 112.606875 472.595592 112.795675 472.406793 
C 112.984474 472.217993 113.090555 471.96189 113.090555 471.694888 
C 113.090555 471.427885 112.984474 471.171782 112.795675 470.982983 
C 112.606875 470.794184 112.350772 470.688102 112.08377 470.688102 
C 111.816767 470.688102 111.560664 470.794184 111.371865 470.982983 
C 111.183066 471.171782 111.076984 471.427885 111.076984 471.694888 
C 111.076984 471.96189 111.183066 472.217993 111.371865 472.406793 
C 111.560664 472.595592 111.816767 472.701673 112.08377 472.701673 
z
" style="fill:#b8472a;stroke:#b8472a;"/>
    <path clip-path="url(#p9fb556ff66)" d="M 112.439712 469.89245 
C 112.713225 469.89245 112.975572 469.783782 113.168975 469.59038 
C 113.362377 469.396977 113.471045 469.13463 113.471045 468.861117 
C 113.471045 468.587604 113.362377 468.325257 113.168975 468.131855 
C 112.975572 467.938452 112.713225 467.829784 112.439712 467.829784 
C 112.166199 467.829784 111.903852 467.938452 111.71045 468.131855 
C 111.517047 468.325257 111.408379 468.587604 111.408379 468.861117 
C 111.408379 469.13463 111.517047 469.396977 111.71045 469.59038 
C 111.903852 469.783782 112.166199 469.89245 112.439712 469.89245 
z
" style="fill:#be4a2b;stroke:#be4a2b;"/>
    <path clip-path="url(#p9fb556ff66)" d="M 112.805669 467.083825 
C 113.08585 467.083825 113.354594 466.972508 113.552712 466.77439 
C 113.75083 466.576272 113.862148 466.307528 113.862148 466.027347 
C 113.862148 465.747165 113.75083 465.478421 113.552712 465.280303 
C 113.354594 465.082185 113.08585 464.970868 112.805669 464.970868 
C 112.525487 464.970868 112.256744 465.082185 112.058625 465.280303 
C 111.860507 465.478421 111.74919 465.747165 111.74919 466.027347 
C 111.74919 466.307528 111.860507 466.576272 112.058625 466.77439 
C 112.256744 466.972508 112.525487 467.083825 112.805669 467.083825 
z
" style="fill:#c34d2d;stroke:#c34d2d;"/>
    <path clip-path="url(#p9fb556ff66)" d="M 113.181922 464.275814 
C 113.468934 464.275814 113.744231 464.161782 113.947179 463.958834 
C 114.150128 463.755885 114.264159 463.480589 114.264159 463.193576 
C 114.264159 462.906563 114.150128 462.631267 113.947179 462.428318 
C 113.744231 462.22537 113.468934 462.111338 113.181922 462.111338 
C 112.894909 462.111338 112.619613 462.22537 112.416664 462.428318 
C 112.213715 462.631267 112.099684 462.906563 112.099684 463.193576 
C 112.099684 463.480589 112.213715 463.755885 112.416664 463.958834 
C 112.619613 464.161782 112.894909 464.275814 113.181922 464.275814 
z
" style="fill:#ca502f;stroke:#ca502f;"/>
    <path clip-path="url(#p9fb556ff66)" d="M 113.56876 461.46843 
C 113.862771 461.46843 114.144779 461.351619 114.352676 461.143722 
C 114.560573 460.935825 114.677385 460.653816 114.677385 460.359805 
C 114.677385 460.065795 114.560573 459.783786 114.352676 459.575889 
C 114.144779 459.367992 113.862771 459.25118 113.56876 459.25118 
C 113.274749 459.25118 112.992741 459.367992 112.784844 459.575889 
C 112.576947 459.783786 112.460135 460.065795 112.460135 460.359805 
C 112.460135 460.653816 112.576947 460.935825 112.784844 461.143722 
C 112.992741 461.351619 113.274749 461.46843 113.56876 461.46843 
z
" style="fill:#d05331;stroke:#d05331;"/>
    <path clip-path="url(#p9fb556ff66)" d="M 113.966482 458.66169 
C 114.267662 458.66169 114.556546 458.54203 114.769512 458.329064 
C 114.982478 458.116098 115.102138 457.827214 115.102138 457.526035 
C 115.102138 457.224855 114.982478 456.935971 114.769512 456.723005 
C 114.556546 456.510039 114.267662 456.390379 113.966482 456.390379 
C 113.665303 456.390379 113.376419 456.510039 113.163453 456.723005 
C 112.950487 456.935971 112.830827 457.224855 112.830827 457.526035 
C 112.830827 457.827214 112.950487 458.116098 113.163453 458.329064 
C 113.376419 458.54203 113.665303 458.66169 113.966482 458.66169 
z
" style="fill:#d65733;stroke:#d65733;"/>
    <path clip-path="url(#p9fb556ff66)" d="M 114.375394 455.855609 
C 114.683917 455.855609 114.979845 455.733032 115.198003 455.514873 
C 115.416162 455.296715 115.538739 455.000787 115.538739 454.692264 
C 115.538739 454.383742 115.416162 454.087814 115.198003 453.869655 
C 114.979845 453.651497 114.683917 453.528919 114.375394 453.528919 
C 114.066872 453.528919 113.770944 453.651497 113.552785 453.869655 
C 113.334627 454.087814 113.212049 454.383742 113.212049 454.692264 
C 113.212049 455.000787 113.334627 455.296715 113.552785 455.514873 
C 113.770944 455.733032 114.066872 455.855609 114.375394 455.855609 
z
" style="fill:#dd5a35;stroke:#dd5a35;"/>
    <path clip-path="url(#p9fb556ff66)" d="M 114.795811 453.050203 
C 115.111856 453.050203 115.414999 452.924637 115.638477 452.70116 
C 115.861954 452.477682 115.987521 452.174539 115.987521 451.858494 
C 115.987521 451.542449 115.861954 451.239305 115.638477 451.015828 
C 115.414999 450.79235 115.111856 450.666784 114.795811 450.666784 
C 114.479766 450.666784 114.176623 450.79235 113.953145 451.015828 
C 113.729667 451.239305 113.604101 451.542449 113.604101 451.858494 
C 113.604101 452.174539 113.729667 452.477682 113.953145 452.70116 
C 114.176623 452.924637 114.479766 453.050203 114.795811 453.050203 
z
" style="fill:#e55e37;stroke:#e55e37;"/>
    <path clip-path="url(#p9fb556ff66)" d="M 115.228056 450.245489 
C 115.551807 450.245489 115.862341 450.116861 116.091268 449.887935 
C 116.320194 449.659008 116.448822 449.348474 116.448822 449.024723 
C 116.448822 448.700972 116.320194 448.390438 116.091268 448.161511 
C 115.862341 447.932585 115.551807 447.803957 115.228056 447.803957 
C 114.904305 447.803957 114.593771 447.932585 114.364844 448.161511 
C 114.135918 448.390438 114.00729 448.700972 114.00729 449.024723 
C 114.00729 449.348474 114.135918 449.659008 114.364844 449.887935 
C 114.593771 450.116861 114.904305 450.245489 115.228056 450.245489 
z
" style="fill:#ec6239;stroke:#ec6239;"/>
    <path clip-path="url(#p9fb556ff66)" d="M 115.672462 447.441483 
C 116.004107 447.441483 116.322213 447.309719 116.556721 447.075211 
C 116.791229 446.840703 116.922993 446.522597 116.922993 446.190952 
C 116.922993 445.859308 116.791229 445.541202 116.556721 445.306694 
C 116.322213 445.072186 116.004107 444.940422 115.672462 444.940422 
C 115.340818 444.940422 115.022712 445.072186 114.788204 445.306694 
C 114.553695 445.541202 114.421932 445.859308 114.421932 446.190952 
C 114.421932 446.522597 114.553695 446.840703 114.788204 447.075211 
C 115.022712 447.309719 115.340818 447.441483 115.672462 447.441483 
z
" style="fill:#f4653c;stroke:#f4653c;"/>
    <path clip-path="url(#p9fb556ff66)" d="M 116.129372 444.638203 
C 116.469102 444.638203 116.794964 444.503226 117.03519 444.263 
C 117.275416 444.022775 117.410392 443.696913 117.410392 443.357182 
C 117.410392 443.017451 117.275416 442.691589 117.03519 442.451363 
C 116.794964 442.211137 116.469102 442.076161 116.129372 442.076161 
C 115.789641 442.076161 115.463779 442.211137 115.223553 442.451363 
C 114.983327 442.691589 114.848351 443.017451 114.848351 443.357182 
C 114.848351 443.696913 114.983327 444.022775 115.223553 444.263 
C 115.463779 444.503226 115.789641 444.638203 116.129372 444.638203 
z
" style="fill:#fc6a3e;stroke:#fc6a3e;"/>
    <path clip-path="url(#p9fb556ff66)" d="M 116.599136 441.835666 
C 116.94715 441.835666 117.280957 441.697399 117.52704 441.451315 
C 117.773123 441.205232 117.911391 440.871425 117.911391 440.523411 
C 117.911391 440.175397 117.773123 439.84159 117.52704 439.595507 
C 117.280957 439.349424 116.94715 439.211157 116.599136 439.211157 
C 116.251122 439.211157 115.917315 439.349424 115.671232 439.595507 
C 115.425149 439.84159 115.286881 440.175397 115.286881 440.523411 
C 115.286881 440.871425 115.425149 441.205232 115.671232 441.451315 
C 115.917315 441.697399 116.251122 441.835666 116.599136 441.835666 
z
" style="fill:#ff6f42;stroke:#ff6f42;"/>
    <path clip-path="url(#p9fb556ff66)" d="M 117.082117 439.033891 
C 117.438616 439.033891 117.780562 438.892252 118.032646 438.640169 
C 118.284729 438.388086 118.426367 438.04614 118.426367 437.689641 
C 118.426367 437.333141 118.284729 436.991195 118.032646 436.739112 
C 117.780562 436.487029 117.438616 436.345391 117.082117 436.345391 
C 116.725618 436.345391 116.383672 436.487029 116.131589 436.739112 
C 115.879506 436.991195 115.737867 437.333141 115.737867 437.689641 
C 115.737867 438.04614 115.879506 438.388086 116.131589 438.640169 
C 116.383672 438.892252 116.725618 439.033891 117.082117 439.033891 
z
" style="fill:#ff7546;stroke:#ff7546;"/>
    <path clip-path="url(#p9fb556ff66)" d="M 117.578687 436.232896 
C 117.943878 436.232896 118.294162 436.087804 118.552391 435.829574 
C 118.81062 435.571345 118.955713 435.221062 118.955713 434.85587 
C 118.955713 434.490679 118.81062 434.140395 118.552391 433.882166 
C 118.294162 433.623937 117.943878 433.478845 117.578687 433.478845 
C 117.213496 433.478845 116.863212 433.623937 116.604983 433.882166 
C 116.346754 434.140395 116.201661 434.490679 116.201661 434.85587 
C 116.201661 435.221062 116.346754 435.571345 116.604983 435.829574 
C 116.863212 436.087804 117.213496 436.232896 117.578687 436.232896 
z
" style="fill:#ff7c4b;stroke:#ff7c4b;"/>
    <path clip-path="url(#p9fb556ff66)" d="M 118.089228 433.4327 
C 118.463323 433.4327 118.822147 433.28407 119.086673 433.019544 
C 119.351198 432.755019 119.499828 432.396195 119.499828 432.022099 
C 119.499828 431.648004 119.351198 431.28918 119.086673 431.024655 
C 118.822147 430.760129 118.463323 430.611499 118.089228 430.611499 
C 117.715132 430.611499 117.356308 430.760129 117.091783 431.024655 
C 116.827257 431.28918 116.678627 431.648004 116.678627 432.022099 
C 116.678627 432.396195 116.827257 432.755019 117.091783 433.019544 
C 117.356308 433.28407 117.715132 433.4327 118.089228 433.4327 
z
" style="fill:#ff8350;stroke:#ff8350;"/>
    <path clip-path="url(#p9fb556ff66)" d="M 118.614132 430.633322 
C 118.997349 430.633322 119.364922 430.481069 119.635897 430.210094 
C 119.906872 429.939118 120.059126 429.571546 120.059126 429.188329 
C 120.059126 428.805112 119.906872 428.437539 119.635897 428.166564 
C 119.364922 427.895589 118.997349 427.743335 118.614132 427.743335 
C 118.230916 427.743335 117.863343 427.895589 117.592368 428.166564 
C 117.321392 428.437539 117.169139 428.805112 117.169139 429.188329 
C 117.169139 429.571546 117.321392 429.939118 117.592368 430.210094 
C 117.863343 430.481069 118.230916 430.633322 118.614132 430.633322 
z
" style="fill:#ff8a55;stroke:#ff8a55;"/>
    <path clip-path="url(#p9fb556ff66)" d="M 119.153805 427.834784 
C 119.546365 427.834784 119.9229 427.678818 120.200482 427.401236 
C 120.478064 427.123654 120.63403 426.747119 120.63403 426.354558 
C 120.63403 425.961998 120.478064 425.585463 120.200482 425.307881 
C 119.9229 425.030299 119.546365 424.874333 119.153805 424.874333 
C 118.761245 424.874333 118.38471 425.030299 118.107128 425.307881 
C 117.829546 425.585463 117.67358 425.961998 117.67358 426.354558 
C 117.67358 426.747119 117.829546 427.123654 118.107128 427.401236 
C 118.38471 427.678818 118.761245 427.834784 119.153805 427.834784 
z
" style="fill:#ff915a;stroke:#ff915a;"/>
    <path clip-path="url(#p9fb556ff66)" d="M 119.708661 425.037104 
C 120.110793 425.037104 120.496509 424.877335 120.780859 424.592985 
C 121.065209 424.308635 121.224977 423.922919 121.224977 423.520788 
C 121.224977 423.118656 121.065209 422.73294 120.780859 422.44859 
C 120.496509 422.16424 120.110793 422.004472 119.708661 422.004472 
C 119.30653 422.004472 118.920814 422.16424 118.636464 422.44859 
C 118.352114 422.73294 118.192345 423.118656 118.192345 423.520788 
C 118.192345 423.922919 118.352114 424.308635 118.636464 424.592985 
C 118.920814 424.877335 119.30653 425.037104 119.708661 425.037104 
z
" style="fill:#ff9960;stroke:#ff9960;"/>
    <path clip-path="url(#p9fb556ff66)" d="M 120.279128 422.240304 
C 120.691065 422.240304 121.086185 422.07664 121.377468 421.785357 
C 121.668751 421.494074 121.832415 421.098954 121.832415 420.687017 
C 121.832415 420.275081 121.668751 419.879961 121.377468 419.588678 
C 121.086185 419.297394 120.691065 419.13373 120.279128 419.13373 
C 119.867192 419.13373 119.472072 419.297394 119.180789 419.588678 
C 118.889506 419.879961 118.725842 420.275081 118.725842 420.687017 
C 118.725842 421.098954 118.889506 421.494074 119.180789 421.785357 
C 119.472072 422.07664 119.867192 422.240304 120.279128 422.240304 
z
" style="fill:#ffa165;stroke:#ffa165;"/>
    <path clip-path="url(#p9fb556ff66)" d="M 120.865645 419.444406 
C 121.287626 419.444406 121.69238 419.276751 121.990765 418.978366 
C 122.28915 418.679981 122.456804 418.275227 122.456804 417.853247 
C 122.456804 417.431266 122.28915 417.026512 121.990765 416.728127 
C 121.69238 416.429742 121.287626 416.262088 120.865645 416.262088 
C 120.443665 416.262088 120.038911 416.429742 119.740526 416.728127 
C 119.442141 417.026512 119.274486 417.431266 119.274486 417.853247 
C 119.274486 418.275227 119.442141 418.679981 119.740526 418.978366 
C 120.038911 419.276751 120.443665 419.444406 120.865645 419.444406 
z
" style="fill:#ffa96b;stroke:#ffa96b;"/>
    <path clip-path="url(#p9fb556ff66)" d="M 121.468664 416.649431 
C 121.900933 416.649431 122.315556 416.477688 122.621216 416.172028 
C 122.926876 415.866368 123.098619 415.451745 123.098619 415.019476 
C 123.098619 414.587207 122.926876 414.172584 122.621216 413.866924 
C 122.315556 413.561264 121.900933 413.389521 121.468664 413.389521 
C 121.036395 413.389521 120.621772 413.561264 120.316112 413.866924 
C 120.010452 414.172584 119.838709 414.587207 119.838709 415.019476 
C 119.838709 415.451745 120.010452 415.866368 120.316112 416.172028 
C 120.621772 416.477688 121.036395 416.649431 121.468664 416.649431 
z
" style="fill:#ffb171;stroke:#ffb171;"/>
    <path clip-path="url(#p9fb556ff66)" d="M 122.088648 413.855402 
C 122.531457 413.855402 122.956189 413.679472 123.269302 413.366359 
C 123.582415 413.053246 123.758344 412.628514 123.758344 412.185705 
C 123.758344 411.742897 123.582415 411.318165 123.269302 411.005052 
C 122.956189 410.691939 122.531457 410.516009 122.088648 410.516009 
C 121.64584 410.516009 121.221108 410.691939 120.907995 411.005052 
C 120.594882 411.318165 120.418952 411.742897 120.418952 412.185705 
C 120.418952 412.628514 120.594882 413.053246 120.907995 413.366359 
C 121.221108 413.679472 121.64584 413.855402 122.088648 413.855402 
z
" style="fill:#ffb474;stroke:#ffb474;"/>
    <path clip-path="url(#p9fb556ff66)" d="M 122.726076 411.062341 
C 123.179681 411.062341 123.614769 410.882122 123.935516 410.561375 
C 124.256263 410.240628 124.436482 409.80554 124.436482 409.351935 
C 124.436482 408.89833 124.256263 408.463242 123.935516 408.142495 
C 123.614769 407.821747 123.179681 407.641528 122.726076 407.641528 
C 122.272471 407.641528 121.837383 407.821747 121.516636 408.142495 
C 121.195888 408.463242 121.015669 408.89833 121.015669 409.351935 
C 121.015669 409.80554 121.195888 410.240628 121.516636 410.561375 
C 121.837383 410.882122 122.272471 411.062341 122.726076 411.062341 
z
" style="fill:#ffb777;stroke:#ffb777;"/>
    <path clip-path="url(#p9fb556ff66)" d="M 123.381437 408.270274 
C 123.846102 408.270274 124.291798 408.085661 124.620366 407.757093 
C 124.948934 407.428525 125.133547 406.982829 125.133547 406.518164 
C 125.133547 406.053499 124.948934 405.607803 124.620366 405.279236 
C 124.291798 404.950668 123.846102 404.766054 123.381437 404.766054 
C 122.916772 404.766054 122.471076 404.950668 122.142509 405.279236 
C 121.813941 405.607803 121.629328 406.053499 121.629328 406.518164 
C 121.629328 406.982829 121.813941 407.428525 122.142509 407.757093 
C 122.471076 408.085661 122.916772 408.270274 123.381437 408.270274 
z
" style="fill:#ffb979;stroke:#ffb979;"/>
    <path clip-path="url(#p9fb556ff66)" d="M 124.055237 405.479223 
C 124.531232 405.479223 124.987794 405.290109 125.324373 404.95353 
C 125.660952 404.616951 125.850067 404.160388 125.850067 403.684394 
C 125.850067 403.208399 125.660952 402.751836 125.324373 402.415257 
C 124.987794 402.078679 124.531232 401.889564 124.055237 401.889564 
C 123.579243 401.889564 123.12268 402.078679 122.786101 402.415257 
C 122.449522 402.751836 122.260407 403.208399 122.260407 403.684394 
C 122.260407 404.160388 122.449522 404.616951 122.786101 404.95353 
C 123.12268 405.290109 123.579243 405.479223 124.055237 405.479223 
z
" style="fill:#ffbb7b;stroke:#ffbb7b;"/>
    <path clip-path="url(#p9fb556ff66)" d="M 124.747994 402.689214 
C 125.235594 402.689214 125.703289 402.495489 126.048074 402.150703 
C 126.39286 401.805918 126.586585 401.338223 126.586585 400.850623 
C 126.586585 400.363023 126.39286 399.895328 126.048074 399.550543 
C 125.703289 399.205757 125.235594 399.012032 124.747994 399.012032 
C 124.260394 399.012032 123.792699 399.205757 123.447914 399.550543 
C 123.103129 399.895328 122.909403 400.363023 122.909403 400.850623 
C 122.909403 401.338223 123.103129 401.805918 123.447914 402.150703 
C 123.792699 402.495489 124.260394 402.689214 124.747994 402.689214 
z
" style="fill:#ffbb7b;stroke:#ffbb7b;"/>
    <path clip-path="url(#p9fb556ff66)" d="M 125.460242 399.900272 
C 125.959731 399.900272 126.438829 399.701823 126.792021 399.348631 
C 127.145213 398.995439 127.343662 398.516341 127.343662 398.016852 
C 127.343662 397.517364 127.145213 397.038266 126.792021 396.685074 
C 126.438829 396.331882 125.959731 396.133433 125.460242 396.133433 
C 124.960753 396.133433 124.481655 396.331882 124.128463 396.685074 
C 123.775271 397.038266 123.576822 397.517364 123.576822 398.016852 
C 123.576822 398.516341 123.775271 398.995439 124.128463 399.348631 
C 124.481655 399.701823 124.960753 399.900272 125.460242 399.900272 
z
" style="fill:#ffbb7b;stroke:#ffbb7b;"/>
    <path clip-path="url(#p9fb556ff66)" d="M 126.192529 397.112423 
C 126.704196 397.112423 127.194975 396.909135 127.556779 396.547332 
C 127.918582 396.185529 128.12187 395.694749 128.12187 395.183082 
C 128.12187 394.671415 127.918582 394.180635 127.556779 393.818832 
C 127.194975 393.457028 126.704196 393.253741 126.192529 393.253741 
C 125.680861 393.253741 125.190082 393.457028 124.828278 393.818832 
C 124.466475 394.180635 124.263187 394.671415 124.263187 395.183082 
C 124.263187 395.694749 124.466475 396.185529 124.828278 396.547332 
C 125.190082 396.909135 125.680861 397.112423 126.192529 397.112423 
z
" style="fill:#ffbb7b;stroke:#ffbb7b;"/>
    <path clip-path="url(#p9fb556ff66)" d="M 126.945418 394.325694 
C 127.469561 394.325694 127.972306 394.117449 128.342931 393.746825 
C 128.713556 393.3762 128.9218 392.873454 128.9218 392.349311 
C 128.9218 391.825169 128.713556 391.322423 128.342931 390.951798 
C 127.972306 390.581173 127.469561 390.372929 126.945418 390.372929 
C 126.421275 390.372929 125.918529 390.581173 125.547905 390.951798 
C 125.17728 391.322423 124.969036 391.825169 124.969036 392.349311 
C 124.969036 392.873454 125.17728 393.3762 125.547905 393.746825 
C 125.918529 394.117449 126.421275 394.325694 126.945418 394.325694 
z
" style="fill:#ffbc7c;stroke:#ffbc7c;"/>
    <path clip-path="url(#p9fb556ff66)" d="M 127.71949 391.540111 
C 128.256412 391.540111 128.771416 391.32679 129.151077 390.947128 
C 129.530738 390.567467 129.74406 390.052463 129.74406 389.515541 
C 129.74406 388.978618 129.530738 388.463615 129.151077 388.083953 
C 128.771416 387.704292 128.256412 387.49097 127.71949 387.49097 
C 127.182567 387.49097 126.667564 387.704292 126.287902 388.083953 
C 125.908241 388.463615 125.694919 388.978618 125.694919 389.515541 
C 125.694919 390.052463 125.908241 390.567467 126.287902 390.947128 
C 126.667564 391.32679 127.182567 391.540111 127.71949 391.540111 
z
" style="fill:#ffbc7d;stroke:#ffbc7d;"/>
    <path clip-path="url(#p9fb556ff66)" d="M 128.51534 388.755704 
C 129.065353 388.755704 129.592914 388.537181 129.981832 388.148262 
C 130.37075 387.759344 130.589273 387.231784 130.589273 386.68177 
C 130.589273 386.131757 130.37075 385.604196 129.981832 385.215278 
C 129.592914 384.826359 129.065353 384.607837 128.51534 384.607837 
C 127.965326 384.607837 127.437766 384.826359 127.048847 385.215278 
C 126.659929 385.604196 126.441406 386.131757 126.441406 386.68177 
C 126.441406 387.231784 126.659929 387.759344 127.048847 388.148262 
C 127.437766 388.537181 127.965326 388.755704 128.51534 388.755704 
z
" style="fill:#ffbd7d;stroke:#ffbd7d;"/>
    <path clip-path="url(#p9fb556ff66)" d="M 129.333581 385.9725 
C 129.897005 385.9725 130.437428 385.748649 130.835829 385.350248 
C 131.23423 384.951847 131.458081 384.411423 131.458081 383.847999 
C 131.458081 383.284576 131.23423 382.744152 130.835829 382.345751 
C 130.437428 381.94735 129.897005 381.723499 129.333581 381.723499 
C 128.770157 381.723499 128.229733 381.94735 127.831332 382.345751 
C 127.432932 382.744152 127.209081 383.284576 127.209081 383.847999 
C 127.209081 384.411423 127.432932 384.951847 127.831332 385.350248 
C 128.229733 385.748649 128.770157 385.9725 129.333581 385.9725 
z
" style="fill:#ffbd7e;stroke:#ffbd7e;"/>
    <path clip-path="url(#p9fb556ff66)" d="M 130.174843 383.190528 
C 130.752004 383.190528 131.305605 382.96122 131.713719 382.553105 
C 132.121834 382.14499 132.351143 381.59139 132.351143 381.014229 
C 132.351143 380.437068 132.121834 379.883467 131.713719 379.475353 
C 131.305605 379.067238 130.752004 378.837929 130.174843 378.837929 
C 129.597682 378.837929 129.044082 379.067238 128.635967 379.475353 
C 128.227852 379.883467 127.998544 380.437068 127.998544 381.014229 
C 127.998544 381.59139 128.227852 382.14499 128.635967 382.553105 
C 129.044082 382.96122 129.597682 383.190528 130.174843 383.190528 
z
" style="fill:#ffbe7f;stroke:#ffbe7f;"/>
    <path clip-path="url(#p9fb556ff66)" d="M 131.039774 380.40982 
C 131.631008 380.40982 132.198106 380.174921 132.616171 379.756855 
C 133.034236 379.33879 133.269136 378.771692 133.269136 378.180458 
C 133.269136 377.589225 133.034236 377.022127 132.616171 376.604061 
C 132.198106 376.185996 131.631008 375.951096 131.039774 375.951096 
C 130.44854 375.951096 129.881442 376.185996 129.463377 376.604061 
C 129.045312 377.022127 128.810412 377.589225 128.810412 378.180458 
C 128.810412 378.771692 129.045312 379.33879 129.463377 379.756855 
C 129.881442 380.174921 130.44854 380.40982 131.039774 380.40982 
z
" style="fill:#ffc083;stroke:#ffc083;"/>
    <path clip-path="url(#p9fb556ff66)" d="M 131.92904 377.630406 
C 132.534689 377.630406 133.115614 377.389779 133.543872 376.96152 
C 133.972131 376.533262 134.212758 375.952337 134.212758 375.346688 
C 134.212758 374.741039 133.972131 374.160114 133.543872 373.731855 
C 133.115614 373.303596 132.534689 373.062969 131.92904 373.062969 
C 131.32339 373.062969 130.742466 373.303596 130.314207 373.731855 
C 129.885948 374.160114 129.645321 374.741039 129.645321 375.346688 
C 129.645321 375.952337 129.885948 376.533262 130.314207 376.96152 
C 130.742466 377.389779 131.32339 377.630406 131.92904 377.630406 
z
" style="fill:#ffc287;stroke:#ffc287;"/>
    <path clip-path="url(#p9fb556ff66)" d="M 132.843325 374.852317 
C 133.463741 374.852317 134.05883 374.605823 134.49753 374.167123 
C 134.936231 373.728422 135.182724 373.133333 135.182724 372.512917 
C 135.182724 371.892501 134.936231 371.297412 134.49753 370.858712 
C 134.05883 370.420011 133.463741 370.173517 132.843325 370.173517 
C 132.222908 370.173517 131.62782 370.420011 131.189119 370.858712 
C 130.750419 371.297412 130.503925 371.892501 130.503925 372.512917 
C 130.503925 373.133333 130.750419 373.728422 131.189119 374.167123 
C 131.62782 374.605823 132.222908 374.852317 132.843325 374.852317 
z
" style="fill:#ffc48b;stroke:#ffc48b;"/>
    <path clip-path="url(#p9fb556ff66)" d="M 133.783333 372.075586 
C 134.418876 372.075586 135.028474 371.823082 135.477871 371.373685 
C 135.927268 370.924288 136.179772 370.31469 136.179772 369.679147 
C 136.179772 369.043603 135.927268 368.434005 135.477871 367.984608 
C 135.028474 367.535211 134.418876 367.282708 133.783333 367.282708 
C 133.14779 367.282708 132.538191 367.535211 132.088794 367.984608 
C 131.639398 368.434005 131.386894 369.043603 131.386894 369.679147 
C 131.386894 370.31469 131.639398 370.924288 132.088794 371.373685 
C 132.538191 371.823082 133.14779 372.075586 133.783333 372.075586 
z
" style="fill:#ffc68f;stroke:#ffc68f;"/>
    <path clip-path="url(#p9fb556ff66)" d="M 134.749788 369.300245 
C 135.400827 369.300245 136.025288 369.041584 136.485642 368.58123 
C 136.945996 368.120876 137.204657 367.496415 137.204657 366.845376 
C 137.204657 366.194337 136.945996 365.569875 136.485642 365.109521 
C 136.025288 364.649167 135.400827 364.390507 134.749788 364.390507 
C 134.098749 364.390507 133.474287 364.649167 133.013933 365.109521 
C 132.553579 365.569875 132.294919 366.194337 132.294919 366.845376 
C 132.294919 367.496415 132.553579 368.120876 133.013933 368.58123 
C 133.474287 369.041584 134.098749 369.300245 134.749788 369.300245 
z
" style="fill:#ffc996;stroke:#ffc996;"/>
    <path clip-path="url(#p9fb556ff66)" d="M 135.743434 366.526329 
C 136.410346 366.526329 137.050034 366.261362 137.521612 365.789783 
C 137.99319 365.318205 138.258157 364.678518 138.258157 364.011605 
C 138.258157 363.344693 137.99319 362.705006 137.521612 362.233427 
C 137.050034 361.761849 136.410346 361.496882 135.743434 361.496882 
C 135.076521 361.496882 134.436834 361.761849 133.965256 362.233427 
C 133.493678 362.705006 133.22871 363.344693 133.22871 364.011605 
C 133.22871 364.678518 133.493678 365.318205 133.965256 365.789783 
C 134.436834 366.261362 135.076521 366.526329 135.743434 366.526329 
z
" style="fill:#ffce9e;stroke:#ffce9e;"/>
    <path clip-path="url(#p9fb556ff66)" d="M 136.765036 363.753872 
C 137.448209 363.753872 138.103493 363.482445 138.58657 362.999368 
C 139.069646 362.516292 139.341074 361.861008 139.341074 361.177835 
C 139.341074 360.494662 139.069646 359.839378 138.58657 359.356301 
C 138.103493 358.873225 137.448209 358.601797 136.765036 358.601797 
C 136.081863 358.601797 135.426579 358.873225 134.943503 359.356301 
C 134.460426 359.839378 134.188999 360.494662 134.188999 361.177835 
C 134.188999 361.861008 134.460426 362.516292 134.943503 362.999368 
C 135.426579 363.482445 136.081863 363.753872 136.765036 363.753872 
z
" style="fill:#ffd3a7;stroke:#ffd3a7;"/>
    <path clip-path="url(#p9fb556ff66)" d="M 137.815381 360.982911 
C 138.515211 360.982911 139.186472 360.704865 139.681327 360.21001 
C 140.176182 359.715156 140.454227 359.043894 140.454227 358.344064 
C 140.454227 357.644234 140.176182 356.972973 139.681327 356.478118 
C 139.186472 355.983263 138.515211 355.705218 137.815381 355.705218 
C 137.115551 355.705218 136.444289 355.983263 135.949435 356.478118 
C 135.45458 356.972973 135.176534 357.644234 135.176534 358.344064 
C 135.176534 359.043894 135.45458 359.715156 135.949435 360.21001 
C 136.444289 360.704865 137.115551 360.982911 137.815381 360.982911 
z
" style="fill:#ffd8af;stroke:#ffd8af;"/>
    <path clip-path="url(#p9fb556ff66)" d="M 138.895277 358.21348 
C 139.61217 358.21348 140.299798 357.928655 140.806718 357.421735 
C 141.313639 356.914815 141.598463 356.227187 141.598463 355.510294 
C 141.598463 354.7934 141.313639 354.105772 140.806718 353.598852 
C 140.299798 353.091932 139.61217 352.807107 138.895277 352.807107 
C 138.178383 352.807107 137.490755 353.091932 136.983835 353.598852 
C 136.476915 354.105772 136.19209 354.7934 136.19209 355.510294 
C 136.19209 356.227187 136.476915 356.914815 136.983835 357.421735 
C 137.490755 357.928655 138.178383 358.21348 138.895277 358.21348 
z
" style="fill:#ffdcb6;stroke:#ffdcb6;"/>
    <path clip-path="url(#p9fb556ff66)" d="M 140.005555 355.445619 
C 140.739928 355.445619 141.444322 355.153849 141.963602 354.634569 
C 142.482882 354.115289 142.774651 353.410896 142.774651 352.676523 
C 142.774651 351.94215 142.482882 351.237757 141.963602 350.718477 
C 141.444322 350.199197 140.739928 349.907427 140.005555 349.907427 
C 139.271183 349.907427 138.566789 350.199197 138.047509 350.718477 
C 137.528229 351.237757 137.23646 351.94215 137.23646 352.676523 
C 137.23646 353.410896 137.528229 354.115289 138.047509 354.634569 
C 138.566789 355.153849 139.271183 355.445619 140.005555 355.445619 
z
" style="fill:#ffe0be;stroke:#ffe0be;"/>
    <path clip-path="url(#p9fb556ff66)" d="M 141.147071 352.679364 
C 141.89935 352.679364 142.620918 352.380481 143.152859 351.84854 
C 143.6848 351.316599 143.983683 350.595031 143.983683 349.842752 
C 143.983683 349.090474 143.6848 348.368906 143.152859 347.836965 
C 142.620918 347.305024 141.89935 347.006141 141.147071 347.006141 
C 140.394793 347.006141 139.673225 347.305024 139.141284 347.836965 
C 138.609343 348.368906 138.31046 349.090474 138.31046 349.842752 
C 138.31046 350.595031 138.609343 351.316599 139.141284 351.84854 
C 139.673225 352.380481 140.394793 352.679364 141.147071 352.679364 
z
" style="fill:#ffe4c5;stroke:#ffe4c5;"/>
   </g>
   <g id="PathCollection_3">
    <path clip-path="url(#p9fb556ff66)" d="M 410.080589 134.14733 
C 413.832021 134.14733 417.430309 132.656871 420.082971 130.004208 
C 422.735634 127.351545 424.226093 123.753258 424.226093 120.001826 
C 424.226093 116.250395 422.735634 112.652107 420.082971 109.999444 
C 417.430309 107.346782 413.832021 105.856322 410.080589 105.856322 
C 406.329158 105.856322 402.73087 107.346782 400.078208 109.999444 
C 397.425545 112.652107 395.935085 116.250395 395.935085 120.001826 
C 395.935085 123.753258 397.425545 127.351545 400.078208 130.004208 
C 402.73087 132.656871 406.329158 134.14733 410.080589 134.14733 
z
" style="fill:#a1b8ff;stroke:#a1b8ff;"/>
    <path clip-path="url(#p9fb556ff66)" d="M 430.689543 120.735244 
C 434.759954 120.735244 438.6642 119.118053 441.542415 116.239837 
C 444.420631 113.361622 446.037822 109.457376 446.037822 105.386965 
C 446.037822 101.316553 444.420631 97.412307 441.542415 94.534092 
C 438.6642 91.655876 434.759954 90.038685 430.689543 90.038685 
C 426.619131 90.038685 422.714886 91.655876 419.83667 94.534092 
C 416.958455 97.412307 415.341263 101.316553 415.341263 105.386965 
C 415.341263 109.457376 416.958455 113.361622 419.83667 116.239837 
C 422.714886 119.118053 426.619131 120.735244 430.689543 120.735244 
z
" style="fill:#a0b7ff;stroke:#a0b7ff;"/>
    <path clip-path="url(#p9fb556ff66)" d="M 452.665731 107.425429 
C 457.082245 107.425429 461.318464 105.67073 464.441411 102.547783 
C 467.564358 99.424836 469.319057 95.188617 469.319057 90.772103 
C 469.319057 86.355589 467.564358 82.11937 464.441411 78.996423 
C 461.318464 75.873477 457.082245 74.118777 452.665731 74.118777 
C 448.249217 74.118777 444.012998 75.873477 440.890051 78.996423 
C 437.767104 82.11937 436.012405 86.355589 436.012405 90.772103 
C 436.012405 95.188617 437.767104 99.424836 440.890051 102.547783 
C 444.012998 105.67073 448.249217 107.425429 452.665731 107.425429 
z
" style="fill:#9fb6ff;stroke:#9fb6ff;"/>
    <path clip-path="url(#p9fb556ff66)" d="M 476.099859 94.226581 
C 480.891904 94.226581 485.488324 92.322681 488.876811 88.934194 
C 492.265298 85.545706 494.169198 80.949286 494.169198 76.157242 
C 494.169198 71.365197 492.265298 66.768777 488.876811 63.38029 
C 485.488324 59.991802 480.891904 58.087903 476.099859 58.087903 
C 471.307814 58.087903 466.711394 59.991802 463.322907 63.38029 
C 459.934419 66.768777 458.03052 71.365197 458.03052 76.157242 
C 458.03052 80.949286 459.934419 85.545706 463.322907 88.934194 
C 466.711394 92.322681 471.307814 94.226581 476.099859 94.226581 
z
" style="fill:#9db4ff;stroke:#9db4ff;"/>
    <path clip-path="url(#p9fb556ff66)" d="M 501.088649 81.148134 
C 506.288155 81.148134 511.275404 79.082348 514.95201 75.405742 
C 518.628617 71.729135 520.694403 66.741887 520.694403 61.54238 
C 520.694403 56.342873 518.628617 51.355625 514.95201 47.679019 
C 511.275404 44.002412 506.288155 41.936626 501.088649 41.936626 
C 495.889142 41.936626 490.901894 44.002412 487.225287 47.679019 
C 483.548681 51.355625 481.482895 56.342873 481.482895 61.54238 
C 481.482895 66.741887 483.548681 71.729135 487.225287 75.405742 
C 490.901894 79.082348 495.889142 81.148134 501.088649 81.148134 
z
" style="fill:#9cb3ff;stroke:#9cb3ff;"/>
   </g>
   <g id="matplotlib.axis_1">
    <g id="xtick_1">
     <g id="line2d_1">
      <defs>
       <path d="M 0 0 
L 0 3.5 
" id="m765203c670" style="stroke:#000000;stroke-width:0.8;"/>
      </defs>
      <g>
       <use style="stroke:#000000;stroke-width:0.8;" x="99.432451" xlink:href="#m765203c670" y="511"/>
      </g>
     </g>
     <g id="text_1">
      <!-- 0 -->
      <defs>
       <path d="M 31.78125 66.40625 
Q 24.171875 66.40625 20.328125 58.90625 
Q 16.5 51.421875 16.5 36.375 
Q 16.5 21.390625 20.328125 13.890625 
Q 24.171875 6.390625 31.78125 6.390625 
Q 39.453125 6.390625 43.28125 13.890625 
Q 47.125 21.390625 47.125 36.375 
Q 47.125 51.421875 43.28125 58.90625 
Q 39.453125 66.40625 31.78125 66.40625 
z
M 31.78125 74.21875 
Q 44.046875 74.21875 50.515625 64.515625 
Q 56.984375 54.828125 56.984375 36.375 
Q 56.984375 17.96875 50.515625 8.265625 
Q 44.046875 -1.421875 31.78125 -1.421875 
Q 19.53125 -1.421875 13.0625 8.265625 
Q 6.59375 17.96875 6.59375 36.375 
Q 6.59375 54.828125 13.0625 64.515625 
Q 19.53125 74.21875 31.78125 74.21875 
z
" id="DejaVuSans-30"/>
      </defs>
      <g transform="translate(93.706201 531.677187)scale(0.18 -0.18)">
       <use xlink:href="#DejaVuSans-30"/>
      </g>
     </g>
    </g>
    <g id="xtick_2">
     <g id="line2d_2">
      <g>
       <use style="stroke:#000000;stroke-width:0.8;" x="185.151963" xlink:href="#m765203c670" y="511"/>
      </g>
     </g>
     <g id="text_2">
      <!-- 10000 -->
      <defs>
       <path d="M 12.40625 8.296875 
L 28.515625 8.296875 
L 28.515625 63.921875 
L 10.984375 60.40625 
L 10.984375 69.390625 
L 28.421875 72.90625 
L 38.28125 72.90625 
L 38.28125 8.296875 
L 54.390625 8.296875 
L 54.390625 0 
L 12.40625 0 
z
" id="DejaVuSans-31"/>
      </defs>
      <g transform="translate(156.520713 531.677187)scale(0.18 -0.18)">
       <use xlink:href="#DejaVuSans-31"/>
       <use x="63.623047" xlink:href="#DejaVuSans-30"/>
       <use x="127.246094" xlink:href="#DejaVuSans-30"/>
       <use x="190.869141" xlink:href="#DejaVuSans-30"/>
       <use x="254.492188" xlink:href="#DejaVuSans-30"/>
      </g>
     </g>
    </g>
    <g id="xtick_3">
     <g id="line2d_3">
      <g>
       <use style="stroke:#000000;stroke-width:0.8;" x="270.871475" xlink:href="#m765203c670" y="511"/>
      </g>
     </g>
     <g id="text_3">
      <!-- 20000 -->
      <defs>
       <path d="M 19.1875 8.296875 
L 53.609375 8.296875 
L 53.609375 0 
L 7.328125 0 
L 7.328125 8.296875 
Q 12.9375 14.109375 22.625 23.890625 
Q 32.328125 33.6875 34.8125 36.53125 
Q 39.546875 41.84375 41.421875 45.53125 
Q 43.3125 49.21875 43.3125 52.78125 
Q 43.3125 58.59375 39.234375 62.25 
Q 35.15625 65.921875 28.609375 65.921875 
Q 23.96875 65.921875 18.8125 64.3125 
Q 13.671875 62.703125 7.8125 59.421875 
L 7.8125 69.390625 
Q 13.765625 71.78125 18.9375 73 
Q 24.125 74.21875 28.421875 74.21875 
Q 39.75 74.21875 46.484375 68.546875 
Q 53.21875 62.890625 53.21875 53.421875 
Q 53.21875 48.921875 51.53125 44.890625 
Q 49.859375 40.875 45.40625 35.40625 
Q 44.1875 33.984375 37.640625 27.21875 
Q 31.109375 20.453125 19.1875 8.296875 
z
" id="DejaVuSans-32"/>
      </defs>
      <g transform="translate(242.240225 531.677187)scale(0.18 -0.18)">
       <use xlink:href="#DejaVuSans-32"/>
       <use x="63.623047" xlink:href="#DejaVuSans-30"/>
       <use x="127.246094" xlink:href="#DejaVuSans-30"/>
       <use x="190.869141" xlink:href="#DejaVuSans-30"/>
       <use x="254.492188" xlink:href="#DejaVuSans-30"/>
      </g>
     </g>
    </g>
    <g id="xtick_4">
     <g id="line2d_4">
      <g>
       <use style="stroke:#000000;stroke-width:0.8;" x="356.590986" xlink:href="#m765203c670" y="511"/>
      </g>
     </g>
     <g id="text_4">
      <!-- 30000 -->
      <defs>
       <path d="M 40.578125 39.3125 
Q 47.65625 37.796875 51.625 33 
Q 55.609375 28.21875 55.609375 21.1875 
Q 55.609375 10.40625 48.1875 4.484375 
Q 40.765625 -1.421875 27.09375 -1.421875 
Q 22.515625 -1.421875 17.65625 -0.515625 
Q 12.796875 0.390625 7.625 2.203125 
L 7.625 11.71875 
Q 11.71875 9.328125 16.59375 8.109375 
Q 21.484375 6.890625 26.8125 6.890625 
Q 36.078125 6.890625 40.9375 10.546875 
Q 45.796875 14.203125 45.796875 21.1875 
Q 45.796875 27.640625 41.28125 31.265625 
Q 36.765625 34.90625 28.71875 34.90625 
L 20.21875 34.90625 
L 20.21875 43.015625 
L 29.109375 43.015625 
Q 36.375 43.015625 40.234375 45.921875 
Q 44.09375 48.828125 44.09375 54.296875 
Q 44.09375 59.90625 40.109375 62.90625 
Q 36.140625 65.921875 28.71875 65.921875 
Q 24.65625 65.921875 20.015625 65.03125 
Q 15.375 64.15625 9.8125 62.3125 
L 9.8125 71.09375 
Q 15.4375 72.65625 20.34375 73.4375 
Q 25.25 74.21875 29.59375 74.21875 
Q 40.828125 74.21875 47.359375 69.109375 
Q 53.90625 64.015625 53.90625 55.328125 
Q 53.90625 49.265625 50.4375 45.09375 
Q 46.96875 40.921875 40.578125 39.3125 
z
" id="DejaVuSans-33"/>
      </defs>
      <g transform="translate(327.959736 531.677187)scale(0.18 -0.18)">
       <use xlink:href="#DejaVuSans-33"/>
       <use x="63.623047" xlink:href="#DejaVuSans-30"/>
       <use x="127.246094" xlink:href="#DejaVuSans-30"/>
       <use x="190.869141" xlink:href="#DejaVuSans-30"/>
       <use x="254.492188" xlink:href="#DejaVuSans-30"/>
      </g>
     </g>
    </g>
    <g id="xtick_5">
     <g id="line2d_5">
      <g>
       <use style="stroke:#000000;stroke-width:0.8;" x="442.310498" xlink:href="#m765203c670" y="511"/>
      </g>
     </g>
     <g id="text_5">
      <!-- 40000 -->
      <defs>
       <path d="M 37.796875 64.3125 
L 12.890625 25.390625 
L 37.796875 25.390625 
z
M 35.203125 72.90625 
L 47.609375 72.90625 
L 47.609375 25.390625 
L 58.015625 25.390625 
L 58.015625 17.1875 
L 47.609375 17.1875 
L 47.609375 0 
L 37.796875 0 
L 37.796875 17.1875 
L 4.890625 17.1875 
L 4.890625 26.703125 
z
" id="DejaVuSans-34"/>
      </defs>
      <g transform="translate(413.679248 531.677187)scale(0.18 -0.18)">
       <use xlink:href="#DejaVuSans-34"/>
       <use x="63.623047" xlink:href="#DejaVuSans-30"/>
       <use x="127.246094" xlink:href="#DejaVuSans-30"/>
       <use x="190.869141" xlink:href="#DejaVuSans-30"/>
       <use x="254.492188" xlink:href="#DejaVuSans-30"/>
      </g>
     </g>
    </g>
    <g id="xtick_6">
     <g id="line2d_6">
      <g>
       <use style="stroke:#000000;stroke-width:0.8;" x="528.03001" xlink:href="#m765203c670" y="511"/>
      </g>
     </g>
     <g id="text_6">
      <!-- 50000 -->
      <defs>
       <path d="M 10.796875 72.90625 
L 49.515625 72.90625 
L 49.515625 64.59375 
L 19.828125 64.59375 
L 19.828125 46.734375 
Q 21.96875 47.46875 24.109375 47.828125 
Q 26.265625 48.1875 28.421875 48.1875 
Q 40.625 48.1875 47.75 41.5 
Q 54.890625 34.8125 54.890625 23.390625 
Q 54.890625 11.625 47.5625 5.09375 
Q 40.234375 -1.421875 26.90625 -1.421875 
Q 22.3125 -1.421875 17.546875 -0.640625 
Q 12.796875 0.140625 7.71875 1.703125 
L 7.71875 11.625 
Q 12.109375 9.234375 16.796875 8.0625 
Q 21.484375 6.890625 26.703125 6.890625 
Q 35.15625 6.890625 40.078125 11.328125 
Q 45.015625 15.765625 45.015625 23.390625 
Q 45.015625 31 40.078125 35.4375 
Q 35.15625 39.890625 26.703125 39.890625 
Q 22.75 39.890625 18.8125 39.015625 
Q 14.890625 38.140625 10.796875 36.28125 
z
" id="DejaVuSans-35"/>
      </defs>
      <g transform="translate(499.39876 531.677187)scale(0.18 -0.18)">
       <use xlink:href="#DejaVuSans-35"/>
       <use x="63.623047" xlink:href="#DejaVuSans-30"/>
       <use x="127.246094" xlink:href="#DejaVuSans-30"/>
       <use x="190.869141" xlink:href="#DejaVuSans-30"/>
       <use x="254.492188" xlink:href="#DejaVuSans-30"/>
      </g>
     </g>
    </g>
    <g id="text_7">
     <!-- Temperature -->
     <defs>
      <path d="M -0.296875 72.90625 
L 61.375 72.90625 
L 61.375 64.59375 
L 35.5 64.59375 
L 35.5 0 
L 25.59375 0 
L 25.59375 64.59375 
L -0.296875 64.59375 
z
" id="DejaVuSans-54"/>
      <path d="M 56.203125 29.59375 
L 56.203125 25.203125 
L 14.890625 25.203125 
Q 15.484375 15.921875 20.484375 11.0625 
Q 25.484375 6.203125 34.421875 6.203125 
Q 39.59375 6.203125 44.453125 7.46875 
Q 49.3125 8.734375 54.109375 11.28125 
L 54.109375 2.78125 
Q 49.265625 0.734375 44.1875 -0.34375 
Q 39.109375 -1.421875 33.890625 -1.421875 
Q 20.796875 -1.421875 13.15625 6.1875 
Q 5.515625 13.8125 5.515625 26.8125 
Q 5.515625 40.234375 12.765625 48.109375 
Q 20.015625 56 32.328125 56 
Q 43.359375 56 49.78125 48.890625 
Q 56.203125 41.796875 56.203125 29.59375 
z
M 47.21875 32.234375 
Q 47.125 39.59375 43.09375 43.984375 
Q 39.0625 48.390625 32.421875 48.390625 
Q 24.90625 48.390625 20.390625 44.140625 
Q 15.875 39.890625 15.1875 32.171875 
z
" id="DejaVuSans-65"/>
      <path d="M 52 44.1875 
Q 55.375 50.25 60.0625 53.125 
Q 64.75 56 71.09375 56 
Q 79.640625 56 84.28125 50.015625 
Q 88.921875 44.046875 88.921875 33.015625 
L 88.921875 0 
L 79.890625 0 
L 79.890625 32.71875 
Q 79.890625 40.578125 77.09375 44.375 
Q 74.3125 48.1875 68.609375 48.1875 
Q 61.625 48.1875 57.5625 43.546875 
Q 53.515625 38.921875 53.515625 30.90625 
L 53.515625 0 
L 44.484375 0 
L 44.484375 32.71875 
Q 44.484375 40.625 41.703125 44.40625 
Q 38.921875 48.1875 33.109375 48.1875 
Q 26.21875 48.1875 22.15625 43.53125 
Q 18.109375 38.875 18.109375 30.90625 
L 18.109375 0 
L 9.078125 0 
L 9.078125 54.6875 
L 18.109375 54.6875 
L 18.109375 46.1875 
Q 21.1875 51.21875 25.484375 53.609375 
Q 29.78125 56 35.6875 56 
Q 41.65625 56 45.828125 52.96875 
Q 50 49.953125 52 44.1875 
z
" id="DejaVuSans-6d"/>
      <path d="M 18.109375 8.203125 
L 18.109375 -20.796875 
L 9.078125 -20.796875 
L 9.078125 54.6875 
L 18.109375 54.6875 
L 18.109375 46.390625 
Q 20.953125 51.265625 25.265625 53.625 
Q 29.59375 56 35.59375 56 
Q 45.5625 56 51.78125 48.09375 
Q 58.015625 40.1875 58.015625 27.296875 
Q 58.015625 14.40625 51.78125 6.484375 
Q 45.5625 -1.421875 35.59375 -1.421875 
Q 29.59375 -1.421875 25.265625 0.953125 
Q 20.953125 3.328125 18.109375 8.203125 
z
M 48.6875 27.296875 
Q 48.6875 37.203125 44.609375 42.84375 
Q 40.53125 48.484375 33.40625 48.484375 
Q 26.265625 48.484375 22.1875 42.84375 
Q 18.109375 37.203125 18.109375 27.296875 
Q 18.109375 17.390625 22.1875 11.75 
Q 26.265625 6.109375 33.40625 6.109375 
Q 40.53125 6.109375 44.609375 11.75 
Q 48.6875 17.390625 48.6875 27.296875 
z
" id="DejaVuSans-70"/>
      <path d="M 41.109375 46.296875 
Q 39.59375 47.171875 37.8125 47.578125 
Q 36.03125 48 33.890625 48 
Q 26.265625 48 22.1875 43.046875 
Q 18.109375 38.09375 18.109375 28.8125 
L 18.109375 0 
L 9.078125 0 
L 9.078125 54.6875 
L 18.109375 54.6875 
L 18.109375 46.1875 
Q 20.953125 51.171875 25.484375 53.578125 
Q 30.03125 56 36.53125 56 
Q 37.453125 56 38.578125 55.875 
Q 39.703125 55.765625 41.0625 55.515625 
z
" id="DejaVuSans-72"/>
      <path d="M 34.28125 27.484375 
Q 23.390625 27.484375 19.1875 25 
Q 14.984375 22.515625 14.984375 16.5 
Q 14.984375 11.71875 18.140625 8.90625 
Q 21.296875 6.109375 26.703125 6.109375 
Q 34.1875 6.109375 38.703125 11.40625 
Q 43.21875 16.703125 43.21875 25.484375 
L 43.21875 27.484375 
z
M 52.203125 31.203125 
L 52.203125 0 
L 43.21875 0 
L 43.21875 8.296875 
Q 40.140625 3.328125 35.546875 0.953125 
Q 30.953125 -1.421875 24.3125 -1.421875 
Q 15.921875 -1.421875 10.953125 3.296875 
Q 6 8.015625 6 15.921875 
Q 6 25.140625 12.171875 29.828125 
Q 18.359375 34.515625 30.609375 34.515625 
L 43.21875 34.515625 
L 43.21875 35.40625 
Q 43.21875 41.609375 39.140625 45 
Q 35.0625 48.390625 27.6875 48.390625 
Q 23 48.390625 18.546875 47.265625 
Q 14.109375 46.140625 10.015625 43.890625 
L 10.015625 52.203125 
Q 14.9375 54.109375 19.578125 55.046875 
Q 24.21875 56 28.609375 56 
Q 40.484375 56 46.34375 49.84375 
Q 52.203125 43.703125 52.203125 31.203125 
z
" id="DejaVuSans-61"/>
      <path d="M 18.3125 70.21875 
L 18.3125 54.6875 
L 36.8125 54.6875 
L 36.8125 47.703125 
L 18.3125 47.703125 
L 18.3125 18.015625 
Q 18.3125 11.328125 20.140625 9.421875 
Q 21.96875 7.515625 27.59375 7.515625 
L 36.8125 7.515625 
L 36.8125 0 
L 27.59375 0 
Q 17.1875 0 13.234375 3.875 
Q 9.28125 7.765625 9.28125 18.015625 
L 9.28125 47.703125 
L 2.6875 47.703125 
L 2.6875 54.6875 
L 9.28125 54.6875 
L 9.28125 70.21875 
z
" id="DejaVuSans-74"/>
      <path d="M 8.5 21.578125 
L 8.5 54.6875 
L 17.484375 54.6875 
L 17.484375 21.921875 
Q 17.484375 14.15625 20.5 10.265625 
Q 23.53125 6.390625 29.59375 6.390625 
Q 36.859375 6.390625 41.078125 11.03125 
Q 45.3125 15.671875 45.3125 23.6875 
L 45.3125 54.6875 
L 54.296875 54.6875 
L 54.296875 0 
L 45.3125 0 
L 45.3125 8.40625 
Q 42.046875 3.421875 37.71875 1 
Q 33.40625 -1.421875 27.6875 -1.421875 
Q 18.265625 -1.421875 13.375 4.4375 
Q 8.5 10.296875 8.5 21.578125 
z
M 31.109375 56 
z
" id="DejaVuSans-75"/>
     </defs>
     <g transform="translate(251.921162 553.097813)scale(0.18 -0.18)">
      <use xlink:href="#DejaVuSans-54"/>
      <use x="60.818359" xlink:href="#DejaVuSans-65"/>
      <use x="122.341797" xlink:href="#DejaVuSans-6d"/>
      <use x="219.753906" xlink:href="#DejaVuSans-70"/>
      <use x="283.230469" xlink:href="#DejaVuSans-65"/>
      <use x="344.753906" xlink:href="#DejaVuSans-72"/>
      <use x="385.867188" xlink:href="#DejaVuSans-61"/>
      <use x="447.146484" xlink:href="#DejaVuSans-74"/>
      <use x="486.355469" xlink:href="#DejaVuSans-75"/>
      <use x="549.734375" xlink:href="#DejaVuSans-72"/>
      <use x="590.816406" xlink:href="#DejaVuSans-65"/>
     </g>
    </g>
   </g>
   <g id="matplotlib.axis_2">
    <g id="ytick_1">
     <g id="line2d_7">
      <defs>
       <path d="M 0 0 
L -3.5 0 
" id="m42433c5073" style="stroke:#000000;stroke-width:0.8;"/>
      </defs>
      <g>
       <use style="stroke:#000000;stroke-width:0.8;" x="89.638119" xlink:href="#m42433c5073" y="488.697511"/>
      </g>
     </g>
     <g id="text_8">
      <!-- $\mathdefault{10^{-1}}$ -->
      <defs>
       <path d="M 10.59375 35.5 
L 73.1875 35.5 
L 73.1875 27.203125 
L 10.59375 27.203125 
z
" id="DejaVuSans-2212"/>
      </defs>
      <g transform="translate(40.338119 495.536105)scale(0.18 -0.18)">
       <use transform="translate(0 0.684375)" xlink:href="#DejaVuSans-31"/>
       <use transform="translate(63.623047 0.684375)" xlink:href="#DejaVuSans-30"/>
       <use transform="translate(128.203125 38.965625)scale(0.7)" xlink:href="#DejaVuSans-2212"/>
       <use transform="translate(186.855469 38.965625)scale(0.7)" xlink:href="#DejaVuSans-31"/>
      </g>
     </g>
    </g>
    <g id="ytick_2">
     <g id="line2d_8">
      <g>
       <use style="stroke:#000000;stroke-width:0.8;" x="89.638119" xlink:href="#m42433c5073" y="334.942336"/>
      </g>
     </g>
     <g id="text_9">
      <!-- $\mathdefault{10^{0}}$ -->
      <g transform="translate(50.958119 341.78093)scale(0.18 -0.18)">
       <use transform="translate(0 0.765625)" xlink:href="#DejaVuSans-31"/>
       <use transform="translate(63.623047 0.765625)" xlink:href="#DejaVuSans-30"/>
       <use transform="translate(128.203125 39.046875)scale(0.7)" xlink:href="#DejaVuSans-30"/>
      </g>
     </g>
    </g>
    <g id="ytick_3">
     <g id="line2d_9">
      <g>
       <use style="stroke:#000000;stroke-width:0.8;" x="89.638119" xlink:href="#m42433c5073" y="181.187162"/>
      </g>
     </g>
     <g id="text_10">
      <!-- $\mathdefault{10^{1}}$ -->
      <g transform="translate(50.958119 188.025755)scale(0.18 -0.18)">
       <use transform="translate(0 0.684375)" xlink:href="#DejaVuSans-31"/>
       <use transform="translate(63.623047 0.684375)" xlink:href="#DejaVuSans-30"/>
       <use transform="translate(128.203125 38.965625)scale(0.7)" xlink:href="#DejaVuSans-31"/>
      </g>
     </g>
    </g>
    <g id="ytick_4">
     <g id="line2d_10">
      <g>
       <use style="stroke:#000000;stroke-width:0.8;" x="89.638119" xlink:href="#m42433c5073" y="27.431987"/>
      </g>
     </g>
     <g id="text_11">
      <!-- $\mathdefault{10^{2}}$ -->
      <g transform="translate(50.958119 34.270581)scale(0.18 -0.18)">
       <use transform="translate(0 0.765625)" xlink:href="#DejaVuSans-31"/>
       <use transform="translate(63.623047 0.765625)" xlink:href="#DejaVuSans-30"/>
       <use transform="translate(128.203125 39.046875)scale(0.7)" xlink:href="#DejaVuSans-32"/>
      </g>
     </g>
    </g>
    <g id="ytick_5">
     <g id="line2d_11">
      <defs>
       <path d="M 0 0 
L -2 0 
" id="m5c19951c13" style="stroke:#000000;stroke-width:0.6;"/>
      </defs>
      <g>
       <use style="stroke:#000000;stroke-width:0.6;" x="89.638119" xlink:href="#m5c19951c13" y="503.597927"/>
      </g>
     </g>
    </g>
    <g id="ytick_6">
     <g id="line2d_12">
      <g>
       <use style="stroke:#000000;stroke-width:0.6;" x="89.638119" xlink:href="#m5c19951c13" y="495.732962"/>
      </g>
     </g>
    </g>
    <g id="ytick_7">
     <g id="line2d_13">
      <g>
       <use style="stroke:#000000;stroke-width:0.6;" x="89.638119" xlink:href="#m5c19951c13" y="442.412592"/>
      </g>
     </g>
    </g>
    <g id="ytick_8">
     <g id="line2d_14">
      <g>
       <use style="stroke:#000000;stroke-width:0.6;" x="89.638119" xlink:href="#m5c19951c13" y="415.337649"/>
      </g>
     </g>
    </g>
    <g id="ytick_9">
     <g id="line2d_15">
      <g>
       <use style="stroke:#000000;stroke-width:0.6;" x="89.638119" xlink:href="#m5c19951c13" y="396.127672"/>
      </g>
     </g>
    </g>
    <g id="ytick_10">
     <g id="line2d_16">
      <g>
       <use style="stroke:#000000;stroke-width:0.6;" x="89.638119" xlink:href="#m5c19951c13" y="381.227256"/>
      </g>
     </g>
    </g>
    <g id="ytick_11">
     <g id="line2d_17">
      <g>
       <use style="stroke:#000000;stroke-width:0.6;" x="89.638119" xlink:href="#m5c19951c13" y="369.05273"/>
      </g>
     </g>
    </g>
    <g id="ytick_12">
     <g id="line2d_18">
      <g>
       <use style="stroke:#000000;stroke-width:0.6;" x="89.638119" xlink:href="#m5c19951c13" y="358.759314"/>
      </g>
     </g>
    </g>
    <g id="ytick_13">
     <g id="line2d_19">
      <g>
       <use style="stroke:#000000;stroke-width:0.6;" x="89.638119" xlink:href="#m5c19951c13" y="349.842752"/>
      </g>
     </g>
    </g>
    <g id="ytick_14">
     <g id="line2d_20">
      <g>
       <use style="stroke:#000000;stroke-width:0.6;" x="89.638119" xlink:href="#m5c19951c13" y="341.977787"/>
      </g>
     </g>
    </g>
    <g id="ytick_15">
     <g id="line2d_21">
      <g>
       <use style="stroke:#000000;stroke-width:0.6;" x="89.638119" xlink:href="#m5c19951c13" y="288.657417"/>
      </g>
     </g>
    </g>
    <g id="ytick_16">
     <g id="line2d_22">
      <g>
       <use style="stroke:#000000;stroke-width:0.6;" x="89.638119" xlink:href="#m5c19951c13" y="261.582475"/>
      </g>
     </g>
    </g>
    <g id="ytick_17">
     <g id="line2d_23">
      <g>
       <use style="stroke:#000000;stroke-width:0.6;" x="89.638119" xlink:href="#m5c19951c13" y="242.372497"/>
      </g>
     </g>
    </g>
    <g id="ytick_18">
     <g id="line2d_24">
      <g>
       <use style="stroke:#000000;stroke-width:0.6;" x="89.638119" xlink:href="#m5c19951c13" y="227.472081"/>
      </g>
     </g>
    </g>
    <g id="ytick_19">
     <g id="line2d_25">
      <g>
       <use style="stroke:#000000;stroke-width:0.6;" x="89.638119" xlink:href="#m5c19951c13" y="215.297555"/>
      </g>
     </g>
    </g>
    <g id="ytick_20">
     <g id="line2d_26">
      <g>
       <use style="stroke:#000000;stroke-width:0.6;" x="89.638119" xlink:href="#m5c19951c13" y="205.00414"/>
      </g>
     </g>
    </g>
    <g id="ytick_21">
     <g id="line2d_27">
      <g>
       <use style="stroke:#000000;stroke-width:0.6;" x="89.638119" xlink:href="#m5c19951c13" y="196.087578"/>
      </g>
     </g>
    </g>
    <g id="ytick_22">
     <g id="line2d_28">
      <g>
       <use style="stroke:#000000;stroke-width:0.6;" x="89.638119" xlink:href="#m5c19951c13" y="188.222613"/>
      </g>
     </g>
    </g>
    <g id="ytick_23">
     <g id="line2d_29">
      <g>
       <use style="stroke:#000000;stroke-width:0.6;" x="89.638119" xlink:href="#m5c19951c13" y="134.902242"/>
      </g>
     </g>
    </g>
    <g id="ytick_24">
     <g id="line2d_30">
      <g>
       <use style="stroke:#000000;stroke-width:0.6;" x="89.638119" xlink:href="#m5c19951c13" y="107.8273"/>
      </g>
     </g>
    </g>
    <g id="ytick_25">
     <g id="line2d_31">
      <g>
       <use style="stroke:#000000;stroke-width:0.6;" x="89.638119" xlink:href="#m5c19951c13" y="88.617322"/>
      </g>
     </g>
    </g>
    <g id="ytick_26">
     <g id="line2d_32">
      <g>
       <use style="stroke:#000000;stroke-width:0.6;" x="89.638119" xlink:href="#m5c19951c13" y="73.716906"/>
      </g>
     </g>
    </g>
    <g id="ytick_27">
     <g id="line2d_33">
      <g>
       <use style="stroke:#000000;stroke-width:0.6;" x="89.638119" xlink:href="#m5c19951c13" y="61.54238"/>
      </g>
     </g>
    </g>
    <g id="ytick_28">
     <g id="line2d_34">
      <g>
       <use style="stroke:#000000;stroke-width:0.6;" x="89.638119" xlink:href="#m5c19951c13" y="51.248965"/>
      </g>
     </g>
    </g>
    <g id="ytick_29">
     <g id="line2d_35">
      <g>
       <use style="stroke:#000000;stroke-width:0.6;" x="89.638119" xlink:href="#m5c19951c13" y="42.332403"/>
      </g>
     </g>
    </g>
    <g id="ytick_30">
     <g id="line2d_36">
      <g>
       <use style="stroke:#000000;stroke-width:0.6;" x="89.638119" xlink:href="#m5c19951c13" y="34.467438"/>
      </g>
     </g>
    </g>
    <g id="text_12">
     <!-- Mass -->
     <defs>
      <path d="M 9.8125 72.90625 
L 24.515625 72.90625 
L 43.109375 23.296875 
L 61.8125 72.90625 
L 76.515625 72.90625 
L 76.515625 0 
L 66.890625 0 
L 66.890625 64.015625 
L 48.09375 14.015625 
L 38.1875 14.015625 
L 19.390625 64.015625 
L 19.390625 0 
L 9.8125 0 
z
" id="DejaVuSans-4d"/>
      <path d="M 44.28125 53.078125 
L 44.28125 44.578125 
Q 40.484375 46.53125 36.375 47.5 
Q 32.28125 48.484375 27.875 48.484375 
Q 21.1875 48.484375 17.84375 46.4375 
Q 14.5 44.390625 14.5 40.28125 
Q 14.5 37.15625 16.890625 35.375 
Q 19.28125 33.59375 26.515625 31.984375 
L 29.59375 31.296875 
Q 39.15625 29.25 43.1875 25.515625 
Q 47.21875 21.78125 47.21875 15.09375 
Q 47.21875 7.46875 41.1875 3.015625 
Q 35.15625 -1.421875 24.609375 -1.421875 
Q 20.21875 -1.421875 15.453125 -0.5625 
Q 10.6875 0.296875 5.421875 2 
L 5.421875 11.28125 
Q 10.40625 8.6875 15.234375 7.390625 
Q 20.0625 6.109375 24.8125 6.109375 
Q 31.15625 6.109375 34.5625 8.28125 
Q 37.984375 10.453125 37.984375 14.40625 
Q 37.984375 18.0625 35.515625 20.015625 
Q 33.0625 21.96875 24.703125 23.78125 
L 21.578125 24.515625 
Q 13.234375 26.265625 9.515625 29.90625 
Q 5.8125 33.546875 5.8125 39.890625 
Q 5.8125 47.609375 11.28125 51.796875 
Q 16.75 56 26.8125 56 
Q 31.78125 56 36.171875 55.265625 
Q 40.578125 54.546875 44.28125 53.078125 
z
" id="DejaVuSans-73"/>
     </defs>
     <g transform="translate(32.594681 291.982943)rotate(-90)scale(0.18 -0.18)">
      <use xlink:href="#DejaVuSans-4d"/>
      <use x="86.279297" xlink:href="#DejaVuSans-61"/>
      <use x="147.558594" xlink:href="#DejaVuSans-73"/>
      <use x="199.658203" xlink:href="#DejaVuSans-73"/>
     </g>
    </g>
   </g>
   <g id="line2d_37">
    <path clip-path="url(#p9fb556ff66)" d="M 110.143585 56.589046 
L 501.088649 56.589046 
" style="fill:none;stroke:#000000;stroke-dasharray:5.55,2.4;stroke-dashoffset:0;stroke-width:1.5;"/>
   </g>
   <g id="line2d_38">
    <path clip-path="url(#p9fb556ff66)" d="M 110.143585 138.807039 
L 501.088649 138.807039 
" style="fill:none;stroke:#000000;stroke-dasharray:5.55,2.4;stroke-dashoffset:0;stroke-width:1.5;"/>
   </g>
   <g id="line2d_39">
    <path clip-path="url(#p9fb556ff66)" d="M 110.143585 220.974323 
L 501.088649 220.974323 
" style="fill:none;stroke:#000000;stroke-dasharray:5.55,2.4;stroke-dashoffset:0;stroke-width:1.5;"/>
   </g>
   <g id="line2d_40">
    <path clip-path="url(#p9fb556ff66)" d="M 110.143585 331.367154 
L 501.088649 331.367154 
" style="fill:none;stroke:#000000;stroke-dasharray:5.55,2.4;stroke-dashoffset:0;stroke-width:1.5;"/>
   </g>
   <g id="text_13">
    <g id="patch_3">
     <path clip-path="url(#p9fb556ff66)" d="M 140.325711 70.629046 
L 215.745711 70.629046 
L 215.745711 42.549046 
L 140.325711 42.549046 
z
" style="fill:#ffffff;stroke:#ffffff;stroke-linejoin:miter;"/>
    </g>
    <g clip-path="url(#p9fb556ff66)">
     <!-- $10^{6.5}$ yr -->
     <defs>
      <path d="M 33.015625 40.375 
Q 26.375 40.375 22.484375 35.828125 
Q 18.609375 31.296875 18.609375 23.390625 
Q 18.609375 15.53125 22.484375 10.953125 
Q 26.375 6.390625 33.015625 6.390625 
Q 39.65625 6.390625 43.53125 10.953125 
Q 47.40625 15.53125 47.40625 23.390625 
Q 47.40625 31.296875 43.53125 35.828125 
Q 39.65625 40.375 33.015625 40.375 
z
M 52.59375 71.296875 
L 52.59375 62.3125 
Q 48.875 64.0625 45.09375 64.984375 
Q 41.3125 65.921875 37.59375 65.921875 
Q 27.828125 65.921875 22.671875 59.328125 
Q 17.53125 52.734375 16.796875 39.40625 
Q 19.671875 43.65625 24.015625 45.921875 
Q 28.375 48.1875 33.59375 48.1875 
Q 44.578125 48.1875 50.953125 41.515625 
Q 57.328125 34.859375 57.328125 23.390625 
Q 57.328125 12.15625 50.6875 5.359375 
Q 44.046875 -1.421875 33.015625 -1.421875 
Q 20.359375 -1.421875 13.671875 8.265625 
Q 6.984375 17.96875 6.984375 36.375 
Q 6.984375 53.65625 15.1875 63.9375 
Q 23.390625 74.21875 37.203125 74.21875 
Q 40.921875 74.21875 44.703125 73.484375 
Q 48.484375 72.75 52.59375 71.296875 
z
" id="DejaVuSans-36"/>
      <path d="M 10.6875 12.40625 
L 21 12.40625 
L 21 0 
L 10.6875 0 
z
" id="DejaVuSans-2e"/>
      <path id="DejaVuSans-20"/>
      <path d="M 32.171875 -5.078125 
Q 28.375 -14.84375 24.75 -17.8125 
Q 21.140625 -20.796875 15.09375 -20.796875 
L 7.90625 -20.796875 
L 7.90625 -13.28125 
L 13.1875 -13.28125 
Q 16.890625 -13.28125 18.9375 -11.515625 
Q 21 -9.765625 23.484375 -3.21875 
L 25.09375 0.875 
L 2.984375 54.6875 
L 12.5 54.6875 
L 29.59375 11.921875 
L 46.6875 54.6875 
L 56.203125 54.6875 
z
" id="DejaVuSans-79"/>
     </defs>
     <g transform="translate(144.285711 62.889046)scale(0.18 -0.18)">
      <use transform="translate(0 0.765625)" xlink:href="#DejaVuSans-31"/>
      <use transform="translate(63.623047 0.765625)" xlink:href="#DejaVuSans-30"/>
      <use transform="translate(128.203125 39.046875)scale(0.7)" xlink:href="#DejaVuSans-36"/>
      <use transform="translate(172.739258 39.046875)scale(0.7)" xlink:href="#DejaVuSans-2e"/>
      <use transform="translate(194.990234 39.046875)scale(0.7)" xlink:href="#DejaVuSans-35"/>
      <use transform="translate(242.260742 0.765625)" xlink:href="#DejaVuSans-20"/>
      <use transform="translate(274.047852 0.765625)" xlink:href="#DejaVuSans-79"/>
      <use transform="translate(333.227539 0.765625)" xlink:href="#DejaVuSans-72"/>
     </g>
    </g>
   </g>
   <g id="text_14">
    <g id="patch_4">
     <path clip-path="url(#p9fb556ff66)" d="M 234.753303 152.757039 
L 298.113303 152.757039 
L 298.113303 124.857039 
L 234.753303 124.857039 
z
" style="fill:#ffffff;stroke:#ffffff;stroke-linejoin:miter;"/>
    </g>
    <g clip-path="url(#p9fb556ff66)">
     <!-- $10^{7}$ yr -->
     <defs>
      <path d="M 8.203125 72.90625 
L 55.078125 72.90625 
L 55.078125 68.703125 
L 28.609375 0 
L 18.3125 0 
L 43.21875 64.59375 
L 8.203125 64.59375 
z
" id="DejaVuSans-37"/>
     </defs>
     <g transform="translate(238.713303 145.017039)scale(0.18 -0.18)">
      <use transform="translate(0 0.684375)" xlink:href="#DejaVuSans-31"/>
      <use transform="translate(63.623047 0.684375)" xlink:href="#DejaVuSans-30"/>
      <use transform="translate(128.203125 38.965625)scale(0.7)" xlink:href="#DejaVuSans-37"/>
      <use transform="translate(175.473633 0.684375)" xlink:href="#DejaVuSans-20"/>
      <use transform="translate(207.260742 0.684375)" xlink:href="#DejaVuSans-79"/>
      <use transform="translate(266.44043 0.684375)" xlink:href="#DejaVuSans-72"/>
     </g>
    </g>
   </g>
   <g id="text_15">
    <g id="patch_5">
     <path clip-path="url(#p9fb556ff66)" d="M 323.150896 235.014323 
L 386.510896 235.014323 
L 386.510896 206.934323 
L 323.150896 206.934323 
z
" style="fill:#ffffff;stroke:#ffffff;stroke-linejoin:miter;"/>
    </g>
    <g clip-path="url(#p9fb556ff66)">
     <!-- $10^{8}$ yr -->
     <defs>
      <path d="M 31.78125 34.625 
Q 24.75 34.625 20.71875 30.859375 
Q 16.703125 27.09375 16.703125 20.515625 
Q 16.703125 13.921875 20.71875 10.15625 
Q 24.75 6.390625 31.78125 6.390625 
Q 38.8125 6.390625 42.859375 10.171875 
Q 46.921875 13.96875 46.921875 20.515625 
Q 46.921875 27.09375 42.890625 30.859375 
Q 38.875 34.625 31.78125 34.625 
z
M 21.921875 38.8125 
Q 15.578125 40.375 12.03125 44.71875 
Q 8.5 49.078125 8.5 55.328125 
Q 8.5 64.0625 14.71875 69.140625 
Q 20.953125 74.21875 31.78125 74.21875 
Q 42.671875 74.21875 48.875 69.140625 
Q 55.078125 64.0625 55.078125 55.328125 
Q 55.078125 49.078125 51.53125 44.71875 
Q 48 40.375 41.703125 38.8125 
Q 48.828125 37.15625 52.796875 32.3125 
Q 56.78125 27.484375 56.78125 20.515625 
Q 56.78125 9.90625 50.3125 4.234375 
Q 43.84375 -1.421875 31.78125 -1.421875 
Q 19.734375 -1.421875 13.25 4.234375 
Q 6.78125 9.90625 6.78125 20.515625 
Q 6.78125 27.484375 10.78125 32.3125 
Q 14.796875 37.15625 21.921875 38.8125 
z
M 18.3125 54.390625 
Q 18.3125 48.734375 21.84375 45.5625 
Q 25.390625 42.390625 31.78125 42.390625 
Q 38.140625 42.390625 41.71875 45.5625 
Q 45.3125 48.734375 45.3125 54.390625 
Q 45.3125 60.0625 41.71875 63.234375 
Q 38.140625 66.40625 31.78125 66.40625 
Q 25.390625 66.40625 21.84375 63.234375 
Q 18.3125 60.0625 18.3125 54.390625 
z
" id="DejaVuSans-38"/>
     </defs>
     <g transform="translate(327.110896 227.274323)scale(0.18 -0.18)">
      <use transform="translate(0 0.765625)" xlink:href="#DejaVuSans-31"/>
      <use transform="translate(63.623047 0.765625)" xlink:href="#DejaVuSans-30"/>
      <use transform="translate(128.203125 39.046875)scale(0.7)" xlink:href="#DejaVuSans-38"/>
      <use transform="translate(175.473633 0.765625)" xlink:href="#DejaVuSans-20"/>
      <use transform="translate(207.260742 0.765625)" xlink:href="#DejaVuSans-79"/>
      <use transform="translate(266.44043 0.765625)" xlink:href="#DejaVuSans-72"/>
     </g>
    </g>
   </g>
   <g id="text_16">
    <g id="patch_6">
     <path clip-path="url(#p9fb556ff66)" d="M 407.498488 345.407154 
L 478.958488 345.407154 
L 478.958488 317.327154 
L 407.498488 317.327154 
z
" style="fill:#ffffff;stroke:#ffffff;stroke-linejoin:miter;"/>
    </g>
    <g clip-path="url(#p9fb556ff66)">
     <!-- $10^{10}$ yr -->
     <g transform="translate(411.458488 337.667154)scale(0.18 -0.18)">
      <use transform="translate(0 0.765625)" xlink:href="#DejaVuSans-31"/>
      <use transform="translate(63.623047 0.765625)" xlink:href="#DejaVuSans-30"/>
      <use transform="translate(128.203125 39.046875)scale(0.7)" xlink:href="#DejaVuSans-31"/>
      <use transform="translate(172.739258 39.046875)scale(0.7)" xlink:href="#DejaVuSans-30"/>
      <use transform="translate(220.009766 0.765625)" xlink:href="#DejaVuSans-20"/>
      <use transform="translate(251.796875 0.765625)" xlink:href="#DejaVuSans-79"/>
      <use transform="translate(310.976562 0.765625)" xlink:href="#DejaVuSans-72"/>
     </g>
    </g>
   </g>
   <g id="patch_7">
    <path d="M 89.638119 511 
L 89.638119 27.650886 
" style="fill:none;stroke:#000000;stroke-linecap:square;stroke-linejoin:miter;stroke-width:0.8;"/>
   </g>
   <g id="patch_8">
    <path d="M 531.62608 511 
L 531.62608 27.650886 
" style="fill:none;stroke:#000000;stroke-linecap:square;stroke-linejoin:miter;stroke-width:0.8;"/>
   </g>
   <g id="patch_9">
    <path d="M 89.638119 511 
L 531.62608 511 
" style="fill:none;stroke:#000000;stroke-linecap:square;stroke-linejoin:miter;stroke-width:0.8;"/>
   </g>
   <g id="patch_10">
    <path d="M 89.638119 27.650886 
L 531.62608 27.650886 
" style="fill:none;stroke:#000000;stroke-linecap:square;stroke-linejoin:miter;stroke-width:0.8;"/>
   </g>
  </g>
 </g>
 <defs>
  <clipPath id="p9fb556ff66">
   <rect height="483.349114" width="441.987962" x="89.638119" y="27.650886"/>
  </clipPath>
 </defs>
</svg>
