<?xml version="1.0" encoding="utf-8" standalone="no"?>
<!DOCTYPE svg PUBLIC "-//W3C//DTD SVG 1.1//EN"
  "http://www.w3.org/Graphics/SVG/1.1/DTD/svg11.dtd">
<!-- Created with matplotlib (http://matplotlib.org/) -->
<svg height="345.6pt" version="1.1" viewBox="0 0 460.8 345.6" width="460.8pt" xmlns="http://www.w3.org/2000/svg" xmlns:xlink="http://www.w3.org/1999/xlink">
 <defs>
  <style type="text/css">
*{stroke-linecap:butt;stroke-linejoin:round;}
  </style>
 </defs>
 <g id="figure_1">
  <g id="patch_1">
   <path d="M 0 345.6 
L 460.8 345.6 
L 460.8 0 
L 0 0 
z
" style="fill:#ffffff;"/>
  </g>
  <g id="axes_1">
   <g id="patch_2">
    <path d="M 89.638119 280.6 
L 418.276754 280.6 
L 418.276754 21.96 
L 89.638119 21.96 
z
" style="fill:#ffffff;"/>
   </g>
   <g id="PathCollection_1">
    <path clip-path="url(#pc053549968)" d="M 127.882747 198.834207 
C 128.633125 198.834207 129.35287 198.536079 129.883467 198.005481 
C 130.414064 197.474884 130.712192 196.755139 130.712192 196.004762 
C 130.712192 195.254384 130.414064 194.534639 129.883467 194.004042 
C 129.35287 193.473445 128.633125 193.175317 127.882747 193.175317 
C 127.132369 193.175317 126.412624 193.473445 125.882027 194.004042 
C 125.35143 194.534639 125.053302 195.254384 125.053302 196.004762 
C 125.053302 196.755139 125.35143 197.474884 125.882027 198.005481 
C 126.412624 198.536079 127.132369 198.834207 127.882747 198.834207 
z
" style="fill:#ffe4c5;stroke:#ffe4c5;"/>
    <path clip-path="url(#pc053549968)" d="M 128.891326 197.333585 
C 129.661839 197.333585 130.400897 197.027457 130.945732 196.482623 
C 131.490567 195.937788 131.796695 195.19873 131.796695 194.428217 
C 131.796695 193.657704 131.490567 192.918646 130.945732 192.373811 
C 130.400897 191.828976 129.661839 191.522848 128.891326 191.522848 
C 128.120813 191.522848 127.381755 191.828976 126.83692 192.373811 
C 126.292085 192.918646 125.985957 193.657704 125.985957 194.428217 
C 125.985957 195.19873 126.292085 195.937788 126.83692 196.482623 
C 127.381755 197.027457 128.120813 197.333585 128.891326 197.333585 
z
" style="fill:#ffe9ce;stroke:#ffe9ce;"/>
    <path clip-path="url(#pc053549968)" d="M 129.932967 195.898061 
C 130.722791 195.898061 131.480371 195.584261 132.03886 195.025771 
C 132.597349 194.467282 132.91115 193.709702 132.91115 192.919879 
C 132.91115 192.130055 132.597349 191.372475 132.03886 190.813986 
C 131.480371 190.255497 130.722791 189.941696 129.932967 189.941696 
C 129.143144 189.941696 128.385564 190.255497 127.827075 190.813986 
C 127.268585 191.372475 126.954785 192.130055 126.954785 192.919879 
C 126.954785 193.709702 127.268585 194.467282 127.827075 195.025771 
C 128.385564 195.584261 129.143144 195.898061 129.932967 195.898061 
z
" style="fill:#ffeed8;stroke:#ffeed8;"/>
    <path clip-path="url(#pc053549968)" d="M 130.852898 194.489534 
C 131.662748 194.489534 132.439538 194.167776 133.012189 193.595126 
C 133.58484 193.022475 133.906597 192.245685 133.906597 191.435834 
C 133.906597 190.625984 133.58484 189.849194 133.012189 189.276543 
C 132.439538 188.703892 131.662748 188.382135 130.852898 188.382135 
C 130.043047 188.382135 129.266257 188.703892 128.693606 189.276543 
C 128.120955 189.849194 127.799198 190.625984 127.799198 191.435834 
C 127.799198 192.245685 128.120955 193.022475 128.693606 193.595126 
C 129.266257 194.167776 130.043047 194.489534 130.852898 194.489534 
z
" style="fill:#fff2e1;stroke:#fff2e1;"/>
    <path clip-path="url(#pc053549968)" d="M 131.79862 193.174833 
C 132.627573 193.174833 133.422685 192.845486 134.008844 192.259328 
C 134.595002 191.67317 134.924348 190.878057 134.924348 190.049104 
C 134.924348 189.220151 134.595002 188.425039 134.008844 187.83888 
C 133.422685 187.252722 132.627573 186.923376 131.79862 186.923376 
C 130.969667 186.923376 130.174554 187.252722 129.588396 187.83888 
C 129.002238 188.425039 128.672891 189.220151 128.672891 190.049104 
C 128.672891 190.878057 129.002238 191.67317 129.588396 192.259328 
C 130.174554 192.845486 130.969667 193.174833 131.79862 193.174833 
z
" style="fill:#fff4e8;stroke:#fff4e8;"/>
    <path clip-path="url(#pc053549968)" d="M 133.434058 190.699205 
C 134.30083 190.699205 135.132218 190.354833 135.745118 189.741933 
C 136.358019 189.129032 136.702391 188.297644 136.702391 187.430872 
C 136.702391 186.5641 136.358019 185.732712 135.745118 185.119812 
C 135.132218 184.506912 134.30083 184.16254 133.434058 184.16254 
C 132.567286 184.16254 131.735898 184.506912 131.122998 185.119812 
C 130.510098 185.732712 130.165725 186.5641 130.165725 187.430872 
C 130.165725 188.297644 130.510098 189.129032 131.122998 189.741933 
C 131.735898 190.354833 132.567286 190.699205 133.434058 190.699205 
z
" style="fill:#fff5ed;stroke:#fff5ed;"/>
    <path clip-path="url(#pc053549968)" d="M 134.971761 188.373386 
C 135.875993 188.373386 136.743312 188.014131 137.3827 187.374743 
C 138.022089 186.735354 138.381344 185.868035 138.381344 184.963803 
C 138.381344 184.059572 138.022089 183.192253 137.3827 182.552864 
C 136.743312 181.913476 135.875993 181.554221 134.971761 181.554221 
C 134.067529 181.554221 133.200211 181.913476 132.560822 182.552864 
C 131.921433 183.192253 131.562178 184.059572 131.562178 184.963803 
C 131.562178 185.868035 131.921433 186.735354 132.560822 187.374743 
C 133.200211 188.014131 134.067529 188.373386 134.971761 188.373386 
z
" style="fill:#fff7f2;stroke:#fff7f2;"/>
    <path clip-path="url(#pc053549968)" d="M 137.123704 184.358506 
C 138.087876 184.358506 139.012689 183.975436 139.694462 183.293663 
C 140.376235 182.61189 140.759305 181.687078 140.759305 180.722905 
C 140.759305 179.758732 140.376235 178.833919 139.694462 178.152146 
C 139.012689 177.470373 138.087876 177.087303 137.123704 177.087303 
C 136.159531 177.087303 135.234718 177.470373 134.552945 178.152146 
C 133.871172 178.833919 133.488102 179.758732 133.488102 180.722905 
C 133.488102 181.687078 133.871172 182.61189 134.552945 183.293663 
C 135.234718 183.975436 136.159531 184.358506 137.123704 184.358506 
z
" style="fill:#fdf9fb;stroke:#fdf9fb;"/>
    <path clip-path="url(#pc053549968)" d="M 138.817522 181.723667 
C 139.827716 181.723667 140.796671 181.322312 141.510987 180.607997 
C 142.225302 179.893682 142.626656 178.924727 142.626656 177.914532 
C 142.626656 176.904338 142.225302 175.935383 141.510987 175.221068 
C 140.796671 174.506753 139.827716 174.105398 138.817522 174.105398 
C 137.807328 174.105398 136.838372 174.506753 136.124057 175.221068 
C 135.409742 175.935383 135.008388 176.904338 135.008388 177.914532 
C 135.008388 178.924727 135.409742 179.893682 136.124057 180.607997 
C 136.838372 181.322312 137.807328 181.723667 138.817522 181.723667 
z
" style="fill:#f8f6ff;stroke:#f8f6ff;"/>
    <path clip-path="url(#pc053549968)" d="M 140.884472 178.954064 
C 141.944714 178.954064 142.961674 178.532826 143.711378 177.783122 
C 144.461082 177.033418 144.88232 176.016458 144.88232 174.956217 
C 144.88232 173.895975 144.461082 172.879016 143.711378 172.129312 
C 142.961674 171.379608 141.944714 170.958369 140.884472 170.958369 
C 139.824231 170.958369 138.807271 171.379608 138.057567 172.129312 
C 137.307863 172.879016 136.886625 173.895975 136.886625 174.956217 
C 136.886625 176.016458 137.307863 177.033418 138.057567 177.783122 
C 138.807271 178.532826 139.824231 178.954064 140.884472 178.954064 
z
" style="fill:#f0f0ff;stroke:#f0f0ff;"/>
    <path clip-path="url(#pc053549968)" d="M 144.124272 176.099844 
C 145.238002 176.099844 146.306266 175.657354 147.093792 174.869828 
C 147.881318 174.082302 148.323808 173.014038 148.323808 171.900308 
C 148.323808 170.786578 147.881318 169.718314 147.093792 168.930788 
C 146.306266 168.143262 145.238002 167.700773 144.124272 167.700773 
C 143.010543 167.700773 141.942278 168.143262 141.154752 168.930788 
C 140.367227 169.718314 139.924737 170.786578 139.924737 171.900308 
C 139.924737 173.014038 140.367227 174.082302 141.154752 174.869828 
C 141.942278 175.657354 143.010543 176.099844 144.124272 176.099844 
z
" style="fill:#e4e8ff;stroke:#e4e8ff;"/>
    <path clip-path="url(#pc053549968)" d="M 148.188638 173.20003 
C 149.358218 173.20003 150.480052 172.735351 151.30707 171.908333 
C 152.134088 171.081316 152.598767 169.959481 152.598767 168.789902 
C 152.598767 167.620322 152.134088 166.498488 151.30707 165.67147 
C 150.480052 164.844452 149.358218 164.379773 148.188638 164.379773 
C 147.019058 164.379773 145.897224 164.844452 145.070206 165.67147 
C 144.243189 166.498488 143.77851 167.620322 143.77851 168.789902 
C 143.77851 169.959481 144.243189 171.081316 145.070206 171.908333 
C 145.897224 172.735351 147.019058 173.20003 148.188638 173.20003 
z
" style="fill:#d5dfff;stroke:#d5dfff;"/>
    <path clip-path="url(#pc053549968)" d="M 151.968869 170.537742 
C 153.189698 170.537742 154.360689 170.052701 155.223946 169.189445 
C 156.087202 168.326188 156.572243 167.155197 156.572243 165.934368 
C 156.572243 164.713539 156.087202 163.542547 155.223946 162.679291 
C 154.360689 161.816034 153.189698 161.330994 151.968869 161.330994 
C 150.74804 161.330994 149.577048 161.816034 148.713792 162.679291 
C 147.850535 163.542547 147.365495 164.713539 147.365495 165.934368 
C 147.365495 167.155197 147.850535 168.326188 148.713792 169.189445 
C 149.577048 170.052701 150.74804 170.537742 151.968869 170.537742 
z
" style="fill:#c8d6ff;stroke:#c8d6ff;"/>
    <path clip-path="url(#pc053549968)" d="M 156.028826 167.845206 
C 157.303149 167.845206 158.525452 167.338912 159.426535 166.437829 
C 160.327618 165.536746 160.833912 164.314443 160.833912 163.040119 
C 160.833912 161.765795 160.327618 160.543493 159.426535 159.64241 
C 158.525452 158.741327 157.303149 158.235033 156.028826 158.235033 
C 154.754502 158.235033 153.532199 158.741327 152.631116 159.64241 
C 151.730033 160.543493 151.223739 161.765795 151.223739 163.040119 
C 151.223739 164.314443 151.730033 165.536746 152.631116 166.437829 
C 153.532199 167.338912 154.754502 167.845206 156.028826 167.845206 
z
" style="fill:#bed0ff;stroke:#bed0ff;"/>
    <path clip-path="url(#pc053549968)" d="M 164.759818 162.2728 
C 166.149066 162.2728 167.481601 161.720846 168.463948 160.738499 
C 169.446295 159.756152 169.998249 158.423617 169.998249 157.034368 
C 169.998249 155.64512 169.446295 154.312585 168.463948 153.330238 
C 167.481601 152.347891 166.149066 151.795937 164.759818 151.795937 
C 163.37057 151.795937 162.038034 152.347891 161.055687 153.330238 
C 160.073341 154.312585 159.521386 155.64512 159.521386 157.034368 
C 159.521386 158.423617 160.073341 159.756152 161.055687 160.738499 
C 162.038034 161.720846 163.37057 162.2728 164.759818 162.2728 
z
" style="fill:#b9cbff;stroke:#b9cbff;"/>
    <path clip-path="url(#pc053549968)" d="M 180.148953 152.821705 
C 181.747701 152.821705 183.281183 152.186515 184.411668 151.05603 
C 185.542153 149.925545 186.177342 148.392063 186.177342 146.793316 
C 186.177342 145.194568 185.542153 143.661086 184.411668 142.530601 
C 183.281183 141.400116 181.747701 140.764927 180.148953 140.764927 
C 178.550206 140.764927 177.016724 141.400116 175.886239 142.530601 
C 174.755754 143.661086 174.120564 145.194568 174.120564 146.793316 
C 174.120564 148.392063 174.755754 149.925545 175.886239 151.05603 
C 177.016724 152.186515 178.550206 152.821705 180.148953 152.821705 
z
" style="fill:#b7c9ff;stroke:#b7c9ff;"/>
    <path clip-path="url(#pc053549968)" d="M 198.103636 142.938244 
C 199.947185 142.938244 201.715476 142.205794 203.019063 140.902208 
C 204.322649 139.598621 205.055099 137.83033 205.055099 135.98678 
C 205.055099 134.143231 204.322649 132.37494 203.019063 131.071353 
C 201.715476 129.767767 199.947185 129.035317 198.103636 129.035317 
C 196.260086 129.035317 194.491795 129.767767 193.188209 131.071353 
C 191.884622 132.37494 191.152172 134.143231 191.152172 135.98678 
C 191.152172 137.83033 191.884622 139.598621 193.188209 140.902208 
C 194.491795 142.205794 196.260086 142.938244 198.103636 142.938244 
z
" style="fill:#b3c7ff;stroke:#b3c7ff;"/>
    <path clip-path="url(#pc053549968)" d="M 213.335447 135.465928 
C 215.382033 135.465928 217.345071 134.652811 218.792226 133.205656 
C 220.23938 131.758502 221.052497 129.795464 221.052497 127.748878 
C 221.052497 125.702293 220.23938 123.739254 218.792226 122.2921 
C 217.345071 120.844945 215.382033 120.031828 213.335447 120.031828 
C 211.288862 120.031828 209.325824 120.844945 207.878669 122.2921 
C 206.431515 123.739254 205.618398 125.702293 205.618398 127.748878 
C 205.618398 129.795464 206.431515 131.758502 207.878669 133.205656 
C 209.325824 134.652811 211.288862 135.465928 213.335447 135.465928 
z
" style="fill:#b0c4ff;stroke:#b0c4ff;"/>
    <path clip-path="url(#pc053549968)" d="M 226.620839 129.486109 
C 228.847504 129.486109 230.98327 128.601445 232.55776 127.026955 
C 234.13225 125.452465 235.016913 123.316699 235.016913 121.090034 
C 235.016913 118.863369 234.13225 116.727603 232.55776 115.153113 
C 230.98327 113.578623 228.847504 112.69396 226.620839 112.69396 
C 224.394174 112.69396 222.258408 113.578623 220.683918 115.153113 
C 219.109428 116.727603 218.224765 118.863369 218.224765 121.090034 
C 218.224765 123.316699 219.109428 125.452465 220.683918 127.026955 
C 222.258408 128.601445 224.394174 129.486109 226.620839 129.486109 
z
" style="fill:#adc1ff;stroke:#adc1ff;"/>
    <path clip-path="url(#pc053549968)" d="M 238.13947 124.492559 
C 240.524012 124.492559 242.81121 123.545171 244.497335 121.859045 
C 246.183461 120.17292 247.130849 117.885722 247.130849 115.50118 
C 247.130849 113.116639 246.183461 110.829441 244.497335 109.143315 
C 242.81121 107.45719 240.524012 106.509802 238.13947 106.509802 
C 235.754929 106.509802 233.467731 107.45719 231.781605 109.143315 
C 230.09548 110.829441 229.148092 113.116639 229.148092 115.50118 
C 229.148092 117.885722 230.09548 120.17292 231.781605 121.859045 
C 233.467731 123.545171 235.754929 124.492559 238.13947 124.492559 
z
" style="fill:#aabfff;stroke:#aabfff;"/>
    <path clip-path="url(#pc053549968)" d="M 248.575174 120.221736 
C 251.10319 120.221736 253.528006 119.217344 255.315583 117.429767 
C 257.103161 115.64219 258.107552 113.217374 258.107552 110.689358 
C 258.107552 108.161341 257.103161 105.736526 255.315583 103.948948 
C 253.528006 102.161371 251.10319 101.156979 248.575174 101.156979 
C 246.047158 101.156979 243.622342 102.161371 241.834765 103.948948 
C 240.047187 105.736526 239.042796 108.161341 239.042796 110.689358 
C 239.042796 113.217374 240.047187 115.64219 241.834765 117.429767 
C 243.622342 119.217344 246.047158 120.221736 248.575174 120.221736 
z
" style="fill:#a8bdff;stroke:#a8bdff;"/>
    <path clip-path="url(#pc053549968)" d="M 257.920711 116.483662 
C 260.578557 116.483662 263.127903 115.427689 265.007284 113.548308 
C 266.886665 111.668927 267.942638 109.119582 267.942638 106.461735 
C 267.942638 103.803889 266.886665 101.254544 265.007284 99.375163 
C 263.127903 97.495782 260.578557 96.439809 257.920711 96.439809 
C 255.262865 96.439809 252.71352 97.495782 250.834139 99.375163 
C 248.954758 101.254544 247.898784 103.803889 247.898784 106.461735 
C 247.898784 109.119582 248.954758 111.668927 250.834139 113.548308 
C 252.71352 115.427689 255.262865 116.483662 257.920711 116.483662 
z
" style="fill:#a7bcff;stroke:#a7bcff;"/>
    <path clip-path="url(#pc053549968)" d="M 266.667317 113.185901 
C 269.448822 113.185901 272.116779 112.080798 274.0836 110.113977 
C 276.050421 108.147156 277.155524 105.479199 277.155524 102.697694 
C 277.155524 99.916189 276.050421 97.248233 274.0836 95.281412 
C 272.116779 93.314591 269.448822 92.209487 266.667317 92.209487 
C 263.885812 92.209487 261.217856 93.314591 259.251035 95.281412 
C 257.284214 97.248233 256.179111 99.916189 256.179111 102.697694 
C 256.179111 105.479199 257.284214 108.147156 259.251035 110.113977 
C 261.217856 112.080798 263.885812 113.185901 266.667317 113.185901 
z
" style="fill:#a6bcff;stroke:#a6bcff;"/>
    <path clip-path="url(#pc053549968)" d="M 274.658915 110.218875 
C 277.552291 110.218875 280.327551 109.069325 282.373477 107.023399 
C 284.419402 104.977473 285.568953 102.202213 285.568953 99.308837 
C 285.568953 96.415461 284.419402 93.640201 282.373477 91.594275 
C 280.327551 89.54835 277.552291 88.398799 274.658915 88.398799 
C 271.765539 88.398799 268.990279 89.54835 266.944353 91.594275 
C 264.898427 93.640201 263.748877 96.415461 263.748877 99.308837 
C 263.748877 102.202213 264.898427 104.977473 266.944353 107.023399 
C 268.990279 109.069325 271.765539 110.218875 274.658915 110.218875 
z
" style="fill:#a6bbff;stroke:#a6bbff;"/>
    <path clip-path="url(#pc053549968)" d="M 281.747306 107.536773 
C 284.745812 107.536773 287.62191 106.345454 289.742174 104.22519 
C 291.862438 102.104927 293.053757 99.228828 293.053757 96.230322 
C 293.053757 93.231817 291.862438 90.355718 289.742174 88.235454 
C 287.62191 86.11519 284.745812 84.923871 281.747306 84.923871 
C 278.7488 84.923871 275.872702 86.11519 273.752438 88.235454 
C 271.632174 90.355718 270.440855 93.231817 270.440855 96.230322 
C 270.440855 99.228828 271.632174 102.104927 273.752438 104.22519 
C 275.872702 106.345454 278.7488 107.536773 281.747306 107.536773 
z
" style="fill:#a5bbff;stroke:#a5bbff;"/>
    <path clip-path="url(#pc053549968)" d="M 288.236261 105.089872 
C 291.334785 105.089872 294.306819 103.858815 296.497806 101.667828 
C 298.688793 99.47684 299.91985 96.504807 299.91985 93.406283 
C 299.91985 90.307759 298.688793 87.335725 296.497806 85.144738 
C 294.306819 82.95375 291.334785 81.722694 288.236261 81.722694 
C 285.137737 81.722694 282.165703 82.95375 279.974716 85.144738 
C 277.783729 87.335725 276.552672 90.307759 276.552672 93.406283 
C 276.552672 96.504807 277.783729 99.47684 279.974716 101.667828 
C 282.165703 103.858815 285.137737 105.089872 288.236261 105.089872 
z
" style="fill:#a4baff;stroke:#a4baff;"/>
    <path clip-path="url(#pc053549968)" d="M 294.044244 102.813082 
C 297.232329 102.813082 300.290267 101.546443 302.544583 99.292126 
C 304.7989 97.03781 306.065539 93.979872 306.065539 90.791787 
C 306.065539 87.603702 304.7989 84.545764 302.544583 82.291447 
C 300.290267 80.037131 297.232329 78.770491 294.044244 78.770491 
C 290.856159 78.770491 287.798221 80.037131 285.543904 82.291447 
C 283.289588 84.545764 282.022948 87.603702 282.022948 90.791787 
C 282.022948 93.979872 283.289588 97.03781 285.543904 99.292126 
C 287.798221 101.546443 290.856159 102.813082 294.044244 102.813082 
z
" style="fill:#a4baff;stroke:#a4baff;"/>
    <path clip-path="url(#pc053549968)" d="M 299.562024 100.711126 
C 302.836598 100.711126 305.977495 99.410124 308.292968 97.09465 
C 310.608442 94.779177 311.909444 91.63828 311.909444 88.363705 
C 311.909444 85.089131 310.608442 81.948234 308.292968 79.632761 
C 305.977495 77.317287 302.836598 76.016285 299.562024 76.016285 
C 296.287449 76.016285 293.146552 77.317287 290.831079 79.632761 
C 288.515605 81.948234 287.214603 85.089131 287.214603 88.363705 
C 287.214603 91.63828 288.515605 94.779177 290.831079 97.09465 
C 293.146552 99.410124 296.287449 100.711126 299.562024 100.711126 
z
" style="fill:#a3baff;stroke:#a3baff;"/>
    <path clip-path="url(#pc053549968)" d="M 304.755721 98.763494 
C 308.114294 98.763494 311.335762 97.429118 313.710632 95.054248 
C 316.085502 92.679378 317.419878 89.457911 317.419878 86.099337 
C 317.419878 82.740763 316.085502 79.519296 313.710632 77.144426 
C 311.335762 74.769555 308.114294 73.43518 304.755721 73.43518 
C 301.397147 73.43518 298.17568 74.769555 295.800809 77.144426 
C 293.425939 79.519296 292.091564 82.740763 292.091564 86.099337 
C 292.091564 89.457911 293.425939 92.679378 295.800809 95.054248 
C 298.17568 97.429118 301.397147 98.763494 304.755721 98.763494 
z
" style="fill:#a3b9ff;stroke:#a3b9ff;"/>
    <path clip-path="url(#pc053549968)" d="M 309.592578 96.946934 
C 313.032351 96.946934 316.331704 95.580298 318.763991 93.148011 
C 321.196278 90.715723 322.562915 87.416371 322.562915 83.976597 
C 322.562915 80.536824 321.196278 77.237471 318.763991 74.805184 
C 316.331704 72.372897 313.032351 71.006261 309.592578 71.006261 
C 306.152804 71.006261 302.853452 72.372897 300.421165 74.805184 
C 297.988877 77.237471 296.622241 80.536824 296.622241 83.976597 
C 296.622241 87.416371 297.988877 90.715723 300.421165 93.148011 
C 302.853452 95.580298 306.152804 96.946934 309.592578 96.946934 
z
" style="fill:#a2b9ff;stroke:#a2b9ff;"/>
    <path clip-path="url(#pc053549968)" d="M 313.543113 95.256242 
C 317.055925 95.256242 320.425334 93.860587 322.909266 91.376655 
C 325.393199 88.892722 326.788854 85.523313 326.788854 82.010501 
C 326.788854 78.49769 325.393199 75.128281 322.909266 72.644348 
C 320.425334 70.160415 317.055925 68.76476 313.543113 68.76476 
C 310.030302 68.76476 306.660893 70.160415 304.17696 72.644348 
C 301.693027 75.128281 300.297372 78.49769 300.297372 82.010501 
C 300.297372 85.523313 301.693027 88.892722 304.17696 91.376655 
C 306.660893 93.860587 310.030302 95.256242 313.543113 95.256242 
z
" style="fill:#a2b9ff;stroke:#a2b9ff;"/>
    <path clip-path="url(#pc053549968)" d="M 317.060083 93.669486 
C 320.642325 93.669486 324.078329 92.246247 326.611357 89.713219 
C 329.144384 87.180192 330.567624 83.744187 330.567624 80.161946 
C 330.567624 76.579704 329.144384 73.143699 326.611357 70.610672 
C 324.078329 68.077645 320.642325 66.654405 317.060083 66.654405 
C 313.477841 66.654405 310.041837 68.077645 307.508809 70.610672 
C 304.975782 73.143699 303.552542 76.579704 303.552542 80.161946 
C 303.552542 83.744187 304.975782 87.180192 307.508809 89.713219 
C 310.041837 92.246247 313.477841 93.669486 317.060083 93.669486 
z
" style="fill:#a2b9ff;stroke:#a2b9ff;"/>
    <path clip-path="url(#pc053549968)" d="M 320.634156 92.183531 
C 324.285098 92.183531 327.786997 90.732996 330.368603 88.151391 
C 332.950208 85.569786 334.400742 82.067886 334.400742 78.416944 
C 334.400742 74.766003 332.950208 71.264103 330.368603 68.682498 
C 327.786997 66.100893 324.285098 64.650358 320.634156 64.650358 
C 316.983215 64.650358 313.481315 66.100893 310.89971 68.682498 
C 308.318104 71.264103 306.86757 74.766003 306.86757 78.416944 
C 306.86757 82.067886 308.318104 85.569786 310.89971 88.151391 
C 313.481315 90.732996 316.983215 92.183531 320.634156 92.183531 
z
" style="fill:#a1b8ff;stroke:#a1b8ff;"/>
    <path clip-path="url(#pc053549968)" d="M 323.743904 90.785019 
C 327.461651 90.785019 331.02763 89.307943 333.656474 86.679099 
C 336.285318 84.050255 337.762394 80.484277 337.762394 76.76653 
C 337.762394 73.048783 336.285318 69.482804 333.656474 66.85396 
C 331.02763 64.225116 327.461651 62.74804 323.743904 62.74804 
C 320.026157 62.74804 316.460179 64.225116 313.831335 66.85396 
C 311.202491 69.482804 309.725415 73.048783 309.725415 76.76653 
C 309.725415 80.484277 311.202491 84.050255 313.831335 86.679099 
C 316.460179 89.307943 320.026157 90.785019 323.743904 90.785019 
z
" style="fill:#a1b8ff;stroke:#a1b8ff;"/>
   </g>
   <g id="PathCollection_2">
    <path clip-path="url(#pc053549968)" d="M 104.987503 269.385746 
C 105.218573 269.385746 105.44021 269.29394 105.603601 269.130549 
C 105.766993 268.967158 105.858798 268.74552 105.858798 268.51445 
C 105.858798 268.28338 105.766993 268.061743 105.603601 267.898352 
C 105.44021 267.73496 105.218573 267.643155 104.987503 267.643155 
C 104.756433 267.643155 104.534795 267.73496 104.371404 267.898352 
C 104.208013 268.061743 104.116207 268.28338 104.116207 268.51445 
C 104.116207 268.74552 104.208013 268.967158 104.371404 269.130549 
C 104.534795 269.29394 104.756433 269.385746 104.987503 269.385746 
z
" style="fill:#9b3921;stroke:#9b3921;"/>
    <path clip-path="url(#pc053549968)" d="M 105.209501 267.9272 
C 105.446205 267.9272 105.673246 267.833156 105.840621 267.665781 
C 106.007997 267.498406 106.10204 267.271365 106.10204 267.034661 
C 106.10204 266.797957 106.007997 266.570915 105.840621 266.40354 
C 105.673246 266.236165 105.446205 266.142122 105.209501 266.142122 
C 104.972797 266.142122 104.745756 266.236165 104.57838 266.40354 
C 104.411005 266.570915 104.316962 266.797957 104.316962 267.034661 
C 104.316962 267.271365 104.411005 267.498406 104.57838 267.665781 
C 104.745756 267.833156 104.972797 267.9272 105.209501 267.9272 
z
" style="fill:#9f3b22;stroke:#9f3b22;"/>
    <path clip-path="url(#pc053549968)" d="M 105.437745 266.469172 
C 105.680221 266.469172 105.912797 266.372836 106.084254 266.20138 
C 106.25571 266.029924 106.352046 265.797347 106.352046 265.554871 
C 106.352046 265.312396 106.25571 265.079819 106.084254 264.908363 
C 105.912797 264.736907 105.680221 264.64057 105.437745 264.64057 
C 105.19527 264.64057 104.962693 264.736907 104.791237 264.908363 
C 104.619781 265.079819 104.523444 265.312396 104.523444 265.554871 
C 104.523444 265.797347 104.619781 266.029924 104.791237 266.20138 
C 104.962693 266.372836 105.19527 266.469172 105.437745 266.469172 
z
" style="fill:#a43d24;stroke:#a43d24;"/>
    <path clip-path="url(#pc053549968)" d="M 105.672411 265.011675 
C 105.920798 265.011675 106.159046 264.91299 106.334682 264.737353 
C 106.510319 264.561717 106.609004 264.323469 106.609004 264.075082 
C 106.609004 263.826694 106.510319 263.588447 106.334682 263.41281 
C 106.159046 263.237174 105.920798 263.138488 105.672411 263.138488 
C 105.424023 263.138488 105.185776 263.237174 105.010139 263.41281 
C 104.834503 263.588447 104.735817 263.826694 104.735817 264.075082 
C 104.735817 264.323469 104.834503 264.561717 105.010139 264.737353 
C 105.185776 264.91299 105.424023 265.011675 105.672411 265.011675 
z
" style="fill:#a94025;stroke:#a94025;"/>
    <path clip-path="url(#pc053549968)" d="M 105.913679 263.554722 
C 106.168122 263.554722 106.412179 263.45363 106.592098 263.273711 
C 106.772017 263.093792 106.873108 262.849736 106.873108 262.595292 
C 106.873108 262.340848 106.772017 262.096792 106.592098 261.916873 
C 106.412179 261.736954 106.168122 261.635863 105.913679 261.635863 
C 105.659235 261.635863 105.415179 261.736954 105.23526 261.916873 
C 105.055341 262.096792 104.954249 262.340848 104.954249 262.595292 
C 104.954249 262.849736 105.055341 263.093792 105.23526 263.273711 
C 105.415179 263.45363 105.659235 263.554722 105.913679 263.554722 
z
" style="fill:#ae4227;stroke:#ae4227;"/>
    <path clip-path="url(#pc053549968)" d="M 106.161735 262.098325 
C 106.422382 262.098325 106.672389 261.994768 106.856695 261.810463 
C 107.041001 261.626157 107.144557 261.37615 107.144557 261.115503 
C 107.144557 260.854855 107.041001 260.604848 106.856695 260.420542 
C 106.672389 260.236237 106.422382 260.13268 106.161735 260.13268 
C 105.901087 260.13268 105.65108 260.236237 105.466775 260.420542 
C 105.282469 260.604848 105.178913 260.854855 105.178913 261.115503 
C 105.178913 261.37615 105.282469 261.626157 105.466775 261.810463 
C 105.65108 261.994768 105.901087 262.098325 106.161735 262.098325 
z
" style="fill:#b34528;stroke:#b34528;"/>
    <path clip-path="url(#pc053549968)" d="M 106.41677 260.642498 
C 106.683772 260.642498 106.939875 260.536417 107.128675 260.347618 
C 107.317474 260.158818 107.423555 259.902716 107.423555 259.635713 
C 107.423555 259.36871 107.317474 259.112608 107.128675 258.923808 
C 106.939875 258.735009 106.683772 258.628928 106.41677 258.628928 
C 106.149767 258.628928 105.893664 258.735009 105.704865 258.923808 
C 105.516066 259.112608 105.409984 259.36871 105.409984 259.635713 
C 105.409984 259.902716 105.516066 260.158818 105.704865 260.347618 
C 105.893664 260.536417 106.149767 260.642498 106.41677 260.642498 
z
" style="fill:#b8472a;stroke:#b8472a;"/>
    <path clip-path="url(#pc053549968)" d="M 106.67898 259.187256 
C 106.952493 259.187256 107.21484 259.078589 107.408243 258.885186 
C 107.601645 258.691783 107.710313 258.429436 107.710313 258.155923 
C 107.710313 257.882411 107.601645 257.620064 107.408243 257.426661 
C 107.21484 257.233258 106.952493 257.124591 106.67898 257.124591 
C 106.405468 257.124591 106.14312 257.233258 105.949718 257.426661 
C 105.756315 257.620064 105.647647 257.882411 105.647647 258.155923 
C 105.647647 258.429436 105.756315 258.691783 105.949718 258.885186 
C 106.14312 259.078589 106.405468 259.187256 106.67898 259.187256 
z
" style="fill:#be4a2b;stroke:#be4a2b;"/>
    <path clip-path="url(#pc053549968)" d="M 106.948568 257.732613 
C 107.228749 257.732613 107.497493 257.621295 107.695611 257.423177 
C 107.893729 257.225059 108.005047 256.956315 108.005047 256.676134 
C 108.005047 256.395952 107.893729 256.127209 107.695611 255.929091 
C 107.497493 255.730972 107.228749 255.619655 106.948568 255.619655 
C 106.668386 255.619655 106.399643 255.730972 106.201525 255.929091 
C 106.003406 256.127209 105.892089 256.395952 105.892089 256.676134 
C 105.892089 256.956315 106.003406 257.225059 106.201525 257.423177 
C 106.399643 257.621295 106.668386 257.732613 106.948568 257.732613 
z
" style="fill:#c34d2d;stroke:#c34d2d;"/>
    <path clip-path="url(#pc053549968)" d="M 107.22574 256.278582 
C 107.512753 256.278582 107.788049 256.164551 107.990998 255.961602 
C 108.193947 255.758653 108.307978 255.483357 108.307978 255.196344 
C 108.307978 254.909331 108.193947 254.634035 107.990998 254.431087 
C 107.788049 254.228138 107.512753 254.114106 107.22574 254.114106 
C 106.938727 254.114106 106.663431 254.228138 106.460483 254.431087 
C 106.257534 254.634035 106.143502 254.909331 106.143502 255.196344 
C 106.143502 255.483357 106.257534 255.758653 106.460483 255.961602 
C 106.663431 256.164551 106.938727 256.278582 107.22574 256.278582 
z
" style="fill:#ca502f;stroke:#ca502f;"/>
    <path clip-path="url(#pc053549968)" d="M 107.510711 254.82518 
C 107.804722 254.82518 108.08673 254.708368 108.294627 254.500471 
C 108.502524 254.292574 108.619336 254.010566 108.619336 253.716555 
C 108.619336 253.422544 108.502524 253.140536 108.294627 252.932639 
C 108.08673 252.724742 107.804722 252.60793 107.510711 252.60793 
C 107.2167 252.60793 106.934692 252.724742 106.726795 252.932639 
C 106.518898 253.140536 106.402086 253.422544 106.402086 253.716555 
C 106.402086 254.010566 106.518898 254.292574 106.726795 254.500471 
C 106.934692 254.708368 107.2167 254.82518 107.510711 254.82518 
z
" style="fill:#d05331;stroke:#d05331;"/>
    <path clip-path="url(#pc053549968)" d="M 107.803699 253.372421 
C 108.104878 253.372421 108.393763 253.252761 108.606729 253.039795 
C 108.819695 252.826829 108.939354 252.537945 108.939354 252.236765 
C 108.939354 251.935586 108.819695 251.646702 108.606729 251.433736 
C 108.393763 251.22077 108.104878 251.10111 107.803699 251.10111 
C 107.50252 251.10111 107.213635 251.22077 107.000669 251.433736 
C 106.787704 251.646702 106.668044 251.935586 106.668044 252.236765 
C 106.668044 252.537945 106.787704 252.826829 107.000669 253.039795 
C 107.213635 253.252761 107.50252 253.372421 107.803699 253.372421 
z
" style="fill:#d65733;stroke:#d65733;"/>
    <path clip-path="url(#pc053549968)" d="M 108.10493 251.920321 
C 108.413453 251.920321 108.709381 251.797743 108.92754 251.579585 
C 109.145698 251.361426 109.268275 251.065498 109.268275 250.756976 
C 109.268275 250.448453 109.145698 250.152525 108.92754 249.934367 
C 108.709381 249.716208 108.413453 249.593631 108.10493 249.593631 
C 107.796408 249.593631 107.50048 249.716208 107.282321 249.934367 
C 107.064163 250.152525 106.941586 250.448453 106.941586 250.756976 
C 106.941586 251.065498 107.064163 251.361426 107.282321 251.579585 
C 107.50048 251.797743 107.796408 251.920321 108.10493 251.920321 
z
" style="fill:#dd5a35;stroke:#dd5a35;"/>
    <path clip-path="url(#pc053549968)" d="M 108.414637 250.468896 
C 108.730682 250.468896 109.033825 250.34333 109.257303 250.119852 
C 109.48078 249.896374 109.606346 249.593231 109.606346 249.277186 
C 109.606346 248.961141 109.48078 248.657998 109.257303 248.43452 
C 109.033825 248.211043 108.730682 248.085477 108.414637 248.085477 
C 108.098592 248.085477 107.795449 248.211043 107.571971 248.43452 
C 107.348493 248.657998 107.222927 248.961141 107.222927 249.277186 
C 107.222927 249.593231 107.348493 249.896374 107.571971 250.119852 
C 107.795449 250.34333 108.098592 250.468896 108.414637 250.468896 
z
" style="fill:#e55e37;stroke:#e55e37;"/>
    <path clip-path="url(#pc053549968)" d="M 108.733057 249.018162 
C 109.056808 249.018162 109.367342 248.889535 109.596269 248.660608 
C 109.825195 248.431682 109.953823 248.121147 109.953823 247.797397 
C 109.953823 247.473646 109.825195 247.163111 109.596269 246.934185 
C 109.367342 246.705258 109.056808 246.576631 108.733057 246.576631 
C 108.409306 246.576631 108.098772 246.705258 107.869845 246.934185 
C 107.640919 247.163111 107.512291 247.473646 107.512291 247.797397 
C 107.512291 248.121147 107.640919 248.431682 107.869845 248.660608 
C 108.098772 248.889535 108.409306 249.018162 108.733057 249.018162 
z
" style="fill:#ec6239;stroke:#ec6239;"/>
    <path clip-path="url(#pc053549968)" d="M 109.060436 247.568137 
C 109.39208 247.568137 109.710186 247.436374 109.944694 247.201866 
C 110.179202 246.967357 110.310966 246.649252 110.310966 246.317607 
C 110.310966 245.985962 110.179202 245.667857 109.944694 245.433348 
C 109.710186 245.19884 109.39208 245.067076 109.060436 245.067076 
C 108.728791 245.067076 108.410685 245.19884 108.176177 245.433348 
C 107.941669 245.667857 107.809905 245.985962 107.809905 246.317607 
C 107.809905 246.649252 107.941669 246.967357 108.176177 247.201866 
C 108.410685 247.436374 108.728791 247.568137 109.060436 247.568137 
z
" style="fill:#f4653c;stroke:#f4653c;"/>
    <path clip-path="url(#pc053549968)" d="M 109.397025 246.118838 
C 109.736756 246.118838 110.062618 245.983862 110.302843 245.743636 
C 110.543069 245.50341 110.678046 245.177548 110.678046 244.837817 
C 110.678046 244.498087 110.543069 244.172225 110.302843 243.931999 
C 110.062618 243.691773 109.736756 243.556797 109.397025 243.556797 
C 109.057294 243.556797 108.731432 243.691773 108.491206 243.931999 
C 108.25098 244.172225 108.116004 244.498087 108.116004 244.837817 
C 108.116004 245.177548 108.25098 245.50341 108.491206 245.743636 
C 108.731432 245.983862 109.057294 246.118838 109.397025 246.118838 
z
" style="fill:#fc6a3e;stroke:#fc6a3e;"/>
    <path clip-path="url(#pc053549968)" d="M 109.743084 244.670283 
C 110.091098 244.670283 110.424905 244.532015 110.670988 244.285932 
C 110.917071 244.039849 111.055339 243.706042 111.055339 243.358028 
C 111.055339 243.010014 110.917071 242.676207 110.670988 242.430124 
C 110.424905 242.184041 110.091098 242.045773 109.743084 242.045773 
C 109.39507 242.045773 109.061263 242.184041 108.81518 242.430124 
C 108.569097 242.676207 108.430829 243.010014 108.430829 243.358028 
C 108.430829 243.706042 108.569097 244.039849 108.81518 244.285932 
C 109.061263 244.532015 109.39507 244.670283 109.743084 244.670283 
z
" style="fill:#ff6f42;stroke:#ff6f42;"/>
    <path clip-path="url(#pc053549968)" d="M 110.09888 243.222488 
C 110.455379 243.222488 110.797325 243.08085 111.049408 242.828767 
C 111.301491 242.576684 111.44313 242.234738 111.44313 241.878238 
C 111.44313 241.521739 111.301491 241.179793 111.049408 240.92771 
C 110.797325 240.675627 110.455379 240.533988 110.09888 240.533988 
C 109.74238 240.533988 109.400434 240.675627 109.148351 240.92771 
C 108.896268 241.179793 108.75463 241.521739 108.75463 241.878238 
C 108.75463 242.234738 108.896268 242.576684 109.148351 242.828767 
C 109.400434 243.08085 109.74238 243.222488 110.09888 243.222488 
z
" style="fill:#ff7546;stroke:#ff7546;"/>
    <path clip-path="url(#pc053549968)" d="M 110.464686 241.775474 
C 110.829877 241.775474 111.18016 241.630382 111.43839 241.372153 
C 111.696619 241.113924 111.841711 240.76364 111.841711 240.398449 
C 111.841711 240.033257 111.696619 239.682974 111.43839 239.424745 
C 111.18016 239.166515 110.829877 239.021423 110.464686 239.021423 
C 110.099494 239.021423 109.749211 239.166515 109.490981 239.424745 
C 109.232752 239.682974 109.08766 240.033257 109.08766 240.398449 
C 109.08766 240.76364 109.232752 241.113924 109.490981 241.372153 
C 109.749211 241.630382 110.099494 241.775474 110.464686 241.775474 
z
" style="fill:#ff7c4b;stroke:#ff7c4b;"/>
    <path clip-path="url(#pc053549968)" d="M 110.840783 240.329259 
C 111.214879 240.329259 111.573703 240.18063 111.838228 239.916104 
C 112.102754 239.651579 112.251383 239.292755 112.251383 238.918659 
C 112.251383 238.544564 112.102754 238.18574 111.838228 237.921214 
C 111.573703 237.656689 111.214879 237.508059 110.840783 237.508059 
C 110.466688 237.508059 110.107864 237.656689 109.843338 237.921214 
C 109.578813 238.18574 109.430183 238.544564 109.430183 238.918659 
C 109.430183 239.292755 109.578813 239.651579 109.843338 239.916104 
C 110.107864 240.18063 110.466688 240.329259 110.840783 240.329259 
z
" style="fill:#ff8350;stroke:#ff8350;"/>
    <path clip-path="url(#pc053549968)" d="M 111.227462 238.883863 
C 111.610679 238.883863 111.978252 238.731609 112.249227 238.460634 
C 112.520202 238.189659 112.672456 237.822086 112.672456 237.43887 
C 112.672456 237.055653 112.520202 236.68808 112.249227 236.417105 
C 111.978252 236.14613 111.610679 235.993876 111.227462 235.993876 
C 110.844246 235.993876 110.476673 236.14613 110.205698 236.417105 
C 109.934723 236.68808 109.782469 237.055653 109.782469 237.43887 
C 109.782469 237.822086 109.934723 238.189659 110.205698 238.460634 
C 110.476673 238.731609 110.844246 238.883863 111.227462 238.883863 
z
" style="fill:#ff8a55;stroke:#ff8a55;"/>
    <path clip-path="url(#pc053549968)" d="M 111.625021 237.439305 
C 112.017581 237.439305 112.394116 237.283339 112.671698 237.005757 
C 112.94928 236.728175 113.105246 236.35164 113.105246 235.95908 
C 113.105246 235.56652 112.94928 235.189985 112.671698 234.912403 
C 112.394116 234.634821 112.017581 234.478855 111.625021 234.478855 
C 111.23246 234.478855 110.855925 234.634821 110.578343 234.912403 
C 110.300761 235.189985 110.144795 235.56652 110.144795 235.95908 
C 110.144795 236.35164 110.300761 236.728175 110.578343 237.005757 
C 110.855925 237.283339 111.23246 237.439305 111.625021 237.439305 
z
" style="fill:#ff915a;stroke:#ff915a;"/>
    <path clip-path="url(#pc053549968)" d="M 112.033764 235.995607 
C 112.435896 235.995607 112.821611 235.835838 113.105961 235.551488 
C 113.390311 235.267138 113.55008 234.881422 113.55008 234.479291 
C 113.55008 234.077159 113.390311 233.691443 113.105961 233.407093 
C 112.821611 233.122743 112.435896 232.962975 112.033764 232.962975 
C 111.631632 232.962975 111.245917 233.122743 110.961567 233.407093 
C 110.677217 233.691443 110.517448 234.077159 110.517448 234.479291 
C 110.517448 234.881422 110.677217 235.267138 110.961567 235.551488 
C 111.245917 235.835838 111.631632 235.995607 112.033764 235.995607 
z
" style="fill:#ff9960;stroke:#ff9960;"/>
    <path clip-path="url(#pc053549968)" d="M 112.454007 234.552788 
C 112.865944 234.552788 113.261064 234.389124 113.552347 234.097841 
C 113.84363 233.806558 114.007294 233.411437 114.007294 232.999501 
C 114.007294 232.587565 113.84363 232.192444 113.552347 231.901161 
C 113.261064 231.609878 112.865944 231.446214 112.454007 231.446214 
C 112.042071 231.446214 111.646951 231.609878 111.355668 231.901161 
C 111.064385 232.192444 110.900721 232.587565 110.900721 232.999501 
C 110.900721 233.411437 111.064385 233.806558 111.355668 234.097841 
C 111.646951 234.389124 112.042071 234.552788 112.454007 234.552788 
z
" style="fill:#ffa165;stroke:#ffa165;"/>
    <path clip-path="url(#pc053549968)" d="M 112.886074 233.11087 
C 113.308055 233.11087 113.712808 232.943216 114.011194 232.644831 
C 114.309579 232.346446 114.477233 231.941692 114.477233 231.519711 
C 114.477233 231.097731 114.309579 230.692977 114.011194 230.394592 
C 113.712808 230.096207 113.308055 229.928552 112.886074 229.928552 
C 112.464094 229.928552 112.05934 230.096207 111.760955 230.394592 
C 111.46257 230.692977 111.294915 231.097731 111.294915 231.519711 
C 111.294915 231.941692 111.46257 232.346446 111.760955 232.644831 
C 112.05934 232.943216 112.464094 233.11087 112.886074 233.11087 
z
" style="fill:#ffa96b;stroke:#ffa96b;"/>
    <path clip-path="url(#pc053549968)" d="M 113.330297 231.669877 
C 113.762566 231.669877 114.177189 231.498134 114.482849 231.192474 
C 114.78851 230.886814 114.960252 230.472191 114.960252 230.039922 
C 114.960252 229.607653 114.78851 229.19303 114.482849 228.88737 
C 114.177189 228.58171 113.762566 228.409967 113.330297 228.409967 
C 112.898028 228.409967 112.483406 228.58171 112.177745 228.88737 
C 111.872085 229.19303 111.700343 229.607653 111.700343 230.039922 
C 111.700343 230.472191 111.872085 230.886814 112.177745 231.192474 
C 112.483406 231.498134 112.898028 231.669877 113.330297 231.669877 
z
" style="fill:#ffb171;stroke:#ffb171;"/>
    <path clip-path="url(#pc053549968)" d="M 113.787018 230.229828 
C 114.229827 230.229828 114.654559 230.053899 114.967672 229.740786 
C 115.280785 229.427673 115.456714 229.002941 115.456714 228.560132 
C 115.456714 228.117324 115.280785 227.692592 114.967672 227.379479 
C 114.654559 227.066366 114.229827 226.890436 113.787018 226.890436 
C 113.34421 226.890436 112.919478 227.066366 112.606365 227.379479 
C 112.293252 227.692592 112.117322 228.117324 112.117322 228.560132 
C 112.117322 229.002941 112.293252 229.427673 112.606365 229.740786 
C 112.919478 230.053899 113.34421 230.229828 113.787018 230.229828 
z
" style="fill:#ffb474;stroke:#ffb474;"/>
    <path clip-path="url(#pc053549968)" d="M 114.256589 228.790749 
C 114.710194 228.790749 115.145282 228.61053 115.466029 228.289783 
C 115.786777 227.969036 115.966996 227.533948 115.966996 227.080343 
C 115.966996 226.626738 115.786777 226.19165 115.466029 225.870903 
C 115.145282 225.550155 114.710194 225.369936 114.256589 225.369936 
C 113.802984 225.369936 113.367896 225.550155 113.047149 225.870903 
C 112.726402 226.19165 112.546182 226.626738 112.546182 227.080343 
C 112.546182 227.533948 112.726402 227.969036 113.047149 228.289783 
C 113.367896 228.61053 113.802984 228.790749 114.256589 228.790749 
z
" style="fill:#ffb777;stroke:#ffb777;"/>
    <path clip-path="url(#pc053549968)" d="M 114.739371 227.352663 
C 115.204036 227.352663 115.649732 227.16805 115.9783 226.839482 
C 116.306868 226.510914 116.491481 226.065218 116.491481 225.600553 
C 116.491481 225.135888 116.306868 224.690192 115.9783 224.361625 
C 115.649732 224.033057 115.204036 223.848443 114.739371 223.848443 
C 114.274706 223.848443 113.82901 224.033057 113.500443 224.361625 
C 113.171875 224.690192 112.987262 225.135888 112.987262 225.600553 
C 112.987262 226.065218 113.171875 226.510914 113.500443 226.839482 
C 113.82901 227.16805 114.274706 227.352663 114.739371 227.352663 
z
" style="fill:#ffb979;stroke:#ffb979;"/>
    <path clip-path="url(#pc053549968)" d="M 115.235736 225.915593 
C 115.711731 225.915593 116.168294 225.726479 116.504873 225.3899 
C 116.841451 225.053321 117.030566 224.596758 117.030566 224.120764 
C 117.030566 223.644769 116.841451 223.188206 116.504873 222.851627 
C 116.168294 222.515049 115.711731 222.325934 115.235736 222.325934 
C 114.759742 222.325934 114.303179 222.515049 113.9666 222.851627 
C 113.630021 223.188206 113.440907 223.644769 113.440907 224.120764 
C 113.440907 224.596758 113.630021 225.053321 113.9666 225.3899 
C 114.303179 225.726479 114.759742 225.915593 115.235736 225.915593 
z
" style="fill:#ffbb7b;stroke:#ffbb7b;"/>
    <path clip-path="url(#pc053549968)" d="M 115.746067 224.479565 
C 116.233667 224.479565 116.701361 224.28584 117.046147 223.941054 
C 117.390932 223.596269 117.584658 223.128574 117.584658 222.640974 
C 117.584658 222.153374 117.390932 221.685679 117.046147 221.340894 
C 116.701361 220.996109 116.233667 220.802383 115.746067 220.802383 
C 115.258466 220.802383 114.790772 220.996109 114.445986 221.340894 
C 114.101201 221.685679 113.907475 222.153374 113.907475 222.640974 
C 113.907475 223.128574 114.101201 223.596269 114.445986 223.941054 
C 114.790772 224.28584 115.258466 224.479565 115.746067 224.479565 
z
" style="fill:#ffbb7b;stroke:#ffbb7b;"/>
    <path clip-path="url(#pc053549968)" d="M 116.270755 223.044604 
C 116.770244 223.044604 117.249342 222.846155 117.602534 222.492963 
C 117.955725 222.139771 118.154174 221.660673 118.154174 221.161185 
C 118.154174 220.661696 117.955725 220.182598 117.602534 219.829406 
C 117.249342 219.476214 116.770244 219.277765 116.270755 219.277765 
C 115.771266 219.277765 115.292168 219.476214 114.938976 219.829406 
C 114.585784 220.182598 114.387335 220.661696 114.387335 221.161185 
C 114.387335 221.660673 114.585784 222.139771 114.938976 222.492963 
C 115.292168 222.846155 115.771266 223.044604 116.270755 223.044604 
z
" style="fill:#ffbb7b;stroke:#ffbb7b;"/>
    <path clip-path="url(#pc053549968)" d="M 116.810205 221.610736 
C 117.321872 221.610736 117.812652 221.407449 118.174455 221.045645 
C 118.536259 220.683842 118.739546 220.193062 118.739546 219.681395 
C 118.739546 219.169728 118.536259 218.678948 118.174455 218.317145 
C 117.812652 217.955341 117.321872 217.752054 116.810205 217.752054 
C 116.298538 217.752054 115.807758 217.955341 115.445955 218.317145 
C 115.084151 218.678948 114.880864 219.169728 114.880864 219.681395 
C 114.880864 220.193062 115.084151 220.683842 115.445955 221.045645 
C 115.807758 221.407449 116.298538 221.610736 116.810205 221.610736 
z
" style="fill:#ffbb7b;stroke:#ffbb7b;"/>
    <path clip-path="url(#pc053549968)" d="M 117.364833 220.177988 
C 117.888975 220.177988 118.391721 219.969744 118.762346 219.599119 
C 119.132971 219.228494 119.341215 218.725748 119.341215 218.201605 
C 119.341215 217.677463 119.132971 217.174717 118.762346 216.804092 
C 118.391721 216.433467 117.888975 216.225223 117.364833 216.225223 
C 116.84069 216.225223 116.337944 216.433467 115.967319 216.804092 
C 115.596694 217.174717 115.38845 217.677463 115.38845 218.201605 
C 115.38845 218.725748 115.596694 219.228494 115.967319 219.599119 
C 116.337944 219.969744 116.84069 220.177988 117.364833 220.177988 
z
" style="fill:#ffbc7c;stroke:#ffbc7c;"/>
    <path clip-path="url(#pc053549968)" d="M 117.935065 218.746386 
C 118.471987 218.746386 118.986991 218.533065 119.366652 218.153403 
C 119.746313 217.773742 119.959635 217.258738 119.959635 216.721816 
C 119.959635 216.184894 119.746313 215.66989 119.366652 215.290228 
C 118.986991 214.910567 118.471987 214.697246 117.935065 214.697246 
C 117.398142 214.697246 116.883139 214.910567 116.503477 215.290228 
C 116.123816 215.66989 115.910494 216.184894 115.910494 216.721816 
C 115.910494 217.258738 116.123816 217.773742 116.503477 218.153403 
C 116.883139 218.533065 117.398142 218.746386 117.935065 218.746386 
z
" style="fill:#ffbc7d;stroke:#ffbc7d;"/>
    <path clip-path="url(#pc053549968)" d="M 118.52134 217.31596 
C 119.071353 217.31596 119.598914 217.097437 119.987832 216.708519 
C 120.376751 216.3196 120.595273 215.79204 120.595273 215.242026 
C 120.595273 214.692013 120.376751 214.164452 119.987832 213.775534 
C 119.598914 213.386616 119.071353 213.168093 118.52134 213.168093 
C 117.971326 213.168093 117.443766 213.386616 117.054847 213.775534 
C 116.665929 214.164452 116.447406 214.692013 116.447406 215.242026 
C 116.447406 215.79204 116.665929 216.3196 117.054847 216.708519 
C 117.443766 217.097437 117.971326 217.31596 118.52134 217.31596 
z
" style="fill:#ffbd7d;stroke:#ffbd7d;"/>
    <path clip-path="url(#pc053549968)" d="M 119.12411 215.886737 
C 119.687534 215.886737 120.227957 215.662886 120.626358 215.264485 
C 121.024759 214.866084 121.24861 214.325661 121.24861 213.762237 
C 121.24861 213.198813 121.024759 212.658389 120.626358 212.259988 
C 120.227957 211.861588 119.687534 211.637737 119.12411 211.637737 
C 118.560686 211.637737 118.020262 211.861588 117.621861 212.259988 
C 117.223461 212.658389 116.99961 213.198813 116.99961 213.762237 
C 116.99961 214.325661 117.223461 214.866084 117.621861 215.264485 
C 118.020262 215.662886 118.560686 215.886737 119.12411 215.886737 
z
" style="fill:#ffbd7e;stroke:#ffbd7e;"/>
    <path clip-path="url(#pc053549968)" d="M 119.743839 214.458747 
C 120.321 214.458747 120.8746 214.229438 121.282715 213.821323 
C 121.69083 213.413209 121.920138 212.859609 121.920138 212.282447 
C 121.920138 211.705286 121.69083 211.151686 121.282715 210.743571 
C 120.8746 210.335456 120.321 210.106148 119.743839 210.106148 
C 119.166677 210.106148 118.613077 210.335456 118.204963 210.743571 
C 117.796848 211.151686 117.567539 211.705286 117.567539 212.282447 
C 117.567539 212.859609 117.796848 213.413209 118.204963 213.821323 
C 118.613077 214.229438 119.166677 214.458747 119.743839 214.458747 
z
" style="fill:#ffbe7f;stroke:#ffbe7f;"/>
    <path clip-path="url(#pc053549968)" d="M 120.381003 213.03202 
C 120.972237 213.03202 121.539335 212.79712 121.9574 212.379055 
C 122.375466 211.960989 122.610365 211.393891 122.610365 210.802658 
C 122.610365 210.211424 122.375466 209.644326 121.9574 209.226261 
C 121.539335 208.808195 120.972237 208.573296 120.381003 208.573296 
C 119.78977 208.573296 119.222672 208.808195 118.804606 209.226261 
C 118.386541 209.644326 118.151641 210.211424 118.151641 210.802658 
C 118.151641 211.393891 118.386541 211.960989 118.804606 212.379055 
C 119.222672 212.79712 119.78977 213.03202 120.381003 213.03202 
z
" style="fill:#ffc083;stroke:#ffc083;"/>
    <path clip-path="url(#pc053549968)" d="M 121.036095 211.606586 
C 121.641744 211.606586 122.222669 211.365959 122.650927 210.937701 
C 123.079186 210.509442 123.319813 209.928517 123.319813 209.322868 
C 123.319813 208.717219 123.079186 208.136294 122.650927 207.708035 
C 122.222669 207.279777 121.641744 207.03915 121.036095 207.03915 
C 120.430446 207.03915 119.849521 207.279777 119.421262 207.708035 
C 118.993003 208.136294 118.752376 208.717219 118.752376 209.322868 
C 118.752376 209.928517 118.993003 210.509442 119.421262 210.937701 
C 119.849521 211.365959 120.430446 211.606586 121.036095 211.606586 
z
" style="fill:#ffc287;stroke:#ffc287;"/>
    <path clip-path="url(#pc053549968)" d="M 121.709617 210.182478 
C 122.330033 210.182478 122.925122 209.935985 123.363822 209.497284 
C 123.802523 209.058584 124.049017 208.463495 124.049017 207.843079 
C 124.049017 207.222662 123.802523 206.627574 123.363822 206.188873 
C 122.925122 205.750173 122.330033 205.503679 121.709617 205.503679 
C 121.089201 205.503679 120.494112 205.750173 120.055411 206.188873 
C 119.616711 206.627574 119.370217 207.222662 119.370217 207.843079 
C 119.370217 208.463495 119.616711 209.058584 120.055411 209.497284 
C 120.494112 209.935985 121.089201 210.182478 121.709617 210.182478 
z
" style="fill:#ffc48b;stroke:#ffc48b;"/>
    <path clip-path="url(#pc053549968)" d="M 122.402088 208.759728 
C 123.037631 208.759728 123.64723 208.507224 124.096627 208.057827 
C 124.546023 207.608431 124.798527 206.998832 124.798527 206.363289 
C 124.798527 205.727746 124.546023 205.118148 124.096627 204.668751 
C 123.64723 204.219354 123.037631 203.96685 122.402088 203.96685 
C 121.766545 203.96685 121.156947 204.219354 120.70755 204.668751 
C 120.258153 205.118148 120.005649 205.727746 120.005649 206.363289 
C 120.005649 206.998832 120.258153 207.608431 120.70755 208.057827 
C 121.156947 208.507224 121.766545 208.759728 122.402088 208.759728 
z
" style="fill:#ffc68f;stroke:#ffc68f;"/>
    <path clip-path="url(#pc053549968)" d="M 123.114042 207.338368 
C 123.765081 207.338368 124.389543 207.079708 124.849897 206.619354 
C 125.310251 206.159 125.568911 205.534538 125.568911 204.883499 
C 125.568911 204.232461 125.310251 203.607999 124.849897 203.147645 
C 124.389543 202.687291 123.765081 202.428631 123.114042 202.428631 
C 122.463004 202.428631 121.838542 202.687291 121.378188 203.147645 
C 120.917834 203.607999 120.659173 204.232461 120.659173 204.883499 
C 120.659173 205.534538 120.917834 206.159 121.378188 206.619354 
C 121.838542 207.079708 122.463004 207.338368 123.114042 207.338368 
z
" style="fill:#ffc996;stroke:#ffc996;"/>
    <path clip-path="url(#pc053549968)" d="M 123.846027 205.918433 
C 124.51294 205.918433 125.152627 205.653466 125.624205 205.181888 
C 126.095784 204.71031 126.360751 204.070622 126.360751 203.40371 
C 126.360751 202.736797 126.095784 202.09711 125.624205 201.625532 
C 125.152627 201.153954 124.51294 200.888986 123.846027 200.888986 
C 123.179115 200.888986 122.539427 201.153954 122.067849 201.625532 
C 121.596271 202.09711 121.331304 202.736797 121.331304 203.40371 
C 121.331304 204.070622 121.596271 204.71031 122.067849 205.181888 
C 122.539427 205.653466 123.179115 205.918433 123.846027 205.918433 
z
" style="fill:#ffce9e;stroke:#ffce9e;"/>
    <path clip-path="url(#pc053549968)" d="M 124.598606 204.499958 
C 125.281779 204.499958 125.937063 204.22853 126.42014 203.745454 
C 126.903216 203.262378 127.174644 202.607093 127.174644 201.92392 
C 127.174644 201.240747 126.903216 200.585463 126.42014 200.102387 
C 125.937063 199.61931 125.281779 199.347883 124.598606 199.347883 
C 123.915433 199.347883 123.260149 199.61931 122.777073 200.102387 
C 122.293996 200.585463 122.022569 201.240747 122.022569 201.92392 
C 122.022569 202.607093 122.293996 203.262378 122.777073 203.745454 
C 123.260149 204.22853 123.915433 204.499958 124.598606 204.499958 
z
" style="fill:#ffd3a7;stroke:#ffd3a7;"/>
    <path clip-path="url(#pc053549968)" d="M 125.372359 203.082977 
C 126.072189 203.082977 126.74345 202.804932 127.238305 202.310077 
C 127.73316 201.815222 128.011205 201.143961 128.011205 200.444131 
C 128.011205 199.744301 127.73316 199.073039 127.238305 198.578185 
C 126.74345 198.08333 126.072189 197.805284 125.372359 197.805284 
C 124.672529 197.805284 124.001267 198.08333 123.506413 198.578185 
C 123.011558 199.073039 122.733513 199.744301 122.733513 200.444131 
C 122.733513 201.143961 123.011558 201.815222 123.506413 202.310077 
C 124.001267 202.804932 124.672529 203.082977 125.372359 203.082977 
z
" style="fill:#ffd8af;stroke:#ffd8af;"/>
    <path clip-path="url(#pc053549968)" d="M 126.167881 201.667528 
C 126.884774 201.667528 127.572402 201.382703 128.079323 200.875783 
C 128.586243 200.368863 128.871068 199.681235 128.871068 198.964341 
C 128.871068 198.247448 128.586243 197.55982 128.079323 197.0529 
C 127.572402 196.545979 126.884774 196.261155 126.167881 196.261155 
C 125.450987 196.261155 124.76336 196.545979 124.256439 197.0529 
C 123.749519 197.55982 123.464694 198.247448 123.464694 198.964341 
C 123.464694 199.681235 123.749519 200.368863 124.256439 200.875783 
C 124.76336 201.382703 125.450987 201.667528 126.167881 201.667528 
z
" style="fill:#ffdcb6;stroke:#ffdcb6;"/>
    <path clip-path="url(#pc053549968)" d="M 126.985785 200.253647 
C 127.720158 200.253647 128.424551 199.961878 128.943831 199.442598 
C 129.463111 198.923318 129.754881 198.218924 129.754881 197.484552 
C 129.754881 196.750179 129.463111 196.045785 128.943831 195.526505 
C 128.424551 195.007225 127.720158 194.715456 126.985785 194.715456 
C 126.251412 194.715456 125.547018 195.007225 125.027738 195.526505 
C 124.508458 196.045785 124.216689 196.750179 124.216689 197.484552 
C 124.216689 198.218924 124.508458 198.923318 125.027738 199.442598 
C 125.547018 199.961878 126.251412 200.253647 126.985785 200.253647 
z
" style="fill:#ffe0be;stroke:#ffe0be;"/>
    <path clip-path="url(#pc053549968)" d="M 127.8267 198.841374 
C 128.578978 198.841374 129.300547 198.542491 129.832488 198.01055 
C 130.364429 197.478609 130.663312 196.75704 130.663312 196.004762 
C 130.663312 195.252484 130.364429 194.530916 129.832488 193.998975 
C 129.300547 193.467034 128.578978 193.16815 127.8267 193.16815 
C 127.074422 193.16815 126.352854 193.467034 125.820913 193.998975 
C 125.288972 194.530916 124.990089 195.252484 124.990089 196.004762 
C 124.990089 196.75704 125.288972 197.478609 125.820913 198.01055 
C 126.352854 198.542491 127.074422 198.841374 127.8267 198.841374 
z
" style="fill:#ffe4c5;stroke:#ffe4c5;"/>
   </g>
   <g id="PathCollection_3">
    <path clip-path="url(#pc053549968)" d="M 325.940734 90.127776 
C 329.692165 90.127776 333.290453 88.637317 335.943116 85.984654 
C 338.595778 83.331991 340.086238 79.733704 340.086238 75.982272 
C 340.086238 72.230841 338.595778 68.632553 335.943116 65.97989 
C 333.290453 63.327228 329.692165 61.836768 325.940734 61.836768 
C 322.189302 61.836768 318.591015 63.327228 315.938352 65.97989 
C 313.285689 68.632553 311.79523 72.230841 311.79523 75.982272 
C 311.79523 79.733704 313.285689 83.331991 315.938352 85.984654 
C 318.591015 88.637317 322.189302 90.127776 325.940734 90.127776 
z
" style="fill:#a1b8ff;stroke:#a1b8ff;"/>
    <path clip-path="url(#pc053549968)" d="M 341.122638 83.698699 
C 345.193049 83.698699 349.097295 82.081508 351.975511 79.203292 
C 354.853726 76.325077 356.470918 72.420831 356.470918 68.35042 
C 356.470918 64.280008 354.853726 60.375762 351.975511 57.497547 
C 349.097295 54.619332 345.193049 53.00214 341.122638 53.00214 
C 337.052227 53.00214 333.147981 54.619332 330.269765 57.497547 
C 327.39155 60.375762 325.774358 64.280008 325.774358 68.35042 
C 325.774358 72.420831 327.39155 76.325077 330.269765 79.203292 
C 333.147981 82.081508 337.052227 83.698699 341.122638 83.698699 
z
" style="fill:#a0b7ff;stroke:#a0b7ff;"/>
    <path clip-path="url(#pc053549968)" d="M 357.311737 77.371893 
C 361.72825 77.371893 365.96447 75.617194 369.087417 72.494247 
C 372.210363 69.3713 373.965063 65.135081 373.965063 60.718567 
C 373.965063 56.302053 372.210363 52.065834 369.087417 48.942887 
C 365.96447 45.819941 361.72825 44.065241 357.311737 44.065241 
C 352.895223 44.065241 348.659004 45.819941 345.536057 48.942887 
C 342.41311 52.065834 340.658411 56.302053 340.658411 60.718567 
C 340.658411 65.135081 342.41311 69.3713 345.536057 72.494247 
C 348.659004 75.617194 352.895223 77.371893 357.311737 77.371893 
z
" style="fill:#9fb6ff;stroke:#9fb6ff;"/>
    <path clip-path="url(#pc053549968)" d="M 374.574849 71.156053 
C 379.366894 71.156053 383.963314 69.252154 387.351801 65.863667 
C 390.740289 62.475179 392.644188 57.878759 392.644188 53.086715 
C 392.644188 48.29467 390.740289 43.69825 387.351801 40.309762 
C 383.963314 36.921275 379.366894 35.017376 374.574849 35.017376 
C 369.782805 35.017376 365.186385 36.921275 361.797897 40.309762 
C 358.40941 43.69825 356.50551 48.29467 356.50551 53.086715 
C 356.50551 57.878759 358.40941 62.475179 361.797897 65.863667 
C 365.186385 69.252154 369.782805 71.156053 374.574849 71.156053 
z
" style="fill:#9db4ff;stroke:#9db4ff;"/>
    <path clip-path="url(#pc053549968)" d="M 392.983228 65.060616 
C 398.182734 65.060616 403.169983 62.99483 406.846589 59.318223 
C 410.523196 55.641617 412.588982 50.654369 412.588982 45.454862 
C 412.588982 40.255355 410.523196 35.268107 406.846589 31.5915 
C 403.169983 27.914894 398.182734 25.849108 392.983228 25.849108 
C 387.783721 25.849108 382.796473 27.914894 379.119866 31.5915 
C 375.44326 35.268107 373.377474 40.255355 373.377474 45.454862 
C 373.377474 50.654369 375.44326 55.641617 379.119866 59.318223 
C 382.796473 62.99483 387.783721 65.060616 392.983228 65.060616 
z
" style="fill:#9cb3ff;stroke:#9cb3ff;"/>
   </g>
   <g id="matplotlib.axis_1">
    <g id="xtick_1">
     <g id="line2d_1">
      <defs>
       <path d="M 0 0 
L 0 3.5 
" id="m0126f7008e" style="stroke:#000000;stroke-width:0.8;"/>
      </defs>
      <g>
       <use style="stroke:#000000;stroke-width:0.8;" x="97.09698" xlink:href="#m0126f7008e" y="280.6"/>
      </g>
     </g>
     <g id="text_1">
      <!-- 0 -->
      <defs>
       <path d="M 31.78125 66.40625 
Q 24.171875 66.40625 20.328125 58.90625 
Q 16.5 51.421875 16.5 36.375 
Q 16.5 21.390625 20.328125 13.890625 
Q 24.171875 6.390625 31.78125 6.390625 
Q 39.453125 6.390625 43.28125 13.890625 
Q 47.125 21.390625 47.125 36.375 
Q 47.125 51.421875 43.28125 58.90625 
Q 39.453125 66.40625 31.78125 66.40625 
z
M 31.78125 74.21875 
Q 44.046875 74.21875 50.515625 64.515625 
Q 56.984375 54.828125 56.984375 36.375 
Q 56.984375 17.96875 50.515625 8.265625 
Q 44.046875 -1.421875 31.78125 -1.421875 
Q 19.53125 -1.421875 13.0625 8.265625 
Q 6.59375 17.96875 6.59375 36.375 
Q 6.59375 54.828125 13.0625 64.515625 
Q 19.53125 74.21875 31.78125 74.21875 
z
" id="DejaVuSans-30"/>
      </defs>
      <g transform="translate(91.37073 301.277187)scale(0.18 -0.18)">
       <use xlink:href="#DejaVuSans-30"/>
      </g>
     </g>
    </g>
    <g id="xtick_2">
     <g id="line2d_2">
      <g>
       <use style="stroke:#000000;stroke-width:0.8;" x="160.243584" xlink:href="#m0126f7008e" y="280.6"/>
      </g>
     </g>
     <g id="text_2">
      <!-- 10000 -->
      <defs>
       <path d="M 12.40625 8.296875 
L 28.515625 8.296875 
L 28.515625 63.921875 
L 10.984375 60.40625 
L 10.984375 69.390625 
L 28.421875 72.90625 
L 38.28125 72.90625 
L 38.28125 8.296875 
L 54.390625 8.296875 
L 54.390625 0 
L 12.40625 0 
z
" id="DejaVuSans-31"/>
      </defs>
      <g transform="translate(131.612334 301.277187)scale(0.18 -0.18)">
       <use xlink:href="#DejaVuSans-31"/>
       <use x="63.623047" xlink:href="#DejaVuSans-30"/>
       <use x="127.246094" xlink:href="#DejaVuSans-30"/>
       <use x="190.869141" xlink:href="#DejaVuSans-30"/>
       <use x="254.492188" xlink:href="#DejaVuSans-30"/>
      </g>
     </g>
    </g>
    <g id="xtick_3">
     <g id="line2d_3">
      <g>
       <use style="stroke:#000000;stroke-width:0.8;" x="223.390187" xlink:href="#m0126f7008e" y="280.6"/>
      </g>
     </g>
     <g id="text_3">
      <!-- 20000 -->
      <defs>
       <path d="M 19.1875 8.296875 
L 53.609375 8.296875 
L 53.609375 0 
L 7.328125 0 
L 7.328125 8.296875 
Q 12.9375 14.109375 22.625 23.890625 
Q 32.328125 33.6875 34.8125 36.53125 
Q 39.546875 41.84375 41.421875 45.53125 
Q 43.3125 49.21875 43.3125 52.78125 
Q 43.3125 58.59375 39.234375 62.25 
Q 35.15625 65.921875 28.609375 65.921875 
Q 23.96875 65.921875 18.8125 64.3125 
Q 13.671875 62.703125 7.8125 59.421875 
L 7.8125 69.390625 
Q 13.765625 71.78125 18.9375 73 
Q 24.125 74.21875 28.421875 74.21875 
Q 39.75 74.21875 46.484375 68.546875 
Q 53.21875 62.890625 53.21875 53.421875 
Q 53.21875 48.921875 51.53125 44.890625 
Q 49.859375 40.875 45.40625 35.40625 
Q 44.1875 33.984375 37.640625 27.21875 
Q 31.109375 20.453125 19.1875 8.296875 
z
" id="DejaVuSans-32"/>
      </defs>
      <g transform="translate(194.758937 301.277187)scale(0.18 -0.18)">
       <use xlink:href="#DejaVuSans-32"/>
       <use x="63.623047" xlink:href="#DejaVuSans-30"/>
       <use x="127.246094" xlink:href="#DejaVuSans-30"/>
       <use x="190.869141" xlink:href="#DejaVuSans-30"/>
       <use x="254.492188" xlink:href="#DejaVuSans-30"/>
      </g>
     </g>
    </g>
    <g id="xtick_4">
     <g id="line2d_4">
      <g>
       <use style="stroke:#000000;stroke-width:0.8;" x="286.536791" xlink:href="#m0126f7008e" y="280.6"/>
      </g>
     </g>
     <g id="text_4">
      <!-- 30000 -->
      <defs>
       <path d="M 40.578125 39.3125 
Q 47.65625 37.796875 51.625 33 
Q 55.609375 28.21875 55.609375 21.1875 
Q 55.609375 10.40625 48.1875 4.484375 
Q 40.765625 -1.421875 27.09375 -1.421875 
Q 22.515625 -1.421875 17.65625 -0.515625 
Q 12.796875 0.390625 7.625 2.203125 
L 7.625 11.71875 
Q 11.71875 9.328125 16.59375 8.109375 
Q 21.484375 6.890625 26.8125 6.890625 
Q 36.078125 6.890625 40.9375 10.546875 
Q 45.796875 14.203125 45.796875 21.1875 
Q 45.796875 27.640625 41.28125 31.265625 
Q 36.765625 34.90625 28.71875 34.90625 
L 20.21875 34.90625 
L 20.21875 43.015625 
L 29.109375 43.015625 
Q 36.375 43.015625 40.234375 45.921875 
Q 44.09375 48.828125 44.09375 54.296875 
Q 44.09375 59.90625 40.109375 62.90625 
Q 36.140625 65.921875 28.71875 65.921875 
Q 24.65625 65.921875 20.015625 65.03125 
Q 15.375 64.15625 9.8125 62.3125 
L 9.8125 71.09375 
Q 15.4375 72.65625 20.34375 73.4375 
Q 25.25 74.21875 29.59375 74.21875 
Q 40.828125 74.21875 47.359375 69.109375 
Q 53.90625 64.015625 53.90625 55.328125 
Q 53.90625 49.265625 50.4375 45.09375 
Q 46.96875 40.921875 40.578125 39.3125 
z
" id="DejaVuSans-33"/>
      </defs>
      <g transform="translate(257.905541 301.277187)scale(0.18 -0.18)">
       <use xlink:href="#DejaVuSans-33"/>
       <use x="63.623047" xlink:href="#DejaVuSans-30"/>
       <use x="127.246094" xlink:href="#DejaVuSans-30"/>
       <use x="190.869141" xlink:href="#DejaVuSans-30"/>
       <use x="254.492188" xlink:href="#DejaVuSans-30"/>
      </g>
     </g>
    </g>
    <g id="xtick_5">
     <g id="line2d_5">
      <g>
       <use style="stroke:#000000;stroke-width:0.8;" x="349.683394" xlink:href="#m0126f7008e" y="280.6"/>
      </g>
     </g>
     <g id="text_5">
      <!-- 40000 -->
      <defs>
       <path d="M 37.796875 64.3125 
L 12.890625 25.390625 
L 37.796875 25.390625 
z
M 35.203125 72.90625 
L 47.609375 72.90625 
L 47.609375 25.390625 
L 58.015625 25.390625 
L 58.015625 17.1875 
L 47.609375 17.1875 
L 47.609375 0 
L 37.796875 0 
L 37.796875 17.1875 
L 4.890625 17.1875 
L 4.890625 26.703125 
z
" id="DejaVuSans-34"/>
      </defs>
      <g transform="translate(321.052144 301.277187)scale(0.18 -0.18)">
       <use xlink:href="#DejaVuSans-34"/>
       <use x="63.623047" xlink:href="#DejaVuSans-30"/>
       <use x="127.246094" xlink:href="#DejaVuSans-30"/>
       <use x="190.869141" xlink:href="#DejaVuSans-30"/>
       <use x="254.492188" xlink:href="#DejaVuSans-30"/>
      </g>
     </g>
    </g>
    <g id="xtick_6">
     <g id="line2d_6">
      <g>
       <use style="stroke:#000000;stroke-width:0.8;" x="412.829998" xlink:href="#m0126f7008e" y="280.6"/>
      </g>
     </g>
     <g id="text_6">
      <!-- 50000 -->
      <defs>
       <path d="M 10.796875 72.90625 
L 49.515625 72.90625 
L 49.515625 64.59375 
L 19.828125 64.59375 
L 19.828125 46.734375 
Q 21.96875 47.46875 24.109375 47.828125 
Q 26.265625 48.1875 28.421875 48.1875 
Q 40.625 48.1875 47.75 41.5 
Q 54.890625 34.8125 54.890625 23.390625 
Q 54.890625 11.625 47.5625 5.09375 
Q 40.234375 -1.421875 26.90625 -1.421875 
Q 22.3125 -1.421875 17.546875 -0.640625 
Q 12.796875 0.140625 7.71875 1.703125 
L 7.71875 11.625 
Q 12.109375 9.234375 16.796875 8.0625 
Q 21.484375 6.890625 26.703125 6.890625 
Q 35.15625 6.890625 40.078125 11.328125 
Q 45.015625 15.765625 45.015625 23.390625 
Q 45.015625 31 40.078125 35.4375 
Q 35.15625 39.890625 26.703125 39.890625 
Q 22.75 39.890625 18.8125 39.015625 
Q 14.890625 38.140625 10.796875 36.28125 
z
" id="DejaVuSans-35"/>
      </defs>
      <g transform="translate(384.198748 301.277187)scale(0.18 -0.18)">
       <use xlink:href="#DejaVuSans-35"/>
       <use x="63.623047" xlink:href="#DejaVuSans-30"/>
       <use x="127.246094" xlink:href="#DejaVuSans-30"/>
       <use x="190.869141" xlink:href="#DejaVuSans-30"/>
       <use x="254.492188" xlink:href="#DejaVuSans-30"/>
      </g>
     </g>
    </g>
    <g id="text_7">
     <!-- Temperature -->
     <defs>
      <path d="M -0.296875 72.90625 
L 61.375 72.90625 
L 61.375 64.59375 
L 35.5 64.59375 
L 35.5 0 
L 25.59375 0 
L 25.59375 64.59375 
L -0.296875 64.59375 
z
" id="DejaVuSans-54"/>
      <path d="M 56.203125 29.59375 
L 56.203125 25.203125 
L 14.890625 25.203125 
Q 15.484375 15.921875 20.484375 11.0625 
Q 25.484375 6.203125 34.421875 6.203125 
Q 39.59375 6.203125 44.453125 7.46875 
Q 49.3125 8.734375 54.109375 11.28125 
L 54.109375 2.78125 
Q 49.265625 0.734375 44.1875 -0.34375 
Q 39.109375 -1.421875 33.890625 -1.421875 
Q 20.796875 -1.421875 13.15625 6.1875 
Q 5.515625 13.8125 5.515625 26.8125 
Q 5.515625 40.234375 12.765625 48.109375 
Q 20.015625 56 32.328125 56 
Q 43.359375 56 49.78125 48.890625 
Q 56.203125 41.796875 56.203125 29.59375 
z
M 47.21875 32.234375 
Q 47.125 39.59375 43.09375 43.984375 
Q 39.0625 48.390625 32.421875 48.390625 
Q 24.90625 48.390625 20.390625 44.140625 
Q 15.875 39.890625 15.1875 32.171875 
z
" id="DejaVuSans-65"/>
      <path d="M 52 44.1875 
Q 55.375 50.25 60.0625 53.125 
Q 64.75 56 71.09375 56 
Q 79.640625 56 84.28125 50.015625 
Q 88.921875 44.046875 88.921875 33.015625 
L 88.921875 0 
L 79.890625 0 
L 79.890625 32.71875 
Q 79.890625 40.578125 77.09375 44.375 
Q 74.3125 48.1875 68.609375 48.1875 
Q 61.625 48.1875 57.5625 43.546875 
Q 53.515625 38.921875 53.515625 30.90625 
L 53.515625 0 
L 44.484375 0 
L 44.484375 32.71875 
Q 44.484375 40.625 41.703125 44.40625 
Q 38.921875 48.1875 33.109375 48.1875 
Q 26.21875 48.1875 22.15625 43.53125 
Q 18.109375 38.875 18.109375 30.90625 
L 18.109375 0 
L 9.078125 0 
L 9.078125 54.6875 
L 18.109375 54.6875 
L 18.109375 46.1875 
Q 21.1875 51.21875 25.484375 53.609375 
Q 29.78125 56 35.6875 56 
Q 41.65625 56 45.828125 52.96875 
Q 50 49.953125 52 44.1875 
z
" id="DejaVuSans-6d"/>
      <path d="M 18.109375 8.203125 
L 18.109375 -20.796875 
L 9.078125 -20.796875 
L 9.078125 54.6875 
L 18.109375 54.6875 
L 18.109375 46.390625 
Q 20.953125 51.265625 25.265625 53.625 
Q 29.59375 56 35.59375 56 
Q 45.5625 56 51.78125 48.09375 
Q 58.015625 40.1875 58.015625 27.296875 
Q 58.015625 14.40625 51.78125 6.484375 
Q 45.5625 -1.421875 35.59375 -1.421875 
Q 29.59375 -1.421875 25.265625 0.953125 
Q 20.953125 3.328125 18.109375 8.203125 
z
M 48.6875 27.296875 
Q 48.6875 37.203125 44.609375 42.84375 
Q 40.53125 48.484375 33.40625 48.484375 
Q 26.265625 48.484375 22.1875 42.84375 
Q 18.109375 37.203125 18.109375 27.296875 
Q 18.109375 17.390625 22.1875 11.75 
Q 26.265625 6.109375 33.40625 6.109375 
Q 40.53125 6.109375 44.609375 11.75 
Q 48.6875 17.390625 48.6875 27.296875 
z
" id="DejaVuSans-70"/>
      <path d="M 41.109375 46.296875 
Q 39.59375 47.171875 37.8125 47.578125 
Q 36.03125 48 33.890625 48 
Q 26.265625 48 22.1875 43.046875 
Q 18.109375 38.09375 18.109375 28.8125 
L 18.109375 0 
L 9.078125 0 
L 9.078125 54.6875 
L 18.109375 54.6875 
L 18.109375 46.1875 
Q 20.953125 51.171875 25.484375 53.578125 
Q 30.03125 56 36.53125 56 
Q 37.453125 56 38.578125 55.875 
Q 39.703125 55.765625 41.0625 55.515625 
z
" id="DejaVuSans-72"/>
      <path d="M 34.28125 27.484375 
Q 23.390625 27.484375 19.1875 25 
Q 14.984375 22.515625 14.984375 16.5 
Q 14.984375 11.71875 18.140625 8.90625 
Q 21.296875 6.109375 26.703125 6.109375 
Q 34.1875 6.109375 38.703125 11.40625 
Q 43.21875 16.703125 43.21875 25.484375 
L 43.21875 27.484375 
z
M 52.203125 31.203125 
L 52.203125 0 
L 43.21875 0 
L 43.21875 8.296875 
Q 40.140625 3.328125 35.546875 0.953125 
Q 30.953125 -1.421875 24.3125 -1.421875 
Q 15.921875 -1.421875 10.953125 3.296875 
Q 6 8.015625 6 15.921875 
Q 6 25.140625 12.171875 29.828125 
Q 18.359375 34.515625 30.609375 34.515625 
L 43.21875 34.515625 
L 43.21875 35.40625 
Q 43.21875 41.609375 39.140625 45 
Q 35.0625 48.390625 27.6875 48.390625 
Q 23 48.390625 18.546875 47.265625 
Q 14.109375 46.140625 10.015625 43.890625 
L 10.015625 52.203125 
Q 14.9375 54.109375 19.578125 55.046875 
Q 24.21875 56 28.609375 56 
Q 40.484375 56 46.34375 49.84375 
Q 52.203125 43.703125 52.203125 31.203125 
z
" id="DejaVuSans-61"/>
      <path d="M 18.3125 70.21875 
L 18.3125 54.6875 
L 36.8125 54.6875 
L 36.8125 47.703125 
L 18.3125 47.703125 
L 18.3125 18.015625 
Q 18.3125 11.328125 20.140625 9.421875 
Q 21.96875 7.515625 27.59375 7.515625 
L 36.8125 7.515625 
L 36.8125 0 
L 27.59375 0 
Q 17.1875 0 13.234375 3.875 
Q 9.28125 7.765625 9.28125 18.015625 
L 9.28125 47.703125 
L 2.6875 47.703125 
L 2.6875 54.6875 
L 9.28125 54.6875 
L 9.28125 70.21875 
z
" id="DejaVuSans-74"/>
      <path d="M 8.5 21.578125 
L 8.5 54.6875 
L 17.484375 54.6875 
L 17.484375 21.921875 
Q 17.484375 14.15625 20.5 10.265625 
Q 23.53125 6.390625 29.59375 6.390625 
Q 36.859375 6.390625 41.078125 11.03125 
Q 45.3125 15.671875 45.3125 23.6875 
L 45.3125 54.6875 
L 54.296875 54.6875 
L 54.296875 0 
L 45.3125 0 
L 45.3125 8.40625 
Q 42.046875 3.421875 37.71875 1 
Q 33.40625 -1.421875 27.6875 -1.421875 
Q 18.265625 -1.421875 13.375 4.4375 
Q 8.5 10.296875 8.5 21.578125 
z
M 31.109375 56 
z
" id="DejaVuSans-75"/>
     </defs>
     <g transform="translate(195.246499 322.697812)scale(0.18 -0.18)">
      <use xlink:href="#DejaVuSans-54"/>
      <use x="60.818359" xlink:href="#DejaVuSans-65"/>
      <use x="122.341797" xlink:href="#DejaVuSans-6d"/>
      <use x="219.753906" xlink:href="#DejaVuSans-70"/>
      <use x="283.230469" xlink:href="#DejaVuSans-65"/>
      <use x="344.753906" xlink:href="#DejaVuSans-72"/>
      <use x="385.867188" xlink:href="#DejaVuSans-61"/>
      <use x="447.146484" xlink:href="#DejaVuSans-74"/>
      <use x="486.355469" xlink:href="#DejaVuSans-75"/>
      <use x="549.734375" xlink:href="#DejaVuSans-72"/>
      <use x="590.816406" xlink:href="#DejaVuSans-65"/>
     </g>
    </g>
   </g>
   <g id="matplotlib.axis_2">
    <g id="ytick_1">
     <g id="line2d_7">
      <defs>
       <path d="M 0 0 
L -3.5 0 
" id="m744d3392b7" style="stroke:#000000;stroke-width:0.8;"/>
      </defs>
      <g>
       <use style="stroke:#000000;stroke-width:0.8;" x="89.638119" xlink:href="#m744d3392b7" y="268.51445"/>
      </g>
     </g>
     <g id="text_8">
      <!-- $\mathdefault{10^{-1}}$ -->
      <defs>
       <path d="M 10.59375 35.5 
L 73.1875 35.5 
L 73.1875 27.203125 
L 10.59375 27.203125 
z
" id="DejaVuSans-2212"/>
      </defs>
      <g transform="translate(40.338119 275.353044)scale(0.18 -0.18)">
       <use transform="translate(0 0.684375)" xlink:href="#DejaVuSans-31"/>
       <use transform="translate(63.623047 0.684375)" xlink:href="#DejaVuSans-30"/>
       <use transform="translate(128.203125 38.965625)scale(0.7)" xlink:href="#DejaVuSans-2212"/>
       <use transform="translate(186.855469 38.965625)scale(0.7)" xlink:href="#DejaVuSans-31"/>
      </g>
     </g>
    </g>
    <g id="ytick_2">
     <g id="line2d_8">
      <g>
       <use style="stroke:#000000;stroke-width:0.8;" x="89.638119" xlink:href="#m744d3392b7" y="188.223794"/>
      </g>
     </g>
     <g id="text_9">
      <!-- $\mathdefault{10^{0}}$ -->
      <g transform="translate(50.958119 195.062387)scale(0.18 -0.18)">
       <use transform="translate(0 0.765625)" xlink:href="#DejaVuSans-31"/>
       <use transform="translate(63.623047 0.765625)" xlink:href="#DejaVuSans-30"/>
       <use transform="translate(128.203125 39.046875)scale(0.7)" xlink:href="#DejaVuSans-30"/>
      </g>
     </g>
    </g>
    <g id="ytick_3">
     <g id="line2d_9">
      <g>
       <use style="stroke:#000000;stroke-width:0.8;" x="89.638119" xlink:href="#m744d3392b7" y="107.933137"/>
      </g>
     </g>
     <g id="text_10">
      <!-- $\mathdefault{10^{1}}$ -->
      <g transform="translate(50.958119 114.771731)scale(0.18 -0.18)">
       <use transform="translate(0 0.684375)" xlink:href="#DejaVuSans-31"/>
       <use transform="translate(63.623047 0.684375)" xlink:href="#DejaVuSans-30"/>
       <use transform="translate(128.203125 38.965625)scale(0.7)" xlink:href="#DejaVuSans-31"/>
      </g>
     </g>
    </g>
    <g id="ytick_4">
     <g id="line2d_10">
      <g>
       <use style="stroke:#000000;stroke-width:0.8;" x="89.638119" xlink:href="#m744d3392b7" y="27.64248"/>
      </g>
     </g>
     <g id="text_11">
      <!-- $\mathdefault{10^{2}}$ -->
      <g transform="translate(50.958119 34.481074)scale(0.18 -0.18)">
       <use transform="translate(0 0.765625)" xlink:href="#DejaVuSans-31"/>
       <use transform="translate(63.623047 0.765625)" xlink:href="#DejaVuSans-30"/>
       <use transform="translate(128.203125 39.046875)scale(0.7)" xlink:href="#DejaVuSans-32"/>
      </g>
     </g>
    </g>
    <g id="ytick_5">
     <g id="line2d_11">
      <defs>
       <path d="M 0 0 
L -2 0 
" id="me8383734f0" style="stroke:#000000;stroke-width:0.6;"/>
      </defs>
      <g>
       <use style="stroke:#000000;stroke-width:0.6;" x="89.638119" xlink:href="#me8383734f0" y="280.95163"/>
      </g>
     </g>
    </g>
    <g id="ytick_6">
     <g id="line2d_12">
      <g>
       <use style="stroke:#000000;stroke-width:0.6;" x="89.638119" xlink:href="#me8383734f0" y="276.295419"/>
      </g>
     </g>
    </g>
    <g id="ytick_7">
     <g id="line2d_13">
      <g>
       <use style="stroke:#000000;stroke-width:0.6;" x="89.638119" xlink:href="#me8383734f0" y="272.188349"/>
      </g>
     </g>
    </g>
    <g id="ytick_8">
     <g id="line2d_14">
      <g>
       <use style="stroke:#000000;stroke-width:0.6;" x="89.638119" xlink:href="#me8383734f0" y="244.344554"/>
      </g>
     </g>
    </g>
    <g id="ytick_9">
     <g id="line2d_15">
      <g>
       <use style="stroke:#000000;stroke-width:0.6;" x="89.638119" xlink:href="#me8383734f0" y="230.206071"/>
      </g>
     </g>
    </g>
    <g id="ytick_10">
     <g id="line2d_16">
      <g>
       <use style="stroke:#000000;stroke-width:0.6;" x="89.638119" xlink:href="#me8383734f0" y="220.174658"/>
      </g>
     </g>
    </g>
    <g id="ytick_11">
     <g id="line2d_17">
      <g>
       <use style="stroke:#000000;stroke-width:0.6;" x="89.638119" xlink:href="#me8383734f0" y="212.39369"/>
      </g>
     </g>
    </g>
    <g id="ytick_12">
     <g id="line2d_18">
      <g>
       <use style="stroke:#000000;stroke-width:0.6;" x="89.638119" xlink:href="#me8383734f0" y="206.036175"/>
      </g>
     </g>
    </g>
    <g id="ytick_13">
     <g id="line2d_19">
      <g>
       <use style="stroke:#000000;stroke-width:0.6;" x="89.638119" xlink:href="#me8383734f0" y="200.660974"/>
      </g>
     </g>
    </g>
    <g id="ytick_14">
     <g id="line2d_20">
      <g>
       <use style="stroke:#000000;stroke-width:0.6;" x="89.638119" xlink:href="#me8383734f0" y="196.004762"/>
      </g>
     </g>
    </g>
    <g id="ytick_15">
     <g id="line2d_21">
      <g>
       <use style="stroke:#000000;stroke-width:0.6;" x="89.638119" xlink:href="#me8383734f0" y="191.897693"/>
      </g>
     </g>
    </g>
    <g id="ytick_16">
     <g id="line2d_22">
      <g>
       <use style="stroke:#000000;stroke-width:0.6;" x="89.638119" xlink:href="#me8383734f0" y="164.053898"/>
      </g>
     </g>
    </g>
    <g id="ytick_17">
     <g id="line2d_23">
      <g>
       <use style="stroke:#000000;stroke-width:0.6;" x="89.638119" xlink:href="#me8383734f0" y="149.915415"/>
      </g>
     </g>
    </g>
    <g id="ytick_18">
     <g id="line2d_24">
      <g>
       <use style="stroke:#000000;stroke-width:0.6;" x="89.638119" xlink:href="#me8383734f0" y="139.884001"/>
      </g>
     </g>
    </g>
    <g id="ytick_19">
     <g id="line2d_25">
      <g>
       <use style="stroke:#000000;stroke-width:0.6;" x="89.638119" xlink:href="#me8383734f0" y="132.103033"/>
      </g>
     </g>
    </g>
    <g id="ytick_20">
     <g id="line2d_26">
      <g>
       <use style="stroke:#000000;stroke-width:0.6;" x="89.638119" xlink:href="#me8383734f0" y="125.745519"/>
      </g>
     </g>
    </g>
    <g id="ytick_21">
     <g id="line2d_27">
      <g>
       <use style="stroke:#000000;stroke-width:0.6;" x="89.638119" xlink:href="#me8383734f0" y="120.370317"/>
      </g>
     </g>
    </g>
    <g id="ytick_22">
     <g id="line2d_28">
      <g>
       <use style="stroke:#000000;stroke-width:0.6;" x="89.638119" xlink:href="#me8383734f0" y="115.714105"/>
      </g>
     </g>
    </g>
    <g id="ytick_23">
     <g id="line2d_29">
      <g>
       <use style="stroke:#000000;stroke-width:0.6;" x="89.638119" xlink:href="#me8383734f0" y="111.607036"/>
      </g>
     </g>
    </g>
    <g id="ytick_24">
     <g id="line2d_30">
      <g>
       <use style="stroke:#000000;stroke-width:0.6;" x="89.638119" xlink:href="#me8383734f0" y="83.763241"/>
      </g>
     </g>
    </g>
    <g id="ytick_25">
     <g id="line2d_31">
      <g>
       <use style="stroke:#000000;stroke-width:0.6;" x="89.638119" xlink:href="#me8383734f0" y="69.624758"/>
      </g>
     </g>
    </g>
    <g id="ytick_26">
     <g id="line2d_32">
      <g>
       <use style="stroke:#000000;stroke-width:0.6;" x="89.638119" xlink:href="#me8383734f0" y="59.593345"/>
      </g>
     </g>
    </g>
    <g id="ytick_27">
     <g id="line2d_33">
      <g>
       <use style="stroke:#000000;stroke-width:0.6;" x="89.638119" xlink:href="#me8383734f0" y="51.812376"/>
      </g>
     </g>
    </g>
    <g id="ytick_28">
     <g id="line2d_34">
      <g>
       <use style="stroke:#000000;stroke-width:0.6;" x="89.638119" xlink:href="#me8383734f0" y="45.454862"/>
      </g>
     </g>
    </g>
    <g id="ytick_29">
     <g id="line2d_35">
      <g>
       <use style="stroke:#000000;stroke-width:0.6;" x="89.638119" xlink:href="#me8383734f0" y="40.07966"/>
      </g>
     </g>
    </g>
    <g id="ytick_30">
     <g id="line2d_36">
      <g>
       <use style="stroke:#000000;stroke-width:0.6;" x="89.638119" xlink:href="#me8383734f0" y="35.423449"/>
      </g>
     </g>
    </g>
    <g id="ytick_31">
     <g id="line2d_37">
      <g>
       <use style="stroke:#000000;stroke-width:0.6;" x="89.638119" xlink:href="#me8383734f0" y="31.316379"/>
      </g>
     </g>
    </g>
    <g id="text_12">
     <!-- Mass -->
     <defs>
      <path d="M 9.8125 72.90625 
L 24.515625 72.90625 
L 43.109375 23.296875 
L 61.8125 72.90625 
L 76.515625 72.90625 
L 76.515625 0 
L 66.890625 0 
L 66.890625 64.015625 
L 48.09375 14.015625 
L 38.1875 14.015625 
L 19.390625 64.015625 
L 19.390625 0 
L 9.8125 0 
z
" id="DejaVuSans-4d"/>
      <path d="M 44.28125 53.078125 
L 44.28125 44.578125 
Q 40.484375 46.53125 36.375 47.5 
Q 32.28125 48.484375 27.875 48.484375 
Q 21.1875 48.484375 17.84375 46.4375 
Q 14.5 44.390625 14.5 40.28125 
Q 14.5 37.15625 16.890625 35.375 
Q 19.28125 33.59375 26.515625 31.984375 
L 29.59375 31.296875 
Q 39.15625 29.25 43.1875 25.515625 
Q 47.21875 21.78125 47.21875 15.09375 
Q 47.21875 7.46875 41.1875 3.015625 
Q 35.15625 -1.421875 24.609375 -1.421875 
Q 20.21875 -1.421875 15.453125 -0.5625 
Q 10.6875 0.296875 5.421875 2 
L 5.421875 11.28125 
Q 10.40625 8.6875 15.234375 7.390625 
Q 20.0625 6.109375 24.8125 6.109375 
Q 31.15625 6.109375 34.5625 8.28125 
Q 37.984375 10.453125 37.984375 14.40625 
Q 37.984375 18.0625 35.515625 20.015625 
Q 33.0625 21.96875 24.703125 23.78125 
L 21.578125 24.515625 
Q 13.234375 26.265625 9.515625 29.90625 
Q 5.8125 33.546875 5.8125 39.890625 
Q 5.8125 47.609375 11.28125 51.796875 
Q 16.75 56 26.8125 56 
Q 31.78125 56 36.171875 55.265625 
Q 40.578125 54.546875 44.28125 53.078125 
z
" id="DejaVuSans-73"/>
     </defs>
     <g transform="translate(32.594681 173.9375)rotate(-90)scale(0.18 -0.18)">
      <use xlink:href="#DejaVuSans-4d"/>
      <use x="86.279297" xlink:href="#DejaVuSans-61"/>
      <use x="147.558594" xlink:href="#DejaVuSans-73"/>
      <use x="199.658203" xlink:href="#DejaVuSans-73"/>
     </g>
    </g>
   </g>
   <g id="line2d_38">
    <path clip-path="url(#pc053549968)" d="M 104.987503 42.86824 
L 392.983228 42.86824 
" style="fill:none;stroke:#000000;stroke-dasharray:5.55,2.4;stroke-dashoffset:0;stroke-width:1.5;"/>
   </g>
   <g id="line2d_39">
    <path clip-path="url(#pc053549968)" d="M 104.987503 85.802318 
L 392.983228 85.802318 
" style="fill:none;stroke:#000000;stroke-dasharray:5.55,2.4;stroke-dashoffset:0;stroke-width:1.5;"/>
   </g>
   <g id="line2d_40">
    <path clip-path="url(#pc053549968)" d="M 104.987503 128.709916 
L 392.983228 128.709916 
" style="fill:none;stroke:#000000;stroke-dasharray:5.55,2.4;stroke-dashoffset:0;stroke-width:1.5;"/>
   </g>
   <g id="line2d_41">
    <path clip-path="url(#pc053549968)" d="M 104.987503 186.35684 
L 392.983228 186.35684 
" style="fill:none;stroke:#000000;stroke-dasharray:5.55,2.4;stroke-dashoffset:0;stroke-width:1.5;"/>
   </g>
   <g id="text_13">
    <g id="patch_3">
     <path clip-path="url(#pc053549968)" d="M 117.655846 56.90824 
L 193.075846 56.90824 
L 193.075846 28.82824 
L 117.655846 28.82824 
z
" style="fill:#ffffff;stroke:#ffffff;stroke-linejoin:miter;"/>
    </g>
    <g clip-path="url(#pc053549968)">
     <!-- $10^{6.5}$ yr -->
     <defs>
      <path d="M 33.015625 40.375 
Q 26.375 40.375 22.484375 35.828125 
Q 18.609375 31.296875 18.609375 23.390625 
Q 18.609375 15.53125 22.484375 10.953125 
Q 26.375 6.390625 33.015625 6.390625 
Q 39.65625 6.390625 43.53125 10.953125 
Q 47.40625 15.53125 47.40625 23.390625 
Q 47.40625 31.296875 43.53125 35.828125 
Q 39.65625 40.375 33.015625 40.375 
z
M 52.59375 71.296875 
L 52.59375 62.3125 
Q 48.875 64.0625 45.09375 64.984375 
Q 41.3125 65.921875 37.59375 65.921875 
Q 27.828125 65.921875 22.671875 59.328125 
Q 17.53125 52.734375 16.796875 39.40625 
Q 19.671875 43.65625 24.015625 45.921875 
Q 28.375 48.1875 33.59375 48.1875 
Q 44.578125 48.1875 50.953125 41.515625 
Q 57.328125 34.859375 57.328125 23.390625 
Q 57.328125 12.15625 50.6875 5.359375 
Q 44.046875 -1.421875 33.015625 -1.421875 
Q 20.359375 -1.421875 13.671875 8.265625 
Q 6.984375 17.96875 6.984375 36.375 
Q 6.984375 53.65625 15.1875 63.9375 
Q 23.390625 74.21875 37.203125 74.21875 
Q 40.921875 74.21875 44.703125 73.484375 
Q 48.484375 72.75 52.59375 71.296875 
z
" id="DejaVuSans-36"/>
      <path d="M 10.6875 12.40625 
L 21 12.40625 
L 21 0 
L 10.6875 0 
z
" id="DejaVuSans-2e"/>
      <path id="DejaVuSans-20"/>
      <path d="M 32.171875 -5.078125 
Q 28.375 -14.84375 24.75 -17.8125 
Q 21.140625 -20.796875 15.09375 -20.796875 
L 7.90625 -20.796875 
L 7.90625 -13.28125 
L 13.1875 -13.28125 
Q 16.890625 -13.28125 18.9375 -11.515625 
Q 21 -9.765625 23.484375 -3.21875 
L 25.09375 0.875 
L 2.984375 54.6875 
L 12.5 54.6875 
L 29.59375 11.921875 
L 46.6875 54.6875 
L 56.203125 54.6875 
z
" id="DejaVuSans-79"/>
     </defs>
     <g transform="translate(121.615846 49.16824)scale(0.18 -0.18)">
      <use transform="translate(0 0.765625)" xlink:href="#DejaVuSans-31"/>
      <use transform="translate(63.623047 0.765625)" xlink:href="#DejaVuSans-30"/>
      <use transform="translate(128.203125 39.046875)scale(0.7)" xlink:href="#DejaVuSans-36"/>
      <use transform="translate(172.739258 39.046875)scale(0.7)" xlink:href="#DejaVuSans-2e"/>
      <use transform="translate(194.990234 39.046875)scale(0.7)" xlink:href="#DejaVuSans-35"/>
      <use transform="translate(242.260742 0.765625)" xlink:href="#DejaVuSans-20"/>
      <use transform="translate(274.047852 0.765625)" xlink:href="#DejaVuSans-79"/>
      <use transform="translate(333.227539 0.765625)" xlink:href="#DejaVuSans-72"/>
     </g>
    </g>
   </g>
   <g id="text_14">
    <g id="patch_4">
     <path clip-path="url(#pc053549968)" d="M 189.413573 99.752318 
L 252.773573 99.752318 
L 252.773573 71.852318 
L 189.413573 71.852318 
z
" style="fill:#ffffff;stroke:#ffffff;stroke-linejoin:miter;"/>
    </g>
    <g clip-path="url(#pc053549968)">
     <!-- $10^{7}$ yr -->
     <defs>
      <path d="M 8.203125 72.90625 
L 55.078125 72.90625 
L 55.078125 68.703125 
L 28.609375 0 
L 18.3125 0 
L 43.21875 64.59375 
L 8.203125 64.59375 
z
" id="DejaVuSans-37"/>
     </defs>
     <g transform="translate(193.373573 92.012318)scale(0.18 -0.18)">
      <use transform="translate(0 0.684375)" xlink:href="#DejaVuSans-31"/>
      <use transform="translate(63.623047 0.684375)" xlink:href="#DejaVuSans-30"/>
      <use transform="translate(128.203125 38.965625)scale(0.7)" xlink:href="#DejaVuSans-37"/>
      <use transform="translate(175.473633 0.684375)" xlink:href="#DejaVuSans-20"/>
      <use transform="translate(207.260742 0.684375)" xlink:href="#DejaVuSans-79"/>
      <use transform="translate(266.44043 0.684375)" xlink:href="#DejaVuSans-72"/>
     </g>
    </g>
   </g>
   <g id="text_15">
    <g id="patch_5">
     <path clip-path="url(#pc053549968)" d="M 255.1413 142.749916 
L 318.5013 142.749916 
L 318.5013 114.669916 
L 255.1413 114.669916 
z
" style="fill:#ffffff;stroke:#ffffff;stroke-linejoin:miter;"/>
    </g>
    <g clip-path="url(#pc053549968)">
     <!-- $10^{8}$ yr -->
     <defs>
      <path d="M 31.78125 34.625 
Q 24.75 34.625 20.71875 30.859375 
Q 16.703125 27.09375 16.703125 20.515625 
Q 16.703125 13.921875 20.71875 10.15625 
Q 24.75 6.390625 31.78125 6.390625 
Q 38.8125 6.390625 42.859375 10.171875 
Q 46.921875 13.96875 46.921875 20.515625 
Q 46.921875 27.09375 42.890625 30.859375 
Q 38.875 34.625 31.78125 34.625 
z
M 21.921875 38.8125 
Q 15.578125 40.375 12.03125 44.71875 
Q 8.5 49.078125 8.5 55.328125 
Q 8.5 64.0625 14.71875 69.140625 
Q 20.953125 74.21875 31.78125 74.21875 
Q 42.671875 74.21875 48.875 69.140625 
Q 55.078125 64.0625 55.078125 55.328125 
Q 55.078125 49.078125 51.53125 44.71875 
Q 48 40.375 41.703125 38.8125 
Q 48.828125 37.15625 52.796875 32.3125 
Q 56.78125 27.484375 56.78125 20.515625 
Q 56.78125 9.90625 50.3125 4.234375 
Q 43.84375 -1.421875 31.78125 -1.421875 
Q 19.734375 -1.421875 13.25 4.234375 
Q 6.78125 9.90625 6.78125 20.515625 
Q 6.78125 27.484375 10.78125 32.3125 
Q 14.796875 37.15625 21.921875 38.8125 
z
M 18.3125 54.390625 
Q 18.3125 48.734375 21.84375 45.5625 
Q 25.390625 42.390625 31.78125 42.390625 
Q 38.140625 42.390625 41.71875 45.5625 
Q 45.3125 48.734375 45.3125 54.390625 
Q 45.3125 60.0625 41.71875 63.234375 
Q 38.140625 66.40625 31.78125 66.40625 
Q 25.390625 66.40625 21.84375 63.234375 
Q 18.3125 60.0625 18.3125 54.390625 
z
" id="DejaVuSans-38"/>
     </defs>
     <g transform="translate(259.1013 135.009916)scale(0.18 -0.18)">
      <use transform="translate(0 0.765625)" xlink:href="#DejaVuSans-31"/>
      <use transform="translate(63.623047 0.765625)" xlink:href="#DejaVuSans-30"/>
      <use transform="translate(128.203125 39.046875)scale(0.7)" xlink:href="#DejaVuSans-38"/>
      <use transform="translate(175.473633 0.765625)" xlink:href="#DejaVuSans-20"/>
      <use transform="translate(207.260742 0.765625)" xlink:href="#DejaVuSans-79"/>
      <use transform="translate(266.44043 0.765625)" xlink:href="#DejaVuSans-72"/>
     </g>
    </g>
   </g>
   <g id="text_16">
    <g id="patch_6">
     <path clip-path="url(#pc053549968)" d="M 316.819027 200.39684 
L 388.279027 200.39684 
L 388.279027 172.31684 
L 316.819027 172.31684 
z
" style="fill:#ffffff;stroke:#ffffff;stroke-linejoin:miter;"/>
    </g>
    <g clip-path="url(#pc053549968)">
     <!-- $10^{10}$ yr -->
     <g transform="translate(320.779027 192.65684)scale(0.18 -0.18)">
      <use transform="translate(0 0.765625)" xlink:href="#DejaVuSans-31"/>
      <use transform="translate(63.623047 0.765625)" xlink:href="#DejaVuSans-30"/>
      <use transform="translate(128.203125 39.046875)scale(0.7)" xlink:href="#DejaVuSans-31"/>
      <use transform="translate(172.739258 39.046875)scale(0.7)" xlink:href="#DejaVuSans-30"/>
      <use transform="translate(220.009766 0.765625)" xlink:href="#DejaVuSans-20"/>
      <use transform="translate(251.796875 0.765625)" xlink:href="#DejaVuSans-79"/>
      <use transform="translate(310.976562 0.765625)" xlink:href="#DejaVuSans-72"/>
     </g>
    </g>
   </g>
   <g id="patch_7">
    <path d="M 89.638119 280.6 
L 89.638119 21.96 
" style="fill:none;stroke:#000000;stroke-linecap:square;stroke-linejoin:miter;stroke-width:0.8;"/>
   </g>
   <g id="patch_8">
    <path d="M 418.276754 280.6 
L 418.276754 21.96 
" style="fill:none;stroke:#000000;stroke-linecap:square;stroke-linejoin:miter;stroke-width:0.8;"/>
   </g>
   <g id="patch_9">
    <path d="M 89.638119 280.6 
L 418.276754 280.6 
" style="fill:none;stroke:#000000;stroke-linecap:square;stroke-linejoin:miter;stroke-width:0.8;"/>
   </g>
   <g id="patch_10">
    <path d="M 89.638119 21.96 
L 418.276754 21.96 
" style="fill:none;stroke:#000000;stroke-linecap:square;stroke-linejoin:miter;stroke-width:0.8;"/>
   </g>
  </g>
 </g>
 <defs>
  <clipPath id="pc053549968">
   <rect height="258.64" width="328.638635" x="89.638119" y="21.96"/>
  </clipPath>
 </defs>
</svg>
