<?xml version="1.0" encoding="utf-8" standalone="no"?>
<!DOCTYPE svg PUBLIC "-//W3C//DTD SVG 1.1//EN"
  "http://www.w3.org/Graphics/SVG/1.1/DTD/svg11.dtd">
<!-- Created with matplotlib (http://matplotlib.org/) -->
<svg height="576pt" version="1.1" viewBox="0 0 576 576" width="576pt" xmlns="http://www.w3.org/2000/svg" xmlns:xlink="http://www.w3.org/1999/xlink">
 <defs>
  <style type="text/css">
*{stroke-linecap:butt;stroke-linejoin:round;}
  </style>
 </defs>
 <g id="figure_1">
  <g id="patch_1">
   <path d="M 0 576 
L 576 576 
L 576 0 
L 0 0 
z
" style="fill:#ffffff;"/>
  </g>
  <g id="axes_1">
   <g id="patch_2">
    <path d="M 89.638119 511 
L 531.553082 511 
L 531.553082 26.591189 
L 89.638119 26.591189 
z
" style="fill:#ffffff;"/>
   </g>
   <g id="PathCollection_1">
    <path clip-path="url(#p33073a0fec)" d="M 141.218956 352.64071 
C 141.969334 352.64071 142.689079 352.342581 143.219676 351.811984 
C 143.750273 351.281387 144.048401 350.561642 144.048401 349.811265 
C 144.048401 349.060887 143.750273 348.341142 143.219676 347.810545 
C 142.689079 347.279948 141.969334 346.981819 141.218956 346.981819 
C 140.468578 346.981819 139.748833 347.279948 139.218236 347.810545 
C 138.687639 348.341142 138.389511 349.060887 138.389511 349.811265 
C 138.389511 350.561642 138.687639 351.281387 139.218236 351.811984 
C 139.748833 352.342581 140.468578 352.64071 141.218956 352.64071 
z
" style="fill:#ffe4c5;stroke:#ffe4c5;"/>
    <path clip-path="url(#p33073a0fec)" d="M 142.58821 349.698599 
C 143.358723 349.698599 144.097781 349.392471 144.642616 348.847636 
C 145.187451 348.302801 145.493579 347.563743 145.493579 346.79323 
C 145.493579 346.022717 145.187451 345.283659 144.642616 344.738824 
C 144.097781 344.193989 143.358723 343.887862 142.58821 343.887862 
C 141.817697 343.887862 141.078639 344.193989 140.533804 344.738824 
C 139.988969 345.283659 139.682841 346.022717 139.682841 346.79323 
C 139.682841 347.563743 139.988969 348.302801 140.533804 348.847636 
C 141.078639 349.392471 141.817697 349.698599 142.58821 349.698599 
z
" style="fill:#ffe9ce;stroke:#ffe9ce;"/>
    <path clip-path="url(#p33073a0fec)" d="M 144.00235 346.883948 
C 144.792173 346.883948 145.549753 346.570148 146.108243 346.011659 
C 146.666732 345.453169 146.980532 344.695589 146.980532 343.905766 
C 146.980532 343.115943 146.666732 342.358362 146.108243 341.799873 
C 145.549753 341.241384 144.792173 340.927584 144.00235 340.927584 
C 143.212527 340.927584 142.454947 341.241384 141.896457 341.799873 
C 141.337968 342.358362 141.024168 343.115943 141.024168 343.905766 
C 141.024168 344.695589 141.337968 345.453169 141.896457 346.011659 
C 142.454947 346.570148 143.212527 346.883948 144.00235 346.883948 
z
" style="fill:#ffeed8;stroke:#ffeed8;"/>
    <path clip-path="url(#p33073a0fec)" d="M 145.251254 344.118508 
C 146.061104 344.118508 146.837894 343.796751 147.410545 343.2241 
C 147.983196 342.651449 148.304953 341.874659 148.304953 341.064809 
C 148.304953 340.254958 147.983196 339.478168 147.410545 338.905517 
C 146.837894 338.332866 146.061104 338.011109 145.251254 338.011109 
C 144.441403 338.011109 143.664613 338.332866 143.091962 338.905517 
C 142.519311 339.478168 142.197554 340.254958 142.197554 341.064809 
C 142.197554 341.874659 142.519311 342.651449 143.091962 343.2241 
C 143.664613 343.796751 144.441403 344.118508 145.251254 344.118508 
z
" style="fill:#fff2e1;stroke:#fff2e1;"/>
    <path clip-path="url(#p33073a0fec)" d="M 146.535173 341.535872 
C 147.364126 341.535872 148.159239 341.206525 148.745397 340.620367 
C 149.331555 340.034209 149.660902 339.239096 149.660902 338.410143 
C 149.660902 337.58119 149.331555 336.786078 148.745397 336.199919 
C 148.159239 335.613761 147.364126 335.284415 146.535173 335.284415 
C 145.70622 335.284415 144.911107 335.613761 144.324949 336.199919 
C 143.738791 336.786078 143.409444 337.58119 143.409444 338.410143 
C 143.409444 339.239096 143.738791 340.034209 144.324949 340.620367 
C 144.911107 341.206525 145.70622 341.535872 146.535173 341.535872 
z
" style="fill:#fff4e8;stroke:#fff4e8;"/>
    <path clip-path="url(#p33073a0fec)" d="M 148.755456 336.666304 
C 149.622228 336.666304 150.453616 336.321932 151.066516 335.709031 
C 151.679416 335.096131 152.023789 334.264743 152.023789 333.397971 
C 152.023789 332.531199 151.679416 331.699811 151.066516 331.086911 
C 150.453616 330.474011 149.622228 330.129639 148.755456 330.129639 
C 147.888684 330.129639 147.057296 330.474011 146.444396 331.086911 
C 145.831495 331.699811 145.487123 332.531199 145.487123 333.397971 
C 145.487123 334.264743 145.831495 335.096131 146.444396 335.709031 
C 147.057296 336.321932 147.888684 336.666304 148.755456 336.666304 
z
" style="fill:#fff5ed;stroke:#fff5ed;"/>
    <path clip-path="url(#p33073a0fec)" d="M 150.843053 332.084759 
C 151.747285 332.084759 152.614603 331.725503 153.253992 331.086115 
C 153.89338 330.446726 154.252636 329.579408 154.252636 328.675176 
C 154.252636 327.770944 153.89338 326.903625 153.253992 326.264237 
C 152.614603 325.624848 151.747285 325.265593 150.843053 325.265593 
C 149.938821 325.265593 149.071502 325.624848 148.432113 326.264237 
C 147.792725 326.903625 147.43347 327.770944 147.43347 328.675176 
C 147.43347 329.579408 147.792725 330.446726 148.432113 331.086115 
C 149.071502 331.725503 149.938821 332.084759 150.843053 332.084759 
z
" style="fill:#fff7f2;stroke:#fff7f2;"/>
    <path clip-path="url(#p33073a0fec)" d="M 153.764545 324.192278 
C 154.728718 324.192278 155.653531 323.809208 156.335304 323.127435 
C 157.017077 322.445662 157.400147 321.520849 157.400147 320.556677 
C 157.400147 319.592504 157.017077 318.667691 156.335304 317.985918 
C 155.653531 317.304145 154.728718 316.921075 153.764545 316.921075 
C 152.800373 316.921075 151.87556 317.304145 151.193787 317.985918 
C 150.512014 318.667691 150.128944 319.592504 150.128944 320.556677 
C 150.128944 321.520849 150.512014 322.445662 151.193787 323.127435 
C 151.87556 323.809208 152.800373 324.192278 153.764545 324.192278 
z
" style="fill:#fdf9fb;stroke:#fdf9fb;"/>
    <path clip-path="url(#p33073a0fec)" d="M 156.064085 318.989646 
C 157.074279 318.989646 158.043235 318.588292 158.75755 317.873977 
C 159.471865 317.159661 159.873219 316.190706 159.873219 315.180512 
C 159.873219 314.170318 159.471865 313.201362 158.75755 312.487047 
C 158.043235 311.772732 157.074279 311.371378 156.064085 311.371378 
C 155.053891 311.371378 154.084936 311.772732 153.37062 312.487047 
C 152.656305 313.201362 152.254951 314.170318 152.254951 315.180512 
C 152.254951 316.190706 152.656305 317.159661 153.37062 317.873977 
C 154.084936 318.588292 155.053891 318.989646 156.064085 318.989646 
z
" style="fill:#f8f6ff;stroke:#f8f6ff;"/>
    <path clip-path="url(#p33073a0fec)" d="M 158.870192 313.515153 
C 159.930434 313.515153 160.947393 313.093915 161.697097 312.344211 
C 162.446801 311.594507 162.86804 310.577547 162.86804 309.517306 
C 162.86804 308.457064 162.446801 307.440105 161.697097 306.690401 
C 160.947393 305.940697 159.930434 305.519458 158.870192 305.519458 
C 157.80995 305.519458 156.792991 305.940697 156.043287 306.690401 
C 155.293583 307.440105 154.872344 308.457064 154.872344 309.517306 
C 154.872344 310.577547 155.293583 311.594507 156.043287 312.344211 
C 156.792991 313.093915 157.80995 313.515153 158.870192 313.515153 
z
" style="fill:#f0f0ff;stroke:#f0f0ff;"/>
    <path clip-path="url(#p33073a0fec)" d="M 163.268568 307.86681 
C 164.382298 307.86681 165.450562 307.42432 166.238088 306.636794 
C 167.025614 305.849268 167.468103 304.781004 167.468103 303.667274 
C 167.468103 302.553544 167.025614 301.48528 166.238088 300.697754 
C 165.450562 299.910228 164.382298 299.467739 163.268568 299.467739 
C 162.154838 299.467739 161.086574 299.910228 160.299048 300.697754 
C 159.511522 301.48528 159.069033 302.553544 159.069033 303.667274 
C 159.069033 304.781004 159.511522 305.849268 160.299048 306.636794 
C 161.086574 307.42432 162.154838 307.86681 163.268568 307.86681 
z
" style="fill:#e4e8ff;stroke:#e4e8ff;"/>
    <path clip-path="url(#p33073a0fec)" d="M 168.78638 302.123044 
C 169.95596 302.123044 171.077794 301.658365 171.904812 300.831347 
C 172.73183 300.004329 173.196509 298.882495 173.196509 297.712915 
C 173.196509 296.543335 172.73183 295.421501 171.904812 294.594483 
C 171.077794 293.767465 169.95596 293.302786 168.78638 293.302786 
C 167.6168 293.302786 166.494966 293.767465 165.667948 294.594483 
C 164.840931 295.421501 164.376252 296.543335 164.376252 297.712915 
C 164.376252 298.882495 164.840931 300.004329 165.667948 300.831347 
C 166.494966 301.658365 167.6168 302.123044 168.78638 302.123044 
z
" style="fill:#d5dfff;stroke:#d5dfff;"/>
    <path clip-path="url(#p33073a0fec)" d="M 173.918449 296.849842 
C 175.139278 296.849842 176.310269 296.364801 177.173526 295.501545 
C 178.036782 294.638288 178.521823 293.467297 178.521823 292.246468 
C 178.521823 291.025639 178.036782 289.854647 177.173526 288.991391 
C 176.310269 288.128134 175.139278 287.643094 173.918449 287.643094 
C 172.69762 287.643094 171.526628 288.128134 170.663372 288.991391 
C 169.800115 289.854647 169.315075 291.025639 169.315075 292.246468 
C 169.315075 293.467297 169.800115 294.638288 170.663372 295.501545 
C 171.526628 296.364801 172.69762 296.849842 173.918449 296.849842 
z
" style="fill:#c8d6ff;stroke:#c8d6ff;"/>
    <path clip-path="url(#p33073a0fec)" d="M 179.430275 291.510994 
C 180.704599 291.510994 181.926901 291.0047 182.827984 290.103617 
C 183.729067 289.202534 184.235362 287.980231 184.235362 286.705907 
C 184.235362 285.431584 183.729067 284.209281 182.827984 283.308198 
C 181.926901 282.407115 180.704599 281.900821 179.430275 281.900821 
C 178.155951 281.900821 176.933649 282.407115 176.032566 283.308198 
C 175.131483 284.209281 174.625188 285.431584 174.625188 286.705907 
C 174.625188 287.980231 175.131483 289.202534 176.032566 290.103617 
C 176.933649 291.0047 178.155951 291.510994 179.430275 291.510994 
z
" style="fill:#bed0ff;stroke:#bed0ff;"/>
    <path clip-path="url(#p33073a0fec)" d="M 191.283533 280.447322 
C 192.672781 280.447322 194.005316 279.895368 194.987663 278.913021 
C 195.97001 277.930674 196.521964 276.598139 196.521964 275.208891 
C 196.521964 273.819642 195.97001 272.487107 194.987663 271.50476 
C 194.005316 270.522413 192.672781 269.970459 191.283533 269.970459 
C 189.894285 269.970459 188.561749 270.522413 187.579403 271.50476 
C 186.597056 272.487107 186.045102 273.819642 186.045102 275.208891 
C 186.045102 276.598139 186.597056 277.930674 187.579403 278.913021 
C 188.561749 279.895368 189.894285 280.447322 191.283533 280.447322 
z
" style="fill:#b9cbff;stroke:#b9cbff;"/>
    <path clip-path="url(#p33073a0fec)" d="M 212.175934 261.632477 
C 213.774682 261.632477 215.308164 260.997288 216.438649 259.866803 
C 217.569134 258.736318 218.204323 257.202836 218.204323 255.604088 
C 218.204323 254.005341 217.569134 252.471859 216.438649 251.341373 
C 215.308164 250.210888 213.774682 249.575699 212.175934 249.575699 
C 210.577187 249.575699 209.043705 250.210888 207.91322 251.341373 
C 206.782734 252.471859 206.147545 254.005341 206.147545 255.604088 
C 206.147545 257.202836 206.782734 258.736318 207.91322 259.866803 
C 209.043705 260.997288 210.577187 261.632477 212.175934 261.632477 
z
" style="fill:#b7c9ff;stroke:#b7c9ff;"/>
    <path clip-path="url(#p33073a0fec)" d="M 236.55134 241.868227 
C 238.39489 241.868227 240.163181 241.135777 241.466767 239.832191 
C 242.770354 238.528604 243.502804 236.760313 243.502804 234.916764 
C 243.502804 233.073214 242.770354 231.304923 241.466767 230.001336 
C 240.163181 228.69775 238.39489 227.9653 236.55134 227.9653 
C 234.707791 227.9653 232.9395 228.69775 231.635913 230.001336 
C 230.332327 231.304923 229.599877 233.073214 229.599877 234.916764 
C 229.599877 236.760313 230.332327 238.528604 231.635913 239.832191 
C 232.9395 241.135777 234.707791 241.868227 236.55134 241.868227 
z
" style="fill:#b3c7ff;stroke:#b3c7ff;"/>
    <path clip-path="url(#p33073a0fec)" d="M 257.230158 226.863711 
C 259.276743 226.863711 261.239781 226.050594 262.686936 224.60344 
C 264.13409 223.156285 264.947207 221.193247 264.947207 219.146662 
C 264.947207 217.100076 264.13409 215.137038 262.686936 213.689884 
C 261.239781 212.242729 259.276743 211.429612 257.230158 211.429612 
C 255.183572 211.429612 253.220534 212.242729 251.77338 213.689884 
C 250.326225 215.137038 249.513108 217.100076 249.513108 219.146662 
C 249.513108 221.193247 250.326225 223.156285 251.77338 224.60344 
C 253.220534 226.050594 255.183572 226.863711 257.230158 226.863711 
z
" style="fill:#b0c4ff;stroke:#b0c4ff;"/>
    <path clip-path="url(#p33073a0fec)" d="M 275.266501 214.795481 
C 277.493166 214.795481 279.628932 213.910817 281.203422 212.336327 
C 282.777912 210.761837 283.662575 208.626071 283.662575 206.399406 
C 283.662575 204.172741 282.777912 202.036975 281.203422 200.462485 
C 279.628932 198.887995 277.493166 198.003332 275.266501 198.003332 
C 273.039836 198.003332 270.90407 198.887995 269.32958 200.462485 
C 267.75509 202.036975 266.870427 204.172741 266.870427 206.399406 
C 266.870427 208.626071 267.75509 210.761837 269.32958 212.336327 
C 270.90407 213.910817 273.039836 214.795481 275.266501 214.795481 
z
" style="fill:#adc1ff;stroke:#adc1ff;"/>
    <path clip-path="url(#p33073a0fec)" d="M 290.904278 204.691848 
C 293.288819 204.691848 295.576017 203.74446 297.262143 202.058334 
C 298.948268 200.372209 299.895657 198.085011 299.895657 195.70047 
C 299.895657 193.315928 298.948268 191.02873 297.262143 189.342605 
C 295.576017 187.656479 293.288819 186.709091 290.904278 186.709091 
C 288.519736 186.709091 286.232538 187.656479 284.546413 189.342605 
C 282.860287 191.02873 281.912899 193.315928 281.912899 195.70047 
C 281.912899 198.085011 282.860287 200.372209 284.546413 202.058334 
C 286.232538 203.74446 288.519736 204.691848 290.904278 204.691848 
z
" style="fill:#aabfff;stroke:#aabfff;"/>
    <path clip-path="url(#p33073a0fec)" d="M 305.071865 196.021409 
C 307.599881 196.021409 310.024696 195.017017 311.812274 193.22944 
C 313.599851 191.441863 314.604243 189.017047 314.604243 186.489031 
C 314.604243 183.961015 313.599851 181.536199 311.812274 179.748622 
C 310.024696 177.961044 307.599881 176.956653 305.071865 176.956653 
C 302.543848 176.956653 300.119033 177.961044 298.331455 179.748622 
C 296.543878 181.536199 295.539486 183.961015 295.539486 186.489031 
C 295.539486 189.017047 296.543878 191.441863 298.331455 193.22944 
C 300.119033 195.017017 302.543848 196.021409 305.071865 196.021409 
z
" style="fill:#a8bdff;stroke:#a8bdff;"/>
    <path clip-path="url(#p33073a0fec)" d="M 317.759433 188.417874 
C 320.417279 188.417874 322.966624 187.361901 324.846005 185.48252 
C 326.725386 183.603139 327.78136 181.053793 327.78136 178.395947 
C 327.78136 175.738101 326.725386 173.188756 324.846005 171.309375 
C 322.966624 169.429994 320.417279 168.37402 317.759433 168.37402 
C 315.101587 168.37402 312.552242 169.429994 310.672861 171.309375 
C 308.79348 173.188756 307.737506 175.738101 307.737506 178.395947 
C 307.737506 181.053793 308.79348 183.603139 310.672861 185.48252 
C 312.552242 187.361901 315.101587 188.417874 317.759433 188.417874 
z
" style="fill:#a7bcff;stroke:#a7bcff;"/>
    <path clip-path="url(#p33073a0fec)" d="M 329.633889 181.67852 
C 332.415394 181.67852 335.08335 180.573416 337.050171 178.606595 
C 339.016992 176.639774 340.122096 173.971818 340.122096 171.190313 
C 340.122096 168.408808 339.016992 165.740852 337.050171 163.774031 
C 335.08335 161.80721 332.415394 160.702106 329.633889 160.702106 
C 326.852384 160.702106 324.184427 161.80721 322.217606 163.774031 
C 320.250785 165.740852 319.145682 168.408808 319.145682 171.190313 
C 319.145682 173.971818 320.250785 176.639774 322.217606 178.606595 
C 324.184427 180.573416 326.852384 181.67852 329.633889 181.67852 
z
" style="fill:#a6bcff;stroke:#a6bcff;"/>
    <path clip-path="url(#p33073a0fec)" d="M 340.483339 175.612944 
C 343.376715 175.612944 346.151975 174.463394 348.197901 172.417468 
C 350.243826 170.371542 351.393377 167.596282 351.393377 164.702906 
C 351.393377 161.80953 350.243826 159.03427 348.197901 156.988344 
C 346.151975 154.942419 343.376715 153.792868 340.483339 153.792868 
C 337.589963 153.792868 334.814703 154.942419 332.768777 156.988344 
C 330.722851 159.03427 329.573301 161.80953 329.573301 164.702906 
C 329.573301 167.596282 330.722851 170.371542 332.768777 172.417468 
C 334.814703 174.463394 337.589963 175.612944 340.483339 175.612944 
z
" style="fill:#a6bbff;stroke:#a6bbff;"/>
    <path clip-path="url(#p33073a0fec)" d="M 350.10659 170.116049 
C 353.105096 170.116049 355.981194 168.92473 358.101458 166.804466 
C 360.221722 164.684203 361.413041 161.808104 361.413041 158.809598 
C 361.413041 155.811093 360.221722 152.934994 358.101458 150.81473 
C 355.981194 148.694467 353.105096 147.503148 350.10659 147.503148 
C 347.108084 147.503148 344.231986 148.694467 342.111722 150.81473 
C 339.991458 152.934994 338.800139 155.811093 338.800139 158.809598 
C 338.800139 161.808104 339.991458 164.684203 342.111722 166.804466 
C 344.231986 168.92473 347.108084 170.116049 350.10659 170.116049 
z
" style="fill:#a5bbff;stroke:#a5bbff;"/>
    <path clip-path="url(#p33073a0fec)" d="M 358.916042 165.08703 
C 362.014566 165.08703 364.986599 163.855974 367.177587 161.664987 
C 369.368574 159.473999 370.599631 156.501966 370.599631 153.403442 
C 370.599631 150.304917 369.368574 147.332884 367.177587 145.141897 
C 364.986599 142.950909 362.014566 141.719853 358.916042 141.719853 
C 355.817518 141.719853 352.845484 142.950909 350.654497 145.141897 
C 348.463509 147.332884 347.232453 150.304917 347.232453 153.403442 
C 347.232453 156.501966 348.463509 159.473999 350.654497 161.664987 
C 352.845484 163.855974 355.817518 165.08703 358.916042 165.08703 
z
" style="fill:#a4baff;stroke:#a4baff;"/>
    <path clip-path="url(#p33073a0fec)" d="M 366.801001 160.419717 
C 369.989086 160.419717 373.047024 159.153077 375.301341 156.898761 
C 377.555657 154.644444 378.822297 151.586506 378.822297 148.398421 
C 378.822297 145.210336 377.555657 142.152398 375.301341 139.898082 
C 373.047024 137.643765 369.989086 136.377126 366.801001 136.377126 
C 363.612916 136.377126 360.554978 137.643765 358.300661 139.898082 
C 356.046345 142.152398 354.779706 145.210336 354.779706 148.398421 
C 354.779706 151.586506 356.046345 154.644444 358.300661 156.898761 
C 360.554978 159.153077 363.612916 160.419717 366.801001 160.419717 
z
" style="fill:#a4baff;stroke:#a4baff;"/>
    <path clip-path="url(#p33073a0fec)" d="M 374.291979 156.097682 
C 377.566553 156.097682 380.70745 154.79668 383.022924 152.481206 
C 385.338397 150.165732 386.639399 147.024835 386.639399 143.750261 
C 386.639399 140.475687 385.338397 137.33479 383.022924 135.019316 
C 380.70745 132.703843 377.566553 131.402841 374.291979 131.402841 
C 371.017404 131.402841 367.876507 132.703843 365.561034 135.019316 
C 363.24556 137.33479 361.944558 140.475687 361.944558 143.750261 
C 361.944558 147.024835 363.24556 150.165732 365.561034 152.481206 
C 367.876507 154.79668 371.017404 156.097682 374.291979 156.097682 
z
" style="fill:#a3baff;stroke:#a3baff;"/>
    <path clip-path="url(#p33073a0fec)" d="M 381.342979 152.079659 
C 384.701553 152.079659 387.92302 150.745283 390.297891 148.370413 
C 392.672761 145.995543 394.007136 142.774076 394.007136 139.415502 
C 394.007136 136.056928 392.672761 132.835461 390.297891 130.460591 
C 387.92302 128.08572 384.701553 126.751345 381.342979 126.751345 
C 377.984406 126.751345 374.762938 128.08572 372.388068 130.460591 
C 370.013198 132.835461 368.678822 136.056928 368.678822 139.415502 
C 368.678822 142.774076 370.013198 145.995543 372.388068 148.370413 
C 374.762938 150.745283 377.984406 152.079659 381.342979 152.079659 
z
" style="fill:#a3b9ff;stroke:#a3b9ff;"/>
    <path clip-path="url(#p33073a0fec)" d="M 387.909531 148.322205 
C 391.349305 148.322205 394.648657 146.955569 397.080945 144.523282 
C 399.513232 142.090994 400.879868 138.791642 400.879868 135.351868 
C 400.879868 131.912095 399.513232 128.612742 397.080945 126.180455 
C 394.648657 123.748168 391.349305 122.381531 387.909531 122.381531 
C 384.469758 122.381531 381.170406 123.748168 378.738118 126.180455 
C 376.305831 128.612742 374.939195 131.912095 374.939195 135.351868 
C 374.939195 138.791642 376.305831 142.090994 378.738118 144.523282 
C 381.170406 146.955569 384.469758 148.322205 387.909531 148.322205 
z
" style="fill:#a2b9ff;stroke:#a2b9ff;"/>
    <path clip-path="url(#p33073a0fec)" d="M 393.272807 144.833843 
C 396.785618 144.833843 400.155027 143.438188 402.63896 140.954256 
C 405.122893 138.470323 406.518548 135.100914 406.518548 131.588102 
C 406.518548 128.075291 405.122893 124.705882 402.63896 122.221949 
C 400.155027 119.738016 396.785618 118.342362 393.272807 118.342362 
C 389.759995 118.342362 386.390586 119.738016 383.906654 122.221949 
C 381.422721 124.705882 380.027066 128.075291 380.027066 131.588102 
C 380.027066 135.100914 381.422721 138.470323 383.906654 140.954256 
C 386.390586 143.438188 389.759995 144.833843 393.272807 144.833843 
z
" style="fill:#a2b9ff;stroke:#a2b9ff;"/>
    <path clip-path="url(#p33073a0fec)" d="M 398.04747 141.556889 
C 401.629712 141.556889 405.065717 140.133649 407.598744 137.600622 
C 410.131771 135.067594 411.555011 131.63159 411.555011 128.049348 
C 411.555011 124.467106 410.131771 121.031102 407.598744 118.498074 
C 405.065717 115.965047 401.629712 114.541807 398.04747 114.541807 
C 394.465229 114.541807 391.029224 115.965047 388.496197 118.498074 
C 385.963169 121.031102 384.53993 124.467106 384.53993 128.049348 
C 384.53993 131.63159 385.963169 135.067594 388.496197 137.600622 
C 391.029224 140.133649 394.465229 141.556889 398.04747 141.556889 
z
" style="fill:#a2b9ff;stroke:#a2b9ff;"/>
    <path clip-path="url(#p33073a0fec)" d="M 402.899658 138.475418 
C 406.550599 138.475418 410.052499 137.024884 412.634104 134.443278 
C 415.21571 131.861673 416.666244 128.359773 416.666244 124.708832 
C 416.666244 121.057891 415.21571 117.555991 412.634104 114.974385 
C 410.052499 112.39278 406.550599 110.942246 402.899658 110.942246 
C 399.248716 110.942246 395.746817 112.39278 393.165211 114.974385 
C 390.583606 117.555991 389.133071 121.057891 389.133071 124.708832 
C 389.133071 128.359773 390.583606 131.861673 393.165211 134.443278 
C 395.746817 137.024884 399.248716 138.475418 402.899658 138.475418 
z
" style="fill:#a1b8ff;stroke:#a1b8ff;"/>
    <path clip-path="url(#p33073a0fec)" d="M 407.121474 135.567875 
C 410.839221 135.567875 414.405199 134.090799 417.034044 131.461955 
C 419.662888 128.833111 421.139964 125.267133 421.139964 121.549386 
C 421.139964 117.831639 419.662888 114.265661 417.034044 111.636816 
C 414.405199 109.007972 410.839221 107.530896 407.121474 107.530896 
C 403.403727 107.530896 399.837749 109.007972 397.208905 111.636816 
C 394.580061 114.265661 393.102984 117.831639 393.102984 121.549386 
C 393.102984 125.267133 394.580061 128.833111 397.208905 131.461955 
C 399.837749 134.090799 403.403727 135.567875 407.121474 135.567875 
z
" style="fill:#a1b8ff;stroke:#a1b8ff;"/>
   </g>
   <g id="PathCollection_2">
    <path clip-path="url(#p33073a0fec)" d="M 110.136207 489.490369 
C 110.367278 489.490369 110.588915 489.398564 110.752306 489.235173 
C 110.915697 489.071781 111.007503 488.850144 111.007503 488.619074 
C 111.007503 488.388004 110.915697 488.166366 110.752306 488.002975 
C 110.588915 487.839584 110.367278 487.747779 110.136207 487.747779 
C 109.905137 487.747779 109.6835 487.839584 109.520109 488.002975 
C 109.356717 488.166366 109.264912 488.388004 109.264912 488.619074 
C 109.264912 488.850144 109.356717 489.071781 109.520109 489.235173 
C 109.6835 489.398564 109.905137 489.490369 110.136207 489.490369 
z
" style="fill:#9b3921;stroke:#9b3921;"/>
    <path clip-path="url(#p33073a0fec)" d="M 110.437594 486.678801 
C 110.674298 486.678801 110.901339 486.584757 111.068714 486.417382 
C 111.236089 486.250007 111.330133 486.022966 111.330133 485.786261 
C 111.330133 485.549557 111.236089 485.322516 111.068714 485.155141 
C 110.901339 484.987766 110.674298 484.893722 110.437594 484.893722 
C 110.20089 484.893722 109.973848 484.987766 109.806473 485.155141 
C 109.639098 485.322516 109.545055 485.549557 109.545055 485.786261 
C 109.545055 486.022966 109.639098 486.250007 109.806473 486.417382 
C 109.973848 486.584757 110.20089 486.678801 110.437594 486.678801 
z
" style="fill:#9f3b22;stroke:#9f3b22;"/>
    <path clip-path="url(#p33073a0fec)" d="M 110.74746 483.86775 
C 110.989935 483.86775 111.222512 483.771413 111.393968 483.599957 
C 111.565424 483.428501 111.661761 483.195924 111.661761 482.953449 
C 111.661761 482.710974 111.565424 482.478397 111.393968 482.306941 
C 111.222512 482.135484 110.989935 482.039148 110.74746 482.039148 
C 110.504984 482.039148 110.272407 482.135484 110.100951 482.306941 
C 109.929495 482.478397 109.833159 482.710974 109.833159 482.953449 
C 109.833159 483.195924 109.929495 483.428501 110.100951 483.599957 
C 110.272407 483.771413 110.504984 483.86775 110.74746 483.86775 
z
" style="fill:#a43d24;stroke:#a43d24;"/>
    <path clip-path="url(#p33073a0fec)" d="M 111.066044 481.05723 
C 111.314431 481.05723 111.552679 480.958545 111.728315 480.782908 
C 111.903952 480.607272 112.002637 480.369024 112.002637 480.120637 
C 112.002637 479.872249 111.903952 479.634001 111.728315 479.458365 
C 111.552679 479.282728 111.314431 479.184043 111.066044 479.184043 
C 110.817656 479.184043 110.579408 479.282728 110.403772 479.458365 
C 110.228135 479.634001 110.12945 479.872249 110.12945 480.120637 
C 110.12945 480.369024 110.228135 480.607272 110.403772 480.782908 
C 110.579408 480.958545 110.817656 481.05723 111.066044 481.05723 
z
" style="fill:#a94025;stroke:#a94025;"/>
    <path clip-path="url(#p33073a0fec)" d="M 111.393591 478.247254 
C 111.648034 478.247254 111.892091 478.146162 112.07201 477.966243 
C 112.251929 477.786324 112.35302 477.542268 112.35302 477.287824 
C 112.35302 477.03338 112.251929 476.789324 112.07201 476.609405 
C 111.892091 476.429486 111.648034 476.328395 111.393591 476.328395 
C 111.139147 476.328395 110.89509 476.429486 110.715172 476.609405 
C 110.535253 476.789324 110.434161 477.03338 110.434161 477.287824 
C 110.434161 477.542268 110.535253 477.786324 110.715172 477.966243 
C 110.89509 478.146162 111.139147 478.247254 111.393591 478.247254 
z
" style="fill:#ae4227;stroke:#ae4227;"/>
    <path clip-path="url(#p33073a0fec)" d="M 111.730353 475.437834 
C 111.991001 475.437834 112.241008 475.334278 112.425314 475.149972 
C 112.609619 474.965666 112.713176 474.715659 112.713176 474.455012 
C 112.713176 474.194364 112.609619 473.944357 112.425314 473.760051 
C 112.241008 473.575746 111.991001 473.472189 111.730353 473.472189 
C 111.469706 473.472189 111.219699 473.575746 111.035393 473.760051 
C 110.851087 473.944357 110.747531 474.194364 110.747531 474.455012 
C 110.747531 474.715659 110.851087 474.965666 111.035393 475.149972 
C 111.219699 475.334278 111.469706 475.437834 111.730353 475.437834 
z
" style="fill:#b34528;stroke:#b34528;"/>
    <path clip-path="url(#p33073a0fec)" d="M 112.076591 472.628985 
C 112.343593 472.628985 112.599696 472.522903 112.788496 472.334104 
C 112.977295 472.145305 113.083376 471.889202 113.083376 471.622199 
C 113.083376 471.355197 112.977295 471.099094 112.788496 470.910295 
C 112.599696 470.721495 112.343593 470.615414 112.076591 470.615414 
C 111.809588 470.615414 111.553485 470.721495 111.364686 470.910295 
C 111.175887 471.099094 111.069805 471.355197 111.069805 471.622199 
C 111.069805 471.889202 111.175887 472.145305 111.364686 472.334104 
C 111.553485 472.522903 111.809588 472.628985 112.076591 472.628985 
z
" style="fill:#b8472a;stroke:#b8472a;"/>
    <path clip-path="url(#p33073a0fec)" d="M 112.432569 469.82072 
C 112.706082 469.82072 112.968429 469.712052 113.161832 469.518649 
C 113.355235 469.325247 113.463902 469.0629 113.463902 468.789387 
C 113.463902 468.515874 113.355235 468.253527 113.161832 468.060124 
C 112.968429 467.866722 112.706082 467.758054 112.432569 467.758054 
C 112.159057 467.758054 111.89671 467.866722 111.703307 468.060124 
C 111.509904 468.253527 111.401237 468.515874 111.401237 468.789387 
C 111.401237 469.0629 111.509904 469.325247 111.703307 469.518649 
C 111.89671 469.712052 112.159057 469.82072 112.432569 469.82072 
z
" style="fill:#be4a2b;stroke:#be4a2b;"/>
    <path clip-path="url(#p33073a0fec)" d="M 112.798564 467.013053 
C 113.078745 467.013053 113.347489 466.901736 113.545607 466.703618 
C 113.743725 466.5055 113.855042 466.236756 113.855042 465.956574 
C 113.855042 465.676393 113.743725 465.407649 113.545607 465.209531 
C 113.347489 465.011413 113.078745 464.900096 112.798564 464.900096 
C 112.518382 464.900096 112.249638 465.011413 112.05152 465.209531 
C 111.853402 465.407649 111.742085 465.676393 111.742085 465.956574 
C 111.742085 466.236756 111.853402 466.5055 112.05152 466.703618 
C 112.249638 466.901736 112.518382 467.013053 112.798564 467.013053 
z
" style="fill:#c34d2d;stroke:#c34d2d;"/>
    <path clip-path="url(#p33073a0fec)" d="M 113.174855 464.206 
C 113.461868 464.206 113.737164 464.091969 113.940113 463.88902 
C 114.143061 463.686071 114.257093 463.410775 114.257093 463.123762 
C 114.257093 462.836749 114.143061 462.561453 113.940113 462.358504 
C 113.737164 462.155556 113.461868 462.041524 113.174855 462.041524 
C 112.887842 462.041524 112.612546 462.155556 112.409597 462.358504 
C 112.206648 462.561453 112.092617 462.836749 112.092617 463.123762 
C 112.092617 463.410775 112.206648 463.686071 112.409597 463.88902 
C 112.612546 464.091969 112.887842 464.206 113.174855 464.206 
z
" style="fill:#ca502f;stroke:#ca502f;"/>
    <path clip-path="url(#p33073a0fec)" d="M 113.561733 461.399575 
C 113.855744 461.399575 114.137752 461.282763 114.345649 461.074866 
C 114.553546 460.866969 114.670358 460.58496 114.670358 460.29095 
C 114.670358 459.996939 114.553546 459.71493 114.345649 459.507033 
C 114.137752 459.299136 113.855744 459.182325 113.561733 459.182325 
C 113.267722 459.182325 112.985714 459.299136 112.777817 459.507033 
C 112.56992 459.71493 112.453108 459.996939 112.453108 460.29095 
C 112.453108 460.58496 112.56992 460.866969 112.777817 461.074866 
C 112.985714 461.282763 113.267722 461.399575 113.561733 461.399575 
z
" style="fill:#d05331;stroke:#d05331;"/>
    <path clip-path="url(#p33073a0fec)" d="M 113.959496 458.593793 
C 114.260675 458.593793 114.54956 458.474133 114.762525 458.261167 
C 114.975491 458.048201 115.095151 457.759317 115.095151 457.458137 
C 115.095151 457.156958 114.975491 456.868074 114.762525 456.655108 
C 114.54956 456.442142 114.260675 456.322482 113.959496 456.322482 
C 113.658317 456.322482 113.369432 456.442142 113.156466 456.655108 
C 112.9435 456.868074 112.82384 457.156958 112.82384 457.458137 
C 112.82384 457.759317 112.9435 458.048201 113.156466 458.261167 
C 113.369432 458.474133 113.658317 458.593793 113.959496 458.593793 
z
" style="fill:#d65733;stroke:#d65733;"/>
    <path clip-path="url(#p33073a0fec)" d="M 114.36845 455.78867 
C 114.676972 455.78867 114.9729 455.666092 115.191059 455.447934 
C 115.409217 455.229775 115.531795 454.933848 115.531795 454.625325 
C 115.531795 454.316802 115.409217 454.020874 115.191059 453.802716 
C 114.9729 453.584557 114.676972 453.46198 114.36845 453.46198 
C 114.059927 453.46198 113.763999 453.584557 113.545841 453.802716 
C 113.327682 454.020874 113.205105 454.316802 113.205105 454.625325 
C 113.205105 454.933848 113.327682 455.229775 113.545841 455.447934 
C 113.763999 455.666092 114.059927 455.78867 114.36845 455.78867 
z
" style="fill:#dd5a35;stroke:#dd5a35;"/>
    <path clip-path="url(#p33073a0fec)" d="M 114.788909 452.984222 
C 115.104954 452.984222 115.408098 452.858656 115.631575 452.635178 
C 115.855053 452.411701 115.980619 452.108557 115.980619 451.792512 
C 115.980619 451.476467 115.855053 451.173324 115.631575 450.949846 
C 115.408098 450.726369 115.104954 450.600803 114.788909 450.600803 
C 114.472864 450.600803 114.169721 450.726369 113.946243 450.949846 
C 113.722766 451.173324 113.5972 451.476467 113.5972 451.792512 
C 113.5972 452.108557 113.722766 452.411701 113.946243 452.635178 
C 114.169721 452.858656 114.472864 452.984222 114.788909 452.984222 
z
" style="fill:#e55e37;stroke:#e55e37;"/>
    <path clip-path="url(#p33073a0fec)" d="M 115.221199 450.180466 
C 115.54495 450.180466 115.855484 450.051838 116.08441 449.822912 
C 116.313337 449.593985 116.441964 449.283451 116.441964 448.9597 
C 116.441964 448.635949 116.313337 448.325415 116.08441 448.096488 
C 115.855484 447.867562 115.54495 447.738934 115.221199 447.738934 
C 114.897448 447.738934 114.586913 447.867562 114.357987 448.096488 
C 114.12906 448.325415 114.000433 448.635949 114.000433 448.9597 
C 114.000433 449.283451 114.12906 449.593985 114.357987 449.822912 
C 114.586913 450.051838 114.897448 450.180466 115.221199 450.180466 
z
" style="fill:#ec6239;stroke:#ec6239;"/>
    <path clip-path="url(#p33073a0fec)" d="M 115.66565 447.377418 
C 115.997295 447.377418 116.315401 447.245654 116.549909 447.011146 
C 116.784417 446.776638 116.916181 446.458532 116.916181 446.126888 
C 116.916181 445.795243 116.784417 445.477137 116.549909 445.242629 
C 116.315401 445.008121 115.997295 444.876357 115.66565 444.876357 
C 115.334006 444.876357 115.0159 445.008121 114.781392 445.242629 
C 114.546884 445.477137 114.41512 445.795243 114.41512 446.126888 
C 114.41512 446.458532 114.546884 446.776638 114.781392 447.011146 
C 115.0159 447.245654 115.334006 447.377418 115.66565 447.377418 
z
" style="fill:#f4653c;stroke:#f4653c;"/>
    <path clip-path="url(#p33073a0fec)" d="M 116.122606 444.575096 
C 116.462337 444.575096 116.788199 444.44012 117.028425 444.199894 
C 117.268651 443.959668 117.403627 443.633806 117.403627 443.294075 
C 117.403627 442.954344 117.268651 442.628482 117.028425 442.388257 
C 116.788199 442.148031 116.462337 442.013054 116.122606 442.013054 
C 115.782876 442.013054 115.457014 442.148031 115.216788 442.388257 
C 114.976562 442.628482 114.841586 442.954344 114.841586 443.294075 
C 114.841586 443.633806 114.976562 443.959668 115.216788 444.199894 
C 115.457014 444.44012 115.782876 444.575096 116.122606 444.575096 
z
" style="fill:#fc6a3e;stroke:#fc6a3e;"/>
    <path clip-path="url(#p33073a0fec)" d="M 116.592419 441.773517 
C 116.940433 441.773517 117.27424 441.63525 117.520323 441.389167 
C 117.766406 441.143084 117.904674 440.809277 117.904674 440.461263 
C 117.904674 440.113249 117.766406 439.779442 117.520323 439.533359 
C 117.27424 439.287275 116.940433 439.149008 116.592419 439.149008 
C 116.244405 439.149008 115.910598 439.287275 115.664515 439.533359 
C 115.418432 439.779442 115.280164 440.113249 115.280164 440.461263 
C 115.280164 440.809277 115.418432 441.143084 115.664515 441.389167 
C 115.910598 441.63525 116.244405 441.773517 116.592419 441.773517 
z
" style="fill:#ff6f42;stroke:#ff6f42;"/>
    <path clip-path="url(#p33073a0fec)" d="M 117.07545 438.9727 
C 117.431949 438.9727 117.773895 438.831062 118.025978 438.578979 
C 118.278061 438.326896 118.4197 437.98495 118.4197 437.62845 
C 118.4197 437.271951 118.278061 436.930005 118.025978 436.677922 
C 117.773895 436.425839 117.431949 436.2842 117.07545 436.2842 
C 116.71895 436.2842 116.377004 436.425839 116.124921 436.677922 
C 115.872838 436.930005 115.7312 437.271951 115.7312 437.62845 
C 115.7312 437.98495 115.872838 438.326896 116.124921 438.578979 
C 116.377004 438.831062 116.71895 438.9727 117.07545 438.9727 
z
" style="fill:#ff7546;stroke:#ff7546;"/>
    <path clip-path="url(#p33073a0fec)" d="M 117.57207 436.172664 
C 117.937262 436.172664 118.287545 436.027571 118.545774 435.769342 
C 118.804004 435.511113 118.949096 435.160829 118.949096 434.795638 
C 118.949096 434.430446 118.804004 434.080163 118.545774 433.821934 
C 118.287545 433.563704 117.937262 433.418612 117.57207 433.418612 
C 117.206879 433.418612 116.856595 433.563704 116.598366 433.821934 
C 116.340137 434.080163 116.195045 434.430446 116.195045 434.795638 
C 116.195045 435.160829 116.340137 435.511113 116.598366 435.769342 
C 116.856595 436.027571 117.206879 436.172664 117.57207 436.172664 
z
" style="fill:#ff7c4b;stroke:#ff7c4b;"/>
    <path clip-path="url(#p33073a0fec)" d="M 118.082663 433.373426 
C 118.456759 433.373426 118.815583 433.224796 119.080108 432.96027 
C 119.344634 432.695745 119.493263 432.336921 119.493263 431.962826 
C 119.493263 431.58873 119.344634 431.229906 119.080108 430.965381 
C 118.815583 430.700855 118.456759 430.552225 118.082663 430.552225 
C 117.708568 430.552225 117.349744 430.700855 117.085218 430.965381 
C 116.820693 431.229906 116.672063 431.58873 116.672063 431.962826 
C 116.672063 432.336921 116.820693 432.695745 117.085218 432.96027 
C 117.349744 433.224796 117.708568 433.373426 118.082663 433.373426 
z
" style="fill:#ff8350;stroke:#ff8350;"/>
    <path clip-path="url(#p33073a0fec)" d="M 118.607621 430.575007 
C 118.990838 430.575007 119.358411 430.422753 119.629386 430.151778 
C 119.900361 429.880803 120.052615 429.51323 120.052615 429.130013 
C 120.052615 428.746796 119.900361 428.379224 119.629386 428.108248 
C 119.358411 427.837273 118.990838 427.68502 118.607621 427.68502 
C 118.224405 427.68502 117.856832 427.837273 117.585857 428.108248 
C 117.314882 428.379224 117.162628 428.746796 117.162628 429.130013 
C 117.162628 429.51323 117.314882 429.880803 117.585857 430.151778 
C 117.856832 430.422753 118.224405 430.575007 118.607621 430.575007 
z
" style="fill:#ff8a55;stroke:#ff8a55;"/>
    <path clip-path="url(#p33073a0fec)" d="M 119.147349 427.777426 
C 119.53991 427.777426 119.916445 427.62146 120.194027 427.343878 
C 120.471609 427.066296 120.627575 426.689761 120.627575 426.297201 
C 120.627575 425.90464 120.471609 425.528105 120.194027 425.250523 
C 119.916445 424.972941 119.53991 424.816975 119.147349 424.816975 
C 118.754789 424.816975 118.378254 424.972941 118.100672 425.250523 
C 117.82309 425.528105 117.667124 425.90464 117.667124 426.297201 
C 117.667124 426.689761 117.82309 427.066296 118.100672 427.343878 
C 118.378254 427.62146 118.754789 427.777426 119.147349 427.777426 
z
" style="fill:#ff915a;stroke:#ff915a;"/>
    <path clip-path="url(#p33073a0fec)" d="M 119.702262 424.980704 
C 120.104394 424.980704 120.49011 424.820936 120.77446 424.536586 
C 121.05881 424.252236 121.218579 423.86652 121.218579 423.464388 
C 121.218579 423.062257 121.05881 422.676541 120.77446 422.392191 
C 120.49011 422.107841 120.104394 421.948072 119.702262 421.948072 
C 119.300131 421.948072 118.914415 422.107841 118.630065 422.392191 
C 118.345715 422.676541 118.185946 423.062257 118.185946 423.464388 
C 118.185946 423.86652 118.345715 424.252236 118.630065 424.536586 
C 118.914415 424.820936 119.300131 424.980704 119.702262 424.980704 
z
" style="fill:#ff9960;stroke:#ff9960;"/>
    <path clip-path="url(#p33073a0fec)" d="M 120.272788 422.184863 
C 120.684724 422.184863 121.079844 422.021199 121.371128 421.729916 
C 121.662411 421.438632 121.826075 421.043512 121.826075 420.631576 
C 121.826075 420.219639 121.662411 419.824519 121.371128 419.533236 
C 121.079844 419.241953 120.684724 419.078289 120.272788 419.078289 
C 119.860851 419.078289 119.465731 419.241953 119.174448 419.533236 
C 118.883165 419.824519 118.719501 420.219639 118.719501 420.631576 
C 118.719501 421.043512 118.883165 421.438632 119.174448 421.729916 
C 119.465731 422.021199 119.860851 422.184863 120.272788 422.184863 
z
" style="fill:#ffa165;stroke:#ffa165;"/>
    <path clip-path="url(#p33073a0fec)" d="M 120.859365 419.389922 
C 121.281345 419.389922 121.686099 419.222268 121.984484 418.923883 
C 122.282869 418.625498 122.450524 418.220744 122.450524 417.798763 
C 122.450524 417.376783 122.282869 416.972029 121.984484 416.673644 
C 121.686099 416.375259 121.281345 416.207604 120.859365 416.207604 
C 120.437385 416.207604 120.032631 416.375259 119.734246 416.673644 
C 119.435861 416.972029 119.268206 417.376783 119.268206 417.798763 
C 119.268206 418.220744 119.435861 418.625498 119.734246 418.923883 
C 120.032631 419.222268 120.437385 419.389922 120.859365 419.389922 
z
" style="fill:#ffa96b;stroke:#ffa96b;"/>
    <path clip-path="url(#p33073a0fec)" d="M 121.462445 416.595906 
C 121.894714 416.595906 122.309337 416.424163 122.614997 416.118503 
C 122.920658 415.812843 123.0924 415.39822 123.0924 414.965951 
C 123.0924 414.533682 122.920658 414.119059 122.614997 413.813399 
C 122.309337 413.507739 121.894714 413.335996 121.462445 413.335996 
C 121.030176 413.335996 120.615554 413.507739 120.309893 413.813399 
C 120.004233 414.119059 119.832491 414.533682 119.832491 414.965951 
C 119.832491 415.39822 120.004233 415.812843 120.309893 416.118503 
C 120.615554 416.424163 121.030176 416.595906 121.462445 416.595906 
z
" style="fill:#ffb171;stroke:#ffb171;"/>
    <path clip-path="url(#p33073a0fec)" d="M 122.082493 413.802835 
C 122.525302 413.802835 122.950034 413.626905 123.263147 413.313792 
C 123.57626 413.000679 123.752189 412.575947 123.752189 412.133139 
C 123.752189 411.69033 123.57626 411.265598 123.263147 410.952485 
C 122.950034 410.639372 122.525302 410.463442 122.082493 410.463442 
C 121.639685 410.463442 121.214953 410.639372 120.90184 410.952485 
C 120.588727 411.265598 120.412797 411.69033 120.412797 412.133139 
C 120.412797 412.575947 120.588727 413.000679 120.90184 413.313792 
C 121.214953 413.626905 121.639685 413.802835 122.082493 413.802835 
z
" style="fill:#ffb474;stroke:#ffb474;"/>
    <path clip-path="url(#p33073a0fec)" d="M 122.719986 411.010733 
C 123.173591 411.010733 123.608679 410.830514 123.929426 410.509766 
C 124.250173 410.189019 124.430392 409.753931 124.430392 409.300326 
C 124.430392 408.846721 124.250173 408.411633 123.929426 408.090886 
C 123.608679 407.770139 123.173591 407.58992 122.719986 407.58992 
C 122.266381 407.58992 121.831293 407.770139 121.510546 408.090886 
C 121.189798 408.411633 121.009579 408.846721 121.009579 409.300326 
C 121.009579 409.753931 121.189798 410.189019 121.510546 410.509766 
C 121.831293 410.830514 122.266381 411.010733 122.719986 411.010733 
z
" style="fill:#ffb777;stroke:#ffb777;"/>
    <path clip-path="url(#p33073a0fec)" d="M 123.375414 408.219624 
C 123.840079 408.219624 124.285775 408.03501 124.614343 407.706442 
C 124.942911 407.377875 125.127524 406.932179 125.127524 406.467514 
C 125.127524 406.002849 124.942911 405.557153 124.614343 405.228585 
C 124.285775 404.900017 123.840079 404.715404 123.375414 404.715404 
C 122.910749 404.715404 122.465053 404.900017 122.136486 405.228585 
C 121.807918 405.557153 121.623305 406.002849 121.623305 406.467514 
C 121.623305 406.932179 121.807918 407.377875 122.136486 407.706442 
C 122.465053 408.03501 122.910749 408.219624 123.375414 408.219624 
z
" style="fill:#ffb979;stroke:#ffb979;"/>
    <path clip-path="url(#p33073a0fec)" d="M 124.049283 405.429531 
C 124.525278 405.429531 124.98184 405.240416 125.318419 404.903838 
C 125.654998 404.567259 125.844113 404.110696 125.844113 403.634701 
C 125.844113 403.158707 125.654998 402.702144 125.318419 402.365565 
C 124.98184 402.028986 124.525278 401.839872 124.049283 401.839872 
C 123.573289 401.839872 123.116726 402.028986 122.780147 402.365565 
C 122.443568 402.702144 122.254454 403.158707 122.254454 403.634701 
C 122.254454 404.110696 122.443568 404.567259 122.780147 404.903838 
C 123.116726 405.240416 123.573289 405.429531 124.049283 405.429531 
z
" style="fill:#ffbb7b;stroke:#ffbb7b;"/>
    <path clip-path="url(#p33073a0fec)" d="M 124.742111 402.64048 
C 125.229711 402.64048 125.697406 402.446755 126.042191 402.101969 
C 126.386977 401.757184 126.580702 401.289489 126.580702 400.801889 
C 126.580702 400.314289 126.386977 399.846594 126.042191 399.501809 
C 125.697406 399.157023 125.229711 398.963298 124.742111 398.963298 
C 124.254511 398.963298 123.786816 399.157023 123.442031 399.501809 
C 123.097246 399.846594 122.90352 400.314289 122.90352 400.801889 
C 122.90352 401.289489 123.097246 401.757184 123.442031 402.101969 
C 123.786816 402.446755 124.254511 402.64048 124.742111 402.64048 
z
" style="fill:#ffbb7b;stroke:#ffbb7b;"/>
    <path clip-path="url(#p33073a0fec)" d="M 125.454432 399.852496 
C 125.95392 399.852496 126.433019 399.654047 126.78621 399.300855 
C 127.139402 398.947663 127.337851 398.468565 127.337851 397.969077 
C 127.337851 397.469588 127.139402 396.99049 126.78621 396.637298 
C 126.433019 396.284106 125.95392 396.085657 125.454432 396.085657 
C 124.954943 396.085657 124.475845 396.284106 124.122653 396.637298 
C 123.769461 396.99049 123.571012 397.469588 123.571012 397.969077 
C 123.571012 398.468565 123.769461 398.947663 124.122653 399.300855 
C 124.475845 399.654047 124.954943 399.852496 125.454432 399.852496 
z
" style="fill:#ffbb7b;stroke:#ffbb7b;"/>
    <path clip-path="url(#p33073a0fec)" d="M 126.186793 397.065605 
C 126.69846 397.065605 127.18924 396.862318 127.551043 396.500514 
C 127.912847 396.138711 128.116134 395.647931 128.116134 395.136264 
C 128.116134 394.624597 127.912847 394.133817 127.551043 393.772014 
C 127.18924 393.410211 126.69846 393.206923 126.186793 393.206923 
C 125.675126 393.206923 125.184346 393.410211 124.822543 393.772014 
C 124.46074 394.133817 124.257452 394.624597 124.257452 395.136264 
C 124.257452 395.647931 124.46074 396.138711 124.822543 396.500514 
C 125.184346 396.862318 125.675126 397.065605 126.186793 397.065605 
z
" style="fill:#ffbb7b;stroke:#ffbb7b;"/>
    <path clip-path="url(#p33073a0fec)" d="M 126.93976 394.279834 
C 127.463902 394.279834 127.966648 394.07159 128.337273 393.700965 
C 128.707898 393.33034 128.916142 392.827594 128.916142 392.303452 
C 128.916142 391.779309 128.707898 391.276563 128.337273 390.905938 
C 127.966648 390.535314 127.463902 390.327069 126.93976 390.327069 
C 126.415617 390.327069 125.912871 390.535314 125.542246 390.905938 
C 125.171621 391.276563 124.963377 391.779309 124.963377 392.303452 
C 124.963377 392.827594 125.171621 393.33034 125.542246 393.700965 
C 125.912871 394.07159 126.415617 394.279834 126.93976 394.279834 
z
" style="fill:#ffbc7c;stroke:#ffbc7c;"/>
    <path clip-path="url(#p33073a0fec)" d="M 127.713911 391.49521 
C 128.250833 391.49521 128.765837 391.281888 129.145498 390.902227 
C 129.525159 390.522565 129.738481 390.007562 129.738481 389.470639 
C 129.738481 388.933717 129.525159 388.418713 129.145498 388.039052 
C 128.765837 387.65939 128.250833 387.446069 127.713911 387.446069 
C 127.176988 387.446069 126.661985 387.65939 126.282323 388.039052 
C 125.902662 388.418713 125.68934 388.933717 125.68934 389.470639 
C 125.68934 390.007562 125.902662 390.522565 126.282323 390.902227 
C 126.661985 391.281888 127.176988 391.49521 127.713911 391.49521 
z
" style="fill:#ffbc7d;stroke:#ffbc7d;"/>
    <path clip-path="url(#p33073a0fec)" d="M 128.509842 388.71176 
C 129.059856 388.71176 129.587416 388.493238 129.976335 388.104319 
C 130.365253 387.715401 130.583776 387.18784 130.583776 386.637827 
C 130.583776 386.087813 130.365253 385.560253 129.976335 385.171335 
C 129.587416 384.782416 129.059856 384.563893 128.509842 384.563893 
C 127.959829 384.563893 127.432268 384.782416 127.04335 385.171335 
C 126.654431 385.560253 126.435909 386.087813 126.435909 386.637827 
C 126.435909 387.18784 126.654431 387.715401 127.04335 388.104319 
C 127.432268 388.493238 127.959829 388.71176 128.509842 388.71176 
z
" style="fill:#ffbd7d;stroke:#ffbd7d;"/>
    <path clip-path="url(#p33073a0fec)" d="M 129.328167 385.929515 
C 129.891591 385.929515 130.432014 385.705664 130.830415 385.307263 
C 131.228816 384.908862 131.452667 384.368438 131.452667 383.805014 
C 131.452667 383.24159 131.228816 382.701167 130.830415 382.302766 
C 130.432014 381.904365 129.891591 381.680514 129.328167 381.680514 
C 128.764743 381.680514 128.22432 381.904365 127.825919 382.302766 
C 127.427518 382.701167 127.203667 383.24159 127.203667 383.805014 
C 127.203667 384.368438 127.427518 384.908862 127.825919 385.307263 
C 128.22432 385.705664 128.764743 385.929515 129.328167 385.929515 
z
" style="fill:#ffbd7e;stroke:#ffbd7e;"/>
    <path clip-path="url(#p33073a0fec)" d="M 130.169515 383.148502 
C 130.746677 383.148502 131.300277 382.919193 131.708392 382.511078 
C 132.116506 382.102964 132.345815 381.549363 132.345815 380.972202 
C 132.345815 380.395041 132.116506 379.841441 131.708392 379.433326 
C 131.300277 379.025211 130.746677 378.795903 130.169515 378.795903 
C 129.592354 378.795903 129.038754 379.025211 128.630639 379.433326 
C 128.222524 379.841441 127.993216 380.395041 127.993216 380.972202 
C 127.993216 381.549363 128.222524 382.102964 128.630639 382.511078 
C 129.038754 382.919193 129.592354 383.148502 130.169515 383.148502 
z
" style="fill:#ffbe7f;stroke:#ffbe7f;"/>
    <path clip-path="url(#p33073a0fec)" d="M 131.034535 380.368752 
C 131.625769 380.368752 132.192866 380.133852 132.610932 379.715787 
C 133.028997 379.297721 133.263897 378.730623 133.263897 378.13939 
C 133.263897 377.548156 133.028997 376.981058 132.610932 376.562993 
C 132.192866 376.144927 131.625769 375.910028 131.034535 375.910028 
C 130.443301 375.910028 129.876203 376.144927 129.458138 376.562993 
C 129.040072 376.981058 128.805173 377.548156 128.805173 378.13939 
C 128.805173 378.730623 129.040072 379.297721 129.458138 379.715787 
C 129.876203 380.133852 130.443301 380.368752 131.034535 380.368752 
z
" style="fill:#ffc083;stroke:#ffc083;"/>
    <path clip-path="url(#p33073a0fec)" d="M 131.923891 377.590296 
C 132.529541 377.590296 133.110465 377.349669 133.538724 376.92141 
C 133.966983 376.493151 134.20761 375.912226 134.20761 375.306577 
C 134.20761 374.700928 133.966983 374.120003 133.538724 373.691745 
C 133.110465 373.263486 132.529541 373.022859 131.923891 373.022859 
C 131.318242 373.022859 130.737317 373.263486 130.309059 373.691745 
C 129.8808 374.120003 129.640173 374.700928 129.640173 375.306577 
C 129.640173 375.912226 129.8808 376.493151 130.309059 376.92141 
C 130.737317 377.349669 131.318242 377.590296 131.923891 377.590296 
z
" style="fill:#ffc287;stroke:#ffc287;"/>
    <path clip-path="url(#p33073a0fec)" d="M 132.83827 374.813165 
C 133.458686 374.813165 134.053775 374.566671 134.492475 374.12797 
C 134.931176 373.68927 135.17767 373.094181 135.17767 372.473765 
C 135.17767 371.853349 134.931176 371.25826 134.492475 370.819559 
C 134.053775 370.380859 133.458686 370.134365 132.83827 370.134365 
C 132.217854 370.134365 131.622765 370.380859 131.184064 370.819559 
C 130.745364 371.25826 130.49887 371.853349 130.49887 372.473765 
C 130.49887 373.094181 130.745364 373.68927 131.184064 374.12797 
C 131.622765 374.566671 132.217854 374.813165 132.83827 374.813165 
z
" style="fill:#ffc48b;stroke:#ffc48b;"/>
    <path clip-path="url(#p33073a0fec)" d="M 133.778374 372.037391 
C 134.413917 372.037391 135.023516 371.784888 135.472913 371.335491 
C 135.922309 370.886094 136.174813 370.276495 136.174813 369.640952 
C 136.174813 369.005409 135.922309 368.395811 135.472913 367.946414 
C 135.023516 367.497017 134.413917 367.244513 133.778374 367.244513 
C 133.142831 367.244513 132.533233 367.497017 132.083836 367.946414 
C 131.634439 368.395811 131.381935 369.005409 131.381935 369.640952 
C 131.381935 370.276495 131.634439 370.886094 132.083836 371.335491 
C 132.533233 371.784888 133.142831 372.037391 133.778374 372.037391 
z
" style="fill:#ffc68f;stroke:#ffc68f;"/>
    <path clip-path="url(#p33073a0fec)" d="M 134.744928 369.263009 
C 135.395967 369.263009 136.020429 369.004348 136.480783 368.543994 
C 136.941137 368.083641 137.199797 367.459179 137.199797 366.80814 
C 137.199797 366.157101 136.941137 365.532639 136.480783 365.072286 
C 136.020429 364.611932 135.395967 364.353271 134.744928 364.353271 
C 134.093889 364.353271 133.469428 364.611932 133.009074 365.072286 
C 132.54872 365.532639 132.290059 366.157101 132.290059 366.80814 
C 132.290059 367.459179 132.54872 368.083641 133.009074 368.543994 
C 133.469428 369.004348 134.093889 369.263009 134.744928 369.263009 
z
" style="fill:#ffc996;stroke:#ffc996;"/>
    <path clip-path="url(#p33073a0fec)" d="M 135.738676 366.490051 
C 136.405589 366.490051 137.045276 366.225084 137.516854 365.753506 
C 137.988432 365.281927 138.2534 364.64224 138.2534 363.975328 
C 138.2534 363.308415 137.988432 362.668728 137.516854 362.19715 
C 137.045276 361.725571 136.405589 361.460604 135.738676 361.460604 
C 135.071764 361.460604 134.432076 361.725571 133.960498 362.19715 
C 133.48892 362.668728 133.223953 363.308415 133.223953 363.975328 
C 133.223953 364.64224 133.48892 365.281927 133.960498 365.753506 
C 134.432076 366.225084 135.071764 366.490051 135.738676 366.490051 
z
" style="fill:#ffce9e;stroke:#ffce9e;"/>
    <path clip-path="url(#p33073a0fec)" d="M 136.760383 363.718553 
C 137.443556 363.718553 138.09884 363.447125 138.581916 362.964049 
C 139.064993 362.480972 139.33642 361.825688 139.33642 361.142515 
C 139.33642 360.459342 139.064993 359.804058 138.581916 359.320982 
C 138.09884 358.837905 137.443556 358.566478 136.760383 358.566478 
C 136.07721 358.566478 135.421926 358.837905 134.938849 359.320982 
C 134.455773 359.804058 134.184345 360.459342 134.184345 361.142515 
C 134.184345 361.825688 134.455773 362.480972 134.938849 362.964049 
C 135.421926 363.447125 136.07721 363.718553 136.760383 363.718553 
z
" style="fill:#ffd3a7;stroke:#ffd3a7;"/>
    <path clip-path="url(#p33073a0fec)" d="M 137.810835 360.948549 
C 138.510665 360.948549 139.181926 360.670504 139.676781 360.175649 
C 140.171636 359.680794 140.449681 359.009533 140.449681 358.309703 
C 140.449681 357.609873 140.171636 356.938611 139.676781 356.443757 
C 139.181926 355.948902 138.510665 355.670856 137.810835 355.670856 
C 137.111005 355.670856 136.439743 355.948902 135.944889 356.443757 
C 135.450034 356.938611 135.171989 357.609873 135.171989 358.309703 
C 135.171989 359.009533 135.450034 359.680794 135.944889 360.175649 
C 136.439743 360.670504 137.111005 360.948549 137.810835 360.948549 
z
" style="fill:#ffd8af;stroke:#ffd8af;"/>
    <path clip-path="url(#p33073a0fec)" d="M 138.890841 358.180077 
C 139.607735 358.180077 140.295363 357.895252 140.802283 357.388332 
C 141.309203 356.881412 141.594028 356.193784 141.594028 355.47689 
C 141.594028 354.759997 141.309203 354.072369 140.802283 353.565449 
C 140.295363 353.058528 139.607735 352.773704 138.890841 352.773704 
C 138.173948 352.773704 137.48632 353.058528 136.9794 353.565449 
C 136.47248 354.072369 136.187655 354.759997 136.187655 355.47689 
C 136.187655 356.193784 136.47248 356.881412 136.9794 357.388332 
C 137.48632 357.895252 138.173948 358.180077 138.890841 358.180077 
z
" style="fill:#ffdcb6;stroke:#ffdcb6;"/>
    <path clip-path="url(#p33073a0fec)" d="M 140.001234 355.413174 
C 140.735606 355.413174 141.44 355.121404 141.95928 354.602124 
C 142.47856 354.082844 142.770329 353.378451 142.770329 352.644078 
C 142.770329 351.909705 142.47856 351.205312 141.95928 350.686032 
C 141.44 350.166752 140.735606 349.874982 140.001234 349.874982 
C 139.266861 349.874982 138.562467 350.166752 138.043187 350.686032 
C 137.523907 351.205312 137.232138 351.909705 137.232138 352.644078 
C 137.232138 353.378451 137.523907 354.082844 138.043187 354.602124 
C 138.562467 355.121404 139.266861 355.413174 140.001234 355.413174 
z
" style="fill:#ffe0be;stroke:#ffe0be;"/>
    <path clip-path="url(#p33073a0fec)" d="M 141.142866 352.647877 
C 141.895145 352.647877 142.616713 352.348994 143.148654 351.817053 
C 143.680595 351.285112 143.979478 350.563544 143.979478 349.811266 
C 143.979478 349.058987 143.680595 348.337419 143.148654 347.805478 
C 142.616713 347.273537 141.895145 346.974654 141.142866 346.974654 
C 140.390588 346.974654 139.66902 347.273537 139.137079 347.805478 
C 138.605138 348.337419 138.306255 349.058987 138.306255 349.811266 
C 138.306255 350.563544 138.605138 351.285112 139.137079 351.817053 
C 139.66902 352.348994 140.390588 352.647877 141.142866 352.647877 
z
" style="fill:#ffe4c5;stroke:#ffe4c5;"/>
   </g>
   <g id="PathCollection_3">
    <path clip-path="url(#p33073a0fec)" d="M 410.103906 134.193559 
C 413.855337 134.193559 417.453625 132.703099 420.106288 130.050436 
C 422.75895 127.397774 424.24941 123.799486 424.24941 120.048055 
C 424.24941 116.296623 422.75895 112.698335 420.106288 110.045673 
C 417.453625 107.39301 413.855337 105.902551 410.103906 105.902551 
C 406.352474 105.902551 402.754187 107.39301 400.101524 110.045673 
C 397.448861 112.698335 395.958402 116.296623 395.958402 120.048055 
C 395.958402 123.799486 397.448861 127.397774 400.101524 130.050436 
C 402.754187 132.703099 406.352474 134.193559 410.103906 134.193559 
z
" style="fill:#a1b8ff;stroke:#a1b8ff;"/>
    <path clip-path="url(#p33073a0fec)" d="M 430.714968 120.786414 
C 434.78538 120.786414 438.689625 119.169223 441.567841 116.291007 
C 444.446056 113.412792 446.063248 109.508546 446.063248 105.438135 
C 446.063248 101.367723 444.446056 97.463478 441.567841 94.585262 
C 438.689625 91.707047 434.78538 90.089855 430.714968 90.089855 
C 426.644557 90.089855 422.740311 91.707047 419.862096 94.585262 
C 416.98388 97.463478 415.366689 101.367723 415.366689 105.438135 
C 415.366689 109.508546 416.98388 113.412792 419.862096 116.291007 
C 422.740311 119.169223 426.644557 120.786414 430.714968 120.786414 
z
" style="fill:#a0b7ff;stroke:#a0b7ff;"/>
    <path clip-path="url(#p33073a0fec)" d="M 452.693405 107.481541 
C 457.109919 107.481541 461.346138 105.726841 464.469085 102.603895 
C 467.592032 99.480948 469.346731 95.244729 469.346731 90.828215 
C 469.346731 86.411701 467.592032 82.175482 464.469085 79.052535 
C 461.346138 75.929588 457.109919 74.174889 452.693405 74.174889 
C 448.276892 74.174889 444.040672 75.929588 440.917726 79.052535 
C 437.794779 82.175482 436.040079 86.411701 436.040079 90.828215 
C 436.040079 95.244729 437.794779 99.480948 440.917726 102.603895 
C 444.040672 105.726841 448.276892 107.481541 452.693405 107.481541 
z
" style="fill:#9fb6ff;stroke:#9fb6ff;"/>
    <path clip-path="url(#p33073a0fec)" d="M 476.129931 94.287634 
C 480.921976 94.287634 485.518396 92.383735 488.906884 88.995247 
C 492.295371 85.60676 494.19927 81.01034 494.19927 76.218295 
C 494.19927 71.42625 492.295371 66.82983 488.906884 63.441343 
C 485.518396 60.052856 480.921976 58.148956 476.129931 58.148956 
C 471.337887 58.148956 466.741467 60.052856 463.352979 63.441343 
C 459.964492 66.82983 458.060592 71.42625 458.060592 76.218295 
C 458.060592 81.01034 459.964492 85.60676 463.352979 88.995247 
C 466.741467 92.383735 471.337887 94.287634 476.129931 94.287634 
z
" style="fill:#9db4ff;stroke:#9db4ff;"/>
    <path clip-path="url(#p33073a0fec)" d="M 501.121279 81.214129 
C 506.320785 81.214129 511.308034 79.148343 514.98464 75.471737 
C 518.661246 71.79513 520.727032 66.807882 520.727032 61.608375 
C 520.727032 56.408869 518.661246 51.42162 514.98464 47.745014 
C 511.308034 44.068407 506.320785 42.002622 501.121279 42.002622 
C 495.921772 42.002622 490.934524 44.068407 487.257917 47.745014 
C 483.581311 51.42162 481.515525 56.408869 481.515525 61.608375 
C 481.515525 66.807882 483.581311 71.79513 487.257917 75.471737 
C 490.934524 79.148343 495.921772 81.214129 501.121279 81.214129 
z
" style="fill:#9cb3ff;stroke:#9cb3ff;"/>
   </g>
   <g id="matplotlib.axis_1">
    <g id="xtick_1">
     <g id="line2d_1">
      <defs>
       <path d="M 0 0 
L 0 3.5 
" id="m43ead24041" style="stroke:#000000;stroke-width:0.8;"/>
      </defs>
      <g>
       <use style="stroke:#000000;stroke-width:0.8;" x="99.423977" xlink:href="#m43ead24041" y="511"/>
      </g>
     </g>
     <g id="text_1">
      <!-- 0 -->
      <defs>
       <path d="M 31.78125 66.40625 
Q 24.171875 66.40625 20.328125 58.90625 
Q 16.5 51.421875 16.5 36.375 
Q 16.5 21.390625 20.328125 13.890625 
Q 24.171875 6.390625 31.78125 6.390625 
Q 39.453125 6.390625 43.28125 13.890625 
Q 47.125 21.390625 47.125 36.375 
Q 47.125 51.421875 43.28125 58.90625 
Q 39.453125 66.40625 31.78125 66.40625 
z
M 31.78125 74.21875 
Q 44.046875 74.21875 50.515625 64.515625 
Q 56.984375 54.828125 56.984375 36.375 
Q 56.984375 17.96875 50.515625 8.265625 
Q 44.046875 -1.421875 31.78125 -1.421875 
Q 19.53125 -1.421875 13.0625 8.265625 
Q 6.59375 17.96875 6.59375 36.375 
Q 6.59375 54.828125 13.0625 64.515625 
Q 19.53125 74.21875 31.78125 74.21875 
z
" id="DejaVuSans-30"/>
      </defs>
      <g transform="translate(93.697727 531.677187)scale(0.18 -0.18)">
       <use xlink:href="#DejaVuSans-30"/>
      </g>
     </g>
    </g>
    <g id="xtick_2">
     <g id="line2d_2">
      <g>
       <use style="stroke:#000000;stroke-width:0.8;" x="185.152261" xlink:href="#m43ead24041" y="511"/>
      </g>
     </g>
     <g id="text_2">
      <!-- 10000 -->
      <defs>
       <path d="M 12.40625 8.296875 
L 28.515625 8.296875 
L 28.515625 63.921875 
L 10.984375 60.40625 
L 10.984375 69.390625 
L 28.421875 72.90625 
L 38.28125 72.90625 
L 38.28125 8.296875 
L 54.390625 8.296875 
L 54.390625 0 
L 12.40625 0 
z
" id="DejaVuSans-31"/>
      </defs>
      <g transform="translate(156.521011 531.677187)scale(0.18 -0.18)">
       <use xlink:href="#DejaVuSans-31"/>
       <use x="63.623047" xlink:href="#DejaVuSans-30"/>
       <use x="127.246094" xlink:href="#DejaVuSans-30"/>
       <use x="190.869141" xlink:href="#DejaVuSans-30"/>
       <use x="254.492188" xlink:href="#DejaVuSans-30"/>
      </g>
     </g>
    </g>
    <g id="xtick_3">
     <g id="line2d_3">
      <g>
       <use style="stroke:#000000;stroke-width:0.8;" x="270.880545" xlink:href="#m43ead24041" y="511"/>
      </g>
     </g>
     <g id="text_3">
      <!-- 20000 -->
      <defs>
       <path d="M 19.1875 8.296875 
L 53.609375 8.296875 
L 53.609375 0 
L 7.328125 0 
L 7.328125 8.296875 
Q 12.9375 14.109375 22.625 23.890625 
Q 32.328125 33.6875 34.8125 36.53125 
Q 39.546875 41.84375 41.421875 45.53125 
Q 43.3125 49.21875 43.3125 52.78125 
Q 43.3125 58.59375 39.234375 62.25 
Q 35.15625 65.921875 28.609375 65.921875 
Q 23.96875 65.921875 18.8125 64.3125 
Q 13.671875 62.703125 7.8125 59.421875 
L 7.8125 69.390625 
Q 13.765625 71.78125 18.9375 73 
Q 24.125 74.21875 28.421875 74.21875 
Q 39.75 74.21875 46.484375 68.546875 
Q 53.21875 62.890625 53.21875 53.421875 
Q 53.21875 48.921875 51.53125 44.890625 
Q 49.859375 40.875 45.40625 35.40625 
Q 44.1875 33.984375 37.640625 27.21875 
Q 31.109375 20.453125 19.1875 8.296875 
z
" id="DejaVuSans-32"/>
      </defs>
      <g transform="translate(242.249295 531.677187)scale(0.18 -0.18)">
       <use xlink:href="#DejaVuSans-32"/>
       <use x="63.623047" xlink:href="#DejaVuSans-30"/>
       <use x="127.246094" xlink:href="#DejaVuSans-30"/>
       <use x="190.869141" xlink:href="#DejaVuSans-30"/>
       <use x="254.492188" xlink:href="#DejaVuSans-30"/>
      </g>
     </g>
    </g>
    <g id="xtick_4">
     <g id="line2d_4">
      <g>
       <use style="stroke:#000000;stroke-width:0.8;" x="356.608829" xlink:href="#m43ead24041" y="511"/>
      </g>
     </g>
     <g id="text_4">
      <!-- 30000 -->
      <defs>
       <path d="M 40.578125 39.3125 
Q 47.65625 37.796875 51.625 33 
Q 55.609375 28.21875 55.609375 21.1875 
Q 55.609375 10.40625 48.1875 4.484375 
Q 40.765625 -1.421875 27.09375 -1.421875 
Q 22.515625 -1.421875 17.65625 -0.515625 
Q 12.796875 0.390625 7.625 2.203125 
L 7.625 11.71875 
Q 11.71875 9.328125 16.59375 8.109375 
Q 21.484375 6.890625 26.8125 6.890625 
Q 36.078125 6.890625 40.9375 10.546875 
Q 45.796875 14.203125 45.796875 21.1875 
Q 45.796875 27.640625 41.28125 31.265625 
Q 36.765625 34.90625 28.71875 34.90625 
L 20.21875 34.90625 
L 20.21875 43.015625 
L 29.109375 43.015625 
Q 36.375 43.015625 40.234375 45.921875 
Q 44.09375 48.828125 44.09375 54.296875 
Q 44.09375 59.90625 40.109375 62.90625 
Q 36.140625 65.921875 28.71875 65.921875 
Q 24.65625 65.921875 20.015625 65.03125 
Q 15.375 64.15625 9.8125 62.3125 
L 9.8125 71.09375 
Q 15.4375 72.65625 20.34375 73.4375 
Q 25.25 74.21875 29.59375 74.21875 
Q 40.828125 74.21875 47.359375 69.109375 
Q 53.90625 64.015625 53.90625 55.328125 
Q 53.90625 49.265625 50.4375 45.09375 
Q 46.96875 40.921875 40.578125 39.3125 
z
" id="DejaVuSans-33"/>
      </defs>
      <g transform="translate(327.977579 531.677187)scale(0.18 -0.18)">
       <use xlink:href="#DejaVuSans-33"/>
       <use x="63.623047" xlink:href="#DejaVuSans-30"/>
       <use x="127.246094" xlink:href="#DejaVuSans-30"/>
       <use x="190.869141" xlink:href="#DejaVuSans-30"/>
       <use x="254.492188" xlink:href="#DejaVuSans-30"/>
      </g>
     </g>
    </g>
    <g id="xtick_5">
     <g id="line2d_5">
      <g>
       <use style="stroke:#000000;stroke-width:0.8;" x="442.337113" xlink:href="#m43ead24041" y="511"/>
      </g>
     </g>
     <g id="text_5">
      <!-- 40000 -->
      <defs>
       <path d="M 37.796875 64.3125 
L 12.890625 25.390625 
L 37.796875 25.390625 
z
M 35.203125 72.90625 
L 47.609375 72.90625 
L 47.609375 25.390625 
L 58.015625 25.390625 
L 58.015625 17.1875 
L 47.609375 17.1875 
L 47.609375 0 
L 37.796875 0 
L 37.796875 17.1875 
L 4.890625 17.1875 
L 4.890625 26.703125 
z
" id="DejaVuSans-34"/>
      </defs>
      <g transform="translate(413.705863 531.677187)scale(0.18 -0.18)">
       <use xlink:href="#DejaVuSans-34"/>
       <use x="63.623047" xlink:href="#DejaVuSans-30"/>
       <use x="127.246094" xlink:href="#DejaVuSans-30"/>
       <use x="190.869141" xlink:href="#DejaVuSans-30"/>
       <use x="254.492188" xlink:href="#DejaVuSans-30"/>
      </g>
     </g>
    </g>
    <g id="xtick_6">
     <g id="line2d_6">
      <g>
       <use style="stroke:#000000;stroke-width:0.8;" x="528.065397" xlink:href="#m43ead24041" y="511"/>
      </g>
     </g>
     <g id="text_6">
      <!-- 50000 -->
      <defs>
       <path d="M 10.796875 72.90625 
L 49.515625 72.90625 
L 49.515625 64.59375 
L 19.828125 64.59375 
L 19.828125 46.734375 
Q 21.96875 47.46875 24.109375 47.828125 
Q 26.265625 48.1875 28.421875 48.1875 
Q 40.625 48.1875 47.75 41.5 
Q 54.890625 34.8125 54.890625 23.390625 
Q 54.890625 11.625 47.5625 5.09375 
Q 40.234375 -1.421875 26.90625 -1.421875 
Q 22.3125 -1.421875 17.546875 -0.640625 
Q 12.796875 0.140625 7.71875 1.703125 
L 7.71875 11.625 
Q 12.109375 9.234375 16.796875 8.0625 
Q 21.484375 6.890625 26.703125 6.890625 
Q 35.15625 6.890625 40.078125 11.328125 
Q 45.015625 15.765625 45.015625 23.390625 
Q 45.015625 31 40.078125 35.4375 
Q 35.15625 39.890625 26.703125 39.890625 
Q 22.75 39.890625 18.8125 39.015625 
Q 14.890625 38.140625 10.796875 36.28125 
z
" id="DejaVuSans-35"/>
      </defs>
      <g transform="translate(499.434147 531.677187)scale(0.18 -0.18)">
       <use xlink:href="#DejaVuSans-35"/>
       <use x="63.623047" xlink:href="#DejaVuSans-30"/>
       <use x="127.246094" xlink:href="#DejaVuSans-30"/>
       <use x="190.869141" xlink:href="#DejaVuSans-30"/>
       <use x="254.492188" xlink:href="#DejaVuSans-30"/>
      </g>
     </g>
    </g>
    <g id="text_7">
     <!-- Temperature -->
     <defs>
      <path d="M -0.296875 72.90625 
L 61.375 72.90625 
L 61.375 64.59375 
L 35.5 64.59375 
L 35.5 0 
L 25.59375 0 
L 25.59375 64.59375 
L -0.296875 64.59375 
z
" id="DejaVuSans-54"/>
      <path d="M 56.203125 29.59375 
L 56.203125 25.203125 
L 14.890625 25.203125 
Q 15.484375 15.921875 20.484375 11.0625 
Q 25.484375 6.203125 34.421875 6.203125 
Q 39.59375 6.203125 44.453125 7.46875 
Q 49.3125 8.734375 54.109375 11.28125 
L 54.109375 2.78125 
Q 49.265625 0.734375 44.1875 -0.34375 
Q 39.109375 -1.421875 33.890625 -1.421875 
Q 20.796875 -1.421875 13.15625 6.1875 
Q 5.515625 13.8125 5.515625 26.8125 
Q 5.515625 40.234375 12.765625 48.109375 
Q 20.015625 56 32.328125 56 
Q 43.359375 56 49.78125 48.890625 
Q 56.203125 41.796875 56.203125 29.59375 
z
M 47.21875 32.234375 
Q 47.125 39.59375 43.09375 43.984375 
Q 39.0625 48.390625 32.421875 48.390625 
Q 24.90625 48.390625 20.390625 44.140625 
Q 15.875 39.890625 15.1875 32.171875 
z
" id="DejaVuSans-65"/>
      <path d="M 52 44.1875 
Q 55.375 50.25 60.0625 53.125 
Q 64.75 56 71.09375 56 
Q 79.640625 56 84.28125 50.015625 
Q 88.921875 44.046875 88.921875 33.015625 
L 88.921875 0 
L 79.890625 0 
L 79.890625 32.71875 
Q 79.890625 40.578125 77.09375 44.375 
Q 74.3125 48.1875 68.609375 48.1875 
Q 61.625 48.1875 57.5625 43.546875 
Q 53.515625 38.921875 53.515625 30.90625 
L 53.515625 0 
L 44.484375 0 
L 44.484375 32.71875 
Q 44.484375 40.625 41.703125 44.40625 
Q 38.921875 48.1875 33.109375 48.1875 
Q 26.21875 48.1875 22.15625 43.53125 
Q 18.109375 38.875 18.109375 30.90625 
L 18.109375 0 
L 9.078125 0 
L 9.078125 54.6875 
L 18.109375 54.6875 
L 18.109375 46.1875 
Q 21.1875 51.21875 25.484375 53.609375 
Q 29.78125 56 35.6875 56 
Q 41.65625 56 45.828125 52.96875 
Q 50 49.953125 52 44.1875 
z
" id="DejaVuSans-6d"/>
      <path d="M 18.109375 8.203125 
L 18.109375 -20.796875 
L 9.078125 -20.796875 
L 9.078125 54.6875 
L 18.109375 54.6875 
L 18.109375 46.390625 
Q 20.953125 51.265625 25.265625 53.625 
Q 29.59375 56 35.59375 56 
Q 45.5625 56 51.78125 48.09375 
Q 58.015625 40.1875 58.015625 27.296875 
Q 58.015625 14.40625 51.78125 6.484375 
Q 45.5625 -1.421875 35.59375 -1.421875 
Q 29.59375 -1.421875 25.265625 0.953125 
Q 20.953125 3.328125 18.109375 8.203125 
z
M 48.6875 27.296875 
Q 48.6875 37.203125 44.609375 42.84375 
Q 40.53125 48.484375 33.40625 48.484375 
Q 26.265625 48.484375 22.1875 42.84375 
Q 18.109375 37.203125 18.109375 27.296875 
Q 18.109375 17.390625 22.1875 11.75 
Q 26.265625 6.109375 33.40625 6.109375 
Q 40.53125 6.109375 44.609375 11.75 
Q 48.6875 17.390625 48.6875 27.296875 
z
" id="DejaVuSans-70"/>
      <path d="M 41.109375 46.296875 
Q 39.59375 47.171875 37.8125 47.578125 
Q 36.03125 48 33.890625 48 
Q 26.265625 48 22.1875 43.046875 
Q 18.109375 38.09375 18.109375 28.8125 
L 18.109375 0 
L 9.078125 0 
L 9.078125 54.6875 
L 18.109375 54.6875 
L 18.109375 46.1875 
Q 20.953125 51.171875 25.484375 53.578125 
Q 30.03125 56 36.53125 56 
Q 37.453125 56 38.578125 55.875 
Q 39.703125 55.765625 41.0625 55.515625 
z
" id="DejaVuSans-72"/>
      <path d="M 34.28125 27.484375 
Q 23.390625 27.484375 19.1875 25 
Q 14.984375 22.515625 14.984375 16.5 
Q 14.984375 11.71875 18.140625 8.90625 
Q 21.296875 6.109375 26.703125 6.109375 
Q 34.1875 6.109375 38.703125 11.40625 
Q 43.21875 16.703125 43.21875 25.484375 
L 43.21875 27.484375 
z
M 52.203125 31.203125 
L 52.203125 0 
L 43.21875 0 
L 43.21875 8.296875 
Q 40.140625 3.328125 35.546875 0.953125 
Q 30.953125 -1.421875 24.3125 -1.421875 
Q 15.921875 -1.421875 10.953125 3.296875 
Q 6 8.015625 6 15.921875 
Q 6 25.140625 12.171875 29.828125 
Q 18.359375 34.515625 30.609375 34.515625 
L 43.21875 34.515625 
L 43.21875 35.40625 
Q 43.21875 41.609375 39.140625 45 
Q 35.0625 48.390625 27.6875 48.390625 
Q 23 48.390625 18.546875 47.265625 
Q 14.109375 46.140625 10.015625 43.890625 
L 10.015625 52.203125 
Q 14.9375 54.109375 19.578125 55.046875 
Q 24.21875 56 28.609375 56 
Q 40.484375 56 46.34375 49.84375 
Q 52.203125 43.703125 52.203125 31.203125 
z
" id="DejaVuSans-61"/>
      <path d="M 18.3125 70.21875 
L 18.3125 54.6875 
L 36.8125 54.6875 
L 36.8125 47.703125 
L 18.3125 47.703125 
L 18.3125 18.015625 
Q 18.3125 11.328125 20.140625 9.421875 
Q 21.96875 7.515625 27.59375 7.515625 
L 36.8125 7.515625 
L 36.8125 0 
L 27.59375 0 
Q 17.1875 0 13.234375 3.875 
Q 9.28125 7.765625 9.28125 18.015625 
L 9.28125 47.703125 
L 2.6875 47.703125 
L 2.6875 54.6875 
L 9.28125 54.6875 
L 9.28125 70.21875 
z
" id="DejaVuSans-74"/>
      <path d="M 8.5 21.578125 
L 8.5 54.6875 
L 17.484375 54.6875 
L 17.484375 21.921875 
Q 17.484375 14.15625 20.5 10.265625 
Q 23.53125 6.390625 29.59375 6.390625 
Q 36.859375 6.390625 41.078125 11.03125 
Q 45.3125 15.671875 45.3125 23.6875 
L 45.3125 54.6875 
L 54.296875 54.6875 
L 54.296875 0 
L 45.3125 0 
L 45.3125 8.40625 
Q 42.046875 3.421875 37.71875 1 
Q 33.40625 -1.421875 27.6875 -1.421875 
Q 18.265625 -1.421875 13.375 4.4375 
Q 8.5 10.296875 8.5 21.578125 
z
M 31.109375 56 
z
" id="DejaVuSans-75"/>
     </defs>
     <g transform="translate(251.884663 553.097813)scale(0.18 -0.18)">
      <use xlink:href="#DejaVuSans-54"/>
      <use x="60.818359" xlink:href="#DejaVuSans-65"/>
      <use x="122.341797" xlink:href="#DejaVuSans-6d"/>
      <use x="219.753906" xlink:href="#DejaVuSans-70"/>
      <use x="283.230469" xlink:href="#DejaVuSans-65"/>
      <use x="344.753906" xlink:href="#DejaVuSans-72"/>
      <use x="385.867188" xlink:href="#DejaVuSans-61"/>
      <use x="447.146484" xlink:href="#DejaVuSans-74"/>
      <use x="486.355469" xlink:href="#DejaVuSans-75"/>
      <use x="549.734375" xlink:href="#DejaVuSans-72"/>
      <use x="590.816406" xlink:href="#DejaVuSans-65"/>
     </g>
    </g>
   </g>
   <g id="matplotlib.axis_2">
    <g id="ytick_1">
     <g id="line2d_7">
      <defs>
       <path d="M 0 0 
L -3.5 0 
" id="ma4a0a350e4" style="stroke:#000000;stroke-width:0.8;"/>
      </defs>
      <g>
       <use style="stroke:#000000;stroke-width:0.8;" x="89.638119" xlink:href="#ma4a0a350e4" y="488.619074"/>
      </g>
     </g>
     <g id="text_8">
      <!-- $\mathdefault{10^{-1}}$ -->
      <defs>
       <path d="M 10.59375 35.5 
L 73.1875 35.5 
L 73.1875 27.203125 
L 10.59375 27.203125 
z
" id="DejaVuSans-2212"/>
      </defs>
      <g transform="translate(40.338119 495.457668)scale(0.18 -0.18)">
       <use transform="translate(0 0.684375)" xlink:href="#DejaVuSans-31"/>
       <use transform="translate(63.623047 0.684375)" xlink:href="#DejaVuSans-30"/>
       <use transform="translate(128.203125 38.965625)scale(0.7)" xlink:href="#DejaVuSans-2212"/>
       <use transform="translate(186.855469 38.965625)scale(0.7)" xlink:href="#DejaVuSans-31"/>
      </g>
     </g>
    </g>
    <g id="ytick_2">
     <g id="line2d_8">
      <g>
       <use style="stroke:#000000;stroke-width:0.8;" x="89.638119" xlink:href="#ma4a0a350e4" y="334.915888"/>
      </g>
     </g>
     <g id="text_9">
      <!-- $\mathdefault{10^{0}}$ -->
      <g transform="translate(50.958119 341.754482)scale(0.18 -0.18)">
       <use transform="translate(0 0.765625)" xlink:href="#DejaVuSans-31"/>
       <use transform="translate(63.623047 0.765625)" xlink:href="#DejaVuSans-30"/>
       <use transform="translate(128.203125 39.046875)scale(0.7)" xlink:href="#DejaVuSans-30"/>
      </g>
     </g>
    </g>
    <g id="ytick_3">
     <g id="line2d_9">
      <g>
       <use style="stroke:#000000;stroke-width:0.8;" x="89.638119" xlink:href="#ma4a0a350e4" y="181.212702"/>
      </g>
     </g>
     <g id="text_10">
      <!-- $\mathdefault{10^{1}}$ -->
      <g transform="translate(50.958119 188.051295)scale(0.18 -0.18)">
       <use transform="translate(0 0.684375)" xlink:href="#DejaVuSans-31"/>
       <use transform="translate(63.623047 0.684375)" xlink:href="#DejaVuSans-30"/>
       <use transform="translate(128.203125 38.965625)scale(0.7)" xlink:href="#DejaVuSans-31"/>
      </g>
     </g>
    </g>
    <g id="ytick_4">
     <g id="line2d_10">
      <g>
       <use style="stroke:#000000;stroke-width:0.8;" x="89.638119" xlink:href="#ma4a0a350e4" y="27.509516"/>
      </g>
     </g>
     <g id="text_11">
      <!-- $\mathdefault{10^{2}}$ -->
      <g transform="translate(50.958119 34.348109)scale(0.18 -0.18)">
       <use transform="translate(0 0.765625)" xlink:href="#DejaVuSans-31"/>
       <use transform="translate(63.623047 0.765625)" xlink:href="#DejaVuSans-30"/>
       <use transform="translate(128.203125 39.046875)scale(0.7)" xlink:href="#DejaVuSans-32"/>
      </g>
     </g>
    </g>
    <g id="ytick_5">
     <g id="line2d_11">
      <defs>
       <path d="M 0 0 
L -2 0 
" id="m166542eff5" style="stroke:#000000;stroke-width:0.6;"/>
      </defs>
      <g>
       <use style="stroke:#000000;stroke-width:0.6;" x="89.638119" xlink:href="#m166542eff5" y="503.514452"/>
      </g>
     </g>
    </g>
    <g id="ytick_6">
     <g id="line2d_12">
      <g>
       <use style="stroke:#000000;stroke-width:0.6;" x="89.638119" xlink:href="#m166542eff5" y="495.652146"/>
      </g>
     </g>
    </g>
    <g id="ytick_7">
     <g id="line2d_13">
      <g>
       <use style="stroke:#000000;stroke-width:0.6;" x="89.638119" xlink:href="#m166542eff5" y="442.349804"/>
      </g>
     </g>
    </g>
    <g id="ytick_8">
     <g id="line2d_14">
      <g>
       <use style="stroke:#000000;stroke-width:0.6;" x="89.638119" xlink:href="#m166542eff5" y="415.284017"/>
      </g>
     </g>
    </g>
    <g id="ytick_9">
     <g id="line2d_15">
      <g>
       <use style="stroke:#000000;stroke-width:0.6;" x="89.638119" xlink:href="#m166542eff5" y="396.080535"/>
      </g>
     </g>
    </g>
    <g id="ytick_10">
     <g id="line2d_16">
      <g>
       <use style="stroke:#000000;stroke-width:0.6;" x="89.638119" xlink:href="#m166542eff5" y="381.185157"/>
      </g>
     </g>
    </g>
    <g id="ytick_11">
     <g id="line2d_17">
      <g>
       <use style="stroke:#000000;stroke-width:0.6;" x="89.638119" xlink:href="#m166542eff5" y="369.014747"/>
      </g>
     </g>
    </g>
    <g id="ytick_12">
     <g id="line2d_18">
      <g>
       <use style="stroke:#000000;stroke-width:0.6;" x="89.638119" xlink:href="#m166542eff5" y="358.724813"/>
      </g>
     </g>
    </g>
    <g id="ytick_13">
     <g id="line2d_19">
      <g>
       <use style="stroke:#000000;stroke-width:0.6;" x="89.638119" xlink:href="#m166542eff5" y="349.811266"/>
      </g>
     </g>
    </g>
    <g id="ytick_14">
     <g id="line2d_20">
      <g>
       <use style="stroke:#000000;stroke-width:0.6;" x="89.638119" xlink:href="#m166542eff5" y="341.94896"/>
      </g>
     </g>
    </g>
    <g id="ytick_15">
     <g id="line2d_21">
      <g>
       <use style="stroke:#000000;stroke-width:0.6;" x="89.638119" xlink:href="#m166542eff5" y="288.646618"/>
      </g>
     </g>
    </g>
    <g id="ytick_16">
     <g id="line2d_22">
      <g>
       <use style="stroke:#000000;stroke-width:0.6;" x="89.638119" xlink:href="#m166542eff5" y="261.580831"/>
      </g>
     </g>
    </g>
    <g id="ytick_17">
     <g id="line2d_23">
      <g>
       <use style="stroke:#000000;stroke-width:0.6;" x="89.638119" xlink:href="#m166542eff5" y="242.377349"/>
      </g>
     </g>
    </g>
    <g id="ytick_18">
     <g id="line2d_24">
      <g>
       <use style="stroke:#000000;stroke-width:0.6;" x="89.638119" xlink:href="#m166542eff5" y="227.481971"/>
      </g>
     </g>
    </g>
    <g id="ytick_19">
     <g id="line2d_25">
      <g>
       <use style="stroke:#000000;stroke-width:0.6;" x="89.638119" xlink:href="#m166542eff5" y="215.311561"/>
      </g>
     </g>
    </g>
    <g id="ytick_20">
     <g id="line2d_26">
      <g>
       <use style="stroke:#000000;stroke-width:0.6;" x="89.638119" xlink:href="#m166542eff5" y="205.021626"/>
      </g>
     </g>
    </g>
    <g id="ytick_21">
     <g id="line2d_27">
      <g>
       <use style="stroke:#000000;stroke-width:0.6;" x="89.638119" xlink:href="#m166542eff5" y="196.108079"/>
      </g>
     </g>
    </g>
    <g id="ytick_22">
     <g id="line2d_28">
      <g>
       <use style="stroke:#000000;stroke-width:0.6;" x="89.638119" xlink:href="#m166542eff5" y="188.245774"/>
      </g>
     </g>
    </g>
    <g id="ytick_23">
     <g id="line2d_29">
      <g>
       <use style="stroke:#000000;stroke-width:0.6;" x="89.638119" xlink:href="#m166542eff5" y="134.943432"/>
      </g>
     </g>
    </g>
    <g id="ytick_24">
     <g id="line2d_30">
      <g>
       <use style="stroke:#000000;stroke-width:0.6;" x="89.638119" xlink:href="#m166542eff5" y="107.877645"/>
      </g>
     </g>
    </g>
    <g id="ytick_25">
     <g id="line2d_31">
      <g>
       <use style="stroke:#000000;stroke-width:0.6;" x="89.638119" xlink:href="#m166542eff5" y="88.674163"/>
      </g>
     </g>
    </g>
    <g id="ytick_26">
     <g id="line2d_32">
      <g>
       <use style="stroke:#000000;stroke-width:0.6;" x="89.638119" xlink:href="#m166542eff5" y="73.778785"/>
      </g>
     </g>
    </g>
    <g id="ytick_27">
     <g id="line2d_33">
      <g>
       <use style="stroke:#000000;stroke-width:0.6;" x="89.638119" xlink:href="#m166542eff5" y="61.608375"/>
      </g>
     </g>
    </g>
    <g id="ytick_28">
     <g id="line2d_34">
      <g>
       <use style="stroke:#000000;stroke-width:0.6;" x="89.638119" xlink:href="#m166542eff5" y="51.31844"/>
      </g>
     </g>
    </g>
    <g id="ytick_29">
     <g id="line2d_35">
      <g>
       <use style="stroke:#000000;stroke-width:0.6;" x="89.638119" xlink:href="#m166542eff5" y="42.404893"/>
      </g>
     </g>
    </g>
    <g id="ytick_30">
     <g id="line2d_36">
      <g>
       <use style="stroke:#000000;stroke-width:0.6;" x="89.638119" xlink:href="#m166542eff5" y="34.542588"/>
      </g>
     </g>
    </g>
    <g id="text_12">
     <!-- Mass -->
     <defs>
      <path d="M 9.8125 72.90625 
L 24.515625 72.90625 
L 43.109375 23.296875 
L 61.8125 72.90625 
L 76.515625 72.90625 
L 76.515625 0 
L 66.890625 0 
L 66.890625 64.015625 
L 48.09375 14.015625 
L 38.1875 14.015625 
L 19.390625 64.015625 
L 19.390625 0 
L 9.8125 0 
z
" id="DejaVuSans-4d"/>
      <path d="M 44.28125 53.078125 
L 44.28125 44.578125 
Q 40.484375 46.53125 36.375 47.5 
Q 32.28125 48.484375 27.875 48.484375 
Q 21.1875 48.484375 17.84375 46.4375 
Q 14.5 44.390625 14.5 40.28125 
Q 14.5 37.15625 16.890625 35.375 
Q 19.28125 33.59375 26.515625 31.984375 
L 29.59375 31.296875 
Q 39.15625 29.25 43.1875 25.515625 
Q 47.21875 21.78125 47.21875 15.09375 
Q 47.21875 7.46875 41.1875 3.015625 
Q 35.15625 -1.421875 24.609375 -1.421875 
Q 20.21875 -1.421875 15.453125 -0.5625 
Q 10.6875 0.296875 5.421875 2 
L 5.421875 11.28125 
Q 10.40625 8.6875 15.234375 7.390625 
Q 20.0625 6.109375 24.8125 6.109375 
Q 31.15625 6.109375 34.5625 8.28125 
Q 37.984375 10.453125 37.984375 14.40625 
Q 37.984375 18.0625 35.515625 20.015625 
Q 33.0625 21.96875 24.703125 23.78125 
L 21.578125 24.515625 
Q 13.234375 26.265625 9.515625 29.90625 
Q 5.8125 33.546875 5.8125 39.890625 
Q 5.8125 47.609375 11.28125 51.796875 
Q 16.75 56 26.8125 56 
Q 31.78125 56 36.171875 55.265625 
Q 40.578125 54.546875 44.28125 53.078125 
z
" id="DejaVuSans-73"/>
     </defs>
     <g transform="translate(32.594681 291.453095)rotate(-90)scale(0.18 -0.18)">
      <use xlink:href="#DejaVuSans-4d"/>
      <use x="86.279297" xlink:href="#DejaVuSans-61"/>
      <use x="147.558594" xlink:href="#DejaVuSans-73"/>
      <use x="199.658203" xlink:href="#DejaVuSans-73"/>
     </g>
    </g>
   </g>
   <g id="line2d_37">
    <path clip-path="url(#p33073a0fec)" d="M 110.136207 56.656716 
L 501.121279 56.656716 
" style="fill:none;stroke:#000000;stroke-dasharray:5.55,2.4;stroke-dashoffset:0;stroke-width:1.5;"/>
   </g>
   <g id="line2d_38">
    <path clip-path="url(#p33073a0fec)" d="M 110.136207 138.846909 
L 501.121279 138.846909 
" style="fill:none;stroke:#000000;stroke-dasharray:5.55,2.4;stroke-dashoffset:0;stroke-width:1.5;"/>
   </g>
   <g id="line2d_39">
    <path clip-path="url(#p33073a0fec)" d="M 110.136207 220.98641 
L 501.121279 220.98641 
" style="fill:none;stroke:#000000;stroke-dasharray:5.55,2.4;stroke-dashoffset:0;stroke-width:1.5;"/>
   </g>
   <g id="line2d_40">
    <path clip-path="url(#p33073a0fec)" d="M 110.136207 331.341914 
L 501.121279 331.341914 
" style="fill:none;stroke:#000000;stroke-dasharray:5.55,2.4;stroke-dashoffset:0;stroke-width:1.5;"/>
   </g>
   <g id="text_13">
    <g id="patch_3">
     <path clip-path="url(#p33073a0fec)" d="M 140.311111 70.696716 
L 215.731111 70.696716 
L 215.731111 42.616716 
L 140.311111 42.616716 
z
" style="fill:#ffffff;stroke:#ffffff;stroke-linejoin:miter;"/>
    </g>
    <g clip-path="url(#p33073a0fec)">
     <!-- $10^{6.5}$ yr -->
     <defs>
      <path d="M 33.015625 40.375 
Q 26.375 40.375 22.484375 35.828125 
Q 18.609375 31.296875 18.609375 23.390625 
Q 18.609375 15.53125 22.484375 10.953125 
Q 26.375 6.390625 33.015625 6.390625 
Q 39.65625 6.390625 43.53125 10.953125 
Q 47.40625 15.53125 47.40625 23.390625 
Q 47.40625 31.296875 43.53125 35.828125 
Q 39.65625 40.375 33.015625 40.375 
z
M 52.59375 71.296875 
L 52.59375 62.3125 
Q 48.875 64.0625 45.09375 64.984375 
Q 41.3125 65.921875 37.59375 65.921875 
Q 27.828125 65.921875 22.671875 59.328125 
Q 17.53125 52.734375 16.796875 39.40625 
Q 19.671875 43.65625 24.015625 45.921875 
Q 28.375 48.1875 33.59375 48.1875 
Q 44.578125 48.1875 50.953125 41.515625 
Q 57.328125 34.859375 57.328125 23.390625 
Q 57.328125 12.15625 50.6875 5.359375 
Q 44.046875 -1.421875 33.015625 -1.421875 
Q 20.359375 -1.421875 13.671875 8.265625 
Q 6.984375 17.96875 6.984375 36.375 
Q 6.984375 53.65625 15.1875 63.9375 
Q 23.390625 74.21875 37.203125 74.21875 
Q 40.921875 74.21875 44.703125 73.484375 
Q 48.484375 72.75 52.59375 71.296875 
z
" id="DejaVuSans-36"/>
      <path d="M 10.6875 12.40625 
L 21 12.40625 
L 21 0 
L 10.6875 0 
z
" id="DejaVuSans-2e"/>
      <path id="DejaVuSans-20"/>
      <path d="M 32.171875 -5.078125 
Q 28.375 -14.84375 24.75 -17.8125 
Q 21.140625 -20.796875 15.09375 -20.796875 
L 7.90625 -20.796875 
L 7.90625 -13.28125 
L 13.1875 -13.28125 
Q 16.890625 -13.28125 18.9375 -11.515625 
Q 21 -9.765625 23.484375 -3.21875 
L 25.09375 0.875 
L 2.984375 54.6875 
L 12.5 54.6875 
L 29.59375 11.921875 
L 46.6875 54.6875 
L 56.203125 54.6875 
z
" id="DejaVuSans-79"/>
     </defs>
     <g transform="translate(144.271111 62.956716)scale(0.18 -0.18)">
      <use transform="translate(0 0.765625)" xlink:href="#DejaVuSans-31"/>
      <use transform="translate(63.623047 0.765625)" xlink:href="#DejaVuSans-30"/>
      <use transform="translate(128.203125 39.046875)scale(0.7)" xlink:href="#DejaVuSans-36"/>
      <use transform="translate(172.739258 39.046875)scale(0.7)" xlink:href="#DejaVuSans-2e"/>
      <use transform="translate(194.990234 39.046875)scale(0.7)" xlink:href="#DejaVuSans-35"/>
      <use transform="translate(242.260742 0.765625)" xlink:href="#DejaVuSans-20"/>
      <use transform="translate(274.047852 0.765625)" xlink:href="#DejaVuSans-79"/>
      <use transform="translate(333.227539 0.765625)" xlink:href="#DejaVuSans-72"/>
     </g>
    </g>
   </g>
   <g id="text_14">
    <g id="patch_4">
     <path clip-path="url(#p33073a0fec)" d="M 234.724104 152.796909 
L 298.084104 152.796909 
L 298.084104 124.896909 
L 234.724104 124.896909 
z
" style="fill:#ffffff;stroke:#ffffff;stroke-linejoin:miter;"/>
    </g>
    <g clip-path="url(#p33073a0fec)">
     <!-- $10^{7}$ yr -->
     <defs>
      <path d="M 8.203125 72.90625 
L 55.078125 72.90625 
L 55.078125 68.703125 
L 28.609375 0 
L 18.3125 0 
L 43.21875 64.59375 
L 8.203125 64.59375 
z
" id="DejaVuSans-37"/>
     </defs>
     <g transform="translate(238.684104 145.056909)scale(0.18 -0.18)">
      <use transform="translate(0 0.684375)" xlink:href="#DejaVuSans-31"/>
      <use transform="translate(63.623047 0.684375)" xlink:href="#DejaVuSans-30"/>
      <use transform="translate(128.203125 38.965625)scale(0.7)" xlink:href="#DejaVuSans-37"/>
      <use transform="translate(175.473633 0.684375)" xlink:href="#DejaVuSans-20"/>
      <use transform="translate(207.260742 0.684375)" xlink:href="#DejaVuSans-79"/>
      <use transform="translate(266.44043 0.684375)" xlink:href="#DejaVuSans-72"/>
     </g>
    </g>
   </g>
   <g id="text_15">
    <g id="patch_5">
     <path clip-path="url(#p33073a0fec)" d="M 323.107097 235.02641 
L 386.467097 235.02641 
L 386.467097 206.94641 
L 323.107097 206.94641 
z
" style="fill:#ffffff;stroke:#ffffff;stroke-linejoin:miter;"/>
    </g>
    <g clip-path="url(#p33073a0fec)">
     <!-- $10^{8}$ yr -->
     <defs>
      <path d="M 31.78125 34.625 
Q 24.75 34.625 20.71875 30.859375 
Q 16.703125 27.09375 16.703125 20.515625 
Q 16.703125 13.921875 20.71875 10.15625 
Q 24.75 6.390625 31.78125 6.390625 
Q 38.8125 6.390625 42.859375 10.171875 
Q 46.921875 13.96875 46.921875 20.515625 
Q 46.921875 27.09375 42.890625 30.859375 
Q 38.875 34.625 31.78125 34.625 
z
M 21.921875 38.8125 
Q 15.578125 40.375 12.03125 44.71875 
Q 8.5 49.078125 8.5 55.328125 
Q 8.5 64.0625 14.71875 69.140625 
Q 20.953125 74.21875 31.78125 74.21875 
Q 42.671875 74.21875 48.875 69.140625 
Q 55.078125 64.0625 55.078125 55.328125 
Q 55.078125 49.078125 51.53125 44.71875 
Q 48 40.375 41.703125 38.8125 
Q 48.828125 37.15625 52.796875 32.3125 
Q 56.78125 27.484375 56.78125 20.515625 
Q 56.78125 9.90625 50.3125 4.234375 
Q 43.84375 -1.421875 31.78125 -1.421875 
Q 19.734375 -1.421875 13.25 4.234375 
Q 6.78125 9.90625 6.78125 20.515625 
Q 6.78125 27.484375 10.78125 32.3125 
Q 14.796875 37.15625 21.921875 38.8125 
z
M 18.3125 54.390625 
Q 18.3125 48.734375 21.84375 45.5625 
Q 25.390625 42.390625 31.78125 42.390625 
Q 38.140625 42.390625 41.71875 45.5625 
Q 45.3125 48.734375 45.3125 54.390625 
Q 45.3125 60.0625 41.71875 63.234375 
Q 38.140625 66.40625 31.78125 66.40625 
Q 25.390625 66.40625 21.84375 63.234375 
Q 18.3125 60.0625 18.3125 54.390625 
z
" id="DejaVuSans-38"/>
     </defs>
     <g transform="translate(327.067097 227.28641)scale(0.18 -0.18)">
      <use transform="translate(0 0.765625)" xlink:href="#DejaVuSans-31"/>
      <use transform="translate(63.623047 0.765625)" xlink:href="#DejaVuSans-30"/>
      <use transform="translate(128.203125 39.046875)scale(0.7)" xlink:href="#DejaVuSans-38"/>
      <use transform="translate(175.473633 0.765625)" xlink:href="#DejaVuSans-20"/>
      <use transform="translate(207.260742 0.765625)" xlink:href="#DejaVuSans-79"/>
      <use transform="translate(266.44043 0.765625)" xlink:href="#DejaVuSans-72"/>
     </g>
    </g>
   </g>
   <g id="text_16">
    <g id="patch_6">
     <path clip-path="url(#p33073a0fec)" d="M 407.440089 345.381914 
L 478.900089 345.381914 
L 478.900089 317.301914 
L 407.440089 317.301914 
z
" style="fill:#ffffff;stroke:#ffffff;stroke-linejoin:miter;"/>
    </g>
    <g clip-path="url(#p33073a0fec)">
     <!-- $10^{10}$ yr -->
     <g transform="translate(411.400089 337.641914)scale(0.18 -0.18)">
      <use transform="translate(0 0.765625)" xlink:href="#DejaVuSans-31"/>
      <use transform="translate(63.623047 0.765625)" xlink:href="#DejaVuSans-30"/>
      <use transform="translate(128.203125 39.046875)scale(0.7)" xlink:href="#DejaVuSans-31"/>
      <use transform="translate(172.739258 39.046875)scale(0.7)" xlink:href="#DejaVuSans-30"/>
      <use transform="translate(220.009766 0.765625)" xlink:href="#DejaVuSans-20"/>
      <use transform="translate(251.796875 0.765625)" xlink:href="#DejaVuSans-79"/>
      <use transform="translate(310.976562 0.765625)" xlink:href="#DejaVuSans-72"/>
     </g>
    </g>
   </g>
   <g id="patch_7">
    <path d="M 89.638119 511 
L 89.638119 26.591189 
" style="fill:none;stroke:#000000;stroke-linecap:square;stroke-linejoin:miter;stroke-width:0.8;"/>
   </g>
   <g id="patch_8">
    <path d="M 531.553082 511 
L 531.553082 26.591189 
" style="fill:none;stroke:#000000;stroke-linecap:square;stroke-linejoin:miter;stroke-width:0.8;"/>
   </g>
   <g id="patch_9">
    <path d="M 89.638119 511 
L 531.553082 511 
" style="fill:none;stroke:#000000;stroke-linecap:square;stroke-linejoin:miter;stroke-width:0.8;"/>
   </g>
   <g id="patch_10">
    <path d="M 89.638119 26.591189 
L 531.553082 26.591189 
" style="fill:none;stroke:#000000;stroke-linecap:square;stroke-linejoin:miter;stroke-width:0.8;"/>
   </g>
  </g>
 </g>
 <defs>
  <clipPath id="p33073a0fec">
   <rect height="484.408811" width="441.914963" x="89.638119" y="26.591189"/>
  </clipPath>
 </defs>
</svg>
