<?xml version="1.0" encoding="utf-8" standalone="no"?>
<!DOCTYPE svg PUBLIC "-//W3C//DTD SVG 1.1//EN"
  "http://www.w3.org/Graphics/SVG/1.1/DTD/svg11.dtd">
<!-- Created with matplotlib (http://matplotlib.org/) -->
<svg height="576pt" version="1.1" viewBox="0 0 576 576" width="576pt" xmlns="http://www.w3.org/2000/svg" xmlns:xlink="http://www.w3.org/1999/xlink">
 <defs>
  <style type="text/css">
*{stroke-linecap:butt;stroke-linejoin:round;}
  </style>
 </defs>
 <g id="figure_1">
  <g id="patch_1">
   <path d="M 0 576 
L 576 576 
L 576 0 
L 0 0 
z
" style="fill:#ffffff;"/>
  </g>
  <g id="axes_1">
   <g id="patch_2">
    <path d="M 97.778104 504.52 
L 553.14 504.52 
L 553.14 22.86 
L 97.778104 22.86 
z
" style="fill:#ffffff;"/>
   </g>
   <g id="PathCollection_1">
    <path clip-path="url(#p0385ad3ece)" d="M 151.158945 344.959195 
C 151.909323 344.959195 152.629068 344.661067 153.159665 344.13047 
C 153.690262 343.599873 153.98839 342.880128 153.98839 342.12975 
C 153.98839 341.379373 153.690262 340.659628 153.159665 340.12903 
C 152.629068 339.598433 151.909323 339.300305 151.158945 339.300305 
C 150.408568 339.300305 149.688822 339.598433 149.158225 340.12903 
C 148.627628 340.659628 148.3295 341.379373 148.3295 342.12975 
C 148.3295 342.880128 148.627628 343.599873 149.158225 344.13047 
C 149.688822 344.661067 150.408568 344.959195 151.158945 344.959195 
z
" style="fill:#ffe4c5;stroke:#ffe4c5;"/>
    <path clip-path="url(#p0385ad3ece)" d="M 152.589402 341.983993 
C 153.359915 341.983993 154.098973 341.677865 154.643808 341.13303 
C 155.188643 340.588196 155.494771 339.849137 155.494771 339.078625 
C 155.494771 338.308112 155.188643 337.569054 154.643808 337.024219 
C 154.098973 336.479384 153.359915 336.173256 152.589402 336.173256 
C 151.81889 336.173256 151.079831 336.479384 150.534997 337.024219 
C 149.990162 337.569054 149.684034 338.308112 149.684034 339.078625 
C 149.684034 339.849137 149.990162 340.588196 150.534997 341.13303 
C 151.079831 341.677865 151.81889 341.983993 152.589402 341.983993 
z
" style="fill:#ffe9ce;stroke:#ffe9ce;"/>
    <path clip-path="url(#p0385ad3ece)" d="M 154.066752 339.137683 
C 154.856575 339.137683 155.614155 338.823883 156.172644 338.265394 
C 156.731134 337.706904 157.044934 336.949324 157.044934 336.159501 
C 157.044934 335.369678 156.731134 334.612098 156.172644 334.053608 
C 155.614155 333.495119 154.856575 333.181319 154.066752 333.181319 
C 153.276929 333.181319 152.519348 333.495119 151.960859 334.053608 
C 151.40237 334.612098 151.08857 335.369678 151.08857 336.159501 
C 151.08857 336.949324 151.40237 337.706904 151.960859 338.265394 
C 152.519348 338.823883 153.276929 339.137683 154.066752 339.137683 
z
" style="fill:#ffeed8;stroke:#ffeed8;"/>
    <path clip-path="url(#p0385ad3ece)" d="M 155.371479 336.341093 
C 156.18133 336.341093 156.95812 336.019336 157.530771 335.446685 
C 158.103421 334.874035 158.425178 334.097244 158.425178 333.287394 
C 158.425178 332.477543 158.103421 331.700753 157.530771 331.128102 
C 156.95812 330.555452 156.18133 330.233695 155.371479 330.233695 
C 154.561629 330.233695 153.784838 330.555452 153.212188 331.128102 
C 152.639537 331.700753 152.31778 332.477543 152.31778 333.287394 
C 152.31778 334.097244 152.639537 334.874035 153.212188 335.446685 
C 153.784838 336.019336 154.561629 336.341093 155.371479 336.341093 
z
" style="fill:#fff2e1;stroke:#fff2e1;"/>
    <path clip-path="url(#p0385ad3ece)" d="M 156.712787 333.72935 
C 157.54174 333.72935 158.336853 333.400004 158.923011 332.813846 
C 159.509169 332.227687 159.838516 331.432575 159.838516 330.603622 
C 159.838516 329.774669 159.509169 328.979556 158.923011 328.393398 
C 158.336853 327.80724 157.54174 327.477893 156.712787 327.477893 
C 155.883834 327.477893 155.088721 327.80724 154.502563 328.393398 
C 153.916405 328.979556 153.587059 329.774669 153.587059 330.603622 
C 153.587059 331.432575 153.916405 332.227687 154.502563 332.813846 
C 155.088721 333.400004 155.883834 333.72935 156.712787 333.72935 
z
" style="fill:#fff4e8;stroke:#fff4e8;"/>
    <path clip-path="url(#p0385ad3ece)" d="M 159.032313 328.804826 
C 159.899085 328.804826 160.730473 328.460454 161.343373 327.847554 
C 161.956273 327.234654 162.300645 326.403266 162.300645 325.536494 
C 162.300645 324.669722 161.956273 323.838334 161.343373 323.225434 
C 160.730473 322.612533 159.899085 322.268161 159.032313 322.268161 
C 158.165541 322.268161 157.334153 322.612533 156.721252 323.225434 
C 156.108352 323.838334 155.76398 324.669722 155.76398 325.536494 
C 155.76398 326.403266 156.108352 327.234654 156.721252 327.847554 
C 157.334153 328.460454 158.165541 328.804826 159.032313 328.804826 
z
" style="fill:#fff5ed;stroke:#fff5ed;"/>
    <path clip-path="url(#p0385ad3ece)" d="M 161.213221 324.171498 
C 162.117453 324.171498 162.984772 323.812243 163.62416 323.172854 
C 164.263549 322.533466 164.622804 321.666147 164.622804 320.761915 
C 164.622804 319.857683 164.263549 318.990365 163.62416 318.350976 
C 162.984772 317.711587 162.117453 317.352332 161.213221 317.352332 
C 160.308989 317.352332 159.441671 317.711587 158.802282 318.350976 
C 158.162893 318.990365 157.803638 319.857683 157.803638 320.761915 
C 157.803638 321.666147 158.162893 322.533466 158.802282 323.172854 
C 159.441671 323.812243 160.308989 324.171498 161.213221 324.171498 
z
" style="fill:#fff7f2;stroke:#fff7f2;"/>
    <path clip-path="url(#p0385ad3ece)" d="M 164.265299 316.190002 
C 165.229472 316.190002 166.154285 315.806933 166.836058 315.125159 
C 167.517831 314.443386 167.900901 313.518574 167.900901 312.554401 
C 167.900901 311.590228 167.517831 310.665416 166.836058 309.983642 
C 166.154285 309.301869 165.229472 308.918799 164.265299 308.918799 
C 163.301126 308.918799 162.376314 309.301869 161.694541 309.983642 
C 161.012768 310.665416 160.629698 311.590228 160.629698 312.554401 
C 160.629698 313.518574 161.012768 314.443386 161.694541 315.125159 
C 162.376314 315.806933 163.301126 316.190002 164.265299 316.190002 
z
" style="fill:#fdf9fb;stroke:#fdf9fb;"/>
    <path clip-path="url(#p0385ad3ece)" d="M 166.667624 310.928424 
C 167.677818 310.928424 168.646774 310.527069 169.361089 309.812754 
C 170.075404 309.098439 170.476758 308.129484 170.476758 307.119289 
C 170.476758 306.109095 170.075404 305.14014 169.361089 304.425825 
C 168.646774 303.71151 167.677818 303.310155 166.667624 303.310155 
C 165.65743 303.310155 164.688475 303.71151 163.97416 304.425825 
C 163.259844 305.14014 162.85849 306.109095 162.85849 307.119289 
C 162.85849 308.129484 163.259844 309.098439 163.97416 309.812754 
C 164.688475 310.527069 165.65743 310.928424 166.667624 310.928424 
z
" style="fill:#f8f6ff;stroke:#f8f6ff;"/>
    <path clip-path="url(#p0385ad3ece)" d="M 169.599159 305.391837 
C 170.6594 305.391837 171.67636 304.970598 172.426064 304.220894 
C 173.175768 303.47119 173.597006 302.454231 173.597006 301.393989 
C 173.597006 300.333747 173.175768 299.316788 172.426064 298.567084 
C 171.67636 297.81738 170.6594 297.396141 169.599159 297.396141 
C 168.538917 297.396141 167.521958 297.81738 166.772254 298.567084 
C 166.02255 299.316788 165.601311 300.333747 165.601311 301.393989 
C 165.601311 302.454231 166.02255 303.47119 166.772254 304.220894 
C 167.521958 304.970598 168.538917 305.391837 169.599159 305.391837 
z
" style="fill:#f0f0ff;stroke:#f0f0ff;"/>
    <path clip-path="url(#p0385ad3ece)" d="M 174.194134 299.67935 
C 175.307864 299.67935 176.376128 299.236861 177.163654 298.449335 
C 177.95118 297.661809 178.393669 296.593545 178.393669 295.479815 
C 178.393669 294.366085 177.95118 293.297821 177.163654 292.510295 
C 176.376128 291.722769 175.307864 291.28028 174.194134 291.28028 
C 173.080404 291.28028 172.01214 291.722769 171.224614 292.510295 
C 170.437088 293.297821 169.994599 294.366085 169.994599 295.479815 
C 169.994599 296.593545 170.437088 297.661809 171.224614 298.449335 
C 172.01214 299.236861 173.080404 299.67935 174.194134 299.67935 
z
" style="fill:#e4e8ff;stroke:#e4e8ff;"/>
    <path clip-path="url(#p0385ad3ece)" d="M 179.958582 293.870298 
C 181.128162 293.870298 182.249996 293.405619 183.077014 292.578601 
C 183.904032 291.751583 184.368711 290.629749 184.368711 289.460169 
C 184.368711 288.29059 183.904032 287.168755 183.077014 286.341737 
C 182.249996 285.51472 181.128162 285.050041 179.958582 285.050041 
C 178.789003 285.050041 177.667168 285.51472 176.84015 286.341737 
C 176.013133 287.168755 175.548454 288.29059 175.548454 289.460169 
C 175.548454 290.629749 176.013133 291.751583 176.84015 292.578601 
C 177.667168 293.405619 178.789003 293.870298 179.958582 293.870298 
z
" style="fill:#d5dfff;stroke:#d5dfff;"/>
    <path clip-path="url(#p0385ad3ece)" d="M 185.320045 288.537159 
C 186.540874 288.537159 187.711865 288.052119 188.575122 287.188862 
C 189.438378 286.325606 189.923419 285.154614 189.923419 283.933785 
C 189.923419 282.712956 189.438378 281.541965 188.575122 280.678708 
C 187.711865 279.815452 186.540874 279.330411 185.320045 279.330411 
C 184.099216 279.330411 182.928224 279.815452 182.064968 280.678708 
C 181.201711 281.541965 180.716671 282.712956 180.716671 283.933785 
C 180.716671 285.154614 181.201711 286.325606 182.064968 287.188862 
C 182.928224 288.052119 184.099216 288.537159 185.320045 288.537159 
z
" style="fill:#c8d6ff;stroke:#c8d6ff;"/>
    <path clip-path="url(#p0385ad3ece)" d="M 191.07824 283.137562 
C 192.352563 283.137562 193.574866 282.631268 194.475949 281.730185 
C 195.377032 280.829102 195.883326 279.606799 195.883326 278.332476 
C 195.883326 277.058152 195.377032 275.835849 194.475949 274.934766 
C 193.574866 274.033683 192.352563 273.527389 191.07824 273.527389 
C 189.803916 273.527389 188.581613 274.033683 187.68053 274.934766 
C 186.779447 275.835849 186.273153 277.058152 186.273153 278.332476 
C 186.273153 279.606799 186.779447 280.829102 187.68053 281.730185 
C 188.581613 282.631268 189.803916 283.137562 191.07824 283.137562 
z
" style="fill:#bed0ff;stroke:#bed0ff;"/>
    <path clip-path="url(#p0385ad3ece)" d="M 203.461316 271.947831 
C 204.850565 271.947831 206.1831 271.395877 207.165447 270.41353 
C 208.147794 269.431183 208.699748 268.098648 208.699748 266.7094 
C 208.699748 265.320152 208.147794 263.987616 207.165447 263.005269 
C 206.1831 262.022923 204.850565 261.470968 203.461316 261.470968 
C 202.072068 261.470968 200.739533 262.022923 199.757186 263.005269 
C 198.774839 263.987616 198.222885 265.320152 198.222885 266.7094 
C 198.222885 268.098648 198.774839 269.431183 199.757186 270.41353 
C 200.739533 271.395877 202.072068 271.947831 203.461316 271.947831 
z
" style="fill:#b9cbff;stroke:#b9cbff;"/>
    <path clip-path="url(#p0385ad3ece)" d="M 225.28757 252.91803 
C 226.886317 252.91803 228.419799 252.282841 229.550284 251.152356 
C 230.680769 250.02187 231.315959 248.488388 231.315959 246.889641 
C 231.315959 245.290893 230.680769 243.757411 229.550284 242.626926 
C 228.419799 241.496441 226.886317 240.861252 225.28757 240.861252 
C 223.688822 240.861252 222.15534 241.496441 221.024855 242.626926 
C 219.89437 243.757411 219.259181 245.290893 219.259181 246.889641 
C 219.259181 248.488388 219.89437 250.02187 221.024855 251.152356 
C 222.15534 252.282841 223.688822 252.91803 225.28757 252.91803 
z
" style="fill:#b7c9ff;stroke:#b7c9ff;"/>
    <path clip-path="url(#p0385ad3ece)" d="M 250.752511 232.926954 
C 252.596061 232.926954 254.364352 232.194504 255.667938 230.890918 
C 256.971525 229.587331 257.703975 227.81904 257.703975 225.97549 
C 257.703975 224.131941 256.971525 222.36365 255.667938 221.060063 
C 254.364352 219.756477 252.596061 219.024027 250.752511 219.024027 
C 248.908961 219.024027 247.140671 219.756477 245.837084 221.060063 
C 244.533498 222.36365 243.801048 224.131941 243.801048 225.97549 
C 243.801048 227.81904 244.533498 229.587331 245.837084 230.890918 
C 247.140671 232.194504 248.908961 232.926954 250.752511 232.926954 
z
" style="fill:#b3c7ff;stroke:#b3c7ff;"/>
    <path clip-path="url(#p0385ad3ece)" d="M 272.355634 217.749527 
C 274.402219 217.749527 276.365257 216.93641 277.812412 215.489256 
C 279.259566 214.042101 280.072683 212.079063 280.072683 210.032478 
C 280.072683 207.985892 279.259566 206.022854 277.812412 204.575699 
C 276.365257 203.128545 274.402219 202.315428 272.355634 202.315428 
C 270.309048 202.315428 268.34601 203.128545 266.898856 204.575699 
C 265.451701 206.022854 264.638584 207.985892 264.638584 210.032478 
C 264.638584 212.079063 265.451701 214.042101 266.898856 215.489256 
C 268.34601 216.93641 270.309048 217.749527 272.355634 217.749527 
z
" style="fill:#b0c4ff;stroke:#b0c4ff;"/>
    <path clip-path="url(#p0385ad3ece)" d="M 291.198168 205.541529 
C 293.424833 205.541529 295.5606 204.656866 297.135089 203.082376 
C 298.709579 201.507886 299.594243 199.37212 299.594243 197.145455 
C 299.594243 194.91879 298.709579 192.783024 297.135089 191.208534 
C 295.5606 189.634044 293.424833 188.749381 291.198168 188.749381 
C 288.971503 188.749381 286.835737 189.634044 285.261247 191.208534 
C 283.686757 192.783024 282.802094 194.91879 282.802094 197.145455 
C 282.802094 199.37212 283.686757 201.507886 285.261247 203.082376 
C 286.835737 204.656866 288.971503 205.541529 291.198168 205.541529 
z
" style="fill:#adc1ff;stroke:#adc1ff;"/>
    <path clip-path="url(#p0385ad3ece)" d="M 307.534925 195.320589 
C 309.919466 195.320589 312.206664 194.3732 313.89279 192.687075 
C 315.578915 191.000949 316.526304 188.713752 316.526304 186.32921 
C 316.526304 183.944668 315.578915 181.657471 313.89279 179.971345 
C 312.206664 178.28522 309.919466 177.337831 307.534925 177.337831 
C 305.150383 177.337831 302.863185 178.28522 301.17706 179.971345 
C 299.490934 181.657471 298.543546 183.944668 298.543546 186.32921 
C 298.543546 188.713752 299.490934 191.000949 301.17706 192.687075 
C 302.863185 194.3732 305.150383 195.320589 307.534925 195.320589 
z
" style="fill:#aabfff;stroke:#aabfff;"/>
    <path clip-path="url(#p0385ad3ece)" d="M 322.335777 186.549151 
C 324.863793 186.549151 327.288608 185.544759 329.076186 183.757182 
C 330.863763 181.969604 331.868155 179.544789 331.868155 177.016773 
C 331.868155 174.488756 330.863763 172.063941 329.076186 170.276363 
C 327.288608 168.488786 324.863793 167.484394 322.335777 167.484394 
C 319.80776 167.484394 317.382945 168.488786 315.595367 170.276363 
C 313.80779 172.063941 312.803398 174.488756 312.803398 177.016773 
C 312.803398 179.544789 313.80779 181.969604 315.595367 183.757182 
C 317.382945 185.544759 319.80776 186.549151 322.335777 186.549151 
z
" style="fill:#a8bdff;stroke:#a8bdff;"/>
    <path clip-path="url(#p0385ad3ece)" d="M 335.590456 178.856879 
C 338.248302 178.856879 340.797647 177.800906 342.677028 175.921525 
C 344.556409 174.042144 345.612383 171.492798 345.612383 168.834952 
C 345.612383 166.177106 344.556409 163.627761 342.677028 161.74838 
C 340.797647 159.868999 338.248302 158.813026 335.590456 158.813026 
C 332.93261 158.813026 330.383264 159.868999 328.503883 161.74838 
C 326.624502 163.627761 325.568529 166.177106 325.568529 168.834952 
C 325.568529 171.492798 326.624502 174.042144 328.503883 175.921525 
C 330.383264 177.800906 332.93261 178.856879 335.590456 178.856879 
z
" style="fill:#a7bcff;stroke:#a7bcff;"/>
    <path clip-path="url(#p0385ad3ece)" d="M 347.995678 172.038519 
C 350.777183 172.038519 353.445139 170.933415 355.41196 168.966594 
C 357.378781 166.999773 358.483885 164.331817 358.483885 161.550312 
C 358.483885 158.768807 357.378781 156.100851 355.41196 154.13403 
C 353.445139 152.167209 350.777183 151.062105 347.995678 151.062105 
C 345.214173 151.062105 342.546217 152.167209 340.579396 154.13403 
C 338.612575 156.100851 337.507471 158.768807 337.507471 161.550312 
C 337.507471 164.331817 338.612575 166.999773 340.579396 168.966594 
C 342.546217 170.933415 345.214173 172.038519 347.995678 172.038519 
z
" style="fill:#a6bcff;stroke:#a6bcff;"/>
    <path clip-path="url(#p0385ad3ece)" d="M 359.330078 165.901812 
C 362.223454 165.901812 364.998715 164.752262 367.04464 162.706336 
C 369.090566 160.660411 370.240116 157.88515 370.240116 154.991774 
C 370.240116 152.098398 369.090566 149.323138 367.04464 147.277213 
C 364.998715 145.231287 362.223454 144.081736 359.330078 144.081736 
C 356.436702 144.081736 353.661442 145.231287 351.615517 147.277213 
C 349.569591 149.323138 348.42004 152.098398 348.42004 154.991774 
C 348.42004 157.88515 349.569591 160.660411 351.615517 162.706336 
C 353.661442 164.752262 356.436702 165.901812 359.330078 165.901812 
z
" style="fill:#a6bbff;stroke:#a6bbff;"/>
    <path clip-path="url(#p0385ad3ece)" d="M 369.383471 160.3403 
C 372.381977 160.3403 375.258075 159.148981 377.378339 157.028718 
C 379.498603 154.908454 380.689922 152.032355 380.689922 149.033849 
C 380.689922 146.035344 379.498603 143.159245 377.378339 141.038981 
C 375.258075 138.918718 372.381977 137.727399 369.383471 137.727399 
C 366.384965 137.727399 363.508867 138.918718 361.388603 141.038981 
C 359.268339 143.159245 358.07702 146.035344 358.07702 149.033849 
C 358.07702 152.032355 359.268339 154.908454 361.388603 157.028718 
C 363.508867 159.148981 366.384965 160.3403 369.383471 160.3403 
z
" style="fill:#a5bbff;stroke:#a5bbff;"/>
    <path clip-path="url(#p0385ad3ece)" d="M 378.586689 155.252006 
C 381.685213 155.252006 384.657247 154.020949 386.848234 151.829962 
C 389.039221 149.638975 390.270278 146.666941 390.270278 143.568417 
C 390.270278 140.469893 389.039221 137.497859 386.848234 135.306872 
C 384.657247 133.115885 381.685213 131.884828 378.586689 131.884828 
C 375.488165 131.884828 372.516131 133.115885 370.325144 135.306872 
C 368.134157 137.497859 366.9031 140.469893 366.9031 143.568417 
C 366.9031 146.666941 368.134157 149.638975 370.325144 151.829962 
C 372.516131 154.020949 375.488165 155.252006 378.586689 155.252006 
z
" style="fill:#a4baff;stroke:#a4baff;"/>
    <path clip-path="url(#p0385ad3ece)" d="M 386.824092 150.529815 
C 390.012176 150.529815 393.070115 149.263175 395.324431 147.008859 
C 397.578748 144.754542 398.845387 141.696604 398.845387 138.508519 
C 398.845387 135.320434 397.578748 132.262496 395.324431 130.00818 
C 393.070115 127.753863 390.012176 126.487224 386.824092 126.487224 
C 383.636007 126.487224 380.578068 127.753863 378.323752 130.00818 
C 376.069436 132.262496 374.802796 135.320434 374.802796 138.508519 
C 374.802796 141.696604 376.069436 144.754542 378.323752 147.008859 
C 380.578068 149.263175 383.636007 150.529815 386.824092 150.529815 
z
" style="fill:#a4baff;stroke:#a4baff;"/>
    <path clip-path="url(#p0385ad3ece)" d="M 394.649902 146.156815 
C 397.924476 146.156815 401.065373 144.855813 403.380847 142.540339 
C 405.696321 140.224866 406.997323 137.083969 406.997323 133.809394 
C 406.997323 130.53482 405.696321 127.393923 403.380847 125.07845 
C 401.065373 122.762976 397.924476 121.461974 394.649902 121.461974 
C 391.375328 121.461974 388.234431 122.762976 385.918957 125.07845 
C 383.603484 127.393923 382.302481 130.53482 382.302481 133.809394 
C 382.302481 137.083969 383.603484 140.224866 385.918957 142.540339 
C 388.234431 144.855813 391.375328 146.156815 394.649902 146.156815 
z
" style="fill:#a3baff;stroke:#a3baff;"/>
    <path clip-path="url(#p0385ad3ece)" d="M 402.016069 142.091264 
C 405.374643 142.091264 408.596111 140.756888 410.970981 138.382018 
C 413.345851 136.007148 414.680226 132.78568 414.680226 129.427107 
C 414.680226 126.068533 413.345851 122.847066 410.970981 120.472196 
C 408.596111 118.097325 405.374643 116.76295 402.016069 116.76295 
C 398.657496 116.76295 395.436028 118.097325 393.061158 120.472196 
C 390.686288 122.847066 389.351913 126.068533 389.351913 129.427107 
C 389.351913 132.78568 390.686288 136.007148 393.061158 138.382018 
C 395.436028 140.756888 398.657496 142.091264 402.016069 142.091264 
z
" style="fill:#a3b9ff;stroke:#a3b9ff;"/>
    <path clip-path="url(#p0385ad3ece)" d="M 408.876134 138.289254 
C 412.315908 138.289254 415.61526 136.922618 418.047548 134.490331 
C 420.479835 132.058044 421.846471 128.758691 421.846471 125.318918 
C 421.846471 121.879144 420.479835 118.579792 418.047548 116.147504 
C 415.61526 113.715217 412.315908 112.348581 408.876134 112.348581 
C 405.436361 112.348581 402.137008 113.715217 399.704721 116.147504 
C 397.272434 118.579792 395.905797 121.879144 395.905797 125.318918 
C 395.905797 128.758691 397.272434 132.058044 399.704721 134.490331 
C 402.137008 136.922618 405.436361 138.289254 408.876134 138.289254 
z
" style="fill:#a2b9ff;stroke:#a2b9ff;"/>
    <path clip-path="url(#p0385ad3ece)" d="M 414.479138 134.759625 
C 417.99195 134.759625 421.361359 133.36397 423.845291 130.880037 
C 426.329224 128.396104 427.724879 125.026695 427.724879 121.513884 
C 427.724879 118.001072 426.329224 114.631664 423.845291 112.147731 
C 421.361359 109.663798 417.99195 108.268143 414.479138 108.268143 
C 410.966327 108.268143 407.596918 109.663798 405.112985 112.147731 
C 402.629052 114.631664 401.233397 118.001072 401.233397 121.513884 
C 401.233397 125.026695 402.629052 128.396104 405.112985 130.880037 
C 407.596918 133.36397 410.966327 134.759625 414.479138 134.759625 
z
" style="fill:#a2b9ff;stroke:#a2b9ff;"/>
    <path clip-path="url(#p0385ad3ece)" d="M 419.46722 131.44387 
C 423.049462 131.44387 426.485467 130.02063 429.018494 127.487603 
C 431.551521 124.954575 432.974761 121.518571 432.974761 117.936329 
C 432.974761 114.354087 431.551521 110.918083 429.018494 108.385055 
C 426.485467 105.852028 423.049462 104.428788 419.46722 104.428788 
C 415.884979 104.428788 412.448974 105.852028 409.915947 108.385055 
C 407.382919 110.918083 405.95968 114.354087 405.95968 117.936329 
C 405.95968 121.518571 407.382919 124.954575 409.915947 127.487603 
C 412.448974 130.02063 415.884979 131.44387 419.46722 131.44387 
z
" style="fill:#a2b9ff;stroke:#a2b9ff;"/>
    <path clip-path="url(#p0385ad3ece)" d="M 424.536292 128.325772 
C 428.187233 128.325772 431.689133 126.875238 434.270738 124.293632 
C 436.852344 121.712027 438.302878 118.210127 438.302878 114.559186 
C 438.302878 110.908244 436.852344 107.406345 434.270738 104.824739 
C 431.689133 102.243134 428.187233 100.792599 424.536292 100.792599 
C 420.88535 100.792599 417.383451 102.243134 414.801845 104.824739 
C 412.22024 107.406345 410.769705 110.908244 410.769705 114.559186 
C 410.769705 118.210127 412.22024 121.712027 414.801845 124.293632 
C 417.383451 126.875238 420.88535 128.325772 424.536292 128.325772 
z
" style="fill:#a1b8ff;stroke:#a1b8ff;"/>
    <path clip-path="url(#p0385ad3ece)" d="M 428.946816 125.383588 
C 432.664563 125.383588 436.230541 123.906511 438.859385 121.277667 
C 441.488229 118.648823 442.965305 115.082845 442.965305 111.365098 
C 442.965305 107.647351 441.488229 104.081373 438.859385 101.452529 
C 436.230541 98.823684 432.664563 97.346608 428.946816 97.346608 
C 425.229069 97.346608 421.663091 98.823684 419.034246 101.452529 
C 416.405402 104.081373 414.928326 107.647351 414.928326 111.365098 
C 414.928326 115.082845 416.405402 118.648823 419.034246 121.277667 
C 421.663091 123.906511 425.229069 125.383588 428.946816 125.383588 
z
" style="fill:#a1b8ff;stroke:#a1b8ff;"/>
   </g>
   <g id="PathCollection_2">
    <path clip-path="url(#p0385ad3ece)" d="M 118.686855 483.330811 
C 118.917925 483.330811 119.139562 483.239006 119.302954 483.075614 
C 119.466345 482.912223 119.55815 482.690586 119.55815 482.459516 
C 119.55815 482.228445 119.466345 482.006808 119.302954 481.843417 
C 119.139562 481.680025 118.917925 481.58822 118.686855 481.58822 
C 118.455785 481.58822 118.234147 481.680025 118.070756 481.843417 
C 117.907365 482.006808 117.81556 482.228445 117.81556 482.459516 
C 117.81556 482.690586 117.907365 482.912223 118.070756 483.075614 
C 118.234147 483.239006 118.455785 483.330811 118.686855 483.330811 
z
" style="fill:#9b3921;stroke:#9b3921;"/>
    <path clip-path="url(#p0385ad3ece)" d="M 119.001713 480.488182 
C 119.238417 480.488182 119.465458 480.394138 119.632833 480.226763 
C 119.800208 480.059388 119.894252 479.832347 119.894252 479.595643 
C 119.894252 479.358939 119.800208 479.131897 119.632833 478.964522 
C 119.465458 478.797147 119.238417 478.703104 119.001713 478.703104 
C 118.765009 478.703104 118.537967 478.797147 118.370592 478.964522 
C 118.203217 479.131897 118.109174 479.358939 118.109174 479.595643 
C 118.109174 479.832347 118.203217 480.059388 118.370592 480.226763 
C 118.537967 480.394138 118.765009 480.488182 119.001713 480.488182 
z
" style="fill:#9f3b22;stroke:#9f3b22;"/>
    <path clip-path="url(#p0385ad3ece)" d="M 119.325429 477.646071 
C 119.567905 477.646071 119.800482 477.549735 119.971938 477.378279 
C 120.143394 477.206822 120.23973 476.974246 120.23973 476.73177 
C 120.23973 476.489295 120.143394 476.256718 119.971938 476.085262 
C 119.800482 475.913806 119.567905 475.817469 119.325429 475.817469 
C 119.082954 475.817469 118.850377 475.913806 118.678921 476.085262 
C 118.507465 476.256718 118.411128 476.489295 118.411128 476.73177 
C 118.411128 476.974246 118.507465 477.206822 118.678921 477.378279 
C 118.850377 477.549735 119.082954 477.646071 119.325429 477.646071 
z
" style="fill:#a43d24;stroke:#a43d24;"/>
    <path clip-path="url(#p0385ad3ece)" d="M 119.658253 474.804491 
C 119.906641 474.804491 120.144888 474.705805 120.320525 474.530169 
C 120.496161 474.354532 120.594847 474.116285 120.594847 473.867897 
C 120.594847 473.61951 120.496161 473.381262 120.320525 473.205626 
C 120.144888 473.029989 119.906641 472.931304 119.658253 472.931304 
C 119.409866 472.931304 119.171618 473.029989 118.995981 473.205626 
C 118.820345 473.381262 118.72166 473.61951 118.72166 473.867897 
C 118.72166 474.116285 118.820345 474.354532 118.995981 474.530169 
C 119.171618 474.705805 119.409866 474.804491 119.658253 474.804491 
z
" style="fill:#a94025;stroke:#a94025;"/>
    <path clip-path="url(#p0385ad3ece)" d="M 120.000441 471.963454 
C 120.254885 471.963454 120.498941 471.862363 120.67886 471.682444 
C 120.858779 471.502525 120.959871 471.258468 120.959871 471.004025 
C 120.959871 470.749581 120.858779 470.505524 120.67886 470.325606 
C 120.498941 470.145687 120.254885 470.044595 120.000441 470.044595 
C 119.745997 470.044595 119.501941 470.145687 119.322022 470.325606 
C 119.142103 470.505524 119.041012 470.749581 119.041012 471.004025 
C 119.041012 471.258468 119.142103 471.502525 119.322022 471.682444 
C 119.501941 471.862363 119.745997 471.963454 120.000441 471.963454 
z
" style="fill:#ae4227;stroke:#ae4227;"/>
    <path clip-path="url(#p0385ad3ece)" d="M 120.352256 469.122974 
C 120.612904 469.122974 120.862911 469.019418 121.047217 468.835112 
C 121.231522 468.650807 121.335079 468.400799 121.335079 468.140152 
C 121.335079 467.879504 121.231522 467.629497 121.047217 467.445192 
C 120.862911 467.260886 120.612904 467.15733 120.352256 467.15733 
C 120.091609 467.15733 119.841602 467.260886 119.657296 467.445192 
C 119.47299 467.629497 119.369434 467.879504 119.369434 468.140152 
C 119.369434 468.400799 119.47299 468.650807 119.657296 468.835112 
C 119.841602 469.019418 120.091609 469.122974 120.352256 469.122974 
z
" style="fill:#b34528;stroke:#b34528;"/>
    <path clip-path="url(#p0385ad3ece)" d="M 120.71397 466.283065 
C 120.980973 466.283065 121.237075 466.176983 121.425875 465.988184 
C 121.614674 465.799385 121.720755 465.543282 121.720755 465.276279 
C 121.720755 465.009277 121.614674 464.753174 121.425875 464.564374 
C 121.237075 464.375575 120.980973 464.269494 120.71397 464.269494 
C 120.446967 464.269494 120.190864 464.375575 120.002065 464.564374 
C 119.813266 464.753174 119.707184 465.009277 119.707184 465.276279 
C 119.707184 465.543282 119.813266 465.799385 120.002065 465.988184 
C 120.190864 466.176983 120.446967 466.283065 120.71397 466.283065 
z
" style="fill:#b8472a;stroke:#b8472a;"/>
    <path clip-path="url(#p0385ad3ece)" d="M 121.08586 463.443739 
C 121.359373 463.443739 121.62172 463.335071 121.815123 463.141669 
C 122.008525 462.948266 122.117193 462.685919 122.117193 462.412406 
C 122.117193 462.138894 122.008525 461.876547 121.815123 461.683144 
C 121.62172 461.489741 121.359373 461.381074 121.08586 461.381074 
C 120.812348 461.381074 120.55 461.489741 120.356598 461.683144 
C 120.163195 461.876547 120.054527 462.138894 120.054527 462.412406 
C 120.054527 462.685919 120.163195 462.948266 120.356598 463.141669 
C 120.55 463.335071 120.812348 463.443739 121.08586 463.443739 
z
" style="fill:#be4a2b;stroke:#be4a2b;"/>
    <path clip-path="url(#p0385ad3ece)" d="M 121.468214 460.605012 
C 121.748395 460.605012 122.017139 460.493695 122.215257 460.295577 
C 122.413375 460.097459 122.524692 459.828715 122.524692 459.548534 
C 122.524692 459.268352 122.413375 458.999609 122.215257 458.80149 
C 122.017139 458.603372 121.748395 458.492055 121.468214 458.492055 
C 121.188032 458.492055 120.919288 458.603372 120.72117 458.80149 
C 120.523052 458.999609 120.411735 459.268352 120.411735 459.548534 
C 120.411735 459.828715 120.523052 460.097459 120.72117 460.295577 
C 120.919288 460.493695 121.188032 460.605012 121.468214 460.605012 
z
" style="fill:#c34d2d;stroke:#c34d2d;"/>
    <path clip-path="url(#p0385ad3ece)" d="M 121.861324 457.766899 
C 122.148337 457.766899 122.423633 457.652867 122.626582 457.449919 
C 122.829531 457.24697 122.943562 456.971674 122.943562 456.684661 
C 122.943562 456.397648 122.829531 456.122352 122.626582 455.919403 
C 122.423633 455.716454 122.148337 455.602423 121.861324 455.602423 
C 121.574312 455.602423 121.299015 455.716454 121.096067 455.919403 
C 120.893118 456.122352 120.779087 456.397648 120.779087 456.684661 
C 120.779087 456.971674 120.893118 457.24697 121.096067 457.449919 
C 121.299015 457.652867 121.574312 457.766899 121.861324 457.766899 
z
" style="fill:#ca502f;stroke:#ca502f;"/>
    <path clip-path="url(#p0385ad3ece)" d="M 122.265495 454.929413 
C 122.559506 454.929413 122.841514 454.812601 123.049411 454.604704 
C 123.257308 454.396807 123.37412 454.114799 123.37412 453.820788 
C 123.37412 453.526777 123.257308 453.244769 123.049411 453.036872 
C 122.841514 452.828975 122.559506 452.712163 122.265495 452.712163 
C 121.971484 452.712163 121.689476 452.828975 121.481579 453.036872 
C 121.273682 453.244769 121.15687 453.526777 121.15687 453.820788 
C 121.15687 454.114799 121.273682 454.396807 121.481579 454.604704 
C 121.689476 454.812601 121.971484 454.929413 122.265495 454.929413 
z
" style="fill:#d05331;stroke:#d05331;"/>
    <path clip-path="url(#p0385ad3ece)" d="M 122.681037 452.092571 
C 122.982217 452.092571 123.271101 451.972911 123.484067 451.759945 
C 123.697033 451.546979 123.816693 451.258095 123.816693 450.956915 
C 123.816693 450.655736 123.697033 450.366852 123.484067 450.153886 
C 123.271101 449.94092 122.982217 449.82126 122.681037 449.82126 
C 122.379858 449.82126 122.090974 449.94092 121.878008 450.153886 
C 121.665042 450.366852 121.545382 450.655736 121.545382 450.956915 
C 121.545382 451.258095 121.665042 451.546979 121.878008 451.759945 
C 122.090974 451.972911 122.379858 452.092571 122.681037 452.092571 
z
" style="fill:#d65733;stroke:#d65733;"/>
    <path clip-path="url(#p0385ad3ece)" d="M 123.108271 449.256388 
C 123.416793 449.256388 123.712721 449.13381 123.93088 448.915652 
C 124.149038 448.697493 124.271616 448.401565 124.271616 448.093043 
C 124.271616 447.78452 124.149038 447.488592 123.93088 447.270434 
C 123.712721 447.052275 123.416793 446.929698 123.108271 446.929698 
C 122.799748 446.929698 122.50382 447.052275 122.285662 447.270434 
C 122.067503 447.488592 121.944926 447.78452 121.944926 448.093043 
C 121.944926 448.401565 122.067503 448.697493 122.285662 448.915652 
C 122.50382 449.13381 122.799748 449.256388 123.108271 449.256388 
z
" style="fill:#dd5a35;stroke:#dd5a35;"/>
    <path clip-path="url(#p0385ad3ece)" d="M 123.547524 446.42088 
C 123.863569 446.42088 124.166713 446.295313 124.39019 446.071836 
C 124.613668 445.848358 124.739234 445.545215 124.739234 445.22917 
C 124.739234 444.913125 124.613668 444.609982 124.39019 444.386504 
C 124.166713 444.163026 123.863569 444.03746 123.547524 444.03746 
C 123.231479 444.03746 122.928336 444.163026 122.704858 444.386504 
C 122.481381 444.609982 122.355815 444.913125 122.355815 445.22917 
C 122.355815 445.545215 122.481381 445.848358 122.704858 446.071836 
C 122.928336 446.295313 123.231479 446.42088 123.547524 446.42088 
z
" style="fill:#e55e37;stroke:#e55e37;"/>
    <path clip-path="url(#p0385ad3ece)" d="M 123.999136 443.586063 
C 124.322887 443.586063 124.633421 443.457435 124.862348 443.228509 
C 125.091274 442.999583 125.219902 442.689048 125.219902 442.365297 
C 125.219902 442.041546 125.091274 441.731012 124.862348 441.502085 
C 124.633421 441.273159 124.322887 441.144531 123.999136 441.144531 
C 123.675385 441.144531 123.364851 441.273159 123.135924 441.502085 
C 122.906998 441.731012 122.77837 442.041546 122.77837 442.365297 
C 122.77837 442.689048 122.906998 442.999583 123.135924 443.228509 
C 123.364851 443.457435 123.675385 443.586063 123.999136 443.586063 
z
" style="fill:#ec6239;stroke:#ec6239;"/>
    <path clip-path="url(#p0385ad3ece)" d="M 124.463454 440.751955 
C 124.795098 440.751955 125.113204 440.620191 125.347712 440.385683 
C 125.582221 440.151175 125.713984 439.833069 125.713984 439.501424 
C 125.713984 439.16978 125.582221 438.851674 125.347712 438.617166 
C 125.113204 438.382658 124.795098 438.250894 124.463454 438.250894 
C 124.131809 438.250894 123.813703 438.382658 123.579195 438.617166 
C 123.344687 438.851674 123.212923 439.16978 123.212923 439.501424 
C 123.212923 439.833069 123.344687 440.151175 123.579195 440.385683 
C 123.813703 440.620191 124.131809 440.751955 124.463454 440.751955 
z
" style="fill:#f4653c;stroke:#f4653c;"/>
    <path clip-path="url(#p0385ad3ece)" d="M 124.940835 437.918573 
C 125.280566 437.918573 125.606428 437.783596 125.846654 437.54337 
C 126.08688 437.303144 126.221856 436.977282 126.221856 436.637552 
C 126.221856 436.297821 126.08688 435.971959 125.846654 435.731733 
C 125.606428 435.491507 125.280566 435.356531 124.940835 435.356531 
C 124.601104 435.356531 124.275242 435.491507 124.035017 435.731733 
C 123.794791 435.971959 123.659814 436.297821 123.659814 436.637552 
C 123.659814 436.977282 123.794791 437.303144 124.035017 437.54337 
C 124.275242 437.783596 124.601104 437.918573 124.940835 437.918573 
z
" style="fill:#fc6a3e;stroke:#fc6a3e;"/>
    <path clip-path="url(#p0385ad3ece)" d="M 125.431647 435.085934 
C 125.779661 435.085934 126.113469 434.947666 126.359552 434.701583 
C 126.605635 434.4555 126.743902 434.121693 126.743902 433.773679 
C 126.743902 433.425665 126.605635 433.091858 126.359552 432.845775 
C 126.113469 432.599692 125.779661 432.461424 125.431647 432.461424 
C 125.083633 432.461424 124.749826 432.599692 124.503743 432.845775 
C 124.25766 433.091858 124.119393 433.425665 124.119393 433.773679 
C 124.119393 434.121693 124.25766 434.4555 124.503743 434.701583 
C 124.749826 434.947666 125.083633 435.085934 125.431647 435.085934 
z
" style="fill:#ff6f42;stroke:#ff6f42;"/>
    <path clip-path="url(#p0385ad3ece)" d="M 125.936269 432.254056 
C 126.292768 432.254056 126.634714 432.112418 126.886797 431.860335 
C 127.13888 431.608252 127.280519 431.266306 127.280519 430.909806 
C 127.280519 430.553307 127.13888 430.211361 126.886797 429.959278 
C 126.634714 429.707195 126.292768 429.565556 125.936269 429.565556 
C 125.579769 429.565556 125.237823 429.707195 124.98574 429.959278 
C 124.733657 430.211361 124.592018 430.553307 124.592018 430.909806 
C 124.592018 431.266306 124.733657 431.608252 124.98574 431.860335 
C 125.237823 432.112418 125.579769 432.254056 125.936269 432.254056 
z
" style="fill:#ff7546;stroke:#ff7546;"/>
    <path clip-path="url(#p0385ad3ece)" d="M 126.455087 429.422959 
C 126.820279 429.422959 127.170562 429.277867 127.428791 429.019638 
C 127.687021 428.761408 127.832113 428.411125 127.832113 428.045934 
C 127.832113 427.680742 127.687021 427.330459 127.428791 427.072229 
C 127.170562 426.814 126.820279 426.668908 126.455087 426.668908 
C 126.089896 426.668908 125.739612 426.814 125.481383 427.072229 
C 125.223154 427.330459 125.078062 427.680742 125.078062 428.045934 
C 125.078062 428.411125 125.223154 428.761408 125.481383 429.019638 
C 125.739612 429.277867 126.089896 429.422959 126.455087 429.422959 
z
" style="fill:#ff7c4b;stroke:#ff7c4b;"/>
    <path clip-path="url(#p0385ad3ece)" d="M 126.988503 426.592661 
C 127.362598 426.592661 127.721422 426.444031 127.985948 426.179506 
C 128.250473 425.91498 128.399103 425.556156 128.399103 425.182061 
C 128.399103 424.807965 128.250473 424.449141 127.985948 424.184616 
C 127.721422 423.92009 127.362598 423.771461 126.988503 423.771461 
C 126.614407 423.771461 126.255583 423.92009 125.991058 424.184616 
C 125.726532 424.449141 125.577902 424.807965 125.577902 425.182061 
C 125.577902 425.556156 125.726532 425.91498 125.991058 426.179506 
C 126.255583 426.444031 126.614407 426.592661 126.988503 426.592661 
z
" style="fill:#ff8350;stroke:#ff8350;"/>
    <path clip-path="url(#p0385ad3ece)" d="M 127.536926 423.763181 
C 127.920142 423.763181 128.287715 423.610928 128.55869 423.339953 
C 128.829665 423.068978 128.981919 422.701405 128.981919 422.318188 
C 128.981919 421.934971 128.829665 421.567399 128.55869 421.296423 
C 128.287715 421.025448 127.920142 420.873195 127.536926 420.873195 
C 127.153709 420.873195 126.786136 421.025448 126.515161 421.296423 
C 126.244186 421.567399 126.091932 421.934971 126.091932 422.318188 
C 126.091932 422.701405 126.244186 423.068978 126.515161 423.339953 
C 126.786136 423.610928 127.153709 423.763181 127.536926 423.763181 
z
" style="fill:#ff8a55;stroke:#ff8a55;"/>
    <path clip-path="url(#p0385ad3ece)" d="M 128.100778 420.93454 
C 128.493339 420.93454 128.869874 420.778575 129.147456 420.500993 
C 129.425038 420.223411 129.581004 419.846876 129.581004 419.454315 
C 129.581004 419.061755 129.425038 418.68522 129.147456 418.407638 
C 128.869874 418.130056 128.493339 417.97409 128.100778 417.97409 
C 127.708218 417.97409 127.331683 418.130056 127.054101 418.407638 
C 126.776519 418.68522 126.620553 419.061755 126.620553 419.454315 
C 126.620553 419.846876 126.776519 420.223411 127.054101 420.500993 
C 127.331683 420.778575 127.708218 420.93454 128.100778 420.93454 
z
" style="fill:#ff915a;stroke:#ff915a;"/>
    <path clip-path="url(#p0385ad3ece)" d="M 128.680495 418.106759 
C 129.082627 418.106759 129.468342 417.94699 129.752692 417.66264 
C 130.037043 417.37829 130.196811 416.992574 130.196811 416.590443 
C 130.196811 416.188311 130.037043 415.802595 129.752692 415.518245 
C 129.468342 415.233895 129.082627 415.074127 128.680495 415.074127 
C 128.278363 415.074127 127.892648 415.233895 127.608298 415.518245 
C 127.323948 415.802595 127.164179 416.188311 127.164179 416.590443 
C 127.164179 416.992574 127.323948 417.37829 127.608298 417.66264 
C 127.892648 417.94699 128.278363 418.106759 128.680495 418.106759 
z
" style="fill:#ff9960;stroke:#ff9960;"/>
    <path clip-path="url(#p0385ad3ece)" d="M 129.276522 415.279857 
C 129.688458 415.279857 130.083579 415.116193 130.374862 414.824909 
C 130.666145 414.533626 130.829809 414.138506 130.829809 413.72657 
C 130.829809 413.314633 130.666145 412.919513 130.374862 412.62823 
C 130.083579 412.336947 129.688458 412.173283 129.276522 412.173283 
C 128.864586 412.173283 128.469465 412.336947 128.178182 412.62823 
C 127.886899 412.919513 127.723235 413.314633 127.723235 413.72657 
C 127.723235 414.138506 127.886899 414.533626 128.178182 414.824909 
C 128.469465 415.116193 128.864586 415.279857 129.276522 415.279857 
z
" style="fill:#ffa165;stroke:#ffa165;"/>
    <path clip-path="url(#p0385ad3ece)" d="M 129.889318 412.453856 
C 130.311298 412.453856 130.716052 412.286202 131.014437 411.987816 
C 131.312822 411.689431 131.480477 411.284677 131.480477 410.862697 
C 131.480477 410.440717 131.312822 410.035963 131.014437 409.737578 
C 130.716052 409.439193 130.311298 409.271538 129.889318 409.271538 
C 129.467338 409.271538 129.062584 409.439193 128.764199 409.737578 
C 128.465814 410.035963 128.298159 410.440717 128.298159 410.862697 
C 128.298159 411.284677 128.465814 411.689431 128.764199 411.987816 
C 129.062584 412.286202 129.467338 412.453856 129.889318 412.453856 
z
" style="fill:#ffa96b;stroke:#ffa96b;"/>
    <path clip-path="url(#p0385ad3ece)" d="M 130.519355 409.628779 
C 130.951624 409.628779 131.366246 409.457037 131.671907 409.151376 
C 131.977567 408.845716 132.149309 408.431093 132.149309 407.998824 
C 132.149309 407.566555 131.977567 407.151933 131.671907 406.846272 
C 131.366246 406.540612 130.951624 406.36887 130.519355 406.36887 
C 130.087086 406.36887 129.672463 406.540612 129.366803 406.846272 
C 129.061143 407.151933 128.8894 407.566555 128.8894 407.998824 
C 128.8894 408.431093 129.061143 408.845716 129.366803 409.151376 
C 129.672463 409.457037 130.087086 409.628779 130.519355 409.628779 
z
" style="fill:#ffb171;stroke:#ffb171;"/>
    <path clip-path="url(#p0385ad3ece)" d="M 131.167118 406.804648 
C 131.609926 406.804648 132.034658 406.628718 132.347771 406.315605 
C 132.660884 406.002492 132.836814 405.57776 132.836814 405.134952 
C 132.836814 404.692143 132.660884 404.267411 132.347771 403.954298 
C 132.034658 403.641185 131.609926 403.465255 131.167118 403.465255 
C 130.724309 403.465255 130.299577 403.641185 129.986464 403.954298 
C 129.673351 404.267411 129.497422 404.692143 129.497422 405.134952 
C 129.497422 405.57776 129.673351 406.002492 129.986464 406.315605 
C 130.299577 406.628718 130.724309 406.804648 131.167118 406.804648 
z
" style="fill:#ffb474;stroke:#ffb474;"/>
    <path clip-path="url(#p0385ad3ece)" d="M 131.833105 403.981485 
C 132.28671 403.981485 132.721798 403.801266 133.042545 403.480519 
C 133.363293 403.159772 133.543512 402.724684 133.543512 402.271079 
C 133.543512 401.817474 133.363293 401.382386 133.042545 401.061639 
C 132.721798 400.740891 132.28671 400.560672 131.833105 400.560672 
C 131.3795 400.560672 130.944412 400.740891 130.623665 401.061639 
C 130.302918 401.382386 130.122699 401.817474 130.122699 402.271079 
C 130.122699 402.724684 130.302918 403.159772 130.623665 403.480519 
C 130.944412 403.801266 131.3795 403.981485 131.833105 403.981485 
z
" style="fill:#ffb777;stroke:#ffb777;"/>
    <path clip-path="url(#p0385ad3ece)" d="M 132.51783 401.159316 
C 132.982495 401.159316 133.428191 400.974703 133.756759 400.646135 
C 134.085326 400.317567 134.26994 399.871871 134.26994 399.407206 
C 134.26994 398.942541 134.085326 398.496845 133.756759 398.168277 
C 133.428191 397.83971 132.982495 397.655096 132.51783 397.655096 
C 132.053165 397.655096 131.607469 397.83971 131.278901 398.168277 
C 130.950334 398.496845 130.76572 398.942541 130.76572 399.407206 
C 130.76572 399.871871 130.950334 400.317567 131.278901 400.646135 
C 131.607469 400.974703 132.053165 401.159316 132.51783 401.159316 
z
" style="fill:#ffb979;stroke:#ffb979;"/>
    <path clip-path="url(#p0385ad3ece)" d="M 133.22182 398.338163 
C 133.697814 398.338163 134.154377 398.149048 134.490956 397.81247 
C 134.827535 397.475891 135.016649 397.019328 135.016649 396.543333 
C 135.016649 396.067339 134.827535 395.610776 134.490956 395.274197 
C 134.154377 394.937618 133.697814 394.748504 133.22182 394.748504 
C 132.745825 394.748504 132.289262 394.937618 131.952683 395.274197 
C 131.616105 395.610776 131.42699 396.067339 131.42699 396.543333 
C 131.42699 397.019328 131.616105 397.475891 131.952683 397.81247 
C 132.289262 398.149048 132.745825 398.338163 133.22182 398.338163 
z
" style="fill:#ffbb7b;stroke:#ffbb7b;"/>
    <path clip-path="url(#p0385ad3ece)" d="M 133.945616 395.518052 
C 134.433216 395.518052 134.900911 395.324326 135.245696 394.979541 
C 135.590481 394.634756 135.784207 394.167061 135.784207 393.679461 
C 135.784207 393.191861 135.590481 392.724166 135.245696 392.37938 
C 134.900911 392.034595 134.433216 391.840869 133.945616 391.840869 
C 133.458016 391.840869 132.990321 392.034595 132.645535 392.37938 
C 132.30075 392.724166 132.107025 393.191861 132.107025 393.679461 
C 132.107025 394.167061 132.30075 394.634756 132.645535 394.979541 
C 132.990321 395.324326 133.458016 395.518052 133.945616 395.518052 
z
" style="fill:#ffbb7b;stroke:#ffbb7b;"/>
    <path clip-path="url(#p0385ad3ece)" d="M 134.689776 392.699008 
C 135.189264 392.699008 135.668363 392.500559 136.021554 392.147367 
C 136.374746 391.794175 136.573195 391.315077 136.573195 390.815588 
C 136.573195 390.316099 136.374746 389.837001 136.021554 389.483809 
C 135.668363 389.130617 135.189264 388.932168 134.689776 388.932168 
C 134.190287 388.932168 133.711189 389.130617 133.357997 389.483809 
C 133.004805 389.837001 132.806356 390.316099 132.806356 390.815588 
C 132.806356 391.315077 133.004805 391.794175 133.357997 392.147367 
C 133.711189 392.500559 134.190287 392.699008 134.689776 392.699008 
z
" style="fill:#ffbb7b;stroke:#ffbb7b;"/>
    <path clip-path="url(#p0385ad3ece)" d="M 135.454872 389.881056 
C 135.96654 389.881056 136.457319 389.677769 136.819123 389.315965 
C 137.180926 388.954162 137.384214 388.463382 137.384214 387.951715 
C 137.384214 387.440048 137.180926 386.949268 136.819123 386.587465 
C 136.457319 386.225662 135.96654 386.022374 135.454872 386.022374 
C 134.943205 386.022374 134.452426 386.225662 134.090622 386.587465 
C 133.728819 386.949268 133.525531 387.440048 133.525531 387.951715 
C 133.525531 388.463382 133.728819 388.954162 134.090622 389.315965 
C 134.452426 389.677769 134.943205 389.881056 135.454872 389.881056 
z
" style="fill:#ffbb7b;stroke:#ffbb7b;"/>
    <path clip-path="url(#p0385ad3ece)" d="M 136.241495 387.064225 
C 136.765638 387.064225 137.268384 386.855981 137.639008 386.485356 
C 138.009633 386.114731 138.217877 385.611985 138.217877 385.087842 
C 138.217877 384.5637 138.009633 384.060954 137.639008 383.690329 
C 137.268384 383.319704 136.765638 383.11146 136.241495 383.11146 
C 135.717352 383.11146 135.214607 383.319704 134.843982 383.690329 
C 134.473357 384.060954 134.265113 384.5637 134.265113 385.087842 
C 134.265113 385.611985 134.473357 386.114731 134.843982 386.485356 
C 135.214607 386.855981 135.717352 387.064225 136.241495 387.064225 
z
" style="fill:#ffbc7c;stroke:#ffbc7c;"/>
    <path clip-path="url(#p0385ad3ece)" d="M 137.050249 384.24854 
C 137.587171 384.24854 138.102175 384.035219 138.481837 383.655557 
C 138.861498 383.275896 139.07482 382.760892 139.07482 382.22397 
C 139.07482 381.687047 138.861498 381.172044 138.481837 380.792382 
C 138.102175 380.412721 137.587171 380.199399 137.050249 380.199399 
C 136.513327 380.199399 135.998323 380.412721 135.618662 380.792382 
C 135.239 381.172044 135.025679 381.687047 135.025679 382.22397 
C 135.025679 382.760892 135.239 383.275896 135.618662 383.655557 
C 135.998323 384.035219 136.513327 384.24854 137.050249 384.24854 
z
" style="fill:#ffbc7d;stroke:#ffbc7d;"/>
    <path clip-path="url(#p0385ad3ece)" d="M 137.881757 381.43403 
C 138.431771 381.43403 138.959331 381.215508 139.34825 380.826589 
C 139.737168 380.437671 139.955691 379.91011 139.955691 379.360097 
C 139.955691 378.810083 139.737168 378.282523 139.34825 377.893605 
C 138.959331 377.504686 138.431771 377.286164 137.881757 377.286164 
C 137.331744 377.286164 136.804183 377.504686 136.415265 377.893605 
C 136.026347 378.282523 135.807824 378.810083 135.807824 379.360097 
C 135.807824 379.91011 136.026347 380.437671 136.415265 380.826589 
C 136.804183 381.215508 137.331744 381.43403 137.881757 381.43403 
z
" style="fill:#ffbd7d;stroke:#ffbd7d;"/>
    <path clip-path="url(#p0385ad3ece)" d="M 138.73666 378.620724 
C 139.300084 378.620724 139.840507 378.396873 140.238908 377.998473 
C 140.637309 377.600072 140.86116 377.059648 140.86116 376.496224 
C 140.86116 375.9328 140.637309 375.392377 140.238908 374.993976 
C 139.840507 374.595575 139.300084 374.371724 138.73666 374.371724 
C 138.173236 374.371724 137.632812 374.595575 137.234411 374.993976 
C 136.836011 375.392377 136.61216 375.9328 136.61216 376.496224 
C 136.61216 377.059648 136.836011 377.600072 137.234411 377.998473 
C 137.632812 378.396873 138.173236 378.620724 138.73666 378.620724 
z
" style="fill:#ffbd7e;stroke:#ffbd7e;"/>
    <path clip-path="url(#p0385ad3ece)" d="M 139.615615 375.808651 
C 140.192776 375.808651 140.746376 375.579342 141.154491 375.171228 
C 141.562606 374.763113 141.791914 374.209513 141.791914 373.632351 
C 141.791914 373.05519 141.562606 372.50159 141.154491 372.093475 
C 140.746376 371.685361 140.192776 371.456052 139.615615 371.456052 
C 139.038454 371.456052 138.484853 371.685361 138.076739 372.093475 
C 137.668624 372.50159 137.439315 373.05519 137.439315 373.632351 
C 137.439315 374.209513 137.668624 374.763113 138.076739 375.171228 
C 138.484853 375.579342 139.038454 375.808651 139.615615 375.808651 
z
" style="fill:#ffbe7f;stroke:#ffbe7f;"/>
    <path clip-path="url(#p0385ad3ece)" d="M 140.519299 372.997841 
C 141.110533 372.997841 141.677631 372.762941 142.095696 372.344876 
C 142.513762 371.92681 142.748661 371.359712 142.748661 370.768479 
C 142.748661 370.177245 142.513762 369.610147 142.095696 369.192082 
C 141.677631 368.774016 141.110533 368.539117 140.519299 368.539117 
C 139.928065 368.539117 139.360968 368.774016 138.942902 369.192082 
C 138.524837 369.610147 138.289937 370.177245 138.289937 370.768479 
C 138.289937 371.359712 138.524837 371.92681 138.942902 372.344876 
C 139.360968 372.762941 139.928065 372.997841 140.519299 372.997841 
z
" style="fill:#ffc083;stroke:#ffc083;"/>
    <path clip-path="url(#p0385ad3ece)" d="M 141.448408 370.188324 
C 142.054058 370.188324 142.634982 369.947697 143.063241 369.519439 
C 143.4915 369.09118 143.732127 368.510255 143.732127 367.904606 
C 143.732127 367.298957 143.4915 366.718032 143.063241 366.289773 
C 142.634982 365.861515 142.054058 365.620888 141.448408 365.620888 
C 140.842759 365.620888 140.261834 365.861515 139.833576 366.289773 
C 139.405317 366.718032 139.16469 367.298957 139.16469 367.904606 
C 139.16469 368.510255 139.405317 369.09118 139.833576 369.519439 
C 140.261834 369.947697 140.842759 370.188324 141.448408 370.188324 
z
" style="fill:#ffc287;stroke:#ffc287;"/>
    <path clip-path="url(#p0385ad3ece)" d="M 142.403658 367.380133 
C 143.024074 367.380133 143.619163 367.133639 144.057863 366.694939 
C 144.496564 366.256238 144.743058 365.661149 144.743058 365.040733 
C 144.743058 364.420317 144.496564 363.825228 144.057863 363.386528 
C 143.619163 362.947827 143.024074 362.701333 142.403658 362.701333 
C 141.783242 362.701333 141.188153 362.947827 140.749452 363.386528 
C 140.310752 363.825228 140.064258 364.420317 140.064258 365.040733 
C 140.064258 365.661149 140.310752 366.256238 140.749452 366.694939 
C 141.188153 367.133639 141.783242 367.380133 142.403658 367.380133 
z
" style="fill:#ffc48b;stroke:#ffc48b;"/>
    <path clip-path="url(#p0385ad3ece)" d="M 143.385783 364.5733 
C 144.021326 364.5733 144.630925 364.320796 145.080321 363.871399 
C 145.529718 363.422002 145.782222 362.812404 145.782222 362.17686 
C 145.782222 361.541317 145.529718 360.931719 145.080321 360.482322 
C 144.630925 360.032925 144.021326 359.780421 143.385783 359.780421 
C 142.75024 359.780421 142.140642 360.032925 141.691245 360.482322 
C 141.241848 360.931719 140.989344 361.541317 140.989344 362.17686 
C 140.989344 362.812404 141.241848 363.422002 141.691245 363.871399 
C 142.140642 364.320796 142.75024 364.5733 143.385783 364.5733 
z
" style="fill:#ffc68f;stroke:#ffc68f;"/>
    <path clip-path="url(#p0385ad3ece)" d="M 144.39554 361.767857 
C 145.046579 361.767857 145.671041 361.509196 146.131395 361.048842 
C 146.591749 360.588488 146.850409 359.964027 146.850409 359.312988 
C 146.850409 358.661949 146.591749 358.037487 146.131395 357.577133 
C 145.671041 357.116779 145.046579 356.858119 144.39554 356.858119 
C 143.744501 356.858119 143.12004 357.116779 142.659686 357.577133 
C 142.199332 358.037487 141.940671 358.661949 141.940671 359.312988 
C 141.940671 359.964027 142.199332 360.588488 142.659686 361.048842 
C 143.12004 361.509196 143.744501 361.767857 144.39554 361.767857 
z
" style="fill:#ffc996;stroke:#ffc996;"/>
    <path clip-path="url(#p0385ad3ece)" d="M 145.433707 358.963839 
C 146.100619 358.963839 146.740307 358.698871 147.211885 358.227293 
C 147.683463 357.755715 147.94843 357.116027 147.94843 356.449115 
C 147.94843 355.782203 147.683463 355.142515 147.211885 354.670937 
C 146.740307 354.199359 146.100619 353.934391 145.433707 353.934391 
C 144.766794 353.934391 144.127107 354.199359 143.655529 354.670937 
C 143.18395 355.142515 142.918983 355.782203 142.918983 356.449115 
C 142.918983 357.116027 143.18395 357.755715 143.655529 358.227293 
C 144.127107 358.698871 144.766794 358.963839 145.433707 358.963839 
z
" style="fill:#ffce9e;stroke:#ffce9e;"/>
    <path clip-path="url(#p0385ad3ece)" d="M 146.501082 356.16128 
C 147.184255 356.16128 147.839539 355.889852 148.322615 355.406776 
C 148.805692 354.923699 149.077119 354.268415 149.077119 353.585242 
C 149.077119 352.902069 148.805692 352.246785 148.322615 351.763709 
C 147.839539 351.280632 147.184255 351.009205 146.501082 351.009205 
C 145.817909 351.009205 145.162625 351.280632 144.679548 351.763709 
C 144.196472 352.246785 143.925044 352.902069 143.925044 353.585242 
C 143.925044 354.268415 144.196472 354.923699 144.679548 355.406776 
C 145.162625 355.889852 145.817909 356.16128 146.501082 356.16128 
z
" style="fill:#ffd3a7;stroke:#ffd3a7;"/>
    <path clip-path="url(#p0385ad3ece)" d="M 147.598487 353.360216 
C 148.298318 353.360216 148.969579 353.08217 149.464434 352.587316 
C 149.959288 352.092461 150.237334 351.4212 150.237334 350.72137 
C 150.237334 350.021539 149.959288 349.350278 149.464434 348.855423 
C 148.969579 348.360569 148.298318 348.082523 147.598487 348.082523 
C 146.898657 348.082523 146.227396 348.360569 145.732541 348.855423 
C 145.237687 349.350278 144.959641 350.021539 144.959641 350.72137 
C 144.959641 351.4212 145.237687 352.092461 145.732541 352.587316 
C 146.227396 353.08217 146.898657 353.360216 147.598487 353.360216 
z
" style="fill:#ffd8af;stroke:#ffd8af;"/>
    <path clip-path="url(#p0385ad3ece)" d="M 148.726768 350.560683 
C 149.443662 350.560683 150.131289 350.275859 150.63821 349.768938 
C 151.14513 349.262018 151.429955 348.57439 151.429955 347.857497 
C 151.429955 347.140603 151.14513 346.452975 150.63821 345.946055 
C 150.131289 345.439135 149.443662 345.15431 148.726768 345.15431 
C 148.009875 345.15431 147.322247 345.439135 146.815327 345.946055 
C 146.308406 346.452975 146.023581 347.140603 146.023581 347.857497 
C 146.023581 348.57439 146.308406 349.262018 146.815327 349.768938 
C 147.322247 350.275859 148.009875 350.560683 148.726768 350.560683 
z
" style="fill:#ffdcb6;stroke:#ffdcb6;"/>
    <path clip-path="url(#p0385ad3ece)" d="M 149.886793 347.76272 
C 150.621166 347.76272 151.325559 347.47095 151.844839 346.95167 
C 152.364119 346.43239 152.655889 345.727997 152.655889 344.993624 
C 152.655889 344.259251 152.364119 343.554858 151.844839 343.035578 
C 151.325559 342.516298 150.621166 342.224528 149.886793 342.224528 
C 149.15242 342.224528 148.448026 342.516298 147.928746 343.035578 
C 147.409467 343.554858 147.117697 344.259251 147.117697 344.993624 
C 147.117697 345.727997 147.409467 346.43239 147.928746 346.95167 
C 148.448026 347.47095 149.15242 347.76272 149.886793 347.76272 
z
" style="fill:#ffe0be;stroke:#ffe0be;"/>
    <path clip-path="url(#p0385ad3ece)" d="M 151.079455 344.966363 
C 151.831733 344.966363 152.553301 344.66748 153.085242 344.135539 
C 153.617183 343.603598 153.916066 342.88203 153.916066 342.129751 
C 153.916066 341.377473 153.617183 340.655905 153.085242 340.123964 
C 152.553301 339.592023 151.831733 339.29314 151.079455 339.29314 
C 150.327176 339.29314 149.605608 339.592023 149.073667 340.123964 
C 148.541726 340.655905 148.242843 341.377473 148.242843 342.129751 
C 148.242843 342.88203 148.541726 343.603598 149.073667 344.135539 
C 149.605608 344.66748 150.327176 344.966363 151.079455 344.966363 
z
" style="fill:#ffe4c5;stroke:#ffe4c5;"/>
   </g>
   <g id="PathCollection_3">
    <path clip-path="url(#p0385ad3ece)" d="M 432.062556 123.992809 
C 435.813988 123.992809 439.412276 122.50235 442.064938 119.849687 
C 444.717601 117.197024 446.20806 113.598737 446.20806 109.847305 
C 446.20806 106.095874 444.717601 102.497586 442.064938 99.844924 
C 439.412276 97.192261 435.813988 95.701801 432.062556 95.701801 
C 428.311125 95.701801 424.712837 97.192261 422.060175 99.844924 
C 419.407512 102.497586 417.917052 106.095874 417.917052 109.847305 
C 417.917052 113.598737 419.407512 117.197024 422.060175 119.849687 
C 424.712837 122.50235 428.311125 123.992809 432.062556 123.992809 
z
" style="fill:#a1b8ff;stroke:#a1b8ff;"/>
    <path clip-path="url(#p0385ad3ece)" d="M 453.594895 110.425475 
C 457.665307 110.425475 461.569552 108.808283 464.447768 105.930068 
C 467.325983 103.051852 468.943175 99.147607 468.943175 95.077195 
C 468.943175 91.006784 467.325983 87.102538 464.447768 84.224323 
C 461.569552 81.346107 457.665307 79.728916 453.594895 79.728916 
C 449.524484 79.728916 445.620238 81.346107 442.742023 84.224323 
C 439.863807 87.102538 438.246616 91.006784 438.246616 95.077195 
C 438.246616 99.147607 439.863807 103.051852 442.742023 105.930068 
C 445.620238 108.808283 449.524484 110.425475 453.594895 110.425475 
z
" style="fill:#a0b7ff;stroke:#a0b7ff;"/>
    <path clip-path="url(#p0385ad3ece)" d="M 476.555728 96.960411 
C 480.972242 96.960411 485.208461 95.205712 488.331408 92.082765 
C 491.454355 88.959818 493.209054 84.723599 493.209054 80.307085 
C 493.209054 75.890572 491.454355 71.654352 488.331408 68.531405 
C 485.208461 65.408459 480.972242 63.653759 476.555728 63.653759 
C 472.139214 63.653759 467.902995 65.408459 464.780048 68.531405 
C 461.657101 71.654352 459.902402 75.890572 459.902402 80.307085 
C 459.902402 84.723599 461.657101 88.959818 464.780048 92.082765 
C 467.902995 95.205712 472.139214 96.960411 476.555728 96.960411 
z
" style="fill:#9fb6ff;stroke:#9fb6ff;"/>
    <path clip-path="url(#p0385ad3ece)" d="M 501.039824 83.606314 
C 505.831868 83.606314 510.428288 81.702415 513.816776 78.313927 
C 517.205263 74.92544 519.109162 70.32902 519.109162 65.536975 
C 519.109162 60.744931 517.205263 56.14851 513.816776 52.760023 
C 510.428288 49.371536 505.831868 47.467636 501.039824 47.467636 
C 496.247779 47.467636 491.651359 49.371536 488.262871 52.760023 
C 484.874384 56.14851 482.970485 60.744931 482.970485 65.536975 
C 482.970485 70.32902 484.874384 74.92544 488.262871 78.313927 
C 491.651359 81.702415 496.247779 83.606314 501.039824 83.606314 
z
" style="fill:#9db4ff;stroke:#9db4ff;"/>
    <path clip-path="url(#p0385ad3ece)" d="M 527.148238 70.372619 
C 532.347744 70.372619 537.334993 68.306833 541.011599 64.630227 
C 544.688206 60.95362 546.753992 55.966372 546.753992 50.766865 
C 546.753992 45.567359 544.688206 40.58011 541.011599 36.903504 
C 537.334993 33.226897 532.347744 31.161111 527.148238 31.161111 
C 521.948731 31.161111 516.961483 33.226897 513.284876 36.903504 
C 509.60827 40.58011 507.542484 45.567359 507.542484 50.766865 
C 507.542484 55.966372 509.60827 60.95362 513.284876 64.630227 
C 516.961483 68.306833 521.948731 70.372619 527.148238 70.372619 
z
" style="fill:#9cb3ff;stroke:#9cb3ff;"/>
   </g>
   <g id="matplotlib.axis_1">
    <g id="xtick_1">
     <g id="line2d_1">
      <defs>
       <path d="M 0 0 
L 0 3.5 
" id="m2bab6b38ba" style="stroke:#000000;stroke-width:0.8;"/>
      </defs>
      <g>
       <use style="stroke:#000000;stroke-width:0.8;" x="107.495808" xlink:href="#m2bab6b38ba" y="504.52"/>
      </g>
     </g>
     <g id="text_1">
      <!-- 0 -->
      <defs>
       <path d="M 31.78125 66.40625 
Q 24.171875 66.40625 20.328125 58.90625 
Q 16.5 51.421875 16.5 36.375 
Q 16.5 21.390625 20.328125 13.890625 
Q 24.171875 6.390625 31.78125 6.390625 
Q 39.453125 6.390625 43.28125 13.890625 
Q 47.125 21.390625 47.125 36.375 
Q 47.125 51.421875 43.28125 58.90625 
Q 39.453125 66.40625 31.78125 66.40625 
z
M 31.78125 74.21875 
Q 44.046875 74.21875 50.515625 64.515625 
Q 56.984375 54.828125 56.984375 36.375 
Q 56.984375 17.96875 50.515625 8.265625 
Q 44.046875 -1.421875 31.78125 -1.421875 
Q 19.53125 -1.421875 13.0625 8.265625 
Q 6.59375 17.96875 6.59375 36.375 
Q 6.59375 54.828125 13.0625 64.515625 
Q 19.53125 74.21875 31.78125 74.21875 
z
" id="DejaVuSans-30"/>
      </defs>
      <g transform="translate(101.133308 526.716875)scale(0.2 -0.2)">
       <use xlink:href="#DejaVuSans-30"/>
      </g>
     </g>
    </g>
    <g id="xtick_2">
     <g id="line2d_2">
      <g>
       <use style="stroke:#000000;stroke-width:0.8;" x="197.055988" xlink:href="#m2bab6b38ba" y="504.52"/>
      </g>
     </g>
     <g id="text_2">
      <!-- 10000 -->
      <defs>
       <path d="M 12.40625 8.296875 
L 28.515625 8.296875 
L 28.515625 63.921875 
L 10.984375 60.40625 
L 10.984375 69.390625 
L 28.421875 72.90625 
L 38.28125 72.90625 
L 38.28125 8.296875 
L 54.390625 8.296875 
L 54.390625 0 
L 12.40625 0 
z
" id="DejaVuSans-31"/>
      </defs>
      <g transform="translate(165.243488 526.716875)scale(0.2 -0.2)">
       <use xlink:href="#DejaVuSans-31"/>
       <use x="63.623047" xlink:href="#DejaVuSans-30"/>
       <use x="127.246094" xlink:href="#DejaVuSans-30"/>
       <use x="190.869141" xlink:href="#DejaVuSans-30"/>
       <use x="254.492188" xlink:href="#DejaVuSans-30"/>
      </g>
     </g>
    </g>
    <g id="xtick_3">
     <g id="line2d_3">
      <g>
       <use style="stroke:#000000;stroke-width:0.8;" x="286.616168" xlink:href="#m2bab6b38ba" y="504.52"/>
      </g>
     </g>
     <g id="text_3">
      <!-- 20000 -->
      <defs>
       <path d="M 19.1875 8.296875 
L 53.609375 8.296875 
L 53.609375 0 
L 7.328125 0 
L 7.328125 8.296875 
Q 12.9375 14.109375 22.625 23.890625 
Q 32.328125 33.6875 34.8125 36.53125 
Q 39.546875 41.84375 41.421875 45.53125 
Q 43.3125 49.21875 43.3125 52.78125 
Q 43.3125 58.59375 39.234375 62.25 
Q 35.15625 65.921875 28.609375 65.921875 
Q 23.96875 65.921875 18.8125 64.3125 
Q 13.671875 62.703125 7.8125 59.421875 
L 7.8125 69.390625 
Q 13.765625 71.78125 18.9375 73 
Q 24.125 74.21875 28.421875 74.21875 
Q 39.75 74.21875 46.484375 68.546875 
Q 53.21875 62.890625 53.21875 53.421875 
Q 53.21875 48.921875 51.53125 44.890625 
Q 49.859375 40.875 45.40625 35.40625 
Q 44.1875 33.984375 37.640625 27.21875 
Q 31.109375 20.453125 19.1875 8.296875 
z
" id="DejaVuSans-32"/>
      </defs>
      <g transform="translate(254.803668 526.716875)scale(0.2 -0.2)">
       <use xlink:href="#DejaVuSans-32"/>
       <use x="63.623047" xlink:href="#DejaVuSans-30"/>
       <use x="127.246094" xlink:href="#DejaVuSans-30"/>
       <use x="190.869141" xlink:href="#DejaVuSans-30"/>
       <use x="254.492188" xlink:href="#DejaVuSans-30"/>
      </g>
     </g>
    </g>
    <g id="xtick_4">
     <g id="line2d_4">
      <g>
       <use style="stroke:#000000;stroke-width:0.8;" x="376.176348" xlink:href="#m2bab6b38ba" y="504.52"/>
      </g>
     </g>
     <g id="text_4">
      <!-- 30000 -->
      <defs>
       <path d="M 40.578125 39.3125 
Q 47.65625 37.796875 51.625 33 
Q 55.609375 28.21875 55.609375 21.1875 
Q 55.609375 10.40625 48.1875 4.484375 
Q 40.765625 -1.421875 27.09375 -1.421875 
Q 22.515625 -1.421875 17.65625 -0.515625 
Q 12.796875 0.390625 7.625 2.203125 
L 7.625 11.71875 
Q 11.71875 9.328125 16.59375 8.109375 
Q 21.484375 6.890625 26.8125 6.890625 
Q 36.078125 6.890625 40.9375 10.546875 
Q 45.796875 14.203125 45.796875 21.1875 
Q 45.796875 27.640625 41.28125 31.265625 
Q 36.765625 34.90625 28.71875 34.90625 
L 20.21875 34.90625 
L 20.21875 43.015625 
L 29.109375 43.015625 
Q 36.375 43.015625 40.234375 45.921875 
Q 44.09375 48.828125 44.09375 54.296875 
Q 44.09375 59.90625 40.109375 62.90625 
Q 36.140625 65.921875 28.71875 65.921875 
Q 24.65625 65.921875 20.015625 65.03125 
Q 15.375 64.15625 9.8125 62.3125 
L 9.8125 71.09375 
Q 15.4375 72.65625 20.34375 73.4375 
Q 25.25 74.21875 29.59375 74.21875 
Q 40.828125 74.21875 47.359375 69.109375 
Q 53.90625 64.015625 53.90625 55.328125 
Q 53.90625 49.265625 50.4375 45.09375 
Q 46.96875 40.921875 40.578125 39.3125 
z
" id="DejaVuSans-33"/>
      </defs>
      <g transform="translate(344.363848 526.716875)scale(0.2 -0.2)">
       <use xlink:href="#DejaVuSans-33"/>
       <use x="63.623047" xlink:href="#DejaVuSans-30"/>
       <use x="127.246094" xlink:href="#DejaVuSans-30"/>
       <use x="190.869141" xlink:href="#DejaVuSans-30"/>
       <use x="254.492188" xlink:href="#DejaVuSans-30"/>
      </g>
     </g>
    </g>
    <g id="xtick_5">
     <g id="line2d_5">
      <g>
       <use style="stroke:#000000;stroke-width:0.8;" x="465.736528" xlink:href="#m2bab6b38ba" y="504.52"/>
      </g>
     </g>
     <g id="text_5">
      <!-- 40000 -->
      <defs>
       <path d="M 37.796875 64.3125 
L 12.890625 25.390625 
L 37.796875 25.390625 
z
M 35.203125 72.90625 
L 47.609375 72.90625 
L 47.609375 25.390625 
L 58.015625 25.390625 
L 58.015625 17.1875 
L 47.609375 17.1875 
L 47.609375 0 
L 37.796875 0 
L 37.796875 17.1875 
L 4.890625 17.1875 
L 4.890625 26.703125 
z
" id="DejaVuSans-34"/>
      </defs>
      <g transform="translate(433.924028 526.716875)scale(0.2 -0.2)">
       <use xlink:href="#DejaVuSans-34"/>
       <use x="63.623047" xlink:href="#DejaVuSans-30"/>
       <use x="127.246094" xlink:href="#DejaVuSans-30"/>
       <use x="190.869141" xlink:href="#DejaVuSans-30"/>
       <use x="254.492188" xlink:href="#DejaVuSans-30"/>
      </g>
     </g>
    </g>
    <g id="text_6">
     <!-- Temperature -->
     <defs>
      <path d="M -0.296875 72.90625 
L 61.375 72.90625 
L 61.375 64.59375 
L 35.5 64.59375 
L 35.5 0 
L 25.59375 0 
L 25.59375 64.59375 
L -0.296875 64.59375 
z
" id="DejaVuSans-54"/>
      <path d="M 56.203125 29.59375 
L 56.203125 25.203125 
L 14.890625 25.203125 
Q 15.484375 15.921875 20.484375 11.0625 
Q 25.484375 6.203125 34.421875 6.203125 
Q 39.59375 6.203125 44.453125 7.46875 
Q 49.3125 8.734375 54.109375 11.28125 
L 54.109375 2.78125 
Q 49.265625 0.734375 44.1875 -0.34375 
Q 39.109375 -1.421875 33.890625 -1.421875 
Q 20.796875 -1.421875 13.15625 6.1875 
Q 5.515625 13.8125 5.515625 26.8125 
Q 5.515625 40.234375 12.765625 48.109375 
Q 20.015625 56 32.328125 56 
Q 43.359375 56 49.78125 48.890625 
Q 56.203125 41.796875 56.203125 29.59375 
z
M 47.21875 32.234375 
Q 47.125 39.59375 43.09375 43.984375 
Q 39.0625 48.390625 32.421875 48.390625 
Q 24.90625 48.390625 20.390625 44.140625 
Q 15.875 39.890625 15.1875 32.171875 
z
" id="DejaVuSans-65"/>
      <path d="M 52 44.1875 
Q 55.375 50.25 60.0625 53.125 
Q 64.75 56 71.09375 56 
Q 79.640625 56 84.28125 50.015625 
Q 88.921875 44.046875 88.921875 33.015625 
L 88.921875 0 
L 79.890625 0 
L 79.890625 32.71875 
Q 79.890625 40.578125 77.09375 44.375 
Q 74.3125 48.1875 68.609375 48.1875 
Q 61.625 48.1875 57.5625 43.546875 
Q 53.515625 38.921875 53.515625 30.90625 
L 53.515625 0 
L 44.484375 0 
L 44.484375 32.71875 
Q 44.484375 40.625 41.703125 44.40625 
Q 38.921875 48.1875 33.109375 48.1875 
Q 26.21875 48.1875 22.15625 43.53125 
Q 18.109375 38.875 18.109375 30.90625 
L 18.109375 0 
L 9.078125 0 
L 9.078125 54.6875 
L 18.109375 54.6875 
L 18.109375 46.1875 
Q 21.1875 51.21875 25.484375 53.609375 
Q 29.78125 56 35.6875 56 
Q 41.65625 56 45.828125 52.96875 
Q 50 49.953125 52 44.1875 
z
" id="DejaVuSans-6d"/>
      <path d="M 18.109375 8.203125 
L 18.109375 -20.796875 
L 9.078125 -20.796875 
L 9.078125 54.6875 
L 18.109375 54.6875 
L 18.109375 46.390625 
Q 20.953125 51.265625 25.265625 53.625 
Q 29.59375 56 35.59375 56 
Q 45.5625 56 51.78125 48.09375 
Q 58.015625 40.1875 58.015625 27.296875 
Q 58.015625 14.40625 51.78125 6.484375 
Q 45.5625 -1.421875 35.59375 -1.421875 
Q 29.59375 -1.421875 25.265625 0.953125 
Q 20.953125 3.328125 18.109375 8.203125 
z
M 48.6875 27.296875 
Q 48.6875 37.203125 44.609375 42.84375 
Q 40.53125 48.484375 33.40625 48.484375 
Q 26.265625 48.484375 22.1875 42.84375 
Q 18.109375 37.203125 18.109375 27.296875 
Q 18.109375 17.390625 22.1875 11.75 
Q 26.265625 6.109375 33.40625 6.109375 
Q 40.53125 6.109375 44.609375 11.75 
Q 48.6875 17.390625 48.6875 27.296875 
z
" id="DejaVuSans-70"/>
      <path d="M 41.109375 46.296875 
Q 39.59375 47.171875 37.8125 47.578125 
Q 36.03125 48 33.890625 48 
Q 26.265625 48 22.1875 43.046875 
Q 18.109375 38.09375 18.109375 28.8125 
L 18.109375 0 
L 9.078125 0 
L 9.078125 54.6875 
L 18.109375 54.6875 
L 18.109375 46.1875 
Q 20.953125 51.171875 25.484375 53.578125 
Q 30.03125 56 36.53125 56 
Q 37.453125 56 38.578125 55.875 
Q 39.703125 55.765625 41.0625 55.515625 
z
" id="DejaVuSans-72"/>
      <path d="M 34.28125 27.484375 
Q 23.390625 27.484375 19.1875 25 
Q 14.984375 22.515625 14.984375 16.5 
Q 14.984375 11.71875 18.140625 8.90625 
Q 21.296875 6.109375 26.703125 6.109375 
Q 34.1875 6.109375 38.703125 11.40625 
Q 43.21875 16.703125 43.21875 25.484375 
L 43.21875 27.484375 
z
M 52.203125 31.203125 
L 52.203125 0 
L 43.21875 0 
L 43.21875 8.296875 
Q 40.140625 3.328125 35.546875 0.953125 
Q 30.953125 -1.421875 24.3125 -1.421875 
Q 15.921875 -1.421875 10.953125 3.296875 
Q 6 8.015625 6 15.921875 
Q 6 25.140625 12.171875 29.828125 
Q 18.359375 34.515625 30.609375 34.515625 
L 43.21875 34.515625 
L 43.21875 35.40625 
Q 43.21875 41.609375 39.140625 45 
Q 35.0625 48.390625 27.6875 48.390625 
Q 23 48.390625 18.546875 47.265625 
Q 14.109375 46.140625 10.015625 43.890625 
L 10.015625 52.203125 
Q 14.9375 54.109375 19.578125 55.046875 
Q 24.21875 56 28.609375 56 
Q 40.484375 56 46.34375 49.84375 
Q 52.203125 43.703125 52.203125 31.203125 
z
" id="DejaVuSans-61"/>
      <path d="M 18.3125 70.21875 
L 18.3125 54.6875 
L 36.8125 54.6875 
L 36.8125 47.703125 
L 18.3125 47.703125 
L 18.3125 18.015625 
Q 18.3125 11.328125 20.140625 9.421875 
Q 21.96875 7.515625 27.59375 7.515625 
L 36.8125 7.515625 
L 36.8125 0 
L 27.59375 0 
Q 17.1875 0 13.234375 3.875 
Q 9.28125 7.765625 9.28125 18.015625 
L 9.28125 47.703125 
L 2.6875 47.703125 
L 2.6875 54.6875 
L 9.28125 54.6875 
L 9.28125 70.21875 
z
" id="DejaVuSans-74"/>
      <path d="M 8.5 21.578125 
L 8.5 54.6875 
L 17.484375 54.6875 
L 17.484375 21.921875 
Q 17.484375 14.15625 20.5 10.265625 
Q 23.53125 6.390625 29.59375 6.390625 
Q 36.859375 6.390625 41.078125 11.03125 
Q 45.3125 15.671875 45.3125 23.6875 
L 45.3125 54.6875 
L 54.296875 54.6875 
L 54.296875 0 
L 45.3125 0 
L 45.3125 8.40625 
Q 42.046875 3.421875 37.71875 1 
Q 33.40625 -1.421875 27.6875 -1.421875 
Q 18.265625 -1.421875 13.375 4.4375 
Q 8.5 10.296875 8.5 21.578125 
z
M 31.109375 56 
z
" id="DejaVuSans-75"/>
     </defs>
     <g transform="translate(260.224677 550.073125)scale(0.2 -0.2)">
      <use xlink:href="#DejaVuSans-54"/>
      <use x="60.818359" xlink:href="#DejaVuSans-65"/>
      <use x="122.341797" xlink:href="#DejaVuSans-6d"/>
      <use x="219.753906" xlink:href="#DejaVuSans-70"/>
      <use x="283.230469" xlink:href="#DejaVuSans-65"/>
      <use x="344.753906" xlink:href="#DejaVuSans-72"/>
      <use x="385.867188" xlink:href="#DejaVuSans-61"/>
      <use x="447.146484" xlink:href="#DejaVuSans-74"/>
      <use x="486.355469" xlink:href="#DejaVuSans-75"/>
      <use x="549.734375" xlink:href="#DejaVuSans-72"/>
      <use x="590.816406" xlink:href="#DejaVuSans-65"/>
     </g>
    </g>
   </g>
   <g id="matplotlib.axis_2">
    <g id="ytick_1">
     <g id="line2d_6">
      <defs>
       <path d="M 0 0 
L -3.5 0 
" id="m809a44cdf4" style="stroke:#000000;stroke-width:0.8;"/>
      </defs>
      <g>
       <use style="stroke:#000000;stroke-width:0.8;" x="97.778104" xlink:href="#m809a44cdf4" y="482.459516"/>
      </g>
     </g>
     <g id="text_7">
      <!-- $\mathdefault{10^{-1}}$ -->
      <defs>
       <path d="M 10.59375 35.5 
L 73.1875 35.5 
L 73.1875 27.203125 
L 10.59375 27.203125 
z
" id="DejaVuSans-2212"/>
      </defs>
      <g transform="translate(43.778104 490.057953)scale(0.2 -0.2)">
       <use transform="translate(0 0.684375)" xlink:href="#DejaVuSans-31"/>
       <use transform="translate(63.623047 0.684375)" xlink:href="#DejaVuSans-30"/>
       <use transform="translate(128.203125 38.965625)scale(0.7)" xlink:href="#DejaVuSans-2212"/>
       <use transform="translate(186.855469 38.965625)scale(0.7)" xlink:href="#DejaVuSans-31"/>
      </g>
     </g>
    </g>
    <g id="ytick_2">
     <g id="line2d_7">
      <g>
       <use style="stroke:#000000;stroke-width:0.8;" x="97.778104" xlink:href="#m809a44cdf4" y="327.071053"/>
      </g>
     </g>
     <g id="text_8">
      <!-- $\mathdefault{10^{0}}$ -->
      <g transform="translate(55.578104 334.669491)scale(0.2 -0.2)">
       <use transform="translate(0 0.765625)" xlink:href="#DejaVuSans-31"/>
       <use transform="translate(63.623047 0.765625)" xlink:href="#DejaVuSans-30"/>
       <use transform="translate(128.203125 39.046875)scale(0.7)" xlink:href="#DejaVuSans-30"/>
      </g>
     </g>
    </g>
    <g id="ytick_3">
     <g id="line2d_8">
      <g>
       <use style="stroke:#000000;stroke-width:0.8;" x="97.778104" xlink:href="#m809a44cdf4" y="171.682591"/>
      </g>
     </g>
     <g id="text_9">
      <!-- $\mathdefault{10^{1}}$ -->
      <g transform="translate(55.578104 179.281029)scale(0.2 -0.2)">
       <use transform="translate(0 0.684375)" xlink:href="#DejaVuSans-31"/>
       <use transform="translate(63.623047 0.684375)" xlink:href="#DejaVuSans-30"/>
       <use transform="translate(128.203125 38.965625)scale(0.7)" xlink:href="#DejaVuSans-31"/>
      </g>
     </g>
    </g>
    <g id="ytick_4">
     <g id="line2d_9">
      <defs>
       <path d="M 0 0 
L -2 0 
" id="m8219737008" style="stroke:#000000;stroke-width:0.6;"/>
      </defs>
      <g>
       <use style="stroke:#000000;stroke-width:0.6;" x="97.778104" xlink:href="#m8219737008" y="497.518213"/>
      </g>
     </g>
    </g>
    <g id="ytick_5">
     <g id="line2d_10">
      <g>
       <use style="stroke:#000000;stroke-width:0.6;" x="97.778104" xlink:href="#m8219737008" y="489.569702"/>
      </g>
     </g>
    </g>
    <g id="ytick_6">
     <g id="line2d_11">
      <g>
       <use style="stroke:#000000;stroke-width:0.6;" x="97.778104" xlink:href="#m8219737008" y="435.682927"/>
      </g>
     </g>
    </g>
    <g id="ytick_7">
     <g id="line2d_12">
      <g>
       <use style="stroke:#000000;stroke-width:0.6;" x="97.778104" xlink:href="#m8219737008" y="408.320378"/>
      </g>
     </g>
    </g>
    <g id="ytick_8">
     <g id="line2d_13">
      <g>
       <use style="stroke:#000000;stroke-width:0.6;" x="97.778104" xlink:href="#m8219737008" y="388.906339"/>
      </g>
     </g>
    </g>
    <g id="ytick_9">
     <g id="line2d_14">
      <g>
       <use style="stroke:#000000;stroke-width:0.6;" x="97.778104" xlink:href="#m8219737008" y="373.847642"/>
      </g>
     </g>
    </g>
    <g id="ytick_10">
     <g id="line2d_15">
      <g>
       <use style="stroke:#000000;stroke-width:0.6;" x="97.778104" xlink:href="#m8219737008" y="361.543789"/>
      </g>
     </g>
    </g>
    <g id="ytick_11">
     <g id="line2d_16">
      <g>
       <use style="stroke:#000000;stroke-width:0.6;" x="97.778104" xlink:href="#m8219737008" y="351.141031"/>
      </g>
     </g>
    </g>
    <g id="ytick_12">
     <g id="line2d_17">
      <g>
       <use style="stroke:#000000;stroke-width:0.6;" x="97.778104" xlink:href="#m8219737008" y="342.129751"/>
      </g>
     </g>
    </g>
    <g id="ytick_13">
     <g id="line2d_18">
      <g>
       <use style="stroke:#000000;stroke-width:0.6;" x="97.778104" xlink:href="#m8219737008" y="334.18124"/>
      </g>
     </g>
    </g>
    <g id="ytick_14">
     <g id="line2d_19">
      <g>
       <use style="stroke:#000000;stroke-width:0.6;" x="97.778104" xlink:href="#m8219737008" y="280.294465"/>
      </g>
     </g>
    </g>
    <g id="ytick_15">
     <g id="line2d_20">
      <g>
       <use style="stroke:#000000;stroke-width:0.6;" x="97.778104" xlink:href="#m8219737008" y="252.931915"/>
      </g>
     </g>
    </g>
    <g id="ytick_16">
     <g id="line2d_21">
      <g>
       <use style="stroke:#000000;stroke-width:0.6;" x="97.778104" xlink:href="#m8219737008" y="233.517877"/>
      </g>
     </g>
    </g>
    <g id="ytick_17">
     <g id="line2d_22">
      <g>
       <use style="stroke:#000000;stroke-width:0.6;" x="97.778104" xlink:href="#m8219737008" y="218.459179"/>
      </g>
     </g>
    </g>
    <g id="ytick_18">
     <g id="line2d_23">
      <g>
       <use style="stroke:#000000;stroke-width:0.6;" x="97.778104" xlink:href="#m8219737008" y="206.155327"/>
      </g>
     </g>
    </g>
    <g id="ytick_19">
     <g id="line2d_24">
      <g>
       <use style="stroke:#000000;stroke-width:0.6;" x="97.778104" xlink:href="#m8219737008" y="195.752569"/>
      </g>
     </g>
    </g>
    <g id="ytick_20">
     <g id="line2d_25">
      <g>
       <use style="stroke:#000000;stroke-width:0.6;" x="97.778104" xlink:href="#m8219737008" y="186.741289"/>
      </g>
     </g>
    </g>
    <g id="ytick_21">
     <g id="line2d_26">
      <g>
       <use style="stroke:#000000;stroke-width:0.6;" x="97.778104" xlink:href="#m8219737008" y="178.792777"/>
      </g>
     </g>
    </g>
    <g id="ytick_22">
     <g id="line2d_27">
      <g>
       <use style="stroke:#000000;stroke-width:0.6;" x="97.778104" xlink:href="#m8219737008" y="124.906003"/>
      </g>
     </g>
    </g>
    <g id="ytick_23">
     <g id="line2d_28">
      <g>
       <use style="stroke:#000000;stroke-width:0.6;" x="97.778104" xlink:href="#m8219737008" y="97.543453"/>
      </g>
     </g>
    </g>
    <g id="ytick_24">
     <g id="line2d_29">
      <g>
       <use style="stroke:#000000;stroke-width:0.6;" x="97.778104" xlink:href="#m8219737008" y="78.129415"/>
      </g>
     </g>
    </g>
    <g id="ytick_25">
     <g id="line2d_30">
      <g>
       <use style="stroke:#000000;stroke-width:0.6;" x="97.778104" xlink:href="#m8219737008" y="63.070717"/>
      </g>
     </g>
    </g>
    <g id="ytick_26">
     <g id="line2d_31">
      <g>
       <use style="stroke:#000000;stroke-width:0.6;" x="97.778104" xlink:href="#m8219737008" y="50.766865"/>
      </g>
     </g>
    </g>
    <g id="ytick_27">
     <g id="line2d_32">
      <g>
       <use style="stroke:#000000;stroke-width:0.6;" x="97.778104" xlink:href="#m8219737008" y="40.364106"/>
      </g>
     </g>
    </g>
    <g id="ytick_28">
     <g id="line2d_33">
      <g>
       <use style="stroke:#000000;stroke-width:0.6;" x="97.778104" xlink:href="#m8219737008" y="31.352827"/>
      </g>
     </g>
    </g>
    <g id="ytick_29">
     <g id="line2d_34">
      <g>
       <use style="stroke:#000000;stroke-width:0.6;" x="97.778104" xlink:href="#m8219737008" y="23.404315"/>
      </g>
     </g>
    </g>
    <g id="text_10">
     <!-- Mass -->
     <defs>
      <path d="M 9.8125 72.90625 
L 24.515625 72.90625 
L 43.109375 23.296875 
L 61.8125 72.90625 
L 76.515625 72.90625 
L 76.515625 0 
L 66.890625 0 
L 66.890625 64.015625 
L 48.09375 14.015625 
L 38.1875 14.015625 
L 19.390625 64.015625 
L 19.390625 0 
L 9.8125 0 
z
" id="DejaVuSans-4d"/>
      <path d="M 44.28125 53.078125 
L 44.28125 44.578125 
Q 40.484375 46.53125 36.375 47.5 
Q 32.28125 48.484375 27.875 48.484375 
Q 21.1875 48.484375 17.84375 46.4375 
Q 14.5 44.390625 14.5 40.28125 
Q 14.5 37.15625 16.890625 35.375 
Q 19.28125 33.59375 26.515625 31.984375 
L 29.59375 31.296875 
Q 39.15625 29.25 43.1875 25.515625 
Q 47.21875 21.78125 47.21875 15.09375 
Q 47.21875 7.46875 41.1875 3.015625 
Q 35.15625 -1.421875 24.609375 -1.421875 
Q 20.21875 -1.421875 15.453125 -0.5625 
Q 10.6875 0.296875 5.421875 2 
L 5.421875 11.28125 
Q 10.40625 8.6875 15.234375 7.390625 
Q 20.0625 6.109375 24.8125 6.109375 
Q 31.15625 6.109375 34.5625 8.28125 
Q 37.984375 10.453125 37.984375 14.40625 
Q 37.984375 18.0625 35.515625 20.015625 
Q 33.0625 21.96875 24.703125 23.78125 
L 21.578125 24.515625 
Q 13.234375 26.265625 9.515625 29.90625 
Q 5.8125 33.546875 5.8125 39.890625 
Q 5.8125 47.609375 11.28125 51.796875 
Q 16.75 56 26.8125 56 
Q 31.78125 56 36.171875 55.265625 
Q 40.578125 54.546875 44.28125 53.078125 
z
" id="DejaVuSans-73"/>
     </defs>
     <g transform="translate(35.618729 288.865)rotate(-90)scale(0.2 -0.2)">
      <use xlink:href="#DejaVuSans-4d"/>
      <use x="86.279297" xlink:href="#DejaVuSans-61"/>
      <use x="147.558594" xlink:href="#DejaVuSans-73"/>
      <use x="199.658203" xlink:href="#DejaVuSans-73"/>
     </g>
    </g>
   </g>
   <g id="line2d_35">
    <path clip-path="url(#p0385ad3ece)" d="M 118.686855 45.760914 
L 527.148238 45.760914 
" style="fill:none;stroke:#000000;stroke-dasharray:5.55,2.4;stroke-dashoffset:0;stroke-width:1.5;"/>
   </g>
   <g id="line2d_36">
    <path clip-path="url(#p0385ad3ece)" d="M 118.686855 128.85228 
L 527.148238 128.85228 
" style="fill:none;stroke:#000000;stroke-dasharray:5.55,2.4;stroke-dashoffset:0;stroke-width:1.5;"/>
   </g>
   <g id="line2d_37">
    <path clip-path="url(#p0385ad3ece)" d="M 118.686855 211.892398 
L 527.148238 211.892398 
" style="fill:none;stroke:#000000;stroke-dasharray:5.55,2.4;stroke-dashoffset:0;stroke-width:1.5;"/>
   </g>
   <g id="line2d_38">
    <path clip-path="url(#p0385ad3ece)" d="M 118.686855 323.457893 
L 527.148238 323.457893 
" style="fill:none;stroke:#000000;stroke-dasharray:5.55,2.4;stroke-dashoffset:0;stroke-width:1.5;"/>
   </g>
   <g id="text_11">
    <g id="patch_3">
     <path clip-path="url(#p0385ad3ece)" d="M 147.350483 60.960914 
L 230.350483 60.960914 
L 230.350483 30.560914 
L 147.350483 30.560914 
z
" style="fill:#ffffff;stroke:#ffffff;stroke-linejoin:miter;"/>
    </g>
    <g clip-path="url(#p0385ad3ece)">
     <!-- $10^{6.5}$ yr -->
     <defs>
      <path d="M 33.015625 40.375 
Q 26.375 40.375 22.484375 35.828125 
Q 18.609375 31.296875 18.609375 23.390625 
Q 18.609375 15.53125 22.484375 10.953125 
Q 26.375 6.390625 33.015625 6.390625 
Q 39.65625 6.390625 43.53125 10.953125 
Q 47.40625 15.53125 47.40625 23.390625 
Q 47.40625 31.296875 43.53125 35.828125 
Q 39.65625 40.375 33.015625 40.375 
z
M 52.59375 71.296875 
L 52.59375 62.3125 
Q 48.875 64.0625 45.09375 64.984375 
Q 41.3125 65.921875 37.59375 65.921875 
Q 27.828125 65.921875 22.671875 59.328125 
Q 17.53125 52.734375 16.796875 39.40625 
Q 19.671875 43.65625 24.015625 45.921875 
Q 28.375 48.1875 33.59375 48.1875 
Q 44.578125 48.1875 50.953125 41.515625 
Q 57.328125 34.859375 57.328125 23.390625 
Q 57.328125 12.15625 50.6875 5.359375 
Q 44.046875 -1.421875 33.015625 -1.421875 
Q 20.359375 -1.421875 13.671875 8.265625 
Q 6.984375 17.96875 6.984375 36.375 
Q 6.984375 53.65625 15.1875 63.9375 
Q 23.390625 74.21875 37.203125 74.21875 
Q 40.921875 74.21875 44.703125 73.484375 
Q 48.484375 72.75 52.59375 71.296875 
z
" id="DejaVuSans-36"/>
      <path d="M 10.6875 12.40625 
L 21 12.40625 
L 21 0 
L 10.6875 0 
z
" id="DejaVuSans-2e"/>
      <path d="M 10.796875 72.90625 
L 49.515625 72.90625 
L 49.515625 64.59375 
L 19.828125 64.59375 
L 19.828125 46.734375 
Q 21.96875 47.46875 24.109375 47.828125 
Q 26.265625 48.1875 28.421875 48.1875 
Q 40.625 48.1875 47.75 41.5 
Q 54.890625 34.8125 54.890625 23.390625 
Q 54.890625 11.625 47.5625 5.09375 
Q 40.234375 -1.421875 26.90625 -1.421875 
Q 22.3125 -1.421875 17.546875 -0.640625 
Q 12.796875 0.140625 7.71875 1.703125 
L 7.71875 11.625 
Q 12.109375 9.234375 16.796875 8.0625 
Q 21.484375 6.890625 26.703125 6.890625 
Q 35.15625 6.890625 40.078125 11.328125 
Q 45.015625 15.765625 45.015625 23.390625 
Q 45.015625 31 40.078125 35.4375 
Q 35.15625 39.890625 26.703125 39.890625 
Q 22.75 39.890625 18.8125 39.015625 
Q 14.890625 38.140625 10.796875 36.28125 
z
" id="DejaVuSans-35"/>
      <path id="DejaVuSans-20"/>
      <path d="M 32.171875 -5.078125 
Q 28.375 -14.84375 24.75 -17.8125 
Q 21.140625 -20.796875 15.09375 -20.796875 
L 7.90625 -20.796875 
L 7.90625 -13.28125 
L 13.1875 -13.28125 
Q 16.890625 -13.28125 18.9375 -11.515625 
Q 21 -9.765625 23.484375 -3.21875 
L 25.09375 0.875 
L 2.984375 54.6875 
L 12.5 54.6875 
L 29.59375 11.921875 
L 46.6875 54.6875 
L 56.203125 54.6875 
z
" id="DejaVuSans-79"/>
     </defs>
     <g transform="translate(151.350483 52.760914)scale(0.2 -0.2)">
      <use transform="translate(0 0.765625)" xlink:href="#DejaVuSans-31"/>
      <use transform="translate(63.623047 0.765625)" xlink:href="#DejaVuSans-30"/>
      <use transform="translate(128.203125 39.046875)scale(0.7)" xlink:href="#DejaVuSans-36"/>
      <use transform="translate(172.739258 39.046875)scale(0.7)" xlink:href="#DejaVuSans-2e"/>
      <use transform="translate(194.990234 39.046875)scale(0.7)" xlink:href="#DejaVuSans-35"/>
      <use transform="translate(242.260742 0.765625)" xlink:href="#DejaVuSans-20"/>
      <use transform="translate(274.047852 0.765625)" xlink:href="#DejaVuSans-79"/>
      <use transform="translate(333.227539 0.765625)" xlink:href="#DejaVuSans-72"/>
     </g>
    </g>
   </g>
   <g id="text_12">
    <g id="patch_4">
     <path clip-path="url(#p0385ad3ece)" d="M 245.122862 143.95228 
L 314.722862 143.95228 
L 314.722862 113.75228 
L 245.122862 113.75228 
z
" style="fill:#ffffff;stroke:#ffffff;stroke-linejoin:miter;"/>
    </g>
    <g clip-path="url(#p0385ad3ece)">
     <!-- $10^{7}$ yr -->
     <defs>
      <path d="M 8.203125 72.90625 
L 55.078125 72.90625 
L 55.078125 68.703125 
L 28.609375 0 
L 18.3125 0 
L 43.21875 64.59375 
L 8.203125 64.59375 
z
" id="DejaVuSans-37"/>
     </defs>
     <g transform="translate(249.122862 135.75228)scale(0.2 -0.2)">
      <use transform="translate(0 0.684375)" xlink:href="#DejaVuSans-31"/>
      <use transform="translate(63.623047 0.684375)" xlink:href="#DejaVuSans-30"/>
      <use transform="translate(128.203125 38.965625)scale(0.7)" xlink:href="#DejaVuSans-37"/>
      <use transform="translate(175.473633 0.684375)" xlink:href="#DejaVuSans-20"/>
      <use transform="translate(207.260742 0.684375)" xlink:href="#DejaVuSans-79"/>
      <use transform="translate(266.44043 0.684375)" xlink:href="#DejaVuSans-72"/>
     </g>
    </g>
   </g>
   <g id="text_13">
    <g id="patch_5">
     <path clip-path="url(#p0385ad3ece)" d="M 336.195242 227.092398 
L 405.795242 227.092398 
L 405.795242 196.692398 
L 336.195242 196.692398 
z
" style="fill:#ffffff;stroke:#ffffff;stroke-linejoin:miter;"/>
    </g>
    <g clip-path="url(#p0385ad3ece)">
     <!-- $10^{8}$ yr -->
     <defs>
      <path d="M 31.78125 34.625 
Q 24.75 34.625 20.71875 30.859375 
Q 16.703125 27.09375 16.703125 20.515625 
Q 16.703125 13.921875 20.71875 10.15625 
Q 24.75 6.390625 31.78125 6.390625 
Q 38.8125 6.390625 42.859375 10.171875 
Q 46.921875 13.96875 46.921875 20.515625 
Q 46.921875 27.09375 42.890625 30.859375 
Q 38.875 34.625 31.78125 34.625 
z
M 21.921875 38.8125 
Q 15.578125 40.375 12.03125 44.71875 
Q 8.5 49.078125 8.5 55.328125 
Q 8.5 64.0625 14.71875 69.140625 
Q 20.953125 74.21875 31.78125 74.21875 
Q 42.671875 74.21875 48.875 69.140625 
Q 55.078125 64.0625 55.078125 55.328125 
Q 55.078125 49.078125 51.53125 44.71875 
Q 48 40.375 41.703125 38.8125 
Q 48.828125 37.15625 52.796875 32.3125 
Q 56.78125 27.484375 56.78125 20.515625 
Q 56.78125 9.90625 50.3125 4.234375 
Q 43.84375 -1.421875 31.78125 -1.421875 
Q 19.734375 -1.421875 13.25 4.234375 
Q 6.78125 9.90625 6.78125 20.515625 
Q 6.78125 27.484375 10.78125 32.3125 
Q 14.796875 37.15625 21.921875 38.8125 
z
M 18.3125 54.390625 
Q 18.3125 48.734375 21.84375 45.5625 
Q 25.390625 42.390625 31.78125 42.390625 
Q 38.140625 42.390625 41.71875 45.5625 
Q 45.3125 48.734375 45.3125 54.390625 
Q 45.3125 60.0625 41.71875 63.234375 
Q 38.140625 66.40625 31.78125 66.40625 
Q 25.390625 66.40625 21.84375 63.234375 
Q 18.3125 60.0625 18.3125 54.390625 
z
" id="DejaVuSans-38"/>
     </defs>
     <g transform="translate(340.195242 218.892398)scale(0.2 -0.2)">
      <use transform="translate(0 0.765625)" xlink:href="#DejaVuSans-31"/>
      <use transform="translate(63.623047 0.765625)" xlink:href="#DejaVuSans-30"/>
      <use transform="translate(128.203125 39.046875)scale(0.7)" xlink:href="#DejaVuSans-38"/>
      <use transform="translate(175.473633 0.765625)" xlink:href="#DejaVuSans-20"/>
      <use transform="translate(207.260742 0.765625)" xlink:href="#DejaVuSans-79"/>
      <use transform="translate(266.44043 0.765625)" xlink:href="#DejaVuSans-72"/>
     </g>
    </g>
   </g>
   <g id="text_14">
    <g id="patch_6">
     <path clip-path="url(#p0385ad3ece)" d="M 422.767621 338.657893 
L 501.367621 338.657893 
L 501.367621 308.257893 
L 422.767621 308.257893 
z
" style="fill:#ffffff;stroke:#ffffff;stroke-linejoin:miter;"/>
    </g>
    <g clip-path="url(#p0385ad3ece)">
     <!-- $10^{10}$ yr -->
     <g transform="translate(426.767621 330.457893)scale(0.2 -0.2)">
      <use transform="translate(0 0.765625)" xlink:href="#DejaVuSans-31"/>
      <use transform="translate(63.623047 0.765625)" xlink:href="#DejaVuSans-30"/>
      <use transform="translate(128.203125 39.046875)scale(0.7)" xlink:href="#DejaVuSans-31"/>
      <use transform="translate(172.739258 39.046875)scale(0.7)" xlink:href="#DejaVuSans-30"/>
      <use transform="translate(220.009766 0.765625)" xlink:href="#DejaVuSans-20"/>
      <use transform="translate(251.796875 0.765625)" xlink:href="#DejaVuSans-79"/>
      <use transform="translate(310.976562 0.765625)" xlink:href="#DejaVuSans-72"/>
     </g>
    </g>
   </g>
   <g id="patch_7">
    <path d="M 97.778104 504.52 
L 97.778104 22.86 
" style="fill:none;stroke:#000000;stroke-linecap:square;stroke-linejoin:miter;stroke-width:0.8;"/>
   </g>
   <g id="patch_8">
    <path d="M 553.14 504.52 
L 553.14 22.86 
" style="fill:none;stroke:#000000;stroke-linecap:square;stroke-linejoin:miter;stroke-width:0.8;"/>
   </g>
   <g id="patch_9">
    <path d="M 97.778104 504.52 
L 553.14 504.52 
" style="fill:none;stroke:#000000;stroke-linecap:square;stroke-linejoin:miter;stroke-width:0.8;"/>
   </g>
   <g id="patch_10">
    <path d="M 97.778104 22.86 
L 553.14 22.86 
" style="fill:none;stroke:#000000;stroke-linecap:square;stroke-linejoin:miter;stroke-width:0.8;"/>
   </g>
  </g>
 </g>
 <defs>
  <clipPath id="p0385ad3ece">
   <rect height="481.66" width="455.361896" x="97.778104" y="22.86"/>
  </clipPath>
 </defs>
</svg>
