<?xml version="1.0" encoding="UTF-8" standalone="no"?>
<!-- Created with Inkscape (http://www.inkscape.org/) -->

<svg
   width="25.271854mm"
   height="24.564409mm"
   viewBox="0 0 25.271854 24.564409"
   version="1.1"
   id="svg1659"
   inkscape:version="1.2.1 (9c6d41e, 2022-07-14)"
   sodipodi:docname="massivecoreshavemassivefragments.svg"
   xmlns:inkscape="http://www.inkscape.org/namespaces/inkscape"
   xmlns:sodipodi="http://sodipodi.sourceforge.net/DTD/sodipodi-0.dtd"
   xmlns="http://www.w3.org/2000/svg"
   xmlns:svg="http://www.w3.org/2000/svg">
  <sodipodi:namedview
     id="namedview1661"
     pagecolor="#505050"
     bordercolor="#eeeeee"
     borderopacity="1"
     inkscape:showpageshadow="0"
     inkscape:pageopacity="0"
     inkscape:pagecheckerboard="0"
     inkscape:deskcolor="#505050"
     inkscape:document-units="mm"
     showgrid="false"
     inkscape:zoom="3.633312"
     inkscape:cx="19.954245"
     inkscape:cy="50.229652"
     inkscape:window-width="1728"
     inkscape:window-height="1051"
     inkscape:window-x="0"
     inkscape:window-y="38"
     inkscape:window-maximized="1"
     inkscape:current-layer="layer1" />
  <defs
     id="defs1656" />
  <g
     inkscape:label="Layer 1"
     inkscape:groupmode="layer"
     id="layer1"
     transform="translate(-91.817465,-136.2178)">
    <path
       d="m 104.16482,137.37866 -0.86515,0.80645 -0.20499,1.07523 0.33024,0.80645 1.06875,0.45591 h 1.15094 l 0.57543,-0.72473 0.65769,-0.89604 0.31687,-1.07523 v -0.89605 l -0.97456,-0.71285 h -0.82209 l -0.65769,0.44403 z"
       style="fill:#164f86;fill-opacity:1;fill-rule:nonzero;stroke:none;stroke-width:0.330729"
       id="path30647"
       inkscape:connector-curvature="0" />
    <path
       d="m 93.591833,151.50992 1.15871,0.77804 1.436863,0.0267 1.034716,-0.38126 0.348625,-1.20981 -0.133516,-1.24843 -0.893822,-0.53579 -1.257789,-0.58704 -1.455926,-0.20505 -1.171956,0.2155 -0.840273,1.08205 0.09537,0.89174 0.667044,0.65022 z"
       style="fill:#164f86;fill-opacity:1;fill-rule:nonzero;stroke:none;stroke-width:0.330729"
       id="path30649"
       inkscape:connector-curvature="0" />
    <path
       d="m 109.99664,143.30681 -1.20789,1.20138 -0.73296,0.92541 0.11294,0.55896 0.15594,0.45069 0.27811,0.29646 0.74179,-0.1811 1.18749,-0.6898 0.76229,-0.69265 0.53162,-0.72519 0.7193,-0.5844 0.71246,-0.41391 0.73058,-0.38275 0.82097,-0.22708 1.00422,-0.45845 0.92062,-0.78463 0.3552,-0.66437 -0.32553,-0.56038 -0.0949,-0.52781 -0.76431,-0.22219 -0.91824,0.24193 -1.19873,0.48819 -1.14445,0.58155 -1.54712,0.98201 -0.66503,0.67779 z"
       style="fill:#164f86;fill-opacity:1;fill-rule:nonzero;stroke:none;stroke-width:0.330729"
       id="path30651"
       inkscape:connector-curvature="0" />
    <path
       d="m 98.576891,141.50341 -0.797388,-0.65054 -0.702856,-0.37498 -0.673699,0.12845 -0.572316,0.14499 -0.455173,0.2075 -0.130803,0.45562 0.236382,0.689 0.430215,0.41715 0.569953,0.26654 0.328837,0.40058 0.14183,0.41341 0.09901,0.42809 -0.115045,0.50155 0.06067,0.59525 0.461724,0.50903 0.581257,0.15997 0.770632,-0.26435 0.630866,-0.11377 0.590453,-0.51062 0.14208,-0.56217 -0.007,-0.71649 -0.135,-0.67247 -0.400781,-0.8893 -0.457299,-0.35653 z"
       style="fill:#164f86;fill-opacity:1;fill-rule:nonzero;stroke:none;stroke-width:0.330729"
       id="path30653"
       inkscape:connector-curvature="0" />
    <path
       d="m 102.06896,153.09633 -0.048,0.73898 0.15353,0.64608 0.40623,0.76848 0.62147,0.46445 0.38249,0.13083 0.84015,0.10759 0.72066,-0.0592 0.53969,-0.28301 0.3553,-0.45399 0.0992,-0.52361 0.16064,-0.46663 0.11288,-0.73481 0.0446,-0.6862 0.0583,-0.89733 0.0446,-0.68623 0.0275,-0.42228 0.0308,-0.47509 0.22212,-0.40961 0.22212,-0.40964 0.22552,-0.46242 0.10603,-0.62922 -0.41996,-0.55734 -0.80585,-0.6354 -0.81961,-0.42436 -0.76839,-0.20888 -0.84015,-0.10756 -0.96993,-0.11605 -0.847,-0.002 -0.6046,0.2788 -0.55341,0.49408 -0.16408,0.51944 -0.17776,0.73058 -0.0514,0.79173 0.21501,0.7031 0.21841,0.65028 0.0237,0.63761 0.40967,0.71573 0.47797,0.66715 z"
       style="fill:#164f86;fill-opacity:1;fill-rule:nonzero;stroke:none;stroke-width:0.330729"
       id="path30655"
       inkscape:connector-curvature="0" />
    <path
       d="m 103.79576,159.3014 0.40597,-0.66605 -0.0412,-0.77731 -0.26217,-0.53909 -0.71616,-0.12561 -0.71953,0.13672 -0.27576,0.51045 -0.29115,0.70961 -0.0616,0.79689 0.17139,0.62174 0.66136,0.39777 0.51395,-0.0977 0.35117,-0.39386 z"
       style="fill:#164f86;fill-opacity:1;fill-rule:nonzero;stroke:none;stroke-width:0.330729"
       id="path30657"
       inkscape:connector-curvature="0" />
    <path
       d="m 104.68761,143.96705 0.38761,-0.66252 -0.0449,-0.77665 -0.25668,-0.54012 -0.69228,-0.13017 -0.69384,0.13186 -0.26289,0.50797 -0.27649,0.70687 -0.0542,0.79547 0.16956,0.6221 0.64119,0.4016 0.49559,-0.0942 0.33649,-0.39109 z"
       style="fill:#164f86;fill-opacity:1;fill-rule:nonzero;stroke:none;stroke-width:0.330729"
       id="path30659"
       inkscape:connector-curvature="0" />
    <path
       d="m 109.70093,139.04308 -0.40775,-0.57007 -0.55827,-0.12495 -0.42449,0.15845 -0.2037,0.7242 -0.018,0.78452 0.31817,0.39979 0.45706,0.45901 0.5557,0.23704 0.46867,-0.0453 0.38805,-0.60782 0.0129,-0.56035 -0.2234,-0.45369 z"
       style="fill:#164f86;fill-opacity:1;fill-rule:nonzero;stroke:none;stroke-width:0.330729"
       id="path30661"
       inkscape:connector-curvature="0" />
    <path
       d="m 111.48148,151.52659 0.63675,-0.85269 -0.0247,-0.97079 -0.36545,-0.66218 -1.06187,-0.1234 -1.07931,0.20509 -0.43527,0.6518 -0.46765,0.9018 -0.12945,1.00012 0.22619,0.76994 0.96732,0.46653 0.77093,-0.14648 0.54219,-0.50952 z"
       style="fill:#164f86;fill-opacity:1;fill-rule:nonzero;stroke:none;stroke-width:0.330729"
       id="path30663"
       inkscape:connector-curvature="0" />
    <path
       d="m 99.628643,147.8378 0.430117,-0.43864 0.0119,-0.47811 -0.214148,-0.31621 -0.673365,-0.0307 -0.693836,0.13187 -0.296036,0.33383 -0.323718,0.45806 -0.110959,0.49696 0.12227,0.37332 0.603349,0.20258 0.495598,-0.0942 0.360098,-0.26674 z"
       style="fill:#164f86;fill-opacity:1;fill-rule:nonzero;stroke:none;stroke-width:0.330729"
       id="path30665"
       inkscape:connector-curvature="0" />
    <path
       d="m 98.869421,156.47532 -1.169492,-0.76167 -1.437107,-0.007 -1.029259,0.39575 -0.331596,1.21457 0.151038,1.24645 0.90124,0.52318 1.265905,0.56932 1.458672,0.18458 1.168796,-0.23195 0.825002,-1.09372 -0.10788,-0.89032 -0.676111,-0.64079 z"
       style="fill:#164f86;fill-opacity:1;fill-rule:nonzero;stroke:none;stroke-width:0.330729"
       id="path30667"
       inkscape:connector-curvature="0" />
    <path
       d="m 107.7413,142.16044 -0.33983,-0.47503 -0.46523,-0.10411 -0.35375,0.13203 -0.16973,0.60348 -0.015,0.65378 0.26512,0.33315 0.3809,0.38252 0.46308,0.19751 0.39056,-0.0377 0.32339,-0.50651 0.0107,-0.46699 -0.18613,-0.37806 z"
       style="fill:#164f86;fill-opacity:1;fill-rule:nonzero;stroke:none;stroke-width:0.330729"
       id="path30669"
       inkscape:connector-curvature="0" />
    <path
       d="m 107.52708,160.45767 1.1049,0.32454 1.01895,-0.3807 0.58383,-0.60854 -0.20819,-1.10785 -0.56115,-1.00482 -0.82824,-0.19662 -1.10299,-0.13732 -1.09911,0.2372 -0.74219,0.50866 -0.18494,1.13904 0.40088,0.71774 0.71182,0.35577 z"
       style="fill:#164f86;fill-opacity:1;fill-rule:nonzero;stroke:none;stroke-width:0.330729"
       id="path30671"
       inkscape:connector-curvature="0" />
    <path
       d="m 99.643559,152.0036 0.35345,-0.44192 -0.0072,-0.49828 -0.195395,-0.33761 -0.579371,-0.0564 -0.591046,0.11231 -0.242061,0.33748 -0.261375,0.46606 -0.07723,0.51432 0.1186,0.39383 0.525462,0.23327 0.422209,-0.0802 0.299542,-0.26511 z"
       style="fill:#164f86;fill-opacity:1;fill-rule:nonzero;stroke:none;stroke-width:0.330729"
       id="path30673"
       inkscape:connector-curvature="0" />
    <path
       d="m 100.24191,153.78345 -0.551454,-0.24411 -0.527215,0.13825 -0.312837,0.2878 0.07511,0.6052 0.256977,0.57279 0.414635,0.15802 0.555594,0.14393 0.56396,-0.0564 0.39039,-0.2243 0.12511,-0.59677 -0.18355,-0.40911 -0.35124,-0.23561 z"
       style="fill:#164f86;fill-opacity:1;fill-rule:nonzero;stroke:none;stroke-width:0.330729"
       id="path30675"
       inkscape:connector-curvature="0" />
    <path
       d="m 112.33651,147.6181 0.35015,-0.45915 -0.0115,-0.52123 -0.19866,-0.35484 -0.58083,-0.0641 -0.59105,0.11232 -0.23951,0.35087 -0.25774,0.48521 -0.0729,0.53727 0.12221,0.41298 0.5284,0.24858 0.42218,-0.0802 0.29775,-0.27467 z"
       style="fill:#164f86;fill-opacity:1;fill-rule:nonzero;stroke:none;stroke-width:0.330729"
       id="path30677"
       inkscape:connector-curvature="0" />
    <path
       d="m 108.30258,154.4889 -0.35679,-0.49878 -0.48849,-0.10933 -0.37148,0.13864 -0.17819,0.63367 -0.0158,0.68643 0.27838,0.34982 0.39995,0.40167 0.48624,0.2074 0.4101,-0.0396 0.33953,-0.53187 0.0113,-0.49031 -0.19546,-0.39697 z"
       style="fill:#164f86;fill-opacity:1;fill-rule:nonzero;stroke:none;stroke-width:0.330729"
       id="path30679"
       inkscape:connector-curvature="0" />
    <path
       d="m 113.34593,154.65158 -0.76388,-0.33529 -1.02675,-0.0871 -0.77338,0.0775 -0.35222,0.40495 -0.0102,0.44456 0.59468,0.23604 0.85104,0.27372 1.02529,0.15064 0.85758,-0.0121 0.69351,-0.33357 0.007,-0.31754 -0.42257,-0.26385 z"
       style="fill:#164f86;fill-opacity:1;fill-rule:nonzero;stroke:none;stroke-width:0.330729"
       id="path30681"
       inkscape:connector-curvature="0" />
    <path
       d="m 114.13151,150.9746 -0.38057,-0.53204 -0.52106,-0.11662 -0.39621,0.14787 -0.19011,0.67591 -0.0168,0.73224 0.29693,0.37313 0.42661,0.42842 0.51865,0.22123 0.43742,-0.0423 0.36218,-0.5673 0.012,-0.52301 -0.20849,-0.42344 z"
       style="fill:#164f86;fill-opacity:1;fill-rule:nonzero;stroke:none;stroke-width:0.330729"
       id="path30683"
       inkscape:connector-curvature="0" />
    <path
       d="m 112.92167,156.87815 -0.35338,-0.49404 -0.48386,-0.10828 -0.36787,0.13728 -0.17654,0.62766 -0.0156,0.67991 0.27573,0.34648 0.39611,0.39783 0.48164,0.20542 0.40617,-0.0393 0.33632,-0.52675 0.0112,-0.48568 -0.19361,-0.39317 z"
       style="fill:#164f86;fill-opacity:1;fill-rule:nonzero;stroke:none;stroke-width:0.330729"
       id="path30685"
       inkscape:connector-curvature="0" />
    <path
       d="m 98.892274,150.46501 0.204986,0.83672 0.585457,-0.3179 -0.397239,0.57282 0.574014,0.34333 h -0.557213 v 0.68888 l -0.335359,-0.57282 -0.484651,0.57282 0.205019,-0.68888 h -0.61294 l 0.574013,-0.34333 -0.397205,-0.57282 0.641118,0.3179 z"
       style="fill:#f39019;fill-opacity:1;fill-rule:nonzero;stroke:none;stroke-width:0.330729"
       id="path30687"
       inkscape:connector-curvature="0" />
    <g
       id="g30689"
       transform="matrix(0.20499586,0,0,0.20499586,98.051395,150.58742)">
      <path
         d="m 4.101891,-0.5971947 1,4.0816577 L 7.957712,1.933731 6.019974,4.728052 8.820087,6.402805 H 6.101891 V 9.763246 L 4.46603,6.968924 2.101891,9.763246 l 1,-3.360441 H 0.1119727 L 2.912085,4.728052 0.9743471,1.933731 4.101891,3.484463 Z"
         style="fill:none;stroke:#ffffff;stroke-width:0.75;stroke-linecap:butt;stroke-linejoin:miter;stroke-miterlimit:4;stroke-dasharray:none;stroke-opacity:1"
         id="path30691"
         inkscape:connector-curvature="0" />
    </g>
    <path
       d="m 102.00579,147.49607 0.13954,0.51802 0.33213,-0.21194 -0.27037,0.38189 0.39071,0.2687 h -0.45247 l 0.13956,0.41943 -0.29465,-0.38186 -0.26352,0.38186 0.13953,-0.41943 h -0.48359 l 0.39073,-0.2687 -0.27041,-0.38189 0.36327,0.21194 z"
       style="fill:#f39019;fill-opacity:1;fill-rule:nonzero;stroke:none;stroke-width:0.222799"
       id="path30693"
       inkscape:connector-curvature="0" />
    <g
       id="g30695"
       transform="matrix(0.13954312,0,0,0.13666724,101.36703,147.53788)">
      <path
         d="m 4.577572,-0.3059387 1,3.7904017 2.38014,-1.550732 -1.937738,2.794321 2.800113,1.966009 H 5.577572 l 1,3.069185 -2.111542,-2.794322 -1.888458,2.794322 1,-3.069185 H 0.1119727 L 2.912085,4.728052 0.9743471,1.933731 3.577572,3.484463 Z"
         style="fill:none;stroke:#ffffff;stroke-width:0.75;stroke-linecap:butt;stroke-linejoin:miter;stroke-miterlimit:4;stroke-dasharray:none;stroke-opacity:1"
         id="path30697"
         inkscape:connector-curvature="0" />
    </g>
    <path
       d="m 104.78123,146.84232 0.14083,0.58013 0.35842,-0.2133 -0.27288,0.38438 0.39432,0.21164 h -0.47986 l 0.14081,0.48093 -0.2741,-0.38436 -0.28918,0.38436 0.14082,-0.48093 h -0.4648 l 0.39433,-0.21164 -0.27287,-0.38438 0.34334,0.2133 z"
       style="fill:#f39019;fill-opacity:1;fill-rule:nonzero;stroke:none;stroke-width:0.224538"
       id="path30699"
       inkscape:connector-curvature="0" />
    <g
       id="g30701"
       transform="matrix(0.14082102,0,0,0.13754912,104.15985,146.94316)">
      <path
         d="m 4.412498,-0.7331123 1,4.2175753 L 7.957712,1.933731 6.019974,4.728052 8.820087,6.266888 H 5.412498 l 1,3.496358 -1.946468,-2.794322 -2.053532,2.794322 1,-3.496358 H 0.1119727 L 2.912085,4.728052 0.9743471,1.933731 3.412498,3.484463 Z"
         style="fill:none;stroke:#ffffff;stroke-width:0.75;stroke-linecap:butt;stroke-linejoin:miter;stroke-miterlimit:4;stroke-dasharray:none;stroke-opacity:1"
         id="path30703"
         inkscape:connector-curvature="0" />
    </g>
    <path
       d="m 103.89675,149.6111 0.33939,1.17386 0.86379,-0.48903 -0.65764,0.88119 0.95031,0.6414 h -1.15646 l 0.33937,0.94644 -0.66059,-0.88117 -0.69691,0.88117 0.33937,-0.94644 h -1.12015 l 0.95031,-0.6414 -0.65759,-0.88119 0.82743,0.48903 z"
       style="fill:#f39019;fill-opacity:1;fill-rule:nonzero;stroke:none;stroke-width:0.527791"
       id="path30705"
       inkscape:connector-curvature="0" />
    <g
       id="g30707"
       transform="matrix(0.33937593,0,0,0.3153463,102.39924,149.68613)">
      <path
         d="m 4.412498,-0.2379875 1,3.7224505 2.545214,-1.550732 -1.937738,2.794321 2.800113,2.03396 H 5.412498 l 1,3.001234 -1.946468,-2.794322 -2.053532,2.794322 1,-3.001234 H 0.1119727 L 2.912085,4.728052 0.9743471,1.933731 3.412498,3.484463 Z"
         style="fill:none;stroke:#ffffff;stroke-width:0.75;stroke-linecap:butt;stroke-linejoin:miter;stroke-miterlimit:4;stroke-dasharray:none;stroke-opacity:1"
         id="path30709"
         inkscape:connector-curvature="0" />
    </g>
    <path
       d="m 105.47697,152.71046 v 0.63664 l 0.49105,-0.2278 -0.29506,0.41046 0.42638,0.20893 h -0.47009 l 0.15227,0.53071 -0.34519,-0.41046 -0.26389,0.41046 v -0.53071 h -0.39911 l 0.42637,-0.20893 -0.29503,-0.41046 0.42003,0.2278 z"
       style="fill:#f39019;fill-opacity:1;fill-rule:nonzero;stroke:none;stroke-width:0.241286"
       id="path30717"
       inkscape:connector-curvature="0" />
    <g
       id="g30719"
       transform="matrix(0.15227025,0,0,0.14689086,104.75628,152.83525)">
      <path
         d="M 4.732895,-0.8496513 V 3.484463 L 7.957712,1.933731 6.019974,4.728052 8.820087,6.150349 H 5.732895 l 1,3.612897 L 4.46603,6.968924 2.732895,9.763246 V 6.150349 H 0.1119727 L 2.912085,4.728052 0.9743471,1.933731 3.732895,3.484463 Z"
         style="fill:none;stroke:#ffffff;stroke-width:0.75;stroke-linecap:butt;stroke-linejoin:miter;stroke-miterlimit:4;stroke-dasharray:none;stroke-opacity:1"
         id="path30721"
         inkscape:connector-curvature="0" />
    </g>
    <path
       d="m 104.41108,153.73869 0.15229,0.59244 0.45258,-0.22782 -0.29504,0.41047 0.42638,0.25314 h -0.43167 v 0.48649 l -0.23133,-0.41046 -0.22548,0.41046 v -0.48649 h -0.43753 l 0.42638,-0.25314 -0.29507,-0.41047 0.45849,0.22782 z"
       style="fill:#f39019;fill-opacity:1;fill-rule:nonzero;stroke:none;stroke-width:0.241286"
       id="path30723"
       inkscape:connector-curvature="0" />
    <g
       id="g30725"
       transform="matrix(0.15227025,0,0,0.14689086,103.80423,153.81929)">
      <path
         d="m 3.985329,-0.5486946 1,4.0331576 L 7.957712,1.933731 6.019974,4.728052 8.820087,6.451305 H 5.985329 V 9.763246 L 4.46603,6.968924 2.985329,9.763246 V 6.451305 H 0.1119727 L 2.912085,4.728052 0.9743471,1.933731 3.985329,3.484463 Z"
         style="fill:none;stroke:#ffffff;stroke-width:0.75;stroke-linecap:butt;stroke-linejoin:miter;stroke-miterlimit:4;stroke-dasharray:none;stroke-opacity:1"
         id="path30727"
         inkscape:connector-curvature="0" />
    </g>
    <path
       d="m 107.29709,141.4452 v 0.88447 l 0.62528,-0.31789 -0.39724,0.57282 0.57402,0.29557 h -0.59704 l 0.20499,0.73663 -0.50053,-0.57282 -0.31945,0.57282 v -0.73663 H 106.314 l 0.57402,-0.29557 -0.39721,-0.57282 0.6013,0.31789 z"
       style="fill:#f39019;fill-opacity:1;fill-rule:nonzero;stroke:none;stroke-width:0.330729"
       id="path30729"
       inkscape:connector-curvature="0" />
    <g
       id="g30731"
       transform="matrix(0.20499586,0,0,0.20499586,106.29105,141.61536)">
      <path
         d="M 4.907654,-0.8301468 V 3.484463 L 7.957712,1.933731 6.019974,4.728052 8.820087,6.169853 H 5.907654 l 1,3.593393 L 4.46603,6.968924 2.907654,9.763246 V 6.169853 H 0.1119727 L 2.912085,4.728052 0.9743471,1.933731 3.907654,3.484463 Z"
         style="fill:none;stroke:#ffffff;stroke-width:0.75;stroke-linecap:butt;stroke-linejoin:miter;stroke-miterlimit:4;stroke-dasharray:none;stroke-opacity:1"
         id="path30733"
         inkscape:connector-curvature="0" />
    </g>
    <path
       d="m 109.75706,144.11012 v 0.783 l 0.63721,-0.3179 -0.39723,0.57283 0.57398,0.39707 h -0.60898 l 0.20502,0.63513 -0.48858,-0.57282 -0.33143,0.57282 v -0.63513 h -0.56115 l 0.57402,-0.39707 -0.39724,-0.57283 0.58939,0.3179 z"
       style="fill:#f39019;fill-opacity:1;fill-rule:nonzero;stroke:none;stroke-width:0.330729"
       id="path30735"
       inkscape:connector-curvature="0" />
    <g
       id="g30737"
       transform="matrix(0.20499586,0,0,0.20499586,108.76295,144.17881)">
      <path
         d="M 4.84935,-0.3350296 V 3.484463 L 7.957712,1.933731 6.019974,4.728052 8.820087,6.66497 H 5.84935 l 1,3.098276 L 4.46603,6.968924 2.84935,9.763246 V 6.66497 H 0.1119727 L 2.912085,4.728052 0.9743471,1.933731 3.84935,3.484463 Z"
         style="fill:none;stroke:#ffffff;stroke-width:0.75;stroke-linecap:butt;stroke-linejoin:miter;stroke-miterlimit:4;stroke-dasharray:none;stroke-opacity:1"
         id="path30739"
         inkscape:connector-curvature="0" />
    </g>
    <path
       d="m 111.60203,141.65019 0.20499,0.86257 0.60136,-0.31789 -0.3972,0.57282 0.57401,0.31747 H 112.012 v 0.71474 l -0.31938,-0.57283 -0.29561,0.57283 v -0.71474 h -0.59696 l 0.57401,-0.31747 -0.39721,-0.57282 0.62518,0.31789 z"
       style="fill:#f39019;fill-opacity:1;fill-rule:nonzero;stroke:none;stroke-width:0.330729"
       id="path30741"
       inkscape:connector-curvature="0" />
    <g
       id="g30743"
       transform="matrix(0.20499586,0,0,0.20499586,110.77709,141.79846)">
      <path
         d="m 4.024094,-0.7233486 1,4.2078116 L 7.957712,1.933731 6.019974,4.728052 8.820087,6.276651 H 6.024094 V 9.763246 L 4.46603,6.968924 3.024094,9.763246 V 6.276651 H 0.1119727 L 2.912085,4.728052 0.9743471,1.933731 4.024094,3.484463 Z"
         style="fill:none;stroke:#ffffff;stroke-width:0.75;stroke-linecap:butt;stroke-linejoin:miter;stroke-miterlimit:4;stroke-dasharray:none;stroke-opacity:1"
         id="path30745"
         inkscape:connector-curvature="0" />
    </g>
    <path
       d="m 115.08696,140.0102 v 0.85464 l 0.6173,-0.3179 -0.39724,0.57283 0.57405,0.32543 h -0.58913 v 0.70674 l -0.30344,-0.57279 -0.31155,0.57279 v -0.70674 h -0.58102 l 0.57401,-0.32543 -0.39724,-0.57283 0.60924,0.3179 z"
       style="fill:#f39019;fill-opacity:1;fill-rule:nonzero;stroke:none;stroke-width:0.330729"
       id="path30747"
       inkscape:connector-curvature="0" />
    <g
       id="g30749"
       transform="matrix(0.20499586,0,0,0.20499586,114.07297,140.15053)">
      <path
         d="M 4.946327,-0.6845036 V 3.484463 L 7.957712,1.933731 6.019974,4.728052 8.820087,6.315496 h -2.87376 v 3.44775 L 4.46603,6.968924 2.946327,9.763246 V 6.315496 H 0.1119727 L 2.912085,4.728052 0.9743471,1.933731 3.946327,3.484463 Z"
         style="fill:none;stroke:#ffffff;stroke-width:0.75;stroke-linecap:butt;stroke-linejoin:miter;stroke-miterlimit:4;stroke-dasharray:none;stroke-opacity:1"
         id="path30751"
         inkscape:connector-curvature="0" />
    </g>
    <path
       d="m 109.14207,138.57524 0.20498,0.91631 0.58943,-0.31789 -0.39721,0.57282 0.57402,0.26372 h -0.56122 v 0.76849 l -0.33136,-0.57283 -0.48865,0.57283 0.20502,-0.76849 h -0.60894 l 0.57402,-0.26372 -0.39721,-0.57282 0.63712,0.31789 z"
       style="fill:#f39019;fill-opacity:1;fill-rule:nonzero;stroke:none;stroke-width:0.330729"
       id="path30753"
       inkscape:connector-curvature="0" />
    <g
       id="g30755"
       transform="matrix(0.20499586,0,0,0.20499586,108.30519,138.77728)">
      <path
         d="m 4.082382,-0.9854574 1,4.4699204 2.87533,-1.550732 -1.937738,2.794321 2.800113,1.286491 H 6.082382 V 9.763246 L 4.46603,6.968924 2.082382,9.763246 l 1,-3.748703 H 0.1119727 L 2.912085,4.728052 0.9743471,1.933731 4.082382,3.484463 Z"
         style="fill:none;stroke:#ffffff;stroke-width:0.75;stroke-linecap:butt;stroke-linejoin:miter;stroke-miterlimit:4;stroke-dasharray:none;stroke-opacity:1"
         id="path30757"
         inkscape:connector-curvature="0" />
    </g>
    <path
       d="m 111.60203,146.16008 0.20499,0.74718 0.60136,-0.31789 -0.3972,0.57282 0.57401,0.22787 H 112.012 v 0.8043 l -0.31938,-0.57282 -0.29561,0.57282 v -0.8043 h -0.59696 l 0.57401,-0.22787 -0.39721,-0.57282 0.62518,0.31789 z"
       style="fill:#f39019;fill-opacity:1;fill-rule:nonzero;stroke:none;stroke-width:0.330729"
       id="path30759"
       inkscape:connector-curvature="0" />
    <g
       id="g30761"
       transform="matrix(0.20499586,0,0,0.20499586,110.77709,146.19295)">
      <path
         d="m 4.024094,-0.1602898 1,3.6447528 L 7.957712,1.933731 6.019974,4.728052 8.820087,5.83971 H 6.024094 V 9.763246 L 4.46603,6.968924 3.024094,9.763246 V 5.83971 H 0.1119727 L 2.912085,4.728052 0.9743471,1.933731 4.024094,3.484463 Z"
         style="fill:none;stroke:#ffffff;stroke-width:0.75;stroke-linecap:butt;stroke-linejoin:miter;stroke-miterlimit:4;stroke-dasharray:none;stroke-opacity:1"
         id="path30763"
         inkscape:connector-curvature="0" />
    </g>
    <path
       d="m 113.44697,150.46501 0.20502,0.83672 0.58741,-0.3179 -0.39721,0.57282 0.57402,0.34333 h -0.55923 v 0.68888 l -0.33335,-0.57282 -0.48663,0.57282 0.20498,-0.68888 h -0.61092 l 0.57402,-0.34333 -0.39721,-0.57282 0.6391,0.3179 z"
       style="fill:#f39019;fill-opacity:1;fill-rule:nonzero;stroke:none;stroke-width:0.330729"
       id="path30765"
       inkscape:connector-curvature="0" />
    <g
       id="g30767"
       transform="matrix(0.20499586,0,0,0.20499586,112.60811,150.58742)">
      <path
         d="m 4.092064,-0.5971947 1,4.0816577 L 7.957712,1.933731 6.019974,4.728052 8.820087,6.402805 H 6.092064 V 9.763246 L 4.46603,6.968924 2.092064,9.763246 l 1,-3.360441 H 0.1119727 L 2.912085,4.728052 0.9743471,1.933731 4.092064,3.484463 Z"
         style="fill:none;stroke:#ffffff;stroke-width:0.75;stroke-linecap:butt;stroke-linejoin:miter;stroke-miterlimit:4;stroke-dasharray:none;stroke-opacity:1"
         id="path30769"
         inkscape:connector-curvature="0" />
    </g>
    <path
       d="m 112.42201,156.20489 v 0.86462 l 0.62726,-0.31793 -0.39724,0.57282 0.57401,0.31545 h -0.59905 l 0.20499,0.71676 -0.49851,-0.57282 -0.32147,0.57282 v -0.71676 h -0.5711 l 0.57401,-0.31545 -0.3972,-0.57282 0.59931,0.31793 z"
       style="fill:#f39019;fill-opacity:1;fill-rule:nonzero;stroke:none;stroke-width:0.330729"
       id="path30771"
       inkscape:connector-curvature="0" />
    <g
       id="g30773"
       transform="matrix(0.20499586,0,0,0.20499586,111.41798,156.3552)">
      <path
         d="M 4.897842,-0.7331963 V 3.484463 L 7.957712,1.933731 6.019974,4.728052 8.820087,6.266804 H 5.897842 l 1,3.496442 L 4.46603,6.968924 2.897842,9.763246 V 6.266804 H 0.1119727 L 2.912085,4.728052 0.9743471,1.933731 3.897842,3.484463 Z"
         style="fill:none;stroke:#ffffff;stroke-width:0.75;stroke-linecap:butt;stroke-linejoin:miter;stroke-miterlimit:4;stroke-dasharray:none;stroke-opacity:1"
         id="path30775"
         inkscape:connector-curvature="0" />
    </g>
    <path
       d="m 112.42201,153.94994 v 0.73921 l 0.62726,-0.31789 -0.39724,0.57282 0.57401,0.23584 h -0.59905 l 0.20499,0.79637 -0.49851,-0.57286 -0.32147,0.57286 v -0.79637 h -0.5711 l 0.57401,-0.23584 -0.3972,-0.57282 0.59931,0.31789 z"
       style="fill:#f39019;fill-opacity:1;fill-rule:nonzero;stroke:none;stroke-width:0.330729"
       id="path30777"
       inkscape:connector-curvature="0" />
    <g
       id="g30779"
       transform="matrix(0.20499586,0,0,0.20499586,111.41798,153.97485)">
      <path
         d="M 4.897842,-0.1215096 V 3.484463 L 7.957712,1.933731 6.019974,4.728052 8.820087,5.87849 H 5.897842 l 1,3.884756 L 4.46603,6.968924 2.897842,9.763246 V 5.87849 H 0.1119727 L 2.912085,4.728052 0.9743471,1.933731 3.897842,3.484463 Z"
         style="fill:none;stroke:#ffffff;stroke-width:0.75;stroke-linecap:butt;stroke-linejoin:miter;stroke-miterlimit:4;stroke-dasharray:none;stroke-opacity:1"
         id="path30781"
         inkscape:connector-curvature="0" />
    </g>
    <path
       d="m 106.6821,157.43487 0.20502,0.91635 0.48594,-0.3179 -0.39724,0.57282 0.57402,0.2637 h -0.66272 l 0.20499,0.76851 -0.43484,-0.57282 -0.38514,0.57282 0.20499,-0.76851 h -0.71243 l 0.57405,-0.2637 -0.39724,-0.57282 0.53562,0.3179 z"
       style="fill:#f39019;fill-opacity:1;fill-rule:nonzero;stroke:none;stroke-width:0.330729"
       id="path30783"
       inkscape:connector-curvature="0" />
    <g
       id="g30785"
       transform="matrix(0.20499586,0,0,0.20499586,105.74177,157.63691)">
      <path
         d="m 4.587234,-0.9856453 1,4.4701083 L 7.957712,1.933731 6.019974,4.728052 8.820087,6.014355 H 5.587234 l 1,3.748891 -2.121204,-2.794322 -1.878796,2.794322 1,-3.748891 H 0.1119727 L 2.912085,4.728052 0.9743471,1.933731 3.587234,3.484463 Z"
         style="fill:none;stroke:#ffffff;stroke-width:0.75;stroke-linecap:butt;stroke-linejoin:miter;stroke-miterlimit:4;stroke-dasharray:none;stroke-opacity:1"
         id="path30787"
         inkscape:connector-curvature="0" />
    </g>
    <path
       d="m 108.73206,158.04986 0.20502,0.75912 0.54164,-0.3179 -0.39721,0.57283 0.57401,0.42092 h -0.71844 l 0.20499,0.61128 -0.37912,-0.57282 -0.44086,0.57282 0.20499,-0.61128 h -0.6567 l 0.57401,-0.42092 -0.39723,-0.57283 0.47992,0.3179 z"
       style="fill:#f39019;fill-opacity:1;fill-rule:nonzero;stroke:none;stroke-width:0.330729"
       id="path30789"
       inkscape:connector-curvature="0" />
    <g
       id="g30791"
       transform="matrix(0.20499586,0,0,0.20499586,107.84743,158.09467)">
      <path
         d="m 4.315399,-0.2186317 1,3.7030947 L 7.957712,1.933731 6.019974,4.728052 8.820087,6.781368 H 5.315399 l 1,2.981878 -1.849369,-2.794322 -2.150631,2.794322 1,-2.981878 H 0.1119727 L 2.912085,4.728052 0.9743471,1.933731 3.315399,3.484463 Z"
         style="fill:none;stroke:#ffffff;stroke-width:0.75;stroke-linecap:butt;stroke-linejoin:miter;stroke-miterlimit:4;stroke-dasharray:none;stroke-opacity:1"
         id="path30793"
         inkscape:connector-curvature="0" />
    </g>
    <path
       d="m 102.78721,157.43487 0.20498,0.8248 0.53568,-0.31789 -0.39724,0.57282 0.57402,0.35524 h -0.71246 l 0.20499,0.67696 -0.38507,-0.57282 -0.43491,0.57282 0.20499,-0.67696 h -0.66265 l 0.57401,-0.35524 -0.39724,-0.57282 0.48588,0.31789 z"
       style="fill:#f39019;fill-opacity:1;fill-rule:nonzero;stroke:none;stroke-width:0.330729"
       id="path30795"
       inkscape:connector-curvature="0" />
    <g
       id="g30797"
       transform="matrix(0.20499586,0,0,0.20499586,101.89658,157.54536)">
      <path
         d="m 4.344566,-0.5390816 1,4.0235446 L 7.957712,1.933731 6.019974,4.728052 8.820087,6.460918 H 5.344566 l 1,3.302328 -1.878536,-2.794322 -2.121464,2.794322 1,-3.302328 H 0.1119727 L 2.912085,4.728052 0.9743471,1.933731 3.344566,3.484463 Z"
         style="fill:none;stroke:#ffffff;stroke-width:0.75;stroke-linecap:butt;stroke-linejoin:miter;stroke-miterlimit:4;stroke-dasharray:none;stroke-opacity:1"
         id="path30799"
         inkscape:connector-curvature="0" />
    </g>
    <path
       d="m 96.227328,156.40987 0.204996,0.84273 0.503826,-0.31789 -0.397229,0.57282 0.574014,0.33734 h -0.680611 l 0.204996,0.69486 -0.416951,-0.57285 -0.403033,0.57285 0.204996,-0.69486 h -0.694525 l 0.574011,-0.33734 -0.397229,-0.57282 0.517743,0.31789 z"
       style="fill:#f39019;fill-opacity:1;fill-rule:nonzero;stroke:none;stroke-width:0.330729"
       id="path30801"
       inkscape:connector-curvature="0" />
    <g
       id="g30803"
       transform="matrix(0.20499586,0,0,0.20499586,95.304852,156.53829)">
      <path
         d="m 4.499969,-0.6264076 1,4.1108706 2.457743,-1.550732 -1.937738,2.794321 2.800113,1.64554 H 5.499969 l 1,3.389654 -2.033939,-2.794322 -1.966061,2.794322 1,-3.389654 H 0.1119727 L 2.912085,4.728052 0.9743471,1.933731 3.499969,3.484463 Z"
         style="fill:none;stroke:#ffffff;stroke-width:0.75;stroke-linecap:butt;stroke-linejoin:miter;stroke-miterlimit:4;stroke-dasharray:none;stroke-opacity:1"
         id="path30805"
         inkscape:connector-curvature="0" />
    </g>
    <path
       d="m 98.687288,156.61489 v 0.91238 l 0.629212,-0.31789 -0.397238,0.57282 0.574013,0.26766 h -0.601001 l 0.204986,0.76451 -0.496557,-0.57282 -0.32342,0.57282 v -0.76451 h -0.569119 l 0.574014,-0.26766 -0.397239,-0.57282 0.59733,0.31789 z"
       style="fill:#f39019;fill-opacity:1;fill-rule:nonzero;stroke:none;stroke-width:0.330729"
       id="path30807"
       inkscape:connector-curvature="0" />
    <g
       id="g30809"
       transform="matrix(0.20499586,0,0,0.20499586,97.685212,156.81296)">
      <path
         d="M 4.888283,-0.9662209 V 3.484463 L 7.957712,1.933731 6.019974,4.728052 8.820087,6.033779 H 5.888283 l 1,3.729467 L 4.46603,6.968924 2.888283,9.763246 V 6.033779 H 0.1119727 L 2.912085,4.728052 0.9743471,1.933731 3.888283,3.484463 Z"
         style="fill:none;stroke:#ffffff;stroke-width:0.75;stroke-linecap:butt;stroke-linejoin:miter;stroke-miterlimit:4;stroke-dasharray:none;stroke-opacity:1"
         id="path30811"
         inkscape:connector-curvature="0" />
    </g>
    <path
       d="m 110.37205,149.44002 v 0.85464 l 0.66308,-0.3179 -0.39724,0.57282 0.57401,0.32541 h -0.63487 l 0.20499,0.7068 -0.46269,-0.57282 -0.35729,0.57282 0.20502,-0.7068 h -0.7403 l 0.57401,-0.32541 -0.3972,-0.57282 0.56349,0.3179 z"
       style="fill:#f39019;fill-opacity:1;fill-rule:nonzero;stroke:none;stroke-width:0.330729"
       id="path30813"
       inkscape:connector-curvature="0" />
    <g
       id="g30815"
       transform="matrix(0.20499586,0,0,0.20499586,109.40384,149.58038)">
      <path
         d="M 4.723145,-0.6845818 V 3.484463 L 7.957712,1.933731 6.019974,4.728052 8.820087,6.315418 H 5.723145 l 1,3.447828 -2.257115,-2.794322 -1.742885,2.794322 1,-3.447828 H 0.1119727 L 2.912085,4.728052 0.9743471,1.933731 3.723145,3.484463 Z"
         style="fill:none;stroke:#ffffff;stroke-width:0.75;stroke-linecap:butt;stroke-linejoin:miter;stroke-miterlimit:4;stroke-dasharray:none;stroke-opacity:1"
         id="path30817"
         inkscape:connector-curvature="0" />
    </g>
    <path
       d="m 103.81217,142.06016 0.20502,0.91037 0.6093,-0.3179 -0.39721,0.57282 0.57402,0.26971 h -0.58113 v 0.7625 l -0.31144,-0.57282 -0.30355,0.57282 v -0.7625 h -0.58903 l 0.57402,-0.26971 -0.39724,-0.57282 0.61724,0.3179 z"
       style="fill:#f39019;fill-opacity:1;fill-rule:nonzero;stroke:none;stroke-width:0.330729"
       id="path30819"
       inkscape:connector-curvature="0" />
    <g
       id="g30821"
       transform="matrix(0.20499586,0,0,0.20499586,102.9952,142.25625)">
      <path
         d="m 3.985329,-0.9563732 1,4.4408362 L 7.957712,1.933731 6.019974,4.728052 8.820087,6.043627 H 5.985329 V 9.763246 L 4.46603,6.968924 2.985329,9.763246 V 6.043627 H 0.1119727 L 2.912085,4.728052 0.9743471,1.933731 3.985329,3.484463 Z"
         style="fill:none;stroke:#ffffff;stroke-width:0.75;stroke-linecap:butt;stroke-linejoin:miter;stroke-miterlimit:4;stroke-dasharray:none;stroke-opacity:1"
         id="path30823"
         inkscape:connector-curvature="0" />
    </g>
    <path
       d="m 104.63215,137.96024 0.20501,0.79891 0.52176,-0.31789 -0.39724,0.57282 0.57402,0.38116 h -0.69854 l 0.20499,0.65105 -0.39902,-0.57283 -0.42096,0.57283 0.20499,-0.65105 h -0.67661 l 0.57402,-0.38116 -0.39721,-0.57282 0.4998,0.31789 z"
       style="fill:#f39019;fill-opacity:1;fill-rule:nonzero;stroke:none;stroke-width:0.330729"
       id="path30825"
       inkscape:connector-curvature="0" />
    <g
       id="g30827"
       transform="matrix(0.20499586,0,0,0.20499586,103.7276,138.04484)">
      <path
         d="m 4.412498,-0.4126329 1,3.8970959 L 7.957712,1.933731 6.019974,4.728052 8.820087,6.587367 H 5.412498 l 1,3.175879 -1.946468,-2.794322 -2.053532,2.794322 1,-3.175879 H 0.1119727 L 2.912085,4.728052 0.9743471,1.933731 3.412498,3.484463 Z"
         style="fill:none;stroke:#ffffff;stroke-width:0.75;stroke-linecap:butt;stroke-linejoin:miter;stroke-miterlimit:4;stroke-dasharray:none;stroke-opacity:1"
         id="path30829"
         inkscape:connector-curvature="0" />
    </g>
    <path
       d="m 105.86213,136.32029 0.20502,0.88249 0.57348,-0.3179 -0.39724,0.57282 0.57401,0.29756 h -0.54527 v 0.73461 l -0.34726,-0.57282 -0.47272,0.57282 0.20499,-0.73461 h -0.62485 l 0.57402,-0.29756 -0.39724,-0.57282 0.65306,0.3179 z"
       style="fill:#f39019;fill-opacity:1;fill-rule:nonzero;stroke:none;stroke-width:0.330729"
       id="path30831"
       inkscape:connector-curvature="0" />
    <g
       id="g30833"
       transform="matrix(0.20499586,0,0,0.20499586,105.00934,136.48847)">
      <path
         d="m 4.160072,-0.8203876 1,4.3048506 2.79764,-1.550732 -1.937738,2.794321 2.800113,1.45156 H 6.160072 V 9.763246 L 4.46603,6.968924 2.160072,9.763246 l 1,-3.583634 H 0.1119727 L 2.912085,4.728052 0.9743471,1.933731 4.160072,3.484463 Z"
         style="fill:none;stroke:#ffffff;stroke-width:0.75;stroke-linecap:butt;stroke-linejoin:miter;stroke-miterlimit:4;stroke-dasharray:none;stroke-opacity:1"
         id="path30835"
         inkscape:connector-curvature="0" />
    </g>
    <path
       d="m 96.842316,140.62519 v 0.78896 l 0.643135,-0.3179 -0.397218,0.57282 0.574026,0.39109 h -0.614948 l 0.204996,0.64112 -0.482626,-0.57282 -0.337357,0.57282 v -0.64112 h -0.555208 l 0.574013,-0.39109 -0.397229,-0.57282 0.58342,0.3179 z"
       style="fill:#f39019;fill-opacity:1;fill-rule:nonzero;stroke:none;stroke-width:0.330729"
       id="path30837"
       inkscape:connector-curvature="0" />
    <g
       id="g30839"
       transform="matrix(0.20499586,0,0,0.20499586,95.854163,140.69984)">
      <path
         d="M 4.820358,-0.3641167 V 3.484463 L 7.957712,1.933731 6.019974,4.728052 8.820087,6.635883 H 5.820358 l 1,3.127363 L 4.46603,6.968924 2.820358,9.763246 V 6.635883 H 0.1119727 L 2.912085,4.728052 0.9743471,1.933731 3.820358,3.484463 Z"
         style="fill:none;stroke:#ffffff;stroke-width:0.75;stroke-linecap:butt;stroke-linejoin:miter;stroke-miterlimit:4;stroke-dasharray:none;stroke-opacity:1"
         id="path30841"
         inkscape:connector-curvature="0" />
    </g>
    <path
       d="m 98.482269,142.88017 v 0.91434 l 0.651107,-0.3179 -0.397206,0.57282 0.574014,0.26571 h -0.622896 l 0.204986,0.76646 -0.474662,-0.57282 -0.345315,0.57282 v -0.76646 H 97.52504 l 0.574013,-0.26571 -0.397239,-0.57282 0.575469,0.3179 z"
       style="fill:#f39019;fill-opacity:1;fill-rule:nonzero;stroke:none;stroke-width:0.330729"
       id="path30843"
       inkscape:connector-curvature="0" />
    <g
       id="g30845"
       transform="matrix(0.20499586,0,0,0.20499586,97.502087,143.0802)">
      <path
         d="M 4.781513,-0.9757996 V 3.484463 L 7.957712,1.933731 6.019974,4.728052 8.820087,6.0242 H 5.781513 l 1,3.739046 L 4.46603,6.968924 2.781513,9.763246 V 6.0242 H 0.1119727 L 2.912085,4.728052 0.9743471,1.933731 3.781513,3.484463 Z"
         style="fill:none;stroke:#ffffff;stroke-width:0.75;stroke-linecap:butt;stroke-linejoin:miter;stroke-miterlimit:4;stroke-dasharray:none;stroke-opacity:1"
         id="path30847"
         inkscape:connector-curvature="0" />
    </g>
    <path
       d="m 95.61234,149.85002 0.204996,0.9024 0.569503,-0.3179 -0.397229,0.57282 0.574013,0.27765 h -0.541291 v 0.75456 l -0.351274,-0.57282 -0.468709,0.57282 0.204995,-0.75456 h -0.628848 l 0.57401,-0.27765 -0.397225,-0.57282 0.657059,0.3179 z"
       style="fill:#f39019;fill-opacity:1;fill-rule:nonzero;stroke:none;stroke-width:0.330729"
       id="path30849"
       inkscape:connector-curvature="0" />
    <g
       id="g30851"
       transform="matrix(0.20499586,0,0,0.20499586,94.75554,150.03811)">
      <path
         d="m 4.17959,-0.9175835 1,4.4020465 L 7.957712,1.933731 6.019974,4.728052 8.820087,6.082417 H 6.17959 V 9.763246 L 4.46603,6.968924 2.17959,9.763246 l 1,-3.680829 H 0.1119727 L 2.912085,4.728052 0.9743471,1.933731 4.17959,3.484463 Z"
         style="fill:none;stroke:#ffffff;stroke-width:0.75;stroke-linecap:butt;stroke-linejoin:miter;stroke-miterlimit:4;stroke-dasharray:none;stroke-opacity:1"
         id="path30853"
         inkscape:connector-curvature="0" />
    </g>
    <path
       d="m 99.712251,153.33495 0.205019,0.8049 0.58939,-0.3179 -0.39724,0.57282 0.57402,0.37515 h -0.56118 v 0.65706 l -0.331362,-0.57286 -0.488619,0.57286 0.204986,-0.65706 h -0.608939 l 0.574014,-0.37515 -0.397239,-0.57282 0.63715,0.3179 z"
       style="fill:#f39019;fill-opacity:1;fill-rule:nonzero;stroke:none;stroke-width:0.330729"
       id="path30855"
       inkscape:connector-curvature="0" />
    <g
       id="g30857"
       transform="matrix(0.20499586,0,0,0.20499586,98.875374,153.42554)">
      <path
         d="m 4.082481,-0.441906 1,3.926369 L 7.957712,1.933731 6.019974,4.728052 8.820087,6.558094 H 6.082481 V 9.763246 L 4.46603,6.968924 2.082481,9.763246 l 1,-3.205152 H 0.1119727 L 2.912085,4.728052 0.9743471,1.933731 4.082481,3.484463 Z"
         style="fill:none;stroke:#ffffff;stroke-width:0.75;stroke-linecap:butt;stroke-linejoin:miter;stroke-miterlimit:4;stroke-dasharray:none;stroke-opacity:1"
         id="path30859"
         inkscape:connector-curvature="0" />
    </g>
    <path
       d="m 107.7071,153.94994 0.20499,0.73921 0.55959,-0.31789 -0.39724,0.57282 0.57401,0.23584 h -0.73636 l 0.20501,0.79637 -0.36122,-0.57286 -0.45879,0.57286 0.20502,-0.79637 h -0.6388 l 0.57405,-0.23584 -0.39728,-0.57282 0.66702,0.31789 z"
       style="fill:#f39019;fill-opacity:1;fill-rule:nonzero;stroke:none;stroke-width:0.330729"
       id="path30861"
       inkscape:connector-curvature="0" />
    <g
       id="g30863"
       transform="matrix(0.20499586,0,0,0.20499586,106.84036,153.97485)">
      <path
         d="m 4.228035,-0.1215096 1,3.6059726 L 7.957712,1.933731 6.019974,4.728052 8.820087,5.87849 H 5.228035 l 1,3.884756 -1.762005,-2.794322 -2.237995,2.794322 1,-3.884756 H 0.1119727 L 2.912085,4.728052 0.9743471,1.933731 4.228035,3.484463 Z"
         style="fill:none;stroke:#ffffff;stroke-width:0.75;stroke-linecap:butt;stroke-linejoin:miter;stroke-miterlimit:4;stroke-dasharray:none;stroke-opacity:1"
         id="path30865"
         inkscape:connector-curvature="0" />
    </g>
    <path
       d="m 98.892274,146.3651 0.204986,0.81683 0.493878,-0.31793 -0.397206,0.57283 0.574014,0.36324 H 99.09726 l 0.205019,0.66896 -0.426905,-0.57282 -0.393105,0.57282 0.205019,-0.66896 h -0.704486 l 0.574014,-0.36324 -0.397239,-0.57283 0.527711,0.31793 z"
       style="fill:#f39019;fill-opacity:1;fill-rule:nonzero;stroke:none;stroke-width:0.330729"
       id="path30867"
       inkscape:connector-curvature="0" />
    <g
       id="g30869"
       transform="matrix(0.20499586,0,0,0.20499586,97.959849,146.46762)">
      <path
         d="m 4.548489,-0.5000916 1,3.9845546 L 7.957712,1.933731 6.019974,4.728052 8.820087,6.499908 H 5.548489 l 1,3.263338 -2.082459,-2.794322 -1.917541,2.794322 1,-3.263338 H 0.1119727 L 2.912085,4.728052 0.9743471,1.933731 3.548489,3.484463 Z"
         style="fill:none;stroke:#ffffff;stroke-width:0.75;stroke-linecap:butt;stroke-linejoin:miter;stroke-miterlimit:4;stroke-dasharray:none;stroke-opacity:1"
         id="path30871"
         inkscape:connector-curvature="0" />
    </g>
    <path
       d="m 94.177369,148.21004 v 0.89445 l 0.653091,-0.31789 -0.397229,0.57282 0.574014,0.28562 h -0.62488 l 0.204996,0.74659 -0.472681,-0.57283 -0.347302,0.57283 v -0.74659 h -0.54526 l 0.57401,-0.28562 -0.397229,-0.57282 0.573474,0.31789 z"
       style="fill:#f39019;fill-opacity:1;fill-rule:nonzero;stroke:none;stroke-width:0.330729"
       id="path30873"
       inkscape:connector-curvature="0" />
    <g
       id="g30875"
       transform="matrix(0.20499586,0,0,0.20499586,93.199162,148.39019)">
      <path
         d="M 4.771837,-0.8787384 V 3.484463 L 7.957712,1.933731 6.019974,4.728052 8.820087,6.121262 h -3.04825 l 1,3.641984 L 4.46603,6.968924 2.771837,9.763246 V 6.121262 H 0.1119727 L 2.912085,4.728052 0.9743471,1.933731 3.771837,3.484463 Z"
         style="fill:none;stroke:#ffffff;stroke-width:0.75;stroke-linecap:butt;stroke-linejoin:miter;stroke-miterlimit:4;stroke-dasharray:none;stroke-opacity:1"
         id="path30877"
         inkscape:connector-curvature="0" />
    </g>
  </g>
</svg>
