<?xml version="1.0" encoding="utf-8" standalone="no"?>
<!DOCTYPE svg PUBLIC "-//W3C//DTD SVG 1.1//EN"
  "http://www.w3.org/Graphics/SVG/1.1/DTD/svg11.dtd">
<!-- Created with matplotlib (http://matplotlib.org/) -->
<svg height="576pt" version="1.1" viewBox="0 0 576 576" width="576pt" xmlns="http://www.w3.org/2000/svg" xmlns:xlink="http://www.w3.org/1999/xlink">
 <defs>
  <style type="text/css">
*{stroke-linecap:butt;stroke-linejoin:round;}
  </style>
 </defs>
 <g id="figure_1">
  <g id="patch_1">
   <path d="M 0 576 
L 576 576 
L 576 0 
L 0 0 
z
" style="fill:#ffffff;"/>
  </g>
  <g id="axes_1">
   <g id="patch_2">
    <path d="M 99.1407 503.08 
L 526.018082 503.08 
L 526.018082 29.363189 
L 99.1407 29.363189 
z
" style="fill:#ffffff;"/>
   </g>
   <g id="PathCollection_1">
    <path clip-path="url(#pd9119f7f2c)" d="M 148.966333 348.27851 
C 149.716711 348.27851 150.436456 347.980382 150.967053 347.449785 
C 151.49765 346.919188 151.795778 346.199443 151.795778 345.449065 
C 151.795778 344.698688 151.49765 343.978942 150.967053 343.448345 
C 150.436456 342.917748 149.716711 342.61962 148.966333 342.61962 
C 148.215955 342.61962 147.49621 342.917748 146.965613 343.448345 
C 146.435016 343.978942 146.136888 344.698688 146.136888 345.449065 
C 146.136888 346.199443 146.435016 346.919188 146.965613 347.449785 
C 147.49621 347.980382 148.215955 348.27851 148.966333 348.27851 
z
" style="fill:#ffe4c5;stroke:#ffe4c5;"/>
    <path clip-path="url(#pd9119f7f2c)" d="M 150.288994 345.403014 
C 151.059506 345.403014 151.798565 345.096886 152.3434 344.552051 
C 152.888234 344.007217 153.194362 343.268158 153.194362 342.497646 
C 153.194362 341.727133 152.888234 340.988075 152.3434 340.44324 
C 151.798565 339.898405 151.059506 339.592277 150.288994 339.592277 
C 149.518481 339.592277 148.779423 339.898405 148.234588 340.44324 
C 147.689753 340.988075 147.383625 341.727133 147.383625 342.497646 
C 147.383625 343.268158 147.689753 344.007217 148.234588 344.552051 
C 148.779423 345.096886 149.518481 345.403014 150.288994 345.403014 
z
" style="fill:#ffe9ce;stroke:#ffe9ce;"/>
    <path clip-path="url(#pd9119f7f2c)" d="M 151.655013 342.652096 
C 152.444836 342.652096 153.202416 342.338296 153.760906 341.779807 
C 154.319395 341.221318 154.633195 340.463737 154.633195 339.673914 
C 154.633195 338.884091 154.319395 338.126511 153.760906 337.568022 
C 153.202416 337.009532 152.444836 336.695732 151.655013 336.695732 
C 150.86519 336.695732 150.10761 337.009532 149.54912 337.568022 
C 148.990631 338.126511 148.676831 338.884091 148.676831 339.673914 
C 148.676831 340.463737 148.990631 341.221318 149.54912 341.779807 
C 150.10761 342.338296 150.86519 342.652096 151.655013 342.652096 
z
" style="fill:#ffeed8;stroke:#ffeed8;"/>
    <path clip-path="url(#pd9119f7f2c)" d="M 152.861419 339.949362 
C 153.671269 339.949362 154.448059 339.627605 155.02071 339.054955 
C 155.593361 338.482304 155.915118 337.705514 155.915118 336.895663 
C 155.915118 336.085813 155.593361 335.309023 155.02071 334.736372 
C 154.448059 334.163721 153.671269 333.841964 152.861419 333.841964 
C 152.051568 333.841964 151.274778 334.163721 150.702127 334.736372 
C 150.129476 335.309023 149.807719 336.085813 149.807719 336.895663 
C 149.807719 337.705514 150.129476 338.482304 150.702127 339.054955 
C 151.274778 339.627605 152.051568 339.949362 152.861419 339.949362 
z
" style="fill:#fff2e1;stroke:#fff2e1;"/>
    <path clip-path="url(#pd9119f7f2c)" d="M 154.101648 337.425321 
C 154.930601 337.425321 155.725714 337.095975 156.311872 336.509816 
C 156.898031 335.923658 157.227377 335.128545 157.227377 334.299592 
C 157.227377 333.47064 156.898031 332.675527 156.311872 332.089369 
C 155.725714 331.50321 154.930601 331.173864 154.101648 331.173864 
C 153.272696 331.173864 152.477583 331.50321 151.891425 332.089369 
C 151.305266 332.675527 150.97592 333.47064 150.97592 334.299592 
C 150.97592 335.128545 151.305266 335.923658 151.891425 336.509816 
C 152.477583 337.095975 153.272696 337.425321 154.101648 337.425321 
z
" style="fill:#fff4e8;stroke:#fff4e8;"/>
    <path clip-path="url(#pd9119f7f2c)" d="M 156.246379 332.666383 
C 157.113151 332.666383 157.944539 332.322011 158.557439 331.709111 
C 159.17034 331.09621 159.514712 330.264822 159.514712 329.39805 
C 159.514712 328.531278 159.17034 327.699891 158.557439 327.08699 
C 157.944539 326.47409 157.113151 326.129718 156.246379 326.129718 
C 155.379607 326.129718 154.548219 326.47409 153.935319 327.08699 
C 153.322419 327.699891 152.978046 328.531278 152.978046 329.39805 
C 152.978046 330.264822 153.322419 331.09621 153.935319 331.709111 
C 154.548219 332.322011 155.379607 332.666383 156.246379 332.666383 
z
" style="fill:#fff5ed;stroke:#fff5ed;"/>
    <path clip-path="url(#pd9119f7f2c)" d="M 158.262939 328.189081 
C 159.167171 328.189081 160.034489 327.829825 160.673878 327.190437 
C 161.313266 326.551048 161.672522 325.68373 161.672522 324.779498 
C 161.672522 323.875266 161.313266 323.007947 160.673878 322.368559 
C 160.034489 321.72917 159.167171 321.369915 158.262939 321.369915 
C 157.358707 321.369915 156.491388 321.72917 155.852 322.368559 
C 155.212611 323.007947 154.853356 323.875266 154.853356 324.779498 
C 154.853356 325.68373 155.212611 326.551048 155.852 327.190437 
C 156.491388 327.829825 157.358707 328.189081 158.262939 328.189081 
z
" style="fill:#fff7f2;stroke:#fff7f2;"/>
    <path clip-path="url(#pd9119f7f2c)" d="M 161.085018 320.475794 
C 162.049191 320.475794 162.974004 320.092724 163.655777 319.410951 
C 164.33755 318.729178 164.72062 317.804365 164.72062 316.840192 
C 164.72062 315.876019 164.33755 314.951207 163.655777 314.269434 
C 162.974004 313.587661 162.049191 313.204591 161.085018 313.204591 
C 160.120845 313.204591 159.196033 313.587661 158.51426 314.269434 
C 157.832487 314.951207 157.449417 315.876019 157.449417 316.840192 
C 157.449417 317.804365 157.832487 318.729178 158.51426 319.410951 
C 159.196033 320.092724 160.120845 320.475794 161.085018 320.475794 
z
" style="fill:#fdf9fb;stroke:#fdf9fb;"/>
    <path clip-path="url(#pd9119f7f2c)" d="M 163.306309 315.391826 
C 164.316503 315.391826 165.285458 314.990472 165.999773 314.276156 
C 166.714089 313.561841 167.115443 312.592886 167.115443 311.582692 
C 167.115443 310.572498 166.714089 309.603542 165.999773 308.889227 
C 165.285458 308.174912 164.316503 307.773558 163.306309 307.773558 
C 162.296115 307.773558 161.327159 308.174912 160.612844 308.889227 
C 159.898529 309.603542 159.497174 310.572498 159.497174 311.582692 
C 159.497174 312.592886 159.898529 313.561841 160.612844 314.276156 
C 161.327159 314.990472 162.296115 315.391826 163.306309 315.391826 
z
" style="fill:#f8f6ff;stroke:#f8f6ff;"/>
    <path clip-path="url(#pd9119f7f2c)" d="M 166.016929 310.042333 
C 167.07717 310.042333 168.09413 309.621094 168.843834 308.87139 
C 169.593538 308.121686 170.014776 307.104727 170.014776 306.044485 
C 170.014776 304.984244 169.593538 303.967284 168.843834 303.21758 
C 168.09413 302.467876 167.07717 302.046638 166.016929 302.046638 
C 164.956687 302.046638 163.939728 302.467876 163.190024 303.21758 
C 162.44032 303.967284 162.019081 304.984244 162.019081 306.044485 
C 162.019081 307.104727 162.44032 308.121686 163.190024 308.87139 
C 163.939728 309.621094 164.956687 310.042333 166.016929 310.042333 
z
" style="fill:#f0f0ff;stroke:#f0f0ff;"/>
    <path clip-path="url(#pd9119f7f2c)" d="M 170.265636 304.523113 
C 171.379366 304.523113 172.44763 304.080623 173.235156 303.293097 
C 174.022682 302.505571 174.465171 301.437307 174.465171 300.323577 
C 174.465171 299.209848 174.022682 298.141583 173.235156 297.354057 
C 172.44763 296.566531 171.379366 296.124042 170.265636 296.124042 
C 169.151906 296.124042 168.083642 296.566531 167.296116 297.354057 
C 166.50859 298.141583 166.0661 299.209848 166.0661 300.323577 
C 166.0661 301.437307 166.50859 302.505571 167.296116 303.293097 
C 168.083642 304.080623 169.151906 304.523113 170.265636 304.523113 
z
" style="fill:#e4e8ff;stroke:#e4e8ff;"/>
    <path clip-path="url(#pd9119f7f2c)" d="M 175.595687 298.910773 
C 176.765266 298.910773 177.887101 298.446094 178.714118 297.619076 
C 179.541136 296.792058 180.005815 295.670224 180.005815 294.500644 
C 180.005815 293.331064 179.541136 292.20923 178.714118 291.382212 
C 177.887101 290.555195 176.765266 290.090516 175.595687 290.090516 
C 174.426107 290.090516 173.304273 290.555195 172.477255 291.382212 
C 171.650237 292.20923 171.185558 293.331064 171.185558 294.500644 
C 171.185558 295.670224 171.650237 296.792058 172.477255 297.619076 
C 173.304273 298.446094 174.426107 298.910773 175.595687 298.910773 
z
" style="fill:#d5dfff;stroke:#d5dfff;"/>
    <path clip-path="url(#pd9119f7f2c)" d="M 180.55312 293.758228 
C 181.773949 293.758228 182.94494 293.273187 183.808197 292.409931 
C 184.671453 291.546674 185.156494 290.375683 185.156494 289.154854 
C 185.156494 287.934025 184.671453 286.763033 183.808197 285.899777 
C 182.94494 285.03652 181.773949 284.55148 180.55312 284.55148 
C 179.332291 284.55148 178.161299 285.03652 177.298043 285.899777 
C 176.434786 286.763033 175.949746 287.934025 175.949746 289.154854 
C 175.949746 290.375683 176.434786 291.546674 177.298043 292.409931 
C 178.161299 293.273187 179.332291 293.758228 180.55312 293.758228 
z
" style="fill:#c8d6ff;stroke:#c8d6ff;"/>
    <path clip-path="url(#pd9119f7f2c)" d="M 185.877389 288.541673 
C 187.151712 288.541673 188.374015 288.035379 189.275098 287.134296 
C 190.176181 286.233213 190.682475 285.01091 190.682475 283.736586 
C 190.682475 282.462262 190.176181 281.23996 189.275098 280.338877 
C 188.374015 279.437794 187.151712 278.9315 185.877389 278.9315 
C 184.603065 278.9315 183.380762 279.437794 182.479679 280.338877 
C 181.578596 281.23996 181.072302 282.462262 181.072302 283.736586 
C 181.072302 285.01091 181.578596 286.233213 182.479679 287.134296 
C 183.380762 288.035379 184.603065 288.541673 185.877389 288.541673 
z
" style="fill:#bed0ff;stroke:#bed0ff;"/>
    <path clip-path="url(#pd9119f7f2c)" d="M 197.327301 277.731766 
C 198.71655 277.731766 200.049085 277.179812 201.031432 276.197465 
C 202.013779 275.215118 202.565733 273.882583 202.565733 272.493335 
C 202.565733 271.104086 202.013779 269.771551 201.031432 268.789204 
C 200.049085 267.806857 198.71655 267.254903 197.327301 267.254903 
C 195.938053 267.254903 194.605518 267.806857 193.623171 268.789204 
C 192.640824 269.771551 192.08887 271.104086 192.08887 272.493335 
C 192.08887 273.882583 192.640824 275.215118 193.623171 276.197465 
C 194.605518 277.179812 195.938053 277.731766 197.327301 277.731766 
z
" style="fill:#b9cbff;stroke:#b9cbff;"/>
    <path clip-path="url(#pd9119f7f2c)" d="M 217.508771 259.349644 
C 219.107519 259.349644 220.641001 258.714455 221.771486 257.583969 
C 222.901971 256.453484 223.53716 254.920002 223.53716 253.321255 
C 223.53716 251.722507 222.901971 250.189025 221.771486 249.05854 
C 220.641001 247.928055 219.107519 247.292866 217.508771 247.292866 
C 215.910024 247.292866 214.376542 247.928055 213.246057 249.05854 
C 212.115571 250.189025 211.480382 251.722507 211.480382 253.321255 
C 211.480382 254.920002 212.115571 256.453484 213.246057 257.583969 
C 214.376542 258.714455 215.910024 259.349644 217.508771 259.349644 
z
" style="fill:#b7c9ff;stroke:#b7c9ff;"/>
    <path clip-path="url(#pd9119f7f2c)" d="M 241.054726 240.04201 
C 242.898275 240.04201 244.666566 239.30956 245.970153 238.005973 
C 247.273739 236.702387 248.006189 234.934096 248.006189 233.090546 
C 248.006189 231.246996 247.273739 229.478705 245.970153 228.175119 
C 244.666566 226.871532 242.898275 226.139082 241.054726 226.139082 
C 239.211176 226.139082 237.442885 226.871532 236.139298 228.175119 
C 234.835712 229.478705 234.103262 231.246996 234.103262 233.090546 
C 234.103262 234.934096 234.835712 236.702387 236.139298 238.005973 
C 237.442885 239.30956 239.211176 240.04201 241.054726 240.04201 
z
" style="fill:#b3c7ff;stroke:#b3c7ff;"/>
    <path clip-path="url(#pd9119f7f2c)" d="M 261.02988 225.385576 
C 263.076465 225.385576 265.039503 224.572459 266.486658 223.125304 
C 267.933812 221.67815 268.746929 219.715112 268.746929 217.668526 
C 268.746929 215.621941 267.933812 213.658902 266.486658 212.211748 
C 265.039503 210.764594 263.076465 209.951477 261.02988 209.951477 
C 258.983294 209.951477 257.020256 210.764594 255.573101 212.211748 
C 254.125947 213.658902 253.31283 215.621941 253.31283 217.668526 
C 253.31283 219.715112 254.125947 221.67815 255.573101 223.125304 
C 257.020256 224.572459 258.983294 225.385576 261.02988 225.385576 
z
" style="fill:#b0c4ff;stroke:#b0c4ff;"/>
    <path clip-path="url(#pd9119f7f2c)" d="M 278.452478 213.598706 
C 280.679143 213.598706 282.814909 212.714042 284.389399 211.139553 
C 285.963889 209.565063 286.848553 207.429296 286.848553 205.202632 
C 286.848553 202.975967 285.963889 200.8402 284.389399 199.26571 
C 282.814909 197.691221 280.679143 196.806557 278.452478 196.806557 
C 276.225813 196.806557 274.090047 197.691221 272.515557 199.26571 
C 270.941067 200.8402 270.056404 202.975967 270.056404 205.202632 
C 270.056404 207.429296 270.941067 209.565063 272.515557 211.139553 
C 274.090047 212.714042 276.225813 213.598706 278.452478 213.598706 
z
" style="fill:#adc1ff;stroke:#adc1ff;"/>
    <path clip-path="url(#pd9119f7f2c)" d="M 293.558129 203.731223 
C 295.942671 203.731223 298.229869 202.783835 299.915994 201.097709 
C 301.60212 199.411584 302.549508 197.124386 302.549508 194.739845 
C 302.549508 192.355303 301.60212 190.068105 299.915994 188.38198 
C 298.229869 186.695854 295.942671 185.748466 293.558129 185.748466 
C 291.173588 185.748466 288.88639 186.695854 287.200264 188.38198 
C 285.514139 190.068105 284.56675 192.355303 284.56675 194.739845 
C 284.56675 197.124386 285.514139 199.411584 287.200264 201.097709 
C 288.88639 202.783835 291.173588 203.731223 293.558129 203.731223 
z
" style="fill:#aabfff;stroke:#aabfff;"/>
    <path clip-path="url(#pd9119f7f2c)" d="M 307.243618 195.264101 
C 309.771634 195.264101 312.19645 194.25971 313.984027 192.472132 
C 315.771605 190.684555 316.775996 188.259739 316.775996 185.731723 
C 316.775996 183.203707 315.771605 180.778891 313.984027 178.991314 
C 312.19645 177.203736 309.771634 176.199345 307.243618 176.199345 
C 304.715602 176.199345 302.290786 177.203736 300.503209 178.991314 
C 298.715631 180.778891 297.71124 183.203707 297.71124 185.731723 
C 297.71124 188.259739 298.715631 190.684555 300.503209 192.472132 
C 302.290786 194.25971 304.715602 195.264101 307.243618 195.264101 
z
" style="fill:#a8bdff;stroke:#a8bdff;"/>
    <path clip-path="url(#pd9119f7f2c)" d="M 319.499451 187.839199 
C 322.157297 187.839199 324.706643 186.783226 326.586024 184.903845 
C 328.465405 183.024464 329.521378 180.475118 329.521378 177.817272 
C 329.521378 175.159426 328.465405 172.610081 326.586024 170.7307 
C 324.706643 168.851319 322.157297 167.795345 319.499451 167.795345 
C 316.841605 167.795345 314.29226 168.851319 312.412879 170.7307 
C 310.533498 172.610081 309.477524 175.159426 309.477524 177.817272 
C 309.477524 180.475118 310.533498 183.024464 312.412879 184.903845 
C 314.29226 186.783226 316.841605 187.839199 319.499451 187.839199 
z
" style="fill:#a7bcff;stroke:#a7bcff;"/>
    <path clip-path="url(#pd9119f7f2c)" d="M 330.96984 181.258889 
C 333.751345 181.258889 336.419301 180.153786 338.386122 178.186965 
C 340.352943 176.220144 341.458047 173.552187 341.458047 170.770682 
C 341.458047 167.989177 340.352943 165.321221 338.386122 163.3544 
C 336.419301 161.387579 333.751345 160.282476 330.96984 160.282476 
C 328.188335 160.282476 325.520379 161.387579 323.553558 163.3544 
C 321.586737 165.321221 320.481633 167.989177 320.481633 170.770682 
C 320.481633 173.552187 321.586737 176.220144 323.553558 178.186965 
C 325.520379 180.153786 328.188335 181.258889 330.96984 181.258889 
z
" style="fill:#a6bcff;stroke:#a6bcff;"/>
    <path clip-path="url(#pd9119f7f2c)" d="M 341.450103 175.336506 
C 344.343479 175.336506 347.118739 174.186955 349.164665 172.14103 
C 351.21059 170.095104 352.360141 167.319844 352.360141 164.426468 
C 352.360141 161.533092 351.21059 158.757832 349.164665 156.711906 
C 347.118739 154.66598 344.343479 153.51643 341.450103 153.51643 
C 338.556727 153.51643 335.781467 154.66598 333.735541 156.711906 
C 331.689615 158.757832 330.540065 161.533092 330.540065 164.426468 
C 330.540065 167.319844 331.689615 170.095104 333.735541 172.14103 
C 335.781467 174.186955 338.556727 175.336506 341.450103 175.336506 
z
" style="fill:#a6bbff;stroke:#a6bbff;"/>
    <path clip-path="url(#pd9119f7f2c)" d="M 350.745892 169.969689 
C 353.744397 169.969689 356.620496 168.77837 358.74076 166.658107 
C 360.861024 164.537843 362.052342 161.661744 362.052342 158.663239 
C 362.052342 155.664733 360.861024 152.788634 358.74076 150.66837 
C 356.620496 148.548107 353.744397 147.356788 350.745892 147.356788 
C 347.747386 147.356788 344.871287 148.548107 342.751024 150.66837 
C 340.63076 152.788634 339.439441 155.664733 339.439441 158.663239 
C 339.439441 161.661744 340.63076 164.537843 342.751024 166.658107 
C 344.871287 168.77837 347.747386 169.969689 350.745892 169.969689 
z
" style="fill:#a5bbff;stroke:#a5bbff;"/>
    <path clip-path="url(#pd9119f7f2c)" d="M 359.255574 165.059997 
C 362.354098 165.059997 365.326131 163.82894 367.517118 161.637953 
C 369.708106 159.446965 370.939162 156.474932 370.939162 153.376408 
C 370.939162 150.277884 369.708106 147.30585 367.517118 145.114863 
C 365.326131 142.923875 362.354098 141.692819 359.255574 141.692819 
C 356.157049 141.692819 353.185016 142.923875 350.994029 145.114863 
C 348.803041 147.30585 347.571985 150.277884 347.571985 153.376408 
C 347.571985 156.474932 348.803041 159.446965 350.994029 161.637953 
C 353.185016 163.82894 356.157049 165.059997 359.255574 165.059997 
z
" style="fill:#a4baff;stroke:#a4baff;"/>
    <path clip-path="url(#pd9119f7f2c)" d="M 366.872222 160.503155 
C 370.060307 160.503155 373.118245 159.236516 375.372561 156.982199 
C 377.626878 154.727883 378.893517 151.669944 378.893517 148.48186 
C 378.893517 145.293775 377.626878 142.235836 375.372561 139.98152 
C 373.118245 137.727204 370.060307 136.460564 366.872222 136.460564 
C 363.684137 136.460564 360.626199 137.727204 358.371882 139.98152 
C 356.117566 142.235836 354.850926 145.293775 354.850926 148.48186 
C 354.850926 151.669944 356.117566 154.727883 358.371882 156.982199 
C 360.626199 159.236516 363.684137 160.503155 366.872222 160.503155 
z
" style="fill:#a4baff;stroke:#a4baff;"/>
    <path clip-path="url(#pd9119f7f2c)" d="M 374.108295 156.283716 
C 377.382869 156.283716 380.523766 154.982714 382.83924 152.66724 
C 385.154713 150.351766 386.455715 147.210869 386.455715 143.936295 
C 386.455715 140.661721 385.154713 137.520824 382.83924 135.20535 
C 380.523766 132.889876 377.382869 131.588874 374.108295 131.588874 
C 370.83372 131.588874 367.692823 132.889876 365.37735 135.20535 
C 363.061876 137.520824 361.760874 140.661721 361.760874 143.936295 
C 361.760874 147.210869 363.061876 150.351766 365.37735 152.66724 
C 367.692823 154.982714 370.83372 156.283716 374.108295 156.283716 
z
" style="fill:#a3baff;stroke:#a3baff;"/>
    <path clip-path="url(#pd9119f7f2c)" d="M 380.919362 152.361371 
C 384.277936 152.361371 387.499403 151.026995 389.874274 148.652125 
C 392.249144 146.277255 393.583519 143.055787 393.583519 139.697214 
C 393.583519 136.33864 392.249144 133.117173 389.874274 130.742302 
C 387.499403 128.367432 384.277936 127.033057 380.919362 127.033057 
C 377.560789 127.033057 374.339321 128.367432 371.964451 130.742302 
C 369.589581 133.117173 368.255205 136.33864 368.255205 139.697214 
C 368.255205 143.055787 369.589581 146.277255 371.964451 148.652125 
C 374.339321 151.026995 377.560789 152.361371 380.919362 152.361371 
z
" style="fill:#a3b9ff;stroke:#a3b9ff;"/>
    <path clip-path="url(#pd9119f7f2c)" d="M 387.262466 148.693611 
C 390.70224 148.693611 394.001592 147.326974 396.43388 144.894687 
C 398.866167 142.4624 400.232803 139.163047 400.232803 135.723274 
C 400.232803 132.2835 398.866167 128.984148 396.43388 126.551861 
C 394.001592 124.119573 390.70224 122.752937 387.262466 122.752937 
C 383.822693 122.752937 380.52334 124.119573 378.091053 126.551861 
C 375.658766 128.984148 374.292129 132.2835 374.292129 135.723274 
C 374.292129 139.163047 375.658766 142.4624 378.091053 144.894687 
C 380.52334 147.326974 383.822693 148.693611 387.262466 148.693611 
z
" style="fill:#a2b9ff;stroke:#a2b9ff;"/>
    <path clip-path="url(#pd9119f7f2c)" d="M 392.443239 145.288324 
C 395.95605 145.288324 399.325459 143.892669 401.809392 141.408736 
C 404.293325 138.924803 405.68898 135.555394 405.68898 132.042583 
C 405.68898 128.529771 404.293325 125.160362 401.809392 122.676429 
C 399.325459 120.192497 395.95605 118.796842 392.443239 118.796842 
C 388.930427 118.796842 385.561019 120.192497 383.077086 122.676429 
C 380.593153 125.160362 379.197498 128.529771 379.197498 132.042583 
C 379.197498 135.555394 380.593153 138.924803 383.077086 141.408736 
C 385.561019 143.892669 388.930427 145.288324 392.443239 145.288324 
z
" style="fill:#a2b9ff;stroke:#a2b9ff;"/>
    <path clip-path="url(#pd9119f7f2c)" d="M 397.055429 142.089477 
C 400.637671 142.089477 404.073675 140.666238 406.606703 138.13321 
C 409.13973 135.600183 410.56297 132.164178 410.56297 128.581937 
C 410.56297 124.999695 409.13973 121.56369 406.606703 119.030663 
C 404.073675 116.497636 400.637671 115.074396 397.055429 115.074396 
C 393.473187 115.074396 390.037183 116.497636 387.504156 119.030663 
C 384.971128 121.56369 383.547888 124.999695 383.547888 128.581937 
C 383.547888 132.164178 384.971128 135.600183 387.504156 138.13321 
C 390.037183 140.666238 393.473187 142.089477 397.055429 142.089477 
z
" style="fill:#a2b9ff;stroke:#a2b9ff;"/>
    <path clip-path="url(#pd9119f7f2c)" d="M 401.742505 139.08174 
C 405.393447 139.08174 408.895346 137.631205 411.476952 135.0496 
C 414.058557 132.467994 415.509092 128.966095 415.509092 125.315153 
C 415.509092 121.664212 414.058557 118.162312 411.476952 115.580707 
C 408.895346 112.999101 405.393447 111.548567 401.742505 111.548567 
C 398.091564 111.548567 394.589664 112.999101 392.008059 115.580707 
C 389.426453 118.162312 387.975919 121.664212 387.975919 125.315153 
C 387.975919 128.966095 389.426453 132.467994 392.008059 135.0496 
C 394.589664 137.631205 398.091564 139.08174 401.742505 139.08174 
z
" style="fill:#a1b8ff;stroke:#a1b8ff;"/>
    <path clip-path="url(#pd9119f7f2c)" d="M 405.820661 136.243933 
C 409.538408 136.243933 413.104386 134.766856 415.73323 132.138012 
C 418.362074 129.509168 419.839151 125.94319 419.839151 122.225443 
C 419.839151 118.507696 418.362074 114.941718 415.73323 112.312874 
C 413.104386 109.68403 409.538408 108.206953 405.820661 108.206953 
C 402.102914 108.206953 398.536936 109.68403 395.908092 112.312874 
C 393.279248 114.941718 391.802171 118.507696 391.802171 122.225443 
C 391.802171 125.94319 393.279248 129.509168 395.908092 132.138012 
C 398.536936 134.766856 402.102914 136.243933 405.820661 136.243933 
z
" style="fill:#a1b8ff;stroke:#a1b8ff;"/>
   </g>
   <g id="PathCollection_2">
    <path clip-path="url(#pd9119f7f2c)" d="M 118.941275 482.064367 
C 119.172345 482.064367 119.393982 481.972562 119.557374 481.80917 
C 119.720765 481.645779 119.81257 481.424142 119.81257 481.193072 
C 119.81257 480.962001 119.720765 480.740364 119.557374 480.576973 
C 119.393982 480.413581 119.172345 480.321776 118.941275 480.321776 
C 118.710205 480.321776 118.488568 480.413581 118.325176 480.576973 
C 118.161785 480.740364 118.06998 480.962001 118.06998 481.193072 
C 118.06998 481.424142 118.161785 481.645779 118.325176 481.80917 
C 118.488568 481.972562 118.710205 482.064367 118.941275 482.064367 
z
" style="fill:#9b3921;stroke:#9b3921;"/>
    <path clip-path="url(#pd9119f7f2c)" d="M 119.232406 479.315325 
C 119.46911 479.315325 119.696151 479.221281 119.863526 479.053906 
C 120.030901 478.886531 120.124945 478.65949 120.124945 478.422786 
C 120.124945 478.186082 120.030901 477.95904 119.863526 477.791665 
C 119.696151 477.62429 119.46911 477.530247 119.232406 477.530247 
C 118.995702 477.530247 118.76866 477.62429 118.601285 477.791665 
C 118.43391 477.95904 118.339867 478.186082 118.339867 478.422786 
C 118.339867 478.65949 118.43391 478.886531 118.601285 479.053906 
C 118.76866 479.221281 118.995702 479.315325 119.232406 479.315325 
z
" style="fill:#9f3b22;stroke:#9f3b22;"/>
    <path clip-path="url(#pd9119f7f2c)" d="M 119.531727 476.566801 
C 119.774203 476.566801 120.00678 476.470464 120.178236 476.299008 
C 120.349692 476.127552 120.446028 475.894975 120.446028 475.6525 
C 120.446028 475.410024 120.349692 475.177447 120.178236 475.005991 
C 120.00678 474.834535 119.774203 474.738199 119.531727 474.738199 
C 119.289252 474.738199 119.056675 474.834535 118.885219 475.005991 
C 118.713763 475.177447 118.617426 475.410024 118.617426 475.6525 
C 118.617426 475.894975 118.713763 476.127552 118.885219 476.299008 
C 119.056675 476.470464 119.289252 476.566801 119.531727 476.566801 
z
" style="fill:#a43d24;stroke:#a43d24;"/>
    <path clip-path="url(#pd9119f7f2c)" d="M 119.839471 473.818808 
C 120.087858 473.818808 120.326106 473.720122 120.501742 473.544486 
C 120.677379 473.368849 120.776064 473.130602 120.776064 472.882214 
C 120.776064 472.633827 120.677379 472.395579 120.501742 472.219942 
C 120.326106 472.044306 120.087858 471.945621 119.839471 471.945621 
C 119.591083 471.945621 119.352835 472.044306 119.177199 472.219942 
C 119.001562 472.395579 118.902877 472.633827 118.902877 472.882214 
C 118.902877 473.130602 119.001562 473.368849 119.177199 473.544486 
C 119.352835 473.720122 119.591083 473.818808 119.839471 473.818808 
z
" style="fill:#a94025;stroke:#a94025;"/>
    <path clip-path="url(#pd9119f7f2c)" d="M 120.155872 471.071358 
C 120.410316 471.071358 120.654372 470.970266 120.834291 470.790347 
C 121.01421 470.610428 121.115301 470.366372 121.115301 470.111928 
C 121.115301 469.857485 121.01421 469.613428 120.834291 469.433509 
C 120.654372 469.25359 120.410316 469.152499 120.155872 469.152499 
C 119.901428 469.152499 119.657372 469.25359 119.477453 469.433509 
C 119.297534 469.613428 119.196442 469.857485 119.196442 470.111928 
C 119.196442 470.366372 119.297534 470.610428 119.477453 470.790347 
C 119.657372 470.970266 119.901428 471.071358 120.155872 471.071358 
z
" style="fill:#ae4227;stroke:#ae4227;"/>
    <path clip-path="url(#pd9119f7f2c)" d="M 120.481175 468.324465 
C 120.741823 468.324465 120.99183 468.220908 121.176135 468.036603 
C 121.360441 467.852297 121.463997 467.60229 121.463997 467.341642 
C 121.463997 467.080995 121.360441 466.830988 121.176135 466.646682 
C 120.99183 466.462376 120.741823 466.35882 120.481175 466.35882 
C 120.220528 466.35882 119.97052 466.462376 119.786215 466.646682 
C 119.601909 466.830988 119.498353 467.080995 119.498353 467.341642 
C 119.498353 467.60229 119.601909 467.852297 119.786215 468.036603 
C 119.97052 468.220908 120.220528 468.324465 120.481175 468.324465 
z
" style="fill:#b34528;stroke:#b34528;"/>
    <path clip-path="url(#pd9119f7f2c)" d="M 120.815631 465.578142 
C 121.082633 465.578142 121.338736 465.472061 121.527535 465.283261 
C 121.716335 465.094462 121.822416 464.838359 121.822416 464.571357 
C 121.822416 464.304354 121.716335 464.048251 121.527535 463.859452 
C 121.338736 463.670652 121.082633 463.564571 120.815631 463.564571 
C 120.548628 463.564571 120.292525 463.670652 120.103726 463.859452 
C 119.914926 464.048251 119.808845 464.304354 119.808845 464.571357 
C 119.808845 464.838359 119.914926 465.094462 120.103726 465.283261 
C 120.292525 465.472061 120.548628 465.578142 120.815631 465.578142 
z
" style="fill:#b8472a;stroke:#b8472a;"/>
    <path clip-path="url(#pd9119f7f2c)" d="M 121.159496 462.832404 
C 121.433009 462.832404 121.695356 462.723736 121.888758 462.530333 
C 122.082161 462.336931 122.190829 462.074583 122.190829 461.801071 
C 122.190829 461.527558 122.082161 461.265211 121.888758 461.071808 
C 121.695356 460.878406 121.433009 460.769738 121.159496 460.769738 
C 120.885983 460.769738 120.623636 460.878406 120.430234 461.071808 
C 120.236831 461.265211 120.128163 461.527558 120.128163 461.801071 
C 120.128163 462.074583 120.236831 462.336931 120.430234 462.530333 
C 120.623636 462.723736 120.885983 462.832404 121.159496 462.832404 
z
" style="fill:#be4a2b;stroke:#be4a2b;"/>
    <path clip-path="url(#pd9119f7f2c)" d="M 121.513036 460.087264 
C 121.793217 460.087264 122.061961 459.975946 122.260079 459.777828 
C 122.458197 459.57971 122.569515 459.310966 122.569515 459.030785 
C 122.569515 458.750603 122.458197 458.48186 122.260079 458.283742 
C 122.061961 458.085623 121.793217 457.974306 121.513036 457.974306 
C 121.232855 457.974306 120.964111 458.085623 120.765993 458.283742 
C 120.567874 458.48186 120.456557 458.750603 120.456557 459.030785 
C 120.456557 459.310966 120.567874 459.57971 120.765993 459.777828 
C 120.964111 459.975946 121.232855 460.087264 121.513036 460.087264 
z
" style="fill:#c34d2d;stroke:#c34d2d;"/>
    <path clip-path="url(#pd9119f7f2c)" d="M 121.876523 457.342737 
C 122.163536 457.342737 122.438832 457.228706 122.64178 457.025757 
C 122.844729 456.822808 122.958761 456.547512 122.958761 456.260499 
C 122.958761 455.973486 122.844729 455.69819 122.64178 455.495241 
C 122.438832 455.292293 122.163536 455.178261 121.876523 455.178261 
C 121.58951 455.178261 121.314214 455.292293 121.111265 455.495241 
C 120.908316 455.69819 120.794285 455.973486 120.794285 456.260499 
C 120.794285 456.547512 120.908316 456.822808 121.111265 457.025757 
C 121.314214 457.228706 121.58951 457.342737 121.876523 457.342737 
z
" style="fill:#ca502f;stroke:#ca502f;"/>
    <path clip-path="url(#pd9119f7f2c)" d="M 122.250236 454.598838 
C 122.544247 454.598838 122.826255 454.482027 123.034152 454.27413 
C 123.242049 454.066232 123.358861 453.784224 123.358861 453.490213 
C 123.358861 453.196203 123.242049 452.914194 123.034152 452.706297 
C 122.826255 452.4984 122.544247 452.381588 122.250236 452.381588 
C 121.956225 452.381588 121.674217 452.4984 121.46632 452.706297 
C 121.258423 452.914194 121.141611 453.196203 121.141611 453.490213 
C 121.141611 453.784224 121.258423 454.066232 121.46632 454.27413 
C 121.674217 454.482027 121.956225 454.598838 122.250236 454.598838 
z
" style="fill:#d05331;stroke:#d05331;"/>
    <path clip-path="url(#pd9119f7f2c)" d="M 122.634464 451.855583 
C 122.935643 451.855583 123.224527 451.735923 123.437493 451.522957 
C 123.650459 451.309991 123.770119 451.021107 123.770119 450.719927 
C 123.770119 450.418748 123.650459 450.129864 123.437493 449.916898 
C 123.224527 449.703932 122.935643 449.584272 122.634464 449.584272 
C 122.333284 449.584272 122.0444 449.703932 121.831434 449.916898 
C 121.618468 450.129864 121.498808 450.418748 121.498808 450.719927 
C 121.498808 451.021107 121.618468 451.309991 121.831434 451.522957 
C 122.0444 451.735923 122.333284 451.855583 122.634464 451.855583 
z
" style="fill:#d65733;stroke:#d65733;"/>
    <path clip-path="url(#pd9119f7f2c)" d="M 123.029502 449.112987 
C 123.338024 449.112987 123.633952 448.990409 123.852111 448.772251 
C 124.070269 448.554092 124.192847 448.258164 124.192847 447.949642 
C 124.192847 447.641119 124.070269 447.345191 123.852111 447.127033 
C 123.633952 446.908874 123.338024 446.786297 123.029502 446.786297 
C 122.720979 446.786297 122.425051 446.908874 122.206893 447.127033 
C 121.988734 447.345191 121.866157 447.641119 121.866157 447.949642 
C 121.866157 448.258164 121.988734 448.554092 122.206893 448.772251 
C 122.425051 448.990409 122.720979 449.112987 123.029502 449.112987 
z
" style="fill:#dd5a35;stroke:#dd5a35;"/>
    <path clip-path="url(#pd9119f7f2c)" d="M 123.435654 446.371065 
C 123.751699 446.371065 124.054842 446.245499 124.27832 446.022022 
C 124.501797 445.798544 124.627363 445.495401 124.627363 445.179356 
C 124.627363 444.863311 124.501797 444.560168 124.27832 444.33669 
C 124.054842 444.113212 123.751699 443.987646 123.435654 443.987646 
C 123.119609 443.987646 122.816466 444.113212 122.592988 444.33669 
C 122.36951 444.560168 122.243944 444.863311 122.243944 445.179356 
C 122.243944 445.495401 122.36951 445.798544 122.592988 446.022022 
C 122.816466 446.245499 123.119609 446.371065 123.435654 446.371065 
z
" style="fill:#e55e37;stroke:#e55e37;"/>
    <path clip-path="url(#pd9119f7f2c)" d="M 123.853233 443.629836 
C 124.176984 443.629836 124.487518 443.501208 124.716445 443.272282 
C 124.945371 443.043355 125.073999 442.732821 125.073999 442.40907 
C 125.073999 442.085319 124.945371 441.774785 124.716445 441.545858 
C 124.487518 441.316932 124.176984 441.188304 123.853233 441.188304 
C 123.529482 441.188304 123.218948 441.316932 122.990021 441.545858 
C 122.761095 441.774785 122.632467 442.085319 122.632467 442.40907 
C 122.632467 442.732821 122.761095 443.043355 122.990021 443.272282 
C 123.218948 443.501208 123.529482 443.629836 123.853233 443.629836 
z
" style="fill:#ec6239;stroke:#ec6239;"/>
    <path clip-path="url(#pd9119f7f2c)" d="M 124.282561 440.889315 
C 124.614205 440.889315 124.932311 440.757551 125.166819 440.523043 
C 125.401328 440.288535 125.533091 439.970429 125.533091 439.638784 
C 125.533091 439.30714 125.401328 438.989034 125.166819 438.754526 
C 124.932311 438.520017 124.614205 438.388254 124.282561 438.388254 
C 123.950916 438.388254 123.63281 438.520017 123.398302 438.754526 
C 123.163794 438.989034 123.03203 439.30714 123.03203 439.638784 
C 123.03203 439.970429 123.163794 440.288535 123.398302 440.523043 
C 123.63281 440.757551 123.950916 440.889315 124.282561 440.889315 
z
" style="fill:#f4653c;stroke:#f4653c;"/>
    <path clip-path="url(#pd9119f7f2c)" d="M 124.723968 438.149519 
C 125.063698 438.149519 125.38956 438.014543 125.629786 437.774317 
C 125.870012 437.534091 126.004989 437.208229 126.004989 436.868498 
C 126.004989 436.528768 125.870012 436.202906 125.629786 435.96268 
C 125.38956 435.722454 125.063698 435.587477 124.723968 435.587477 
C 124.384237 435.587477 124.058375 435.722454 123.818149 435.96268 
C 123.577923 436.202906 123.442947 436.528768 123.442947 436.868498 
C 123.442947 437.208229 123.577923 437.534091 123.818149 437.774317 
C 124.058375 438.014543 124.384237 438.149519 124.723968 438.149519 
z
" style="fill:#fc6a3e;stroke:#fc6a3e;"/>
    <path clip-path="url(#pd9119f7f2c)" d="M 125.177793 435.410467 
C 125.525807 435.410467 125.859614 435.2722 126.105697 435.026117 
C 126.351781 434.780034 126.490048 434.446227 126.490048 434.098213 
C 126.490048 433.750198 126.351781 433.416391 126.105697 433.170308 
C 125.859614 432.924225 125.525807 432.785958 125.177793 432.785958 
C 124.829779 432.785958 124.495972 432.924225 124.249889 433.170308 
C 124.003806 433.416391 123.865539 433.750198 123.865539 434.098213 
C 123.865539 434.446227 124.003806 434.780034 124.249889 435.026117 
C 124.495972 435.2722 124.829779 435.410467 125.177793 435.410467 
z
" style="fill:#ff6f42;stroke:#ff6f42;"/>
    <path clip-path="url(#pd9119f7f2c)" d="M 125.644387 432.672177 
C 126.000887 432.672177 126.342833 432.530538 126.594916 432.278455 
C 126.846999 432.026372 126.988637 431.684426 126.988637 431.327927 
C 126.988637 430.971427 126.846999 430.629481 126.594916 430.377398 
C 126.342833 430.125315 126.000887 429.983677 125.644387 429.983677 
C 125.287888 429.983677 124.945942 430.125315 124.693859 430.377398 
C 124.441776 430.629481 124.300137 430.971427 124.300137 431.327927 
C 124.300137 431.684426 124.441776 432.026372 124.693859 432.278455 
C 124.945942 432.530538 125.287888 432.672177 125.644387 432.672177 
z
" style="fill:#ff7546;stroke:#ff7546;"/>
    <path clip-path="url(#pd9119f7f2c)" d="M 126.124109 429.934666 
C 126.4893 429.934666 126.839583 429.789574 127.097813 429.531345 
C 127.356042 429.273116 127.501134 428.922832 127.501134 428.557641 
C 127.501134 428.192449 127.356042 427.842166 127.097813 427.583937 
C 126.839583 427.325707 126.4893 427.180615 126.124109 427.180615 
C 125.758917 427.180615 125.408634 427.325707 125.150405 427.583937 
C 124.892175 427.842166 124.747083 428.192449 124.747083 428.557641 
C 124.747083 428.922832 124.892175 429.273116 125.150405 429.531345 
C 125.408634 429.789574 125.758917 429.934666 126.124109 429.934666 
z
" style="fill:#ff7c4b;stroke:#ff7c4b;"/>
    <path clip-path="url(#pd9119f7f2c)" d="M 126.617327 427.197955 
C 126.991423 427.197955 127.350247 427.049325 127.614772 426.7848 
C 127.879297 426.520275 128.027927 426.161451 128.027927 425.787355 
C 128.027927 425.413259 127.879297 425.054436 127.614772 424.78991 
C 127.350247 424.525385 126.991423 424.376755 126.617327 424.376755 
C 126.243231 424.376755 125.884408 424.525385 125.619882 424.78991 
C 125.355357 425.054436 125.206727 425.413259 125.206727 425.787355 
C 125.206727 426.161451 125.355357 426.520275 125.619882 426.7848 
C 125.884408 427.049325 126.243231 427.197955 126.617327 427.197955 
z
" style="fill:#ff8350;stroke:#ff8350;"/>
    <path clip-path="url(#pd9119f7f2c)" d="M 127.124422 424.462063 
C 127.507639 424.462063 127.875211 424.309809 128.146187 424.038834 
C 128.417162 423.767859 128.569415 423.400286 128.569415 423.017069 
C 128.569415 422.633852 128.417162 422.26628 128.146187 421.995305 
C 127.875211 421.724329 127.507639 421.572076 127.124422 421.572076 
C 126.741205 421.572076 126.373632 421.724329 126.102657 421.995305 
C 125.831682 422.26628 125.679429 422.633852 125.679429 423.017069 
C 125.679429 423.400286 125.831682 423.767859 126.102657 424.038834 
C 126.373632 424.309809 126.741205 424.462063 127.124422 424.462063 
z
" style="fill:#ff8a55;stroke:#ff8a55;"/>
    <path clip-path="url(#pd9119f7f2c)" d="M 127.645784 421.727009 
C 128.038344 421.727009 128.414879 421.571043 128.692461 421.293461 
C 128.970043 421.015879 129.126009 420.639344 129.126009 420.246783 
C 129.126009 419.854223 128.970043 419.477688 128.692461 419.200106 
C 128.414879 418.922524 128.038344 418.766558 127.645784 418.766558 
C 127.253224 418.766558 126.876689 418.922524 126.599107 419.200106 
C 126.321525 419.477688 126.165559 419.854223 126.165559 420.246783 
C 126.165559 420.639344 126.321525 421.015879 126.599107 421.293461 
C 126.876689 421.571043 127.253224 421.727009 127.645784 421.727009 
z
" style="fill:#ff915a;stroke:#ff915a;"/>
    <path clip-path="url(#pd9119f7f2c)" d="M 128.181814 418.992814 
C 128.583946 418.992814 128.969662 418.833045 129.254012 418.548695 
C 129.538362 418.264345 129.69813 417.878629 129.69813 417.476498 
C 129.69813 417.074366 129.538362 416.68865 129.254012 416.4043 
C 128.969662 416.11995 128.583946 415.960182 128.181814 415.960182 
C 127.779683 415.960182 127.393967 416.11995 127.109617 416.4043 
C 126.825267 416.68865 126.665498 417.074366 126.665498 417.476498 
C 126.665498 417.878629 126.825267 418.264345 127.109617 418.548695 
C 127.393967 418.833045 127.779683 418.992814 128.181814 418.992814 
z
" style="fill:#ff9960;stroke:#ff9960;"/>
    <path clip-path="url(#pd9119f7f2c)" d="M 128.732926 416.259499 
C 129.144862 416.259499 129.539982 416.095834 129.831265 415.804551 
C 130.122548 415.513268 130.286213 415.118148 130.286213 414.706212 
C 130.286213 414.294275 130.122548 413.899155 129.831265 413.607872 
C 129.539982 413.316589 129.144862 413.152925 128.732926 413.152925 
C 128.320989 413.152925 127.925869 413.316589 127.634586 413.607872 
C 127.343303 413.899155 127.179639 414.294275 127.179639 414.706212 
C 127.179639 415.118148 127.343303 415.513268 127.634586 415.804551 
C 127.925869 416.095834 128.320989 416.259499 128.732926 416.259499 
z
" style="fill:#ffa165;stroke:#ffa165;"/>
    <path clip-path="url(#pd9119f7f2c)" d="M 129.299543 413.527085 
C 129.721523 413.527085 130.126277 413.35943 130.424662 413.061045 
C 130.723047 412.76266 130.890702 412.357906 130.890702 411.935926 
C 130.890702 411.513946 130.723047 411.109192 130.424662 410.810807 
C 130.126277 410.512421 129.721523 410.344767 129.299543 410.344767 
C 128.877562 410.344767 128.472808 410.512421 128.174423 410.810807 
C 127.876038 411.109192 127.708384 411.513946 127.708384 411.935926 
C 127.708384 412.357906 127.876038 412.76266 128.174423 413.061045 
C 128.472808 413.35943 128.877562 413.527085 129.299543 413.527085 
z
" style="fill:#ffa96b;stroke:#ffa96b;"/>
    <path clip-path="url(#pd9119f7f2c)" d="M 129.882101 410.795595 
C 130.31437 410.795595 130.728993 410.623852 131.034653 410.318192 
C 131.340314 410.012532 131.512056 409.597909 131.512056 409.16564 
C 131.512056 408.733371 131.340314 408.318748 131.034653 408.013088 
C 130.728993 407.707428 130.31437 407.535685 129.882101 407.535685 
C 129.449832 407.535685 129.03521 407.707428 128.729549 408.013088 
C 128.423889 408.318748 128.252147 408.733371 128.252147 409.16564 
C 128.252147 409.597909 128.423889 410.012532 128.729549 410.318192 
C 129.03521 410.623852 129.449832 410.795595 129.882101 410.795595 
z
" style="fill:#ffb171;stroke:#ffb171;"/>
    <path clip-path="url(#pd9119f7f2c)" d="M 130.48105 408.06505 
C 130.923858 408.06505 131.34859 407.889121 131.661703 407.576008 
C 131.974816 407.262895 132.150746 406.838163 132.150746 406.395354 
C 132.150746 405.952546 131.974816 405.527814 131.661703 405.214701 
C 131.34859 404.901588 130.923858 404.725658 130.48105 404.725658 
C 130.038241 404.725658 129.613509 404.901588 129.300396 405.214701 
C 128.987283 405.527814 128.811354 405.952546 128.811354 406.395354 
C 128.811354 406.838163 128.987283 407.262895 129.300396 407.576008 
C 129.613509 407.889121 130.038241 408.06505 130.48105 408.06505 
z
" style="fill:#ffb474;stroke:#ffb474;"/>
    <path clip-path="url(#pd9119f7f2c)" d="M 131.09685 405.335475 
C 131.550455 405.335475 131.985543 405.155256 132.30629 404.834509 
C 132.627037 404.513761 132.807257 404.078674 132.807257 403.625068 
C 132.807257 403.171463 132.627037 402.736376 132.30629 402.415628 
C 131.985543 402.094881 131.550455 401.914662 131.09685 401.914662 
C 130.643245 401.914662 130.208157 402.094881 129.88741 402.415628 
C 129.566662 402.736376 129.386443 403.171463 129.386443 403.625068 
C 129.386443 404.078674 129.566662 404.513761 129.88741 404.834509 
C 130.208157 405.155256 130.643245 405.335475 131.09685 405.335475 
z
" style="fill:#ffb777;stroke:#ffb777;"/>
    <path clip-path="url(#pd9119f7f2c)" d="M 131.729975 402.606892 
C 132.19464 402.606892 132.640336 402.422279 132.968904 402.093711 
C 133.297472 401.765144 133.482085 401.319448 133.482085 400.854783 
C 133.482085 400.390118 133.297472 399.944422 132.968904 399.615854 
C 132.640336 399.287286 132.19464 399.102673 131.729975 399.102673 
C 131.26531 399.102673 130.819614 399.287286 130.491047 399.615854 
C 130.162479 399.944422 129.977866 400.390118 129.977866 400.854783 
C 129.977866 401.319448 130.162479 401.765144 130.491047 402.093711 
C 130.819614 402.422279 131.26531 402.606892 131.729975 402.606892 
z
" style="fill:#ffb979;stroke:#ffb979;"/>
    <path clip-path="url(#pd9119f7f2c)" d="M 132.380914 399.879326 
C 132.856908 399.879326 133.313471 399.690212 133.65005 399.353633 
C 133.986629 399.017054 134.175743 398.560491 134.175743 398.084497 
C 134.175743 397.608502 133.986629 397.151939 133.65005 396.815361 
C 133.313471 396.478782 132.856908 396.289667 132.380914 396.289667 
C 131.904919 396.289667 131.448356 396.478782 131.111777 396.815361 
C 130.775199 397.151939 130.586084 397.608502 130.586084 398.084497 
C 130.586084 398.560491 130.775199 399.017054 131.111777 399.353633 
C 131.448356 399.690212 131.904919 399.879326 132.380914 399.879326 
z
" style="fill:#ffbb7b;stroke:#ffbb7b;"/>
    <path clip-path="url(#pd9119f7f2c)" d="M 133.050166 397.152802 
C 133.537766 397.152802 134.005461 396.959077 134.350246 396.614291 
C 134.695031 396.269506 134.888757 395.801811 134.888757 395.314211 
C 134.888757 394.826611 134.695031 394.358916 134.350246 394.014131 
C 134.005461 393.669345 133.537766 393.47562 133.050166 393.47562 
C 132.562566 393.47562 132.094871 393.669345 131.750086 394.014131 
C 131.4053 394.358916 131.211575 394.826611 131.211575 395.314211 
C 131.211575 395.801811 131.4053 396.269506 131.750086 396.614291 
C 132.094871 396.959077 132.562566 397.152802 133.050166 397.152802 
z
" style="fill:#ffbb7b;stroke:#ffbb7b;"/>
    <path clip-path="url(#pd9119f7f2c)" d="M 133.738247 394.427345 
C 134.237736 394.427345 134.716834 394.228896 135.070026 393.875704 
C 135.423218 393.522512 135.621667 393.043414 135.621667 392.543925 
C 135.621667 392.044436 135.423218 391.565338 135.070026 391.212146 
C 134.716834 390.858954 134.237736 390.660506 133.738247 390.660506 
C 133.238759 390.660506 132.75966 390.858954 132.406469 391.212146 
C 132.053277 391.565338 131.854828 392.044436 131.854828 392.543925 
C 131.854828 393.043414 132.053277 393.522512 132.406469 393.875704 
C 132.75966 394.228896 133.238759 394.427345 133.738247 394.427345 
z
" style="fill:#ffbb7b;stroke:#ffbb7b;"/>
    <path clip-path="url(#pd9119f7f2c)" d="M 134.445688 391.70298 
C 134.957355 391.70298 135.448135 391.499693 135.809938 391.137889 
C 136.171742 390.776086 136.375029 390.285307 136.375029 389.773639 
C 136.375029 389.261972 136.171742 388.771192 135.809938 388.409389 
C 135.448135 388.047586 134.957355 387.844298 134.445688 387.844298 
C 133.934021 387.844298 133.443241 388.047586 133.081438 388.409389 
C 132.719634 388.771192 132.516347 389.261972 132.516347 389.773639 
C 132.516347 390.285307 132.719634 390.776086 133.081438 391.137889 
C 133.443241 391.499693 133.934021 391.70298 134.445688 391.70298 
z
" style="fill:#ffbb7b;stroke:#ffbb7b;"/>
    <path clip-path="url(#pd9119f7f2c)" d="M 135.173032 388.979736 
C 135.697175 388.979736 136.199921 388.771492 136.570546 388.400867 
C 136.94117 388.030242 137.149415 387.527496 137.149415 387.003353 
C 137.149415 386.479211 136.94117 385.976465 136.570546 385.60584 
C 136.199921 385.235215 135.697175 385.026971 135.173032 385.026971 
C 134.64889 385.026971 134.146144 385.235215 133.775519 385.60584 
C 133.404894 385.976465 133.19665 386.479211 133.19665 387.003353 
C 133.19665 387.527496 133.404894 388.030242 133.775519 388.400867 
C 134.146144 388.771492 134.64889 388.979736 135.173032 388.979736 
z
" style="fill:#ffbc7c;stroke:#ffbc7c;"/>
    <path clip-path="url(#pd9119f7f2c)" d="M 135.92084 386.257638 
C 136.457763 386.257638 136.972766 386.044317 137.352428 385.664655 
C 137.732089 385.284994 137.945411 384.76999 137.945411 384.233068 
C 137.945411 383.696145 137.732089 383.181142 137.352428 382.80148 
C 136.972766 382.421819 136.457763 382.208497 135.92084 382.208497 
C 135.383918 382.208497 134.868914 382.421819 134.489253 382.80148 
C 134.109591 383.181142 133.89627 383.696145 133.89627 384.233068 
C 133.89627 384.76999 134.109591 385.284994 134.489253 385.664655 
C 134.868914 386.044317 135.383918 386.257638 135.92084 386.257638 
z
" style="fill:#ffbc7d;stroke:#ffbc7d;"/>
    <path clip-path="url(#pd9119f7f2c)" d="M 136.689688 383.536715 
C 137.239701 383.536715 137.767262 383.318193 138.15618 382.929274 
C 138.545098 382.540356 138.763621 382.012795 138.763621 381.462782 
C 138.763621 380.912768 138.545098 380.385208 138.15618 379.996289 
C 137.767262 379.607371 137.239701 379.388848 136.689688 379.388848 
C 136.139674 379.388848 135.612114 379.607371 135.223195 379.996289 
C 134.834277 380.385208 134.615754 380.912768 134.615754 381.462782 
C 134.615754 382.012795 134.834277 382.540356 135.223195 382.929274 
C 135.612114 383.318193 136.139674 383.536715 136.689688 383.536715 
z
" style="fill:#ffbd7d;stroke:#ffbd7d;"/>
    <path clip-path="url(#pd9119f7f2c)" d="M 137.480166 380.816996 
C 138.04359 380.816996 138.584014 380.593145 138.982415 380.194744 
C 139.380816 379.796343 139.604666 379.25592 139.604666 378.692496 
C 139.604666 378.129072 139.380816 377.588649 138.982415 377.190248 
C 138.584014 376.791847 138.04359 376.567996 137.480166 376.567996 
C 136.916742 376.567996 136.376319 376.791847 135.977918 377.190248 
C 135.579517 377.588649 135.355666 378.129072 135.355666 378.692496 
C 135.355666 379.25592 135.579517 379.796343 135.977918 380.194744 
C 136.376319 380.593145 136.916742 380.816996 137.480166 380.816996 
z
" style="fill:#ffbd7e;stroke:#ffbd7e;"/>
    <path clip-path="url(#pd9119f7f2c)" d="M 138.292885 378.09851 
C 138.870047 378.09851 139.423647 377.869201 139.831761 377.461086 
C 140.239876 377.052972 140.469185 376.499372 140.469185 375.92221 
C 140.469185 375.345049 140.239876 374.791449 139.831761 374.383334 
C 139.423647 373.975219 138.870047 373.745911 138.292885 373.745911 
C 137.715724 373.745911 137.162124 373.975219 136.754009 374.383334 
C 136.345894 374.791449 136.116586 375.345049 136.116586 375.92221 
C 136.116586 376.499372 136.345894 377.052972 136.754009 377.461086 
C 137.162124 377.869201 137.715724 378.09851 138.292885 378.09851 
z
" style="fill:#ffbe7f;stroke:#ffbe7f;"/>
    <path clip-path="url(#pd9119f7f2c)" d="M 139.12847 375.381286 
C 139.719703 375.381286 140.286801 375.146387 140.704867 374.728321 
C 141.122932 374.310256 141.357832 373.743158 141.357832 373.151924 
C 141.357832 372.560691 141.122932 371.993593 140.704867 371.575527 
C 140.286801 371.157462 139.719703 370.922562 139.12847 370.922562 
C 138.537236 370.922562 137.970138 371.157462 137.552073 371.575527 
C 137.134007 371.993593 136.899108 372.560691 136.899108 373.151924 
C 136.899108 373.743158 137.134007 374.310256 137.552073 374.728321 
C 137.970138 375.146387 138.537236 375.381286 139.12847 375.381286 
z
" style="fill:#ffc083;stroke:#ffc083;"/>
    <path clip-path="url(#pd9119f7f2c)" d="M 139.987563 372.665357 
C 140.593212 372.665357 141.174137 372.42473 141.602396 371.996471 
C 142.030654 371.568213 142.271281 370.987288 142.271281 370.381639 
C 142.271281 369.775989 142.030654 369.195064 141.602396 368.766806 
C 141.174137 368.338547 140.593212 368.09792 139.987563 368.09792 
C 139.381914 368.09792 138.800989 368.338547 138.37273 368.766806 
C 137.944472 369.195064 137.703845 369.775989 137.703845 370.381639 
C 137.703845 370.987288 137.944472 371.568213 138.37273 371.996471 
C 138.800989 372.42473 139.381914 372.665357 139.987563 372.665357 
z
" style="fill:#ffc287;stroke:#ffc287;"/>
    <path clip-path="url(#pd9119f7f2c)" d="M 140.870827 369.950753 
C 141.491243 369.950753 142.086332 369.704259 142.525032 369.265558 
C 142.963733 368.826858 143.210227 368.231769 143.210227 367.611353 
C 143.210227 366.990937 142.963733 366.395848 142.525032 365.957147 
C 142.086332 365.518447 141.491243 365.271953 140.870827 365.271953 
C 140.250411 365.271953 139.655322 365.518447 139.216621 365.957147 
C 138.777921 366.395848 138.531427 366.990937 138.531427 367.611353 
C 138.531427 368.231769 138.777921 368.826858 139.216621 369.265558 
C 139.655322 369.704259 140.250411 369.950753 140.870827 369.950753 
z
" style="fill:#ffc48b;stroke:#ffc48b;"/>
    <path clip-path="url(#pd9119f7f2c)" d="M 141.778941 367.237506 
C 142.414484 367.237506 143.024083 366.985002 143.473479 366.535605 
C 143.922876 366.086208 144.17538 365.47661 144.17538 364.841067 
C 144.17538 364.205524 143.922876 363.595925 143.473479 363.146529 
C 143.024083 362.697132 142.414484 362.444628 141.778941 362.444628 
C 141.143398 362.444628 140.5338 362.697132 140.084403 363.146529 
C 139.635006 363.595925 139.382502 364.205524 139.382502 364.841067 
C 139.382502 365.47661 139.635006 366.086208 140.084403 366.535605 
C 140.5338 366.985002 141.143398 367.237506 141.778941 367.237506 
z
" style="fill:#ffc68f;stroke:#ffc68f;"/>
    <path clip-path="url(#pd9119f7f2c)" d="M 142.712605 364.52565 
C 143.363644 364.52565 143.988105 364.26699 144.448459 363.806636 
C 144.908813 363.346282 145.167474 362.72182 145.167474 362.070781 
C 145.167474 361.419742 144.908813 360.795281 144.448459 360.334927 
C 143.988105 359.874573 143.363644 359.615912 142.712605 359.615912 
C 142.061566 359.615912 141.437104 359.874573 140.97675 360.334927 
C 140.516396 360.795281 140.257736 361.419742 140.257736 362.070781 
C 140.257736 362.72182 140.516396 363.346282 140.97675 363.806636 
C 141.437104 364.26699 142.061566 364.52565 142.712605 364.52565 
z
" style="fill:#ffc996;stroke:#ffc996;"/>
    <path clip-path="url(#pd9119f7f2c)" d="M 143.672537 361.815219 
C 144.33945 361.815219 144.979137 361.550252 145.450715 361.078673 
C 145.922294 360.607095 146.187261 359.967408 146.187261 359.300495 
C 146.187261 358.633583 145.922294 357.993895 145.450715 357.522317 
C 144.979137 357.050739 144.33945 356.785772 143.672537 356.785772 
C 143.005625 356.785772 142.365937 357.050739 141.894359 357.522317 
C 141.422781 357.993895 141.157814 358.633583 141.157814 359.300495 
C 141.157814 359.967408 141.422781 360.607095 141.894359 361.078673 
C 142.365937 361.550252 143.005625 361.815219 143.672537 361.815219 
z
" style="fill:#ffce9e;stroke:#ffce9e;"/>
    <path clip-path="url(#pd9119f7f2c)" d="M 144.659477 359.106247 
C 145.34265 359.106247 145.997934 358.834819 146.481011 358.351743 
C 146.964087 357.868667 147.235515 357.213383 147.235515 356.530209 
C 147.235515 355.847036 146.964087 355.191752 146.481011 354.708676 
C 145.997934 354.225599 145.34265 353.954172 144.659477 353.954172 
C 143.976304 353.954172 143.32102 354.225599 142.837943 354.708676 
C 142.354867 355.191752 142.08344 355.847036 142.08344 356.530209 
C 142.08344 357.213383 142.354867 357.868667 142.837943 358.351743 
C 143.32102 358.834819 143.976304 359.106247 144.659477 359.106247 
z
" style="fill:#ffd3a7;stroke:#ffd3a7;"/>
    <path clip-path="url(#pd9119f7f2c)" d="M 145.674184 356.39877 
C 146.374014 356.39877 147.045276 356.120724 147.54013 355.62587 
C 148.034985 355.131015 148.313031 354.459754 148.313031 353.759924 
C 148.313031 353.060093 148.034985 352.388832 147.54013 351.893977 
C 147.045276 351.399123 146.374014 351.121077 145.674184 351.121077 
C 144.974354 351.121077 144.303093 351.399123 143.808238 351.893977 
C 143.313383 352.388832 143.035338 353.060093 143.035338 353.759924 
C 143.035338 354.459754 143.313383 355.131015 143.808238 355.62587 
C 144.303093 356.120724 144.974354 356.39877 145.674184 356.39877 
z
" style="fill:#ffd8af;stroke:#ffd8af;"/>
    <path clip-path="url(#pd9119f7f2c)" d="M 146.71744 353.692824 
C 147.434333 353.692824 148.121961 353.408 148.628882 352.901079 
C 149.135802 352.394159 149.420627 351.706531 149.420627 350.989638 
C 149.420627 350.272744 149.135802 349.585116 148.628882 349.078196 
C 148.121961 348.571276 147.434333 348.286451 146.71744 348.286451 
C 146.000546 348.286451 145.312919 348.571276 144.805998 349.078196 
C 144.299078 349.585116 144.014253 350.272744 144.014253 350.989638 
C 144.014253 351.706531 144.299078 352.394159 144.805998 352.901079 
C 145.312919 353.408 146.000546 353.692824 146.71744 353.692824 
z
" style="fill:#ffdcb6;stroke:#ffdcb6;"/>
    <path clip-path="url(#pd9119f7f2c)" d="M 147.790047 350.988448 
C 148.52442 350.988448 149.228814 350.696678 149.748094 350.177398 
C 150.267374 349.658118 150.559143 348.953725 150.559143 348.219352 
C 150.559143 347.484979 150.267374 346.780586 149.748094 346.261306 
C 149.228814 345.742026 148.52442 345.450256 147.790047 345.450256 
C 147.055675 345.450256 146.351281 345.742026 145.832001 346.261306 
C 145.312721 346.780586 145.020952 347.484979 145.020952 348.219352 
C 145.020952 348.953725 145.312721 349.658118 145.832001 350.177398 
C 146.351281 350.696678 147.055675 350.988448 147.790047 350.988448 
z
" style="fill:#ffe0be;stroke:#ffe0be;"/>
    <path clip-path="url(#pd9119f7f2c)" d="M 148.892833 348.285678 
C 149.645111 348.285678 150.366679 347.986795 150.89862 347.454853 
C 151.430561 346.922912 151.729444 346.201344 151.729444 345.449066 
C 151.729444 344.696788 151.430561 343.97522 150.89862 343.443279 
C 150.366679 342.911338 149.645111 342.612454 148.892833 342.612454 
C 148.140554 342.612454 147.418986 342.911338 146.887045 343.443279 
C 146.355104 343.97522 146.056221 344.696788 146.056221 345.449066 
C 146.056221 346.201344 146.355104 346.922912 146.887045 347.454853 
C 147.418986 347.986795 148.140554 348.285678 148.892833 348.285678 
z
" style="fill:#ffe4c5;stroke:#ffe4c5;"/>
   </g>
   <g id="PathCollection_3">
    <path clip-path="url(#pd9119f7f2c)" d="M 408.701606 134.902754 
C 412.453037 134.902754 416.051325 133.412294 418.703987 130.759632 
C 421.35665 128.106969 422.84711 124.508681 422.84711 120.75725 
C 422.84711 117.005818 421.35665 113.407531 418.703987 110.754868 
C 416.051325 108.102205 412.453037 106.611746 408.701606 106.611746 
C 404.950174 106.611746 401.351886 108.102205 398.699224 110.754868 
C 396.046561 113.407531 394.556102 117.005818 394.556102 120.75725 
C 394.556102 124.508681 396.046561 128.106969 398.699224 130.759632 
C 401.351886 133.412294 404.950174 134.902754 408.701606 134.902754 
z
" style="fill:#a1b8ff;stroke:#a1b8ff;"/>
    <path clip-path="url(#pd9119f7f2c)" d="M 428.61131 121.818084 
C 432.681721 121.818084 436.585967 120.200892 439.464183 117.322677 
C 442.342398 114.444461 443.95959 110.540215 443.95959 106.469804 
C 443.95959 102.399393 442.342398 98.495147 439.464183 95.616931 
C 436.585967 92.738716 432.681721 91.121524 428.61131 91.121524 
C 424.540899 91.121524 420.636653 92.738716 417.758437 95.616931 
C 414.880222 98.495147 413.26303 102.399393 413.26303 106.469804 
C 413.26303 110.540215 414.880222 114.444461 417.758437 117.322677 
C 420.636653 120.200892 424.540899 121.818084 428.61131 121.818084 
z
" style="fill:#a0b7ff;stroke:#a0b7ff;"/>
    <path clip-path="url(#pd9119f7f2c)" d="M 449.84186 108.835684 
C 454.258374 108.835684 458.494593 107.080985 461.61754 103.958038 
C 464.740487 100.835091 466.495186 96.598872 466.495186 92.182358 
C 466.495186 87.765845 464.740487 83.529625 461.61754 80.406678 
C 458.494593 77.283732 454.258374 75.529032 449.84186 75.529032 
C 445.425346 75.529032 441.189127 77.283732 438.06618 80.406678 
C 434.943234 83.529625 433.188534 87.765845 433.188534 92.182358 
C 433.188534 96.598872 434.943234 100.835091 438.06618 103.958038 
C 441.189127 107.080985 445.425346 108.835684 449.84186 108.835684 
z
" style="fill:#9fb6ff;stroke:#9fb6ff;"/>
    <path clip-path="url(#pd9119f7f2c)" d="M 472.480883 95.964251 
C 477.272928 95.964251 481.869348 94.060352 485.257835 90.671865 
C 488.646322 87.283377 490.550222 82.686957 490.550222 77.894912 
C 490.550222 73.102868 488.646322 68.506448 485.257835 65.11796 
C 481.869348 61.729473 477.272928 59.825573 472.480883 59.825573 
C 467.688838 59.825573 463.092418 61.729473 459.703931 65.11796 
C 456.315443 68.506448 454.411544 73.102868 454.411544 77.894912 
C 454.411544 82.686957 456.315443 87.283377 459.703931 90.671865 
C 463.092418 94.060352 467.688838 95.964251 472.480883 95.964251 
z
" style="fill:#9db4ff;stroke:#9db4ff;"/>
    <path clip-path="url(#pd9119f7f2c)" d="M 496.621819 83.21322 
C 501.821325 83.21322 506.808574 81.147435 510.48518 77.470828 
C 514.161787 73.794222 516.227573 68.806973 516.227573 63.607467 
C 516.227573 58.40796 514.161787 53.420712 510.48518 49.744105 
C 506.808574 46.067499 501.821325 44.001713 496.621819 44.001713 
C 491.422312 44.001713 486.435064 46.067499 482.758457 49.744105 
C 479.081851 53.420712 477.016065 58.40796 477.016065 63.607467 
C 477.016065 68.806973 479.081851 73.794222 482.758457 77.470828 
C 486.435064 81.147435 491.422312 83.21322 496.621819 83.21322 
z
" style="fill:#9cb3ff;stroke:#9cb3ff;"/>
   </g>
   <g id="matplotlib.axis_1">
    <g id="xtick_1">
     <g id="line2d_1">
      <defs>
       <path d="M 0 0 
L 0 3.5 
" id="m2780224228" style="stroke:#000000;stroke-width:0.8;"/>
      </defs>
      <g>
       <use style="stroke:#000000;stroke-width:0.8;" x="108.593563" xlink:href="#m2780224228" y="503.08"/>
      </g>
     </g>
     <g id="text_1">
      <!-- 0 -->
      <defs>
       <path d="M 31.78125 66.40625 
Q 24.171875 66.40625 20.328125 58.90625 
Q 16.5 51.421875 16.5 36.375 
Q 16.5 21.390625 20.328125 13.890625 
Q 24.171875 6.390625 31.78125 6.390625 
Q 39.453125 6.390625 43.28125 13.890625 
Q 47.125 21.390625 47.125 36.375 
Q 47.125 51.421875 43.28125 58.90625 
Q 39.453125 66.40625 31.78125 66.40625 
z
M 31.78125 74.21875 
Q 44.046875 74.21875 50.515625 64.515625 
Q 56.984375 54.828125 56.984375 36.375 
Q 56.984375 17.96875 50.515625 8.265625 
Q 44.046875 -1.421875 31.78125 -1.421875 
Q 19.53125 -1.421875 13.0625 8.265625 
Q 6.59375 17.96875 6.59375 36.375 
Q 6.59375 54.828125 13.0625 64.515625 
Q 19.53125 74.21875 31.78125 74.21875 
z
" id="DejaVuSans-30"/>
      </defs>
      <g transform="translate(102.231063 525.276875)scale(0.2 -0.2)">
       <use xlink:href="#DejaVuSans-30"/>
      </g>
     </g>
    </g>
    <g id="xtick_2">
     <g id="line2d_2">
      <g>
       <use style="stroke:#000000;stroke-width:0.8;" x="191.404666" xlink:href="#m2780224228" y="503.08"/>
      </g>
     </g>
     <g id="text_2">
      <!-- 10000 -->
      <defs>
       <path d="M 12.40625 8.296875 
L 28.515625 8.296875 
L 28.515625 63.921875 
L 10.984375 60.40625 
L 10.984375 69.390625 
L 28.421875 72.90625 
L 38.28125 72.90625 
L 38.28125 8.296875 
L 54.390625 8.296875 
L 54.390625 0 
L 12.40625 0 
z
" id="DejaVuSans-31"/>
      </defs>
      <g transform="translate(159.592166 525.276875)scale(0.2 -0.2)">
       <use xlink:href="#DejaVuSans-31"/>
       <use x="63.623047" xlink:href="#DejaVuSans-30"/>
       <use x="127.246094" xlink:href="#DejaVuSans-30"/>
       <use x="190.869141" xlink:href="#DejaVuSans-30"/>
       <use x="254.492188" xlink:href="#DejaVuSans-30"/>
      </g>
     </g>
    </g>
    <g id="xtick_3">
     <g id="line2d_3">
      <g>
       <use style="stroke:#000000;stroke-width:0.8;" x="274.215768" xlink:href="#m2780224228" y="503.08"/>
      </g>
     </g>
     <g id="text_3">
      <!-- 20000 -->
      <defs>
       <path d="M 19.1875 8.296875 
L 53.609375 8.296875 
L 53.609375 0 
L 7.328125 0 
L 7.328125 8.296875 
Q 12.9375 14.109375 22.625 23.890625 
Q 32.328125 33.6875 34.8125 36.53125 
Q 39.546875 41.84375 41.421875 45.53125 
Q 43.3125 49.21875 43.3125 52.78125 
Q 43.3125 58.59375 39.234375 62.25 
Q 35.15625 65.921875 28.609375 65.921875 
Q 23.96875 65.921875 18.8125 64.3125 
Q 13.671875 62.703125 7.8125 59.421875 
L 7.8125 69.390625 
Q 13.765625 71.78125 18.9375 73 
Q 24.125 74.21875 28.421875 74.21875 
Q 39.75 74.21875 46.484375 68.546875 
Q 53.21875 62.890625 53.21875 53.421875 
Q 53.21875 48.921875 51.53125 44.890625 
Q 49.859375 40.875 45.40625 35.40625 
Q 44.1875 33.984375 37.640625 27.21875 
Q 31.109375 20.453125 19.1875 8.296875 
z
" id="DejaVuSans-32"/>
      </defs>
      <g transform="translate(242.403268 525.276875)scale(0.2 -0.2)">
       <use xlink:href="#DejaVuSans-32"/>
       <use x="63.623047" xlink:href="#DejaVuSans-30"/>
       <use x="127.246094" xlink:href="#DejaVuSans-30"/>
       <use x="190.869141" xlink:href="#DejaVuSans-30"/>
       <use x="254.492188" xlink:href="#DejaVuSans-30"/>
      </g>
     </g>
    </g>
    <g id="xtick_4">
     <g id="line2d_4">
      <g>
       <use style="stroke:#000000;stroke-width:0.8;" x="357.026871" xlink:href="#m2780224228" y="503.08"/>
      </g>
     </g>
     <g id="text_4">
      <!-- 30000 -->
      <defs>
       <path d="M 40.578125 39.3125 
Q 47.65625 37.796875 51.625 33 
Q 55.609375 28.21875 55.609375 21.1875 
Q 55.609375 10.40625 48.1875 4.484375 
Q 40.765625 -1.421875 27.09375 -1.421875 
Q 22.515625 -1.421875 17.65625 -0.515625 
Q 12.796875 0.390625 7.625 2.203125 
L 7.625 11.71875 
Q 11.71875 9.328125 16.59375 8.109375 
Q 21.484375 6.890625 26.8125 6.890625 
Q 36.078125 6.890625 40.9375 10.546875 
Q 45.796875 14.203125 45.796875 21.1875 
Q 45.796875 27.640625 41.28125 31.265625 
Q 36.765625 34.90625 28.71875 34.90625 
L 20.21875 34.90625 
L 20.21875 43.015625 
L 29.109375 43.015625 
Q 36.375 43.015625 40.234375 45.921875 
Q 44.09375 48.828125 44.09375 54.296875 
Q 44.09375 59.90625 40.109375 62.90625 
Q 36.140625 65.921875 28.71875 65.921875 
Q 24.65625 65.921875 20.015625 65.03125 
Q 15.375 64.15625 9.8125 62.3125 
L 9.8125 71.09375 
Q 15.4375 72.65625 20.34375 73.4375 
Q 25.25 74.21875 29.59375 74.21875 
Q 40.828125 74.21875 47.359375 69.109375 
Q 53.90625 64.015625 53.90625 55.328125 
Q 53.90625 49.265625 50.4375 45.09375 
Q 46.96875 40.921875 40.578125 39.3125 
z
" id="DejaVuSans-33"/>
      </defs>
      <g transform="translate(325.214371 525.276875)scale(0.2 -0.2)">
       <use xlink:href="#DejaVuSans-33"/>
       <use x="63.623047" xlink:href="#DejaVuSans-30"/>
       <use x="127.246094" xlink:href="#DejaVuSans-30"/>
       <use x="190.869141" xlink:href="#DejaVuSans-30"/>
       <use x="254.492188" xlink:href="#DejaVuSans-30"/>
      </g>
     </g>
    </g>
    <g id="xtick_5">
     <g id="line2d_5">
      <g>
       <use style="stroke:#000000;stroke-width:0.8;" x="439.837974" xlink:href="#m2780224228" y="503.08"/>
      </g>
     </g>
     <g id="text_5">
      <!-- 40000 -->
      <defs>
       <path d="M 37.796875 64.3125 
L 12.890625 25.390625 
L 37.796875 25.390625 
z
M 35.203125 72.90625 
L 47.609375 72.90625 
L 47.609375 25.390625 
L 58.015625 25.390625 
L 58.015625 17.1875 
L 47.609375 17.1875 
L 47.609375 0 
L 37.796875 0 
L 37.796875 17.1875 
L 4.890625 17.1875 
L 4.890625 26.703125 
z
" id="DejaVuSans-34"/>
      </defs>
      <g transform="translate(408.025474 525.276875)scale(0.2 -0.2)">
       <use xlink:href="#DejaVuSans-34"/>
       <use x="63.623047" xlink:href="#DejaVuSans-30"/>
       <use x="127.246094" xlink:href="#DejaVuSans-30"/>
       <use x="190.869141" xlink:href="#DejaVuSans-30"/>
       <use x="254.492188" xlink:href="#DejaVuSans-30"/>
      </g>
     </g>
    </g>
    <g id="xtick_6">
     <g id="line2d_6">
      <g>
       <use style="stroke:#000000;stroke-width:0.8;" x="522.649077" xlink:href="#m2780224228" y="503.08"/>
      </g>
     </g>
     <g id="text_6">
      <!-- 50000 -->
      <defs>
       <path d="M 10.796875 72.90625 
L 49.515625 72.90625 
L 49.515625 64.59375 
L 19.828125 64.59375 
L 19.828125 46.734375 
Q 21.96875 47.46875 24.109375 47.828125 
Q 26.265625 48.1875 28.421875 48.1875 
Q 40.625 48.1875 47.75 41.5 
Q 54.890625 34.8125 54.890625 23.390625 
Q 54.890625 11.625 47.5625 5.09375 
Q 40.234375 -1.421875 26.90625 -1.421875 
Q 22.3125 -1.421875 17.546875 -0.640625 
Q 12.796875 0.140625 7.71875 1.703125 
L 7.71875 11.625 
Q 12.109375 9.234375 16.796875 8.0625 
Q 21.484375 6.890625 26.703125 6.890625 
Q 35.15625 6.890625 40.078125 11.328125 
Q 45.015625 15.765625 45.015625 23.390625 
Q 45.015625 31 40.078125 35.4375 
Q 35.15625 39.890625 26.703125 39.890625 
Q 22.75 39.890625 18.8125 39.015625 
Q 14.890625 38.140625 10.796875 36.28125 
z
" id="DejaVuSans-35"/>
      </defs>
      <g transform="translate(490.836577 525.276875)scale(0.2 -0.2)">
       <use xlink:href="#DejaVuSans-35"/>
       <use x="63.623047" xlink:href="#DejaVuSans-30"/>
       <use x="127.246094" xlink:href="#DejaVuSans-30"/>
       <use x="190.869141" xlink:href="#DejaVuSans-30"/>
       <use x="254.492188" xlink:href="#DejaVuSans-30"/>
      </g>
     </g>
    </g>
    <g id="text_7">
     <!-- Temperature -->
     <defs>
      <path d="M -0.296875 72.90625 
L 61.375 72.90625 
L 61.375 64.59375 
L 35.5 64.59375 
L 35.5 0 
L 25.59375 0 
L 25.59375 64.59375 
L -0.296875 64.59375 
z
" id="DejaVuSans-54"/>
      <path d="M 56.203125 29.59375 
L 56.203125 25.203125 
L 14.890625 25.203125 
Q 15.484375 15.921875 20.484375 11.0625 
Q 25.484375 6.203125 34.421875 6.203125 
Q 39.59375 6.203125 44.453125 7.46875 
Q 49.3125 8.734375 54.109375 11.28125 
L 54.109375 2.78125 
Q 49.265625 0.734375 44.1875 -0.34375 
Q 39.109375 -1.421875 33.890625 -1.421875 
Q 20.796875 -1.421875 13.15625 6.1875 
Q 5.515625 13.8125 5.515625 26.8125 
Q 5.515625 40.234375 12.765625 48.109375 
Q 20.015625 56 32.328125 56 
Q 43.359375 56 49.78125 48.890625 
Q 56.203125 41.796875 56.203125 29.59375 
z
M 47.21875 32.234375 
Q 47.125 39.59375 43.09375 43.984375 
Q 39.0625 48.390625 32.421875 48.390625 
Q 24.90625 48.390625 20.390625 44.140625 
Q 15.875 39.890625 15.1875 32.171875 
z
" id="DejaVuSans-65"/>
      <path d="M 52 44.1875 
Q 55.375 50.25 60.0625 53.125 
Q 64.75 56 71.09375 56 
Q 79.640625 56 84.28125 50.015625 
Q 88.921875 44.046875 88.921875 33.015625 
L 88.921875 0 
L 79.890625 0 
L 79.890625 32.71875 
Q 79.890625 40.578125 77.09375 44.375 
Q 74.3125 48.1875 68.609375 48.1875 
Q 61.625 48.1875 57.5625 43.546875 
Q 53.515625 38.921875 53.515625 30.90625 
L 53.515625 0 
L 44.484375 0 
L 44.484375 32.71875 
Q 44.484375 40.625 41.703125 44.40625 
Q 38.921875 48.1875 33.109375 48.1875 
Q 26.21875 48.1875 22.15625 43.53125 
Q 18.109375 38.875 18.109375 30.90625 
L 18.109375 0 
L 9.078125 0 
L 9.078125 54.6875 
L 18.109375 54.6875 
L 18.109375 46.1875 
Q 21.1875 51.21875 25.484375 53.609375 
Q 29.78125 56 35.6875 56 
Q 41.65625 56 45.828125 52.96875 
Q 50 49.953125 52 44.1875 
z
" id="DejaVuSans-6d"/>
      <path d="M 18.109375 8.203125 
L 18.109375 -20.796875 
L 9.078125 -20.796875 
L 9.078125 54.6875 
L 18.109375 54.6875 
L 18.109375 46.390625 
Q 20.953125 51.265625 25.265625 53.625 
Q 29.59375 56 35.59375 56 
Q 45.5625 56 51.78125 48.09375 
Q 58.015625 40.1875 58.015625 27.296875 
Q 58.015625 14.40625 51.78125 6.484375 
Q 45.5625 -1.421875 35.59375 -1.421875 
Q 29.59375 -1.421875 25.265625 0.953125 
Q 20.953125 3.328125 18.109375 8.203125 
z
M 48.6875 27.296875 
Q 48.6875 37.203125 44.609375 42.84375 
Q 40.53125 48.484375 33.40625 48.484375 
Q 26.265625 48.484375 22.1875 42.84375 
Q 18.109375 37.203125 18.109375 27.296875 
Q 18.109375 17.390625 22.1875 11.75 
Q 26.265625 6.109375 33.40625 6.109375 
Q 40.53125 6.109375 44.609375 11.75 
Q 48.6875 17.390625 48.6875 27.296875 
z
" id="DejaVuSans-70"/>
      <path d="M 41.109375 46.296875 
Q 39.59375 47.171875 37.8125 47.578125 
Q 36.03125 48 33.890625 48 
Q 26.265625 48 22.1875 43.046875 
Q 18.109375 38.09375 18.109375 28.8125 
L 18.109375 0 
L 9.078125 0 
L 9.078125 54.6875 
L 18.109375 54.6875 
L 18.109375 46.1875 
Q 20.953125 51.171875 25.484375 53.578125 
Q 30.03125 56 36.53125 56 
Q 37.453125 56 38.578125 55.875 
Q 39.703125 55.765625 41.0625 55.515625 
z
" id="DejaVuSans-72"/>
      <path d="M 34.28125 27.484375 
Q 23.390625 27.484375 19.1875 25 
Q 14.984375 22.515625 14.984375 16.5 
Q 14.984375 11.71875 18.140625 8.90625 
Q 21.296875 6.109375 26.703125 6.109375 
Q 34.1875 6.109375 38.703125 11.40625 
Q 43.21875 16.703125 43.21875 25.484375 
L 43.21875 27.484375 
z
M 52.203125 31.203125 
L 52.203125 0 
L 43.21875 0 
L 43.21875 8.296875 
Q 40.140625 3.328125 35.546875 0.953125 
Q 30.953125 -1.421875 24.3125 -1.421875 
Q 15.921875 -1.421875 10.953125 3.296875 
Q 6 8.015625 6 15.921875 
Q 6 25.140625 12.171875 29.828125 
Q 18.359375 34.515625 30.609375 34.515625 
L 43.21875 34.515625 
L 43.21875 35.40625 
Q 43.21875 41.609375 39.140625 45 
Q 35.0625 48.390625 27.6875 48.390625 
Q 23 48.390625 18.546875 47.265625 
Q 14.109375 46.140625 10.015625 43.890625 
L 10.015625 52.203125 
Q 14.9375 54.109375 19.578125 55.046875 
Q 24.21875 56 28.609375 56 
Q 40.484375 56 46.34375 49.84375 
Q 52.203125 43.703125 52.203125 31.203125 
z
" id="DejaVuSans-61"/>
      <path d="M 18.3125 70.21875 
L 18.3125 54.6875 
L 36.8125 54.6875 
L 36.8125 47.703125 
L 18.3125 47.703125 
L 18.3125 18.015625 
Q 18.3125 11.328125 20.140625 9.421875 
Q 21.96875 7.515625 27.59375 7.515625 
L 36.8125 7.515625 
L 36.8125 0 
L 27.59375 0 
Q 17.1875 0 13.234375 3.875 
Q 9.28125 7.765625 9.28125 18.015625 
L 9.28125 47.703125 
L 2.6875 47.703125 
L 2.6875 54.6875 
L 9.28125 54.6875 
L 9.28125 70.21875 
z
" id="DejaVuSans-74"/>
      <path d="M 8.5 21.578125 
L 8.5 54.6875 
L 17.484375 54.6875 
L 17.484375 21.921875 
Q 17.484375 14.15625 20.5 10.265625 
Q 23.53125 6.390625 29.59375 6.390625 
Q 36.859375 6.390625 41.078125 11.03125 
Q 45.3125 15.671875 45.3125 23.6875 
L 45.3125 54.6875 
L 54.296875 54.6875 
L 54.296875 0 
L 45.3125 0 
L 45.3125 8.40625 
Q 42.046875 3.421875 37.71875 1 
Q 33.40625 -1.421875 27.6875 -1.421875 
Q 18.265625 -1.421875 13.375 4.4375 
Q 8.5 10.296875 8.5 21.578125 
z
M 31.109375 56 
z
" id="DejaVuSans-75"/>
     </defs>
     <g transform="translate(247.345016 548.633125)scale(0.2 -0.2)">
      <use xlink:href="#DejaVuSans-54"/>
      <use x="60.818359" xlink:href="#DejaVuSans-65"/>
      <use x="122.341797" xlink:href="#DejaVuSans-6d"/>
      <use x="219.753906" xlink:href="#DejaVuSans-70"/>
      <use x="283.230469" xlink:href="#DejaVuSans-65"/>
      <use x="344.753906" xlink:href="#DejaVuSans-72"/>
      <use x="385.867188" xlink:href="#DejaVuSans-61"/>
      <use x="447.146484" xlink:href="#DejaVuSans-74"/>
      <use x="486.355469" xlink:href="#DejaVuSans-75"/>
      <use x="549.734375" xlink:href="#DejaVuSans-72"/>
      <use x="590.816406" xlink:href="#DejaVuSans-65"/>
     </g>
    </g>
   </g>
   <g id="matplotlib.axis_2">
    <g id="ytick_1">
     <g id="line2d_7">
      <defs>
       <path d="M 0 0 
L -3.5 0 
" id="m1dba70ed86" style="stroke:#000000;stroke-width:0.8;"/>
      </defs>
      <g>
       <use style="stroke:#000000;stroke-width:0.8;" x="99.1407" xlink:href="#m1dba70ed86" y="481.193072"/>
      </g>
     </g>
     <g id="text_8">
      <!-- $\mathdefault{10^{-1}}$ -->
      <defs>
       <path d="M 10.59375 35.5 
L 73.1875 35.5 
L 73.1875 27.203125 
L 10.59375 27.203125 
z
" id="DejaVuSans-2212"/>
      </defs>
      <g transform="translate(45.1407 488.791509)scale(0.2 -0.2)">
       <use transform="translate(0 0.684375)" xlink:href="#DejaVuSans-31"/>
       <use transform="translate(63.623047 0.684375)" xlink:href="#DejaVuSans-30"/>
       <use transform="translate(128.203125 38.965625)scale(0.7)" xlink:href="#DejaVuSans-2212"/>
       <use transform="translate(186.855469 38.965625)scale(0.7)" xlink:href="#DejaVuSans-31"/>
      </g>
     </g>
    </g>
    <g id="ytick_2">
     <g id="line2d_8">
      <g>
       <use style="stroke:#000000;stroke-width:0.8;" x="99.1407" xlink:href="#m1dba70ed86" y="330.882463"/>
      </g>
     </g>
     <g id="text_9">
      <!-- $\mathdefault{10^{0}}$ -->
      <g transform="translate(56.9407 338.480901)scale(0.2 -0.2)">
       <use transform="translate(0 0.765625)" xlink:href="#DejaVuSans-31"/>
       <use transform="translate(63.623047 0.765625)" xlink:href="#DejaVuSans-30"/>
       <use transform="translate(128.203125 39.046875)scale(0.7)" xlink:href="#DejaVuSans-30"/>
      </g>
     </g>
    </g>
    <g id="ytick_3">
     <g id="line2d_9">
      <g>
       <use style="stroke:#000000;stroke-width:0.8;" x="99.1407" xlink:href="#m1dba70ed86" y="180.571855"/>
      </g>
     </g>
     <g id="text_10">
      <!-- $\mathdefault{10^{1}}$ -->
      <g transform="translate(56.9407 188.170292)scale(0.2 -0.2)">
       <use transform="translate(0 0.684375)" xlink:href="#DejaVuSans-31"/>
       <use transform="translate(63.623047 0.684375)" xlink:href="#DejaVuSans-30"/>
       <use transform="translate(128.203125 38.965625)scale(0.7)" xlink:href="#DejaVuSans-31"/>
      </g>
     </g>
    </g>
    <g id="ytick_4">
     <g id="line2d_10">
      <g>
       <use style="stroke:#000000;stroke-width:0.8;" x="99.1407" xlink:href="#m1dba70ed86" y="30.261246"/>
      </g>
     </g>
     <g id="text_11">
      <!-- $\mathdefault{10^{2}}$ -->
      <g transform="translate(56.9407 37.859684)scale(0.2 -0.2)">
       <use transform="translate(0 0.765625)" xlink:href="#DejaVuSans-31"/>
       <use transform="translate(63.623047 0.765625)" xlink:href="#DejaVuSans-30"/>
       <use transform="translate(128.203125 39.046875)scale(0.7)" xlink:href="#DejaVuSans-32"/>
      </g>
     </g>
    </g>
    <g id="ytick_5">
     <g id="line2d_11">
      <defs>
       <path d="M 0 0 
L -2 0 
" id="m33b666d129" style="stroke:#000000;stroke-width:0.6;"/>
      </defs>
      <g>
       <use style="stroke:#000000;stroke-width:0.6;" x="99.1407" xlink:href="#m33b666d129" y="495.759675"/>
      </g>
     </g>
    </g>
    <g id="ytick_6">
     <g id="line2d_12">
      <g>
       <use style="stroke:#000000;stroke-width:0.6;" x="99.1407" xlink:href="#m33b666d129" y="488.070908"/>
      </g>
     </g>
    </g>
    <g id="ytick_7">
     <g id="line2d_13">
      <g>
       <use style="stroke:#000000;stroke-width:0.6;" x="99.1407" xlink:href="#m33b666d129" y="435.94507"/>
      </g>
     </g>
    </g>
    <g id="ytick_8">
     <g id="line2d_14">
      <g>
       <use style="stroke:#000000;stroke-width:0.6;" x="99.1407" xlink:href="#m33b666d129" y="409.476685"/>
      </g>
     </g>
    </g>
    <g id="ytick_9">
     <g id="line2d_15">
      <g>
       <use style="stroke:#000000;stroke-width:0.6;" x="99.1407" xlink:href="#m33b666d129" y="390.697068"/>
      </g>
     </g>
    </g>
    <g id="ytick_10">
     <g id="line2d_16">
      <g>
       <use style="stroke:#000000;stroke-width:0.6;" x="99.1407" xlink:href="#m33b666d129" y="376.130465"/>
      </g>
     </g>
    </g>
    <g id="ytick_11">
     <g id="line2d_17">
      <g>
       <use style="stroke:#000000;stroke-width:0.6;" x="99.1407" xlink:href="#m33b666d129" y="364.228684"/>
      </g>
     </g>
    </g>
    <g id="ytick_12">
     <g id="line2d_18">
      <g>
       <use style="stroke:#000000;stroke-width:0.6;" x="99.1407" xlink:href="#m33b666d129" y="354.165871"/>
      </g>
     </g>
    </g>
    <g id="ytick_13">
     <g id="line2d_19">
      <g>
       <use style="stroke:#000000;stroke-width:0.6;" x="99.1407" xlink:href="#m33b666d129" y="345.449066"/>
      </g>
     </g>
    </g>
    <g id="ytick_14">
     <g id="line2d_20">
      <g>
       <use style="stroke:#000000;stroke-width:0.6;" x="99.1407" xlink:href="#m33b666d129" y="337.760299"/>
      </g>
     </g>
    </g>
    <g id="ytick_15">
     <g id="line2d_21">
      <g>
       <use style="stroke:#000000;stroke-width:0.6;" x="99.1407" xlink:href="#m33b666d129" y="285.634461"/>
      </g>
     </g>
    </g>
    <g id="ytick_16">
     <g id="line2d_22">
      <g>
       <use style="stroke:#000000;stroke-width:0.6;" x="99.1407" xlink:href="#m33b666d129" y="259.166077"/>
      </g>
     </g>
    </g>
    <g id="ytick_17">
     <g id="line2d_23">
      <g>
       <use style="stroke:#000000;stroke-width:0.6;" x="99.1407" xlink:href="#m33b666d129" y="240.386459"/>
      </g>
     </g>
    </g>
    <g id="ytick_18">
     <g id="line2d_24">
      <g>
       <use style="stroke:#000000;stroke-width:0.6;" x="99.1407" xlink:href="#m33b666d129" y="225.819856"/>
      </g>
     </g>
    </g>
    <g id="ytick_19">
     <g id="line2d_25">
      <g>
       <use style="stroke:#000000;stroke-width:0.6;" x="99.1407" xlink:href="#m33b666d129" y="213.918075"/>
      </g>
     </g>
    </g>
    <g id="ytick_20">
     <g id="line2d_26">
      <g>
       <use style="stroke:#000000;stroke-width:0.6;" x="99.1407" xlink:href="#m33b666d129" y="203.855262"/>
      </g>
     </g>
    </g>
    <g id="ytick_21">
     <g id="line2d_27">
      <g>
       <use style="stroke:#000000;stroke-width:0.6;" x="99.1407" xlink:href="#m33b666d129" y="195.138458"/>
      </g>
     </g>
    </g>
    <g id="ytick_22">
     <g id="line2d_28">
      <g>
       <use style="stroke:#000000;stroke-width:0.6;" x="99.1407" xlink:href="#m33b666d129" y="187.449691"/>
      </g>
     </g>
    </g>
    <g id="ytick_23">
     <g id="line2d_29">
      <g>
       <use style="stroke:#000000;stroke-width:0.6;" x="99.1407" xlink:href="#m33b666d129" y="135.323853"/>
      </g>
     </g>
    </g>
    <g id="ytick_24">
     <g id="line2d_30">
      <g>
       <use style="stroke:#000000;stroke-width:0.6;" x="99.1407" xlink:href="#m33b666d129" y="108.855468"/>
      </g>
     </g>
    </g>
    <g id="ytick_25">
     <g id="line2d_31">
      <g>
       <use style="stroke:#000000;stroke-width:0.6;" x="99.1407" xlink:href="#m33b666d129" y="90.075851"/>
      </g>
     </g>
    </g>
    <g id="ytick_26">
     <g id="line2d_32">
      <g>
       <use style="stroke:#000000;stroke-width:0.6;" x="99.1407" xlink:href="#m33b666d129" y="75.509248"/>
      </g>
     </g>
    </g>
    <g id="ytick_27">
     <g id="line2d_33">
      <g>
       <use style="stroke:#000000;stroke-width:0.6;" x="99.1407" xlink:href="#m33b666d129" y="63.607467"/>
      </g>
     </g>
    </g>
    <g id="ytick_28">
     <g id="line2d_34">
      <g>
       <use style="stroke:#000000;stroke-width:0.6;" x="99.1407" xlink:href="#m33b666d129" y="53.544654"/>
      </g>
     </g>
    </g>
    <g id="ytick_29">
     <g id="line2d_35">
      <g>
       <use style="stroke:#000000;stroke-width:0.6;" x="99.1407" xlink:href="#m33b666d129" y="44.827849"/>
      </g>
     </g>
    </g>
    <g id="ytick_30">
     <g id="line2d_36">
      <g>
       <use style="stroke:#000000;stroke-width:0.6;" x="99.1407" xlink:href="#m33b666d129" y="37.139082"/>
      </g>
     </g>
    </g>
    <g id="text_12">
     <!-- Mass -->
     <defs>
      <path d="M 9.8125 72.90625 
L 24.515625 72.90625 
L 43.109375 23.296875 
L 61.8125 72.90625 
L 76.515625 72.90625 
L 76.515625 0 
L 66.890625 0 
L 66.890625 64.015625 
L 48.09375 14.015625 
L 38.1875 14.015625 
L 19.390625 64.015625 
L 19.390625 0 
L 9.8125 0 
z
" id="DejaVuSans-4d"/>
      <path d="M 44.28125 53.078125 
L 44.28125 44.578125 
Q 40.484375 46.53125 36.375 47.5 
Q 32.28125 48.484375 27.875 48.484375 
Q 21.1875 48.484375 17.84375 46.4375 
Q 14.5 44.390625 14.5 40.28125 
Q 14.5 37.15625 16.890625 35.375 
Q 19.28125 33.59375 26.515625 31.984375 
L 29.59375 31.296875 
Q 39.15625 29.25 43.1875 25.515625 
Q 47.21875 21.78125 47.21875 15.09375 
Q 47.21875 7.46875 41.1875 3.015625 
Q 35.15625 -1.421875 24.609375 -1.421875 
Q 20.21875 -1.421875 15.453125 -0.5625 
Q 10.6875 0.296875 5.421875 2 
L 5.421875 11.28125 
Q 10.40625 8.6875 15.234375 7.390625 
Q 20.0625 6.109375 24.8125 6.109375 
Q 31.15625 6.109375 34.5625 8.28125 
Q 37.984375 10.453125 37.984375 14.40625 
Q 37.984375 18.0625 35.515625 20.015625 
Q 33.0625 21.96875 24.703125 23.78125 
L 21.578125 24.515625 
Q 13.234375 26.265625 9.515625 29.90625 
Q 5.8125 33.546875 5.8125 39.890625 
Q 5.8125 47.609375 11.28125 51.796875 
Q 16.75 56 26.8125 56 
Q 31.78125 56 36.171875 55.265625 
Q 40.578125 54.546875 44.28125 53.078125 
z
" id="DejaVuSans-73"/>
     </defs>
     <g transform="translate(36.981325 291.396595)rotate(-90)scale(0.2 -0.2)">
      <use xlink:href="#DejaVuSans-4d"/>
      <use x="86.279297" xlink:href="#DejaVuSans-61"/>
      <use x="147.558594" xlink:href="#DejaVuSans-73"/>
      <use x="199.658203" xlink:href="#DejaVuSans-73"/>
     </g>
    </g>
   </g>
   <g id="line2d_37">
    <path clip-path="url(#pd9119f7f2c)" d="M 118.941275 58.765102 
L 496.621819 58.765102 
" style="fill:none;stroke:#000000;stroke-dasharray:5.55,2.4;stroke-dashoffset:0;stroke-width:1.5;"/>
   </g>
   <g id="line2d_38">
    <path clip-path="url(#pd9119f7f2c)" d="M 118.941275 139.141171 
L 496.621819 139.141171 
" style="fill:none;stroke:#000000;stroke-dasharray:5.55,2.4;stroke-dashoffset:0;stroke-width:1.5;"/>
   </g>
   <g id="line2d_39">
    <path clip-path="url(#pd9119f7f2c)" d="M 118.941275 219.467667 
L 496.621819 219.467667 
" style="fill:none;stroke:#000000;stroke-dasharray:5.55,2.4;stroke-dashoffset:0;stroke-width:1.5;"/>
   </g>
   <g id="line2d_40">
    <path clip-path="url(#pd9119f7f2c)" d="M 118.941275 327.387375 
L 496.621819 327.387375 
" style="fill:none;stroke:#000000;stroke-dasharray:5.55,2.4;stroke-dashoffset:0;stroke-width:1.5;"/>
   </g>
   <g id="text_13">
    <g id="patch_3">
     <path clip-path="url(#pd9119f7f2c)" d="M 143.016176 73.965102 
L 226.016176 73.965102 
L 226.016176 43.565102 
L 143.016176 43.565102 
z
" style="fill:#ffffff;stroke:#ffffff;stroke-linejoin:miter;"/>
    </g>
    <g clip-path="url(#pd9119f7f2c)">
     <!-- $10^{6.5}$ yr -->
     <defs>
      <path d="M 33.015625 40.375 
Q 26.375 40.375 22.484375 35.828125 
Q 18.609375 31.296875 18.609375 23.390625 
Q 18.609375 15.53125 22.484375 10.953125 
Q 26.375 6.390625 33.015625 6.390625 
Q 39.65625 6.390625 43.53125 10.953125 
Q 47.40625 15.53125 47.40625 23.390625 
Q 47.40625 31.296875 43.53125 35.828125 
Q 39.65625 40.375 33.015625 40.375 
z
M 52.59375 71.296875 
L 52.59375 62.3125 
Q 48.875 64.0625 45.09375 64.984375 
Q 41.3125 65.921875 37.59375 65.921875 
Q 27.828125 65.921875 22.671875 59.328125 
Q 17.53125 52.734375 16.796875 39.40625 
Q 19.671875 43.65625 24.015625 45.921875 
Q 28.375 48.1875 33.59375 48.1875 
Q 44.578125 48.1875 50.953125 41.515625 
Q 57.328125 34.859375 57.328125 23.390625 
Q 57.328125 12.15625 50.6875 5.359375 
Q 44.046875 -1.421875 33.015625 -1.421875 
Q 20.359375 -1.421875 13.671875 8.265625 
Q 6.984375 17.96875 6.984375 36.375 
Q 6.984375 53.65625 15.1875 63.9375 
Q 23.390625 74.21875 37.203125 74.21875 
Q 40.921875 74.21875 44.703125 73.484375 
Q 48.484375 72.75 52.59375 71.296875 
z
" id="DejaVuSans-36"/>
      <path d="M 10.6875 12.40625 
L 21 12.40625 
L 21 0 
L 10.6875 0 
z
" id="DejaVuSans-2e"/>
      <path id="DejaVuSans-20"/>
      <path d="M 32.171875 -5.078125 
Q 28.375 -14.84375 24.75 -17.8125 
Q 21.140625 -20.796875 15.09375 -20.796875 
L 7.90625 -20.796875 
L 7.90625 -13.28125 
L 13.1875 -13.28125 
Q 16.890625 -13.28125 18.9375 -11.515625 
Q 21 -9.765625 23.484375 -3.21875 
L 25.09375 0.875 
L 2.984375 54.6875 
L 12.5 54.6875 
L 29.59375 11.921875 
L 46.6875 54.6875 
L 56.203125 54.6875 
z
" id="DejaVuSans-79"/>
     </defs>
     <g transform="translate(147.016176 65.765102)scale(0.2 -0.2)">
      <use transform="translate(0 0.765625)" xlink:href="#DejaVuSans-31"/>
      <use transform="translate(63.623047 0.765625)" xlink:href="#DejaVuSans-30"/>
      <use transform="translate(128.203125 39.046875)scale(0.7)" xlink:href="#DejaVuSans-36"/>
      <use transform="translate(172.739258 39.046875)scale(0.7)" xlink:href="#DejaVuSans-2e"/>
      <use transform="translate(194.990234 39.046875)scale(0.7)" xlink:href="#DejaVuSans-35"/>
      <use transform="translate(242.260742 0.765625)" xlink:href="#DejaVuSans-20"/>
      <use transform="translate(274.047852 0.765625)" xlink:href="#DejaVuSans-79"/>
      <use transform="translate(333.227539 0.765625)" xlink:href="#DejaVuSans-72"/>
     </g>
    </g>
   </g>
   <g id="text_14">
    <g id="patch_4">
     <path clip-path="url(#pd9119f7f2c)" d="M 235.091653 154.241171 
L 304.691653 154.241171 
L 304.691653 124.041171 
L 235.091653 124.041171 
z
" style="fill:#ffffff;stroke:#ffffff;stroke-linejoin:miter;"/>
    </g>
    <g clip-path="url(#pd9119f7f2c)">
     <!-- $10^{7}$ yr -->
     <defs>
      <path d="M 8.203125 72.90625 
L 55.078125 72.90625 
L 55.078125 68.703125 
L 28.609375 0 
L 18.3125 0 
L 43.21875 64.59375 
L 8.203125 64.59375 
z
" id="DejaVuSans-37"/>
     </defs>
     <g transform="translate(239.091653 146.041171)scale(0.2 -0.2)">
      <use transform="translate(0 0.684375)" xlink:href="#DejaVuSans-31"/>
      <use transform="translate(63.623047 0.684375)" xlink:href="#DejaVuSans-30"/>
      <use transform="translate(128.203125 38.965625)scale(0.7)" xlink:href="#DejaVuSans-37"/>
      <use transform="translate(175.473633 0.684375)" xlink:href="#DejaVuSans-20"/>
      <use transform="translate(207.260742 0.684375)" xlink:href="#DejaVuSans-79"/>
      <use transform="translate(266.44043 0.684375)" xlink:href="#DejaVuSans-72"/>
     </g>
    </g>
   </g>
   <g id="text_15">
    <g id="patch_5">
     <path clip-path="url(#pd9119f7f2c)" d="M 320.467129 234.667667 
L 390.067129 234.667667 
L 390.067129 204.267667 
L 320.467129 204.267667 
z
" style="fill:#ffffff;stroke:#ffffff;stroke-linejoin:miter;"/>
    </g>
    <g clip-path="url(#pd9119f7f2c)">
     <!-- $10^{8}$ yr -->
     <defs>
      <path d="M 31.78125 34.625 
Q 24.75 34.625 20.71875 30.859375 
Q 16.703125 27.09375 16.703125 20.515625 
Q 16.703125 13.921875 20.71875 10.15625 
Q 24.75 6.390625 31.78125 6.390625 
Q 38.8125 6.390625 42.859375 10.171875 
Q 46.921875 13.96875 46.921875 20.515625 
Q 46.921875 27.09375 42.890625 30.859375 
Q 38.875 34.625 31.78125 34.625 
z
M 21.921875 38.8125 
Q 15.578125 40.375 12.03125 44.71875 
Q 8.5 49.078125 8.5 55.328125 
Q 8.5 64.0625 14.71875 69.140625 
Q 20.953125 74.21875 31.78125 74.21875 
Q 42.671875 74.21875 48.875 69.140625 
Q 55.078125 64.0625 55.078125 55.328125 
Q 55.078125 49.078125 51.53125 44.71875 
Q 48 40.375 41.703125 38.8125 
Q 48.828125 37.15625 52.796875 32.3125 
Q 56.78125 27.484375 56.78125 20.515625 
Q 56.78125 9.90625 50.3125 4.234375 
Q 43.84375 -1.421875 31.78125 -1.421875 
Q 19.734375 -1.421875 13.25 4.234375 
Q 6.78125 9.90625 6.78125 20.515625 
Q 6.78125 27.484375 10.78125 32.3125 
Q 14.796875 37.15625 21.921875 38.8125 
z
M 18.3125 54.390625 
Q 18.3125 48.734375 21.84375 45.5625 
Q 25.390625 42.390625 31.78125 42.390625 
Q 38.140625 42.390625 41.71875 45.5625 
Q 45.3125 48.734375 45.3125 54.390625 
Q 45.3125 60.0625 41.71875 63.234375 
Q 38.140625 66.40625 31.78125 66.40625 
Q 25.390625 66.40625 21.84375 63.234375 
Q 18.3125 60.0625 18.3125 54.390625 
z
" id="DejaVuSans-38"/>
     </defs>
     <g transform="translate(324.467129 226.467667)scale(0.2 -0.2)">
      <use transform="translate(0 0.765625)" xlink:href="#DejaVuSans-31"/>
      <use transform="translate(63.623047 0.765625)" xlink:href="#DejaVuSans-30"/>
      <use transform="translate(128.203125 39.046875)scale(0.7)" xlink:href="#DejaVuSans-38"/>
      <use transform="translate(175.473633 0.765625)" xlink:href="#DejaVuSans-20"/>
      <use transform="translate(207.260742 0.765625)" xlink:href="#DejaVuSans-79"/>
      <use transform="translate(266.44043 0.765625)" xlink:href="#DejaVuSans-72"/>
     </g>
    </g>
   </g>
   <g id="text_16">
    <g id="patch_6">
     <path clip-path="url(#pd9119f7f2c)" d="M 401.342606 342.587375 
L 479.942606 342.587375 
L 479.942606 312.187375 
L 401.342606 312.187375 
z
" style="fill:#ffffff;stroke:#ffffff;stroke-linejoin:miter;"/>
    </g>
    <g clip-path="url(#pd9119f7f2c)">
     <!-- $10^{10}$ yr -->
     <g transform="translate(405.342606 334.387375)scale(0.2 -0.2)">
      <use transform="translate(0 0.765625)" xlink:href="#DejaVuSans-31"/>
      <use transform="translate(63.623047 0.765625)" xlink:href="#DejaVuSans-30"/>
      <use transform="translate(128.203125 39.046875)scale(0.7)" xlink:href="#DejaVuSans-31"/>
      <use transform="translate(172.739258 39.046875)scale(0.7)" xlink:href="#DejaVuSans-30"/>
      <use transform="translate(220.009766 0.765625)" xlink:href="#DejaVuSans-20"/>
      <use transform="translate(251.796875 0.765625)" xlink:href="#DejaVuSans-79"/>
      <use transform="translate(310.976562 0.765625)" xlink:href="#DejaVuSans-72"/>
     </g>
    </g>
   </g>
   <g id="patch_7">
    <path d="M 99.1407 503.08 
L 99.1407 29.363189 
" style="fill:none;stroke:#000000;stroke-linecap:square;stroke-linejoin:miter;stroke-width:0.8;"/>
   </g>
   <g id="patch_8">
    <path d="M 526.018082 503.08 
L 526.018082 29.363189 
" style="fill:none;stroke:#000000;stroke-linecap:square;stroke-linejoin:miter;stroke-width:0.8;"/>
   </g>
   <g id="patch_9">
    <path d="M 99.1407 503.08 
L 526.018082 503.08 
" style="fill:none;stroke:#000000;stroke-linecap:square;stroke-linejoin:miter;stroke-width:0.8;"/>
   </g>
   <g id="patch_10">
    <path d="M 99.1407 29.363189 
L 526.018082 29.363189 
" style="fill:none;stroke:#000000;stroke-linecap:square;stroke-linejoin:miter;stroke-width:0.8;"/>
   </g>
  </g>
 </g>
 <defs>
  <clipPath id="pd9119f7f2c">
   <rect height="473.716811" width="426.877382" x="99.1407" y="29.363189"/>
  </clipPath>
 </defs>
</svg>
