<?xml version="1.0" encoding="UTF-8" standalone="no"?>
<!-- Created with Inkscape (http://www.inkscape.org/) -->

<svg
   xmlns:dc="http://purl.org/dc/elements/1.1/"
   xmlns:cc="http://creativecommons.org/ns#"
   xmlns:rdf="http://www.w3.org/1999/02/22-rdf-syntax-ns#"
   xmlns:svg="http://www.w3.org/2000/svg"
   xmlns="http://www.w3.org/2000/svg"
   xmlns:sodipodi="http://sodipodi.sourceforge.net/DTD/sodipodi-0.dtd"
   xmlns:inkscape="http://www.inkscape.org/namespaces/inkscape"
   width="219.42136"
   height="145.94389"
   id="svg2"
   version="1.1"
   inkscape:version="0.48.5 r10040"
   sodipodi:docname="narayanan_dave_2013_imf_evolution.svg">
  <defs
     id="defs4" />
  <sodipodi:namedview
     id="base"
     pagecolor="#ffffff"
     bordercolor="#666666"
     borderopacity="1.0"
     inkscape:pageopacity="0.0"
     inkscape:pageshadow="2"
     inkscape:zoom="1.01"
     inkscape:cx="173.24306"
     inkscape:cy="86.872978"
     inkscape:document-units="px"
     inkscape:current-layer="g5975"
     showgrid="false"
     showguides="true"
     inkscape:guide-bbox="true"
     inkscape:window-width="1349"
     inkscape:window-height="846"
     inkscape:window-x="4"
     inkscape:window-y="0"
     inkscape:window-maximized="0"
     fit-margin-top="0"
     fit-margin-left="0"
     fit-margin-right="0"
     fit-margin-bottom="0" />
  <metadata
     id="metadata7">
    <rdf:RDF>
      <cc:Work
         rdf:about="">
        <dc:format>image/svg+xml</dc:format>
        <dc:type
           rdf:resource="http://purl.org/dc/dcmitype/StillImage" />
        <dc:title></dc:title>
      </cc:Work>
    </rdf:RDF>
  </metadata>
  <g
     inkscape:label="Layer 1"
     inkscape:groupmode="layer"
     id="layer1"
     transform="translate(-162.15298,-433.6873)">
    <g
       id="g3050"
       transform="matrix(1.25,0,0,-1.25,-15.820768,1032.6492)">
      <g
         id="g10187">
        <g
           id="g9857">
          <g
             id="g9528">
            <g
               id="g9200">
              <g
                 id="g8873">
                <g
                   id="g8547">
                  <g
                     id="g6612">
                    <g
                       id="g6293">
                      <g
                         id="g5975">
                        <path
                           inkscape:connector-curvature="0"
                           d="m 188.47608,472.63152 -2.204,-3.116 2.204,0 0,3.116 z m 0.296,0.927 0.427,0 0,-4.043 0.939,0 0,-0.597 -0.939,0 0,-1.532 -0.714,0 0,1.532 -2.587,0 0,0.597 2.874,4.043"
                           style="fill:#000000;fill-opacity:1;fill-rule:nonzero;stroke:none"
                           id="path3152" />
                        <path
                           inkscape:connector-curvature="0"
                           d="m 193.87008,467.91052 c 0.271,-0.173 0.501,-0.259 0.69,-0.259 0.419,0 0.73,0.142 0.934,0.425 0.203,0.283 0.306,0.592 0.306,0.925 0,0.321 -0.083,0.603 -0.248,0.846 -0.278,0.411 -0.748,0.616 -1.41,0.616 -0.039,0 -0.076,-0.001 -0.112,-0.002 -0.036,-0.002 -0.078,-0.005 -0.126,-0.011 l -0.009,0.116 c 0.479,0.174 0.857,0.374 1.132,0.598 0.275,0.225 0.413,0.521 0.413,0.889 0,0.326 -0.108,0.575 -0.326,0.746 -0.217,0.171 -0.464,0.256 -0.743,0.256 -0.329,0 -0.619,-0.121 -0.871,-0.364 -0.137,-0.131 -0.286,-0.335 -0.445,-0.611 l -0.139,0.032 c 0.119,0.454 0.343,0.819 0.669,1.091 0.327,0.273 0.704,0.409 1.132,0.409 0.458,0 0.813,-0.126 1.063,-0.378 0.25,-0.251 0.375,-0.542 0.375,-0.871 0,-0.29 -0.104,-0.557 -0.311,-0.799 -0.116,-0.138 -0.297,-0.292 -0.543,-0.463 0.287,-0.123 0.518,-0.266 0.692,-0.431 0.326,-0.314 0.489,-0.713 0.489,-1.195 0,-0.569 -0.223,-1.071 -0.671,-1.505 -0.448,-0.434 -1.085,-0.651 -1.911,-0.651 -0.369,0 -0.627,0.055 -0.775,0.164 -0.148,0.109 -0.222,0.227 -0.222,0.353 0,0.077 0.024,0.152 0.074,0.224 0.049,0.072 0.129,0.108 0.24,0.108 0.165,0 0.382,-0.086 0.653,-0.258"
                           style="fill:#000000;fill-opacity:1;fill-rule:nonzero;stroke:none"
                           id="path3156" />
                        <path
                           inkscape:connector-curvature="0"
                           d="m 205.26908,467.49052 c 1.095,1.137 1.84,1.972 2.232,2.504 0.392,0.533 0.589,1.052 0.589,1.558 0,0.442 -0.12,0.78 -0.359,1.012 -0.24,0.231 -0.526,0.347 -0.859,0.347 -0.41,0 -0.742,-0.149 -0.997,-0.449 -0.14,-0.164 -0.275,-0.417 -0.404,-0.758 l -0.193,0.04 c 0.149,0.689 0.403,1.167 0.761,1.435 0.358,0.267 0.743,0.402 1.153,0.402 0.505,0 0.915,-0.16 1.228,-0.478 0.313,-0.319 0.469,-0.709 0.469,-1.169 0,-0.492 -0.169,-0.964 -0.507,-1.419 -0.339,-0.455 -1.074,-1.264 -2.207,-2.428 l 2.063,0 c 0.287,0 0.489,0.035 0.606,0.103 0.117,0.069 0.248,0.237 0.395,0.503 l 0.117,-0.054 -0.498,-1.253 -3.589,0 0,0.104"
                           style="fill:#000000;fill-opacity:1;fill-rule:nonzero;stroke:none"
                           id="path3160" />
                        <path
                           inkscape:connector-curvature="0"
                           d="m 235.62308,473.52452 c 0.001,-0.007 0.002,-0.024 0.002,-0.051 l 0,-5.408 c 0,-0.231 0.062,-0.378 0.185,-0.44 0.123,-0.064 0.354,-0.101 0.691,-0.113 l 0,-0.126 -2.538,0 0,0.135 c 0.362,0.018 0.599,0.067 0.71,0.148 0.111,0.081 0.166,0.256 0.166,0.526 l 0,4.16 c 0,0.143 -0.018,0.252 -0.054,0.327 -0.036,0.075 -0.113,0.112 -0.233,0.112 -0.079,0 -0.18,-0.021 -0.304,-0.064 -0.124,-0.044 -0.24,-0.09 -0.348,-0.138 l 0,0.126 1.649,0.84 0.054,0 c 0.012,-0.015 0.018,-0.026 0.02,-0.034"
                           style="fill:#000000;fill-opacity:1;fill-rule:nonzero;stroke:none"
                           id="path3164" />
                        <path
                           inkscape:connector-curvature="0"
                           d="m 316.78008,468.28052 c 0.165,0.482 0.247,1.179 0.247,2.091 0,0.727 -0.049,1.308 -0.148,1.741 -0.186,0.808 -0.534,1.212 -1.042,1.212 -0.51,0 -0.858,-0.415 -1.047,-1.247 -0.099,-0.443 -0.148,-1.027 -0.148,-1.751 0,-0.679 0.051,-1.222 0.153,-1.629 0.191,-0.76 0.551,-1.14 1.078,-1.14 0.44,0 0.742,0.241 0.907,0.723 z m 0.684,4.204 c 0.301,-0.584 0.452,-1.254 0.452,-2.012 0,-0.596 -0.092,-1.157 -0.279,-1.684 -0.349,-0.992 -0.956,-1.487 -1.819,-1.487 -0.589,0 -1.074,0.268 -1.454,0.804 -0.408,0.572 -0.612,1.349 -0.612,2.331 0,0.773 0.136,1.438 0.409,1.995 0.368,0.757 0.935,1.136 1.698,1.136 0.689,0 1.224,-0.361 1.605,-1.083"
                           style="fill:#000000;fill-opacity:1;fill-rule:nonzero;stroke:none"
                           id="path3168" />
                        <path
                           inkscape:connector-curvature="0"
                           d="m 244.94708,479.16952 0,-0.108 -2.493,-3.738 1.271,0 c 0.44,0 0.719,0.057 0.836,0.169 0.117,0.113 0.232,0.387 0.345,0.824 l 0.158,-0.031 -0.126,-1.244 -3.481,0 0,0.103 2.457,3.751 -1.204,0 c -0.324,0 -0.534,-0.056 -0.634,-0.167 -0.098,-0.111 -0.167,-0.326 -0.206,-0.646 l -0.157,0 0.013,1.087 3.221,0"
                           style="fill:#000000;fill-opacity:1;fill-rule:nonzero;stroke:none"
                           id="path3170" />
                        <path
                           inkscape:connector-curvature="0"
                           d="m 169.74,384.061 2.911,0 m -2.911,0 0,77.684 m 142.962,0 0,-0.78 m -5.301,0.78 0,-0.78 m -5.281,0.78 0,-0.78 m -10.604,0.78 0,-0.78 m -5.28,0.78 0,-0.78 m -5.302,0.78 0,-0.78 m -10.583,0.78 0,-0.78 m -5.301,0.78 0,-0.78 m -5.303,0.78 0,-0.78 m -10.583,0.78 0,-0.78 m -5.302,0.78 0,-0.78 m -5.281,0.78 0,-0.78 m -10.604,0.78 0,-0.78 m -5.281,0.78 0,-0.78 m -5.302,0.78 0,-0.78 m -10.582,0.78 0,-0.78 m -5.303,0.78 0,-0.78 m -5.302,0.78 0,-0.78 m -10.582,0.78 0,-0.78 m -5.303,0.78 0,-0.78 m -5.302,0.78 0,-0.78 m 121.799,0.78 0,-1.564 m -21.187,1.564 0,-1.564 m -21.166,1.564 0,-1.564 m -21.187,1.564 0,-1.564 m -21.187,1.564 0,-1.564 m -21.187,1.564 0,-1.564 m -21.165,1.564 0,-1.564 m 0,1.564 145.441,0 m -2.479,-77.684 0,0.782 m -5.301,-0.782 0,0.782 m -5.281,-0.782 0,0.782 m -10.604,-0.782 0,0.782 m -5.28,-0.782 0,0.782 m -5.302,-0.782 0,0.782 m -10.583,-0.782 0,0.782 m -5.301,-0.782 0,0.782 m -5.303,-0.782 0,0.782 m -10.583,-0.782 0,0.782 m -5.302,-0.782 0,0.782 m -5.281,-0.782 0,0.782 m -10.604,-0.782 0,0.782 m -5.281,-0.782 0,0.782 m -5.302,-0.782 0,0.782 m -10.582,-0.782 0,0.782 m -5.303,-0.782 0,0.782 m -5.302,-0.782 0,0.782 m -10.582,-0.782 0,0.782 m -5.303,-0.782 0,0.782 m -5.302,-0.782 0,0.782 m 121.799,-0.782 0,1.564 m -21.187,-1.564 0,1.564 m -21.166,-1.564 0,1.564 m -21.187,-1.564 0,1.564 m -21.187,-1.564 0,1.564 m -21.187,-1.564 0,1.564 m -21.165,-1.564 0,1.564 m 0,-1.564 145.441,0"
                           style="fill:none;stroke:#000000;stroke-width:1.08700001;stroke-linecap:butt;stroke-linejoin:miter;stroke-miterlimit:2.5;stroke-opacity:1;stroke-dasharray:none"
                           id="path3324" />
                        <path
                           inkscape:connector-curvature="0"
                           d="m 158.938,384.946 c 0.164,0.483 0.247,1.18 0.247,2.092 0,0.728 -0.05,1.308 -0.148,1.742 -0.186,0.808 -0.533,1.211 -1.042,1.211 -0.509,0 -0.859,-0.415 -1.047,-1.248 -0.099,-0.442 -0.148,-1.025 -0.148,-1.75 0,-0.679 0.05,-1.222 0.152,-1.629 0.192,-0.759 0.551,-1.14 1.078,-1.14 0.44,0 0.743,0.241 0.908,0.722 z m 0.682,4.205 c 0.303,-0.583 0.454,-1.254 0.454,-2.012 0,-0.596 -0.093,-1.157 -0.278,-1.684 -0.35,-0.991 -0.957,-1.487 -1.82,-1.487 -0.59,0 -1.075,0.267 -1.455,0.804 -0.408,0.573 -0.611,1.349 -0.611,2.332 0,0.772 0.137,1.437 0.409,1.994 0.369,0.758 0.934,1.136 1.698,1.136 0.689,0 1.223,-0.361 1.603,-1.083"
                           style="fill:#000000;fill-opacity:1;fill-rule:nonzero;stroke:none"
                           id="path3326" />
                        <path
                           inkscape:connector-curvature="0"
                           d="m 161.566,384.097 c -0.099,0.099 -0.149,0.221 -0.149,0.36 0,0.142 0.05,0.261 0.151,0.361 0.1,0.098 0.22,0.147 0.361,0.147 0.141,0 0.261,-0.049 0.359,-0.147 0.099,-0.1 0.149,-0.219 0.149,-0.361 0,-0.139 -0.049,-0.261 -0.146,-0.36 -0.097,-0.102 -0.218,-0.152 -0.362,-0.152 -0.144,0 -0.265,0.05 -0.363,0.152"
                           style="fill:#000000;fill-opacity:1;fill-rule:nonzero;stroke:none"
                           id="path3328" />
                        <path
                           inkscape:connector-curvature="0"
                           d="m 165.47,390.192 c 0.002,-0.008 0.003,-0.025 0.003,-0.052 l 0,-5.408 c 0,-0.231 0.062,-0.377 0.185,-0.44 0.123,-0.063 0.354,-0.101 0.691,-0.113 l 0,-0.125 -2.538,0 0,0.134 c 0.363,0.018 0.599,0.067 0.71,0.149 0.111,0.08 0.166,0.256 0.166,0.525 l 0,4.16 c 0,0.143 -0.018,0.252 -0.054,0.328 -0.036,0.074 -0.114,0.111 -0.234,0.111 -0.077,0 -0.179,-0.021 -0.303,-0.064 -0.124,-0.043 -0.24,-0.089 -0.348,-0.138 l 0,0.126 1.649,0.84 0.053,0 c 0.012,-0.015 0.019,-0.026 0.02,-0.033"
                           style="fill:#000000;fill-opacity:1;fill-rule:nonzero;stroke:none"
                           id="path3330" />
                        <path
                           inkscape:connector-curvature="0"
                           d="m 169.74,429.779 2.911,0"
                           style="fill:none;stroke:#000000;stroke-width:1.08700001;stroke-linecap:butt;stroke-linejoin:miter;stroke-miterlimit:2.5;stroke-opacity:1;stroke-dasharray:none"
                           id="path3332" />
                        <path
                           inkscape:connector-curvature="0"
                           d="m 158.571,432.881 c 0.002,-0.008 0.003,-0.024 0.003,-0.052 l 0,-5.407 c 0,-0.23 0.061,-0.378 0.185,-0.44 0.123,-0.063 0.354,-0.102 0.691,-0.114 l 0,-0.125 -2.538,0 0,0.134 c 0.362,0.02 0.599,0.068 0.71,0.149 0.111,0.081 0.166,0.256 0.166,0.526 l 0,4.159 c 0,0.144 -0.018,0.253 -0.054,0.328 -0.036,0.074 -0.114,0.112 -0.234,0.112 -0.078,0 -0.179,-0.022 -0.303,-0.065 -0.124,-0.043 -0.24,-0.089 -0.348,-0.137 l 0,0.125 1.648,0.84 0.054,0 c 0.012,-0.014 0.019,-0.025 0.02,-0.033"
                           style="fill:#000000;fill-opacity:1;fill-rule:nonzero;stroke:none"
                           id="path3334" />
                        <path
                           inkscape:connector-curvature="0"
                           d="m 161.566,426.786 c -0.099,0.101 -0.149,0.221 -0.149,0.361 0,0.141 0.05,0.26 0.151,0.36 0.1,0.099 0.22,0.147 0.361,0.147 0.141,0 0.261,-0.048 0.359,-0.147 0.099,-0.1 0.149,-0.219 0.149,-0.36 0,-0.14 -0.049,-0.26 -0.146,-0.361 -0.097,-0.1 -0.218,-0.15 -0.362,-0.15 -0.144,0 -0.265,0.05 -0.363,0.15"
                           style="fill:#000000;fill-opacity:1;fill-rule:nonzero;stroke:none"
                           id="path3336" />
                        <path
                           inkscape:connector-curvature="0"
                           d="m 165.837,427.636 c 0.165,0.482 0.247,1.18 0.247,2.092 0,0.727 -0.05,1.307 -0.148,1.742 -0.186,0.807 -0.533,1.212 -1.042,1.212 -0.509,0 -0.858,-0.416 -1.047,-1.248 -0.099,-0.444 -0.148,-1.027 -0.148,-1.751 0,-0.679 0.05,-1.223 0.152,-1.629 0.192,-0.76 0.551,-1.14 1.078,-1.14 0.441,0 0.743,0.24 0.908,0.722 z m 0.682,4.205 c 0.303,-0.584 0.454,-1.254 0.454,-2.012 0,-0.596 -0.093,-1.158 -0.278,-1.684 -0.351,-0.991 -0.957,-1.487 -1.819,-1.487 -0.591,0 -1.076,0.268 -1.456,0.804 -0.407,0.572 -0.611,1.349 -0.611,2.332 0,0.772 0.137,1.437 0.409,1.993 0.369,0.758 0.934,1.137 1.698,1.137 0.689,0 1.223,-0.361 1.603,-1.083"
                           style="fill:#000000;fill-opacity:1;fill-rule:nonzero;stroke:none"
                           id="path3338" />
                        <path
                           inkscape:connector-curvature="0"
                           d="m 169.74,461.745 1.456,0 m -1.456,-4.432 1.456,0 m -1.456,-5.716 1.456,0 m -1.456,-8.04 1.456,0 m -1.456,-15.862 1.456,0 m -1.456,-2.347 1.456,0 m -1.456,-2.651 1.456,0 m -1.456,-3.043 1.456,0 m -1.456,-3.628 1.456,0 m -1.456,-4.435 1.456,0 m -1.456,-5.714 1.456,0 m -1.456,-8.04 1.456,0"
                           style="fill:none;stroke:#000000;stroke-width:1.08700001;stroke-linecap:butt;stroke-linejoin:miter;stroke-miterlimit:2.5;stroke-opacity:1;stroke-dasharray:none"
                           id="path3340" />
                        <path
                           inkscape:connector-curvature="0"
                           d="m 148.425,407.411 c -0.039,0.381 -0.125,0.625 -0.258,0.733 -0.133,0.108 -0.442,0.162 -0.927,0.162 l -3.734,0 c -0.332,0 -0.549,-0.052 -0.649,-0.157 -0.1,-0.105 -0.16,-0.343 -0.177,-0.714 l -0.171,0 0,1.813 4.583,2.112 -4.583,2.062 0,1.828 0.171,0 c 0.024,-0.341 0.086,-0.561 0.186,-0.66 0.1,-0.1 0.313,-0.148 0.64,-0.148 l 4.088,0 c 0.335,0 0.55,0.048 0.644,0.148 0.095,0.099 0.157,0.319 0.187,0.66 l 0.17,0 0,-2.574 -0.17,0 c -0.03,0.372 -0.097,0.603 -0.2,0.694 -0.103,0.091 -0.349,0.138 -0.738,0.138 l -4.13,0 5.238,-2.357 0,-0.125 -5.022,-2.316 3.667,0 c 0.503,0 0.83,0.074 0.983,0.22 0.098,0.096 0.166,0.309 0.202,0.643 l 0.17,0 0,-2.162 -0.17,0"
                           style="fill:#000000;fill-opacity:1;fill-rule:nonzero;stroke:none"
                           id="path3342" />
                        <path
                           inkscape:connector-curvature="0"
                           d="m 148.238,417.495 c 0.119,0.168 0.25,0.253 0.393,0.253 0.061,0 0.118,-0.021 0.17,-0.064 0.053,-0.043 0.08,-0.11 0.08,-0.199 0,-0.065 -0.023,-0.122 -0.067,-0.17 -0.045,-0.049 -0.11,-0.085 -0.195,-0.108 l -0.134,-0.033 c -0.098,-0.024 -0.168,-0.066 -0.208,-0.126 -0.04,-0.061 -0.06,-0.141 -0.06,-0.242 0,-0.212 0.093,-0.39 0.278,-0.536 0.185,-0.145 0.431,-0.219 0.738,-0.219 0.28,0 0.532,0.081 0.756,0.241 0.223,0.161 0.334,0.378 0.334,0.651 0,0.192 -0.063,0.365 -0.189,0.515 -0.073,0.085 -0.188,0.182 -0.347,0.29 l 0.048,0.077 c 0.223,-0.105 0.4,-0.217 0.53,-0.334 0.249,-0.224 0.373,-0.484 0.373,-0.779 0,-0.29 -0.114,-0.546 -0.342,-0.769 -0.229,-0.223 -0.539,-0.334 -0.93,-0.334 -0.385,0 -0.715,0.122 -0.992,0.365 -0.277,0.243 -0.415,0.55 -0.415,0.921 0,0.232 0.06,0.432 0.179,0.6"
                           style="fill:#000000;fill-opacity:1;fill-rule:nonzero;stroke:none"
                           id="path3344" />
                        <path
                           inkscape:connector-curvature="0"
                           d="m 143.542,421.68 c -0.482,0.383 -0.87,0.835 -1.163,1.356 l 0.148,0.085 c 0.383,-0.482 0.756,-0.826 1.118,-1.033 0.632,-0.362 1.474,-0.544 2.525,-0.544 0.779,0 1.421,0.069 1.927,0.207 0.886,0.243 1.55,0.7 1.99,1.37 l 0.148,-0.116 c -0.177,-0.369 -0.522,-0.767 -1.038,-1.195 -0.853,-0.71 -1.823,-1.065 -2.91,-1.065 -1.042,0 -1.957,0.311 -2.745,0.935"
                           style="fill:#000000;fill-opacity:1;fill-rule:nonzero;stroke:none"
                           id="path3346" />
                        <path
                           inkscape:connector-curvature="0"
                           d="m 148.425,423.49 c -0.039,0.38 -0.125,0.624 -0.258,0.732 -0.133,0.108 -0.442,0.162 -0.927,0.162 l -3.734,0 c -0.332,0 -0.549,-0.052 -0.649,-0.157 -0.1,-0.105 -0.16,-0.343 -0.177,-0.714 l -0.171,0 0,1.814 4.583,2.113 -4.583,2.06 0,1.828 0.171,0 c 0.024,-0.341 0.086,-0.561 0.186,-0.66 0.1,-0.1 0.313,-0.148 0.64,-0.148 l 4.088,0 c 0.335,0 0.55,0.048 0.644,0.148 0.095,0.099 0.157,0.319 0.187,0.66 l 0.17,0 0,-2.573 -0.17,0 c -0.03,0.371 -0.097,0.603 -0.2,0.693 -0.103,0.092 -0.349,0.138 -0.738,0.138 l -4.13,0 5.238,-2.356 0,-0.126 -5.022,-2.315 3.667,0 c 0.503,0 0.83,0.073 0.983,0.219 0.098,0.097 0.166,0.31 0.202,0.643 l 0.17,0 0,-2.161 -0.17,0"
                           style="fill:#000000;fill-opacity:1;fill-rule:nonzero;stroke:none"
                           id="path3348" />
                        <path
                           inkscape:connector-curvature="0"
                           d="m 146.805,434.031 c 0.006,-0.991 0.804,-1.805 1.795,-1.805 0.974,0 1.755,0.848 1.755,1.805 0,0.992 -0.792,1.801 -1.789,1.801 -0.974,0 -1.755,-0.838 -1.755,-1.801 l -0.006,0 z m 1.761,2.222 c 1.225,0 2.193,-1.008 2.193,-2.227 0,-1.18 -0.951,-2.222 -2.159,-2.222 -1.225,0 -2.193,1.003 -2.193,2.222 0,1.19 0.951,2.227 2.159,2.227"
                           style="fill:#000000;fill-opacity:1;fill-rule:nonzero;stroke:none"
                           id="path3350" />
                        <path
                           inkscape:connector-curvature="0"
                           d="m 149.389,433.905 c 0,-0.408 -0.335,-0.744 -0.743,-0.744 -0.417,0 -0.753,0.336 -0.753,0.744 0,0.417 0.336,0.752 0.753,0.752 0.408,0 0.743,-0.335 0.743,-0.752"
                           style="fill:#000000;fill-opacity:1;fill-rule:nonzero;stroke:none"
                           id="path3352" />
                        <path
                           inkscape:connector-curvature="0"
                           d="m 147.598,437.577 c 0.399,-0.116 0.774,-0.287 1.128,-0.512 0.377,-0.237 0.729,-0.552 1.055,-0.947 0.216,-0.26 0.367,-0.479 0.454,-0.656 l -0.148,-0.086 c -0.35,0.462 -0.708,0.799 -1.074,1.012 -0.647,0.376 -1.502,0.565 -2.565,0.565 -0.859,0 -1.561,-0.088 -2.106,-0.26 -0.77,-0.243 -1.375,-0.682 -1.815,-1.317 l -0.148,0.117 c 0.263,0.473 0.662,0.913 1.194,1.321 0.821,0.626 1.741,0.939 2.759,0.939 0.446,0 0.868,-0.059 1.266,-0.176"
                           style="fill:#000000;fill-opacity:1;fill-rule:nonzero;stroke:none"
                           id="path3354" />
                        <path
                           inkscape:connector-curvature="0"
                           d="m 315.181,461.745 -1.457,0 m 1.457,-4.432 -1.457,0 m 1.457,-5.716 -1.457,0 m 1.457,-8.04 -1.457,0 m 1.457,-15.862 -1.457,0 m 1.457,-2.347 -1.457,0 m 1.457,-2.651 -1.457,0 m 1.457,-3.043 -1.457,0 m 1.457,-3.628 -1.457,0 m 1.457,-4.435 -1.457,0 m 1.457,-5.714 -1.457,0 m 1.457,-8.04 -1.457,0 m 1.457,31.942 -2.89,0 m 2.89,-45.718 -2.89,0 m 2.89,0 0,77.684"
                           style="fill:none;stroke:#000000;stroke-width:1.08700001;stroke-linecap:butt;stroke-linejoin:miter;stroke-miterlimit:2.5;stroke-opacity:1;stroke-dasharray:none"
                           id="path3356" />
                        <path
                           inkscape:connector-curvature="0"
                           d="m 171.478,393.729 0.543,3.086 0.543,2.565 0.544,2.194 0.543,1.914 0.544,1.694 0.543,1.499 0.542,1.348 0.544,1.216 0.543,1.13 0.543,1 0.544,0.956 0.543,0.868 0.543,0.805 0.544,0.739 0.543,0.696 0.543,0.651 0.826,0.978 1.087,1.086 1.086,0.957 1.087,0.869 1.086,0.565 1.087,0.435 1.086,0.391 1.108,0.348 1.087,0.325 1.065,0.544 2.194,0.478 2.173,0.435 2.174,0.368 2.172,0.326 2.174,0.305 2.173,0.283 2.173,0.369 2.194,0.457 2.391,0.435 4.368,0.412 4.345,0.282 4.347,0.24 4.367,0.217 4.324,0.261 4.369,0.109 4.346,-0.043 6.996,-0.219 8.736,-0.565 8.671,-0.847 8.735,-1.435 8.692,-1.847 12.126,-4.084 17.254,-4.151"
                           style="fill:none;stroke:#000000;stroke-width:3.25999999;stroke-linecap:butt;stroke-linejoin:miter;stroke-miterlimit:2.5;stroke-opacity:1;stroke-dasharray:none"
                           id="path3358" />
                        <path
                           inkscape:connector-curvature="0"
                           d="m 171.478,401.27 0.543,5.02 0.543,4.041 0.544,3.368 0.543,2.869 0.544,2.457 0.543,2.172 0.542,1.891 0.544,1.717 0.543,1.542 0.543,1.391 0.544,1.129 0.543,0.805 0.543,0.717 0.544,0.696 0.543,0.608 0.543,0.564 0.826,0.653 1.087,0.912 1.086,0.826 1.087,0.718 1.086,0.63 1.087,0.564 1.086,0.521 1.108,0.457 1.087,0.414 1.065,0.477 2.194,0.653 2.173,0.521 2.174,0.369 2.172,0.218 2.174,0.02 2.173,-0.194 2.173,-0.436 2.194,-0.846 2.391,-1.847 4.368,-2.195 4.345,-2.303 4.347,-2.304 4.367,-2.217 4.324,-2.131 4.369,-3.236 4.346,-3.587 6.996,-3.086 8.736,-2.629 8.671,-2.455 8.735,-3.737 8.692,-4.086 12.126,-3.714 17.254,-4.781"
                           style="fill:none;stroke:#ed1c24;stroke-width:3.25999999;stroke-linecap:butt;stroke-linejoin:miter;stroke-miterlimit:2.5;stroke-opacity:1;stroke-dasharray:0.86922, 2.173;stroke-dashoffset:0"
                           id="path3360" />
                        <path
                           inkscape:connector-curvature="0"
                           d="m 171.478,405.682 0.543,6.453 0.543,5.064 0.544,4.107 0.543,3.433 0.544,2.933 0.543,2.521 0.542,2.129 0.544,1.392 0.543,1.238 0.543,1.108 0.544,0.978 0.543,0.869 0.543,0.804 0.544,0.739 0.543,0.674 0.543,0.609 0.826,0.761 1.087,0.978 1.086,0.824 1.087,0.74 1.086,0.63 1.087,0.479 1.086,0.346 1.108,0.154 1.087,-0.066 1.065,-0.328 2.194,-1.302 2.173,-2.043 2.174,-2.346 2.172,-2.479 2.174,-2.455 2.173,-2.39 2.173,-2.259 2.194,-2.152 2.391,-2.999 4.368,-3.673 4.345,-3.345 4.347,-3.065 4.367,-2.803 4.324,-2.629 4.369,-2.434 4.346,-2.934 6.996,-3.672 8.736,-3.369 8.671,-3.106 8.735,-2.912 8.692,-3.065 9.323,-3.758"
                           style="fill:none;stroke:#2e3092;stroke-width:3.25999999;stroke-linecap:butt;stroke-linejoin:miter;stroke-miterlimit:2.5;stroke-opacity:1;stroke-dasharray:4.3461, 4.3461;stroke-dashoffset:0"
                           id="path3362" />
                        <path
                           inkscape:connector-curvature="0"
                           d="m 171.478,416.026 140.791,0"
                           style="fill:none;stroke:#c5c7c9;stroke-width:1.08700001;stroke-linecap:butt;stroke-linejoin:miter;stroke-miterlimit:2.5;stroke-opacity:1;stroke-dasharray:none"
                           id="path3364" />
                        <path
                           inkscape:connector-curvature="0"
                           d="m 171.34308,375.2564 c 0.165,0.482 0.248,1.179 0.248,2.092 0,0.727 -0.05,1.307 -0.148,1.742 -0.186,0.808 -0.534,1.211 -1.042,1.211 -0.51,0 -0.859,-0.415 -1.047,-1.248 -0.099,-0.442 -0.148,-1.025 -0.148,-1.75 0,-0.68 0.05,-1.223 0.152,-1.629 0.192,-0.76 0.551,-1.141 1.078,-1.141 0.441,0 0.743,0.242 0.907,0.723 z m 0.683,4.205 c 0.303,-0.584 0.454,-1.255 0.454,-2.013 0,-0.595 -0.093,-1.157 -0.278,-1.683 -0.351,-0.991 -0.957,-1.487 -1.819,-1.487 -0.591,0 -1.076,0.267 -1.456,0.803 -0.407,0.572 -0.611,1.349 -0.611,2.332 0,0.773 0.136,1.438 0.409,1.994 0.368,0.758 0.934,1.137 1.698,1.137 0.689,0 1.223,-0.361 1.603,-1.083"
                           style="fill:#000000;fill-opacity:1;fill-rule:nonzero;stroke:none"
                           id="path3368" />
                        <path
                           inkscape:connector-curvature="0"
                           d="m 189.66808,374.4664 c 1.096,1.138 1.84,1.972 2.232,2.506 0.392,0.532 0.589,1.051 0.589,1.556 0,0.443 -0.12,0.78 -0.359,1.012 -0.24,0.232 -0.526,0.348 -0.858,0.348 -0.41,0 -0.743,-0.15 -0.998,-0.448 -0.14,-0.165 -0.275,-0.418 -0.404,-0.759 l -0.194,0.04 c 0.151,0.688 0.405,1.167 0.762,1.434 0.358,0.269 0.742,0.402 1.153,0.402 0.505,0 0.915,-0.158 1.228,-0.478 0.313,-0.318 0.469,-0.708 0.469,-1.169 0,-0.491 -0.169,-0.964 -0.508,-1.419 -0.338,-0.454 -1.073,-1.263 -2.206,-2.427 l 2.062,0 c 0.288,0 0.491,0.034 0.607,0.103 0.117,0.069 0.249,0.236 0.396,0.503 l 0.117,-0.055 -0.499,-1.252 -3.589,0 0,0.103"
                           style="fill:#000000;fill-opacity:1;fill-rule:nonzero;stroke:none"
                           id="path3372" />
                        <path
                           inkscape:connector-curvature="0"
                           d="m 213.26508,379.6084 -2.204,-3.116 2.204,0 0,3.116 z m 0.296,0.926 0.427,0 0,-4.042 0.939,0 0,-0.597 -0.939,0 0,-1.532 -0.714,0 0,1.532 -2.587,0 0,0.597 2.874,4.042"
                           style="fill:#000000;fill-opacity:1;fill-rule:nonzero;stroke:none"
                           id="path3376" />
                        <path
                           inkscape:connector-curvature="0"
                           d="m 235.06508,377.1214 c -0.21,0.515 -0.566,0.773 -1.069,0.773 -0.464,0 -0.773,-0.139 -0.925,-0.414 -0.09,-0.161 -0.135,-0.431 -0.135,-0.809 0,-0.488 0.104,-0.965 0.312,-1.432 0.208,-0.467 0.537,-0.701 0.986,-0.701 0.356,0 0.615,0.153 0.777,0.456 0.162,0.304 0.243,0.659 0.243,1.067 0,0.398 -0.063,0.752 -0.189,1.06 z m 0.483,-2.196 c -0.352,-0.44 -0.809,-0.661 -1.372,-0.661 -0.527,0 -1.007,0.247 -1.44,0.741 -0.433,0.494 -0.649,1.151 -0.649,1.973 0,1.056 0.419,1.964 1.258,2.721 0.748,0.635 1.59,0.953 2.524,0.953 l 0.022,-0.149 c -0.374,-0.068 -0.696,-0.162 -0.967,-0.28 -0.272,-0.119 -0.513,-0.284 -0.726,-0.496 -0.219,-0.216 -0.424,-0.491 -0.615,-0.823 -0.192,-0.332 -0.323,-0.662 -0.396,-0.988 0.186,0.114 0.346,0.197 0.481,0.251 0.239,0.096 0.481,0.145 0.723,0.145 0.476,0 0.876,-0.165 1.2,-0.494 0.323,-0.331 0.484,-0.8 0.484,-1.412 0,-0.547 -0.175,-1.042 -0.527,-1.481"
                           style="fill:#000000;fill-opacity:1;fill-rule:nonzero;stroke:none"
                           id="path3380" />
                        <path
                           inkscape:connector-curvature="0"
                           d="m 255.91708,378.4444 c 0.186,0.231 0.279,0.508 0.279,0.834 0,0.285 -0.088,0.526 -0.263,0.725 -0.175,0.199 -0.441,0.298 -0.797,0.298 -0.276,0 -0.504,-0.086 -0.683,-0.26 -0.18,-0.173 -0.27,-0.384 -0.27,-0.632 0,-0.281 0.106,-0.542 0.317,-0.783 0.211,-0.24 0.489,-0.467 0.833,-0.68 0.282,0.198 0.476,0.365 0.584,0.498 z m 0.139,-3.637 c 0.177,0.191 0.265,0.43 0.265,0.718 0,0.326 -0.093,0.589 -0.28,0.792 -0.187,0.202 -0.572,0.507 -1.153,0.917 -0.257,-0.162 -0.444,-0.372 -0.561,-0.628 -0.117,-0.257 -0.175,-0.506 -0.175,-0.745 0,-0.409 0.106,-0.736 0.317,-0.977 0.211,-0.242 0.48,-0.364 0.806,-0.364 0.344,0 0.605,0.096 0.781,0.287 z m -2.223,3.379 c -0.221,0.287 -0.332,0.604 -0.332,0.952 0,0.394 0.163,0.731 0.491,1.007 0.328,0.275 0.754,0.412 1.278,0.412 0.482,0 0.866,-0.13 1.15,-0.39 0.284,-0.261 0.427,-0.564 0.427,-0.908 0,-0.351 -0.146,-0.665 -0.436,-0.943 -0.168,-0.16 -0.438,-0.342 -0.813,-0.548 0.51,-0.378 0.873,-0.706 1.094,-0.987 0.22,-0.279 0.33,-0.61 0.33,-0.99 0,-0.431 -0.162,-0.794 -0.487,-1.087 -0.325,-0.293 -0.76,-0.44 -1.305,-0.44 -0.489,0 -0.907,0.136 -1.256,0.407 -0.348,0.271 -0.523,0.628 -0.523,1.071 0,0.38 0.121,0.716 0.364,1.006 0.158,0.189 0.434,0.414 0.826,0.678 -0.395,0.317 -0.665,0.57 -0.808,0.76"
                           style="fill:#000000;fill-opacity:1;fill-rule:nonzero;stroke:none"
                           id="path3384" />
                        <path
                           inkscape:connector-curvature="0"
                           d="m 274.57008,380.5014 c 10e-4,-0.008 0.002,-0.024 0.002,-0.052 l 0,-5.408 c 0,-0.23 0.062,-0.377 0.185,-0.44 0.123,-0.063 0.354,-0.101 0.691,-0.113 l 0,-0.125 -2.538,0 0,0.134 c 0.362,0.019 0.599,0.068 0.71,0.15 0.111,0.08 0.166,0.256 0.166,0.525 l 0,4.158 c 0,0.145 -0.018,0.253 -0.054,0.329 -0.036,0.075 -0.114,0.112 -0.234,0.112 -0.078,0 -0.179,-0.022 -0.302,-0.065 -0.125,-0.043 -0.241,-0.089 -0.349,-0.137 l 0,0.125 1.649,0.84 0.054,0 c 0.011,-0.014 0.018,-0.025 0.02,-0.033"
                           style="fill:#000000;fill-opacity:1;fill-rule:nonzero;stroke:none"
                           id="path3388" />
                        <path
                           inkscape:connector-curvature="0"
                           d="m 279.53508,375.2564 c 0.165,0.482 0.247,1.179 0.247,2.092 0,0.727 -0.049,1.307 -0.147,1.742 -0.186,0.808 -0.534,1.211 -1.042,1.211 -0.51,0 -0.859,-0.415 -1.047,-1.248 -0.099,-0.442 -0.148,-1.025 -0.148,-1.75 0,-0.68 0.05,-1.223 0.152,-1.629 0.191,-0.76 0.551,-1.141 1.078,-1.141 0.44,0 0.743,0.242 0.907,0.723 z m 0.683,4.205 c 0.302,-0.584 0.454,-1.255 0.454,-2.013 0,-0.595 -0.093,-1.157 -0.279,-1.683 -0.35,-0.991 -0.956,-1.487 -1.819,-1.487 -0.59,0 -1.075,0.267 -1.456,0.803 -0.407,0.572 -0.61,1.349 -0.61,2.332 0,0.773 0.136,1.438 0.409,1.994 0.368,0.758 0.934,1.137 1.698,1.137 0.688,0 1.223,-0.361 1.603,-1.083"
                           style="fill:#000000;fill-opacity:1;fill-rule:nonzero;stroke:none"
                           id="path3390" />
                        <path
                           inkscape:connector-curvature="0"
                           d="m 295.75308,380.5014 c 0.002,-0.008 0.003,-0.024 0.003,-0.052 l 0,-5.408 c 0,-0.23 0.062,-0.377 0.185,-0.44 0.123,-0.063 0.353,-0.101 0.691,-0.113 l 0,-0.125 -2.538,0 0,0.134 c 0.362,0.019 0.599,0.068 0.709,0.15 0.111,0.08 0.166,0.256 0.166,0.525 l 0,4.158 c 0,0.145 -0.018,0.253 -0.053,0.329 -0.036,0.075 -0.114,0.112 -0.234,0.112 -0.078,0 -0.179,-0.022 -0.303,-0.065 -0.124,-0.043 -0.241,-0.089 -0.348,-0.137 l 0,0.125 1.648,0.84 0.054,0 c 0.012,-0.014 0.019,-0.025 0.02,-0.033"
                           style="fill:#000000;fill-opacity:1;fill-rule:nonzero;stroke:none"
                           id="path3394" />
                        <path
                           inkscape:connector-curvature="0"
                           d="m 297.88508,374.4664 c 1.096,1.138 1.84,1.972 2.233,2.506 0.392,0.532 0.588,1.051 0.588,1.556 0,0.443 -0.12,0.78 -0.359,1.012 -0.241,0.232 -0.525,0.348 -0.859,0.348 -0.409,0 -0.742,-0.15 -0.997,-0.448 -0.141,-0.165 -0.275,-0.418 -0.404,-0.759 l -0.194,0.04 c 0.151,0.688 0.404,1.167 0.762,1.434 0.358,0.269 0.742,0.402 1.152,0.402 0.506,0 0.916,-0.158 1.228,-0.478 0.313,-0.318 0.471,-0.708 0.471,-1.169 0,-0.491 -0.171,-0.964 -0.508,-1.419 -0.339,-0.454 -1.074,-1.263 -2.207,-2.427 l 2.061,0 c 0.289,0 0.491,0.034 0.609,0.103 0.115,0.069 0.249,0.236 0.393,0.503 l 0.118,-0.055 -0.498,-1.252 -3.589,0 0,0.103"
                           style="fill:#000000;fill-opacity:1;fill-rule:nonzero;stroke:none"
                           id="path3396" />
                        <path
                           inkscape:connector-curvature="0"
                           d="m 205.59508,366.7894 -1.054,2.533 -1.06,-2.533 2.114,0 z m -3.962,-2.362 0,0.17 c 0.236,0.027 0.414,0.116 0.532,0.267 0.118,0.152 0.322,0.566 0.609,1.243 l 1.916,4.513 0.183,0 2.292,-5.214 c 0.153,-0.346 0.275,-0.56 0.366,-0.641 0.092,-0.082 0.245,-0.138 0.461,-0.168 l 0,-0.17 -2.339,0 0,0.17 c 0.268,0.024 0.441,0.054 0.52,0.088 0.077,0.034 0.116,0.118 0.116,0.253 0,0.044 -0.015,0.123 -0.045,0.236 -0.03,0.113 -0.072,0.233 -0.126,0.357 l -0.368,0.885 -2.425,0 c -0.238,-0.601 -0.381,-0.969 -0.427,-1.101 -0.047,-0.132 -0.07,-0.238 -0.07,-0.315 0,-0.156 0.063,-0.263 0.189,-0.322 0.077,-0.035 0.224,-0.063 0.439,-0.081 l 0,-0.17 -1.823,0"
                           style="fill:#000000;fill-opacity:1;fill-rule:nonzero;stroke:none"
                           id="path3400" />
                        <path
                           inkscape:connector-curvature="0"
                           d="m 210.89408,366.1604 c 0.18,0.144 0.27,0.395 0.27,0.75 0,0.284 -0.073,0.606 -0.218,0.962 -0.145,0.356 -0.387,0.534 -0.726,0.534 -0.293,0 -0.495,-0.139 -0.606,-0.418 -0.057,-0.146 -0.085,-0.328 -0.085,-0.544 0,-0.364 0.088,-0.692 0.265,-0.982 0.176,-0.291 0.406,-0.436 0.687,-0.436 0.165,0 0.302,0.044 0.413,0.134 z m -1.426,-3.085 c 0.283,-0.096 0.607,-0.144 0.972,-0.144 0.498,0 0.902,0.086 1.214,0.259 0.311,0.171 0.466,0.383 0.466,0.635 0,0.201 -0.126,0.334 -0.378,0.4 -0.156,0.039 -0.451,0.06 -0.886,0.067 -0.111,0.003 -0.228,0.006 -0.351,0.011 -0.123,0.005 -0.236,0.01 -0.338,0.016 -0.066,0.002 -0.173,0.014 -0.319,0.037 -0.147,0.02 -0.257,0.038 -0.329,0.053 -0.036,0 -0.124,-0.095 -0.262,-0.283 -0.143,-0.192 -0.213,-0.369 -0.213,-0.53 0,-0.251 0.141,-0.426 0.424,-0.521 z m -0.476,3.341 c -0.151,0.231 -0.227,0.49 -0.227,0.778 0,0.35 0.14,0.682 0.418,0.997 0.279,0.314 0.672,0.471 1.181,0.471 0.219,0 0.46,-0.051 0.723,-0.155 0.264,-0.103 0.517,-0.154 0.759,-0.154 0.063,0 0.158,0.002 0.286,0.007 0.127,0.004 0.219,0.006 0.276,0.006 l 0.054,0 0,-0.364 -0.777,0 c 0.054,-0.126 0.096,-0.235 0.126,-0.328 0.051,-0.174 0.076,-0.338 0.076,-0.494 0,-0.341 -0.142,-0.654 -0.424,-0.941 -0.284,-0.286 -0.664,-0.429 -1.144,-0.429 -0.075,0 -0.209,0.013 -0.404,0.041 -0.087,0 -0.202,-0.073 -0.346,-0.221 -0.143,-0.146 -0.215,-0.267 -0.215,-0.358 0,-0.096 0.105,-0.167 0.315,-0.212 0.138,-0.03 0.291,-0.045 0.458,-0.045 0.771,0 1.295,-0.043 1.57,-0.13 0.453,-0.141 0.68,-0.443 0.68,-0.907 0,-0.474 -0.265,-0.851 -0.793,-1.132 -0.529,-0.281 -1.063,-0.423 -1.601,-0.423 -0.492,0 -0.881,0.101 -1.168,0.299 -0.288,0.199 -0.431,0.408 -0.431,0.627 0,0.107 0.037,0.214 0.114,0.316 0.075,0.104 0.225,0.257 0.449,0.461 l 0.295,0.265 0.054,0.053 c -0.137,0.054 -0.239,0.107 -0.308,0.158 -0.119,0.092 -0.178,0.199 -0.178,0.319 0,0.11 0.052,0.233 0.155,0.366 0.104,0.133 0.324,0.349 0.663,0.65 -0.273,0.089 -0.485,0.25 -0.636,0.479"
                           style="fill:#000000;fill-opacity:1;fill-rule:nonzero;stroke:none"
                           id="path3402" />
                        <path
                           inkscape:connector-curvature="0"
                           d="m 213.80508,367.8594 c -0.096,-0.163 -0.165,-0.367 -0.207,-0.611 l 1.896,0 c -0.033,0.299 -0.09,0.523 -0.171,0.669 -0.147,0.263 -0.392,0.396 -0.736,0.396 -0.342,0 -0.602,-0.152 -0.782,-0.454 z m 2.151,0.343 c 0.318,-0.292 0.477,-0.707 0.477,-1.242 l -2.853,0 c 0.03,-0.693 0.188,-1.198 0.472,-1.515 0.285,-0.317 0.622,-0.475 1.011,-0.475 0.314,0 0.579,0.082 0.795,0.247 0.215,0.164 0.415,0.396 0.597,0.698 l 0.157,-0.054 c -0.123,-0.379 -0.352,-0.733 -0.689,-1.056 -0.337,-0.324 -0.75,-0.486 -1.238,-0.486 -0.563,0 -0.998,0.212 -1.304,0.638 -0.308,0.425 -0.461,0.914 -0.461,1.468 0,0.603 0.178,1.122 0.534,1.559 0.357,0.437 0.821,0.656 1.393,0.656 0.422,0 0.792,-0.147 1.109,-0.438"
                           style="fill:#000000;fill-opacity:1;fill-rule:nonzero;stroke:none"
                           id="path3404" />
                        <path
                           inkscape:connector-curvature="0"
                           d="m 220.64208,368.1374 c -0.3,-0.273 -0.449,-0.743 -0.449,-1.41 0,-0.533 0.12,-1.031 0.361,-1.491 0.242,-0.462 0.578,-0.693 1.007,-0.693 0.335,0 0.594,0.154 0.776,0.463 0.181,0.309 0.272,0.713 0.272,1.213 0,0.518 -0.116,1.006 -0.347,1.464 -0.23,0.459 -0.565,0.687 -1.003,0.687 -0.237,0 -0.443,-0.078 -0.617,-0.233 z m -0.716,-0.115 c 0.378,0.412 0.865,0.618 1.461,0.618 0.593,0 1.084,-0.195 1.474,-0.583 0.389,-0.391 0.584,-0.908 0.584,-1.555 0,-0.597 -0.189,-1.114 -0.566,-1.554 -0.378,-0.441 -0.866,-0.661 -1.465,-0.661 -0.575,0 -1.061,0.211 -1.459,0.634 -0.399,0.422 -0.598,0.952 -0.598,1.59 0,0.596 0.19,1.1 0.569,1.511"
                           style="fill:#000000;fill-opacity:1;fill-rule:nonzero;stroke:none"
                           id="path3406" />
                        <path
                           inkscape:connector-curvature="0"
                           d="m 223.90308,364.5524 c 0.316,0.016 0.526,0.075 0.626,0.178 0.1,0.103 0.15,0.321 0.15,0.653 l 0,2.884 -0.768,0 0,0.302 0.768,0 c 0,0.472 0.065,0.873 0.194,1.199 0.246,0.625 0.697,0.938 1.354,0.938 0.264,0 0.5,-0.053 0.709,-0.157 0.208,-0.105 0.313,-0.246 0.313,-0.423 0,-0.098 -0.036,-0.186 -0.108,-0.265 -0.071,-0.078 -0.158,-0.116 -0.259,-0.116 -0.086,0 -0.161,0.026 -0.223,0.078 -0.063,0.053 -0.137,0.145 -0.224,0.277 l -0.076,0.117 c -0.041,0.062 -0.091,0.115 -0.147,0.159 -0.057,0.044 -0.136,0.066 -0.237,0.066 -0.227,0 -0.38,-0.114 -0.461,-0.338 -0.044,-0.119 -0.067,-0.277 -0.067,-0.471 l 0,-1.064 1.119,0 0,-0.302 -1.119,0 0,-2.884 c 0,-0.338 0.046,-0.555 0.138,-0.648 0.091,-0.094 0.33,-0.156 0.716,-0.183 l 0,-0.125 -2.398,0 0,0.125"
                           style="fill:#000000;fill-opacity:1;fill-rule:nonzero;stroke:none"
                           id="path3408" />
                        <path
                           inkscape:connector-curvature="0"
                           d="m 231.82208,370.5134 0,-0.171 c -0.354,-0.023 -0.583,-0.083 -0.688,-0.177 -0.105,-0.095 -0.157,-0.311 -0.157,-0.649 l 0,-2.943 c 0,-0.481 0.066,-0.857 0.198,-1.127 0.245,-0.491 0.711,-0.736 1.397,-0.736 0.751,0 1.255,0.251 1.513,0.755 0.144,0.281 0.216,0.715 0.216,1.302 l 0,2.394 c 0,0.5 -0.061,0.814 -0.18,0.941 -0.119,0.128 -0.347,0.208 -0.683,0.24 l 0,0.171 2.129,0 0,-0.171 c -0.356,-0.039 -0.589,-0.124 -0.698,-0.258 -0.109,-0.133 -0.164,-0.44 -0.164,-0.923 l 0,-2.394 c 0,-0.635 -0.097,-1.131 -0.292,-1.487 -0.359,-0.655 -1.042,-0.984 -2.048,-0.984 -0.994,0 -1.671,0.324 -2.03,0.971 -0.195,0.346 -0.293,0.805 -0.293,1.374 l 0,2.875 c 0,0.335 -0.051,0.55 -0.155,0.645 -0.103,0.094 -0.328,0.155 -0.675,0.181 l 0,0.171 2.61,0"
                           style="fill:#000000;fill-opacity:1;fill-rule:nonzero;stroke:none"
                           id="path3410" />
                        <path
                           inkscape:connector-curvature="0"
                           d="m 235.89608,364.5524 c 0.213,0.027 0.362,0.081 0.447,0.16 0.085,0.079 0.127,0.257 0.127,0.532 l 0,2.283 c 0,0.189 -0.017,0.323 -0.053,0.4 -0.057,0.113 -0.174,0.17 -0.351,0.17 -0.027,0 -0.054,-0.002 -0.082,-0.005 -0.029,-0.003 -0.064,-0.007 -0.106,-0.013 l 0,0.157 c 0.123,0.036 0.413,0.128 0.871,0.278 l 0.423,0.139 c 0.021,0 0.033,-0.007 0.038,-0.022 0.004,-0.015 0.007,-0.035 0.007,-0.062 l 0,-0.662 c 0.274,0.258 0.49,0.435 0.645,0.531 0.233,0.147 0.476,0.22 0.726,0.22 0.204,0 0.389,-0.058 0.556,-0.175 0.323,-0.228 0.484,-0.633 0.484,-1.217 l 0,-2.098 c 0,-0.216 0.044,-0.372 0.13,-0.467 0.086,-0.096 0.23,-0.146 0.432,-0.149 l 0,-0.125 -1.918,0 0,0.125 c 0.218,0.03 0.371,0.092 0.458,0.183 0.087,0.09 0.13,0.289 0.13,0.594 l 0,1.919 c 0,0.258 -0.047,0.47 -0.143,0.64 -0.095,0.169 -0.271,0.254 -0.527,0.254 -0.176,0 -0.354,-0.06 -0.536,-0.181 -0.101,-0.068 -0.232,-0.182 -0.393,-0.341 l 0,-2.515 c 0,-0.215 0.048,-0.36 0.144,-0.433 0.096,-0.074 0.247,-0.114 0.454,-0.12 l 0,-0.125 -1.963,0 0,0.125"
                           style="fill:#000000;fill-opacity:1;fill-rule:nonzero;stroke:none"
                           id="path3412" />
                        <path
                           inkscape:connector-curvature="0"
                           d="m 241.22308,370.5594 c 0.09,0.092 0.201,0.138 0.332,0.138 0.129,0 0.239,-0.045 0.331,-0.136 0.091,-0.091 0.137,-0.202 0.137,-0.333 0,-0.128 -0.046,-0.238 -0.137,-0.328 -0.092,-0.092 -0.202,-0.137 -0.331,-0.137 -0.131,0 -0.242,0.045 -0.332,0.137 -0.089,0.09 -0.135,0.2 -0.135,0.328 0,0.128 0.046,0.239 0.135,0.331 z m -0.714,-6.007 c 0.32,0.03 0.523,0.086 0.606,0.165 0.084,0.078 0.126,0.294 0.126,0.644 l 0,2.142 c 0,0.195 -0.014,0.33 -0.041,0.404 -0.044,0.123 -0.139,0.185 -0.282,0.185 -0.033,0 -0.065,-0.003 -0.097,-0.009 -0.032,-0.006 -0.122,-0.029 -0.272,-0.072 l 0,0.14 0.193,0.062 c 0.524,0.171 0.89,0.3 1.096,0.387 0.084,0.036 0.138,0.053 0.162,0.053 0.006,-0.02 0.009,-0.042 0.009,-0.067 l 0,-3.225 c 0,-0.341 0.042,-0.556 0.124,-0.642 0.082,-0.087 0.268,-0.143 0.559,-0.167 l 0,-0.125 -2.183,0 0,0.125"
                           style="fill:#000000;fill-opacity:1;fill-rule:nonzero;stroke:none"
                           id="path3414" />
                        <path
                           inkscape:connector-curvature="0"
                           d="m 244.86108,368.6004 0,-0.14 c -0.156,-0.017 -0.266,-0.042 -0.33,-0.071 -0.064,-0.03 -0.097,-0.097 -0.097,-0.198 0,-0.048 0.007,-0.093 0.02,-0.137 0.014,-0.044 0.037,-0.108 0.07,-0.191 l 0.944,-2.257 0.799,1.992 c 0.039,0.098 0.075,0.202 0.11,0.309 0.034,0.108 0.051,0.191 0.051,0.247 0,0.118 -0.055,0.202 -0.166,0.252 -0.065,0.028 -0.155,0.045 -0.269,0.054 l 0,0.14 1.275,0 0,-0.14 c -0.146,-0.012 -0.252,-0.06 -0.316,-0.145 -0.065,-0.086 -0.158,-0.283 -0.281,-0.591 l -1.298,-3.235 c -0.024,-0.056 -0.043,-0.095 -0.058,-0.116 -0.015,-0.02 -0.036,-0.032 -0.063,-0.032 -0.03,0 -0.055,0.019 -0.076,0.053 -0.022,0.034 -0.044,0.076 -0.068,0.127 l -1.374,3.289 c -0.111,0.266 -0.229,0.446 -0.355,0.543 -0.076,0.053 -0.185,0.09 -0.328,0.107 l 0,0.14 1.81,0"
                           style="fill:#000000;fill-opacity:1;fill-rule:nonzero;stroke:none"
                           id="path3416" />
                        <path
                           inkscape:connector-curvature="0"
                           d="m 248.54908,367.8594 c -0.097,-0.163 -0.165,-0.367 -0.206,-0.611 l 1.895,0 c -0.033,0.299 -0.09,0.523 -0.171,0.669 -0.147,0.263 -0.392,0.396 -0.737,0.396 -0.341,0 -0.601,-0.152 -0.781,-0.454 z m 2.151,0.343 c 0.318,-0.292 0.477,-0.707 0.477,-1.242 l -2.853,0 c 0.03,-0.693 0.187,-1.198 0.472,-1.515 0.284,-0.317 0.621,-0.475 1.01,-0.475 0.315,0 0.58,0.082 0.796,0.247 0.215,0.164 0.414,0.396 0.597,0.698 l 0.157,-0.054 c -0.122,-0.379 -0.352,-0.733 -0.69,-1.056 -0.336,-0.324 -0.749,-0.486 -1.237,-0.486 -0.563,0 -0.998,0.212 -1.305,0.638 -0.306,0.425 -0.46,0.914 -0.46,1.468 0,0.603 0.178,1.122 0.534,1.559 0.356,0.437 0.821,0.656 1.393,0.656 0.422,0 0.792,-0.147 1.109,-0.438"
                           style="fill:#000000;fill-opacity:1;fill-rule:nonzero;stroke:none"
                           id="path3418" />
                        <path
                           inkscape:connector-curvature="0"
                           d="m 251.60708,364.5744 c 0.277,0.025 0.459,0.074 0.549,0.147 0.089,0.073 0.135,0.23 0.135,0.47 l 0,2.025 c 0,0.297 -0.029,0.508 -0.084,0.636 -0.055,0.127 -0.156,0.191 -0.303,0.191 -0.03,0 -0.07,-0.004 -0.119,-0.013 -0.049,-0.006 -0.101,-0.016 -0.155,-0.028 l 0,0.149 c 0.17,0.059 0.345,0.121 0.524,0.184 0.179,0.063 0.303,0.108 0.371,0.134 0.15,0.057 0.304,0.122 0.462,0.193 0.021,0 0.033,-0.007 0.038,-0.022 0.004,-0.015 0.007,-0.046 0.007,-0.095 l 0,-0.735 c 0.192,0.266 0.377,0.473 0.556,0.624 0.178,0.149 0.364,0.224 0.556,0.224 0.153,0 0.278,-0.046 0.374,-0.137 0.096,-0.091 0.144,-0.205 0.144,-0.344 0,-0.122 -0.037,-0.226 -0.11,-0.31 -0.074,-0.083 -0.166,-0.126 -0.276,-0.126 -0.114,0 -0.228,0.053 -0.344,0.158 -0.115,0.104 -0.206,0.158 -0.272,0.158 -0.105,0 -0.233,-0.086 -0.386,-0.254 -0.153,-0.17 -0.229,-0.345 -0.229,-0.524 l 0,-2.026 c 0,-0.258 0.06,-0.436 0.18,-0.536 0.119,-0.101 0.319,-0.148 0.597,-0.143 l 0,-0.147 -2.215,0 0,0.147"
                           style="fill:#000000;fill-opacity:1;fill-rule:nonzero;stroke:none"
                           id="path3420" />
                        <path
                           inkscape:connector-curvature="0"
                           d="m 255.11208,365.8414 0.148,0 c 0.068,-0.341 0.161,-0.603 0.277,-0.785 0.21,-0.336 0.516,-0.504 0.919,-0.504 0.224,0 0.401,0.063 0.531,0.186 0.13,0.124 0.195,0.286 0.195,0.484 0,0.125 -0.037,0.247 -0.112,0.363 -0.075,0.117 -0.207,0.232 -0.395,0.343 l -0.503,0.287 c -0.369,0.196 -0.64,0.396 -0.813,0.597 -0.174,0.201 -0.261,0.437 -0.261,0.71 0,0.335 0.12,0.611 0.359,0.827 0.24,0.215 0.541,0.322 0.904,0.322 0.158,0 0.332,-0.029 0.523,-0.089 0.19,-0.06 0.297,-0.091 0.321,-0.091 0.054,0 0.093,0.008 0.117,0.023 0.023,0.014 0.044,0.04 0.062,0.072 l 0.108,0 0.031,-1.253 -0.139,0 c -0.06,0.29 -0.141,0.517 -0.243,0.678 -0.185,0.3 -0.453,0.449 -0.803,0.449 -0.21,0 -0.374,-0.064 -0.494,-0.193 -0.12,-0.128 -0.18,-0.281 -0.18,-0.453 0,-0.276 0.207,-0.521 0.62,-0.737 l 0.593,-0.319 c 0.637,-0.348 0.957,-0.752 0.957,-1.213 0,-0.352 -0.133,-0.642 -0.397,-0.866 -0.265,-0.226 -0.611,-0.338 -1.038,-0.338 -0.18,0 -0.383,0.031 -0.61,0.091 -0.228,0.059 -0.362,0.089 -0.404,0.089 -0.036,0 -0.067,-0.013 -0.094,-0.038 -0.027,-0.026 -0.048,-0.056 -0.063,-0.092 l -0.116,0 0,1.45"
                           style="fill:#000000;fill-opacity:1;fill-rule:nonzero;stroke:none"
                           id="path3422" />
                        <path
                           inkscape:connector-curvature="0"
                           d="m 259.27508,367.8594 c -0.096,-0.163 -0.165,-0.367 -0.206,-0.611 l 1.895,0 c -0.033,0.299 -0.09,0.523 -0.171,0.669 -0.147,0.263 -0.392,0.396 -0.736,0.396 -0.342,0 -0.602,-0.152 -0.782,-0.454 z m 2.152,0.343 c 0.317,-0.292 0.476,-0.707 0.476,-1.242 l -2.852,0 c 0.029,-0.693 0.187,-1.198 0.471,-1.515 0.285,-0.317 0.621,-0.475 1.01,-0.475 0.315,0 0.581,0.082 0.796,0.247 0.215,0.164 0.415,0.396 0.597,0.698 l 0.157,-0.054 c -0.122,-0.379 -0.352,-0.733 -0.689,-1.056 -0.337,-0.324 -0.75,-0.486 -1.238,-0.486 -0.562,0 -0.998,0.212 -1.305,0.638 -0.306,0.425 -0.46,0.914 -0.46,1.468 0,0.603 0.178,1.122 0.535,1.559 0.356,0.437 0.82,0.656 1.392,0.656 0.423,0 0.792,-0.147 1.11,-0.438"
                           style="fill:#000000;fill-opacity:1;fill-rule:nonzero;stroke:none"
                           id="path3424" />
                        <path
                           inkscape:connector-curvature="0"
                           d="m 265.95008,369.4804 c 0.383,0.482 0.836,0.87 1.357,1.163 l 0.085,-0.148 c -0.482,-0.384 -0.827,-0.756 -1.033,-1.118 -0.363,-0.633 -0.544,-1.474 -0.544,-2.524 0,-0.78 0.069,-1.421 0.207,-1.927 0.242,-0.888 0.699,-1.55 1.37,-1.99 l -0.116,-0.149 c -0.369,0.177 -0.767,0.524 -1.195,1.038 -0.71,0.854 -1.065,1.823 -1.065,2.911 0,1.042 0.311,1.957 0.934,2.744"
                           style="fill:#000000;fill-opacity:1;fill-rule:nonzero;stroke:none"
                           id="path3426" />
                        <path
                           inkscape:connector-curvature="0"
                           d="m 272.11308,370.4734 c 0.344,-0.1 0.542,-0.149 0.592,-0.149 0.132,0 0.226,0.026 0.281,0.078 0.055,0.05 0.103,0.123 0.142,0.218 l 0.202,0 0.072,-1.935 -0.211,0 c -0.189,0.446 -0.384,0.779 -0.584,0.998 -0.363,0.383 -0.834,0.574 -1.415,0.574 -0.59,0 -1.109,-0.224 -1.556,-0.672 -0.448,-0.447 -0.672,-1.184 -0.672,-2.212 0,-0.846 0.223,-1.51 0.67,-1.985 0.445,-0.476 0.996,-0.714 1.652,-0.714 0.111,0 0.241,0.011 0.391,0.031 0.149,0.021 0.292,0.054 0.426,0.099 0.219,0.072 0.355,0.134 0.409,0.185 0.054,0.053 0.081,0.129 0.081,0.232 l 0,1.465 c 0,0.355 -0.05,0.577 -0.15,0.664 -0.1,0.087 -0.32,0.141 -0.658,0.163 l 0,0.17 2.345,0 0,-0.17 c -0.228,-0.016 -0.379,-0.053 -0.454,-0.112 -0.126,-0.096 -0.189,-0.294 -0.189,-0.593 l 0,-1.811 c 0,-0.107 -0.264,-0.252 -0.792,-0.431 -0.529,-0.179 -1.038,-0.27 -1.526,-0.27 -0.898,0 -1.656,0.262 -2.272,0.786 -0.68,0.579 -1.02,1.354 -1.02,2.327 0,0.856 0.271,1.59 0.813,2.202 0.596,0.673 1.386,1.009 2.371,1.009 0.357,0 0.707,-0.049 1.052,-0.147"
                           style="fill:#000000;fill-opacity:1;fill-rule:nonzero;stroke:none"
                           id="path3428" />
                        <path
                           inkscape:connector-curvature="0"
                           d="m 274.42608,368.5544 1.895,0 0,-0.125 c -0.149,-0.003 -0.26,-0.017 -0.332,-0.041 -0.138,-0.04 -0.207,-0.118 -0.207,-0.235 0,-0.042 0.008,-0.086 0.022,-0.131 0.016,-0.044 0.043,-0.111 0.082,-0.2 l 1.04,-2.248 0.855,2.267 c 0.009,0.024 0.023,0.079 0.043,0.165 0.02,0.086 0.029,0.144 0.029,0.175 0,0.079 -0.027,0.138 -0.081,0.175 -0.053,0.037 -0.123,0.057 -0.206,0.064 l -0.139,0.009 0,0.125 1.234,0 0,-0.125 c -0.122,-0.016 -0.214,-0.059 -0.275,-0.129 -0.062,-0.072 -0.115,-0.171 -0.16,-0.298 l -1.415,-3.746 c -0.246,-0.646 -0.481,-1.115 -0.705,-1.405 -0.225,-0.291 -0.509,-0.437 -0.854,-0.437 -0.167,0 -0.324,0.042 -0.471,0.126 -0.147,0.084 -0.22,0.217 -0.22,0.4 0,0.12 0.043,0.217 0.131,0.294 0.087,0.077 0.196,0.115 0.33,0.115 0.077,0 0.192,-0.029 0.344,-0.086 0.152,-0.057 0.261,-0.085 0.326,-0.085 0.166,0 0.34,0.203 0.524,0.609 0.183,0.407 0.274,0.676 0.274,0.806 0,0.027 -0.003,0.06 -0.012,0.099 -0.009,0.038 -0.019,0.072 -0.03,0.101 l -1.416,3.061 c -0.102,0.222 -0.191,0.367 -0.267,0.438 -0.076,0.07 -0.19,0.116 -0.339,0.137 l 0,0.125"
                           style="fill:#000000;fill-opacity:1;fill-rule:nonzero;stroke:none"
                           id="path3430" />
                        <path
                           inkscape:connector-curvature="0"
                           d="m 278.94008,364.5744 c 0.276,0.025 0.458,0.074 0.548,0.147 0.09,0.073 0.135,0.23 0.135,0.47 l 0,2.025 c 0,0.297 -0.028,0.508 -0.083,0.636 -0.056,0.127 -0.156,0.191 -0.304,0.191 -0.03,0 -0.069,-0.004 -0.118,-0.013 -0.05,-0.006 -0.102,-0.016 -0.156,-0.028 l 0,0.149 c 0.171,0.059 0.345,0.121 0.524,0.184 0.18,0.063 0.303,0.108 0.372,0.134 0.149,0.057 0.303,0.122 0.461,0.193 0.021,0 0.034,-0.007 0.038,-0.022 0.005,-0.015 0.007,-0.046 0.007,-0.095 l 0,-0.735 c 0.192,0.266 0.377,0.473 0.556,0.624 0.179,0.149 0.364,0.224 0.557,0.224 0.153,0 0.278,-0.046 0.373,-0.137 0.097,-0.091 0.145,-0.205 0.145,-0.344 0,-0.122 -0.037,-0.226 -0.11,-0.31 -0.074,-0.083 -0.166,-0.126 -0.276,-0.126 -0.115,0 -0.229,0.053 -0.345,0.158 -0.115,0.104 -0.206,0.158 -0.271,0.158 -0.105,0 -0.234,-0.086 -0.386,-0.254 -0.153,-0.17 -0.23,-0.345 -0.23,-0.524 l 0,-2.026 c 0,-0.258 0.06,-0.436 0.18,-0.536 0.12,-0.101 0.319,-0.148 0.598,-0.143 l 0,-0.147 -2.215,0 0,0.147"
                           style="fill:#000000;fill-opacity:1;fill-rule:nonzero;stroke:none"
                           id="path3432" />
                        <path
                           inkscape:connector-curvature="0"
                           d="m 284.40708,365.4244 c -0.117,-0.398 -0.288,-0.773 -0.512,-1.128 -0.237,-0.377 -0.552,-0.728 -0.948,-1.056 -0.26,-0.215 -0.479,-0.366 -0.656,-0.453 l -0.085,0.149 c 0.461,0.349 0.798,0.708 1.011,1.073 0.377,0.647 0.565,1.502 0.565,2.564 0,0.86 -0.086,1.563 -0.26,2.108 -0.243,0.769 -0.681,1.374 -1.316,1.814 l 0.117,0.148 c 0.473,-0.264 0.913,-0.661 1.32,-1.195 0.626,-0.82 0.939,-1.74 0.939,-2.757 0,-0.447 -0.058,-0.869 -0.175,-1.267"
                           style="fill:#000000;fill-opacity:1;fill-rule:nonzero;stroke:none"
                           id="path3434" />
                        <text
                           transform="scale(1,-1)"
                           id="text3724"
                           x="527.271"
                           y="-240.168">
                          <tspan
                             style="font-size:8.96640015px;font-variant:normal;font-weight:normal;writing-mode:lr-tb;fill:#000000;fill-opacity:1;fill-rule:nonzero;stroke:none;font-family:MTSY;-inkscape-font-specification:MTSY"
                             x="527.271"
                             y="-240.168"
                             id="tspan3726"></tspan>
                        </text>
                        <text
                           transform="scale(1,-1)"
                           id="text3772"
                           x="46.41116"
                           y="-202.6035">
                          <tspan
                             style="font-size:7.97009993px;font-variant:normal;font-weight:normal;writing-mode:lr-tb;fill:#231f20;fill-opacity:1;fill-rule:nonzero;stroke:none;font-family:Times New Roman;-inkscape-font-specification:Times-Roman"
                             sodipodi:role="line"
                             id="tspan3774"
                             x="46.41116"
                             y="-202.6035" />
                        </text>
                        <text
                           transform="scale(1,-1)"
                           id="text3872"
                           x="243.70799"
                           y="-74.738998">
                          <tspan
                             style="font-size:8.96640015px;font-variant:normal;font-weight:normal;writing-mode:lr-tb;fill:#000000;fill-opacity:1;fill-rule:nonzero;stroke:none;font-family:MS Gothic;-inkscape-font-specification:MSAM10"
                             x="243.70799"
                             y="-74.738998"
                             id="tspan3874"></tspan>
                        </text>
                        <text
                           transform="scale(1,-1)"
                           id="text3912"
                           x="412.75601"
                           y="-116.65064">
                          <tspan
                             style="font-size:8.96640015px;font-variant:normal;font-weight:normal;writing-mode:lr-tb;fill:#000000;fill-opacity:1;fill-rule:nonzero;stroke:none;font-family:MTSY;-inkscape-font-specification:MTSY"
                             x="412.75601"
                             y="-116.65064"
                             id="tspan3914"></tspan>
                        </text>
                        <text
                           transform="scale(1,-1)"
                           id="text3972"
                           x="432.99582"
                           y="-72.813019">
                          <tspan
                             style="font-size:8.96640015px;font-variant:normal;font-weight:normal;writing-mode:lr-tb;fill:#000000;fill-opacity:1;fill-rule:nonzero;stroke:none;font-family:MTSY;-inkscape-font-specification:MTSY"
                             x="432.99582"
                             y="-72.813019"
                             id="tspan3974"></tspan>
                        </text>
                        <flowRoot
                           xml:space="preserve"
                           id="flowRoot5967"
                           style="font-size:20px;font-style:normal;font-weight:normal;line-height:125%;letter-spacing:0px;word-spacing:0px;fill:#000000;fill-opacity:1;stroke:none;font-family:Bitstream Vera Sans"><flowRegion
                             id="flowRegion5969"><rect
                               id="rect5971"
                               width="537.93103"
                               height="332.75861"
                               x="1.7241379"
                               y="681.67255" /></flowRegion><flowPara
                             id="flowPara5973"></flowPara></flowRoot>                      </g>
                    </g>
                  </g>
                </g>
              </g>
            </g>
          </g>
        </g>
      </g>
    </g>
  </g>
</svg>
