<?xml version="1.0" encoding="UTF-8" standalone="no"?>
<!-- Created with Inkscape (http://www.inkscape.org/) -->

<svg
   width="7.02214mm"
   height="9.6508598mm"
   viewBox="0 0 7.02214 9.6508598"
   version="1.1"
   id="svg15884"
   inkscape:version="1.2.1 (9c6d41e, 2022-07-14)"
   sodipodi:docname="onecoremanystars_cartoon.svg"
   xmlns:inkscape="http://www.inkscape.org/namespaces/inkscape"
   xmlns:sodipodi="http://sodipodi.sourceforge.net/DTD/sodipodi-0.dtd"
   xmlns="http://www.w3.org/2000/svg"
   xmlns:svg="http://www.w3.org/2000/svg">
  <sodipodi:namedview
     id="namedview15886"
     pagecolor="#505050"
     bordercolor="#eeeeee"
     borderopacity="1"
     inkscape:showpageshadow="0"
     inkscape:pageopacity="0"
     inkscape:pagecheckerboard="0"
     inkscape:deskcolor="#505050"
     inkscape:document-units="mm"
     showgrid="false"
     inkscape:zoom="2.8913827"
     inkscape:cx="7.0900334"
     inkscape:cy="20.751317"
     inkscape:window-width="1309"
     inkscape:window-height="456"
     inkscape:window-x="0"
     inkscape:window-y="38"
     inkscape:window-maximized="0"
     inkscape:current-layer="layer1" />
  <defs
     id="defs15881" />
  <g
     inkscape:label="Layer 1"
     inkscape:groupmode="layer"
     id="layer1"
     transform="translate(-100.3132,-143.67456)">
    <path
       d="m 102.00951,150.46901 -0.048,0.73898 0.15353,0.64608 0.40623,0.76848 0.62147,0.46445 0.38249,0.13083 0.84015,0.10759 0.72066,-0.0592 0.53969,-0.28301 0.3553,-0.45399 0.0992,-0.52361 0.16064,-0.46663 0.11288,-0.73481 0.0446,-0.6862 0.0583,-0.89733 0.0446,-0.68623 0.0275,-0.42228 0.0308,-0.47509 0.22212,-0.40961 0.22212,-0.40964 0.22552,-0.46242 0.10603,-0.62922 -0.41996,-0.55734 -0.80585,-0.6354 -0.81961,-0.42436 -0.76839,-0.20888 -0.84015,-0.10756 -0.96993,-0.11605 -0.847,-0.002 -0.6046,0.2788 -0.55341,0.49408 -0.16408,0.51944 -0.17776,0.73058 -0.0514,0.79173 0.21501,0.7031 0.21841,0.65028 0.0238,0.63761 0.40967,0.71573 0.47797,0.66715 z"
       style="fill:#164f86;fill-opacity:1;fill-rule:nonzero;stroke:none;stroke-width:0.330729"
       id="path30655"
       inkscape:connector-curvature="0" />
    <path
       d="m 102.31775,144.96776 0.20499,0.77701 0.48792,-0.31789 -0.3972,0.57282 0.57398,0.40303 h -0.6647 l 0.20502,0.62914 -0.43286,-0.57279 -0.38712,0.57279 0.20498,-0.62914 h -0.71043 l 0.57401,-0.40303 -0.39724,-0.57282 0.53366,0.31789 z"
       style="fill:#f39019;fill-opacity:1;fill-rule:nonzero;stroke:none;stroke-width:0.330729"
       id="path30693"
       inkscape:connector-curvature="0" />
    <g
       id="g30695"
       transform="matrix(0.20499586,0,0,0.20499586,101.37937,145.03047)">
      <path
         d="m 4.577572,-0.3059387 1,3.7904017 2.38014,-1.550732 -1.937738,2.794321 2.800113,1.966009 H 5.577572 l 1,3.069185 -2.111542,-2.794322 -1.888458,2.794322 1,-3.069185 H 0.1119727 L 2.912085,4.728052 0.9743471,1.933731 3.577572,3.484463 Z"
         style="fill:none;stroke:#ffffff;stroke-width:0.75;stroke-linecap:butt;stroke-linejoin:miter;stroke-miterlimit:4;stroke-dasharray:none;stroke-opacity:1"
         id="path30697"
         inkscape:connector-curvature="0" />
    </g>
    <path
       d="m 104.5727,144.14775 0.20501,0.86459 0.52176,-0.3179 -0.39724,0.57286 0.57402,0.31542 h -0.69854 l 0.20499,0.71675 -0.39902,-0.57282 -0.42096,0.57282 0.20499,-0.71675 h -0.67661 l 0.57402,-0.31542 -0.39721,-0.57286 0.4998,0.3179 z"
       style="fill:#f39019;fill-opacity:1;fill-rule:nonzero;stroke:none;stroke-width:0.330729"
       id="path30699"
       inkscape:connector-curvature="0" />
    <g
       id="g30701"
       transform="matrix(0.20499586,0,0,0.20499586,103.66815,144.29803)">
      <path
         d="m 4.412498,-0.7331123 1,4.2175753 L 7.957712,1.933731 6.019974,4.728052 8.820087,6.266888 H 5.412498 l 1,3.496358 -1.946468,-2.794322 -2.053532,2.794322 1,-3.496358 H 0.1119727 L 2.912085,4.728052 0.9743471,1.933731 3.412498,3.484463 Z"
         style="fill:none;stroke:#ffffff;stroke-width:0.75;stroke-linecap:butt;stroke-linejoin:miter;stroke-miterlimit:4;stroke-dasharray:none;stroke-opacity:1"
         id="path30703"
         inkscape:connector-curvature="0" />
    </g>
    <path
       d="m 104.5727,146.8127 0.20501,0.76309 0.52176,-0.3179 -0.39724,0.57283 0.57402,0.41695 h -0.69854 l 0.20499,0.61525 -0.39902,-0.57282 -0.42096,0.57282 0.20499,-0.61525 h -0.67661 l 0.57402,-0.41695 -0.39721,-0.57283 0.4998,0.3179 z"
       style="fill:#f39019;fill-opacity:1;fill-rule:nonzero;stroke:none;stroke-width:0.330729"
       id="path30705"
       inkscape:connector-curvature="0" />
    <g
       id="g30707"
       transform="matrix(0.20499586,0,0,0.20499586,103.66815,146.86148)">
      <path
         d="m 4.412498,-0.2379875 1,3.7224505 2.545214,-1.550732 -1.937738,2.794321 2.800113,2.03396 H 5.412498 l 1,3.001234 -1.946468,-2.794322 -2.053532,2.794322 1,-3.001234 H 0.1119727 L 2.912085,4.728052 0.9743471,1.933731 3.412498,3.484463 Z"
         style="fill:none;stroke:#ffffff;stroke-width:0.75;stroke-linecap:butt;stroke-linejoin:miter;stroke-miterlimit:4;stroke-dasharray:none;stroke-opacity:1"
         id="path30709"
         inkscape:connector-curvature="0" />
    </g>
    <path
       d="m 102.31775,147.63268 0.20499,0.76709 0.48792,-0.3179 -0.3972,0.57283 0.57398,0.41298 h -0.6647 l 0.20502,0.61922 -0.43286,-0.57282 -0.38712,0.57282 0.20498,-0.61922 h -0.71043 l 0.57401,-0.41298 -0.39724,-0.57283 0.53366,0.3179 z"
       style="fill:#f39019;fill-opacity:1;fill-rule:nonzero;stroke:none;stroke-width:0.330729"
       id="path30711"
       inkscape:connector-curvature="0" />
    <g
       id="g30713"
       transform="matrix(0.20499586,0,0,0.20499586,101.37937,147.68546)">
      <path
         d="m 4.577572,-0.2574272 1,3.7418902 2.38014,-1.550732 -1.937738,2.794321 2.800113,2.014521 H 5.577572 l 1,3.020673 -2.111542,-2.794322 -1.888458,2.794322 1,-3.020673 H 0.1119727 L 2.912085,4.728052 0.9743471,1.933731 3.577572,3.484463 Z"
         style="fill:none;stroke:#ffffff;stroke-width:0.75;stroke-linecap:butt;stroke-linejoin:miter;stroke-miterlimit:4;stroke-dasharray:none;stroke-opacity:1"
         id="path30715"
         inkscape:connector-curvature="0" />
    </g>
    <path
       d="m 105.18769,149.06768 v 0.88847 l 0.66109,-0.3179 -0.39724,0.57282 0.57402,0.29157 h -0.63286 l 0.20499,0.74064 -0.46471,-0.57282 -0.35527,0.57282 v -0.74064 h -0.5373 l 0.57401,-0.29157 -0.3972,-0.57282 0.56548,0.3179 z"
       style="fill:#f39019;fill-opacity:1;fill-rule:nonzero;stroke:none;stroke-width:0.330729"
       id="path30717"
       inkscape:connector-curvature="0" />
    <g
       id="g30719"
       transform="matrix(0.20499586,0,0,0.20499586,104.21746,149.24184)">
      <path
         d="M 4.732895,-0.8496513 V 3.484463 L 7.957712,1.933731 6.019974,4.728052 8.820087,6.150349 H 5.732895 l 1,3.612897 L 4.46603,6.968924 2.732895,9.763246 V 6.150349 H 0.1119727 L 2.912085,4.728052 0.9743471,1.933731 3.732895,3.484463 Z"
         style="fill:none;stroke:#ffffff;stroke-width:0.75;stroke-linecap:butt;stroke-linejoin:miter;stroke-miterlimit:4;stroke-dasharray:none;stroke-opacity:1"
         id="path30721"
         inkscape:connector-curvature="0" />
    </g>
    <path
       d="m 103.75272,150.50264 0.20502,0.82679 0.6093,-0.31793 -0.39721,0.57283 0.57402,0.35328 h -0.58113 v 0.67892 l -0.31144,-0.57282 -0.30355,0.57282 v -0.67892 h -0.58903 l 0.57402,-0.35328 -0.39724,-0.57283 0.61724,0.31793 z"
       style="fill:#f39019;fill-opacity:1;fill-rule:nonzero;stroke:none;stroke-width:0.330729"
       id="path30723"
       inkscape:connector-curvature="0" />
    <g
       id="g30725"
       transform="matrix(0.20499586,0,0,0.20499586,102.93575,150.61513)">
      <path
         d="m 3.985329,-0.5486946 1,4.0331576 L 7.957712,1.933731 6.019974,4.728052 8.820087,6.451305 H 5.985329 V 9.763246 L 4.46603,6.968924 2.985329,9.763246 V 6.451305 H 0.1119727 L 2.912085,4.728052 0.9743471,1.933731 3.985329,3.484463 Z"
         style="fill:none;stroke:#ffffff;stroke-width:0.75;stroke-linecap:butt;stroke-linejoin:miter;stroke-miterlimit:4;stroke-dasharray:none;stroke-opacity:1"
         id="path30727"
         inkscape:connector-curvature="0" />
    </g>
  </g>
</svg>
